<svg width="258" height="288" viewBox="0 0 258 288" fill="none" xmlns="http://www.w3.org/2000/svg">
<g filter="url(#filter0_f_458_260)">
<circle cx="129" cy="116" r="75" fill="#F1FBFF"/>
</g>
<path d="M105.564 43.8668C104.988 45.5378 103.528 46.959 102.318 47.0551C101.108 47.1511 100.59 45.8643 101.185 44.1933C101.781 42.5224 103.221 41.1011 104.431 41.005C105.641 40.909 106.16 42.1958 105.564 43.8668Z" fill="#6B89F6"/>
<path d="M199.349 70.6215C197.775 75.135 193.818 78.9955 190.534 79.226C187.249 79.4564 185.867 75.9993 187.441 71.4857C189.016 66.9722 192.973 63.1117 196.257 62.8812C199.542 62.6508 200.924 66.1079 199.349 70.6215Z" fill="#FFC000"/>
<path d="M59.4546 66.7521C56.4392 68.4999 54 72.7253 54 76.2017C54 79.6781 56.4584 81.0802 59.493 79.3324C62.5085 77.5846 64.9477 73.3592 64.9477 69.8828C64.9477 66.4064 62.4893 65.0043 59.4546 66.7521Z" fill="#ADC8D8"/>
<rect x="75" y="98.5824" width="79.3111" height="100.04" rx="10" transform="rotate(-23.9625 75 98.5824)" fill="url(#paint0_linear_458_260)"/>
<rect x="75.9012" y="95.2112" width="79.3111" height="100.04" rx="10" transform="rotate(-23.9625 75.9012 95.2112)" fill="#F3F7FA"/>
<rect x="85.4182" y="98.8717" width="64.8909" height="85.6199" rx="10" transform="rotate(-23.9625 85.4182 98.8717)" fill="url(#paint1_linear_458_260)"/>
<path d="M124.971 174.229C126.257 174.257 127.57 174.009 128.824 173.452L171.651 154.418C176.199 152.396 178.248 147.07 176.226 142.522L148.773 80.7529C147.252 77.3297 143.859 75.3225 140.334 75.4006C143.715 75.4754 146.912 77.4584 148.377 80.7529L175.829 142.522C177.851 147.07 175.802 152.396 171.254 154.418L128.428 173.452C127.302 173.952 126.129 174.203 124.971 174.229Z" fill="#ADC8D8"/>
<path fill-rule="evenodd" clip-rule="evenodd" d="M109.608 105.565C109.493 105.883 109.537 106.249 109.728 106.544L111.015 108.518C111.887 109.856 110.836 111.607 109.251 111.46L107.176 111.267C106.85 111.236 106.538 111.375 106.341 111.638L105.095 113.307C104.142 114.582 102.138 114.188 101.729 112.645L101.126 110.368C101.036 110.028 100.793 109.749 100.48 109.622L98.236 108.709C96.8043 108.126 96.6191 106.169 97.9166 105.334L99.8109 104.115C100.08 103.941 100.25 103.632 100.256 103.283L100.289 101.142C100.314 99.5184 102.221 98.6709 103.443 99.7404L105.054 101.151C105.317 101.381 105.66 101.461 105.97 101.377L108.143 100.789C109.632 100.385 110.961 101.834 110.434 103.287L109.608 105.565Z" fill="url(#paint2_linear_458_260)"/>
<path fill-rule="evenodd" clip-rule="evenodd" d="M110.173 104.548C110.058 104.865 110.102 105.232 110.293 105.527L111.58 107.501C112.452 108.839 111.401 110.59 109.816 110.442L107.741 110.249C107.415 110.219 107.103 110.358 106.906 110.62L105.659 112.289C104.706 113.565 102.703 113.171 102.294 111.628L101.691 109.351C101.601 109.01 101.358 108.732 101.045 108.605L98.8008 107.691C97.3691 107.109 97.1839 105.152 98.4814 104.317L100.376 103.097C100.644 102.924 100.815 102.615 100.821 102.266L100.854 100.125C100.879 98.5011 102.786 97.6536 104.008 98.7231L105.619 100.134C105.882 100.364 106.225 100.444 106.535 100.36L108.708 99.7715C110.197 99.368 111.526 100.817 110.999 102.27L110.173 104.548Z" fill="#FFC000"/>
<path fill-rule="evenodd" clip-rule="evenodd" d="M125.256 98.6104C125.141 98.9277 125.185 99.2945 125.376 99.5889L126.663 101.564C127.535 102.901 126.484 104.652 124.899 104.505L122.824 104.312C122.498 104.281 122.186 104.42 121.989 104.683L120.742 106.352C119.789 107.627 117.786 107.233 117.377 105.69L116.774 103.413C116.684 103.073 116.441 102.794 116.128 102.667L113.884 101.754C112.452 101.171 112.267 99.2141 113.564 98.379L115.459 97.1598C115.727 96.9865 115.898 96.6776 115.904 96.3286L115.937 94.1869C115.962 92.5635 117.869 91.716 119.091 92.7855L120.702 94.1964C120.965 94.4261 121.308 94.5064 121.618 94.4226L123.791 93.8338C125.28 93.4304 126.609 94.8792 126.082 96.3323L125.256 98.6104Z" fill="url(#paint3_linear_458_260)"/>
<path fill-rule="evenodd" clip-rule="evenodd" d="M125.821 97.5931C125.706 97.9105 125.75 98.2773 125.941 98.5717L127.228 100.546C128.1 101.884 127.049 103.635 125.464 103.488L123.389 103.295C123.063 103.264 122.751 103.403 122.554 103.666L121.307 105.334C120.354 106.61 118.351 106.216 117.942 104.673L117.339 102.396C117.249 102.056 117.006 101.777 116.693 101.65L114.449 100.736C113.017 100.154 112.832 98.1969 114.129 97.3618L116.024 96.1426C116.292 95.9693 116.463 95.6604 116.469 95.3113L116.502 93.1697C116.527 91.5463 118.434 90.6988 119.656 91.7683L121.267 93.1792C121.53 93.4088 121.873 93.4892 122.183 93.4053L124.356 92.8166C125.845 92.4131 127.174 93.8619 126.647 95.3151L125.821 97.5931Z" fill="#FFC000"/>
<path fill-rule="evenodd" clip-rule="evenodd" d="M140.904 91.6556C140.789 91.973 140.833 92.3398 141.024 92.6342L142.311 94.6088C143.183 95.9462 142.132 97.6975 140.547 97.5501L138.472 97.3571C138.146 97.3266 137.834 97.4652 137.638 97.7281L136.391 99.3969C135.438 100.672 133.434 100.278 133.025 98.7353L132.423 96.4582C132.333 96.1181 132.089 95.8396 131.776 95.7124L129.532 94.799C128.1 94.2163 127.915 92.2594 129.213 91.4243L131.107 90.2051C131.376 90.0318 131.547 89.7229 131.552 89.3738L131.585 87.2322C131.61 85.6088 133.518 84.7613 134.739 85.8308L136.351 87.2417C136.613 87.4713 136.956 87.5517 137.266 87.4678L139.439 86.8791C140.928 86.4757 142.257 87.9244 141.73 89.3776L140.904 91.6556Z" fill="url(#paint4_linear_458_260)"/>
<path fill-rule="evenodd" clip-rule="evenodd" d="M141.469 90.6383C141.354 90.9556 141.398 91.3224 141.589 91.6168L142.876 93.5914C143.748 94.9288 142.697 96.6802 141.112 96.5327L139.037 96.3397C138.711 96.3093 138.399 96.4478 138.202 96.7107L136.956 98.3796C136.003 99.6551 133.999 99.2611 133.59 97.7179L132.987 95.4409C132.897 95.1007 132.654 94.8223 132.341 94.6951L130.097 93.7816C128.665 93.1989 128.48 91.242 129.778 90.4069L131.672 89.1877C131.941 89.0145 132.111 88.7055 132.117 88.3565L132.15 86.2148C132.175 84.5914 134.082 83.7439 135.304 84.8134L136.915 86.2243C137.178 86.454 137.521 86.5343 137.831 86.4505L140.004 85.8617C141.493 85.4583 142.822 86.9071 142.295 88.3602L141.469 90.6383Z" fill="#FFC000"/>
<rect x="104.635" y="128.795" width="54.977" height="4.50631" rx="2.25316" transform="rotate(-23.9625 104.635 128.795)" fill="#ADC8D8"/>
<rect x="110.126" y="141.149" width="54.977" height="4.50631" rx="2.25316" transform="rotate(-23.9625 110.126 141.149)" fill="#ADC8D8"/>
<rect x="118.179" y="159.268" width="54.977" height="4.50631" rx="2.25316" transform="rotate(-23.9625 118.179 159.268)" fill="#ADC8D8"/>
<rect x="113.42" y="148.561" width="21.6303" height="4.50631" rx="2.25316" transform="rotate(-23.9625 113.42 148.561)" fill="#ADC8D8"/>
<defs>
<filter id="filter0_f_458_260" x="-46" y="-59" width="350" height="350" filterUnits="userSpaceOnUse" color-interpolation-filters="sRGB">
<feFlood flood-opacity="0" result="BackgroundImageFix"/>
<feBlend mode="normal" in="SourceGraphic" in2="BackgroundImageFix" result="shape"/>
<feGaussianBlur stdDeviation="50" result="effect1_foregroundBlur_458_260"/>
</filter>
<linearGradient id="paint0_linear_458_260" x1="153.959" y1="148.507" x2="75.752" y2="148.507" gradientUnits="userSpaceOnUse">
<stop stop-color="#ADC8D8"/>
<stop offset="1" stop-color="#DFEAF1"/>
</linearGradient>
<linearGradient id="paint1_linear_458_260" x1="118.123" y1="98.8717" x2="114.622" y2="183.79" gradientUnits="userSpaceOnUse">
<stop stop-color="#F6F9FA"/>
<stop offset="1" stop-color="#E3EDF2"/>
</linearGradient>
<linearGradient id="paint2_linear_458_260" x1="110.869" y1="103.105" x2="97.8755" y2="108.88" gradientUnits="userSpaceOnUse">
<stop stop-color="#ADC8D8"/>
<stop offset="1" stop-color="#DFEAF1"/>
</linearGradient>
<linearGradient id="paint3_linear_458_260" x1="126.517" y1="96.1504" x2="113.523" y2="101.925" gradientUnits="userSpaceOnUse">
<stop stop-color="#ADC8D8"/>
<stop offset="1" stop-color="#DFEAF1"/>
</linearGradient>
<linearGradient id="paint4_linear_458_260" x1="142.165" y1="89.1957" x2="129.172" y2="94.9708" gradientUnits="userSpaceOnUse">
<stop stop-color="#ADC8D8"/>
<stop offset="1" stop-color="#DFEAF1"/>
</linearGradient>
</defs>
</svg>
