<svg width="80" height="80" viewBox="0 0 100 100" fill="none" xmlns="http://www.w3.org/2000/svg">
<g filter="url(#filter0_d_2624_1875)">
<g opacity="0.96">
<path d="M98.9918 51.0041C99.0074 62.5772 94.8247 73.7632 87.2195 82.4872C86.8503 82.9219 86.4565 83.3567 86.0627 83.775C85.5295 84.3493 84.9716 84.9153 84.422 85.4649C75.3754 94.233 63.2443 99.0938 50.6456 98.9986C38.047 98.9035 25.9907 93.86 17.0776 84.9563C16.2572 84.136 15.5189 83.3157 14.7806 82.4954C14.4688 82.1345 14.1653 81.7817 13.8699 81.4126C8.99452 75.4622 5.62087 68.4273 4.03326 60.9005C2.44564 53.3738 2.69056 45.5757 4.74739 38.1634C6.80422 30.7511 10.6127 23.9417 15.8519 18.309C21.0911 12.6762 27.6076 8.38522 34.8523 5.79743C42.0969 3.20964 49.8575 2.40091 57.4801 3.43939C65.1027 4.47788 72.364 7.33315 78.6522 11.7646C84.9404 16.1961 90.0713 22.0739 93.6124 28.9029C97.1536 35.7318 99.0014 43.3118 99 51.0041H98.9918Z" fill="#030302"/>
<path d="M45.4204 15.1831C44.3308 15.8085 43.3247 16.5692 42.426 17.4471C40.3915 19.3748 38.5539 21.6716 35.9615 22.7462C34.0992 23.5173 31.9253 23.6157 30.3255 24.838C28.7258 26.0602 28.0285 28.1766 27.6675 30.1781C27.3066 32.1796 27.1425 34.2796 26.1745 36.0761C25.3049 37.7167 23.8774 38.9061 22.7699 40.358C20.5139 43.3275 21.3917 46.8712 24.0907 49.2829C25.5264 50.5707 27.3312 51.3746 29.0129 52.3754C30.6947 53.3762 31.9253 54.459 32.4175 56.4031C32.8687 58.1585 33.7711 60.2995 35.3216 61.3248C37.0241 62.4139 39.0747 62.821 41.0642 62.4651C43.1233 62.0795 45.0102 61.1034 46.9955 60.4635C48.7682 59.8611 50.6779 59.787 52.492 60.2503C54.1328 60.6358 55.6997 61.5053 57.4142 61.7842C58.5775 61.944 59.7612 61.861 60.8908 61.5405C62.0203 61.22 63.0712 60.669 63.9772 59.9221C67.1849 57.33 67.513 52.8676 70.8438 50.5297C72.6896 49.2336 75.1261 48.5774 76.3074 46.6497C77.4888 44.722 76.8817 42.0314 75.7906 39.9643C74.6995 37.8971 73.1654 36.0105 72.5501 33.7546C72.2393 32.1115 72.0555 30.4468 72.0005 28.7754C71.937 27.0827 71.2402 25.4755 70.048 24.272C68.5631 23.0005 66.4219 22.9349 64.5515 22.3607C62.0904 21.5978 59.9984 19.8998 57.9885 18.2592C55.9786 16.6186 53.8866 14.978 51.3763 14.2726C50.3738 14.0116 49.3286 13.9578 48.3045 14.1143C47.2805 14.2709 46.2991 14.6345 45.4204 15.1831Z" fill="#FBB969"/>
<path d="M62.7632 42.9992C62.7632 42.8106 65.1013 37.8067 68.0136 39.152C72.4026 41.1864 67.1932 47.273 65.5115 48.5116C64.8864 48.9876 64.1684 49.3269 63.4038 49.5078C62.6393 49.6887 61.8453 49.707 61.0732 49.5616L62.7632 42.9992Z" fill="#E26227"/>
<path d="M34.9855 42.9992C34.9855 42.8106 32.6474 37.8067 29.7351 39.152C25.3543 41.1864 30.5554 47.273 32.2454 48.5116C32.8705 48.9876 33.5885 49.3269 34.353 49.5078C35.1176 49.6887 35.9116 49.707 36.6836 49.5616L34.9855 42.9992Z" fill="#E26227"/>
<path d="M84.4462 85.4641C75.3996 94.2322 63.2685 99.093 50.6699 98.9979C38.0712 98.9027 26.0149 93.8593 17.1018 84.9555C17.2806 84.4796 17.4916 84.0164 17.7335 83.5692C19.2348 80.7392 33.46 73.135 37.0697 70.2394L37.2173 70.1163C38.7463 68.9077 39.8358 67.2304 40.3184 65.3422C40.5275 64.485 40.6701 63.6129 40.7449 62.7337C40.958 59.8927 40.8866 57.0375 40.5316 54.2108L57.62 54.0139C57.341 57.1318 57.5179 60.2737 58.1451 63.3407C58.8342 66.425 59.4412 68.0492 63.5185 70.5429C63.6251 70.6085 63.7236 70.6905 63.822 70.7562C65.7827 72.1507 84.2657 84.8243 84.4462 85.4641Z" fill="#EF8242"/>
<path d="M58.1119 63.3408C55.7587 65.2768 52.7818 66.2914 49.7359 66.1954C46.4059 66.1753 43.1974 64.9416 40.7118 62.7255C40.9249 59.8846 40.8534 57.0294 40.4985 54.2027L57.5869 54.0058C57.3591 57.1271 57.5356 60.2647 58.1119 63.3408Z" fill="#E26227"/>
<path d="M36.8073 30.103C34.9779 31.7436 34.6416 35.6236 34.4611 39.3806C34.2282 46.0049 36.2949 52.5058 40.3103 57.7798C44.6173 63.1938 55.8974 63.1938 59.8188 55.7701C61.5498 52.4889 63.5925 45.2949 63.9207 37.3052C64.3719 24.5742 47.4476 20.5711 36.8073 30.103Z" fill="#EF8242"/>
<path d="M46.0615 51.3324H54.2652C53.9791 52.212 53.4163 52.9755 52.6609 53.5092C51.9054 54.0428 50.9978 54.3181 50.0731 54.294C49.1739 54.3014 48.2966 54.0167 47.5731 53.4826C46.8496 52.9486 46.3192 52.194 46.0615 51.3324Z" fill="#B94A27"/>
<path d="M49.3416 48.7558C49.0645 48.7549 48.7978 48.6495 48.5951 48.4605C48.4914 48.3623 48.4088 48.244 48.3524 48.1128C48.296 47.9817 48.2669 47.8404 48.2669 47.6976L48.1029 39.8965C48.1018 39.8427 48.1113 39.7891 48.1309 39.739C48.1505 39.6888 48.1799 39.6429 48.2172 39.6041C48.2545 39.5652 48.2991 39.5341 48.3485 39.5125C48.3979 39.4909 48.451 39.4792 48.5049 39.4782C48.613 39.4781 48.717 39.5199 48.795 39.5949C48.8731 39.6698 48.919 39.7721 48.9232 39.8801L49.0791 47.6812C49.0806 47.7524 49.11 47.8202 49.1612 47.8698C49.1861 47.894 49.2157 47.913 49.2481 47.9257C49.2805 47.9384 49.3151 47.9445 49.3498 47.9437L51.7371 47.8781C51.8454 47.8757 51.9503 47.9155 52.0298 47.9889C52.1094 48.0623 52.1574 48.1637 52.1637 48.2718C52.1648 48.3256 52.1553 48.3792 52.1357 48.4294C52.116 48.4796 52.0867 48.5254 52.0494 48.5642C52.0121 48.6031 51.9674 48.6342 51.9181 48.6558C51.8687 48.6774 51.8156 48.6891 51.7617 48.6901L49.3662 48.7558H49.3416Z" fill="#E26227"/>
<path d="M57.2754 42.333C57.1856 42.1652 57.062 42.0179 56.9125 41.9003C56.7629 41.7826 56.5907 41.6972 56.4065 41.6495C56.2223 41.6017 56.0303 41.5925 55.8424 41.6226C55.6545 41.6527 55.4749 41.7215 55.3149 41.8244C54.9979 42.0077 54.7652 42.3077 54.6665 42.6603C54.5677 43.0129 54.6108 43.3901 54.7864 43.7114C54.962 44.0327 55.2564 44.2726 55.6065 44.3798C55.9566 44.487 56.3347 44.4531 56.6602 44.2853C56.8291 44.1979 56.9791 44.0779 57.1015 43.9323C57.2239 43.7868 57.3164 43.6184 57.3736 43.437C57.4308 43.2556 57.4515 43.0647 57.4347 42.8752C57.4178 42.6857 57.3637 42.5014 57.2754 42.333Z" fill="#030302"/>
<path d="M56.8405 37.8631C56.1927 37.7478 55.5255 37.8924 54.9836 38.2655C54.4416 38.6386 54.0684 39.2102 53.9448 39.8564C54.8086 39.542 55.7249 39.3971 56.6436 39.4299C57.5838 39.4549 58.5152 39.6179 59.408 39.9138C59.2071 39.3708 58.8618 38.8929 58.4094 38.5315C57.9569 38.1701 57.4145 37.939 56.8405 37.8631Z" fill="#B94A27"/>
<path d="M44.8146 42.6692C44.6815 42.4296 44.4811 42.2343 44.2382 42.1074C43.9953 41.9805 43.7206 41.9274 43.4479 41.9549C43.1753 41.9824 42.9166 42.0891 42.7039 42.2619C42.4912 42.4347 42.3338 42.6661 42.2512 42.9273C42.1685 43.1886 42.1641 43.4684 42.2387 43.7321C42.3132 43.9958 42.4634 44.2319 42.6706 44.4112C42.8778 44.5906 43.1331 44.7053 43.4047 44.7412C43.6764 44.7771 43.9527 44.7326 44.1994 44.6133C44.5384 44.4367 44.7936 44.1329 44.9089 43.7684C45.0242 43.404 44.9903 43.0086 44.8146 42.6692Z" fill="#030302"/>
<path d="M43.5834 37.9364C43.0098 38.0149 42.4687 38.249 42.0189 38.6135C41.5691 38.9779 41.2279 39.4588 41.0322 40.0036C41.9178 39.6982 42.844 39.5268 43.7802 39.495C44.7034 39.4534 45.6257 39.5928 46.4954 39.9052C46.4365 39.5832 46.314 39.2761 46.135 39.0021C45.956 38.728 45.7241 38.4924 45.4529 38.3091C45.1817 38.1257 44.8767 37.9984 44.5557 37.9344C44.2347 37.8704 43.9041 37.8711 43.5834 37.9364Z" fill="#B94A27"/>
<path d="M34.4041 41.7509C34.5682 42.1529 34.0513 37.6987 38.0876 35.1065C41.5577 33.064 42.8949 34.9999 45.7498 34.1878C48.6047 33.3757 48.0961 30.6113 53.6172 30.8163C57.7191 30.9722 57.9078 30.3078 60.3607 29.0773C57.8996 38.4779 62.9202 35.7217 63.5273 42.0544C67.6292 35.9268 66.7021 31.53 65.4716 28.4703C64.241 25.4106 57.9078 20.1935 48.0961 20.8005C38.2844 21.4075 29.1209 28.4621 34.4041 41.7509Z" fill="#FBB969"/>
<path d="M84.4462 85.4639C75.3996 94.232 63.2685 99.0928 50.6699 98.9976C38.0712 98.9025 26.0149 93.859 17.1018 84.9553C17.2721 84.4759 17.4835 84.0121 17.7335 83.569C21.015 77.9253 33.46 73.1348 37.0697 70.2391L37.2173 70.1161C37.7338 69.7185 38.2043 69.2645 38.6202 68.7626C40.6793 69.788 45.6098 72.0028 49.4901 71.7895C52.8126 71.609 57.6939 69.1809 60.6062 67.5486V67.606C61.1968 68.779 62.411 69.7059 63.7974 70.7559C70.4424 75.7433 84.7497 80.1401 84.4462 85.4639Z" fill="#FAC2B3"/>
<path d="M39.1122 68.0571L35.2236 71.4532C35.2236 71.4532 39.2435 79.2132 41.2124 79.4183C43.1812 79.6233 50.2365 71.486 50.2365 71.486C50.2365 71.486 54.97 79.4183 57.8987 79.1476C60.8275 78.8769 64.3879 71.1086 64.3879 71.1086L60.5813 67.5486L50.2365 71.486L39.1122 68.0571Z" fill="#F9F8F6"/>
<path d="M50.7034 79.0739C50.6818 78.8784 50.6213 78.6891 50.5255 78.5172C50.4298 78.3454 50.3006 78.1944 50.1456 78.0732C49.8321 77.8526 49.4539 77.7429 49.071 77.7615C48.8738 77.7844 48.683 77.8462 48.5098 77.9433C48.3366 78.0405 48.1844 78.1711 48.0621 78.3275C47.8217 78.6383 47.7136 79.0314 47.7612 79.4215C47.8089 79.8115 48.0083 80.1671 48.3164 80.411C48.6312 80.6281 49.0091 80.7349 49.391 80.7145C49.5877 80.6931 49.7782 80.6327 49.9515 80.5369C50.1247 80.4412 50.2771 80.3119 50.3999 80.1567C50.636 79.848 50.7446 79.4604 50.7034 79.0739Z" fill="#F9F8F6"/>
<path d="M50.7034 83.9797C50.6827 83.7839 50.6226 83.5943 50.5268 83.4224C50.4309 83.2504 50.3013 83.0995 50.1456 82.979C49.8321 82.7584 49.4539 82.6487 49.071 82.6672C48.8738 82.6902 48.683 82.752 48.5098 82.8492C48.3366 82.9463 48.1844 83.0769 48.0621 83.2333C47.8217 83.5441 47.7136 83.9372 47.7612 84.3273C47.8089 84.7173 48.0083 85.0729 48.3164 85.3168C48.6312 85.5339 49.0091 85.6407 49.391 85.6203C49.5877 85.5989 49.7782 85.5385 49.9515 85.4428C50.1247 85.347 50.2771 85.2177 50.3999 85.0625C50.636 84.7538 50.7446 84.3662 50.7034 83.9797Z" fill="#F9F8F6"/>
<path d="M50.7034 88.8855C50.6827 88.6897 50.6226 88.5002 50.5268 88.3282C50.4309 88.1562 50.3013 88.0054 50.1456 87.8848C49.8321 87.6642 49.4539 87.5545 49.071 87.5731C48.8738 87.596 48.683 87.6578 48.5098 87.755C48.3366 87.8521 48.1844 87.9827 48.0621 88.1391C47.8217 88.4499 47.7136 88.843 47.7612 89.2331C47.8089 89.6231 48.0083 89.9787 48.3164 90.2226C48.6312 90.4397 49.0091 90.5465 49.391 90.5261C49.5877 90.5047 49.7782 90.4443 49.9515 90.3486C50.1247 90.2528 50.2771 90.1236 50.3999 89.9683C50.636 89.6596 50.7446 89.272 50.7034 88.8855Z" fill="#F9F8F6"/>
<path d="M50.7034 93.7897C50.682 93.593 50.6216 93.4024 50.5259 93.2292C50.4301 93.056 50.3008 92.9036 50.1456 92.7808C49.8313 92.5625 49.4531 92.4557 49.071 92.4772C48.8738 92.5002 48.683 92.562 48.5098 92.6591C48.3366 92.7563 48.1844 92.8869 48.0621 93.0433C47.8217 93.3541 47.7136 93.7472 47.7612 94.1373C47.8089 94.5273 48.0083 94.8829 48.3164 95.1268C48.6312 95.3439 49.0091 95.4506 49.391 95.4303C49.5849 95.4089 49.7727 95.3494 49.9437 95.2554C50.1146 95.1613 50.2654 95.0344 50.3873 94.8821C50.5091 94.7297 50.5998 94.5548 50.6541 94.3674C50.7083 94.1799 50.7251 93.9836 50.7034 93.7897Z" fill="#F9F8F6"/>
</g>
</g>
<defs>
<filter id="filter0_d_2624_1875" x="0" y="0" filterUnits="userSpaceOnUse" color-interpolation-filters="sRGB">
<feFlood flood-opacity="0" result="BackgroundImageFix"/>
<feColorMatrix in="SourceAlpha" type="matrix" values="0 0 0 0 0 0 0 0 0 0 0 0 0 0 0 0 0 0 127 0" result="hardAlpha"/>
<feMorphology radius="1" operator="dilate" in="SourceAlpha" result="effect1_dropShadow_2624_1875"/>
<feOffset/>
<feGaussianBlur stdDeviation="1"/>
<feColorMatrix type="matrix" values="0 0 0 0 0 0 0 0 0 0 0 0 0 0 0 0 0 0 0.08 0"/>
<feBlend mode="normal" in2="BackgroundImageFix" result="effect1_dropShadow_2624_1875"/>
<feBlend mode="normal" in="SourceGraphic" in2="effect1_dropShadow_2624_1875" result="shape"/>
</filter>
</defs>
</svg>
