<svg width="24" height="24" viewBox="0 0 24 24" fill="none" xmlns="http://www.w3.org/2000/svg">
<path fill-rule="evenodd" clip-rule="evenodd" d="M8.75 2C8.75 1.58579 8.41421 1.25 8 1.25C7.58579 1.25 7.25 1.58579 7.25 2V3.25H5C3.48579 3.25 2.25 4.48579 2.25 6V19C2.25 20.5142 3.48579 21.75 5 21.75H19C20.5142 21.75 21.75 20.5142 21.75 19V6C21.75 4.48579 20.5142 3.25 19 3.25H16.75V2C16.75 1.58579 16.4142 1.25 16 1.25C15.5858 1.25 15.25 1.58579 15.25 2V3.25H8.75V2ZM7.25 4.75V6C7.25 6.41421 7.58579 6.75 8 6.75C8.41421 6.75 8.75 6.41421 8.75 6V4.75H15.25V6C15.25 6.41421 15.5858 6.75 16 6.75C16.4142 6.75 16.75 6.41421 16.75 6V4.75H19C19.6858 4.75 20.25 5.31421 20.25 6V8.25H3.75V6C3.75 5.31421 4.31421 4.75 5 4.75H7.25ZM3.75 9.75V19C3.75 19.6858 4.31421 20.25 5 20.25H19C19.6858 20.25 20.25 19.6858 20.25 19V9.75H3.75Z" fill="#EAEAEA"/>
</svg>
