<svg viewBox="0 0 24 24" xmlns="http://www.w3.org/2000/svg">
<path d="M4.16024 13.5732C4.16024 14.3205 4.32786 14.8943 4.54694 15.2414C4.83419 15.6961 5.26261 15.8887 5.69939 15.8887C6.26275 15.8887 6.77812 15.7519 7.7713 14.4076C8.56696 13.3302 9.5045 11.8178 10.1353 10.8697L11.2036 9.26346C11.9457 8.14791 12.8047 6.9078 13.7895 6.06722C14.5935 5.38115 15.4608 5 16.3337 5C17.7991 5 19.195 5.83104 20.2633 7.38968C21.4324 9.0967 22 11.2468 22 13.4657C22 14.7847 21.7343 15.7539 21.2822 16.5196C20.8454 17.2601 19.9941 18 18.5621 18V15.8887C19.7883 15.8887 20.0943 14.7861 20.0943 13.5242C20.0943 11.726 19.6658 9.73036 18.722 8.30445C18.0523 7.29304 17.1843 6.67502 16.2293 6.67502C15.1965 6.67502 14.3654 7.43733 13.4313 8.79654C12.9347 9.51869 12.4249 10.3987 11.8525 11.3918L11.2224 12.4842C9.95659 14.6806 9.63596 15.1808 9.00305 16.0064C7.89372 17.4521 6.94644 18 5.69939 18C4.22005 18 3.2846 17.3731 2.70524 16.4284C2.2323 15.6586 2 14.6486 2 13.4976L4.16024 13.5732Z" fill="#0081FB"/>
<path d="M3.70349 7.53874C4.69389 6.04476 6.12316 5 7.76246 5C8.71183 5 9.65563 5.27498 10.6412 6.06247C11.7192 6.92346 12.8682 8.34121 14.3016 10.6778L14.8156 11.5163C16.0564 13.5392 16.7623 14.5798 17.1754 15.0706C17.7068 15.7008 18.0789 15.8887 18.5623 15.8887C19.7885 15.8887 20.0945 14.7861 20.0945 13.5242L22.0002 13.4657C22.0002 14.7847 21.7345 15.7539 21.2824 16.5196C20.8456 17.2601 19.9943 18 18.5623 18C17.672 18 16.8833 17.8108 16.0112 17.0056C15.3407 16.3876 14.5569 15.2897 13.9539 14.3028L12.1601 11.3707C11.2602 9.89916 10.4346 8.80198 9.95679 8.30513C9.4428 7.77084 8.78208 7.1256 7.72769 7.1256C6.8743 7.1256 6.14959 7.71162 5.5431 8.60801L3.70349 7.53874Z" fill="url(#paint0_linear_2299_22258)"/>
<path d="M7.72749 7.1256C6.8741 7.1256 6.14939 7.71162 5.5429 8.60801C4.68534 9.87466 4.16024 11.7614 4.16024 13.5732C4.16024 14.3205 4.32786 14.8943 4.54694 15.2414L2.70524 16.4284C2.2323 15.6586 2 14.6486 2 13.4976C2 11.4047 2.587 9.22329 3.70329 7.53874C4.69369 6.04476 6.12296 5 7.76226 5L7.72749 7.1256Z" fill="url(#paint1_linear_2299_22258)"/>
<defs>
<linearGradient id="paint0_linear_2299_22258" x1="6.24278" y1="12.9633" x2="20.0122" y2="13.674" gradientUnits="userSpaceOnUse">
<stop stop-color="#0064E1"/>
<stop offset="0.4" stop-color="#0064E1"/>
<stop offset="0.83" stop-color="#0073EE"/>
<stop offset="1" stop-color="#0082FB"/>
</linearGradient>
<linearGradient id="paint1_linear_2299_22258" x1="5.12977" y1="14.4607" x2="5.12977" y2="9.49215" gradientUnits="userSpaceOnUse">
<stop stop-color="#0082FB"/>
<stop offset="1" stop-color="#0064E0"/>
</linearGradient>
</defs>
</svg>
