<?xml version="1.0" encoding="UTF-8"?><!DOCTYPE svg PUBLIC "-//W3C//DTD SVG 1.1//EN"
  "http://www.w3.org/Graphics/SVG/1.1/DTD/svg11.dtd">
<svg xmlns="http://www.w3.org/2000/svg" xmlns:xlink="http://www.w3.org/1999/xlink">
  <symbol id="plyr-airplay" viewBox="0 0 32 32">
      <path d="M8.667 8.667v14.667h0.333c0.92 0 1.667 0.746 1.667 1.667s-0.746 1.667-1.667 1.667h-1c-1.473 0-2.667-1.194-2.667-2.667v-16c0-1.473 1.194-2.667 2.667-2.667h16c1.473 0 2.667 1.194 2.667 2.667v16c0 1.473-1.194 2.667-2.667 2.667h-1c-0.921 0-1.667-0.746-1.667-1.667s0.746-1.667 1.667-1.667h0.333v-14.667h-14.667z"></path>
      <path d="M17.059 20.561c-0.468-0.748-1.65-0.748-2.119 0l-2.778 4.439c-0.465 0.743 0.123 1.667 1.059 1.667h5.556c0.937 0 1.524-0.924 1.059-1.667l-2.778-4.439z"></path>
  </symbol>
  <symbol id="plyr-captions-off" viewBox="0 0 18 18">
    <path
      d="M1 1c-.6 0-1 .4-1 1v11c0 .6.4 1 1 1h4.6l2.7 2.7c.2.2.4.3.7.3.3 0 .5-.1.7-.3l2.7-2.7H17c.6 0 1-.4 1-1V2c0-.6-.4-1-1-1H1zm4.52 10.15c1.99 0 3.01-1.32 3.28-2.41l-1.29-.39c-.19.66-.78 1.45-1.99 1.45-1.14 0-2.2-.83-2.2-2.34 0-1.61 1.12-2.37 2.18-2.37 1.23 0 1.78.75 1.95 1.43l1.3-.41C8.47 4.96 7.46 3.76 5.5 3.76c-1.9 0-3.61 1.44-3.61 3.7 0 2.26 1.65 3.69 3.63 3.69zm7.57 0c1.99 0 3.01-1.32 3.28-2.41l-1.29-.39c-.19.66-.78 1.45-1.99 1.45-1.14 0-2.2-.83-2.2-2.34 0-1.61 1.12-2.37 2.18-2.37 1.23 0 1.78.75 1.95 1.43l1.3-.41c-.28-1.15-1.29-2.35-3.25-2.35-1.9 0-3.61 1.44-3.61 3.7 0 2.26 1.65 3.69 3.63 3.69z"
      fill-rule="evenodd" fill-opacity=".5"/>
  </symbol>
  <symbol id="plyr-captions-on" viewBox="0 0 18 18">
    <path
      d="M1 1c-.6 0-1 .4-1 1v11c0 .6.4 1 1 1h4.6l2.7 2.7c.2.2.4.3.7.3.3 0 .5-.1.7-.3l2.7-2.7H17c.6 0 1-.4 1-1V2c0-.6-.4-1-1-1H1zm4.52 10.15c1.99 0 3.01-1.32 3.28-2.41l-1.29-.39c-.19.66-.78 1.45-1.99 1.45-1.14 0-2.2-.83-2.2-2.34 0-1.61 1.12-2.37 2.18-2.37 1.23 0 1.78.75 1.95 1.43l1.3-.41C8.47 4.96 7.46 3.76 5.5 3.76c-1.9 0-3.61 1.44-3.61 3.7 0 2.26 1.65 3.69 3.63 3.69zm7.57 0c1.99 0 3.01-1.32 3.28-2.41l-1.29-.39c-.19.66-.78 1.45-1.99 1.45-1.14 0-2.2-.83-2.2-2.34 0-1.61 1.12-2.37 2.18-2.37 1.23 0 1.78.75 1.95 1.43l1.3-.41c-.28-1.15-1.29-2.35-3.25-2.35-1.9 0-3.61 1.44-3.61 3.7 0 2.26 1.65 3.69 3.63 3.69z"
      fill-rule="evenodd"/>
  </symbol>
  <symbol id="plyr-download" viewBox="0 0 32 32">
      <path d="M22.475 14.186c0.651-0.651 0.651-1.706 0-2.357s-1.706-0.651-2.357 0l-2.128 2.128v-7.29c0-0.92-0.746-1.667-1.667-1.667s-1.667 0.746-1.667 1.667v7.29l-2.128-2.128c-0.651-0.651-1.706-0.651-2.357 0s-0.651 1.706 0 2.357l4.973 4.973c0.651 0.651 1.706 0.651 2.357 0l4.973-4.973z"></path>
      <path d="M10.667 22.98c-0.92 0-1.667 0.746-1.667 1.667s0.746 1.667 1.667 1.667h11.314c0.92 0 1.667-0.746 1.667-1.667s-0.746-1.667-1.667-1.667h-11.314z"></path>
  </symbol>
  <symbol id="plyr-enter-fullscreen" viewBox="0 0 32 32">
      <path d="M18.3 5c-0.921 0-1.667 0.746-1.667 1.667s0.746 1.667 1.667 1.667h3.009l-5.155 5.155c-0.651 0.651-0.651 1.706 0 2.357s1.706 0.651 2.357 0l5.155-5.155v3.009c0 0.921 0.746 1.667 1.667 1.667s1.667-0.746 1.667-1.667v-7.033c0-0.92-0.746-1.667-1.667-1.667h-7.033z"></path>
      <path d="M13.7 27c0.921 0 1.667-0.746 1.667-1.667s-0.746-1.667-1.667-1.667h-3.009l5.155-5.155c0.651-0.651 0.651-1.706 0-2.357s-1.706-0.651-2.357 0l-5.155 5.155v-3.009c0-0.921-0.746-1.667-1.667-1.667s-1.667 0.746-1.667 1.667v7.033c0 0.921 0.746 1.667 1.667 1.667h7.033z"></path>
  </symbol>
  <symbol id="plyr-exit-fullscreen" viewBox="0 0 32 32">
      <path d="M24.366 16.333c0.921 0 1.667-0.746 1.667-1.667s-0.746-1.667-1.667-1.667h-3.009l5.155-5.155c0.651-0.651 0.651-1.706 0-2.357s-1.706-0.651-2.357 0l-5.155 5.155v-3.009c0-0.92-0.746-1.667-1.667-1.667s-1.667 0.746-1.667 1.667v7.033c0 0.921 0.746 1.667 1.667 1.667h7.033z"></path>
      <path d="M7.634 15.667c-0.92 0-1.667 0.746-1.667 1.667s0.746 1.667 1.667 1.667h3.009l-5.155 5.155c-0.651 0.651-0.651 1.706 0 2.357s1.706 0.651 2.357 0l5.155-5.155v3.009c0 0.921 0.746 1.667 1.667 1.667s1.667-0.746 1.667-1.667v-7.033c0-0.921-0.746-1.667-1.667-1.667h-7.033z"></path>
  </symbol>
  <symbol id="plyr-fast-forward" viewBox="0 0 32 32">
      <path d="M16 15.999c-0-0.825-0.375-1.649-1.123-2.117l-8.877-5.556c-1.485-0.93-3.333 0.245-3.333 2.119v11.112c0 1.874 1.848 3.048 3.333 2.119l8.877-5.556c0.748-0.468 1.122-1.293 1.123-2.117v5.555c0 1.874 1.848 3.048 3.333 2.119l8.877-5.556c1.497-0.937 1.497-3.301 0-4.238l-8.877-5.556c-1.485-0.93-3.333 0.245-3.333 2.119v5.555z"></path>
  </symbol>
  <symbol id="plyr-logo-vimeo" viewBox="0 0 18 18">
    <path
      d="M17 5.3c-.1 1.6-1.2 3.7-3.3 6.4-2.2 2.8-4 4.2-5.5 4.2-.9 0-1.7-.9-2.4-2.6C5 10.9 4.4 6 3 6c-.1 0-.5.3-1.2.8l-.8-1c.8-.7 3.5-3.4 4.7-3.5 1.2-.1 2 .7 2.3 2.5.3 2 .8 6.1 1.8 6.1.9 0 2.5-3.4 2.6-4 .1-.9-.3-1.9-2.3-1.1.8-2.6 2.3-3.8 4.5-3.8 1.7.1 2.5 1.2 2.4 3.3z"/>
  </symbol>
  <symbol id="plyr-logo-youtube" viewBox="0 0 18 18">
    <path
      d="M16.8 5.8c-.2-1.3-.8-2.2-2.2-2.4C12.4 3 9 3 9 3s-3.4 0-5.6.4C2 3.6 1.3 4.5 1.2 5.8 1 7.1 1 9 1 9s0 1.9.2 3.2c.2 1.3.8 2.2 2.2 2.4C5.6 15 9 15 9 15s3.4 0 5.6-.4c1.4-.3 2-1.1 2.2-2.4.2-1.3.2-3.2.2-3.2s0-1.9-.2-3.2zM7 12V6l5 3-5 3z"/>
  </symbol>
  <symbol id="plyr-muted" viewBox="0 0 32 32">
      <path d="M24 14.1l-1.71-1.708c-0.524-0.523-1.373-0.523-1.897 0s-0.524 1.371 0 1.895l1.716 1.714-1.714 1.712c-0.524 0.523-0.524 1.371 0 1.895s1.373 0.523 1.897 0l1.708-1.706 1.708 1.706c0.524 0.523 1.897 0 1.897 0 0.524-0.523 0.524-1.371 0-1.895l-1.714-1.712 1.716-1.714c0.524-0.523 0.524-1.371 0-1.895s-1.373-0.523-1.897 0l-1.71 1.708z"></path>
      <path d="M15.219 25.827l-5.053-4.295h-2.833c-0.627 0-1.228-0.213-1.674-0.659s-0.66-1.047-0.66-1.674v-6.4c0-0.627 0.213-1.228 0.66-1.674s1.047-0.66 1.674-0.66h2.832l5.027-4.273c0.735-0.708 1.726-0.753 2.488-0.372s1.319 1.187 1.319 2.178v16c0 2.065-2.336 3.033-3.773 1.835l-0.007-0.006z"></path>
      <path d="M22.29 12.392l1.71 1.708 1.71-1.708c0.524-0.523 1.373-0.523 1.897 0s0.524 1.371 0 1.895l-1.716 1.714 1.714 1.712c0.524 0.523 0.524 1.371 0 1.895 0 0-1.373 0.523-1.897 0l-1.708-1.706-1.708 1.706c-0.524 0.523-1.373 0.523-1.897 0s-0.524-1.371 0-1.895l1.714-1.712-1.716-1.714c-0.524-0.523-0.524-1.371 0-1.895s1.373-0.523 1.897 0z"></path>
  </symbol>
  <symbol id="plyr-pause" viewBox="0 0 32 32">
      <path d="M9.333 6.667c-0.736 0-1.333 0.597-1.333 1.333v16c0 0.736 0.597 1.333 1.333 1.333h2.667c0.736 0 1.333-0.597 1.333-1.333v-16c0-0.736-0.597-1.333-1.333-1.333h-2.667z"></path>
      <path d="M20 6.667c-0.736 0-1.333 0.597-1.333 1.333v16c0 0.736 0.597 1.333 1.333 1.333h2.667c0.736 0 1.333-0.597 1.333-1.333v-16c0-0.736-0.597-1.333-1.333-1.333h-2.667z"></path>
  </symbol>
  <symbol id="plyr-pip" viewBox="0 0 32 32">
      <path d="M11.667 5.333c0.92 0 1.667 0.746 1.667 1.667s-0.746 1.667-1.667 1.667h-2.333c-0.368 0-0.667 0.298-0.667 0.667v13.333c0 0.368 0.298 0.667 0.667 0.667h13.333c0.368 0 0.667-0.299 0.667-0.667v-2.333c0-0.921 0.746-1.667 1.667-1.667s1.667 0.746 1.667 1.667v2.333c0 2.209-1.791 4-4 4h-13.333c-2.209 0-4-1.791-4-4v-13.333c0-2.209 1.791-4 4-4h2.333z"></path>
      <path d="M16.3 7c0-0.92 0.746-1.667 1.667-1.667h7.033c0.921 0 1.667 0.746 1.667 1.667v7.033c0 0.921-0.746 1.667-1.667 1.667s-1.667-0.746-1.667-1.667v-3.009l-5.155 5.155c-0.651 0.651-1.706 0.651-2.357 0s-0.651-1.706 0-2.357l5.155-5.155h-3.009c-0.921 0-1.667-0.746-1.667-1.667z"></path>
  </symbol>
  <symbol id="plyr-play" viewBox="0 0 32 32">
      <path d="M22.615 13.685c1.792 1.024 1.792 3.607 0 4.631l-10.625 6.072c-1.778 1.016-3.99-0.268-3.99-2.315v-12.143c0-2.048 2.212-3.331 3.99-2.315l10.625 6.072z"></path>
  </symbol>
  <symbol id="plyr-restart" viewBox="0 0 32 32">
      <path d="M18.422 4.462c-0.639-0.626-1.662-0.614-2.285 0.028l-3.765 3.876c-0.306 0.304-0.466 0.701-0.48 1.102-0.001 0.025-0.001 0.049-0.001 0.074 0.005 0.413 0.165 0.823 0.48 1.136l3.765 3.876c0.623 0.642 1.647 0.654 2.285 0.028s0.651-1.655 0.028-2.296l-0.962-0.99c3.393 0.693 5.946 3.707 5.946 7.32 0 4.126-3.329 7.47-7.434 7.47s-7.434-3.345-7.434-7.47c0-0.897-0.724-1.624-1.616-1.624s-1.616 0.727-1.616 1.624c0 5.919 4.776 10.718 10.667 10.718s10.667-4.799 10.667-10.718c0-5.488-4.104-10.012-9.397-10.643l1.18-1.214c0.623-0.642 0.611-1.67-0.028-2.296z"></path>
  </symbol>
  <symbol id="plyr-rewind" viewBox="0 0 32 32">
      <path d="M16 15.999c0-0.825 0.375-1.649 1.123-2.117l8.877-5.556c1.485-0.93 3.333 0.245 3.333 2.119v11.112c0 1.874-1.848 3.048-3.333 2.119l-8.877-5.556c-0.748-0.468-1.122-1.293-1.123-2.117v5.555c0 1.874-1.848 3.048-3.333 2.119l-8.877-5.556c-1.497-0.937-1.497-3.301 0-4.238l8.877-5.556c1.485-0.93 3.333 0.245 3.333 2.119v5.555z"></path>
</symbol>
  <symbol id="plyr-settings" viewBox="0 0 32 32">
      <path d="M13.165 5.929c1.309-2.038 4.361-2.038 5.67 0l0.652 1.015c0.589 0.917 1.608 1.489 2.719 1.526l1.23 0.041c2.47 0.083 3.996 2.653 2.835 4.774l-0.578 1.056c-0.522 0.954-0.522 2.098 0 3.053l0.578 1.056c1.161 2.121-0.365 4.691-2.835 4.774l-1.23 0.041c-1.111 0.037-2.13 0.61-2.719 1.526l-0.652 1.015c-1.309 2.038-4.361 2.038-5.67 0l-0.652-1.015c-0.589-0.917-1.608-1.489-2.719-1.526l-1.23-0.041c-2.47-0.083-3.996-2.653-2.835-4.774l0.578-1.056c0.522-0.954 0.522-2.098 0-3.053l-0.578-1.056c-1.161-2.121 0.365-4.691 2.835-4.774l1.23-0.041c1.111-0.037 2.13-0.61 2.719-1.526l0.652-1.015zM16 18.668c1.546 0 2.8-1.254 2.8-2.8s-1.254-2.8-2.8-2.8c-1.546 0-2.8 1.254-2.8 2.8s1.254 2.8 2.8 2.8z"></path>
  </symbol>
  <symbol id="plyr-volume" viewBox="0 0 32 32">
      <path d="M10.166 21.532l5.061 4.301c1.438 1.198 3.773 0.231 3.773-1.835v-16c0-0.991-0.558-1.797-1.319-2.178s-1.753-0.336-2.488 0.372l-5.027 4.273h-2.832c-0.627 0-1.228 0.213-1.674 0.66s-0.66 1.047-0.66 1.674v6.4c0 0.627 0.213 1.228 0.66 1.674s1.047 0.659 1.674 0.659h2.833z"></path>
      <path d="M22.47 10.162c0.278-0.477 0.891-0.638 1.368-0.36 1.98 1.155 3.163 3.668 3.163 6.197 0 2.675-1.191 5.047-3.163 6.197-0.477 0.278-1.089 0.117-1.368-0.36s-0.117-1.089 0.36-1.368c1.229-0.717 2.171-2.344 2.171-4.47 0-2.004-0.951-3.758-2.171-4.47-0.477-0.278-0.638-0.891-0.36-1.368z"></path>
  </symbol>
</svg>
