<svg width="200" height="30" viewBox="0 0 200 30" fill="none" xmlns="http://www.w3.org/2000/svg">
<path d="M16.4835 23C15.2381 23 14.0293 22.8462 12.8571 22.5385C11.685 22.2308 10.7326 21.8205 10 21.3077L11.4286 18.0989C12.1172 18.5531 12.9158 18.9194 13.8242 19.1978C14.7326 19.4762 15.6264 19.6154 16.5055 19.6154C18.1758 19.6154 19.011 19.1978 19.011 18.3626C19.011 17.9231 18.7692 17.6007 18.2857 17.3956C17.8168 17.1758 17.0549 16.9487 16 16.7143C14.8425 16.4652 13.8755 16.2015 13.0989 15.9231C12.3223 15.63 11.6557 15.1685 11.0989 14.5385C10.5421 13.9084 10.2637 13.0586 10.2637 11.989C10.2637 11.0513 10.5201 10.2088 11.033 9.46154C11.5458 8.69963 12.3077 8.0989 13.3187 7.65934C14.3443 7.21978 15.5971 7 17.0769 7C18.0879 7 19.0842 7.11722 20.0659 7.35165C21.0476 7.57143 21.9121 7.9011 22.6593 8.34066L21.3187 11.5714C19.8535 10.7802 18.4322 10.3846 17.0549 10.3846C16.1905 10.3846 15.5604 10.5165 15.1648 10.7802C14.7692 11.0293 14.5714 11.359 14.5714 11.7692C14.5714 12.1795 14.8059 12.4872 15.2747 12.6923C15.7436 12.8974 16.4982 13.1099 17.5385 13.3297C18.7106 13.5788 19.6777 13.8498 20.4396 14.1429C21.2161 14.4212 21.8828 14.8755 22.4396 15.5055C23.011 16.1209 23.2967 16.9634 23.2967 18.033C23.2967 18.956 23.0403 19.7912 22.5275 20.5385C22.0147 21.2857 21.2454 21.8864 20.2198 22.3407C19.1941 22.7802 17.9487 23 16.4835 23Z" fill="#28376E"/>
<path d="M32.4057 23C30.12 23 28.3398 22.3773 27.0651 21.1319C25.805 19.8864 25.175 18.1209 25.175 15.8352V7.30769H29.5266V15.7033C29.5266 18.1648 30.501 19.3956 32.4497 19.3956C34.3838 19.3956 35.3508 18.1648 35.3508 15.7033V7.30769H39.6365V15.8352C39.6365 18.1209 38.9991 19.8864 37.7244 21.1319C36.4643 22.3773 34.6914 23 32.4057 23Z" fill="#28376E"/>
<path d="M49.6174 7.30769C51.0094 7.30769 52.2182 7.54212 53.2438 8.01099C54.2695 8.4652 55.0607 9.12454 55.6174 9.98901C56.1742 10.8388 56.4526 11.8425 56.4526 13C56.4526 14.1575 56.1742 15.1612 55.6174 16.011C55.0607 16.8608 54.2695 17.5201 53.2438 17.989C52.2182 18.4432 51.0094 18.6703 49.6174 18.6703H46.9361V22.6923H42.5845V7.30769H49.6174ZM49.3537 15.2418C50.2475 15.2418 50.9215 15.0513 51.3757 14.6703C51.8299 14.2747 52.057 13.7179 52.057 13C52.057 12.2821 51.8299 11.7253 51.3757 11.3297C50.9215 10.9341 50.2475 10.7363 49.3537 10.7363H46.9361V15.2418H49.3537Z" fill="#28376E"/>
<path d="M70.926 19.3297V22.6923H58.5743V7.30769H70.6403V10.6703H62.882V13.2637H69.7172V16.5165H62.882V19.3297H70.926Z" fill="#28376E"/>
<path d="M80.0661 18.6044H77.6925V22.6923H73.3408V7.30769H80.3738C81.7657 7.30769 82.9745 7.54212 84.0002 8.01099C85.0258 8.4652 85.817 9.12454 86.3738 9.98901C86.9306 10.8388 87.209 11.8425 87.209 13C87.209 14.1136 86.9452 15.0879 86.4178 15.9231C85.9049 16.7436 85.165 17.3883 84.198 17.8571L87.5167 22.6923H82.8573L80.0661 18.6044ZM82.8134 13C82.8134 12.2821 82.5862 11.7253 82.132 11.3297C81.6778 10.9341 81.0038 10.7363 80.1101 10.7363H77.6925V15.2418H80.1101C81.0038 15.2418 81.6778 15.0513 82.132 14.6703C82.5862 14.2747 82.8134 13.7179 82.8134 13Z" fill="#28376E"/>
<path d="M105.214 7.30769L98.6207 22.6923H94.335L87.7636 7.30769H92.4669L96.6427 17.3297L100.906 7.30769H105.214Z" fill="#28376E"/>
<path d="M106.115 7.30769H110.466V22.6923H106.115V7.30769Z" fill="#28376E"/>
<path d="M118.969 23C117.724 23 116.515 22.8462 115.343 22.5385C114.17 22.2308 113.218 21.8205 112.485 21.3077L113.914 18.0989C114.603 18.5531 115.401 18.9194 116.31 19.1978C117.218 19.4762 118.112 19.6154 118.991 19.6154C120.661 19.6154 121.496 19.1978 121.496 18.3626C121.496 17.9231 121.255 17.6007 120.771 17.3956C120.302 17.1758 119.54 16.9487 118.485 16.7143C117.328 16.4652 116.361 16.2015 115.584 15.9231C114.808 15.63 114.141 15.1685 113.584 14.5385C113.028 13.9084 112.749 13.0586 112.749 11.989C112.749 11.0513 113.006 10.2088 113.518 9.46154C114.031 8.69963 114.793 8.0989 115.804 7.65934C116.83 7.21978 118.082 7 119.562 7C120.573 7 121.57 7.11722 122.551 7.35165C123.533 7.57143 124.397 7.9011 125.145 8.34066L123.804 11.5714C122.339 10.7802 120.918 10.3846 119.54 10.3846C118.676 10.3846 118.046 10.5165 117.65 10.7802C117.255 11.0293 117.057 11.359 117.057 11.7692C117.057 12.1795 117.291 12.4872 117.76 12.6923C118.229 12.8974 118.984 13.1099 120.024 13.3297C121.196 13.5788 122.163 13.8498 122.925 14.1429C123.702 14.4212 124.368 14.8755 124.925 15.5055C125.496 16.1209 125.782 16.9634 125.782 18.033C125.782 18.956 125.526 19.7912 125.013 20.5385C124.5 21.2857 123.731 21.8864 122.705 22.3407C121.68 22.7802 120.434 23 118.969 23Z" fill="#28376E"/>
<path d="M151.874 18.6044H149.5V22.6923H145.149V7.30769H152.182C153.573 7.30769 154.782 7.54212 155.808 8.01099C156.834 8.4652 157.625 9.12454 158.182 9.98901C158.738 10.8388 159.017 11.8425 159.017 13C159.017 14.1136 158.753 15.0879 158.225 15.9231C157.713 16.7436 156.973 17.3883 156.006 17.8571L159.324 22.6923H154.665L151.874 18.6044ZM154.621 13C154.621 12.2821 154.394 11.7253 153.94 11.3297C153.486 10.9341 152.812 10.7363 151.918 10.7363H149.5V15.2418H151.918C152.812 15.2418 153.486 15.0513 153.94 14.6703C154.394 14.2747 154.621 13.7179 154.621 13Z" fill="#28376E"/>
<path d="M135.279 23C133.653 23 132.187 22.6557 130.883 21.967C129.594 21.2784 128.576 20.326 127.828 19.1099C127.096 17.8938 126.729 16.5238 126.729 15C126.729 13.4762 127.096 12.1062 127.828 10.8901C128.576 9.67399 129.594 8.72161 130.883 8.03297C132.187 7.34432 133.653 7 135.279 7C136.905 7 138.363 7.34432 139.653 8.03297C140.957 8.72161 141.975 9.67399 142.708 10.8901C143.455 12.1062 143.828 13.4762 143.828 15C143.828 16.5238 143.455 17.8938 142.708 19.1099C141.975 20.326 140.957 21.2784 139.653 21.967C138.363 22.6557 136.905 23 135.279 23ZM135.279 19.3956C136.055 19.3956 136.759 19.2125 137.389 18.8462C138.019 18.4799 138.517 17.967 138.883 17.3077C139.25 16.6337 139.433 15.8645 139.433 15C139.433 14.1355 139.25 13.3736 138.883 12.7143C138.517 12.0403 138.019 11.5201 137.389 11.1538C136.759 10.7875 136.055 10.6044 135.279 10.6044C134.502 10.6044 133.799 10.7875 133.169 11.1538C132.539 11.5201 132.041 12.0403 131.675 12.7143C131.308 13.3736 131.125 14.1355 131.125 15C131.125 15.8645 131.308 16.6337 131.675 17.3077C132.041 17.967 132.539 18.4799 133.169 18.8462C133.799 19.2125 134.502 19.3956 135.279 19.3956Z" fill="#FFC107"/>
<circle cx="135.322" cy="15.0609" r="1.52625" fill="#28376E"/>
</svg>
