<svg width="200" height="30" viewBox="0 0 200 30" fill="none" xmlns="http://www.w3.org/2000/svg">
<path d="M24.6374 7.30762V22.6922H20.2857V16.6922H14.3516V22.6922H10V7.30762H14.3516V13.0878H20.2857V7.30762H24.6374Z" fill="#28376E"/>
<path d="M44.712 23C43.4666 23 42.2578 22.8462 41.0857 22.5385C39.9135 22.2308 38.9611 21.8205 38.2285 21.3077L39.6571 18.0989C40.3457 18.5531 41.1443 18.9194 42.0527 19.1978C42.9611 19.4762 43.8549 19.6154 44.734 19.6154C46.4043 19.6154 47.2395 19.1978 47.2395 18.3626C47.2395 17.9231 46.9977 17.6007 46.5142 17.3956C46.0454 17.1758 45.2835 16.9487 44.2285 16.7143C43.071 16.4652 42.104 16.2015 41.3274 15.9231C40.5509 15.63 39.8842 15.1685 39.3274 14.5385C38.7706 13.9084 38.4923 13.0586 38.4923 11.989C38.4923 11.0513 38.7487 10.2088 39.2615 9.46154C39.7743 8.69963 40.5362 8.0989 41.5472 7.65934C42.5728 7.21978 43.8256 7 45.3054 7C46.3164 7 47.3128 7.11722 48.2944 7.35165C49.2761 7.57143 50.1406 7.9011 50.8879 8.34066L49.5472 11.5714C48.082 10.7802 46.6607 10.3846 45.2835 10.3846C44.419 10.3846 43.789 10.5165 43.3934 10.7802C42.9977 11.0293 42.7999 11.359 42.7999 11.7692C42.7999 12.1795 43.0344 12.4872 43.5032 12.6923C43.9721 12.8974 44.7267 13.1099 45.767 13.3297C46.9391 13.5788 47.9062 13.8498 48.6681 14.1429C49.4446 14.4212 50.1113 14.8755 50.6681 15.5055C51.2395 16.1209 51.5252 16.9634 51.5252 18.033C51.5252 18.956 51.2688 19.7912 50.756 20.5385C50.2432 21.2857 49.4739 21.8864 48.4483 22.3407C47.4227 22.7802 46.1772 23 44.712 23Z" fill="#28376E"/>
<path d="M56.5954 10.7582H51.8702V7.30769H65.6504V10.7582H60.9471V22.6923H56.5954V10.7582Z" fill="#28376E"/>
<path d="M74.8152 23C73.1889 23 71.7236 22.6557 70.4196 21.967C69.1302 21.2784 68.1119 20.326 67.3647 19.1099C66.6321 17.8938 66.2658 16.5238 66.2658 15C66.2658 13.4762 66.6321 12.1062 67.3647 10.8901C68.1119 9.67399 69.1302 8.72161 70.4196 8.03297C71.7236 7.34432 73.1889 7 74.8152 7C76.4416 7 77.8995 7.34432 79.1889 8.03297C80.4929 8.72161 81.5112 9.67399 82.2438 10.8901C82.9911 12.1062 83.3647 13.4762 83.3647 15C83.3647 16.5238 82.9911 17.8938 82.2438 19.1099C81.5112 20.326 80.4929 21.2784 79.1889 21.967C77.8995 22.6557 76.4416 23 74.8152 23ZM74.8152 19.3956C75.5918 19.3956 76.2951 19.2125 76.9251 18.8462C77.5552 18.4799 78.0533 17.967 78.4196 17.3077C78.7859 16.6337 78.9691 15.8645 78.9691 15C78.9691 14.1355 78.7859 13.3736 78.4196 12.7143C78.0533 12.0403 77.5552 11.5201 76.9251 11.1538C76.2951 10.7875 75.5918 10.6044 74.8152 10.6044C74.0387 10.6044 73.3354 10.7875 72.7053 11.1538C72.0753 11.5201 71.5771 12.0403 71.2108 12.7143C70.8445 13.3736 70.6614 14.1355 70.6614 15C70.6614 15.8645 70.8445 16.6337 71.2108 17.3077C71.5771 17.967 72.0753 18.4799 72.7053 18.8462C73.3354 19.2125 74.0387 19.3956 74.8152 19.3956Z" fill="#28376E"/>
<path d="M92.3691 18.6044H89.9955V22.6923H85.6439V7.30769H92.6768C94.0688 7.30769 95.2776 7.54212 96.3032 8.01099C97.3288 8.4652 98.1201 9.12454 98.6768 9.98901C99.2336 10.8388 99.512 11.8425 99.512 13C99.512 14.1136 99.2483 15.0879 98.7208 15.9231C98.208 16.7436 97.468 17.3883 96.501 17.8571L99.8197 22.6923H95.1603L92.3691 18.6044ZM95.1164 13C95.1164 12.2821 94.8893 11.7253 94.4351 11.3297C93.9809 10.9341 93.3069 10.7363 92.4131 10.7363H89.9955V15.2418H92.4131C93.3069 15.2418 93.9809 15.0513 94.4351 14.6703C94.8893 14.2747 95.1164 13.7179 95.1164 13Z" fill="#28376E"/>
<path d="M109.94 17.1758V22.6923H105.588V17.1099L99.7201 7.30769H104.314L107.962 13.4176L111.61 7.30769H115.83L109.94 17.1758Z" fill="#28376E"/>
<path fill-rule="evenodd" clip-rule="evenodd" d="M29.2188 7.42993C29.2702 7.59895 29.2979 7.77833 29.2979 7.96417C29.2979 10.0653 30.2267 11.3014 31.7246 12.6499C33.2226 11.3014 34.1514 10.0653 34.1514 7.96417C34.1514 7.77833 34.1791 7.59895 34.2305 7.42993H29.2188ZM34.2305 22.6924C34.179 22.5235 34.1514 22.3441 34.1514 22.1583C34.1514 20.0572 33.2226 18.8211 31.7246 17.4726C30.2267 18.8211 29.2979 20.0572 29.2979 22.1583C29.2979 22.3441 29.2702 22.5235 29.2188 22.6924H34.2305Z" fill="#FFC107"/>
</svg>
