<svg width="200" height="30" viewBox="0 0 200 30" fill="none" xmlns="http://www.w3.org/2000/svg">
<path fill-rule="evenodd" clip-rule="evenodd" d="M20.3274 9.58043C20.5979 9.6057 20.9125 9.74667 21.1486 9.8524L19.9055 12.7544C19.8499 12.7296 19.8132 12.7132 19.78 12.6989C19.072 12.5692 18.4427 12.194 17.9859 11.6553C17.766 12.0569 17.3588 12.6353 16.6737 13.055C16.5027 13.2387 16.3107 13.4008 16.1017 13.5377C15.851 13.702 15.4211 13.9603 14.8472 14.1176C14.7766 14.137 14.7061 14.1542 14.6359 14.1693C14.6749 14.2383 14.7085 14.3024 14.7372 14.3598C14.9858 14.8577 15.1089 15.3445 15.1719 15.7085C15.2053 15.9018 15.2211 16.0977 15.2191 16.2936C15.2278 16.3642 15.2424 16.4887 15.2516 16.6243C15.2574 16.7087 15.2618 16.8051 15.2626 16.9117C15.3026 17.4561 15.2323 17.9553 15.0931 18.4013C15.5485 18.3863 16.0073 18.474 16.4356 18.6658C16.6493 18.7616 16.8236 18.8613 16.9442 18.9343C17.0404 18.9926 17.1378 19.056 17.1836 19.0859C17.1863 19.0877 17.1889 19.0893 17.1912 19.0909L15.9448 22.0008C15.7761 21.9252 15.64 21.8367 15.5136 21.7545C15.4041 21.6833 15.302 21.617 15.1925 21.5679L13.4707 22.5226C13.1313 22.6583 12.6248 22.5273 12.3791 22.2254L10.8063 19.9866C10.5605 19.6848 10.5755 19.212 10.9052 18.8802L11.9286 17.8044C12.1107 17.5983 12.214 17.357 12.1601 17.0451C12.1724 16.9068 12.1565 16.7798 12.1406 16.6528C12.1247 16.5258 12.1087 16.3988 12.1211 16.2605C12.0671 15.9487 11.9345 15.6016 11.6985 15.4959L10.43 14.7359C10.0711 14.4792 9.89423 14.0164 10.0665 13.6142L11.1349 11.1201C11.3072 10.7179 11.7597 10.537 12.1876 10.6328L13.5939 11.071C13.9431 11.1315 14.1693 11.0411 14.4301 10.8702C14.6121 10.6641 14.7942 10.458 15.0205 10.3675C15.2467 10.2771 15.3846 9.95531 15.4093 9.67871L15.4887 8.18002C15.4692 7.78772 15.8333 7.37549 16.2169 7.35555L18.8925 7.01984C19.3105 6.91945 19.7481 7.21136 19.8463 7.63889L20.3274 9.58043Z" fill="#FFC107"/>
<path d="M28.7888 19.8969H22.186L20.9591 22.9993H16.4531L23.3459 7.03125H27.6958L34.6109 22.9993H30.0157L28.7888 19.8969ZM27.495 16.5665L25.4874 11.4567L23.4798 16.5665H27.495Z" fill="#28376E"/>
<path d="M35.863 7.03125H43.2466C44.9568 7.03125 46.4736 7.35821 47.7972 8.01214C49.1207 8.66607 50.1468 9.59374 50.8755 10.7951C51.6042 11.9966 51.9685 13.4033 51.9685 15.0153C51.9685 16.6273 51.6042 18.034 50.8755 19.2354C50.1468 20.4368 49.1207 21.3645 47.7972 22.0184C46.4736 22.6723 44.9568 22.9993 43.2466 22.9993H35.863V7.03125ZM43.0681 19.3951C44.4065 19.3951 45.4772 19.0073 46.2803 18.2317C47.0982 17.4561 47.5072 16.384 47.5072 15.0153C47.5072 13.6466 47.0982 12.5744 46.2803 11.7989C45.4772 11.0233 44.4065 10.6355 43.0681 10.6355H40.2798V19.3951H43.0681Z" fill="#28376E"/>
<path d="M68.3902 22.9993L68.3456 14.5362L64.3303 21.4253H62.3673L58.3744 14.7643V22.9993H54.2923V7.03125H57.9283L63.4158 16.2471L68.7694 7.03125H72.4054L72.45 22.9993H68.3902Z" fill="#28376E"/>
<path d="M75.5752 7.03125H79.992V22.9993H75.5752V7.03125Z" fill="#28376E"/>
<path d="M97.9906 7.03125V22.9993H94.3546L87.4618 14.4906V22.9993H83.1343V7.03125H86.7703L93.6631 15.5399V7.03125H97.9906Z" fill="#28376E"/>
</svg>
