<svg width="200" height="30" viewBox="0 0 200 30" fill="none" xmlns="http://www.w3.org/2000/svg">
<path d="M69.02 3.11568C69.0535 3.04488 69.1224 3 69.1977 3C69.273 3 69.3421 3.04488 69.3754 3.11568L70.0128 4.46855C70.0416 4.52974 70.0975 4.5722 70.1621 4.58203L71.5876 4.79893C71.6623 4.81026 71.7242 4.8651 71.7475 4.94017C71.7708 5.01525 71.7513 5.09784 71.6973 5.15291L70.666 6.20605C70.6193 6.25371 70.598 6.32242 70.6089 6.38975L70.8523 7.8768C70.8649 7.95477 70.8345 8.03343 70.7733 8.07994C70.7123 8.12621 70.6315 8.13234 70.5646 8.09579L69.2896 7.39361C69.232 7.3618 69.1629 7.3618 69.1052 7.39361L67.8302 8.09567C67.7635 8.13234 67.6825 8.12633 67.6214 8.07994C67.5603 8.03355 67.5299 7.95477 67.5426 7.8768L67.786 6.38975C67.797 6.32242 67.7756 6.25371 67.7289 6.20605L66.6975 5.15291C66.6435 5.09773 66.6241 5.01525 66.6474 4.94017C66.6707 4.8651 66.7327 4.81026 66.8074 4.79893L68.2331 4.58203C68.2976 4.5722 68.3535 4.52974 68.3823 4.46843L69.02 3.11568Z" fill="#FFC107"/>
<path d="M22.7398 23.5445H15.9207L14.6536 26.6776H10L17.1186 10.5513H21.611L28.7527 26.6776H24.0069L22.7398 23.5445ZM21.4037 20.181L19.3303 15.0206L17.2569 20.181H21.4037Z" fill="#28376E"/>
<path d="M37.1495 27.0002C34.7536 27.0002 32.8876 26.3474 31.5514 25.042C30.2306 23.7365 29.5701 21.8858 29.5701 19.4899V10.5513H34.1316V19.3517C34.1316 21.9319 35.1529 23.222 37.1956 23.222C39.2229 23.222 40.2366 21.9319 40.2366 19.3517V10.5513H44.7289V19.4899C44.7289 21.8858 44.0608 23.7365 42.7247 25.042C41.4038 26.3474 39.5455 27.0002 37.1495 27.0002Z" fill="#28376E"/>
<path d="M47.819 10.5513H55.4445C57.2107 10.5513 58.7773 10.8815 60.1442 11.5419C61.5111 12.2023 62.5708 13.1392 63.3234 14.3525C64.076 15.5658 64.4523 16.9865 64.4523 18.6145C64.4523 20.2425 64.076 21.6631 63.3234 22.8764C62.5708 24.0897 61.5111 25.0266 60.1442 25.687C58.7773 26.3474 57.2107 26.6776 55.4445 26.6776H47.819V10.5513ZM55.2602 23.0377C56.6425 23.0377 57.7483 22.6461 58.5776 21.8628C59.4224 21.0795 59.8447 19.9967 59.8447 18.6145C59.8447 17.2322 59.4224 16.1494 58.5776 15.3661C57.7483 14.5829 56.6425 14.1912 55.2602 14.1912H52.3805V23.0377H55.2602Z" fill="#28376E"/>
<path d="M78.2689 14.1682H73.3158V10.5513H87.7605V14.1682H82.8304V26.6776H78.2689V14.1682Z" fill="#28376E"/>
<path d="M66.7998 10.5513H71.3613V26.6776H66.7998V10.5513Z" fill="#FFC107"/>
</svg>
