<svg viewBox="0 0 259 259" xmlns="http://www.w3.org/2000/svg">
<path d="M102.847 40.1236C103.423 41.7946 104.883 43.2159 106.093 43.3119C107.303 43.408 107.821 42.1211 107.226 40.4502C106.63 38.7792 105.19 37.3579 103.98 37.2619C102.77 37.1658 102.251 38.4527 102.847 40.1236Z" fill="#6B89F6"/>
<path d="M97.2496 85.0079C98.8246 89.5214 102.781 93.3819 106.065 93.6124C109.35 93.8429 110.733 90.3857 109.158 85.8722C107.583 81.3587 103.626 77.4982 100.342 77.2677C97.0576 77.0372 95.6747 80.4944 97.2496 85.0079Z" fill="#FFC000"/>
<path d="M69.0922 104.009C72.1077 105.757 74.5469 109.982 74.5469 113.459C74.5469 116.935 72.0884 118.337 69.0538 116.589C66.0384 114.841 63.5992 110.616 63.5992 107.14C63.5992 103.663 66.0576 102.261 69.0922 104.009Z" fill="#E0E7EB"/>
<g filter="url(#filter0_f_5207_15117)">
<circle cx="129.366" cy="119.743" r="75" fill="#F1FBFF"/>
</g>
<path d="M119.175 166.51L154.039 146.384C154.46 146.142 155.141 146.142 155.565 146.384L180.991 161.062C181.412 161.304 181.412 161.698 180.991 161.94L146.127 182.067C145.706 182.309 145.025 182.309 144.601 182.067L119.175 167.389C118.754 167.147 118.754 166.752 119.175 166.51Z" fill="#ADC8D8"/>
<path d="M109.38 189.257C108.959 189.257 108.55 189.156 108.23 188.97L79.8487 172.58C79.4096 172.327 79.1565 171.929 79.1565 171.486C79.1565 171.043 79.4096 170.649 79.8487 170.392L102.8 157.135C103.12 156.949 103.526 156.849 103.95 156.849C104.374 156.849 104.78 156.949 105.1 157.135L133.481 173.526C133.92 173.779 134.173 174.177 134.173 174.62C134.173 175.063 133.92 175.457 133.481 175.714L110.53 188.97C110.21 189.156 109.804 189.257 109.38 189.257Z" fill="#ADC8D8"/>
<path d="M85.9483 161.575C85.9483 161.575 86.3614 156.138 84.5006 151.501C82.6435 146.864 79.495 143.593 76.153 142.673C72.811 141.758 69.4727 144.355 72.6956 147.195C75.9185 150.035 81.9513 153.455 83.3915 162.044L85.952 161.575H85.9483Z" fill="#ADC8D8"/>
<path d="M85.2188 160.005C85.2188 160.005 85.2448 160.005 85.256 160.005C85.3565 159.986 85.4198 159.89 85.4012 159.789C83.5031 150.284 77.3885 145.297 74.4186 143.987C74.3256 143.946 74.2177 143.987 74.1767 144.08C74.1358 144.173 74.1767 144.281 74.2698 144.322C77.1764 145.602 83.1719 150.5 85.0402 159.856C85.0588 159.942 85.1332 160.005 85.2188 160.005Z" fill="#F3F7FA"/>
<path d="M70.3957 157.593C70.5408 158.211 71.1065 158.628 71.6424 158.974C72.1746 159.316 72.7589 159.689 72.971 160.288C73.3953 161.497 72.0629 162.833 72.5393 164.024C72.7403 164.523 73.2241 164.858 73.7265 165.051C74.1433 165.215 74.5825 165.297 75.0142 165.42C75.2263 165.457 75.4385 165.479 75.6469 165.491C76.2647 165.517 76.9234 165.613 77.4146 166.027C78.1887 166.678 78.2446 167.824 78.6093 168.769C79.0484 169.901 80.0384 170.775 81.1772 171.159C82.1374 171.475 83.6521 171.538 83.987 171.151C84.2438 170.857 83.8568 169.752 83.92 169.365C84.0763 168.379 84.1396 167.374 84.1061 166.376C84.0912 165.889 84.0763 165.494 84.1731 165.014C84.2736 164.512 84.3703 164.009 84.4597 163.507C84.6048 162.696 84.8728 161.829 84.6755 160.999C84.4559 160.087 83.5144 159.89 83.3171 158.996C83.2353 158.639 83.2278 158.274 83.1534 157.917C82.9264 156.864 82.0592 155.974 81.0134 155.721C79.3834 155.323 77.6491 156.376 76.0265 155.937C75.6059 155.822 75.2152 155.613 74.8095 155.457C73.5218 154.951 71.9066 155.037 70.9427 156.023C70.5408 156.436 70.2691 157.028 70.3994 157.59L70.3957 157.593Z" fill="#ADC8D8"/>
<path d="M83.6447 168.565C83.6447 168.565 83.6522 168.565 83.6559 168.565C83.7341 168.561 83.7936 168.49 83.7899 168.412C83.146 159.436 74.3816 156.481 72.2454 156.231C72.1673 156.224 72.0965 156.28 72.0854 156.358C72.0779 156.436 72.1338 156.507 72.2119 156.518C74.2997 156.763 82.8706 159.651 83.5033 168.434C83.507 168.509 83.5703 168.568 83.6447 168.568V168.565Z" fill="#F3F7FA"/>
<path d="M74.4745 162.324C74.5042 162.324 74.5303 162.316 74.5563 162.297C74.5824 162.279 77.3103 160.455 81.0096 161.743C81.0841 161.769 81.1659 161.728 81.192 161.654C81.218 161.579 81.1771 161.497 81.1027 161.471C77.2582 160.135 74.4224 162.041 74.3926 162.059C74.3256 162.104 74.3107 162.193 74.3554 162.257C74.3814 162.297 74.4261 162.32 74.4707 162.32L74.4745 162.324Z" fill="#F3F7FA"/>
<path d="M145.36 179.153L123.339 166.436V97.4221L145.36 110.135V179.153Z" fill="url(#paint0_linear_5207_15117)"/>
<path d="M145.36 110.135L176.819 91.9736V160.987L145.36 179.153V110.135Z" fill="url(#paint1_linear_5207_15117)"/>
<path d="M176.819 91.9736L145.36 110.135L123.339 97.4221L154.798 79.2568L176.819 91.9736Z" fill="url(#paint2_linear_5207_15117)"/>
<path d="M148.509 154.865L173.674 140.336V157.828L174.251 158.159L149.086 172.692L148.509 172.357V154.865Z" fill="#98BACD"/>
<path d="M149.086 155.2L174.255 140.671L174.251 158.159L149.086 172.692V155.2Z" fill="url(#paint3_linear_5207_15117)"/>
<path d="M158.952 152.469L163.231 149.997C163.786 149.677 164.236 149.823 164.236 150.325C164.236 150.827 163.786 151.494 163.231 151.814L158.952 154.285C158.397 154.605 157.947 154.46 157.947 153.957C157.947 153.455 158.397 152.789 158.952 152.469Z" fill="#98BACD"/>
<path d="M148.509 133.745L173.674 119.216V136.708L174.251 137.042L149.086 151.572L148.509 151.237V133.745Z" fill="#98BACD"/>
<path d="M149.086 134.08L174.255 119.551L174.251 137.042L149.086 151.572V134.08Z" fill="url(#paint4_linear_5207_15117)"/>
<path d="M158.952 131.348L163.231 128.877C163.786 128.557 164.236 128.702 164.236 129.205C164.236 129.707 163.786 130.373 163.231 130.693L158.952 133.165C158.397 133.485 157.947 133.339 157.947 132.837C157.947 132.335 158.397 131.668 158.952 131.348Z" fill="#263238"/>
<path d="M148.509 112.625L173.674 98.0957V115.584L148.509 130.113V112.625Z" fill="#98BACD"/>
<path d="M186.257 108.319L172.294 100.262V115.669L186.257 123.726V108.319Z" fill="#ADC8D8"/>
<g opacity="0.1">
<path d="M186.257 108.319L172.294 100.262V115.669L186.257 123.726V108.319Z" fill="#98BACD"/>
</g>
<path d="M173.269 99.696L172.294 100.258L186.257 108.319L187.232 107.753L173.269 99.696Z" fill="url(#paint5_linear_5207_15117)"/>
<path d="M177.203 101.397C177.203 101.244 177.151 101.14 177.069 101.084C177.069 101.084 177.057 101.073 177.035 101.066L176.324 100.649C176.235 100.597 176.112 100.608 175.978 100.682L161.754 108.885L161.341 107.214C161.304 107.087 161.229 106.998 161.136 106.942L160.396 106.51C160.266 106.436 160.102 106.432 159.945 106.525L153.894 110.016C153.622 110.172 153.403 110.556 153.403 110.868V131.047C153.403 131.196 153.451 131.304 153.537 131.36L154.3 131.802C154.389 131.847 154.504 131.836 154.635 131.762L176.726 119.008C176.998 118.851 177.217 118.468 177.217 118.155L177.21 101.393L177.203 101.397Z" fill="#ADC8D8"/>
<g opacity="0.2">
<mask id="path-26-inside-1_5207_15117" fill="white">
<path d="M161.121 106.938C160.995 106.868 160.835 106.871 160.682 106.957L154.631 110.448C154.497 110.526 154.374 110.66 154.285 110.816L153.548 110.388C153.637 110.232 153.76 110.098 153.894 110.02L159.945 106.529C160.105 106.44 160.269 106.443 160.396 106.518L161.125 106.938H161.121Z"/>
</mask>
<path d="M161.121 106.938C160.995 106.868 160.835 106.871 160.682 106.957L154.631 110.448C154.497 110.526 154.374 110.66 154.285 110.816L153.548 110.388C153.637 110.232 153.76 110.098 153.894 110.02L159.945 106.529C160.105 106.44 160.269 106.443 160.396 106.518L161.125 106.938H161.121Z" fill="url(#paint6_linear_5207_15117)"/>
<path d="M161.121 106.938L160.634 107.811L160.861 107.938H161.121V106.938ZM160.682 106.957L160.193 106.085L160.183 106.091L160.682 106.957ZM154.631 110.448L154.131 109.582L154.127 109.584L154.631 110.448ZM154.285 110.816L153.782 111.681L154.653 112.187L155.153 111.312L154.285 110.816ZM153.548 110.388L152.68 109.892L152.187 110.754L153.046 111.253L153.548 110.388ZM153.894 110.02L153.394 109.154L153.39 109.156L153.894 110.02ZM159.945 106.529L159.458 105.656L159.452 105.659L159.446 105.663L159.945 106.529ZM160.396 106.518L159.889 107.38L159.896 107.384L160.396 106.518ZM161.125 106.938V107.938H164.862L161.625 106.072L161.125 106.938ZM161.609 106.065C161.132 105.799 160.599 105.857 160.193 106.085L161.171 107.829C161.071 107.886 160.858 107.937 160.634 107.811L161.609 106.065ZM160.183 106.091L154.131 109.582L155.131 111.314L161.182 107.823L160.183 106.091ZM154.127 109.584C153.808 109.77 153.571 110.049 153.416 110.32L155.153 111.312C155.157 111.305 155.161 111.299 155.165 111.294C155.168 111.289 155.171 111.286 155.172 111.285C155.173 111.284 155.171 111.286 155.166 111.29C155.161 111.294 155.151 111.302 155.135 111.312L154.127 109.584ZM154.787 109.952L154.05 109.524L153.046 111.253L153.782 111.681L154.787 109.952ZM154.416 110.884C154.42 110.877 154.424 110.871 154.428 110.866C154.432 110.861 154.434 110.858 154.435 110.857C154.436 110.856 154.435 110.858 154.429 110.862C154.424 110.866 154.414 110.874 154.398 110.884L153.39 109.156C153.071 109.342 152.834 109.621 152.68 109.892L154.416 110.884ZM154.394 110.886L160.445 107.395L159.446 105.663L153.394 109.154L154.394 110.886ZM160.433 107.402C160.38 107.432 160.298 107.461 160.195 107.462C160.092 107.463 159.984 107.436 159.889 107.38L160.903 105.656C160.44 105.384 159.896 105.411 159.458 105.656L160.433 107.402ZM159.896 107.384L160.626 107.805L161.625 106.072L160.895 105.651L159.896 107.384ZM161.125 105.938H161.121V107.938H161.125V105.938Z" fill="url(#paint7_linear_5207_15117)" mask="url(#path-26-inside-1_5207_15117)"/>
</g>
<path opacity="0.2" d="M177.031 101.066C176.946 101.028 176.831 101.043 176.708 101.114L162.472 109.328C162.201 109.484 161.907 109.369 161.817 109.067L161.75 108.888L175.975 100.686C176.053 100.641 176.127 100.619 176.194 100.619C176.242 100.619 176.283 100.63 176.321 100.653L177.031 101.069V101.066Z" fill="#F3F7FA"/>
<path d="M177.203 101.397L177.21 118.155C177.21 118.468 176.99 118.851 176.719 119.008L154.571 131.791C154.378 131.903 154.136 131.765 154.136 131.542V111.3C154.136 111.144 154.192 110.969 154.281 110.816C154.37 110.66 154.497 110.526 154.627 110.448L160.679 106.953C160.835 106.868 160.991 106.864 161.121 106.935L161.133 106.942C161.226 106.998 161.3 107.087 161.337 107.214L161.75 108.885L161.817 109.063C161.907 109.365 162.201 109.48 162.472 109.324L176.711 101.11C176.834 101.04 176.946 101.028 177.031 101.062L177.05 101.073C177.05 101.073 177.057 101.073 177.061 101.077H177.065C177.147 101.133 177.199 101.241 177.199 101.393L177.203 101.397Z" fill="#ADC8D8"/>
<path opacity="0.3" d="M177.203 101.397L177.21 118.155C177.21 118.468 176.99 118.851 176.719 119.008L154.571 131.791C154.378 131.903 154.136 131.765 154.136 131.542V111.3C154.136 111.144 154.192 110.969 154.281 110.816C154.37 110.66 154.497 110.526 154.627 110.448L160.679 106.953C160.835 106.868 160.991 106.864 161.121 106.935L161.133 106.942C161.226 106.998 161.3 107.087 161.337 107.214L161.75 108.885L161.817 109.063C161.907 109.365 162.201 109.48 162.472 109.324L176.711 101.11C176.834 101.04 176.946 101.028 177.031 101.062L177.05 101.073C177.05 101.073 177.057 101.073 177.061 101.077H177.065C177.147 101.133 177.199 101.241 177.199 101.393L177.203 101.397Z" fill="#F3F7FA"/>
<path opacity="0.5" d="M154.315 131.81C154.315 131.81 154.3 131.81 154.292 131.802L153.529 131.36C153.447 131.304 153.395 131.2 153.395 131.047V110.868C153.395 110.708 153.451 110.541 153.54 110.385L154.277 110.813C154.188 110.969 154.132 111.14 154.132 111.296V131.538C154.132 131.665 154.21 131.765 154.311 131.806L154.315 131.81Z" fill="#98BACD"/>
<path d="M179.573 102.778C179.573 102.625 179.521 102.521 179.439 102.465C179.439 102.465 179.428 102.454 179.406 102.446L178.695 102.029C178.606 101.981 178.483 101.989 178.349 102.067L164.125 110.269L163.712 108.598C163.674 108.472 163.6 108.382 163.507 108.326L162.766 107.895C162.636 107.82 162.472 107.817 162.316 107.91L156.265 111.401C155.993 111.557 155.773 111.94 155.773 112.253V132.431C155.773 132.58 155.822 132.688 155.907 132.744L156.67 133.187C156.76 133.232 156.875 133.22 157.005 133.146L179.097 120.392C179.369 120.236 179.588 119.852 179.588 119.54L179.581 102.778H179.573Z" fill="#ADC8D8"/>
<g opacity="0.1">
<mask id="path-33-inside-2_5207_15117" fill="white">
<path d="M163.492 108.319C163.365 108.248 163.205 108.252 163.053 108.338L157.001 111.829C156.867 111.907 156.745 112.041 156.655 112.197L155.918 111.769C156.008 111.613 156.131 111.479 156.265 111.401L162.316 107.91C162.476 107.82 162.64 107.824 162.766 107.899L163.496 108.319H163.492Z"/>
</mask>
<path d="M163.492 108.319C163.365 108.248 163.205 108.252 163.053 108.338L157.001 111.829C156.867 111.907 156.745 112.041 156.655 112.197L155.918 111.769C156.008 111.613 156.131 111.479 156.265 111.401L162.316 107.91C162.476 107.82 162.64 107.824 162.766 107.899L163.496 108.319H163.492Z" fill="url(#paint8_linear_5207_15117)"/>
<path d="M163.492 108.319L163.004 109.192L163.232 109.319H163.492V108.319ZM163.053 108.338L162.564 107.465L162.553 107.471L163.053 108.338ZM157.001 111.829L156.502 110.962L156.498 110.965L157.001 111.829ZM156.655 112.197L156.153 113.062L157.024 113.568L157.524 112.693L156.655 112.197ZM155.918 111.769L155.05 111.273L154.558 112.135L155.416 112.634L155.918 111.769ZM156.265 111.401L155.765 110.534L155.761 110.537L156.265 111.401ZM162.316 107.91L161.829 107.036L161.822 107.04L161.816 107.043L162.316 107.91ZM162.766 107.899L162.259 108.76L162.267 108.765L162.766 107.899ZM163.496 108.319V109.319H167.232L163.995 107.453L163.496 108.319ZM163.98 107.446C163.503 107.179 162.969 107.238 162.564 107.466L163.542 109.21C163.441 109.266 163.228 109.317 163.004 109.192L163.98 107.446ZM162.553 107.471L156.502 110.962L157.501 112.695L163.553 109.204L162.553 107.471ZM156.498 110.965C156.178 111.151 155.942 111.43 155.787 111.701L157.524 112.693C157.528 112.686 157.532 112.68 157.535 112.675C157.539 112.67 157.542 112.667 157.543 112.666C157.544 112.665 157.542 112.667 157.537 112.671C157.532 112.675 157.521 112.683 157.505 112.692L156.498 110.965ZM157.158 111.332L156.421 110.904L155.416 112.634L156.153 113.062L157.158 111.332ZM156.787 112.265C156.791 112.258 156.795 112.252 156.798 112.247C156.802 112.242 156.805 112.239 156.806 112.238C156.807 112.237 156.805 112.239 156.8 112.243C156.795 112.247 156.785 112.255 156.768 112.264L155.761 110.537C155.441 110.723 155.205 111.002 155.05 111.273L156.787 112.265ZM156.764 112.267L162.816 108.776L161.816 107.043L155.765 110.534L156.764 112.267ZM162.803 108.783C162.75 108.813 162.669 108.841 162.566 108.843C162.462 108.844 162.355 108.817 162.259 108.76L163.273 107.037C162.81 106.764 162.266 106.792 161.829 107.036L162.803 108.783ZM162.267 108.765L162.996 109.185L163.995 107.453L163.266 107.032L162.267 108.765ZM163.496 107.319H163.492V109.319H163.496V107.319Z" fill="url(#paint9_linear_5207_15117)" mask="url(#path-33-inside-2_5207_15117)"/>
</g>
<path opacity="0.1" d="M179.402 102.446C179.316 102.409 179.201 102.424 179.078 102.495L164.843 110.708C164.571 110.865 164.277 110.749 164.188 110.448L164.121 110.269L178.345 102.067C178.423 102.022 178.497 102 178.564 102C178.613 102 178.654 102.011 178.691 102.033L179.402 102.45V102.446Z" fill="#F3F7FA"/>
<path d="M179.573 102.781L179.581 119.54C179.581 119.852 179.361 120.236 179.089 120.392L156.942 133.179C156.748 133.291 156.507 133.15 156.507 132.93V112.688C156.507 112.532 156.562 112.357 156.652 112.204C156.741 112.048 156.868 111.914 156.998 111.836L163.049 108.341C163.206 108.256 163.362 108.252 163.492 108.323L163.503 108.33C163.596 108.386 163.671 108.475 163.708 108.602L164.121 110.273L164.188 110.451C164.277 110.753 164.571 110.868 164.843 110.712L179.082 102.498C179.205 102.428 179.316 102.417 179.402 102.45L179.421 102.461C179.421 102.461 179.428 102.461 179.432 102.465H179.436C179.517 102.521 179.569 102.629 179.569 102.781H179.573Z" fill="#ADC8D8"/>
<path opacity="0.2" d="M179.573 102.781L179.581 119.54C179.581 119.852 179.361 120.236 179.089 120.392L156.942 133.179C156.748 133.291 156.507 133.15 156.507 132.93V112.688C156.507 112.532 156.562 112.357 156.652 112.204C156.741 112.048 156.868 111.914 156.998 111.836L163.049 108.341C163.206 108.256 163.362 108.252 163.492 108.323L163.503 108.33C163.596 108.386 163.671 108.475 163.708 108.602L164.121 110.273L164.188 110.451C164.277 110.753 164.571 110.868 164.843 110.712L179.082 102.498C179.205 102.428 179.316 102.417 179.402 102.45L179.421 102.461C179.421 102.461 179.428 102.461 179.432 102.465H179.436C179.517 102.521 179.569 102.629 179.569 102.781H179.573Z" fill="#F3F7FA"/>
<path opacity="0.4" d="M156.685 133.194C156.685 133.194 156.67 133.194 156.663 133.187L155.9 132.744C155.818 132.688 155.766 132.584 155.766 132.431V112.253C155.766 112.093 155.822 111.925 155.911 111.769L156.648 112.197C156.559 112.353 156.503 112.524 156.503 112.681V132.923C156.503 133.049 156.581 133.15 156.681 133.191L156.685 133.194Z" fill="#98BACD"/>
<path d="M181.944 104.162C181.944 104.009 181.892 103.905 181.81 103.849C181.81 103.849 181.799 103.838 181.776 103.831L181.066 103.414C180.976 103.362 180.853 103.373 180.719 103.447L166.495 111.65L166.082 109.979C166.045 109.852 165.971 109.763 165.878 109.707L165.137 109.275C165.007 109.201 164.843 109.197 164.687 109.29L158.635 112.781C158.364 112.938 158.144 113.321 158.144 113.633V133.812C158.144 133.961 158.192 134.069 158.278 134.125L159.041 134.568C159.13 134.612 159.246 134.601 159.376 134.527L181.467 121.773C181.739 121.616 181.959 121.233 181.959 120.92L181.951 104.158L181.944 104.162Z" fill="#ADC8D8"/>
<mask id="path-40-inside-3_5207_15117" fill="white">
<path d="M165.863 109.7C165.736 109.629 165.576 109.633 165.424 109.718L159.372 113.209C159.238 113.287 159.116 113.421 159.026 113.578L158.289 113.15C158.379 112.993 158.501 112.859 158.635 112.781L164.687 109.29C164.847 109.201 165.011 109.205 165.137 109.279L165.867 109.7H165.863Z"/>
</mask>
<path d="M165.863 109.7C165.736 109.629 165.576 109.633 165.424 109.718L159.372 113.209C159.238 113.287 159.116 113.421 159.026 113.578L158.289 113.15C158.379 112.993 158.501 112.859 158.635 112.781L164.687 109.29C164.847 109.201 165.011 109.205 165.137 109.279L165.867 109.7H165.863Z" fill="#98BACD"/>
<path d="M165.863 109.7L165.375 110.573L165.602 110.7H165.863V109.7ZM165.424 109.718L164.934 108.846L164.924 108.852L165.424 109.718ZM159.372 113.209L158.873 112.343L158.868 112.345L159.372 113.209ZM159.026 113.578L158.524 114.442L159.395 114.948L159.894 114.074L159.026 113.578ZM158.289 113.15L157.421 112.654L156.928 113.516L157.787 114.014L158.289 113.15ZM158.635 112.781L158.136 111.915L158.132 111.917L158.635 112.781ZM164.687 109.29L164.199 108.417L164.193 108.421L164.187 108.424L164.687 109.29ZM165.137 109.279L164.63 110.141L164.638 110.146L165.137 109.279ZM165.867 109.7V110.7H169.603L166.366 108.833L165.867 109.7ZM166.351 108.827C165.873 108.56 165.34 108.619 164.934 108.846L165.913 110.59C165.812 110.647 165.599 110.698 165.375 110.573L166.351 108.827ZM164.924 108.852L158.873 112.343L159.872 114.075L165.923 110.585L164.924 108.852ZM158.868 112.345C158.549 112.532 158.313 112.811 158.158 113.082L159.894 114.074C159.898 114.067 159.902 114.061 159.906 114.056C159.91 114.051 159.913 114.048 159.914 114.046C159.915 114.045 159.913 114.047 159.908 114.052C159.903 114.056 159.892 114.064 159.876 114.073L158.868 112.345ZM159.528 112.713L158.792 112.285L157.787 114.014L158.524 114.442L159.528 112.713ZM159.158 113.646C159.162 113.639 159.166 113.633 159.169 113.628C159.173 113.623 159.176 113.62 159.177 113.618C159.178 113.617 159.176 113.619 159.171 113.624C159.166 113.628 159.155 113.636 159.139 113.645L158.132 111.917C157.812 112.104 157.576 112.383 157.421 112.654L159.158 113.646ZM159.135 113.647L165.186 110.157L164.187 108.424L158.136 111.915L159.135 113.647ZM165.174 110.164C165.121 110.193 165.04 110.222 164.937 110.223C164.833 110.225 164.726 110.197 164.63 110.141L165.644 108.417C165.181 108.145 164.637 108.173 164.199 108.417L165.174 110.164ZM164.638 110.146L165.367 110.566L166.366 108.833L165.637 108.413L164.638 110.146ZM165.867 108.7H165.863V110.7H165.867V108.7Z" fill="url(#paint10_linear_5207_15117)" mask="url(#path-40-inside-3_5207_15117)"/>
<path d="M181.773 103.831C181.687 103.793 181.572 103.808 181.449 103.879L167.214 112.093C166.942 112.249 166.648 112.134 166.559 111.832L166.492 111.654L180.716 103.451C180.794 103.406 180.868 103.384 180.935 103.384C180.984 103.384 181.025 103.395 181.062 103.418L181.773 103.834V103.831Z" fill="#ADC8D8"/>
<path d="M181.944 104.162L181.951 120.92C181.951 121.233 181.732 121.616 181.46 121.773L159.313 134.56C159.119 134.672 158.877 134.534 158.877 134.311V114.069C158.877 113.913 158.933 113.738 159.022 113.585C159.112 113.429 159.238 113.295 159.368 113.217L165.42 109.722C165.576 109.636 165.732 109.633 165.863 109.703L165.874 109.711C165.967 109.767 166.041 109.856 166.079 109.983L166.492 111.654L166.559 111.832C166.648 112.134 166.942 112.249 167.214 112.093L181.453 103.879C181.575 103.808 181.687 103.797 181.773 103.831L181.791 103.842C181.791 103.842 181.799 103.842 181.802 103.846H181.806C181.888 103.901 181.94 104.009 181.94 104.162H181.944Z" fill="#ADC8D8"/>
<path opacity="0.1" d="M181.944 104.162L181.951 120.92C181.951 121.233 181.732 121.616 181.46 121.773L159.313 134.56C159.119 134.672 158.877 134.534 158.877 134.311V114.069C158.877 113.913 158.933 113.738 159.022 113.585C159.112 113.429 159.238 113.295 159.368 113.217L165.42 109.722C165.576 109.636 165.732 109.633 165.863 109.703L165.874 109.711C165.967 109.767 166.041 109.856 166.079 109.983L166.492 111.654L166.559 111.832C166.648 112.134 166.942 112.249 167.214 112.093L181.453 103.879C181.575 103.808 181.687 103.797 181.773 103.831L181.791 103.842C181.791 103.842 181.799 103.842 181.802 103.846H181.806C181.888 103.901 181.94 104.009 181.94 104.162H181.944Z" fill="#F3F7FA"/>
<path opacity="0.3" d="M159.056 134.575C159.056 134.575 159.041 134.575 159.034 134.568L158.271 134.125C158.189 134.069 158.137 133.965 158.137 133.812V113.633C158.137 113.477 158.193 113.306 158.282 113.15L159.019 113.578C158.929 113.734 158.874 113.905 158.874 114.061V134.303C158.874 134.43 158.952 134.53 159.052 134.571L159.056 134.575Z" fill="#98BACD"/>
<path d="M184.314 105.543C184.314 105.39 184.262 105.286 184.18 105.23C184.18 105.23 184.169 105.219 184.147 105.211L183.436 104.795C183.347 104.743 183.224 104.754 183.09 104.828L168.866 113.031L168.453 111.36C168.416 111.233 168.341 111.144 168.248 111.088L167.508 110.656C167.377 110.582 167.214 110.578 167.057 110.671L161.006 114.162C160.734 114.318 160.515 114.702 160.515 115.014V135.193C160.515 135.342 160.563 135.45 160.649 135.505L161.412 135.948C161.501 135.993 161.616 135.982 161.747 135.907L183.838 123.153C184.11 122.997 184.329 122.614 184.329 122.301L184.322 105.539L184.314 105.543Z" fill="#ADC8D8"/>
<g opacity="0.5">
<mask id="path-47-inside-4_5207_15117" fill="white">
<path d="M168.233 111.08C168.107 111.01 167.947 111.013 167.794 111.099L161.743 114.59C161.609 114.668 161.486 114.802 161.397 114.958L160.66 114.53C160.749 114.374 160.872 114.24 161.006 114.162L167.057 110.671C167.217 110.582 167.381 110.585 167.507 110.66L168.237 111.08H168.233Z"/>
</mask>
<path d="M168.233 111.08C168.107 111.01 167.947 111.013 167.794 111.099L161.743 114.59C161.609 114.668 161.486 114.802 161.397 114.958L160.66 114.53C160.749 114.374 160.872 114.24 161.006 114.162L167.057 110.671C167.217 110.582 167.381 110.585 167.507 110.66L168.237 111.08H168.233Z" fill="#F3F7FA"/>
<path d="M168.233 111.08L167.745 111.953L167.973 112.08H168.233V111.08ZM167.794 111.099L167.305 110.227L167.294 110.233L167.794 111.099ZM161.743 114.59L161.243 113.724L161.239 113.726L161.743 114.59ZM161.397 114.958L160.894 115.823L161.765 116.329L162.265 115.454L161.397 114.958ZM160.66 114.53L159.791 114.034L159.299 114.896L160.157 115.395L160.66 114.53ZM161.006 114.162L160.506 113.296L160.502 113.298L161.006 114.162ZM167.057 110.671L166.57 109.798L166.564 109.801L166.557 109.805L167.057 110.671ZM167.507 110.66L167 111.522L167.008 111.526L167.507 110.66ZM168.237 111.08V112.08H171.974L168.736 110.214L168.237 111.08ZM168.721 110.207C168.244 109.941 167.711 109.999 167.305 110.227L168.283 111.971C168.183 112.028 167.969 112.079 167.745 111.953L168.721 110.207ZM167.294 110.233L161.243 113.724L162.242 115.456L168.294 111.965L167.294 110.233ZM161.239 113.726C160.919 113.912 160.683 114.191 160.528 114.462L162.265 115.454C162.269 115.448 162.273 115.441 162.276 115.436C162.28 115.431 162.283 115.428 162.284 115.427C162.285 115.426 162.283 115.428 162.278 115.432C162.273 115.436 162.263 115.444 162.247 115.454L161.239 113.726ZM161.899 114.094L161.162 113.666L160.157 115.395L160.894 115.823L161.899 114.094ZM161.528 115.026C161.532 115.02 161.536 115.013 161.54 115.008C161.543 115.003 161.546 115 161.547 114.999C161.548 114.998 161.546 115 161.541 115.004C161.536 115.008 161.526 115.016 161.51 115.026L160.502 113.298C160.183 113.484 159.946 113.763 159.791 114.034L161.528 115.026ZM161.505 115.028L167.557 111.537L166.557 109.805L160.506 113.296L161.505 115.028ZM167.544 111.544C167.491 111.574 167.41 111.603 167.307 111.604C167.203 111.605 167.096 111.578 167 111.522L168.014 109.798C167.552 109.526 167.008 109.553 166.57 109.798L167.544 111.544ZM167.008 111.526L167.737 111.947L168.736 110.214L168.007 109.794L167.008 111.526ZM168.237 110.08H168.233V112.08H168.237V110.08Z" fill="url(#paint11_linear_5207_15117)" mask="url(#path-47-inside-4_5207_15117)"/>
</g>
<path opacity="0.5" d="M184.143 105.211C184.058 105.174 183.942 105.189 183.82 105.26L169.584 113.473C169.313 113.63 169.019 113.514 168.929 113.213L168.862 113.034L183.086 104.832C183.165 104.787 183.239 104.765 183.306 104.765C183.354 104.765 183.395 104.776 183.432 104.798L184.143 105.215V105.211Z" fill="#F3F7FA"/>
<path d="M184.314 105.543L184.322 122.301C184.322 122.617 184.102 122.997 183.831 123.153L161.683 135.941C161.49 136.053 161.248 135.915 161.248 135.692V115.45C161.248 115.293 161.304 115.118 161.393 114.966C161.482 114.809 161.609 114.676 161.739 114.597L167.79 111.103C167.947 111.017 168.103 111.013 168.233 111.084L168.244 111.092C168.337 111.147 168.412 111.237 168.449 111.363L168.862 113.034L168.929 113.213C169.019 113.514 169.313 113.63 169.584 113.473L183.823 105.26C183.946 105.189 184.061 105.178 184.143 105.211L184.162 105.223C184.162 105.223 184.169 105.223 184.173 105.226H184.177C184.259 105.282 184.311 105.39 184.311 105.543H184.314Z" fill="url(#paint12_linear_5207_15117)"/>
<path opacity="0.2" d="M161.427 135.956C161.427 135.956 161.412 135.956 161.404 135.948L160.641 135.505C160.559 135.45 160.507 135.345 160.507 135.193V115.014C160.507 114.858 160.563 114.687 160.652 114.53L161.389 114.958C161.3 115.115 161.244 115.286 161.244 115.442V135.684C161.244 135.811 161.322 135.911 161.423 135.952L161.427 135.956Z" fill="#98BACD"/>
<path d="M163.049 121.717L149.086 113.66V129.071L163.049 137.128V121.717Z" fill="url(#paint13_linear_5207_15117)"/>
<path d="M150.061 113.094L149.086 113.66L163.049 121.717L164.024 121.155L150.061 113.094Z" fill="#ADC8D8"/>
<path d="M162.766 120.857L187.936 106.328L187.932 123.816L162.766 138.349V120.857Z" fill="url(#paint14_linear_5207_15117)"/>
<path d="M172.632 118.125L176.912 115.654C177.467 115.334 177.917 115.479 177.917 115.982C177.917 116.484 177.467 117.15 176.912 117.47L172.632 119.942C172.078 120.262 171.627 120.117 171.627 119.614C171.627 119.112 172.078 118.446 172.632 118.125Z" fill="#ADC8D8"/>
<path d="M162.766 120.857L161.929 120.373V137.861L162.766 138.349V120.857Z" fill="#ADC8D8"/>
<path d="M161.929 120.373L187.095 105.844L187.936 106.328L162.766 120.857L161.929 120.373Z" fill="url(#paint15_linear_5207_15117)"/>
<path d="M109.383 186.354V170.321L130.206 158.3V174.329L109.383 186.354Z" fill="url(#paint16_linear_5207_15117)"/>
<path d="M109.383 170.321L83.3506 155.293V171.322L109.383 186.354V170.321Z" fill="url(#paint17_linear_5207_15117)"/>
<path d="M109.383 170.321L130.824 157.936L104.177 142.547L82.7329 154.932L109.383 170.321Z" fill="#98BACD"/>
<path d="M109.383 170.321V174.329L130.824 161.951V157.936L109.383 170.321Z" fill="url(#paint18_linear_5207_15117)"/>
<path opacity="0.2" d="M109.383 174.329L130.206 162.305V163.187L109.383 175.211V174.329Z" fill="#98BACD"/>
<path d="M82.7329 154.932L109.383 170.321V174.329L82.7329 158.944V154.932Z" fill="url(#paint19_linear_5207_15117)"/>
<path opacity="0.2" d="M109.383 174.329L83.3506 159.302V160.18L109.383 175.211V174.329Z" fill="#98BACD"/>
<path d="M116.239 172.759L123.351 168.65C123.656 168.472 123.905 168.617 123.905 168.97V173.176C123.905 173.529 123.656 173.961 123.351 174.136L116.239 178.245C115.933 178.423 115.684 178.278 115.684 177.924V173.719C115.684 173.366 115.933 172.934 116.239 172.759Z" fill="#98BACD"/>
<path d="M116.693 173.235L122.897 169.655C123.101 169.536 123.265 169.633 123.265 169.867V173.019C123.265 173.254 123.098 173.544 122.897 173.66L116.693 177.24C116.488 177.359 116.324 177.262 116.324 177.028V173.875C116.324 173.641 116.492 173.354 116.693 173.235Z" fill="#F5F5F5"/>
<g opacity="0.5">
<path d="M116.868 174.069C116.838 174.069 116.808 174.054 116.789 174.024C116.763 173.98 116.778 173.928 116.823 173.901L122.681 170.522C122.722 170.496 122.778 170.511 122.804 170.556C122.83 170.6 122.815 170.652 122.77 170.679L116.912 174.058C116.912 174.058 116.882 174.069 116.868 174.069Z" fill="#ADC8D8"/>
<path d="M116.868 174.843C116.838 174.843 116.808 174.828 116.789 174.798C116.763 174.754 116.778 174.702 116.823 174.676L122.681 171.296C122.722 171.27 122.778 171.285 122.804 171.33C122.83 171.374 122.815 171.427 122.77 171.453L116.912 174.832C116.912 174.832 116.882 174.843 116.868 174.843Z" fill="#ADC8D8"/>
<path d="M116.868 175.617C116.838 175.617 116.808 175.602 116.789 175.572C116.763 175.528 116.778 175.476 116.823 175.45L122.681 172.07C122.722 172.044 122.778 172.059 122.804 172.104C122.83 172.149 122.815 172.201 122.77 172.227L116.912 175.606C116.912 175.606 116.882 175.617 116.868 175.617Z" fill="#ADC8D8"/>
<path d="M116.868 176.391C116.838 176.391 116.808 176.376 116.789 176.347C116.763 176.302 116.778 176.25 116.823 176.224L122.681 172.844C122.722 172.818 122.778 172.833 122.804 172.878C122.83 172.923 122.815 172.975 122.77 173.001L116.912 176.38C116.912 176.38 116.882 176.391 116.868 176.391Z" fill="#ADC8D8"/>
</g>
<path opacity="0.1" d="M129.086 156.931L109.383 168.308L84.4746 153.92L83.8643 154.281L109.383 168.963L129.696 157.284L129.086 156.931Z" fill="#F3F7FA"/>
<path d="M109.383 168.308V152.275L130.206 140.254V156.283L109.383 168.308Z" fill="url(#paint20_linear_5207_15117)"/>
<path d="M109.383 152.275L83.3506 137.247V153.276L109.383 168.308V152.275Z" fill="url(#paint21_linear_5207_15117)"/>
<path d="M109.383 152.275L130.824 139.89L104.177 124.501L82.7329 136.886L109.383 152.275Z" fill="url(#paint22_linear_5207_15117)"/>
<path d="M109.383 152.275V156.283L130.824 143.905V139.89L109.383 152.275Z" fill="url(#paint23_linear_5207_15117)"/>
<path opacity="0.2" d="M109.383 156.283L130.206 144.259V145.141L109.383 157.165V156.283Z" fill="#98BACD"/>
<path d="M82.7329 136.886L109.383 152.275V156.283L82.7329 140.898V136.886Z" fill="url(#paint24_linear_5207_15117)"/>
<path opacity="0.2" d="M109.383 156.283L83.3506 141.255V142.134L109.383 157.165V156.283Z" fill="#98BACD"/>
<path d="M116.239 154.713L123.351 150.604C123.656 150.425 123.905 150.571 123.905 150.924V155.13C123.905 155.483 123.656 155.915 123.351 156.09L116.239 160.198C115.933 160.377 115.684 160.232 115.684 159.878V155.673C115.684 155.319 115.933 154.888 116.239 154.713Z" fill="#98BACD"/>
<path d="M116.693 155.189L122.897 151.609C123.101 151.49 123.265 151.587 123.265 151.821V154.973C123.265 155.208 123.098 155.498 122.897 155.613L116.693 159.194C116.488 159.313 116.324 159.216 116.324 158.981V155.829C116.324 155.595 116.492 155.308 116.693 155.189Z" fill="#F5F5F5"/>
<g opacity="0.5">
<path d="M116.868 156.023C116.838 156.023 116.808 156.008 116.789 155.978C116.763 155.933 116.778 155.881 116.823 155.855L122.681 152.476C122.722 152.45 122.778 152.465 122.804 152.51C122.83 152.554 122.815 152.606 122.77 152.632L116.912 156.012C116.912 156.012 116.882 156.023 116.868 156.023Z" fill="#ADC8D8"/>
<path d="M116.868 156.797C116.838 156.797 116.808 156.782 116.789 156.752C116.763 156.708 116.778 156.655 116.823 156.629L122.681 153.25C122.722 153.224 122.778 153.239 122.804 153.284C122.83 153.328 122.815 153.38 122.77 153.406L116.912 156.786C116.912 156.786 116.882 156.797 116.868 156.797Z" fill="#ADC8D8"/>
<path d="M116.868 157.571C116.838 157.571 116.808 157.556 116.789 157.526C116.763 157.482 116.778 157.43 116.823 157.404L122.681 154.024C122.722 153.998 122.778 154.013 122.804 154.058C122.83 154.102 122.815 154.155 122.77 154.181L116.912 157.56C116.912 157.56 116.882 157.571 116.868 157.571Z" fill="#ADC8D8"/>
<path d="M116.868 158.345C116.838 158.345 116.808 158.33 116.789 158.3C116.763 158.256 116.778 158.204 116.823 158.178L122.681 154.798C122.722 154.772 122.778 154.787 122.804 154.832C122.83 154.876 122.815 154.929 122.77 154.955L116.912 158.334C116.912 158.334 116.882 158.345 116.868 158.345Z" fill="#ADC8D8"/>
</g>
<defs>
<filter id="filter0_f_5207_15117" x="-45.6335" y="-55.2568" width="350" height="350" filterUnits="userSpaceOnUse" color-interpolation-filters="sRGB">
<feFlood flood-opacity="0" result="BackgroundImageFix"/>
<feBlend mode="normal" in="SourceGraphic" in2="BackgroundImageFix" result="shape"/>
<feGaussianBlur stdDeviation="50" result="effect1_foregroundBlur_5207_15117"/>
</filter>
<linearGradient id="paint0_linear_5207_15117" x1="144.542" y1="178.17" x2="144.229" y2="98.6869" gradientUnits="userSpaceOnUse">
<stop stop-color="#ADC8D8"/>
<stop offset="1" stop-color="#DFEAF1"/>
</linearGradient>
<linearGradient id="paint1_linear_5207_15117" x1="161.216" y1="91.9736" x2="153.772" y2="177.941" gradientUnits="userSpaceOnUse">
<stop stop-color="#F6F9FA"/>
<stop offset="1" stop-color="#E3EDF2"/>
</linearGradient>
<linearGradient id="paint2_linear_5207_15117" x1="150.293" y1="79.2568" x2="149.74" y2="109.924" gradientUnits="userSpaceOnUse">
<stop stop-color="#F6F9FA"/>
<stop offset="1" stop-color="#E3EDF2"/>
</linearGradient>
<linearGradient id="paint3_linear_5207_15117" x1="161.771" y1="140.671" x2="160.508" y2="172.433" gradientUnits="userSpaceOnUse">
<stop stop-color="#F6F9FA"/>
<stop offset="1" stop-color="#E3EDF2"/>
</linearGradient>
<linearGradient id="paint4_linear_5207_15117" x1="161.771" y1="119.551" x2="160.508" y2="151.313" gradientUnits="userSpaceOnUse">
<stop stop-color="#F6F9FA"/>
<stop offset="1" stop-color="#E3EDF2"/>
</linearGradient>
<linearGradient id="paint5_linear_5207_15117" x1="180.122" y1="108.319" x2="182.575" y2="100.587" gradientUnits="userSpaceOnUse">
<stop stop-color="#E3EDF2"/>
<stop offset="1" stop-color="#DBE6EC"/>
</linearGradient>
<linearGradient id="paint6_linear_5207_15117" x1="161.091" y1="108.635" x2="153.62" y2="108.635" gradientUnits="userSpaceOnUse">
<stop stop-color="#ADC8D8"/>
<stop offset="1" stop-color="#DFEAF1"/>
</linearGradient>
<linearGradient id="paint7_linear_5207_15117" x1="161.091" y1="108.635" x2="153.62" y2="108.635" gradientUnits="userSpaceOnUse">
<stop stop-color="#ADC8D8"/>
<stop offset="1" stop-color="#DFEAF1"/>
</linearGradient>
<linearGradient id="paint8_linear_5207_15117" x1="163.462" y1="110.016" x2="155.99" y2="110.016" gradientUnits="userSpaceOnUse">
<stop stop-color="#ADC8D8"/>
<stop offset="1" stop-color="#DFEAF1"/>
</linearGradient>
<linearGradient id="paint9_linear_5207_15117" x1="163.462" y1="110.016" x2="155.99" y2="110.016" gradientUnits="userSpaceOnUse">
<stop stop-color="#ADC8D8"/>
<stop offset="1" stop-color="#DFEAF1"/>
</linearGradient>
<linearGradient id="paint10_linear_5207_15117" x1="165.833" y1="111.396" x2="158.361" y2="111.396" gradientUnits="userSpaceOnUse">
<stop stop-color="#ADC8D8"/>
<stop offset="1" stop-color="#DFEAF1"/>
</linearGradient>
<linearGradient id="paint11_linear_5207_15117" x1="168.203" y1="112.777" x2="160.732" y2="112.777" gradientUnits="userSpaceOnUse">
<stop stop-color="#ADC8D8"/>
<stop offset="1" stop-color="#DFEAF1"/>
</linearGradient>
<linearGradient id="paint12_linear_5207_15117" x1="183.465" y1="135.61" x2="183.422" y2="105.669" gradientUnits="userSpaceOnUse">
<stop stop-color="#ADC8D8"/>
<stop offset="1" stop-color="#DFEAF1"/>
</linearGradient>
<linearGradient id="paint13_linear_5207_15117" x1="162.531" y1="136.846" x2="162.49" y2="114.022" gradientUnits="userSpaceOnUse">
<stop stop-color="#ADC8D8"/>
<stop offset="1" stop-color="#DFEAF1"/>
</linearGradient>
<linearGradient id="paint14_linear_5207_15117" x1="175.452" y1="106.328" x2="174.189" y2="138.09" gradientUnits="userSpaceOnUse">
<stop stop-color="#F6F9FA"/>
<stop offset="1" stop-color="#E3EDF2"/>
</linearGradient>
<linearGradient id="paint15_linear_5207_15117" x1="162.176" y1="113.336" x2="187.82" y2="113.336" gradientUnits="userSpaceOnUse">
<stop stop-color="#ADC8D8"/>
<stop offset="1" stop-color="#DFEAF1"/>
</linearGradient>
<linearGradient id="paint16_linear_5207_15117" x1="119.878" y1="158.3" x2="118.707" y2="186.122" gradientUnits="userSpaceOnUse">
<stop stop-color="#F6F9FA"/>
<stop offset="1" stop-color="#E3EDF2"/>
</linearGradient>
<linearGradient id="paint17_linear_5207_15117" x1="108.416" y1="185.98" x2="108.378" y2="155.774" gradientUnits="userSpaceOnUse">
<stop stop-color="#ADC8D8"/>
<stop offset="1" stop-color="#DFEAF1"/>
</linearGradient>
<linearGradient id="paint18_linear_5207_15117" x1="120.618" y1="174.329" x2="126.398" y2="160.58" gradientUnits="userSpaceOnUse">
<stop stop-color="#E3EDF2"/>
<stop offset="1" stop-color="#DBE6EC"/>
</linearGradient>
<linearGradient id="paint19_linear_5207_15117" x1="108.394" y1="174.096" x2="108.379" y2="155.232" gradientUnits="userSpaceOnUse">
<stop stop-color="#ADC8D8"/>
<stop offset="1" stop-color="#DFEAF1"/>
</linearGradient>
<linearGradient id="paint20_linear_5207_15117" x1="119.878" y1="140.254" x2="118.707" y2="168.076" gradientUnits="userSpaceOnUse">
<stop stop-color="#F6F9FA"/>
<stop offset="1" stop-color="#E3EDF2"/>
</linearGradient>
<linearGradient id="paint21_linear_5207_15117" x1="108.416" y1="167.934" x2="108.378" y2="137.727" gradientUnits="userSpaceOnUse">
<stop stop-color="#ADC8D8"/>
<stop offset="1" stop-color="#DFEAF1"/>
</linearGradient>
<linearGradient id="paint22_linear_5207_15117" x1="106.971" y1="124.501" x2="106.473" y2="152.085" gradientUnits="userSpaceOnUse">
<stop stop-color="#F6F9FA"/>
<stop offset="1" stop-color="#E3EDF2"/>
</linearGradient>
<linearGradient id="paint23_linear_5207_15117" x1="120.618" y1="156.283" x2="126.398" y2="142.534" gradientUnits="userSpaceOnUse">
<stop stop-color="#E3EDF2"/>
<stop offset="1" stop-color="#DBE6EC"/>
</linearGradient>
<linearGradient id="paint24_linear_5207_15117" x1="108.394" y1="156.05" x2="108.379" y2="137.186" gradientUnits="userSpaceOnUse">
<stop stop-color="#ADC8D8"/>
<stop offset="1" stop-color="#DFEAF1"/>
</linearGradient>
</defs>
</svg>
