<svg width="120" height="120" viewBox="0 0 120 120" fill="none" xmlns="http://www.w3.org/2000/svg">
<path d="M108.474 43.9425L91.0555 50.4162C90.218 48.1653 88.0407 46.5654 85.5097 46.5654C85.3794 46.5654 85.2492 46.5654 85.1189 46.584C83.5184 46.6956 82.1041 47.4212 81.0991 48.5373C76.9305 44.8726 70.9009 39.5708 67.123 36.2968C71.1428 31.7391 76.8375 28.6883 83.2579 28.1116C84.0023 28.0372 84.7467 28 85.5097 28C96.0244 28 104.994 34.6225 108.474 43.9425Z" fill="#8BC158"/>
<path d="M110 52.5006C110 66.0247 99.0387 77.0002 85.4906 77.0002C80.0193 77.0002 74.976 75.2144 70.9004 72.1822L82.0664 57.3373C83.0341 58.0256 84.2065 58.4162 85.472 58.4162C88.7474 58.4162 91.39 55.756 91.39 52.5006C91.39 52.389 91.39 52.2773 91.39 52.1657C91.3528 51.5518 91.2225 50.9752 91.0178 50.4171L108.437 43.9434C109.274 46.2129 109.795 48.6312 109.926 51.1612C109.981 51.6076 110 52.0541 110 52.5006Z" fill="#9678D8"/>
<path d="M82.0851 57.3345L70.9191 72.1794C64.9081 67.7148 61 60.5528 61 52.4978C61 46.2845 63.3076 40.6107 67.1227 36.2949C70.8819 39.569 76.9301 44.8707 81.0988 48.5355C80.1497 49.5772 79.5728 50.9724 79.5728 52.4978C79.5728 54.4883 80.5591 56.2555 82.0851 57.3345Z" fill="#F36A83"/>
<path d="M85.1189 46.5837C83.5184 46.6954 82.1041 47.4209 81.0991 48.537C76.9305 44.8723 70.9009 39.5706 67.123 36.2965C71.1428 31.7388 76.8375 28.688 83.2579 28.1113L85.1189 46.5837Z" fill="#FACD5E"/>
<path d="M109.963 51.1612C105.72 51.403 97.0663 51.9053 91.4088 52.1657C91.3716 51.5518 91.2413 50.9752 91.0366 50.4171L108.456 43.9434C109.312 46.2129 109.833 48.6312 109.963 51.1612Z" fill="#79B0F2"/>
<circle cx="85.4999" cy="52.5004" r="13.3636" fill="white"/>
<path d="M33.6359 103.755H28.9559L27.9479 105.999H27.0239L30.8639 97.5993H31.7399L35.5799 105.999H34.6439L33.6359 103.755ZM33.3119 103.035L31.2959 98.5233L29.2799 103.035H33.3119Z" fill="black"/>
<path d="M43.9895 97.5993V105.999H43.2575L37.8575 99.1833V105.999H36.9695V97.5993H37.7015L43.1135 104.415V97.5993H43.9895Z" fill="black"/>
<path d="M51.9992 103.755H47.3192L46.3112 105.999H45.3872L49.2272 97.5993H50.1032L53.9432 105.999H53.0072L51.9992 103.755ZM51.6752 103.035L49.6592 98.5233L47.6432 103.035H51.6752Z" fill="black"/>
<path d="M55.3328 97.5993H56.2208V105.231H60.9248V105.999H55.3328V97.5993Z" fill="black"/>
<path d="M64.3886 103.095V105.999H63.5126V103.095L60.1526 97.5993H61.1006L63.9806 102.315L66.8606 97.5993H67.7486L64.3886 103.095Z" fill="black"/>
<path d="M70.6991 98.3673H67.7471V97.5993H74.5391V98.3673H71.5871V105.999H70.6991V98.3673Z" fill="black"/>
<path d="M75.9578 97.5993H76.8458V105.999H75.9578V97.5993Z" fill="black"/>
<path d="M83.2269 106.071C82.3949 106.071 81.6429 105.887 80.9709 105.519C80.3069 105.151 79.7829 104.643 79.3989 103.995C79.0229 103.339 78.8349 102.607 78.8349 101.799C78.8349 100.991 79.0229 100.263 79.3989 99.6153C79.7829 98.9593 80.3109 98.4473 80.9829 98.0793C81.6549 97.7113 82.4069 97.5273 83.2389 97.5273C83.8629 97.5273 84.4389 97.6313 84.9669 97.8393C85.4949 98.0473 85.9429 98.3513 86.3109 98.7513L85.7469 99.3153C85.0909 98.6513 84.2629 98.3193 83.2629 98.3193C82.5989 98.3193 81.9949 98.4713 81.4509 98.7753C80.9069 99.0793 80.4789 99.4953 80.1669 100.023C79.8629 100.551 79.7109 101.143 79.7109 101.799C79.7109 102.455 79.8629 103.047 80.1669 103.575C80.4789 104.103 80.9069 104.519 81.4509 104.823C81.9949 105.127 82.5989 105.279 83.2629 105.279C84.2709 105.279 85.0989 104.943 85.7469 104.271L86.3109 104.835C85.9429 105.235 85.4909 105.543 84.9549 105.759C84.4269 105.967 83.8509 106.071 83.2269 106.071Z" fill="black"/>
<path d="M90.473 106.071C89.849 106.071 89.249 105.971 88.673 105.771C88.105 105.571 87.665 105.307 87.353 104.979L87.701 104.295C88.005 104.599 88.409 104.847 88.913 105.039C89.417 105.223 89.937 105.315 90.473 105.315C91.225 105.315 91.789 105.179 92.165 104.907C92.541 104.627 92.729 104.267 92.729 103.827C92.729 103.491 92.625 103.223 92.417 103.023C92.217 102.823 91.969 102.671 91.673 102.567C91.377 102.455 90.965 102.335 90.437 102.207C89.805 102.047 89.301 101.895 88.925 101.751C88.549 101.599 88.225 101.371 87.953 101.067C87.689 100.763 87.557 100.351 87.557 99.8313C87.557 99.4073 87.669 99.0233 87.893 98.6793C88.117 98.3273 88.461 98.0473 88.925 97.8393C89.389 97.6313 89.965 97.5273 90.653 97.5273C91.133 97.5273 91.601 97.5953 92.057 97.7313C92.521 97.8593 92.921 98.0393 93.257 98.2713L92.957 98.9793C92.605 98.7473 92.229 98.5753 91.829 98.4633C91.429 98.3433 91.037 98.2833 90.653 98.2833C89.917 98.2833 89.361 98.4273 88.985 98.7153C88.617 98.9953 88.433 99.3593 88.433 99.8073C88.433 100.143 88.533 100.415 88.733 100.623C88.941 100.823 89.197 100.979 89.501 101.091C89.813 101.195 90.229 101.311 90.749 101.439C91.365 101.591 91.861 101.743 92.237 101.895C92.621 102.039 92.945 102.263 93.209 102.567C93.473 102.863 93.605 103.267 93.605 103.779C93.605 104.203 93.489 104.591 93.257 104.943C93.033 105.287 92.685 105.563 92.213 105.771C91.741 105.971 91.161 106.071 90.473 106.071Z" fill="black"/>
<rect x="23" y="75" width="34" height="9" rx="1.5" transform="rotate(-90 23 75)" stroke="#F4F4F4"/>
<rect x="36" y="75" width="12" height="9" rx="1.5" transform="rotate(-90 36 75)" stroke="#F4F4F4"/>
<rect x="10" y="75" width="45" height="9" rx="1.5" transform="rotate(-90 10 75)" fill="white" stroke="#F4F4F4"/>
<rect x="49" y="75" width="39" height="9" rx="1.5" transform="rotate(-90 49 75)" stroke="#F4F4F4"/>
<rect x="18" y="31" width="2" height="7" rx="1" transform="rotate(90 18 31)" fill="#9678D8"/>
<rect x="31" y="42" width="2" height="7" rx="1" transform="rotate(90 31 42)" fill="#8BC158"/>
<rect x="44" y="64" width="2" height="7" rx="1" transform="rotate(90 44 64)" fill="#FACD5E"/>
<rect x="57" y="37" width="2" height="7" rx="1" transform="rotate(90 57 37)" fill="#F36A83"/>
</svg>
