<svg width="120" height="120" viewBox="0 0 120 120" fill="none" xmlns="http://www.w3.org/2000/svg">
<path d="M42.5 23C31.1863 23 22 32.1863 22 43.5C22 54.8137 31.1863 64 42.5 64C53.8137 64 63 54.8137 63 43.5C63 32.2186 53.7815 23 42.5 23ZM39.4701 48.7539C40.2437 49.4953 41.1785 50.2689 42.2421 50.43C42.2744 50.4623 42.3066 50.4623 42.3711 50.4623C42.4033 50.4623 42.4355 50.4623 42.5 50.4623C42.5322 50.4623 42.5645 50.4623 42.6289 50.4623C42.6934 50.4623 42.7256 50.4623 42.7579 50.43C43.8216 50.2689 44.7563 49.5275 45.5299 48.7539C45.5621 49.9143 45.7555 51.0747 45.7555 52.2351C45.7233 53.8467 44.1761 55.2649 42.5322 55.3294C40.8884 55.2649 39.309 53.8467 39.309 52.2351C39.2445 51.0747 39.4379 49.9143 39.4701 48.7539ZM36.7304 44.1124C36.0535 42.8553 36.0535 41.6627 36.1502 40.2767C36.2146 38.9552 36.2791 37.6659 36.3758 36.3766C36.5692 36.3766 36.7948 36.3443 37.0204 36.2799C37.3428 36.1509 37.5039 35.8931 37.5684 35.603C37.923 35.8286 38.4065 35.8931 38.7932 35.7319C38.8899 35.6997 38.9544 35.603 39.0189 35.4741C39.5991 36.441 40.6627 36.8601 41.8554 36.7634C42.4678 36.7311 43.2414 36.1187 43.6926 35.4418C43.8216 35.6352 44.0472 35.7964 44.3373 35.9253C44.7885 36.1187 45.2398 36.0542 45.6266 35.8608C45.7877 36.1187 46.0456 36.3443 46.4002 36.5377C47.206 36.9245 47.8829 36.9245 48.592 36.6022C48.6887 37.827 48.7209 39.0519 48.7854 40.309C48.8499 41.695 48.8821 42.8876 48.2052 44.1447C47.4639 45.4984 46.787 46.82 45.6266 47.8836C44.7241 48.7217 43.7571 49.8498 42.4355 49.9465C41.1462 49.8498 40.147 48.7217 39.2445 47.8836C38.1486 46.7877 37.4717 45.4984 36.7304 44.1124ZM56.1667 57.3601C55.6187 56.3931 55.0708 55.3939 54.6195 54.3947C53.9426 52.8797 52.5244 52.8152 51.0417 52.3962C49.3978 51.9127 47.7862 51.2681 46.1745 50.7524C46.1745 50.7524 46.1745 50.7524 46.1423 50.7524C46.0456 49.9143 45.9811 49.1085 46.0134 48.2704V48.2382C46.9481 47.2712 47.7217 46.3042 48.3341 45.0794C48.6242 44.467 48.9788 43.8868 49.2044 43.2744C49.2044 43.2421 49.2044 43.2421 49.2044 43.2099C50.5904 43.4678 50.2036 41.0503 50.526 40.309C50.6871 39.9222 50.7516 39.5998 50.7194 39.3098C52.2665 39.5354 52.8467 36.989 51.7508 36.1509C52.2665 35.7641 52.6533 35.0228 52.5889 34.4748C52.4599 33.25 52.0087 32.3797 50.8161 31.8962C51.0095 31.6384 51.0739 31.316 50.945 30.9615C50.7516 30.4135 50.2681 30.0912 49.7524 30.0912C49.8813 29.4465 49.7846 28.7374 49.4945 28.3829C48.8499 27.6415 47.625 27.0613 46.6903 27.4803C46.6258 27.2547 46.5291 27.0613 46.4002 26.9324C46.1423 26.6745 45.7233 26.6745 45.3687 26.8357C45.2076 26.3844 44.8852 25.9976 44.434 25.8687C44.1439 25.8042 43.7893 25.8365 43.467 25.9332C43.0157 25.5786 42.3066 25.7075 41.8554 26.0621C41.4686 25.8365 40.9851 25.7398 40.6305 25.8687C40.1793 25.9976 39.8247 26.3844 39.6958 26.8357C39.3412 26.7068 38.9222 26.6745 38.6643 26.9324C38.5354 27.0613 38.4387 27.2547 38.3742 27.4803C37.4395 27.0291 36.1824 27.6093 35.57 28.3829C35.2799 28.7374 35.1832 29.4465 35.3121 30.0912C34.7642 30.0912 34.2807 30.4135 34.1195 30.9615C33.9906 31.316 34.0873 31.6384 34.2484 31.8962C33.0558 32.3475 32.6046 33.2178 32.4756 34.4748C32.4112 35.0228 32.798 35.7641 33.3137 36.1509C32.1855 36.989 32.7657 39.5354 34.3451 39.3098C34.3129 39.5998 34.3774 39.9544 34.5385 40.309C34.8609 41.0181 34.5063 43.4033 35.8278 43.2099V43.2421C36.0535 43.8868 36.408 44.467 36.6981 45.0472C37.3428 46.3042 38.1164 47.239 39.0189 48.206V48.2382C39.0511 49.0763 38.9866 49.8821 38.8899 50.7201H38.8577C37.2138 51.2036 35.6344 51.8805 33.9906 52.364C32.5079 52.783 31.0896 52.8475 30.4127 54.3624C29.9615 55.3616 29.4135 56.3609 28.8656 57.3278C25.2877 53.7822 23.0959 48.8829 23.0959 43.5C23.0959 32.7665 31.831 24.0314 42.5645 24.0314C53.298 24.0314 62.033 32.7665 62.033 43.5C61.9686 48.9151 59.7445 53.8145 56.1667 57.3601ZM49.3656 40.9858C49.3333 40.2767 49.3011 39.5676 49.2689 38.8585C50.2036 38.6973 50.2681 39.6643 49.978 40.3412C49.9135 40.4701 49.8813 40.5991 49.8491 40.7602C49.8168 41.0503 49.8813 42.6942 49.3333 42.7264C49.43 42.1462 49.3978 41.566 49.3656 40.9858ZM35.6344 42.6942C35.1187 42.5975 35.1832 41.0503 35.151 40.7602C35.151 40.6313 35.0865 40.4701 35.022 40.3412C34.7319 39.6965 34.7964 38.7296 35.6989 38.8585C35.6667 39.5676 35.6344 40.2767 35.6022 40.9858C35.57 41.566 35.5377 42.114 35.6344 42.6942Z" fill="#DFDFDF"/>
<path d="M43.821 46.8519C44.0466 46.7552 44.2723 46.6585 44.3689 46.4973C44.4656 46.3362 44.5301 46.2073 44.5623 46.0461C44.5946 46.0139 44.5946 45.9816 44.5946 45.9494C44.6268 45.9172 44.659 45.8849 44.659 45.8205C44.659 45.5948 44.5946 45.337 44.2722 45.2403C43.9822 45.1436 43.7243 45.0469 43.3697 45.0469C42.9829 45.0469 42.6928 45.208 42.4672 45.4014C42.2738 45.208 41.9837 45.0469 41.5647 45.0469C41.2101 45.0469 40.9523 45.1113 40.6622 45.2403C40.3399 45.3692 40.2754 45.6271 40.2754 45.8205C40.2754 45.8849 40.3076 45.9172 40.3399 45.9494C40.3399 45.9816 40.3399 46.0139 40.3721 46.0461C40.4043 46.2073 40.4688 46.3684 40.5655 46.4973C40.6622 46.6585 40.8878 46.7552 41.1134 46.8519C41.468 46.9808 42.016 47.0453 42.435 46.9808C42.8862 47.0453 43.4664 46.9808 43.821 46.8519Z" fill="#DFDFDF"/>
<rect x="67" y="36" width="33" height="6" rx="3" fill="#C8C8C8"/>
<rect x="67" y="45" width="24" height="6" rx="3" fill="#DFDFDF"/>
<path d="M22 25.8621C22 24.8337 22.8059 24 23.8 24H32.2C33.1941 24 34 24.8337 34 25.8621V32.069C34 33.0974 33.1941 33.931 32.2 33.931H30.7C30.1334 33.931 29.5999 34.207 29.26 34.6759L28.48 35.7517C28.24 36.0828 27.76 36.0828 27.52 35.7517L26.74 34.6759C26.4001 34.207 25.8666 33.931 25.3 33.931H23.8C22.8059 33.931 22 33.0974 22 32.069V25.8621Z" fill="#6B89F6"/>
<path d="M62.9949 60.056C62.9538 59.6223 62.6691 59.1949 62.1246 58.7492C61.4839 58.2248 60.9892 57.9708 60.5679 57.9498C60.0417 57.9236 59.7249 58.2495 59.3895 58.5946C59.3552 58.6298 59.3205 58.6656 59.2848 58.7018C59.2642 58.7226 59.2307 58.7461 59.154 58.7423C58.9308 58.7312 58.3441 58.5009 56.9224 57.0841C56.3059 56.4693 55.8517 55.9495 55.5725 55.5391C55.2949 55.1313 55.1908 54.8257 55.294 54.7214C55.3294 54.6855 55.3646 54.6504 55.3992 54.616C55.7038 54.3126 55.9916 54.026 56.0293 53.5889C56.0695 53.1247 55.8208 52.5943 55.2232 51.8692C54.761 51.3075 54.3198 51.0236 53.8742 51.0014C53.2695 50.9712 52.827 51.4456 52.4715 51.8266C52.4089 51.8938 52.3497 51.9573 52.292 52.0158C51.8616 52.4509 51.9094 53.433 52.4195 54.6427C52.9722 55.9531 54.0013 57.3975 55.3174 58.7099C57.6597 61.045 59.8243 61.94 60.9662 61.9969C61.4278 62.0198 61.7858 61.9164 62.0017 61.6977C62.06 61.6386 62.1229 61.5782 62.1895 61.5143C62.5749 61.1447 63.0546 60.6847 62.9949 60.056Z" fill="#2BA329"/>
<path d="M50.516 94.096C49.876 94.096 49.284 93.992 48.74 93.784C48.204 93.568 47.736 93.268 47.336 92.884C46.944 92.492 46.636 92.036 46.412 91.516C46.188 90.996 46.076 90.424 46.076 89.8C46.076 89.176 46.188 88.604 46.412 88.084C46.636 87.564 46.948 87.112 47.348 86.728C47.748 86.336 48.216 86.036 48.752 85.828C49.296 85.612 49.888 85.504 50.528 85.504C51.176 85.504 51.772 85.616 52.316 85.84C52.868 86.056 53.336 86.38 53.72 86.812L52.94 87.568C52.62 87.232 52.26 86.984 51.86 86.824C51.46 86.656 51.032 86.572 50.576 86.572C50.104 86.572 49.664 86.652 49.256 86.812C48.856 86.972 48.508 87.196 48.212 87.484C47.916 87.772 47.684 88.116 47.516 88.516C47.356 88.908 47.276 89.336 47.276 89.8C47.276 90.264 47.356 90.696 47.516 91.096C47.684 91.488 47.916 91.828 48.212 92.116C48.508 92.404 48.856 92.628 49.256 92.788C49.664 92.948 50.104 93.028 50.576 93.028C51.032 93.028 51.46 92.948 51.86 92.788C52.26 92.62 52.62 92.364 52.94 92.02L53.72 92.776C53.336 93.208 52.868 93.536 52.316 93.76C51.772 93.984 51.172 94.096 50.516 94.096ZM55.4319 94V85.6H58.7079C59.4439 85.6 60.0719 85.716 60.5919 85.948C61.1119 86.18 61.5119 86.516 61.7919 86.956C62.0719 87.396 62.2119 87.92 62.2119 88.528C62.2119 89.136 62.0719 89.66 61.7919 90.1C61.5119 90.532 61.1119 90.864 60.5919 91.096C60.0719 91.328 59.4439 91.444 58.7079 91.444H56.0919L56.6319 90.892V94H55.4319ZM61.0479 94L58.9119 90.952H60.1959L62.3559 94H61.0479ZM56.6319 91.012L56.0919 90.424H58.6719C59.4399 90.424 60.0199 90.26 60.4119 89.932C60.8119 89.596 61.0119 89.128 61.0119 88.528C61.0119 87.928 60.8119 87.464 60.4119 87.136C60.0199 86.808 59.4399 86.644 58.6719 86.644H56.0919L56.6319 86.044V91.012ZM64.1506 94V85.6H65.1346L68.9026 91.948H68.3746L72.0946 85.6H73.0786L73.0906 94H71.9386L71.9266 87.412H72.2026L68.8906 92.98H68.3386L65.0026 87.412H65.3026V94H64.1506Z" fill="#394056"/>
</svg>
