<svg width="88" height="24" viewBox="0 0 88 24" fill="none" xmlns="http://www.w3.org/2000/svg">
    <path d="M65.7546 2.12487C65.7908 2.04845 65.8652 2 65.9466 2C66.028 2 66.1025 2.04845 66.1386 2.12487L66.8271 3.58517C66.8582 3.65123 66.9186 3.69705 66.9884 3.70766L68.5282 3.94179C68.609 3.95402 68.6758 4.01321 68.7009 4.09425C68.7261 4.17529 68.7051 4.26444 68.6468 4.32388L67.5327 5.46066C67.4822 5.5121 67.4592 5.58627 67.471 5.65894L67.7339 7.26409C67.7476 7.34825 67.7147 7.43316 67.6486 7.48336C67.5827 7.5333 67.4955 7.53992 67.4232 7.50046L66.0459 6.74253C65.9836 6.70819 65.909 6.70819 65.8466 6.74253L64.4693 7.50034C64.3972 7.53992 64.3098 7.53343 64.2438 7.48336C64.1778 7.43329 64.1449 7.34825 64.1586 7.26409L64.4216 5.65894C64.4335 5.58627 64.4104 5.5121 64.3599 5.46066L63.2458 4.32388C63.1875 4.26432 63.1665 4.17529 63.1916 4.09425C63.2168 4.01321 63.2837 3.95402 63.3645 3.94179L64.9045 3.70766C64.9742 3.69705 65.0346 3.65123 65.0657 3.58505L65.7546 2.12487Z"
          fill="#FAB404"/>
    <path d="M15.7621 18.27H8.39576L7.02702 21.6519H2L9.68985 4.24487H14.5427L22.2574 21.6519H17.1308L15.7621 18.27ZM14.3187 14.6394L12.0789 9.06911L9.83916 14.6394H14.3187Z"
          fill="#313749"/>
    <path d="M31.328 22.0001C28.7399 22.0001 26.7241 21.2955 25.2807 19.8863C23.8539 18.4772 23.1405 16.4795 23.1405 13.8933V4.24487H28.0679V13.7441C28.0679 16.5293 29.1712 17.9218 31.3778 17.9218C33.5678 17.9218 34.6628 16.5293 34.6628 13.7441V4.24487H39.5156V13.8933C39.5156 16.4795 38.7939 18.4772 37.3505 19.8863C35.9237 21.2955 33.9162 22.0001 31.328 22.0001Z"
          fill="#313749"/>
    <path d="M42.8537 4.24487H51.091C52.999 4.24487 54.6912 4.6013 56.1678 5.31416C57.6444 6.02702 58.7892 7.03829 59.6021 8.34796C60.4151 9.65763 60.8215 11.1911 60.8215 12.9484C60.8215 14.7057 60.4151 16.2392 59.6021 17.5488C58.7892 18.8585 57.6444 19.8698 56.1678 20.5826C54.6912 21.2955 52.999 21.6519 51.091 21.6519H42.8537V4.24487ZM50.8919 17.7229C52.3851 17.7229 53.5796 17.3002 54.4755 16.4547C55.388 15.6092 55.8443 14.4404 55.8443 12.9484C55.8443 11.4564 55.388 10.2876 54.4755 9.44212C53.5796 8.59663 52.3851 8.17389 50.8919 8.17389H47.7811V17.7229H50.8919Z"
          fill="#313749"/>
    <path d="M75.7469 8.14902H70.3963V4.24487H86V8.14902H80.6743V21.6519H75.7469V8.14902Z" fill="#313749"/>
    <path d="M63.3584 9.38232H68.2859V21.6517H63.3584V9.38232Z" fill="#FAB404"/>
</svg>
