<svg width="175" height="24" viewBox="0 0 175 24" fill="none" xmlns="http://www.w3.org/2000/svg">
<path d="M45.7178 2.53621V21.4104H40.4529L32.8701 12.6293V21.4104H26.6118V2.53621H31.8767L39.4595 11.4373V2.53621H45.7178Z" fill="#313749"/>
<path d="M63.1691 18.0329H54.9572L53.5665 21.4104H47.4407L55.9506 2.53621H62.242L70.7519 21.4104H64.5268L63.1691 18.0329ZM61.3811 13.7552L59.0963 7.99358L56.7453 13.7552H61.3811Z" fill="#313749"/>
<path d="M72.465 2.53621H78.8557V16.5759H87.7299V21.4104H72.465V2.53621Z" fill="#313749"/>
<path d="M99.0515 15.1459V21.4104H92.6608V15.1459L84.9787 2.53621H91.7337L96.0383 9.58298L100.343 2.53621H106.734L99.0515 15.1459Z" fill="#313749"/>
<path d="M111.42 7.2651H105.659V2.53621H123.573V7.2651H117.811V21.4104H111.42V7.2651Z" fill="#313749"/>
<path d="M125.82 2.53621H132.211V21.4104H125.82V2.53621Z" fill="#313749"/>
<path d="M163.579 22C162.012 22 160.467 21.8234 158.943 21.4702C157.42 21.0949 156.173 20.6093 155.202 20.0132L157.321 15.4106C158.248 15.9845 159.285 16.4371 160.433 16.7682C161.581 17.0773 162.74 17.2318 163.91 17.2318C164.771 17.2318 165.4 17.1324 165.798 16.9338C166.195 16.713 166.394 16.426 166.394 16.0728C166.394 15.6534 166.129 15.3444 165.599 15.1457C165.069 14.9249 164.197 14.6821 162.983 14.4172C161.504 14.1302 160.268 13.8102 159.274 13.457C158.281 13.1038 157.409 12.5188 156.659 11.702C155.93 10.8852 155.566 9.78146 155.566 8.39073C155.566 7.1766 155.93 6.08389 156.659 5.11258C157.387 4.14128 158.436 3.37969 159.804 2.82781C161.195 2.27594 162.818 2 164.672 2C165.996 2 167.288 2.14349 168.546 2.43046C169.804 2.69536 170.908 3.10375 171.857 3.65563L169.904 8.25828C168.27 7.2649 166.449 6.76821 164.44 6.76821C163.579 6.76821 162.928 6.88962 162.486 7.13245C162.067 7.37528 161.857 7.68433 161.857 8.0596C161.857 8.45695 162.122 8.766 162.652 8.98676C163.182 9.18543 164.043 9.39514 165.235 9.61589C166.714 9.90287 167.95 10.223 168.943 10.5762C169.959 10.9294 170.831 11.5033 171.559 12.298C172.31 13.0927 172.685 14.1744 172.685 15.543C172.685 16.7792 172.332 17.883 171.625 18.8543C170.941 19.8256 169.904 20.5982 168.513 21.1722C167.144 21.7241 165.5 22 163.579 22Z" fill="#313749"/>
<path d="M17.9562 18.2975H9.74428L8.1257 21.4101H1.99987L10.7377 2.53589H17.0291L25.3111 21.4101H19.086L17.9562 18.2975ZM16.1681 13.8604L13.8834 8.0988L11.5324 13.8604H16.1681Z" fill="#313749"/>
<path d="M141.433 8.83701C140.692 9.66993 140.243 10.7668 140.243 11.9688C140.243 13.5354 141.007 14.9237 142.182 15.7814L139.346 19.5541C137.031 17.8344 135.526 15.0756 135.526 11.9729C135.526 9.57961 136.415 7.39411 137.884 5.73169C138.837 6.5624 140.173 7.73198 141.433 8.83701Z" fill="#F65855"/>
<path d="M149.471 13.3462C148.882 15.2791 147.085 16.6852 144.959 16.6852C143.919 16.6852 142.957 16.3485 142.178 15.778L139.338 19.5541C140.908 20.7221 142.85 21.41 144.956 21.41C149.071 21.41 152.566 18.7793 153.859 15.1112L149.471 13.3462Z" fill="#D93DF5"/>
<path d="M149.38 10.3222L153.806 8.6768C152.466 5.08684 149.012 2.53589 144.963 2.53589C144.67 2.53589 144.383 2.55022 144.096 2.57888C141.624 2.80102 139.432 3.97617 137.884 5.73174C138.842 6.56224 140.176 7.73145 141.433 8.83624C142.297 7.86453 143.557 7.25237 144.959 7.25237C146.985 7.25237 148.712 8.52933 149.38 10.3222Z" fill="#169C18"/>
</svg>
