<svg width="186" height="24" viewBox="0 0 186 24" fill="none" xmlns="http://www.w3.org/2000/svg">
    <path d="M31.932 2.36384L26.034 20.5561H20.5256L17.044 9.48481L13.4064 20.5561H7.89806L2 2.36384H7.30046L10.964 13.9809L14.8095 2.36384H19.5383L23.2018 14.0849L27.0213 2.36384H31.932Z"
          fill="#313749"/>
    <path d="M64.7908 15.7222H61.9846V20.5561H56.8401V2.36384H65.1545C66.8001 2.36384 68.2291 2.64106 69.4417 3.19549C70.6542 3.7326 71.5896 4.51226 72.2478 5.5345C72.906 6.5394 73.2351 7.72623 73.2351 9.09498C73.2351 10.4118 72.9233 11.5639 72.2997 12.5515C71.6935 13.5218 70.8187 14.2841 69.6755 14.8385L73.5989 20.5561H68.0906L64.7908 15.7222ZM68.0386 9.09498C68.0386 8.24601 67.7701 7.58762 67.2331 7.11982C66.6961 6.65202 65.8993 6.41812 64.8427 6.41812H61.9846V11.7458H64.8427C65.8993 11.7458 66.6961 11.5206 67.2331 11.0701C67.7701 10.6023 68.0386 9.94395 68.0386 9.09498Z"
          fill="#313749"/>
    <path d="M83.0886 13.9549L81.1659 16.008V20.5561H76.0733V2.36384H81.1659V9.92662L88.2072 2.36384H93.8714L86.4404 10.4204L94.2612 20.5561H88.2852L83.0886 13.9549Z"
          fill="#313749"/>
    <path d="M101.622 20.9199C100.15 20.9199 98.7208 20.738 97.335 20.3742C95.9493 20.0103 94.8234 19.5252 93.9573 18.9188L95.6462 15.1244C96.4603 15.6615 97.4043 16.0947 98.4783 16.4239C99.5522 16.7531 100.609 16.9176 101.648 16.9176C103.623 16.9176 104.61 16.4239 104.61 15.4363C104.61 14.9165 104.324 14.5353 103.753 14.2928C103.198 14.0329 102.298 13.7643 101.051 13.4871C99.6821 13.1926 98.5389 12.8807 97.6209 12.5515C96.7028 12.205 95.9147 11.6592 95.2564 10.9142C94.5982 10.1692 94.2691 9.16428 94.2691 7.89949C94.2691 6.79063 94.5722 5.79438 95.1785 4.91076C95.7847 4.00981 96.6855 3.29945 97.8807 2.77967C99.0932 2.25989 100.574 2 102.324 2C103.519 2 104.697 2.13861 105.857 2.41582C107.018 2.67571 108.04 3.06555 108.923 3.58532L107.338 7.4057C105.606 6.4701 103.926 6.0023 102.298 6.0023C101.276 6.0023 100.531 6.15823 100.063 6.4701C99.5955 6.76464 99.3617 7.15447 99.3617 7.6396C99.3617 8.12473 99.6388 8.48857 100.193 8.73113C100.747 8.9737 101.64 9.22492 102.869 9.48481C104.255 9.77935 105.398 10.0999 106.299 10.4464C107.217 10.7756 108.005 11.3127 108.663 12.0577C109.339 12.7854 109.677 13.7816 109.677 15.0464C109.677 16.138 109.374 17.1256 108.767 18.0092C108.161 18.8928 107.252 19.6032 106.039 20.1403C104.827 20.6601 103.354 20.9199 101.622 20.9199Z"
          fill="#313749"/>
    <path d="M120.368 2.36384C122.013 2.36384 123.442 2.64106 124.655 3.19549C125.867 3.7326 126.803 4.51226 127.461 5.5345C128.119 6.5394 128.448 7.72623 128.448 9.09498C128.448 10.4637 128.119 11.6506 127.461 12.6555C126.803 13.6604 125.867 14.44 124.655 14.9945C123.442 15.5316 122.013 15.8001 120.368 15.8001H117.198V20.5561H112.053V2.36384H120.368ZM120.056 11.7458C121.112 11.7458 121.909 11.5206 122.446 11.0701C122.983 10.6023 123.252 9.94395 123.252 9.09498C123.252 8.24601 122.983 7.58762 122.446 7.11982C121.909 6.65202 121.112 6.41812 120.056 6.41812H117.198V11.7458H120.056Z"
          fill="#313749"/>
    <path d="M142.229 17.0216H134.538L133.109 20.5561H127.861L135.889 2.36384H140.956L149.01 20.5561H143.658L142.229 17.0216ZM140.722 13.2272L138.384 7.4057L136.045 13.2272H140.722Z"
          fill="#313749"/>
    <path d="M159.283 20.9199C157.378 20.9199 155.663 20.5214 154.139 19.7245C152.632 18.9101 151.445 17.7839 150.579 16.3459C149.713 14.9078 149.28 13.2792 149.28 11.46C149.28 9.64075 149.713 8.01211 150.579 6.57405C151.445 5.136 152.632 4.01847 154.139 3.22148C155.663 2.40716 157.378 2 159.283 2C160.946 2 162.444 2.29454 163.778 2.88362C165.112 3.47271 166.221 4.32168 167.104 5.43054L163.83 8.39328C162.652 6.97255 161.223 6.26219 159.543 6.26219C158.556 6.26219 157.672 6.47876 156.893 6.91191C156.131 7.34506 155.533 7.96013 155.1 8.75712C154.684 9.53679 154.476 10.4377 154.476 11.46C154.476 12.4822 154.684 13.3918 155.1 14.1888C155.533 14.9685 156.131 15.5749 156.893 16.008C157.672 16.4412 158.556 16.6578 159.543 16.6578C161.223 16.6578 162.652 15.9474 163.83 14.5267L167.104 17.4894C166.221 18.5983 165.112 19.4472 163.778 20.0363C162.444 20.6254 160.946 20.9199 159.283 20.9199Z"
          fill="#313749"/>
    <path d="M184 16.5798V20.5561H169.398V2.36384H183.662V6.34015H174.49V9.40685H182.571V13.2532H174.49V16.5798H184Z"
          fill="#313749"/>
    <path d="M52.106 11.5322C52.106 16.516 48.0668 20.5562 43.0843 20.5562C38.1017 20.5562 34.0625 16.516 34.0625 11.5322C34.0625 6.54845 38.1017 2.5083 43.0843 2.5083C48.0668 2.5083 52.106 6.54845 52.106 11.5322Z"
          fill="#169C18"/>
    <path d="M35.5057 19.8342C35.5057 21.0303 34.5363 21.9999 33.3405 21.9999C32.1447 21.9999 31.1753 21.0303 31.1753 19.8342C31.1753 18.6381 32.1447 17.6685 33.3405 17.6685C34.5363 17.6685 35.5057 18.6381 35.5057 19.8342Z"
          fill="#F65855"/>
</svg>
