<svg width="117" height="24" viewBox="0 0 117 24" fill="none" xmlns="http://www.w3.org/2000/svg">
<path fill-rule="evenodd" clip-rule="evenodd" d="M15.2457 5.22555C15.5926 5.25714 15.9962 5.43335 16.2989 5.56551L14.7045 9.19308C14.6333 9.16197 14.5863 9.14153 14.5437 9.12368C13.6356 8.96158 12.8284 8.49252 12.2426 7.81918C11.9605 8.32111 11.4383 9.04414 10.5596 9.56884C10.3402 9.79839 10.094 10.001 9.82598 10.1721C9.50443 10.3775 8.95304 10.7004 8.21696 10.897C8.12635 10.9212 8.03598 10.9428 7.9459 10.9617C7.99591 11.0479 8.03902 11.128 8.07584 11.1998C8.39474 11.8221 8.55257 12.4307 8.63334 12.8857C8.67624 13.1273 8.69647 13.3722 8.6939 13.6171C8.70511 13.7053 8.72374 13.8609 8.7356 14.0304C8.74299 14.136 8.74868 14.2565 8.74964 14.3896C8.801 15.0702 8.71083 15.6941 8.53224 16.2516C9.11636 16.2329 9.7049 16.3426 10.2542 16.5824C10.5283 16.702 10.7518 16.8266 10.9064 16.9179C11.0299 16.9908 11.1548 17.0701 11.2135 17.1074C11.217 17.1096 11.2203 17.1117 11.2233 17.1136L9.62462 20.751C9.40833 20.6566 9.2337 20.5459 9.07161 20.4432C8.93124 20.3543 8.80027 20.2713 8.65978 20.2099L6.45151 21.4034C6.0162 21.5729 5.36657 21.4092 5.05136 21.0318L3.03416 18.2333C2.71894 17.856 2.73814 17.2651 3.16095 16.8503L4.47358 15.5056C4.70709 15.2479 4.83969 14.9462 4.77048 14.5564C4.78633 14.3836 4.76591 14.2248 4.74548 14.0661C4.72505 13.9073 4.70462 13.7486 4.72047 13.5757C4.65127 13.1859 4.48116 12.752 4.17844 12.6199L2.55148 11.6699C2.09116 11.349 1.86434 10.7706 2.08535 10.2677L3.45557 7.15017C3.67657 6.64734 4.25699 6.42128 4.80571 6.54098L6.60948 7.08874C7.0573 7.16439 7.34751 7.05136 7.68192 6.83777C7.91542 6.58012 8.14893 6.32247 8.43914 6.20945C8.72935 6.09642 8.90615 5.69415 8.93785 5.3484L9.03964 3.47503C9.01463 2.98466 9.48164 2.46936 9.97366 2.44444L13.4053 2.0248C13.9415 1.89931 14.5027 2.2642 14.6286 2.79862L15.2457 5.22555Z" fill="#FAB404"/>
<path d="M26.0993 18.122H17.6307L16.0571 21.9999H10.2778L19.1184 2.03979H24.6974L33.5666 21.9999H27.6729L26.0993 18.122ZM24.4399 13.9588L21.865 7.5716L19.2901 13.9588H24.4399Z" fill="#313749"/>
<path d="M35.1726 2.03979H44.6426C46.836 2.03979 48.7815 2.4485 50.4791 3.26592C52.1766 4.08333 53.4927 5.24292 54.4273 6.74468C55.3619 8.24644 55.8292 10.0048 55.8292 12.0199C55.8292 14.0349 55.3619 15.7933 54.4273 17.295C53.4927 18.7968 52.1766 19.9564 50.4791 20.7738C48.7815 21.5912 46.836 21.9999 44.6426 21.9999H35.1726V2.03979ZM44.4137 17.4946C46.1303 17.4946 47.5036 17.0099 48.5336 16.0404C49.5826 15.0709 50.1071 13.7307 50.1071 12.0199C50.1071 10.309 49.5826 8.96881 48.5336 7.99932C47.5036 7.02983 46.1303 6.54508 44.4137 6.54508H40.8374V17.4946H44.4137Z" fill="#313749"/>
<path d="M76.8912 21.9999L76.834 11.4211L71.6842 20.0324H69.1665L64.0452 11.7062V21.9999H58.8096V2.03979H63.473L70.5112 13.5596L77.3776 2.03979H82.0411L82.0983 21.9999H76.8912Z" fill="#313749"/>
<path d="M86.1067 2.03979H91.7715V21.9999H86.1067V2.03979Z" fill="#313749"/>
<path d="M114.856 2.03979V21.9999H110.193L101.352 11.364V21.9999H95.8017V2.03979H100.465L109.306 12.6757V2.03979H114.856Z" fill="#313749"/>
</svg>
