<svg width="136" height="24" viewBox="0 0 136 24" fill="none" xmlns="http://www.w3.org/2000/svg">
    <path d="M20.2572 2.38452V21.6153H14.8293V14.1153H7.4278V21.6153H2V2.38452H7.4278V9.6098H14.8293V2.38452H20.2572Z"
          fill="#313749"/>
    <path d="M45.2949 22C43.7415 22 42.2337 21.8077 40.7717 21.4231C39.3097 21.0385 38.1218 20.5256 37.208 19.8846L38.9899 15.8736C39.8488 16.4414 40.8448 16.8993 41.9779 17.2473C43.111 17.5952 44.2258 17.7692 45.3223 17.7692C47.4057 17.7692 48.4474 17.2473 48.4474 16.2033C48.4474 15.6538 48.1458 15.2509 47.5428 14.9945C46.9579 14.7198 46.0076 14.4359 44.6918 14.1429C43.248 13.8315 42.0419 13.5018 41.0733 13.1538C40.1047 12.7875 39.2731 12.2106 38.5787 11.4231C37.8842 10.6355 37.537 9.57326 37.537 8.23626C37.537 7.0641 37.8568 6.01099 38.4964 5.07692C39.1361 4.12454 40.0864 3.37363 41.3474 2.82418C42.6267 2.27473 44.1892 2 46.035 2C47.296 2 48.5388 2.14652 49.7632 2.43956C50.9877 2.71429 52.0659 3.12637 52.998 3.67582L51.3258 7.71429C49.4982 6.72527 47.7255 6.23077 46.0076 6.23077C44.9294 6.23077 44.1435 6.3956 43.6501 6.72527C43.1567 7.03663 42.9099 7.44872 42.9099 7.96154C42.9099 8.47436 43.2023 8.85897 43.7872 9.11538C44.372 9.3718 45.3132 9.63736 46.6107 9.91209C48.0727 10.2234 49.2789 10.5623 50.2292 10.9286C51.1978 11.2766 52.0294 11.8443 52.7238 12.6319C53.4366 13.4011 53.793 14.4542 53.793 15.7912C53.793 16.9451 53.4731 17.989 52.8335 18.9231C52.1939 19.8571 51.2344 20.6081 49.9551 21.1758C48.6758 21.7253 47.1224 22 45.2949 22Z"
          fill="#313749"/>
    <path d="M60.117 6.6978H54.2232V2.38462H71.4112V6.6978H65.5448V21.6154H60.117V6.6978Z" fill="#313749"/>
    <path d="M82.8425 22C80.814 22 78.9864 21.5696 77.3599 20.7088C75.7517 19.848 74.4815 18.6575 73.5495 17.1374C72.6357 15.6172 72.1788 13.9048 72.1788 12C72.1788 10.0952 72.6357 8.38278 73.5495 6.86264C74.4815 5.34249 75.7517 4.15202 77.3599 3.29121C78.9864 2.4304 80.814 2 82.8425 2C84.8711 2 86.6895 2.4304 88.2977 3.29121C89.9243 4.15202 91.1944 5.34249 92.1082 6.86264C93.0402 8.38278 93.5062 10.0952 93.5062 12C93.5062 13.9048 93.0402 15.6172 92.1082 17.1374C91.1944 18.6575 89.9243 19.848 88.2977 20.7088C86.6895 21.5696 84.8711 22 82.8425 22ZM82.8425 17.4945C83.8111 17.4945 84.6883 17.2656 85.4742 16.8077C86.26 16.3498 86.8814 15.7088 87.3383 14.8846C87.7952 14.0421 88.0236 13.0806 88.0236 12C88.0236 10.9194 87.7952 9.96703 87.3383 9.14286C86.8814 8.30037 86.26 7.65018 85.4742 7.19231C84.6883 6.73443 83.8111 6.5055 82.8425 6.5055C81.8739 6.5055 80.9967 6.73443 80.2109 7.19231C79.425 7.65018 78.8037 8.30037 78.3468 9.14286C77.8899 9.96703 77.6614 10.9194 77.6614 12C77.6614 13.0806 77.8899 14.0421 78.3468 14.8846C78.8037 15.7088 79.425 16.3498 80.2109 16.8077C80.9967 17.2656 81.8739 17.4945 82.8425 17.4945Z"
          fill="#313749"/>
    <path d="M104.737 16.5055H101.777V21.6154H96.3491V2.38462H105.121C106.857 2.38462 108.365 2.67766 109.644 3.26374C110.924 3.8315 111.911 4.65568 112.605 5.73626C113.3 6.79853 113.647 8.05311 113.647 9.5C113.647 10.8919 113.318 12.1099 112.66 13.1538C112.02 14.1795 111.097 14.9853 109.891 15.5714L114.031 21.6154H108.219L104.737 16.5055ZM108.164 9.5C108.164 8.60256 107.881 7.90659 107.314 7.41209C106.748 6.91758 105.907 6.67033 104.792 6.67033H101.777V12.3022H104.792C105.907 12.3022 106.748 12.0641 107.314 11.5879C107.881 11.0934 108.164 10.3974 108.164 9.5Z"
          fill="#313749"/>
    <path d="M126.653 14.7198V21.6154H121.226V14.6374L113.906 2.38462H119.636L124.186 10.022L128.737 2.38462H134L126.653 14.7198Z"
          fill="#313749"/>
    <path fill-rule="evenodd" clip-rule="evenodd"
          d="M25.9717 2.53735C26.0359 2.7486 26.0704 2.97281 26.0704 3.20509C26.0704 5.83149 27.2288 7.37663 29.0972 9.06226C30.9657 7.37663 32.1241 5.83149 32.1241 3.20509C32.1241 2.97281 32.1586 2.7486 32.2228 2.53735H25.9717ZM32.2228 21.6155C32.1586 21.4042 32.1241 21.18 32.1241 20.9478C32.1241 18.3214 30.9657 16.7762 29.0972 15.0906C27.2288 16.7762 26.0704 18.3214 26.0704 20.9478C26.0704 21.18 26.0359 21.4042 25.9717 21.6155H32.2228Z"
          fill="#FAB404"/>
</svg>
