<svg viewBox="0 0 32 32" xmlns="http://www.w3.org/2000/svg">
    <path d="M10.872 11.897c0-2.832 2.296-5.128 5.128-5.128s5.128 2.296 5.128 5.128c0 2.832-2.296 5.128-5.128 5.128s-5.128-2.296-5.128-5.128zM16 8.82c-1.699 0-3.077 1.378-3.077 3.077s1.378 3.077 3.077 3.077c1.699 0 3.077-1.378 3.077-3.077s-1.378-3.077-3.077-3.077z"></path>
    <path d="M16 29.333c-7.364 0-13.333-5.97-13.333-13.333s5.97-13.333 13.333-13.333c7.364 0 13.333 5.97 13.333 13.333s-5.97 13.333-13.333 13.333zM16 4.718c-6.231 0-11.282 5.051-11.282 11.282 0 3.174 1.311 6.042 3.421 8.092 0.049-1.582 1.13-2.846 2.499-3.667 1.422-0.853 3.32-1.348 5.363-1.348s3.941 0.495 5.363 1.348c1.369 0.822 2.449 2.086 2.499 3.667 2.11-2.050 3.421-4.918 3.421-8.092 0-6.231-5.051-11.282-11.282-11.282zM16 27.282c1.734 0 3.255-0.424 4.307-1.055 1.073-0.644 1.505-1.39 1.505-2.022s-0.432-1.378-1.505-2.021c-1.053-0.631-2.573-1.055-4.307-1.055s-3.255 0.424-4.307 1.055c-1.073 0.644-1.505 1.39-1.505 2.021s0.432 1.378 1.505 2.022c1.053 0.631 2.573 1.055 4.307 1.055z"></path>
</svg>
