<svg viewBox="0 0 24 24" xmlns="http://www.w3.org/2000/svg">
    <path fill-rule="evenodd" clip-rule="evenodd"
          d="M12 14C14.2091 14 16 12.2091 16 10C16 7.79086 14.2091 6 12 6C9.79086 6 8 7.79086 8 10C8 12.2091 9.79086 14 12 14ZM12 12C13.1046 12 14 11.1046 14 10C14 8.89543 13.1046 8 12 8C10.8954 8 10 8.89543 10 10C10 11.1046 10.8954 12 12 12Z"/>
    <path fill-rule="evenodd" clip-rule="evenodd"
          d="M14.2036 21.7564C18.6663 20.7528 22 16.7657 22 12C22 6.47715 17.5228 2 12 2C6.47715 2 2 6.47715 2 12C2 16.7657 5.33374 20.7528 9.7964 21.7564C10.4786 21.9136 11.222 22 12 22C12.778 22 13.5214 21.9136 14.2036 21.7564ZM17.7714 17.5399C19.1517 16.1024 20 14.1503 20 12C20 7.58172 16.4183 4 12 4C7.58172 4 4 7.58172 4 12C4 14.1503 4.84833 16.1024 6.22856 17.5399C6.94398 16.0737 9.25704 15 12 15C14.743 15 17.056 16.0737 17.7714 17.5399ZM13.8195 19.7922C14.3822 19.6566 14.8621 19.4648 15.2349 19.2473C15.5962 19.0366 15.8044 18.8331 15.9093 18.6883C15.9596 18.619 15.9815 18.5699 15.9909 18.5433C15.9995 18.5188 16 18.5063 16 18.5C16 18.4937 15.9995 18.4812 15.9909 18.4567C15.9815 18.4301 15.9596 18.381 15.9093 18.3117C15.8044 18.1669 15.5962 17.9634 15.2349 17.7527C14.5056 17.3273 13.3664 17 12 17C10.6336 17 9.49436 17.3273 8.7651 17.7527C8.40385 17.9634 8.19565 18.1669 8.09067 18.3117C8.0404 18.381 8.01847 18.4301 8.00915 18.4567C8.00052 18.4812 8 18.4937 8 18.5C8 18.5063 8.00052 18.5188 8.00915 18.5433C8.01847 18.5699 8.0404 18.619 8.09067 18.6883C8.19565 18.8331 8.40385 19.0366 8.7651 19.2473C9.1379 19.4648 9.61783 19.6566 10.1805 19.7922C10.765 19.9281 11.3741 20 12 20C12.6259 20 13.235 19.9281 13.8195 19.7922Z"/>
</svg>
