<svg viewBox="0 0 24 24" xmlns="http://www.w3.org/2000/svg">
<path d="M10 15C11.8019 15 13.4821 15.4239 14.7461 16.1611C15.9856 16.8842 17 18.0302 17 19.5C17 20.0523 16.5523 20.5 16 20.5C15.4477 20.5 15 20.0523 15 19.5C15 19.0369 14.6711 18.4323 13.7393 17.8887C12.8317 17.3593 11.5116 17 10 17C8.48863 17 7.16922 17.3594 6.26172 17.8887C5.32965 18.4324 5 19.0368 5 19.5C5 20.0523 4.55228 20.5 4 20.5C3.44772 20.5 3 20.0523 3 19.5C3 18.0302 4.0144 16.8842 5.25391 16.1611C6.51791 15.4239 8.19811 15 10 15ZM10 6C12.2091 6 14 7.79086 14 10C14 12.2091 12.2091 14 10 14C7.79086 14 6 12.2091 6 10C6 7.79086 7.79086 6 10 6ZM10 8C8.89543 8 8 8.89543 8 10C8 11.1046 8.89543 12 10 12C11.1046 12 12 11.1046 12 10C12 8.89543 11.1046 8 10 8ZM18 3C18.5523 3 19 3.44772 19 4V5H20C20.5523 5 21 5.44772 21 6C21 6.55228 20.5523 7 20 7H19V8C19 8.55228 18.5523 9 18 9C17.4477 9 17 8.55228 17 8V7H16C15.4477 7 15 6.55228 15 6C15 5.44772 15.4477 5 16 5H17V4C17 3.44772 17.4477 3 18 3Z" />
</svg>
