<svg viewBox="0 0 24 24" xmlns="http://www.w3.org/2000/svg">
    <path d="M11.7127 9.95837V12.9789C11.7127 15.4253 11.6976 16.0144 11.6258 16.0782C11.5652 16.127 11.4026 16.0557 10.9261 15.7818C9.19763 14.7874 8.0403 14.0558 8.03651 13.9357C8.03651 13.8832 8.03651 13.7218 8.0403 13.5792C8.04786 13.4367 7.99869 13.189 7.9344 13.0127C7.8701 12.8438 7.81715 12.6825 7.81715 12.6675C7.81715 12.6037 11.2702 9.4931 11.3383 9.4931C11.3572 9.4931 11.448 9.59816 11.5426 9.72573L11.7127 9.95837Z"
          fill="#00BEF2"/>
    <path d="M15.9185 13.8306C15.892 13.9357 15.4646 14.2209 13.1764 15.6467C12.7528 15.9131 12.3897 16.1307 12.3822 16.1232C12.2801 16.1232 12.2574 15.6655 12.2422 12.9639L12.2271 9.94711L12.5789 9.71448C12.7717 9.5869 12.9571 9.48184 12.9949 9.48184C13.1008 9.48184 13.5584 9.98088 14.8103 11.448L15.9752 12.8213L15.9601 13.2678C15.9563 13.5192 15.9336 13.7668 15.9185 13.8306Z"
          fill="#00BEF2"/>
    <path fill-rule="evenodd" clip-rule="evenodd"
          d="M12.0643 2.07504C12.0303 2.02627 12.0113 2 11.9887 2C11.9735 2 11.9584 2.02251 11.9471 2.06379C11.9357 2.10506 9.70425 4.76161 6.97355 7.97349C4.24285 11.1854 2.01139 13.8307 2.00004 13.8569C1.9887 13.8832 4.20881 15.6993 6.92816 17.898C9.64751 20.0968 11.9017 21.9241 11.9395 21.9617C12.003 22.0247 12.0112 22.0181 12.1826 21.8806L12.1891 21.8754C12.2874 21.7928 14.5378 19.973 17.1815 17.838C19.8252 15.703 21.9962 13.9357 22 13.9207C22.0113 13.9057 19.7874 11.2492 17.0643 8.02227C14.3411 4.79538 12.0908 2.11632 12.0643 2.07504ZM10.7823 18.0894C10.9374 18.3895 11.3118 18.7047 11.622 18.8173C11.9245 18.9299 12.1439 18.9299 12.5108 18.8248C12.8663 18.7197 13.2785 18.3745 13.445 18.0293C13.5925 17.7179 13.6076 17.2189 13.4752 16.8999C13.3391 16.5772 13.358 16.4984 13.6265 16.2808C14.0652 15.9319 16.0357 14.5886 16.1643 14.5586C16.24 14.536 16.4215 14.5998 16.656 14.7274C16.9699 14.9 17.0834 14.93 17.3822 14.93C17.8095 14.93 18.044 14.84 18.3655 14.5548C18.8194 14.1458 19.0047 13.4667 18.7929 12.9639C18.4601 12.1797 17.6204 11.8307 16.8262 12.1421C16.656 12.2059 16.4745 12.2585 16.4215 12.2585C16.3686 12.2585 16.2059 12.1271 16.0622 11.962C15.2453 11.0202 13.7021 9.17041 13.6114 9.01657C13.5017 8.84397 13.5017 8.83647 13.6152 8.5513C14.035 7.51945 13.2596 6.36377 12.1477 6.36377C11.6749 6.36377 11.4291 6.44257 11.0963 6.70147C10.4873 7.178 10.3096 7.97346 10.6575 8.69013L10.8277 9.04659L10.2566 9.5869C9.42834 10.3674 7.71125 11.9208 7.49945 12.0784C7.31791 12.2134 7.31034 12.2134 7.0229 12.1196C6.4934 11.947 5.94499 12.0821 5.53274 12.4911C5.22639 12.7913 5.13184 13.0352 5.13184 13.5079C5.13184 13.9957 5.24152 14.2359 5.60838 14.5736C6.11897 15.0426 6.77328 15.0876 7.39733 14.6936C7.59022 14.5736 7.69612 14.536 7.76042 14.5736C7.76972 14.5785 7.80232 14.5961 7.8545 14.6243C8.07806 14.745 8.66102 15.0598 9.31109 15.4066C10.1129 15.8343 10.8202 16.2283 10.8807 16.2696C10.9866 16.3484 10.9866 16.3596 10.8202 16.6973C10.6046 17.1513 10.5895 17.7254 10.7823 18.0894Z"
          fill="#00BEF2"/>
</svg>
