<svg viewBox="0 0 32 32" xmlns="http://www.w3.org/2000/svg">
    <path d="M17.333 2.201c-0.552 0-1 0.448-1 1s0.448 1 1 1c2.528 0 4.935 0.956 6.88 2.894 0.004 0.004 0.009 0.009 0.013 0.013 1.947 1.947 2.907 4.36 2.907 6.893 0 0.552 0.448 1 1 1s1-0.448 1-1c0-3.061-1.169-5.976-3.479-8.293-0.005-0.005-0.009-0.010-0.014-0.014-2.32-2.32-5.24-3.493-8.307-3.493z"></path>
    <path d="M5.559 5.426c1.457-1.457 3.69-1.457 5.148 0l1.6 1.6c0.584 0.584 0.902 1.347 0.876 2.156-0.026 0.805-0.389 1.572-1.009 2.192l-1.067 1.067c-0.017 0.017-0.024 0.033-0.026 0.039 0.608 1.561 1.711 3.166 3.226 4.68 1.343 1.343 3.066 2.463 4.687 3.223 0.008-0.004 0.020-0.011 0.032-0.023l1.2-1.2c1.191-1.191 3.024-1.191 4.214 0l1.6 1.6c0.016 0.016 0.031 0.032 0.045 0.049 0.643 0.735 0.938 1.665 0.98 2.544 0.042 0.875-0.162 1.783-0.618 2.511-0.040 0.064-0.087 0.124-0.141 0.177l-0.933 0.933c-1.303 1.303-2.97 1.801-4.753 1.477l-0.010-0.002c-3.695-0.711-7.732-2.957-11.044-6.268-3.457-3.322-5.561-7.353-6.275-11.023-0.487-1.846 0.191-3.655 1.335-4.799l0.933-0.933zM9.293 6.84c-0.676-0.676-1.643-0.676-2.319 0l-0.933 0.933c-0.715 0.715-1.102 1.822-0.809 2.896 0.007 0.025 0.012 0.049 0.017 0.074 0.625 3.251 2.517 6.935 5.711 10.001l0.015 0.014c3.084 3.084 6.776 5.101 10.010 5.724 1.148 0.207 2.147-0.095 2.976-0.924l0.843-0.843c0.181-0.333 0.288-0.788 0.265-1.269-0.024-0.509-0.189-0.97-0.468-1.3l-1.574-1.574c-0.409-0.409-0.976-0.409-1.386 0l-1.2 1.2c-0.495 0.495-1.281 0.778-2.090 0.508-0.035-0.012-0.069-0.025-0.103-0.041-1.819-0.84-3.789-2.102-5.355-3.668-1.673-1.673-2.964-3.521-3.693-5.415-0.005-0.014-0.011-0.028-0.015-0.043-0.27-0.809 0.013-1.595 0.508-2.090l1.067-1.067c0.313-0.313 0.417-0.614 0.424-0.842 0.007-0.224-0.075-0.461-0.291-0.677l-1.6-1.6z"></path>
    <path d="M16.333 8.667c0-0.552 0.448-1 1-1 1.486 0 3.102 0.554 4.342 1.673 0.034 0.026 0.067 0.055 0.098 0.086 0.024 0.024 0.047 0.048 0.071 0.072 0.021 0.021 0.042 0.041 0.063 0.062 0.030 0.030 0.058 0.062 0.083 0.094 1.121 1.241 1.676 2.858 1.676 4.346 0 0.552-0.448 1-1 1s-1-0.448-1-1c0-1.057-0.417-2.228-1.238-3.089-0.862-0.825-2.036-1.244-3.095-1.244-0.552 0-1-0.448-1-1z"></path>
</svg>
