<svg viewBox="0 0 32 32" xmlns="http://www.w3.org/2000/svg">
    <path d="M9.534 15.334c0 3.203 2.597 5.8 5.8 5.8 1.241 0 2.391-0.39 3.334-1.053l1.96 1.96c0.391 0.391 1.024 0.391 1.414 0s0.391-1.024 0-1.414l-1.96-1.96c0.663-0.943 1.052-2.092 1.052-3.332 0-3.203-2.597-5.8-5.8-5.8s-5.8 2.597-5.8 5.8zM19.134 15.334c0 0.918-0.325 1.76-0.867 2.417-0.111 0.049-0.215 0.118-0.306 0.209s-0.161 0.195-0.209 0.306c-0.657 0.542-1.499 0.868-2.418 0.868-2.099 0-3.8-1.701-3.8-3.8s1.701-3.8 3.8-3.8c2.099 0 3.8 1.701 3.8 3.8z"></path>
    <path d="M16.001 3.133c-7.106 0-12.867 5.761-12.867 12.867s5.761 12.867 12.867 12.867c7.106 0 12.867-5.761 12.867-12.867s-5.761-12.867-12.867-12.867zM5.134 15.999c0-6.001 4.865-10.867 10.867-10.867s10.867 4.865 10.867 10.867-4.865 10.867-10.867 10.867c-6.002 0-10.867-4.865-10.867-10.867z"></path>
</svg>
