<svg viewBox="0 0 32 32" xmlns="http://www.w3.org/2000/svg">
    <path d="M7.066 11.755c-3.172 1.395-5.399 4.571-5.399 8.245 0 4.952 4.048 9 9 9 1.992 0 3.838-0.655 5.333-1.761 1.495 1.106 3.341 1.761 5.333 1.761 4.952 0 9-4.048 9-9 0-3.674-2.227-6.85-5.399-8.245 0.043-0.357 0.066-0.72 0.066-1.089 0-4.952-4.048-9-9-9s-9 4.048-9 9c0 0.368 0.022 0.732 0.066 1.089zM9 10.667c0-3.848 3.152-7 7-7s7 3.152 7 7c0 0.163-0.006 0.325-0.017 0.486-0.535-0.1-1.087-0.152-1.65-0.152-1.992 0-3.838 0.655-5.333 1.761-1.495-1.106-3.341-1.761-5.333-1.761-0.563 0-1.115 0.052-1.65 0.152-0.011-0.161-0.017-0.323-0.017-0.486zM22.558 13.108c-0.623 1.66-1.862 3.027-3.434 3.818-0.374-1.023-0.929-1.959-1.626-2.772 1.104-0.729 2.423-1.154 3.836-1.154 0.417 0 0.826 0.037 1.224 0.108zM19.601 18.911c2.241-0.985 4.010-2.86 4.856-5.17 2.293 1.154 3.877 3.532 3.877 6.259 0 3.848-3.152 7-7 7-1.413 0-2.732-0.425-3.836-1.154 1.351-1.575 2.17-3.619 2.17-5.846 0-0.368-0.022-0.732-0.066-1.089zM17.224 17.559c-0.398 0.071-0.807 0.108-1.224 0.108s-0.826-0.037-1.224-0.108c0.287-0.764 0.704-1.466 1.224-2.078 0.52 0.612 0.937 1.314 1.224 2.078zM14.35 19.514c0.535 0.1 1.087 0.152 1.65 0.152s1.115-0.052 1.65-0.152c0.011 0.161 0.017 0.323 0.017 0.486 0 1.718-0.628 3.297-1.667 4.519-1.038-1.222-1.667-2.801-1.667-4.519 0-0.163 0.006-0.325 0.017-0.486zM12.399 18.911c-0.043 0.357-0.066 0.72-0.066 1.089 0 2.227 0.818 4.271 2.17 5.846-1.104 0.729-2.423 1.154-3.836 1.154-3.848 0-7-3.152-7-7 0-2.727 1.584-5.105 3.877-6.259 0.846 2.311 2.615 4.185 4.856 5.17zM12.877 16.926c-1.572-0.791-2.811-2.157-3.434-3.818 0.398-0.071 0.807-0.108 1.224-0.108 1.413 0 2.732 0.425 3.836 1.154-0.697 0.812-1.252 1.749-1.626 2.772z"></path>
</svg>
