<svg viewBox="0 0 24 24" xmlns="http://www.w3.org/2000/svg">
<path d="M11.9995 2C11.3003 2 10.6297 2.27776 10.1353 2.77217C9.64091 3.26659 9.36315 3.93716 9.36315 4.63636V4.77277C9.36263 4.84057 9.34242 4.90677 9.30497 4.96332C9.28534 4.99296 9.26143 5.01927 9.23415 5.04148C9.18006 5.05517 9.12706 5.0734 9.07575 5.09605C9.01177 5.12428 8.9408 5.13271 8.87198 5.12023C8.80439 5.10797 8.74193 5.0761 8.69236 5.02863L8.64883 4.9851C8.40398 4.73998 8.11322 4.54553 7.79317 4.41286C7.47312 4.28018 7.13006 4.21189 6.7836 4.21189C6.43714 4.21189 6.09408 4.28018 5.77403 4.41286C5.45415 4.54546 5.16353 4.73978 4.91877 4.98471C4.67383 5.22948 4.47952 5.5201 4.34691 5.83998C4.21424 6.16002 4.14595 6.50309 4.14595 6.84955C4.14595 7.196 4.21424 7.53907 4.34691 7.85912C4.47959 8.17916 4.67404 8.46993 4.91916 8.71477L4.96269 8.7583L4.97002 8.76619L5.49988 7H6.16399C6.15204 6.95086 6.14595 6.90035 6.14595 6.84955C6.14595 6.76592 6.16244 6.68311 6.19446 6.60586C6.22648 6.5286 6.27342 6.45842 6.33259 6.39932L6.33338 6.39853C6.39248 6.33937 6.46266 6.29243 6.53991 6.2604C6.61717 6.22838 6.69998 6.21189 6.7836 6.21189C6.86723 6.21189 6.95004 6.22838 7.02729 6.2604C7.10455 6.29243 7.17512 6.33976 7.23422 6.39892L7.28327 6.44806L7.29116 6.45577C7.54278 6.70191 7.84536 6.8873 8.17572 7L9.69381 6.99977C9.77795 6.98711 9.86032 6.96373 9.9389 6.93005C10.3601 6.74951 10.7194 6.44973 10.9725 6.06762C11.2255 5.68551 11.3613 5.23775 11.3631 4.77944V4.63636C11.3631 4.46759 11.4302 4.30573 11.5495 4.18639C11.6689 4.06705 11.8307 4 11.9995 4C12.1683 4 12.3301 4.06705 12.4495 4.18639C12.5688 4.30573 12.6359 4.46759 12.6359 4.63636V4.77944C12.6377 5.23775 12.7735 5.68551 13.0266 6.06762C13.2796 6.44973 13.6389 6.74951 14.0601 6.93005C14.1387 6.96373 14.2218 6.98734 14.3059 7H15.8233C16.1537 6.8873 16.4562 6.70191 16.7079 6.45577L16.7158 6.44806L16.7648 6.39892C16.8239 6.33976 16.8945 6.29243 16.9717 6.2604C17.049 6.22838 17.1318 6.21189 17.2154 6.21189C17.299 6.21189 17.3819 6.22838 17.4591 6.2604C17.5364 6.29243 17.6065 6.33937 17.6656 6.39853L17.6664 6.39932C17.7256 6.45842 17.7725 6.5286 17.8046 6.60586C17.8366 6.68311 17.8531 6.76592 17.8531 6.84955C17.8531 6.90035 17.847 6.95086 17.835 7H19.8488C19.8516 6.94996 19.8531 6.89979 19.8531 6.84955C19.8531 6.50309 19.7848 6.16002 19.6521 5.83998C19.5195 5.5201 19.3252 5.22948 19.0803 4.98471C18.8355 4.73978 18.5449 4.54546 18.225 4.41286C17.9049 4.28018 17.5619 4.21189 17.2154 4.21189C16.869 4.21189 16.5259 4.28018 16.2059 4.41286C15.8858 4.54553 15.595 4.73998 15.3502 4.9851L15.3067 5.02863C15.2571 5.0761 15.1946 5.10797 15.127 5.12023C15.0582 5.13271 14.9873 5.12428 14.9233 5.09605C14.872 5.0734 14.819 5.05517 14.7649 5.04148C14.7376 5.01927 14.7137 4.99296 14.6941 4.96332C14.6566 4.90677 14.6364 4.84057 14.6359 4.77277V4.63636C14.6359 3.93716 14.3581 3.26659 13.8637 2.77217C13.3693 2.27776 12.6987 2 11.9995 2Z" />
<path d="M4.69401 9.42909C4.72163 9.42782 4.74886 9.42329 4.77517 9.41568L4.06396 11.7864C4.03379 11.8482 4.01371 11.9148 4.00479 11.9836L3.29863 14.3375C3.10802 14.2253 2.93074 14.0887 2.77168 13.9296C2.27727 13.4352 1.99951 12.7647 1.99951 12.0655C1.99951 11.3662 2.27727 10.6957 2.77168 10.2013C3.2661 9.70685 3.93667 9.42909 4.63588 9.42909H4.69401Z" />
<path d="M6.24915 17H4.22026C4.21437 17.0717 4.21141 17.1437 4.21141 17.2159C4.21141 17.5624 4.2797 17.9054 4.41237 18.2255C4.5449 18.5452 4.73908 18.8357 4.98383 19.0804C5.22868 19.3255 5.51944 19.5199 5.83949 19.6526C6.15954 19.7853 6.5026 19.8536 6.84906 19.8536C7.19552 19.8536 7.53858 19.7853 7.85863 19.6526C8.17851 19.52 8.46952 19.3253 8.71428 19.0804L8.75781 19.0368C8.80738 18.9894 8.86984 18.9575 8.93744 18.9452C9.00625 18.9327 9.07722 18.9412 9.1412 18.9694C9.16047 18.9779 9.18001 18.9858 9.19979 18.9931C9.2657 19.0173 9.32279 19.0608 9.36365 19.118C9.40298 19.1729 9.42551 19.2381 9.4286 19.3055V19.3636C9.4286 20.0628 9.70636 20.7334 10.2008 21.2278C10.6797 21.7068 11.324 21.9824 11.9995 21.9992C12.675 21.9824 13.3193 21.7068 13.7982 21.2278C14.2927 20.7334 14.5704 20.0628 14.5704 19.3636V19.3055C14.5735 19.2381 14.596 19.1729 14.6354 19.118C14.6762 19.0608 14.7333 19.0173 14.7992 18.9931C14.819 18.9858 14.8385 18.9779 14.8578 18.9694C14.9218 18.9412 14.9928 18.9327 15.0616 18.9452C15.1292 18.9575 15.1916 18.9894 15.2412 19.0368L15.2847 19.0804C15.5295 19.3253 15.8205 19.52 16.1404 19.6526C16.4604 19.7853 16.8035 19.8536 17.15 19.8536C17.4964 19.8536 17.8395 19.7853 18.1595 19.6526C18.4796 19.5199 18.7703 19.3255 19.0152 19.0804C19.2599 18.8357 19.4541 18.5452 19.5867 18.2255C19.7193 17.9054 19.7876 17.5624 19.7876 17.2159C19.7876 17.1437 19.7847 17.0717 19.7788 17H17.7499C17.7748 17.0692 17.7876 17.1422 17.7876 17.2159C17.7876 17.2995 17.7711 17.3823 17.7391 17.4596C17.7071 17.5369 17.6601 17.607 17.601 17.6661L17.6002 17.6669C17.5411 17.7261 17.4709 17.773 17.3937 17.8051C17.3164 17.8371 17.2336 17.8536 17.15 17.8536C17.0663 17.8536 16.9835 17.8371 16.9063 17.8051C16.829 17.773 16.7588 17.7261 16.6997 17.6669L16.6425 17.6096C16.3336 17.3075 15.948 17.097 15.5285 17H14.4698C14.3367 17.0308 14.2061 17.0732 14.0793 17.1271C13.6492 17.2919 13.2768 17.5795 13.0086 17.9545C12.7343 18.338 12.5817 18.7952 12.5707 19.2666L12.5704 19.29V19.3636C12.5704 19.5324 12.5034 19.6943 12.384 19.8136C12.2802 19.9174 12.1442 19.9817 11.9995 19.9966C11.8548 19.9817 11.7188 19.9174 11.615 19.8136C11.4956 19.6943 11.4286 19.5324 11.4286 19.3636V19.29L11.4283 19.2666C11.4173 18.7952 11.2647 18.338 10.9904 17.9545C10.7222 17.5795 10.3498 17.2919 9.91972 17.1271C9.79296 17.0732 9.66228 17.0308 9.52921 17H8.47055C8.05103 17.097 7.6654 17.3075 7.35657 17.6096L7.29928 17.6669C7.24019 17.7261 7.17 17.773 7.09275 17.8051C7.01549 17.8371 6.93268 17.8536 6.84906 17.8536C6.76543 17.8536 6.68262 17.8371 6.60537 17.8051C6.52811 17.773 6.45793 17.7261 6.39883 17.6669L6.39804 17.6661C6.33888 17.607 6.29194 17.5369 6.25991 17.4596C6.22789 17.3823 6.21141 17.2995 6.21141 17.2159C6.21141 17.1422 6.2242 17.0692 6.24915 17Z" />
<path d="M21.2273 13.9296C20.886 14.271 20.4606 14.5091 19.9999 14.6238V9.50713C20.4606 9.62182 20.886 9.8599 21.2273 10.2013C21.7218 10.6957 21.9995 11.3662 21.9995 12.0655C21.9995 12.7647 21.7218 13.4352 21.2273 13.9296Z" />
<path d="M6.99991 8C7.43034 8 7.81247 8.27543 7.94859 8.68377L9.94859 14.6838C10.1232 15.2077 9.84008 15.774 9.31613 15.9487C8.79219 16.1233 8.22587 15.8402 8.05122 15.3162L6.99991 12.1623L5.94859 15.3162C5.77394 15.8402 5.20762 16.1233 4.68368 15.9487C4.15973 15.774 3.87657 15.2077 4.05122 14.6838L6.05122 8.68377C6.18734 8.27543 6.56947 8 6.99991 8Z" />
<path fill-rule="evenodd" clip-rule="evenodd" d="M10.9999 9C10.9999 8.44772 11.4476 8 11.9999 8H14.9999C15.5522 8 15.9999 8.44772 15.9999 9V12C15.9999 12.5523 15.5522 13 14.9999 13H12.9999V15C12.9999 15.5523 12.5522 16 11.9999 16C11.4476 16 10.9999 15.5523 10.9999 15V9ZM12.9999 11H13.9999V10H12.9999V11Z" />
<path d="M18.9999 9C18.9999 8.44772 18.5522 8 17.9999 8C17.4476 8 16.9999 8.44772 16.9999 9V15C16.9999 15.5523 17.4476 16 17.9999 16C18.5522 16 18.9999 15.5523 18.9999 15V9Z" />
</svg>
