<svg viewBox="0 0 24 24" xmlns="http://www.w3.org/2000/svg">
<path d="M5 6C5 5.44772 5.44772 5 6 5H7C7.55229 5 8 5.44772 8 6V7C8 7.55228 7.55229 8 7 8H6C5.44772 8 5 7.55228 5 7V6Z"/>
<path d="M5 11.5C5 10.9477 5.44772 10.5 6 10.5H7C7.55228 10.5 8 10.9477 8 11.5L8 12.5C8 13.0523 7.55228 13.5 7 13.5H6C5.44772 13.5 5 13.0523 5 12.5L5 11.5Z"/>
<path d="M5 17C5 16.4477 5.44772 16 6 16H7C7.55229 16 8 16.4477 8 17L8 18C8 18.5523 7.55229 19 7 19H6C5.44772 19 5 18.5523 5 18L5 17Z"/>
<path d="M16 6C16 5.44772 16.4477 5 17 5H18C18.5523 5 19 5.44772 19 6V7C19 7.55228 18.5523 8 18 8H17C16.4477 8 16 7.55228 16 7V6Z"/>
<path d="M16 11.5C16 10.9477 16.4477 10.5 17 10.5H18C18.5523 10.5 19 10.9477 19 11.5L19 12.5C19 13.0523 18.5523 13.5 18 13.5H17C16.4477 13.5 16 13.0523 16 12.5L16 11.5Z"/>
<path d="M16 17C16 16.4477 16.4477 16 17 16H18C18.5523 16 19 16.4477 19 17L19 18C19 18.5523 18.5523 19 18 19H17C16.4477 19 16 18.5523 16 18L16 17Z"/>
<path d="M10.5 6C10.5 5.44772 10.9477 5 11.5 5H12.5C13.0523 5 13.5 5.44772 13.5 6V7C13.5 7.55228 13.0523 8 12.5 8H11.5C10.9477 8 10.5 7.55228 10.5 7V6Z"/>
<path d="M10.5 11.5C10.5 10.9477 10.9477 10.5 11.5 10.5H12.5C13.0523 10.5 13.5 10.9477 13.5 11.5L13.5 12.5C13.5 13.0523 13.0523 13.5 12.5 13.5H11.5C10.9477 13.5 10.5 13.0523 10.5 12.5L10.5 11.5Z"/>
<path d="M10.5 17C10.5 16.4477 10.9477 16 11.5 16H12.5C13.0523 16 13.5 16.4477 13.5 17L13.5 18C13.5 18.5523 13.0523 19 12.5 19H11.5C10.9477 19 10.5 18.5523 10.5 18L10.5 17Z"/>
</svg>
