<svg viewBox="0 0 24 24" xmlns="http://www.w3.org/2000/svg">
<path fill-rule="evenodd" clip-rule="evenodd" d="M8.98945 6.15678C9.47613 5.85437 10.1165 6.00264 10.4198 6.48796C11.2408 7.8019 12.3205 8.83001 13.2119 9.53582C13.6546 9.88641 14.0433 10.1515 14.318 10.3271C14.4552 10.4148 14.5633 10.4797 14.6349 10.5215C14.6707 10.5424 14.6972 10.5575 14.7136 10.5667L14.7305 10.5761L14.7318 10.5768L14.8529 10.6421L14.953 10.737C15.3109 11.0762 15.5 11.5339 15.5 12C15.5 12.4663 15.3106 12.9241 14.9528 13.2632L14.8527 13.358L14.7329 13.4226L14.7317 13.4232L14.7304 13.4239L14.7136 13.4333C14.6971 13.4425 14.6706 13.4576 14.6348 13.4785C14.5633 13.5203 14.4551 13.5853 14.318 13.673C14.0433 13.8486 13.6546 14.1137 13.2118 14.4643C12.3204 15.1701 11.2407 16.1982 10.4196 17.5121C10.1163 17.9974 9.47593 18.1456 8.98927 17.8432C8.50261 17.5407 8.35396 16.9021 8.65726 16.4168C9.64453 14.8371 10.9144 13.6393 11.9205 12.8426C12.3719 12.4851 12.7764 12.2036 13.0884 12C12.7764 11.7965 12.3719 11.5149 11.9206 11.1575C10.9144 10.3608 9.64456 9.16297 8.65734 7.58309C8.35408 7.09777 8.50277 6.45919 8.98945 6.15678Z"/>
</svg>
