<svg viewBox="0 0 24 24" xmlns="http://www.w3.org/2000/svg">
    <path d="M17.104 4C17.104 3.44772 17.5424 3 18.0832 3C18.624 3 19.0624 3.44772 19.0624 4C19.0624 3.99153 19.0626 3.99232 19.0656 4.00262C19.0746 4.03382 19.1086 4.15222 19.2371 4.36427C19.3884 4.61382 19.6129 4.89792 19.8772 5.16789C20.1416 5.43786 20.4198 5.66713 20.6641 5.82161C20.8718 5.95288 20.9877 5.9876 21.0183 5.99675C21.0284 5.99977 21.0291 6 21.0208 6C21.5616 6.00004 22 6.44774 22 7C22 7.55226 21.5616 7.99996 21.0208 8C21.0291 8 21.0284 8.00023 21.0183 8.00325C20.9877 8.0124 20.8718 8.04712 20.6641 8.17839C20.4198 8.33287 20.1416 8.56214 19.8772 8.83211C19.6129 9.10208 19.3884 9.38618 19.2371 9.63573C19.1086 9.84778 19.0745 9.96621 19.0656 9.9974C19.0626 10.0077 19.0624 10.0085 19.0624 10C19.0624 10.5523 18.624 11 18.0832 11C17.5424 11 17.104 10.5523 17.104 10C17.104 9.46585 17.3451 8.95722 17.5719 8.58302C17.6886 8.39047 17.8232 8.19866 17.9695 8.01237C16.2249 8.11634 14.6134 8.87092 13.4249 10.0799C13.118 9.46169 12.7567 8.88043 12.3482 8.34098C13.8217 6.99643 15.7286 6.15816 17.7824 6.0202C17.846 6.00696 17.9118 6 17.9792 6C17.8292 5.80984 17.6912 5.6138 17.5719 5.41698C17.3451 5.04278 17.104 4.53415 17.104 4Z"/>
    <path d="M8.57509 13.9201C7.29272 15.2245 5.51794 16 3.61484 16H3C2.44772 16 2 16.4477 2 17C2 17.5523 2.44772 18 3 18H3.61484C5.8966 18 8.0351 17.1343 9.65184 15.659C9.24333 15.1196 8.882 14.5383 8.57509 13.9201Z"/>
    <path d="M2 7C2 6.44772 2.44772 6 3 6H3.61484C7.27619 6 10.5687 8.22912 11.9285 11.6286C12.9328 14.1394 15.2947 15.8282 17.9695 15.9876C17.8232 15.8013 17.6886 15.6095 17.5719 15.417C17.3451 15.0428 17.104 14.5341 17.104 14C17.104 13.4477 17.5424 13 18.0832 13C18.624 13 19.0624 13.4477 19.0624 14C19.0624 13.9915 19.0626 13.9923 19.0656 14.0026C19.0746 14.0338 19.1086 14.1522 19.2371 14.3643C19.3884 14.6138 19.6129 14.8979 19.8772 15.1679C20.1416 15.4379 20.4198 15.6671 20.6641 15.8216C20.8718 15.9529 20.9877 15.9876 21.0183 15.9967C21.0284 15.9998 21.0291 16 21.0208 16C21.5616 16 22 16.4477 22 17C22 17.5523 21.5616 18 21.0208 18C21.0291 18 21.0284 18.0002 21.0183 18.0033C20.9877 18.0124 20.8718 18.0471 20.6641 18.1784C20.4198 18.3329 20.1416 18.5621 19.8772 18.8321C19.6129 19.1021 19.3884 19.3862 19.2371 19.6357C19.1086 19.8478 19.0745 19.9662 19.0656 19.9974C19.0626 20.0077 19.0624 20.0085 19.0624 20C19.0624 20.5523 18.624 21 18.0832 21C17.5424 21 17.104 20.5523 17.104 20C17.104 19.4659 17.3451 18.9572 17.5719 18.583C17.6912 18.3862 17.8292 18.1902 17.9792 18C17.9118 18 17.846 17.993 17.7825 17.9798C14.3662 17.7503 11.3563 15.5832 10.0715 12.3714C9.01546 9.73122 6.45838 8 3.61484 8H3C2.44772 8 2 7.55228 2 7Z"/>
</svg>
