<svg viewBox="0 0 24 24" xmlns="http://www.w3.org/2000/svg">
    <path fill-rule="evenodd" clip-rule="evenodd"
          d="M17.8432 8.98945C18.1456 9.47613 17.9974 10.1165 17.512 10.4198C16.1981 11.2408 15.17 12.3205 14.4642 13.2119C14.1136 13.6546 13.8485 14.0433 13.6729 14.318C13.5852 14.4552 13.5203 14.5633 13.4785 14.6349C13.4576 14.6707 13.4425 14.6972 13.4333 14.7136L13.4239 14.7305L13.4232 14.7318L13.3579 14.8529L13.263 14.953C12.9238 15.3109 12.4661 15.5 12 15.5C11.5337 15.5 11.0759 15.3106 10.7368 14.9528L10.642 14.8527L10.5774 14.7329L10.5768 14.7317L10.5761 14.7304L10.5667 14.7136C10.5575 14.6971 10.5424 14.6706 10.5215 14.6348C10.4797 14.5633 10.4147 14.4551 10.327 14.318C10.1514 14.0433 9.88631 13.6546 9.53571 13.2118C8.82987 12.3205 7.80176 11.2407 6.4879 10.4196C6.0026 10.1163 5.85437 9.47593 6.15682 8.98927C6.45926 8.50261 7.09785 8.35396 7.58315 8.65726C9.16287 9.64453 10.3607 10.9144 11.1574 11.9205C11.5149 12.3719 11.7964 12.7764 12 13.0884C12.2035 12.7764 12.4851 12.3719 12.8425 11.9206C13.6392 10.9144 14.837 9.64456 16.4169 8.65734C16.9022 8.35408 17.5408 8.50277 17.8432 8.98945Z"/>
</svg>
