<svg viewBox="0 0 24 24" xmlns="http://www.w3.org/2000/svg">
    <path fill-rule="evenodd" clip-rule="evenodd"
          d="M6.15678 15.0105C5.85437 14.5238 6.00264 13.8834 6.48796 13.5801C7.8019 12.7591 8.83001 11.6794 9.53582 10.788C9.88641 10.3453 10.1515 9.95659 10.3271 9.68188C10.4148 9.54472 10.4797 9.43657 10.5215 9.36502C10.5424 9.32926 10.5575 9.30269 10.5667 9.28628L10.5761 9.26941L10.5768 9.2681L10.6421 9.14701L10.737 9.04689C11.0762 8.68902 11.5339 8.49991 12 8.49991C12.4663 8.49991 12.9241 8.6893 13.2632 9.04713L13.358 9.14718L13.4226 9.26699L13.4232 9.26817L13.4239 9.26948L13.4333 9.28635C13.4425 9.30276 13.4576 9.32932 13.4785 9.36509C13.5203 9.43664 13.5853 9.54479 13.673 9.68194C13.8486 9.95665 14.1137 10.3453 14.4643 10.7881C15.1701 11.6795 16.1982 12.7592 17.5121 13.5803C17.9974 13.8836 18.1456 14.524 17.8432 15.0106C17.5407 15.4973 16.9021 15.6459 16.4168 15.3427C14.8371 14.3554 13.6393 13.0855 12.8426 12.0794C12.4851 11.628 12.2036 11.2235 12 10.9115C11.7965 11.2235 11.5149 11.628 11.1575 12.0793C10.3608 13.0855 9.16297 14.3553 7.58309 15.3426C7.09777 15.6458 6.45919 15.4971 6.15678 15.0105Z"/>
</svg>
