<svg viewBox="0 0 24 24" xmlns="http://www.w3.org/2000/svg">
<path fill-rule="evenodd" clip-rule="evenodd" d="M15.0106 6.15684C14.5239 5.85443 13.8835 6.0027 13.5802 6.48802C12.7592 7.80196 11.6795 8.83007 10.7881 9.53588C10.3454 9.88647 9.95668 10.1516 9.68197 10.3271C9.54481 10.4148 9.43666 10.4798 9.36511 10.5216C9.32935 10.5425 9.30279 10.5576 9.28637 10.5668L9.26951 10.5762L9.2682 10.5769L9.1471 10.6421L9.04698 10.7371C8.68911 11.0763 8.5 11.5339 8.5 12C8.5 12.4664 8.6894 12.9242 9.04722 13.2633L9.14727 13.3581L9.26709 13.4226L9.26826 13.4233L9.26957 13.424L9.28644 13.4334C9.30285 13.4426 9.32942 13.4577 9.36518 13.4786C9.43673 13.5204 9.54488 13.5854 9.68203 13.673C9.95675 13.8486 10.3454 14.1138 10.7882 14.4644C11.6796 15.1702 12.7593 16.1983 13.5804 17.5122C13.8837 17.9975 14.5241 18.1457 15.0107 17.8432C15.4974 17.5408 15.646 16.9022 15.3427 16.4169C14.3555 14.8372 13.0856 13.6394 12.0795 12.8427C11.6281 12.4852 11.2236 12.2036 10.9116 12.0001C11.2236 11.7965 11.6281 11.515 12.0794 11.1576C13.0856 10.3609 14.3554 9.16303 15.3427 7.58315C15.6459 7.09784 15.4972 6.45925 15.0106 6.15684Z"/>
</svg>
