<svg viewBox="0 0 24 24" xmlns="http://www.w3.org/2000/svg">
<path fill-rule="evenodd" clip-rule="evenodd" d="M12 3C12.3788 3 12.7251 3.214 12.8945 3.55279L16.4485 10.6608L20.5553 8.62158C20.905 8.44793 21.3238 8.49371 21.6278 8.73881C21.9317 8.98391 22.0652 9.3835 21.9696 9.76207L19.3225 20.2448C19.2104 20.6889 18.811 21 18.353 21H5.6471C5.18911 21 4.78966 20.6889 4.67753 20.2448L2.03047 9.76207C1.93488 9.3835 2.06837 8.98391 2.37231 8.73881C2.67626 8.49371 3.09506 8.44793 3.44478 8.62158L7.55159 10.6608L11.1056 3.55279C11.275 3.214 11.6213 3 12 3ZM12 6.23607L8.89447 12.4472C8.64796 12.9402 8.04899 13.1408 7.5553 12.8957L4.50164 11.3794L6.42597 19H17.5741L19.4984 11.3794L16.4448 12.8957C15.9511 13.1408 15.3521 12.9402 15.1056 12.4472L12 6.23607Z"/>
</svg>
