<svg viewBox="0 0 32 32" xmlns="http://www.w3.org/2000/svg">
    <path d="M24.36 6.307c-1.741-1.741-4.437-1.743-6.18-0.006l-0.006 0.006-9.86 9.86c-2.428 2.554-2.405 6.586-0.015 8.985 2.557 2.432 6.596 2.406 8.994 0.008l7.067-7.067c0.391-0.391 1.024-0.391 1.414 0s0.391 1.024 0 1.414l-7.067 7.067c-3.199 3.199-8.487 3.176-11.798 0.016l-0.017-0.016c-3.199-3.199-3.176-8.487-0.016-11.798 0.008-0.008 0.016-0.016 0.024-0.024l9.859-9.859c2.524-2.524 6.49-2.524 9.014 0s2.524 6.49 0 9.014c-0.107 0.107-0.233 0.185-0.367 0.234l-8.566 8.566c-1.696 1.696-4.48 1.758-6.099-0.019-1.677-1.697-1.733-4.466 0.036-6.080l6.116-6.116c0.391-0.391 1.024-0.391 1.414 0s0.391 1.024 0 1.414l-6.133 6.133c-0.012 0.012-0.025 0.025-0.038 0.036-0.87 0.783-0.927 2.252 0.038 3.216l-0.707 0.707 0.743-0.669c0.783 0.87 2.252 0.927 3.216-0.038l8.933-8.933c0.093-0.093 0.199-0.164 0.313-0.212 1.423-1.739 1.318-4.209-0.313-5.84z"></path>
</svg>
