<svg viewBox="0 0 24 24" xmlns="http://www.w3.org/2000/svg">
    <path fill-rule="evenodd" clip-rule="evenodd"
          d="M11.7683 3.60196C13.923 1.46601 17.3251 1.46601 19.4798 3.60196C21.6393 5.7427 21.6393 9.13021 19.4798 11.271L19.4744 11.2762L13.23 17.374C11.6844 18.903 9.09426 19.0111 7.54142 17.3398C6.02286 15.8016 5.92349 13.2436 7.5998 11.7085L11.8615 7.48385C12.2538 7.09503 12.8869 7.0978 13.2757 7.49003C13.6645 7.88226 13.6618 8.51542 13.2696 8.90423L8.99273 13.1438C8.9819 13.1546 8.97082 13.1651 8.95951 13.1753C8.18608 13.8748 8.16352 15.1312 8.97187 15.942C8.98137 15.9515 8.99068 15.9612 8.99979 15.9711C9.71264 16.7462 11.003 16.7654 11.8249 15.9507L11.8302 15.9454L18.0743 9.84808C19.442 8.48968 19.4412 6.37981 18.0718 5.02234C16.6972 3.65976 14.5531 3.65922 13.1779 5.02074L13.1763 5.02234L13.1749 5.02376L13.1716 5.0271L6.27897 11.8597C4.43672 13.7759 4.44451 16.8105 6.27286 18.6272L6.27574 18.63C8.21515 20.4611 11.2934 20.4519 13.1302 18.6311L18.0718 13.7325C18.464 13.3437 19.0972 13.3464 19.486 13.7387C19.8748 14.1309 19.872 14.764 19.4798 15.1529L14.5382 20.0514C11.9018 22.6649 7.58785 22.625 4.89706 20.0789L4.88858 20.0709L4.86869 20.0515C2.22734 17.4331 2.26786 13.1419 4.84105 10.4696C4.85192 10.4583 4.86292 10.4472 4.87402 10.4363L11.7619 3.60835L11.7683 3.60196Z"/>
</svg>
