<svg viewBox="0 0 34 34" xmlns="http://www.w3.org/2000/svg">
<path fill-rule="evenodd" clip-rule="evenodd" d="M16.0001 29.3332C23.3639 29.3332 29.3334 23.3636 29.3334 15.9998C29.3334 8.63604 23.3639 2.6665 16.0001 2.6665C8.63628 2.6665 2.66675 8.63604 2.66675 15.9998C2.66675 23.3636 8.63628 29.3332 16.0001 29.3332ZM17.3334 9.33317C17.3334 8.59679 16.7365 7.99984 16.0001 7.99984C15.2637 7.99984 14.6667 8.59679 14.6667 9.33317V16.6665C14.6667 17.4029 15.2637 17.9998 16.0001 17.9998C16.7365 17.9998 17.3334 17.4029 17.3334 16.6665V9.33317ZM16.0001 20.6665C16.7365 20.6665 17.3334 21.2635 17.3334 21.9998V22.6665C17.3334 23.4029 16.7365 23.9998 16.0001 23.9998C15.2637 23.9998 14.6667 23.4029 14.6667 22.6665V21.9998C14.6667 21.2635 15.2637 20.6665 16.0001 20.6665Z"/>
</svg>
