<svg viewBox="0 0 25 25" xmlns="http://www.w3.org/2000/svg">
    <path d="M8.83448 1.63599H15.344L8.58648 21.6577C8.51702 21.8635 8.3848 22.0423 8.20841 22.1689C8.03203 22.2956 7.82037 22.3637 7.60323 22.3637H2.53723C2.3727 22.3638 2.21054 22.3246 2.06415 22.2495C1.91776 22.1744 1.79136 22.0656 1.69539 21.9319C1.59943 21.7983 1.53666 21.6437 1.51229 21.481C1.48792 21.3183 1.50263 21.1521 1.55523 20.9962L7.85098 2.34199C7.9204 2.13617 8.05264 1.95731 8.22908 1.83061C8.40552 1.70391 8.61726 1.636 8.83448 1.63599Z"
          fill="#292E3D" style="fill:#292E3D;fill:color(display-p3 0.1600 0.1800 0.2400);fill-opacity:1;"/>
    <path d="M18.2937 15.0652H7.9712C7.87523 15.0651 7.78146 15.0939 7.70209 15.1479C7.62272 15.2018 7.56144 15.2784 7.52623 15.3677C7.49103 15.457 7.48352 15.5548 7.50469 15.6484C7.52587 15.742 7.57474 15.8271 7.64495 15.8925L14.2779 22.0835C14.4711 22.2636 14.7253 22.3638 14.9894 22.3637H20.8344L18.2937 15.0652Z"
          fill="#0078D4" style="fill:#0078D4;fill:color(display-p3 0.0000 0.4706 0.8314);fill-opacity:1;"/>
    <path d="M8.83449 1.63599C8.61491 1.63515 8.4008 1.70454 8.22345 1.83403C8.04611 1.96352 7.91481 2.14633 7.84874 2.35574L1.56299 20.9792C1.50686 21.1357 1.48924 21.3034 1.51162 21.4681C1.534 21.6328 1.59571 21.7897 1.69155 21.9255C1.78739 22.0613 1.91453 22.172 2.06221 22.2483C2.20989 22.3246 2.37377 22.3642 2.53999 22.3637H7.73674C7.93029 22.3292 8.1112 22.2438 8.26097 22.1164C8.41075 21.9891 8.52403 21.8242 8.58924 21.6387L9.84274 17.9445L14.3202 22.1207C14.5079 22.2759 14.7433 22.3618 14.9867 22.3637H20.81L18.256 15.0652L10.8107 15.067L15.3675 1.63599H8.83449Z"
          fill="url(#paint0_linear_1403_1215)" style=""/>
    <path d="M17.1487 2.34099C17.0794 2.1355 16.9474 1.95693 16.7712 1.83046C16.595 1.70398 16.3836 1.63596 16.1667 1.63599H8.91199C9.12885 1.636 9.34024 1.70403 9.51641 1.8305C9.69257 1.95697 9.82463 2.13552 9.89399 2.34099L16.19 20.996C16.2426 21.1519 16.2574 21.3181 16.233 21.4809C16.2087 21.6436 16.1459 21.7982 16.0499 21.9319C15.954 22.0656 15.8276 22.1745 15.6812 22.2497C15.5347 22.3248 15.3726 22.364 15.208 22.364H22.463C22.6275 22.3639 22.7897 22.3247 22.9361 22.2496C23.0824 22.1744 23.2088 22.0655 23.3048 21.9318C23.4007 21.7981 23.4634 21.6435 23.4878 21.4808C23.5121 21.3181 23.4974 21.1519 23.4447 20.996L17.1487 2.34099Z"
          fill="url(#paint1_linear_1403_1215)" style=""/>
    <defs>
        <linearGradient id="paint0_linear_1403_1215" x1="13.3187" y1="12.4792" x2="11.755" y2="13.008"
                        gradientUnits="userSpaceOnUse">
            <stop stop-opacity="0.3" style="stop-color:black;stop-color:black;stop-opacity:0.3;"/>
            <stop offset="0.071" stop-opacity="0.2" style="stop-color:black;stop-color:black;stop-opacity:0.2;"/>
            <stop offset="0.321" stop-opacity="0.1" style="stop-color:black;stop-color:black;stop-opacity:0.1;"/>
            <stop offset="0.623" stop-opacity="0.05" style="stop-color:black;stop-color:black;stop-opacity:0.05;"/>
            <stop offset="1" stop-opacity="0" style="stop-color:none;stop-color:none;stop-opacity:0;"/>
        </linearGradient>
        <linearGradient id="paint1_linear_1403_1215" x1="12.4587" y1="2.58949" x2="19.8795" y2="22.3597"
                        gradientUnits="userSpaceOnUse">
            <stop stop-color="#3CCBF4"
                  style="stop-color:#3CCBF4;stop-color:color(display-p3 0.2353 0.7961 0.9569);stop-opacity:1;"/>
            <stop offset="1" stop-color="#2892DF"
                  style="stop-color:#2892DF;stop-color:color(display-p3 0.1569 0.5725 0.8745);stop-opacity:1;"/>
        </linearGradient>
    </defs>
</svg>
