<svg viewBox="0 0 32 32" xmlns="http://www.w3.org/2000/svg">
    <path d="M13.458 6.943c0.349 0.369 0.349 0.966 0 1.335l-6.41 6.778h20.060c0.493 0 0.893 0.423 0.893 0.944s-0.4 0.944-0.893 0.944h-20.060l6.41 6.778c0.349 0.369 0.349 0.966 0 1.335s-0.914 0.369-1.262 0l-7.934-8.39c-0.096-0.101-0.165-0.22-0.208-0.346-0.027-0.079-0.044-0.163-0.050-0.25-0.003-0.045-0.003-0.091-0-0.136 0.006-0.098 0.027-0.193 0.059-0.28 0.033-0.089 0.080-0.175 0.14-0.252 0.019-0.024 0.039-0.048 0.060-0.070l7.934-8.39c0.349-0.369 0.914-0.369 1.262 0z"></path>
</svg>
