<svg viewBox="0 0 24 24" xmlns="http://www.w3.org/2000/svg">
    <path d="M3.0036 12.0854C3.01961 12.2746 3.0883 12.4489 3.19496 12.5933C3.20254 12.6036 3.21033 12.6138 3.21833 12.6238L3.22969 12.6379C3.29681 12.7191 3.37536 12.7878 3.46172 12.8429C3.49819 12.8662 3.53627 12.8873 3.57576 12.9058C3.79005 13.012 3.99207 13.0994 4.19575 13.1875C4.61196 13.3676 5.03517 13.5506 5.58446 13.9037C6.34345 14.3917 7.24436 15.169 8.16817 16.5548C8.47452 17.0143 9.09539 17.1385 9.55492 16.8321C10.0144 16.5258 10.1386 15.9049 9.83227 15.4454C9.12214 14.3802 8.40205 13.5944 7.70962 13H20C20.5523 13 21 12.5523 21 12C21 11.4477 20.5523 11 20 11H7.70981C8.40218 10.4057 9.12221 9.6199 9.83227 8.55481C10.1386 8.09528 10.0144 7.47441 9.55492 7.16806C9.09539 6.8617 8.47452 6.98588 8.16817 7.44541C7.24436 8.83111 6.34345 9.60851 5.58446 10.0964C5.03517 10.4495 4.61196 10.6326 4.19575 10.8126C3.9938 10.9 3.79348 10.9866 3.58121 11.0916C3.51282 11.1232 3.44859 11.1623 3.3896 11.2078C3.33313 11.2513 3.2809 11.3011 3.23411 11.357C3.10143 11.5149 3.01666 11.7143 3.00221 11.9331"/>
    <path d="M3 12.0001C2.99998 12.0285 3.00117 12.057 3.0036 12.0854L3 12.0001Z"/>
</svg>
