<svg viewBox="0 0 24 24" xmlns="http://www.w3.org/2000/svg">
    <path d="M11.9999 4C9.30219 4 7.1719 6.09729 7.1719 8.5507V12.7913L7.17168 12.8053C7.16595 14.0371 6.74387 15.2293 5.8847 16.1674H18.1151C17.2559 15.2293 16.8338 14.0371 16.8281 12.8053L16.8278 12.7798L16.8279 8.5507C16.8279 6.09729 14.6976 4 11.9999 4ZM5.1719 8.5507C5.1719 4.90196 8.29061 2 11.9999 2C15.7092 2 18.8279 4.90196 18.8279 8.5507V12.7741L18.8281 12.7935C18.8319 13.7647 19.237 14.6405 20.0638 15.236L20.0709 15.2412L20.3681 15.4299C20.4018 15.4513 20.4343 15.4748 20.4653 15.5001C21.5636 16.3987 20.879 18.1674 19.4374 18.1674H4.56233C3.12076 18.1674 2.43616 16.3987 3.53453 15.5001C3.56548 15.4748 3.59793 15.4513 3.6317 15.4299L3.92892 15.2412L3.93595 15.236C4.76274 14.6405 5.16789 13.7647 5.17171 12.7935L5.17174 12.786L5.1719 12.7741V8.5507ZM9.84969 21C9.84969 20.4477 10.2974 20 10.8497 20H13.1491C13.7014 20 14.1491 20.4477 14.1491 21C14.1491 21.5523 13.7014 22 13.1491 22H10.8497C10.2974 22 9.84969 21.5523 9.84969 21Z"/>
</svg>
