<svg viewBox="0 0 32 32" xmlns="http://www.w3.org/2000/svg">
    <path d="M6.705 11.897c0-5.079 4.18-9.231 9.295-9.231s9.295 4.152 9.295 9.231v5.449l0 0.021c0 1.073 0.419 1.978 1.219 2.583l0.386 0.255c0.021 0.014 0.041 0.028 0.061 0.044 2.040 1.576 0.869 4.844-1.736 4.844h-18.452c-2.605 0-3.776-3.268-1.736-4.844 0.020-0.015 0.040-0.030 0.061-0.044l0.386-0.255c0.8-0.606 1.219-1.51 1.219-2.583l0-0.021v-5.449zM25.226 23.043c0.688 0 0.899-0.806 0.489-1.155l-0.374-0.248c-0.022-0.015-0.043-0.030-0.064-0.046-1.372-1.031-2.042-2.566-2.048-4.204l-0-0.023v-5.47c0-3.946-3.256-7.179-7.229-7.179s-7.229 3.233-7.229 7.179v5.47l-0 0.023c-0.006 1.638-0.676 3.173-2.048 4.204-0.020 0.016-0.042 0.031-0.064 0.046l-0.374 0.248c-0.409 0.349-0.199 1.155 0.489 1.155h18.452z"></path>
    <path d="M13.934 27.282h4.131c0.57 0 1.033 0.459 1.033 1.026s-0.462 1.026-1.033 1.026h-4.131c-0.57 0-1.033-0.459-1.033-1.026s0.462-1.026 1.033-1.026z"></path>
</svg>
