<svg viewBox="0 0 32 32" xmlns="http://www.w3.org/2000/svg">
    <path d="M19.173 5.333c0.795 0 1.441 0.647 1.441 1.441v1.874h4.613c0.478 0 0.865 0.387 0.865 0.865s-0.387 0.865-0.865 0.865h-1.226l-1.315 14.98c-0.074 0.738-0.705 1.308-1.438 1.308h-10.494c-0.733 0-1.364-0.57-1.437-1.297l-1.315-14.99h-1.226c-0.478 0-0.865-0.387-0.865-0.865s0.387-0.865 0.865-0.865h4.612v-1.874c0-0.795 0.647-1.441 1.441-1.441h6.342zM18.884 8.649v-1.586h-5.766v1.586h5.766zM22.264 10.379h-12.526l1.277 14.558h9.971l1.277-14.558z"></path>
</svg>
