<svg viewBox="0 0 24 24" xmlns="http://www.w3.org/2000/svg">
    <path fill-rule="evenodd" clip-rule="evenodd" d="M10 2C8.34315 2 7 3.34315 7 5C7 5.35064 7.06015 5.68722 7.17071 6H3C2.44772 6 2 6.44772 2 7C2 7.55228 2.44772 8 3 8H4.17071C4.06015 8.31278 4 8.64936 4 9L5 19C5 20.6569 6.34315 22 8 22H16C17.6569 22 19 20.6569 19 19L20 9C20 8.64936 19.9398 8.31278 19.8293 8H21C21.5523 8 22 7.55228 22 7C22 6.44772 21.5523 6 21 6H16.8293C16.9398 5.68722 17 5.35064 17 5C17 3.34315 15.6569 2 14 2H10ZM14 6C14.5523 6 15 5.55228 15 5C15 4.44772 14.5523 4 14 4H10C9.44772 4 9 4.44772 9 5C9 5.55228 9.44772 6 10 6H14ZM7 8C6.44772 8 6 8.44772 6 9L7 19C7 19.5523 7.44772 20 8 20H16C16.5523 20 17 19.5523 17 19L18 9C18 8.44772 17.5523 8 17 8H7Z" />
</svg>
