<svg viewBox="0 0 24 24" xmlns="http://www.w3.org/2000/svg">
    <path fill-rule="evenodd" clip-rule="evenodd"
          d="M7.79615 1.56818C7.98648 1.31684 8.34564 1 8.88327 1C9.43555 1 9.88327 1.44772 9.88327 2C9.88327 2.3825 9.66852 2.71484 9.35301 2.88303L9.34559 2.90747C9.33705 2.93646 9.32883 2.96736 9.32096 3H14.0676C14.1004 2.76997 14.146 2.5473 14.2063 2.34253C14.2778 2.09969 14.3893 1.814 14.5754 1.56818C14.7658 1.31684 15.1249 1 15.6626 1C16.2148 1 16.6626 1.44772 16.6626 2C16.6626 2.3825 16.4478 2.71484 16.1323 2.88303L16.1249 2.90747C16.1163 2.93646 16.1081 2.96736 16.1003 3H18C20.2091 3 22 4.79086 22 7V18C22 20.2091 20.2091 22 18 22H6C3.79086 22 2 20.2091 2 18V7C2 4.79086 3.79086 3 6 3H7.28829C7.32111 2.76997 7.36674 2.5473 7.42704 2.34253C7.49854 2.09969 7.61 1.814 7.79615 1.56818ZM14.0676 5C14.1005 5.23004 14.1461 5.45271 14.2064 5.65749C14.2779 5.90031 14.3894 6.18597 14.5755 6.43178C14.7657 6.68306 15.1249 7 15.6626 7C16.2148 7 16.6626 6.55228 16.6626 6C16.6626 5.61753 16.4478 5.28522 16.1324 5.11701L16.1249 5.09251C16.1164 5.06353 16.1082 5.03264 16.1003 5H18C19.1046 5 20 5.89543 20 7V8H4V7C4 5.89543 4.89543 5 6 5H7.28834C7.32116 5.23004 7.3668 5.45271 7.4271 5.65749C7.49861 5.90031 7.61006 6.18597 7.79617 6.43178C7.98644 6.68306 8.34558 7 8.88327 7C9.43555 7 9.88327 6.55228 9.88327 6C9.88327 5.61753 9.66855 5.28522 9.35309 5.11701L9.34565 5.09251C9.33711 5.06353 9.32889 5.03264 9.32102 5H14.0676ZM20 10V18C20 19.1046 19.1046 20 18 20H6C4.89543 20 4 19.1046 4 18V10H20Z"/>
</svg>
