<svg viewBox="0 0 24 24" xmlns="http://www.w3.org/2000/svg">
    <path fill-rule="evenodd" clip-rule="evenodd"
          d="M9.39964 3.10134C7.91438 1.6329 5.60827 1.6329 4.12302 3.10134L3.42124 3.79518C2.35115 4.85315 1.69091 6.54213 2.14584 8.29802C2.73098 11.2318 4.41754 14.3941 7.14329 16.9861C9.7479 19.5568 12.9525 21.3385 15.9567 21.9097L15.9741 21.9128C17.6267 22.2099 19.2103 21.7455 20.4276 20.5419L21.1294 19.8481C21.2235 19.7551 21.3067 19.6516 21.3775 19.5396C21.8437 18.8023 22.0353 17.9188 21.9954 17.0906C21.9552 16.2554 21.6712 15.333 21.0089 14.5846C20.9832 14.5555 20.9565 14.5273 20.9289 14.5001L19.7258 13.3106C18.4411 12.0404 16.4357 12.0404 15.151 13.3106L14.7373 13.7196C13.7961 13.2183 12.8562 12.5651 12.1065 11.8238C11.2447 10.9718 10.5972 10.1021 10.1724 9.27131L10.5024 8.94496C11.1223 8.33215 11.5284 7.52907 11.5575 6.63728C11.5869 5.73866 11.2259 4.90692 10.6027 4.29078L9.39964 3.10134ZM5.52916 4.52359C6.23525 3.82549 7.28741 3.82549 7.9935 4.52359L9.19655 5.71302C9.45095 5.96453 9.56854 6.26745 9.5586 6.57206C9.54863 6.87782 9.40888 7.21368 9.0963 7.52272L8.29426 8.31568C8.16411 8.44435 8.06828 8.60333 8.01793 8.77637C7.95604 8.98908 7.96653 9.21632 8.04775 9.42241C8.56777 10.7419 9.48869 12.0481 10.7004 13.2461C11.8074 14.3406 13.2047 15.2347 14.5069 15.8383C14.7675 15.959 15.0674 15.962 15.3302 15.8463C15.4416 15.7973 15.5539 15.7248 15.6549 15.625L16.5571 14.7329C17.0627 14.233 17.8141 14.233 18.3197 14.7329L19.5166 15.9162C19.818 16.2601 19.9752 16.7174 19.9978 17.1868C20.02 17.6492 19.9107 18.104 19.7019 18.447L19.0215 19.1197C18.279 19.8537 17.3568 20.1293 16.3279 19.9444L16.3254 19.9439C13.7769 19.4581 10.9164 17.9023 8.54193 15.5565L8.52787 15.5428C6.06806 13.2062 4.59644 10.3919 4.10196 7.88033C4.09767 7.85856 4.09266 7.83693 4.08694 7.81549C3.82621 6.83917 4.18471 5.85281 4.82738 5.21742L5.52916 4.52359Z"/>
    <path d="M20.0075 3.99254L20.0063 2.17989C20.006 1.62461 19.5555 1.17418 19.0003 1.17383C18.445 1.17348 17.9951 1.62333 17.9955 2.17861L17.9966 3.99769L16.1797 3.99654C15.6244 3.99619 15.1745 4.44605 15.1749 5.00133C15.1752 5.55661 15.6257 6.00704 16.1809 6.00739L17.9915 6.00853L17.9926 7.81908C17.993 8.37436 18.4434 8.82478 18.9987 8.82513C19.554 8.82549 20.0038 8.37563 20.0035 7.82035L20.0023 6.00338L21.8214 6.00453C22.3767 6.00488 22.8265 5.55502 22.8262 4.99975C22.8258 4.44447 22.3754 3.99404 21.8201 3.99369L20.0075 3.99254Z"/>
</svg>
