<svg viewBox="0 0 24 24" xmlns="http://www.w3.org/2000/svg">
    <path fill-rule="evenodd" clip-rule="evenodd"
          d="M12 4.57523L10.7174 3.29429C10.3246 2.9019 9.68756 2.9019 9.29467 3.29429C8.90178 3.68669 8.90178 4.32288 9.29467 4.71528L10.5818 6.00075L9.29616 7.28472C8.90327 7.67712 8.90327 8.31331 9.29616 8.70571C9.68905 9.0981 10.3261 9.0981 10.7189 8.70571L12 7.42627L13.2811 8.70571C13.674 9.0981 14.311 9.0981 14.7038 8.7057C15.0967 8.31331 15.0967 7.67712 14.7038 7.28473L13.4182 6.00075L14.7053 4.71528C15.0982 4.32288 15.0982 3.68669 14.7053 3.2943C14.3124 2.9019 13.6754 2.9019 13.2826 3.2943L12 4.57523ZM2.67743 20.4508C3.16641 20.9127 3.89976 21.0807 4.91945 20.9644C6.11929 20.8275 6.89027 20.5443 7.34579 20.0732C7.91467 19.4848 7.90526 18.7285 7.89526 17.9276C7.89422 17.8459 7.89321 17.7629 7.8927 17.6783C7.89245 17.6296 7.90274 17.5625 7.98572 17.4767C8.22698 17.2271 9.06834 16.8077 11.9914 16.8019C13.2593 16.8 14.2623 16.8772 14.9725 17.0314C15.6783 17.1848 16.1003 17.4219 16.1014 17.6661C16.1019 17.75 16.1017 17.8326 16.1016 17.9139C16.1003 18.6295 16.0992 19.3054 16.5104 19.8642C16.9471 20.4577 17.7494 20.7892 19.1114 20.9391C20.1659 21.0564 20.9126 20.8712 21.3943 20.373C22.048 19.6968 22.0153 18.6179 21.989 17.7511C21.9842 17.5983 21.9799 17.454 21.979 17.3172C21.9741 16.2987 20.9137 15.1992 19.1425 14.3761C17.224 13.4843 14.6767 12.9956 11.9699 13C7.15325 13.0084 4.00247 14.5025 2.76789 15.7794C2.26897 16.2955 2.00682 16.8385 2.0097 17.35C2.01051 17.4881 2.00788 17.6337 2.00509 17.7873C1.98889 18.6757 1.96874 19.7812 2.67743 20.4508Z"/>
</svg>
