<svg viewBox="0 0 24 24" xmlns="http://www.w3.org/2000/svg">
    <path fill-rule="evenodd" clip-rule="evenodd"
          d="M9.39964 3.10133C7.91438 1.63289 5.60827 1.63289 4.12302 3.10133L3.42124 3.79517C2.35115 4.85314 1.69091 6.54212 2.14584 8.298C2.73098 11.2318 4.41754 14.3941 7.14329 16.9861C9.7479 19.5567 12.9525 21.3385 15.9567 21.9097L15.9741 21.9128C17.6267 22.2099 19.2103 21.7455 20.4276 20.5419L21.1294 19.8481C21.2235 19.7551 21.3067 19.6516 21.3775 19.5396C21.8437 18.8023 22.0353 17.9188 21.9954 17.0906C21.9552 16.2553 21.6712 15.333 21.0089 14.5846C20.9832 14.5555 20.9565 14.5273 20.9289 14.5001L19.7258 13.3106C18.4411 12.0404 16.4357 12.0404 15.151 13.3106L14.7373 13.7196C13.7961 13.2183 12.8562 12.5651 12.1065 11.8238C11.2447 10.9718 10.5972 10.1021 10.1724 9.27129L10.5024 8.94495C11.1223 8.33214 11.5284 7.52905 11.5575 6.63726C11.5869 5.73865 11.2259 4.9069 10.6027 4.29076L9.39964 3.10133ZM5.52916 4.52357C6.23525 3.82548 7.28741 3.82548 7.9935 4.52357L9.19655 5.713C9.45095 5.96452 9.56854 6.26744 9.5586 6.57204C9.54863 6.8778 9.40888 7.21366 9.0963 7.52271L8.29426 8.31566C8.16411 8.44433 8.06828 8.60332 8.01793 8.77636C7.95604 8.98907 7.96653 9.2163 8.04775 9.4224C8.56777 10.7419 9.48869 12.0481 10.7004 13.2461C11.8074 14.3406 13.2047 15.2347 14.5069 15.8383C14.7675 15.959 15.0674 15.9619 15.3302 15.8463C15.4416 15.7973 15.5539 15.7248 15.6549 15.6249L16.5571 14.7329C17.0627 14.233 17.8141 14.233 18.3197 14.7329L19.5166 15.9162C19.818 16.2601 19.9752 16.7174 19.9978 17.1868C20.02 17.6492 19.9107 18.104 19.7019 18.447L19.0215 19.1197C18.279 19.8537 17.3568 20.1293 16.3279 19.9444L16.3254 19.9439C13.7769 19.4581 10.9164 17.9022 8.54193 15.5565L8.52787 15.5428C6.06806 13.2061 4.59644 10.3918 4.10196 7.88032C4.09767 7.85854 4.09266 7.83692 4.08694 7.81548C3.82621 6.83916 4.18471 5.85279 4.82738 5.21741L5.52916 4.52357ZM21.705 7.99273C21.3116 8.38607 20.6739 8.38607 20.2806 7.99273C19.9001 7.6123 19.7132 7.07469 19.6117 6.64319C19.5583 6.41624 19.519 6.17625 19.4927 5.93168L16.7194 8.70499C16.3261 9.09834 15.6884 9.09834 15.295 8.70499C14.9017 8.31165 14.9017 7.67391 15.295 7.28056L18.0683 4.50725C17.8237 4.48095 17.5838 4.44169 17.3568 4.38829C16.9253 4.28676 16.3877 4.09987 16.0073 3.71944C15.6139 3.32609 15.6139 2.68835 16.0073 2.29501C16.4006 1.90166 17.0384 1.90166 17.4317 2.29501C17.4257 2.28897 17.4264 2.28937 17.4359 2.29456C17.4646 2.31026 17.5737 2.36986 17.8182 2.4274C18.1059 2.4951 18.4716 2.53416 18.8561 2.53416C19.2407 2.53416 19.6063 2.4951 19.8941 2.4274C20.1386 2.36986 20.2477 2.31026 20.2764 2.29455C20.2859 2.28937 20.2866 2.28897 20.2806 2.29501C20.6739 1.90171 21.3116 1.90173 21.7049 2.29506C22.0983 2.68839 22.0983 3.32609 21.705 3.71944C21.711 3.7134 21.7106 3.71413 21.7054 3.72362C21.6897 3.75235 21.6301 3.86141 21.5726 4.10593C21.5049 4.39369 21.4658 4.75931 21.4658 5.14387C21.4658 5.52842 21.5049 5.89405 21.5726 6.18181C21.6301 6.42632 21.6897 6.53538 21.7054 6.56412C21.7106 6.5736 21.711 6.57433 21.705 6.5683C22.0983 6.96164 22.0983 7.59938 21.705 7.99273Z"/>
</svg>
