<svg viewBox="0 0 32 32" xmlns="http://www.w3.org/2000/svg">
    <path d="M5.992 4.549c1.456-1.443 3.675-1.443 5.13 0v0l1.144 1.134c1.46 1.447 1.46 3.659 0 5.106l-0.528 0.523c-0.276 0.389-0.284 0.752-0.179 0.959 0.004 0.007 0.007 0.015 0.011 0.023 0.821 1.764 1.912 3.385 3.413 4.873s3.137 2.57 4.917 3.385c0.008 0.004 0.015 0.007 0.022 0.011 0.251 0.124 0.599 0.061 0.797-0.135l0.572-0.567c1.456-1.443 3.674-1.443 5.13 0l1.144 1.134c0.013 0.012 0.025 0.025 0.037 0.039 0.642 0.727 0.943 1.655 0.986 2.528 0.043 0.865-0.164 1.764-0.65 2.439-0.026 0.036-0.055 0.069-0.086 0.1l-1.001 0.992c-1.334 1.322-3.029 1.824-4.852 1.495l-0.008-0.001v-0c-3.899-0.743-8.181-3.101-11.704-6.592-3.674-3.499-5.903-7.742-6.657-11.592-0.5-1.866 0.191-3.701 1.36-4.861l1.001-0.992zM9.996 5.685c-0.832-0.825-2.045-0.825-2.877 0l-1.001 0.992c-0.826 0.819-1.278 2.089-0.936 3.331 0.005 0.020 0.010 0.040 0.014 0.060 0.681 3.512 2.738 7.477 6.201 10.773l0.012 0.011c3.339 3.31 7.345 5.486 10.879 6.161 1.321 0.237 2.484-0.112 3.438-1.058l0.948-0.94c0.21-0.321 0.345-0.817 0.317-1.377-0.028-0.571-0.222-1.124-0.571-1.529l-1.123-1.114c-0.832-0.825-2.045-0.825-2.877 0l-0.572 0.567c-0.657 0.651-1.731 0.873-2.622 0.438-1.934-0.886-3.726-2.071-5.368-3.699s-2.838-3.406-3.732-5.324c-0.455-0.917-0.181-1.947 0.368-2.674 0.023-0.030 0.048-0.059 0.075-0.085l0.572-0.567c0.828-0.821 0.828-2.012 0-2.833l-1.144-1.134z"></path>
</svg>
