<svg viewBox="0 0 24 24" xmlns="http://www.w3.org/2000/svg">
    <path fill-rule="evenodd" clip-rule="evenodd"
          d="M21.9908 18.4655C21.916 17.6769 21.3984 16.8998 20.4083 16.0895C19.2434 15.136 18.344 14.6741 17.5779 14.636C16.6212 14.5883 16.0452 15.1809 15.4354 15.8084C15.3732 15.8725 15.3099 15.9374 15.2451 16.0032C15.2076 16.0411 15.1467 16.0838 15.0072 16.0769C14.6014 16.0567 13.5347 15.638 10.9498 13.062C9.82891 11.9442 9.00313 10.9991 8.49538 10.253C7.99078 9.51145 7.80141 8.95575 7.98903 8.76611C8.05344 8.70092 8.11741 8.63718 8.18036 8.57454C8.73424 8.02282 9.25737 7.50173 9.32609 6.70701C9.39903 5.86306 8.94686 4.89871 7.8603 3.58045C7.02003 2.55901 6.21778 2.04284 5.4076 2.00248C4.3082 1.94772 3.50362 2.8101 2.85722 3.50299C2.74336 3.62517 2.63577 3.74046 2.53085 3.84688C1.74844 4.63808 1.83519 6.42358 2.7628 8.62304C3.76758 11.0056 5.6388 13.6318 8.03171 16.0179C12.2903 20.2636 16.226 21.8909 18.3023 21.9943C19.1414 22.0361 19.7923 21.848 20.1849 21.4503C20.2908 21.3429 20.4057 21.2327 20.5268 21.1165C21.2274 20.4445 22.0992 19.6083 21.9908 18.4655ZM21.705 7.99273C21.3116 8.38607 20.6739 8.38607 20.2806 7.99273C19.9001 7.6123 19.7132 7.07469 19.6117 6.64319C19.5583 6.41624 19.519 6.17625 19.4927 5.93168L16.7194 8.70499C16.3261 9.09834 15.6884 9.09834 15.295 8.70499C14.9017 8.31165 14.9017 7.67391 15.295 7.28056L18.0683 4.50725C17.8237 4.48095 17.5838 4.44169 17.3568 4.38829C16.9253 4.28676 16.3877 4.09987 16.0073 3.71944C15.6139 3.32609 15.6139 2.68835 16.0073 2.29501C16.4006 1.90166 17.0384 1.90166 17.4317 2.29501C17.4257 2.28897 17.4264 2.28937 17.4359 2.29456C17.4646 2.31026 17.5737 2.36986 17.8182 2.4274C18.1059 2.4951 18.4716 2.53416 18.8561 2.53416C19.2407 2.53416 19.6063 2.4951 19.8941 2.4274C20.1386 2.36986 20.2477 2.31026 20.2764 2.29455C20.2859 2.28937 20.2866 2.28897 20.2806 2.29501C20.6739 1.90171 21.3116 1.90173 21.7049 2.29506C22.0983 2.68839 22.0983 3.32609 21.705 3.71944C21.711 3.7134 21.7106 3.71413 21.7054 3.72362C21.6897 3.75235 21.6301 3.86141 21.5726 4.10593C21.5049 4.39369 21.4658 4.75931 21.4658 5.14387C21.4658 5.52842 21.5049 5.89405 21.5726 6.18181C21.6301 6.42632 21.6898 6.5354 21.7055 6.56414C21.7106 6.5736 21.711 6.57433 21.705 6.5683C22.0983 6.96164 22.0983 7.59938 21.705 7.99273Z"/>
</svg>
