<svg viewBox="0 0 24 24" xmlns="http://www.w3.org/2000/svg">
    <path d="M4.0036 12.0852C4.01961 12.2744 4.0883 12.4486 4.19496 12.5931C4.20254 12.6034 4.21033 12.6136 4.21833 12.6236L4.22969 12.6376C4.29681 12.7189 4.37536 12.7876 4.46172 12.8427C4.49819 12.866 4.53627 12.887 4.57576 12.9056C4.79005 13.0118 4.99207 13.0992 5.19575 13.1873C5.61196 13.3673 6.03517 13.5504 6.58446 13.9035C7.34345 14.3914 8.24436 15.1688 9.16817 16.5545C9.47452 17.014 10.0954 17.1382 10.5549 16.8319C11.0144 16.5255 11.1386 15.9046 10.8323 15.4451C10.1221 14.3799 9.40205 13.5941 8.70962 12.9998H19C19.5523 12.9998 20 12.552 20 11.9998V7.99993C20 7.5 19.5 6.99969 19 6.99993C18.5 7.00017 18 7.44516 18 7.99976V10.4998C18 10.7759 17.7761 10.9998 17.5 10.9998H8.70981C9.40218 10.4054 10.1222 9.61965 10.8323 8.55456C11.1386 8.09503 11.0144 7.47416 10.5549 7.16781C10.0954 6.86146 9.47452 6.98563 9.16817 7.44516C8.24436 8.83087 7.34345 9.60826 6.58446 10.0962C6.03517 10.4493 5.61196 10.6324 5.19575 10.8124C4.9938 10.8997 4.79348 10.9864 4.58121 11.0914C4.51282 11.123 4.44859 11.1621 4.3896 11.2076C4.33313 11.2511 4.2809 11.3009 4.23411 11.3567C4.10143 11.5146 4.01666 11.7141 4.00221 11.9328"
          fill="#454E68"/>
    <path d="M4 11.9998C3.99998 12.0282 4.00117 12.0567 4.0036 12.0852L4 11.9998Z" fill="#454E68"/>
</svg>
