<svg viewBox="0 0 24 24" xmlns="http://www.w3.org/2000/svg">
    <path fill-rule="evenodd" clip-rule="evenodd"
          d="M20.4083 16.0895C21.3984 16.8998 21.916 17.6769 21.9908 18.4655C22.0992 19.6083 21.2274 20.4445 20.5268 21.1165C20.4057 21.2327 20.2908 21.3429 20.1849 21.4503C19.7923 21.848 19.1414 22.0361 18.3023 21.9943C16.226 21.8909 12.2903 20.2636 8.03171 16.0179C5.6388 13.6318 3.76758 11.0056 2.7628 8.62304C1.83519 6.42358 1.74844 4.63808 2.53085 3.84688C2.63577 3.74046 2.74336 3.62517 2.85722 3.50299C3.50362 2.8101 4.3082 1.94772 5.4076 2.00248C6.21778 2.04284 7.02003 2.55901 7.8603 3.58045C8.94686 4.89871 9.39903 5.86306 9.32609 6.70701C9.25737 7.50173 8.73424 8.02282 8.18036 8.57454C8.11741 8.63718 8.05344 8.70092 7.98903 8.76611C7.80141 8.95575 7.99078 9.51145 8.49538 10.253C9.00313 10.9991 9.82891 11.9442 10.9498 13.062C13.5347 15.638 14.6014 16.0567 15.0072 16.0769C15.1467 16.0838 15.2076 16.0411 15.2451 16.0032C15.3099 15.9374 15.3732 15.8725 15.4354 15.8084C16.0452 15.1809 16.6212 14.5883 17.5779 14.636C18.344 14.6741 19.2434 15.136 20.4083 16.0895ZM17.7174 2.29429L19 3.57523L20.2826 2.2943C20.6754 1.9019 21.3124 1.9019 21.7053 2.2943C22.0982 2.68669 22.0982 3.32288 21.7053 3.71528L20.4182 5.00075L21.7038 6.28473C22.0967 6.67712 22.0967 7.31331 21.7038 7.7057C21.311 8.0981 20.674 8.0981 20.2811 7.70571L19 6.42627L17.7189 7.70571C17.3261 8.0981 16.689 8.0981 16.2962 7.70571C15.9033 7.31331 15.9033 6.67712 16.2962 6.28472L17.5818 5.00075L16.2947 3.71528C15.9018 3.32288 15.9018 2.68669 16.2947 2.2943C16.6876 1.9019 17.3246 1.9019 17.7174 2.29429Z"/>
</svg>
