<svg viewBox="0 0 24 24" xmlns="http://www.w3.org/2000/svg">
    <path fill-rule="evenodd" clip-rule="evenodd"
          d="M20.4083 16.0895C21.3984 16.8998 21.916 17.6769 21.9908 18.4655C22.0992 19.6083 21.2274 20.4445 20.5268 21.1165C20.4057 21.2327 20.2908 21.3429 20.1849 21.4503C19.7923 21.848 19.1414 22.0361 18.3023 21.9943C16.226 21.8909 12.2903 20.2636 8.03171 16.0179C5.6388 13.6318 3.76758 11.0056 2.7628 8.62304C1.83519 6.42358 1.74844 4.63808 2.53085 3.84688C2.63577 3.74046 2.74336 3.62517 2.85722 3.50299C3.50362 2.8101 4.3082 1.94772 5.4076 2.00248C6.21778 2.04284 7.02003 2.55901 7.8603 3.58045C8.94686 4.89871 9.39903 5.86306 9.32609 6.70701C9.25737 7.50173 8.73424 8.02282 8.18036 8.57454C8.11741 8.63718 8.05344 8.70092 7.98903 8.76611C7.80141 8.95575 7.99078 9.51145 8.49538 10.253C9.00313 10.9991 9.82891 11.9442 10.9498 13.062C13.5347 15.638 14.6014 16.0567 15.0072 16.0769C15.1467 16.0838 15.2076 16.0411 15.2451 16.0032C15.3099 15.9374 15.3732 15.8725 15.4354 15.8084C16.0452 15.1809 16.6212 14.5883 17.5779 14.636C18.344 14.6741 19.2434 15.136 20.4083 16.0895Z"/>
    <path d="M16.7194 3.00727C16.3261 2.61393 15.6884 2.61393 15.295 3.00727C14.9017 3.40062 14.9017 4.03836 15.295 4.4317C15.289 4.42567 15.2894 4.4264 15.2945 4.43586C15.3102 4.4646 15.3699 4.57368 15.4274 4.81819C15.4951 5.10595 15.5342 5.47158 15.5342 5.85613C15.5342 6.24069 15.4951 6.60631 15.4274 6.89407C15.3699 7.13859 15.3103 7.24765 15.2946 7.27638C15.2894 7.28587 15.289 7.2866 15.295 7.28056C14.9017 7.67391 14.9017 8.31161 15.2951 8.70494C15.6884 9.09827 16.3261 9.09829 16.7194 8.70499C16.7134 8.71103 16.7141 8.71063 16.7236 8.70545C16.7523 8.68974 16.8614 8.63014 17.1059 8.5726C17.3937 8.5049 17.7593 8.46584 18.1439 8.46584C18.5284 8.46584 18.8941 8.5049 19.1818 8.5726C19.4263 8.63014 19.5354 8.68974 19.5641 8.70544C19.5736 8.71063 19.5743 8.71103 19.5683 8.70499C19.9616 9.09834 20.5994 9.09834 20.9927 8.70499C21.3861 8.31165 21.3861 7.67391 20.9927 7.28056C20.6123 6.90013 20.0747 6.71323 19.6432 6.61171C19.4162 6.55831 19.1763 6.51905 18.9317 6.49275L21.705 3.71944C22.0983 3.32609 22.0983 2.68835 21.705 2.29501C21.3116 1.90166 20.6739 1.90166 20.2806 2.29501L17.5073 5.06832C17.481 4.82375 17.4417 4.58376 17.3883 4.35681C17.2868 3.92531 17.0999 3.3877 16.7194 3.00727Z"/>
</svg>
