<svg viewBox="0 0 32 32" xmlns="http://www.w3.org/2000/svg">
    <path d="M23.697 6.828c-0.333-0.333-0.874-0.333-1.207 0l-10.231 10.231c-0.541-0.599-0.971-1.132-1.287-1.593-0.542-0.791-0.745-1.384-0.543-1.587 0.069-0.069 0.138-0.137 0.205-0.204 0.594-0.589 1.156-1.145 1.23-1.993 0.078-0.901-0.407-1.93-1.573-3.336-0.902-1.090-1.763-1.641-2.632-1.684-1.18-0.058-2.043 0.862-2.737 1.601-0.122 0.13-0.238 0.253-0.35 0.367-0.84 0.844-0.747 2.749 0.249 5.096 0.881 2.077 2.382 4.327 4.303 6.47l-4.837 4.837c-0.333 0.333-0.333 0.873 0 1.207s0.874 0.333 1.207 0l18.205-18.205c0.333-0.333 0.333-0.874 0-1.207z"></path>
    <path d="M25.455 24.229c-0.080-0.841-0.636-1.671-1.698-2.535-1.25-1.017-2.215-1.51-3.038-1.551-1.027-0.051-1.645 0.582-2.299 1.251-0.067 0.068-0.135 0.138-0.204 0.208-0.040 0.040-0.106 0.086-0.255 0.079-0.377-0.019-1.284-0.355-3.317-2.224l-3.14 3.141c4.168 3.804 7.933 5.295 9.993 5.397 0.901 0.045 1.599-0.156 2.020-0.58 0.114-0.115 0.237-0.232 0.367-0.356 0.752-0.717 1.687-1.609 1.571-2.829z"></path>
</svg>
