<svg viewBox="0 0 24 24" xmlns="http://www.w3.org/2000/svg">
<path fill-rule="evenodd" clip-rule="evenodd" d="M21.9908 18.4655C21.916 17.6769 21.3984 16.8998 20.4083 16.0895C19.2434 15.136 18.344 14.6741 17.5779 14.636C16.6212 14.5883 16.0452 15.1809 15.4354 15.8084C15.3732 15.8725 15.3099 15.9374 15.2451 16.0032C15.2076 16.0411 15.1467 16.0838 15.0072 16.0769C14.6014 16.0567 13.5347 15.638 10.9498 13.062C9.82891 11.9442 9.00313 10.9991 8.49538 10.253C7.99078 9.51145 7.80141 8.95575 7.98903 8.76611C8.05344 8.70092 8.11741 8.63718 8.18036 8.57454C8.73424 8.02282 9.25737 7.50173 9.32609 6.70701C9.39903 5.86306 8.94686 4.89871 7.8603 3.58045C7.02003 2.55901 6.21778 2.04284 5.4076 2.00248C4.3082 1.94772 3.50362 2.8101 2.85722 3.50299C2.74336 3.62517 2.63577 3.74046 2.53085 3.84688C1.74844 4.63808 1.83519 6.42358 2.7628 8.62304C3.76758 11.0056 5.6388 13.6318 8.03171 16.0179C12.2903 20.2636 16.226 21.8909 18.3023 21.9943C19.1414 22.0361 19.7923 21.848 20.1849 21.4503C20.2908 21.3429 20.4057 21.2327 20.5268 21.1165C21.2274 20.4445 22.0992 19.6083 21.9908 18.4655Z"/>
<path d="M15.4924 8.50755C15.0797 8.12737 14.5127 7.92829 14.0145 7.92829C13.4542 7.92829 13 7.4741 13 6.91383C13 6.35355 13.4542 5.89936 14.0145 5.89936C15.0166 5.89936 16.1107 6.28912 16.9252 7.06986L16.9277 7.0723L16.9301 7.07483C17.7109 7.88925 18.1006 8.98341 18.1006 9.98554C18.1006 10.5458 17.6464 11 17.0862 11C16.5259 11 16.0717 10.5458 16.0717 9.98554C16.0717 9.48731 15.8726 8.92029 15.4924 8.50755Z"/>
<path d="M18.2042 5.79577C17.0063 4.60258 15.5466 4.02892 14.0147 4.02892C13.4545 4.02892 13.0003 3.57473 13.0003 3.01446C13.0003 2.45419 13.4545 2 14.0147 2C16.088 2 18.0627 2.7897 19.6389 4.3611C21.2103 5.93729 22 7.91196 22 9.98526C22 10.5455 21.5458 10.9997 20.9855 10.9997C20.4253 10.9997 19.9711 10.5455 19.9711 9.98526C19.9711 8.45336 19.3974 6.99366 18.2042 5.79577Z"/>
</svg>
