<svg width="24" height="24" viewBox="0 0 24 24" fill="none" xmlns="http://www.w3.org/2000/svg">
<path d="M21.9908 18.4655C21.916 17.6769 21.3984 16.8998 20.4083 16.0895C19.2434 15.136 18.344 14.6741 17.5779 14.636C16.6212 14.5883 16.0452 15.1809 15.4354 15.8084C15.3732 15.8725 15.3099 15.9374 15.2451 16.0032C15.2076 16.0411 15.1467 16.0838 15.0072 16.0769C14.6014 16.0567 13.5347 15.638 10.9498 13.062C9.82891 11.9442 9.00313 10.9991 8.49538 10.253C7.99078 9.51145 7.80141 8.95575 7.98903 8.76611C8.05344 8.70092 8.11741 8.63718 8.18036 8.57454C8.73424 8.02282 9.25737 7.50173 9.32609 6.70701C9.39903 5.86306 8.94686 4.89871 7.8603 3.58045C7.02003 2.55901 6.21778 2.04284 5.4076 2.00248C4.3082 1.94772 3.50362 2.8101 2.85722 3.50299C2.74336 3.62517 2.63577 3.74046 2.53085 3.84688C1.74844 4.63808 1.83519 6.42358 2.7628 8.62304C3.76758 11.0056 5.6388 13.6318 8.03171 16.0179C12.2903 20.2636 16.226 21.8909 18.3023 21.9943C19.1414 22.0361 19.7923 21.848 20.1849 21.4503C20.2908 21.3429 20.4053 21.2331 20.5264 21.1169C21.2271 20.4449 22.0992 19.6086 21.9908 18.4655Z" fill="#00314D"/>
</svg>
