<svg viewBox="0 0 24 24" xmlns="http://www.w3.org/2000/svg">
<path fill-rule="evenodd" clip-rule="evenodd" d="M4.12302 3.10133C5.60827 1.63289 7.91438 1.63289 9.39964 3.10133L10.6027 4.29076C11.2259 4.9069 11.5869 5.73865 11.5575 6.63726C11.5284 7.52905 11.1223 8.33214 10.5024 8.94495L10.1724 9.27129C10.3601 9.63844 10.5913 10.0132 10.8653 10.3906L16.3254 5.713C16.7159 5.32248 17.3491 5.32248 17.7396 5.713C18.1301 6.10353 18.1301 6.73669 17.7396 7.12722L3.70711 19.7071C3.31658 20.0976 2.68342 20.0976 2.29289 19.7071C1.90237 19.3166 1.90237 18.6834 2.29289 18.2929L5.56054 15.2807C3.75623 13.0727 2.60779 10.6142 2.14584 8.298C1.69091 6.54212 2.35115 4.85314 3.42124 3.79517L4.12302 3.10133ZM7.03395 13.9224L9.38636 11.7539C8.81261 10.995 8.35857 10.2111 8.04775 9.4224C7.96653 9.2163 7.95604 8.98907 8.01793 8.77636C8.06828 8.60332 8.16411 8.44433 8.29426 8.31566L9.0963 7.52271C9.40888 7.21366 9.54863 6.8778 9.5586 6.57204C9.56854 6.26744 9.45095 5.96452 9.19655 5.713L7.9935 4.52357C7.28741 3.82548 6.23525 3.82548 5.52916 4.52357L4.82738 5.21741C4.18471 5.85279 3.82621 6.83916 4.08694 7.81548C4.09266 7.83692 4.09767 7.85854 4.10196 7.88032C4.48653 9.83359 5.46213 11.97 7.03395 13.9224ZM12.2589 13.1553C12.6214 12.7928 13.1959 12.7633 13.6211 13.0495C13.9849 13.2944 14.361 13.5192 14.7373 13.7196L15.151 13.3106C16.4357 12.0404 18.4411 12.0404 19.7258 13.3106L20.9289 14.5001C20.9565 14.5273 20.9832 14.5555 21.0089 14.5846C21.6712 15.333 21.9552 16.2553 21.9954 17.0906C22.0353 17.9188 21.8437 18.8023 21.3775 19.5396C21.3067 19.6516 21.2235 19.7551 21.1294 19.8481L20.4276 20.5419C19.2103 21.7455 17.6267 22.2099 15.9741 21.9128L15.9567 21.9097C13.4939 21.4415 10.8965 20.1597 8.60537 18.2967C8.16014 17.9347 8.14454 17.2697 8.55031 16.8639C8.92636 16.4879 9.5289 16.4734 9.9433 16.8067C11.9927 18.4551 14.2614 19.5504 16.3254 19.9439L16.3279 19.9444C17.3568 20.1293 18.279 19.8537 19.0215 19.1197L19.7019 18.447C19.9107 18.104 20.02 17.6492 19.9978 17.1868C19.9752 16.7174 19.818 16.2601 19.5166 15.9162L18.3197 14.7329C17.8141 14.233 17.0627 14.233 16.5571 14.7329L15.6549 15.6249C15.5539 15.7248 15.4416 15.7973 15.3302 15.8463C15.0674 15.9619 14.7675 15.959 14.5069 15.8383C13.7989 15.5101 13.0627 15.096 12.3603 14.6105C11.8702 14.2717 11.8376 13.5766 12.2589 13.1553Z"/>
</svg>
