<svg viewBox="0 0 32 32" xmlns="http://www.w3.org/2000/svg">
    <path d="M23.756 21.693c1.063 0.865 1.618 1.694 1.698 2.535 0.116 1.219-0.819 2.112-1.571 2.829-0.13 0.124-0.253 0.241-0.367 0.356-0.421 0.424-1.12 0.625-2.020 0.58-2.228-0.11-6.452-1.847-11.023-6.377-2.568-2.546-4.576-5.348-5.655-7.891-0.996-2.347-1.089-4.252-0.249-5.096 0.113-0.114 0.228-0.237 0.35-0.367 0.694-0.739 1.557-1.66 2.737-1.601 0.87 0.043 1.73 0.594 2.632 1.684 1.166 1.407 1.651 2.436 1.573 3.336-0.074 0.848-0.635 1.404-1.23 1.993-0.068 0.067-0.136 0.135-0.205 0.204-0.201 0.202 0.002 0.795 0.543 1.587 0.545 0.796 1.431 1.805 2.634 2.997 2.774 2.749 3.919 3.195 4.355 3.217 0.15 0.007 0.215-0.038 0.255-0.079 0.070-0.070 0.137-0.139 0.204-0.208 0.654-0.67 1.273-1.302 2.299-1.251 0.822 0.041 1.787 0.534 3.038 1.551z"></path>
    <path d="M24.915 6.667c0.231 0 0.419 0.186 0.419 0.415v4.115c0 0.37-0.451 0.555-0.715 0.293l-1.294-1.283c-0.013 0.014-0.027 0.029-0.041 0.043l-4.47 4.417c-0.409 0.405-1.071 0.405-1.48 0s-0.409-1.062 0-1.467l4.47-4.417c0.014-0.014 0.029-0.027 0.043-0.041l-1.38-1.368c-0.264-0.261-0.077-0.708 0.296-0.708h4.152z"></path>
</svg>
