<svg viewBox="0 0 24 24" xmlns="http://www.w3.org/2000/svg">
<path fill-rule="evenodd" clip-rule="evenodd" d="M10.7174 2.29429L12 3.57523L13.2826 2.29429C13.6754 1.9019 14.3124 1.9019 14.7053 2.29429C15.0982 2.68669 15.0982 3.32288 14.7053 3.71528L13.4182 5.00075L14.7038 6.28472C15.0967 6.67712 15.0967 7.31331 14.7038 7.70571C14.311 8.0981 13.6739 8.0981 13.2811 7.70571L12 6.42627L10.7189 7.70571C10.3261 8.0981 9.68905 8.0981 9.29616 7.70571C8.90327 7.31331 8.90327 6.67712 9.29616 6.28472L10.5818 5.00075L9.29467 3.71528C8.90178 3.32288 8.90178 2.68669 9.29467 2.29429C9.68756 1.9019 10.3246 1.9019 10.7174 2.29429ZM1.00525 18.3465C1.0162 20.3422 2.51895 21.9004 4.44368 21.9118L6.00271 21.921C6.8103 21.9257 7.58752 21.6077 8.15398 20.9807C8.71614 20.3585 8.97478 19.5414 8.97021 18.7085L8.96777 18.265C9.78599 17.9907 10.7747 17.8406 11.8915 17.8472C12.863 17.8529 13.9011 18.0466 14.8411 18.3438L14.8442 18.8997C14.8537 20.626 16.1604 21.9809 17.8253 21.9908L19.3844 22C19.4201 22.0002 19.4559 21.9992 19.4915 21.9969C20.4109 21.9388 21.197 21.5074 21.7674 20.9703C22.3332 20.4376 22.7839 19.7112 22.9607 18.898C22.9875 18.7745 23.0007 18.6483 23 18.522L22.9948 17.579C22.9858 15.9432 22.2565 14.5594 20.986 13.6435L20.9727 13.6339C18.6428 11.99 15.3935 11.0286 12.0212 11.0057C8.55592 10.9153 5.39624 11.9124 3.10318 13.4993C1.66254 14.3784 0.992174 15.9657 1.00007 17.4035L1.00525 18.3465ZM4.45417 20.0007C3.53915 19.9953 2.85353 19.2844 2.84832 18.3356L2.84314 17.3926C2.8384 16.5291 3.24753 15.6204 4.05364 15.1369C4.07134 15.1263 4.0887 15.1151 4.10568 15.1033C6.0645 13.7404 8.85736 12.8332 11.9829 12.9164L12.001 12.9167C15.0769 12.9361 17.9547 13.8176 19.932 15.2112L19.9339 15.2126C20.7249 15.7829 21.1462 16.5922 21.1517 17.5898L21.1567 18.5041C21.0693 18.8769 20.8442 19.2581 20.5284 19.5555C20.2078 19.8573 19.8074 20.0602 19.3868 20.0889L17.8358 20.0797C17.1806 20.0758 16.691 19.5681 16.6873 18.8888L16.6806 17.6764C16.6799 17.5407 16.654 17.4159 16.6133 17.3075C16.5174 17.0517 16.3201 16.8511 16.0716 16.7566C14.8297 16.2846 13.3365 15.9446 11.9019 15.9361C10.3317 15.9268 8.88048 16.1872 7.68177 16.7274C7.49454 16.8117 7.33963 16.9582 7.24136 17.1437C7.16141 17.2947 7.12026 17.4668 7.12122 17.6417L7.12713 18.7194C7.12944 19.1394 7.00165 19.4608 6.8089 19.6741C6.61689 19.8867 6.34287 20.0119 6.0132 20.0099L4.45417 20.0007Z"/>
</svg>
