<svg viewBox="0 0 24 24" xmlns="http://www.w3.org/2000/svg">
<path d="M17.511 9.11336C17.0293 9.3915 16.4133 9.22644 16.1351 8.74469C15.8661 8.27876 15.8247 7.7111 15.8384 7.26803C15.8455 7.03499 15.8697 6.79302 15.9076 6.54997L12.511 8.511C12.4331 8.55595 12.3518 8.58933 12.2689 8.61167C11.9747 8.76765 11.6092 8.77329 11.2995 8.59452L6.40056 5.76609C5.92227 5.48995 5.75839 4.87836 6.03453 4.40007C6.31067 3.92178 6.92227 3.7579 7.40056 4.03404L11.8185 6.58474L14.9004 4.80541C14.6709 4.71671 14.4493 4.61667 14.2439 4.50635C13.8534 4.2966 13.3825 3.97693 13.1135 3.511C12.8353 3.02926 13.0004 2.41325 13.4821 2.13511C13.9639 1.85697 14.5799 2.02203 14.858 2.50378C14.8538 2.49639 14.8544 2.49696 14.8622 2.50443C14.8859 2.52703 14.9758 2.61283 15.1971 2.73169C15.4575 2.87156 15.8006 3.00392 16.172 3.10345C16.5435 3.20298 16.9067 3.25989 17.2022 3.26896C17.4533 3.27668 17.5741 3.24733 17.6059 3.2396C17.6164 3.23705 17.6172 3.23685 17.6098 3.24112C18.0915 2.96303 18.7075 3.1281 18.9856 3.60982C19.2638 4.09155 19.0987 4.70753 18.617 4.98568C18.6244 4.98141 18.6238 4.98202 18.6164 4.98984C18.5938 5.01353 18.508 5.10344 18.3891 5.32474C18.2493 5.58517 18.1169 5.92823 18.0174 6.29968C17.9178 6.67113 17.8609 7.03441 17.8519 7.32988C17.8441 7.58096 17.8735 7.70172 17.8812 7.73354C17.8838 7.74405 17.884 7.74486 17.8797 7.73747C18.1578 8.21921 17.9928 8.83522 17.511 9.11336Z"/>
<path d="M4.91945 20.9644C3.89976 21.0807 3.16641 20.9127 2.67743 20.4508C1.96874 19.7812 1.98889 18.6757 2.00509 17.7873C2.00788 17.6337 2.01051 17.4881 2.0097 17.35C2.00682 16.8385 2.26897 16.2955 2.76789 15.7794C4.00247 14.5025 7.15325 13.0084 11.9699 13C14.6767 12.9956 17.224 13.4843 19.1425 14.3761C20.9137 15.1992 21.9741 16.2987 21.979 17.3172C21.9799 17.454 21.9842 17.5983 21.989 17.7511C22.0153 18.6179 22.048 19.6968 21.3943 20.373C20.9126 20.8712 20.1659 21.0564 19.1114 20.9391C17.7494 20.7892 16.9471 20.4577 16.5104 19.8642C16.0992 19.3054 16.1003 18.6295 16.1016 17.9139C16.1017 17.8326 16.1019 17.75 16.1014 17.6661C16.1003 17.4219 15.6783 17.1848 14.9725 17.0314C14.2623 16.8772 13.2593 16.8 11.9914 16.8019C9.06834 16.8077 8.22698 17.2271 7.98572 17.4767C7.90274 17.5625 7.89245 17.6296 7.8927 17.6783C7.89321 17.7629 7.89422 17.8459 7.89526 17.9276C7.90526 18.7285 7.91467 19.4848 7.34579 20.0732C6.89027 20.5443 6.11929 20.8275 4.91945 20.9644Z"/>
</svg>
