<svg viewBox="0 0 32 32" xmlns="http://www.w3.org/2000/svg">
    <path d="M5.978 5.479c1.45-1.45 3.663-1.45 5.114 0l1.138 1.138c1.45 1.45 1.45 3.663 0 5.114l-0.525 0.525c-0.275 0.391-0.284 0.758-0.179 0.97 0.004 0.007 0.007 0.015 0.011 0.023 0.817 1.77 1.902 3.397 3.395 4.89s3.12 2.578 4.889 3.395l0.014 0.007 0.008 0.004c0.245 0.122 0.587 0.062 0.783-0.134l0.569-0.569c1.45-1.45 3.663-1.45 5.114 0l1.138 1.138c0.013 0.013 0.025 0.026 0.036 0.039 0.638 0.729 0.937 1.658 0.979 2.532 0.042 0.866-0.163 1.766-0.646 2.442-0.026 0.036-0.054 0.070-0.085 0.101l-0.996 0.996c-1.327 1.327-3.016 1.832-4.833 1.501l-0.008-0.002c-3.88-0.746-8.141-3.113-11.644-6.614-3.655-3.511-5.871-7.766-6.62-11.627-0.497-1.868 0.188-3.707 1.352-4.87l0.996-0.996zM9.96 6.61c-0.825-0.825-2.026-0.825-2.851 0l-0.996 0.996c-0.821 0.821-1.273 2.098-0.932 3.348 0.005 0.020 0.010 0.039 0.014 0.059 0.678 3.525 2.725 7.504 6.168 10.81l0.012 0.012c3.321 3.321 7.305 5.503 10.817 6.179 1.31 0.237 2.464-0.112 3.412-1.059l0.943-0.943c0.21-0.323 0.344-0.823 0.317-1.386-0.028-0.575-0.222-1.131-0.569-1.538l-1.117-1.117c-0.825-0.825-2.026-0.825-2.851 0l-0.569 0.569c-0.654 0.654-1.727 0.879-2.618 0.44-1.924-0.889-3.707-2.078-5.34-3.711s-2.822-3.416-3.712-5.34c-0.451-0.916-0.18-1.946 0.366-2.674 0.023-0.030 0.048-0.059 0.074-0.086l0.569-0.569c0.825-0.825 0.825-2.025 0-2.851l-1.138-1.138zM27.232 4.768c0.312 0.312 0.312 0.819 0 1.131l-3.701 3.701 3.701 3.701c0.312 0.312 0.312 0.819 0 1.131s-0.819 0.312-1.131 0l-3.701-3.701-3.701 3.701c-0.312 0.312-0.819 0.312-1.131 0s-0.312-0.819 0-1.131l3.701-3.701-3.701-3.701c-0.312-0.312-0.312-0.819 0-1.131s0.819-0.312 1.131 0l3.701 3.701 3.701-3.701c0.312-0.312 0.819-0.312 1.131 0z"></path>
</svg>
