<svg viewBox="0 0 24 24" xmlns="http://www.w3.org/2000/svg">
    <path fill-rule="evenodd" clip-rule="evenodd"
          d="M9.39964 3.10133C7.91438 1.63289 5.60827 1.63289 4.12302 3.10133L3.42124 3.79517C2.35115 4.85314 1.69091 6.54212 2.14584 8.298C2.73098 11.2318 4.41754 14.3941 7.14329 16.9861C9.7479 19.5567 12.9525 21.3385 15.9567 21.9097L15.9741 21.9128C17.6267 22.2099 19.2103 21.7455 20.4276 20.5419L21.1294 19.8481C21.2235 19.7551 21.3067 19.6516 21.3775 19.5396C21.8437 18.8023 22.0353 17.9188 21.9954 17.0906C21.9552 16.2553 21.6712 15.333 21.0089 14.5846C20.9832 14.5555 20.9565 14.5273 20.9289 14.5001L19.7258 13.3106C18.4411 12.0404 16.4357 12.0404 15.151 13.3106L14.7373 13.7196C13.7961 13.2183 12.8562 12.5651 12.1065 11.8238C11.2447 10.9718 10.5972 10.1021 10.1724 9.27129L10.5024 8.94495C11.1223 8.33214 11.5284 7.52905 11.5575 6.63726C11.5869 5.73865 11.2259 4.9069 10.6027 4.29076L9.39964 3.10133ZM5.52916 4.52357C6.23525 3.82548 7.28741 3.82548 7.9935 4.52357L9.19655 5.713C9.45095 5.96452 9.56854 6.26744 9.5586 6.57204C9.54863 6.8778 9.40888 7.21366 9.0963 7.52271L8.29426 8.31566C8.16411 8.44433 8.06828 8.60332 8.01793 8.77636C7.95604 8.98907 7.96653 9.2163 8.04775 9.4224C8.56777 10.7419 9.48869 12.0481 10.7004 13.2461C11.8074 14.3406 13.2047 15.2347 14.5069 15.8383C14.7675 15.959 15.0674 15.9619 15.3302 15.8463C15.4416 15.7973 15.5539 15.7248 15.6549 15.6249L16.5571 14.7329C17.0627 14.233 17.8141 14.233 18.3197 14.7329L19.5166 15.9162C19.818 16.2601 19.9752 16.7174 19.9978 17.1868C20.02 17.6492 19.9107 18.104 19.7019 18.447L19.0215 19.1197C18.279 19.8537 17.3568 20.1293 16.3279 19.9444L16.3254 19.9439C13.7769 19.4581 10.9164 17.9022 8.54193 15.5565L8.52787 15.5428C6.06806 13.2061 4.59644 10.3918 4.10196 7.88032C4.09767 7.85854 4.09266 7.83692 4.08694 7.81548C3.82621 6.83916 4.18471 5.85279 4.82738 5.21741L5.52916 4.52357ZM15.4924 8.50755C15.0797 8.12737 14.5127 7.92829 14.0145 7.92829C13.4542 7.92829 13 7.4741 13 6.91383C13 6.35355 13.4542 5.89936 14.0145 5.89936C15.0166 5.89936 16.1107 6.28912 16.9252 7.06986L16.9277 7.0723L16.9301 7.07483C17.7109 7.88925 18.1006 8.98341 18.1006 9.98554C18.1006 10.5458 17.6464 11 17.0862 11C16.5259 11 16.0717 10.5458 16.0717 9.98554C16.0717 9.48731 15.8726 8.92029 15.4924 8.50755ZM18.2042 5.79577C17.0063 4.60258 15.5466 4.02892 14.0147 4.02892C13.4545 4.02892 13.0003 3.57473 13.0003 3.01446C13.0003 2.45419 13.4545 2 14.0147 2C16.088 2 18.0627 2.7897 19.6389 4.3611C21.2103 5.93729 22 7.91196 22 9.98526C22 10.5455 21.5458 10.9997 20.9855 10.9997C20.4253 10.9997 19.9711 10.5455 19.9711 9.98526C19.9711 8.45336 19.3974 6.99366 18.2042 5.79577Z"/>
</svg>
