<svg viewBox="0 0 24 24" xmlns="http://www.w3.org/2000/svg">
<path fill-rule="evenodd" clip-rule="evenodd" d="M16.1351 8.74469C16.4133 9.22644 17.0293 9.3915 17.511 9.11336C17.9928 8.83522 18.1578 8.21921 17.8797 7.73747C17.884 7.74486 17.8838 7.74405 17.8812 7.73354C17.8735 7.70172 17.8441 7.58096 17.8519 7.32988C17.8609 7.03441 17.9178 6.67113 18.0174 6.29968C18.1169 5.92823 18.2493 5.58517 18.3891 5.32474C18.508 5.10344 18.5938 5.01353 18.6164 4.98984C18.6238 4.98202 18.6244 4.98141 18.617 4.98568C19.0987 4.70753 19.2638 4.09155 18.9856 3.60982C18.7075 3.1281 18.0915 2.96303 17.6098 3.24112C17.6172 3.23685 17.6164 3.23705 17.6059 3.2396C17.5741 3.24733 17.4533 3.27668 17.2022 3.26896C16.9067 3.25989 16.5435 3.20298 16.172 3.10345C15.8006 3.00392 15.4575 2.87156 15.1971 2.73169C14.9758 2.61283 14.8859 2.52703 14.8622 2.50443C14.8544 2.49696 14.8538 2.49639 14.858 2.50378C14.5799 2.02203 13.9639 1.85697 13.4821 2.13511C13.0004 2.41325 12.8353 3.02926 13.1135 3.511C13.3825 3.97693 13.8534 4.2966 14.2439 4.50635C14.4493 4.61667 14.6709 4.71671 14.9004 4.80541L11.8185 6.58474L7.40056 4.03404C6.92227 3.7579 6.31067 3.92178 6.03453 4.40007C5.75839 4.87836 5.92227 5.48995 6.40056 5.76609L11.2995 8.59452C11.6092 8.77329 11.9747 8.76765 12.2689 8.61167C12.3518 8.58933 12.4331 8.55595 12.511 8.511L15.9076 6.54997C15.8697 6.79302 15.8455 7.03499 15.8384 7.26803C15.8247 7.7111 15.8661 8.27876 16.1351 8.74469ZM4.44368 21.9118C2.51895 21.9004 1.0162 20.3422 1.00525 18.3465L1.00007 17.4035C0.992174 15.9657 1.66254 14.3784 3.10318 13.4993C5.39624 11.9124 8.55592 10.9153 12.0212 11.0057C15.3935 11.0286 18.6428 11.99 20.9727 13.6339L20.986 13.6435C22.2565 14.5594 22.9858 15.9432 22.9948 17.579L23 18.522C23.0007 18.6483 22.9875 18.7745 22.9607 18.898C22.7839 19.7112 22.3332 20.4376 21.7674 20.9703C21.197 21.5074 20.4109 21.9388 19.4915 21.9969C19.4559 21.9992 19.4201 22.0002 19.3844 22L17.8253 21.9908C16.1604 21.9809 14.8537 20.626 14.8442 18.8997L14.8411 18.3438C13.9011 18.0466 12.863 17.8529 11.8915 17.8472C10.7747 17.8406 9.78599 17.9907 8.96777 18.265L8.97021 18.7085C8.97478 19.5414 8.71614 20.3585 8.15398 20.9807C7.58752 21.6077 6.8103 21.9257 6.00271 21.921L4.44368 21.9118ZM2.84832 18.3356C2.85353 19.2844 3.53915 19.9953 4.45417 20.0007L6.0132 20.0099C6.34287 20.0119 6.61689 19.8867 6.8089 19.6741C7.00165 19.4608 7.12944 19.1394 7.12713 18.7194L7.12122 17.6417C7.12026 17.4668 7.16141 17.2947 7.24136 17.1437C7.33963 16.9582 7.49454 16.8117 7.68177 16.7274C8.88048 16.1872 10.3317 15.9269 11.9019 15.9361C13.3365 15.9446 14.8297 16.2846 16.0716 16.7566C16.3201 16.8511 16.5174 17.0517 16.6133 17.3075C16.654 17.4159 16.6799 17.5407 16.6806 17.6764L16.6873 18.8888C16.691 19.5681 17.1806 20.0758 17.8358 20.0797L19.3868 20.0889C19.8074 20.0602 20.2078 19.8573 20.5284 19.5555C20.8442 19.2581 21.0693 18.8769 21.1567 18.5041L21.1517 17.5898C21.1462 16.5922 20.7249 15.7829 19.9339 15.2126L19.932 15.2112C17.9547 13.8176 15.0769 12.9361 12.001 12.9167L11.9829 12.9164C8.85736 12.8332 6.0645 13.7404 4.10568 15.1033C4.0887 15.1151 4.07134 15.1263 4.05364 15.1369C3.24753 15.6204 2.8384 16.5291 2.84314 17.3926L2.84832 18.3356Z"/>
</svg>
