<svg viewBox="0 0 24 24" xmlns="http://www.w3.org/2000/svg">
<path fill-rule="evenodd" clip-rule="evenodd" d="M19 8C20.6569 8 22 9.34315 22 11V19C22 20.6569 20.6569 22 19 22H5C3.34315 22 2 20.6569 2 19V11C2 9.34315 3.34315 8 5 8H19ZM15.6641 11.7529C15.2513 11.386 14.6199 11.4232 14.2529 11.8359L10.957 15.543L9.70703 14.293L9.63086 14.2246C9.23811 13.9043 8.65909 13.9269 8.29297 14.293C7.90244 14.6835 7.90244 15.3165 8.29297 15.707L9.54297 16.957C10.3566 17.7707 11.6876 17.732 12.4521 16.8721L15.7471 13.1641C16.1139 12.7513 16.0768 12.1198 15.6641 11.7529Z"/>
<path d="M9.67578 2C9.99811 2.00004 10.3182 2.05237 10.624 2.1543L13.0088 2.94824C13.1106 2.98213 13.217 2.99996 13.3242 3H19C20.6569 3 22 4.34315 22 6V7C21.1643 6.37223 20.1257 6 19 6H5C3.87432 6 2.83569 6.37223 2 7V5C2 3.34315 3.34315 2 5 2H9.67578Z"/>
</svg>
