<svg viewBox="0 0 24 24" xmlns="http://www.w3.org/2000/svg">
<path d="M12 10C12.5523 10 13 10.4477 13 11V13H15C15.5523 13 16 13.4477 16 14C16 14.5523 15.5523 15 15 15H13V17C13 17.5523 12.5523 18 12 18C11.4477 18 11 17.5523 11 17V15H9C8.44772 15 8 14.5523 8 14C8 13.4477 8.44772 13 9 13H11V11C11 10.4477 11.4477 10 12 10Z" />
<path fill-rule="evenodd" clip-rule="evenodd" d="M2 5C2 3.34315 3.34315 2 5 2H9.67544C9.99789 2 10.3182 2.05198 10.6241 2.15395L13.0083 2.94868C13.1103 2.98267 13.2171 3 13.3246 3H19C20.6569 3 22 4.34315 22 6V19C22 20.6569 20.6569 22 19 22H5C3.34315 22 2 20.6569 2 19V5ZM20 6V7.17071C19.6872 7.06015 19.3506 7 19 7H5C4.64936 7 4.31278 7.06015 4 7.17071V5C4 4.44772 4.44772 4 5 4H9.67544C9.78293 4 9.88971 4.01733 9.99167 4.05132L12.3759 4.84605C12.6818 4.94802 13.0021 5 13.3246 5H19C19.5523 5 20 5.44772 20 6ZM5 9C4.44772 9 4 9.44772 4 10V19C4 19.5523 4.44772 20 5 20H19C19.5523 20 20 19.5523 20 19V10C20 9.44771 19.5523 9 19 9H5Z" />
</svg>
