<svg viewBox="0 0 24 24" xmlns="http://www.w3.org/2000/svg">
<g id="Cases">
<path id="Union" fill-rule="evenodd" clip-rule="evenodd" d="M2 5C2 3.34315 3.34315 2 5 2H9.67544C9.99789 2 10.3182 2.05198 10.6241 2.15395L13.0083 2.94868C13.1103 2.98267 13.2171 3 13.3246 3H19C20.6569 3 22 4.34315 22 6V19C22 20.6569 20.6569 22 19 22H5C3.34315 22 2 20.6569 2 19V5ZM20 6V11.1707C19.6872 11.0602 19.3506 11 19 11V9C19 7.89543 18.1046 7 17 7H7C5.89543 7 5 7.89543 5 9V11C4.64936 11 4.31278 11.0602 4 11.1707V5C4 4.44772 4.44772 4 5 4H9.67544C9.78293 4 9.88971 4.01733 9.99167 4.05132L12.3759 4.84605C12.6818 4.94802 13.0021 5 13.3246 5H19C19.5523 5 20 5.44772 20 6ZM5 13C4.44772 13 4 13.4477 4 14V19C4 19.5523 4.44772 20 5 20H19C19.5523 20 20 19.5523 20 19V14C20 13.4477 19.5523 13 19 13H5ZM17 11H7V9H17L17 11Z"/>
</g>
</svg>
