<svg viewBox="0 0 24 24" xmlns="http://www.w3.org/2000/svg">
    <path d="M15.7129 12.2796C15.33 12.659 14.7093 12.659 14.3265 12.2796C13.9562 11.9127 13.7743 11.3942 13.6755 10.9781C13.6235 10.7592 13.5853 10.5277 13.5597 10.2919L9.67353 14.2155C9.29069 14.5948 8.66998 14.5948 8.28713 14.2155C7.90429 13.8361 7.90429 13.2211 8.28713 12.8417L12.1733 8.91809C11.9352 8.89272 11.7017 8.85486 11.4808 8.80336C11.0608 8.70544 10.5375 8.52519 10.1673 8.15829C9.78442 7.77893 9.78442 7.16387 10.1673 6.78452C10.5501 6.40516 11.1708 6.40516 11.5537 6.78452C11.5478 6.7787 11.5485 6.77908 11.5577 6.78408C11.5857 6.79922 11.6918 6.85671 11.9298 6.9122C12.2099 6.97749 12.5658 7.01516 12.9401 7.01516C13.3144 7.01516 13.6702 6.9775 13.9503 6.9122C14.1883 6.85671 14.2944 6.79922 14.3224 6.78408C14.3316 6.77908 14.3323 6.7787 14.3265 6.78452C14.7093 6.40521 15.33 6.40523 15.7128 6.78457C16.0956 7.16391 16.0957 7.77893 15.7129 8.15829C15.7187 8.15247 15.7184 8.15317 15.7133 8.16232C15.698 8.19003 15.64 8.29521 15.584 8.53103C15.5181 8.80856 15.4801 9.16118 15.4801 9.53206C15.4801 9.90294 15.5181 10.2556 15.584 10.5331C15.64 10.7689 15.698 10.8741 15.7133 10.9018C15.7184 10.9109 15.7187 10.9116 15.7129 10.9058C16.0957 11.2852 16.0957 11.9002 15.7129 12.2796Z"/>
    <path fill-rule="evenodd" clip-rule="evenodd"
          d="M5 2C3.34315 2 2 3.38946 2 5.10345V15.4483C2 17.1623 3.34315 18.5517 5 18.5517H7.5C8.44427 18.5517 9.33344 19.0116 9.9 19.7931L11.2 21.5862C11.6 22.1379 12.4 22.1379 12.8 21.5862L14.1 19.7931C14.6666 19.0116 15.5557 18.5517 16.5 18.5517H19C20.6569 18.5517 22 17.1623 22 15.4483V5.10345C22 3.38946 20.6569 2 19 2H5ZM19 4.06897H5C4.44772 4.06897 4 4.53212 4 5.10345V15.4483C4 16.0196 4.44772 16.4828 5 16.4828H7.5C9.07379 16.4828 10.5557 17.2493 11.5 18.5517L12 19.2414L12.5 18.5517C13.4443 17.2493 14.9262 16.4828 16.5 16.4828H19C19.5523 16.4828 20 16.0196 20 15.4483V5.10345C20 4.53212 19.5523 4.06897 19 4.06897Z"/>
</svg>
