<svg viewBox="0 0 24 24" xmlns="http://www.w3.org/2000/svg">
<path fill-rule="evenodd" clip-rule="evenodd" d="M10.6201 7.22499L6.08303 10.9409L10.7039 15.0223V12.9132C10.7039 12.3609 11.1516 11.9132 11.7039 11.9132C14.2502 11.9132 16.6522 12.8602 18.4697 14.4192C17.3762 11.7395 14.7127 9.7953 11.6201 9.7953C11.0678 9.7953 10.6201 9.34758 10.6201 8.7953V7.22499ZM11.5723 5.1794C12.166 5.46545 12.6201 6.08347 12.6201 6.85746V7.84884C17.3129 8.35393 21 12.3672 21 17.1119V18C21 18.4673 20.6764 18.8723 20.2206 18.9754C19.7649 19.0785 19.2985 18.8522 19.0974 18.4305C17.9744 16.0754 15.5228 14.3157 12.7039 13.9737V15.4163C12.7039 16.2131 12.2215 16.8309 11.577 17.0839C10.9488 17.3305 10.2102 17.2213 9.64254 16.7525C9.63402 16.7455 9.62562 16.7383 9.61733 16.731L4.5894 12.2901C4.57857 12.2805 4.56795 12.2707 4.55754 12.2607C3.81415 11.5444 3.81415 10.3256 4.55754 9.60931C4.57689 9.59066 4.59699 9.5728 4.61778 9.55578L9.62031 5.45867C10.2066 4.92172 10.9841 4.89601 11.5723 5.1794Z"/>
</svg>
