<svg viewBox="0 0 24 24" xmlns="http://www.w3.org/2000/svg">
<path fill-rule="evenodd" clip-rule="evenodd" d="M15.7162 8.6533C16.0946 8.27509 16.0946 7.66188 15.7162 7.28366C15.3377 6.90545 14.7241 6.90545 14.3456 7.28366L9.56176 12.0644L8.65439 11.1576C8.27593 10.7794 7.66231 10.7794 7.28385 11.1576C6.90538 11.5358 6.90538 12.149 7.28385 12.5272L8.19121 13.434L7.90439 13.7206C7.71516 13.9097 7.40836 13.9097 7.21912 13.7206L4.65439 11.1576C4.27593 10.7794 3.66231 10.7794 3.28385 11.1576C2.90538 11.5358 2.90538 12.149 3.28385 12.5272L6.19121 15.4327C6.94814 16.1891 8.17537 16.1891 8.9323 15.4327L9.56176 14.8036L10.1912 15.4327C10.9481 16.1891 12.1754 16.1891 12.9323 15.4327L19.7162 8.6533C20.0946 8.27509 20.0946 7.66188 19.7162 7.28366C19.3377 6.90545 18.7241 6.90545 18.3456 7.28366L11.9044 13.7206C11.7152 13.9097 11.4084 13.9097 11.2191 13.7206L10.9323 13.434L15.7162 8.6533Z"/>
</svg>
