<svg viewBox="0 0 32 32" xmlns="http://www.w3.org/2000/svg">
    <path d="M14.4 9.002c-0 0-0 0-0.001 0.001-0.019 0.019-0.039 0.037-0.060 0.054l-6.653 5.449c-0.009 0.015-0.019 0.039-0.019 0.075 0 0.042 0.013 0.068 0.024 0.081l6.662 5.884c0.112 0.088 0.201 0.073 0.231 0.061 0.010-0.004 0.015-0.007 0.017-0.009 0.002-0.005 0.005-0.018 0.005-0.042v-3.337c0-0.552 0.448-1 1-1 3.781 0 7.315 1.605 9.753 4.161-1.115-4.34-5.125-7.652-9.865-7.652-0.552 0-1-0.448-1-1v-2.584c0-0.045-0.011-0.071-0.023-0.088-0.014-0.021-0.033-0.038-0.054-0.047-0.007-0.003-0.013-0.005-0.017-0.006zM14.599 20.6c-0-0 0-0.001 0.001-0.002zM15.285 7.206c0.685 0.33 1.208 1.042 1.208 1.937v1.625c6.232 0.515 11.173 5.794 11.173 12.048v1.184c0 0.467-0.324 0.872-0.779 0.975s-0.922-0.123-1.123-0.545c-1.598-3.351-5.135-5.814-9.159-6.169v2.293c0 0.918-0.552 1.623-1.291 1.913-0.722 0.284-1.58 0.161-2.245-0.389-0.009-0.007-0.017-0.014-0.025-0.022l-6.704-5.921c-0.011-0.010-0.021-0.019-0.032-0.029-0.855-0.824-0.855-2.231 0-3.055 0.019-0.019 0.039-0.037 0.060-0.054l6.678-5.469c0.67-0.619 1.56-0.651 2.239-0.324z"></path>
</svg>
