<svg viewBox="0 0 24 24" xmlns="http://www.w3.org/2000/svg">
<path fill-rule="evenodd" clip-rule="evenodd" d="M2 5.10345C2 3.38946 3.34315 2 5 2H19C20.6569 2 22 3.38946 22 5.10345V15.4483C22 17.1623 20.6569 18.5517 19 18.5517H16.5C15.5557 18.5517 14.6666 19.0116 14.1 19.7931L12.8 21.5862C12.4 22.1379 11.6 22.1379 11.2 21.5862L9.9 19.7931C9.33344 19.0116 8.44427 18.5517 7.5 18.5517H5C3.34315 18.5517 2 17.1623 2 15.4483V5.10345ZM5 4.06897H19C19.5523 4.06897 20 4.53212 20 5.10345V15.4483C20 16.0196 19.5523 16.4828 19 16.4828H16.5C14.9262 16.4828 13.4443 17.2493 12.5 18.5517L12 19.2414L11.5 18.5517C10.5557 17.2493 9.07379 16.4828 7.5 16.4828H5C4.44772 16.4828 4 16.0196 4 15.4483V5.10345C4 4.53212 4.44772 4.06897 5 4.06897Z"/>
</svg>
