<svg viewBox="0 0 24 24" xmlns="http://www.w3.org/2000/svg">
<path d="M13.0063 7.3585L13.0075 9.23366L14.8201 9.23485C15.3754 9.23521 15.8258 9.70117 15.8262 10.2756C15.8265 10.85 15.3767 11.3154 14.8214 11.315L13.0023 11.3138L13.0035 13.1935C13.0038 13.7679 12.554 14.2333 11.9987 14.2329C11.4434 14.2325 10.993 13.7666 10.9926 13.1921L10.9915 11.3192L9.18092 11.318C8.62565 11.3176 8.17522 10.8517 8.17487 10.2772C8.17451 9.70281 8.62437 9.23744 9.17965 9.2378L10.9966 9.23899L10.9955 7.35718C10.9951 6.78276 11.445 6.31739 12.0003 6.31775C12.5555 6.31811 13.006 6.78407 13.0063 7.3585Z"/>
<path fill-rule="evenodd" clip-rule="evenodd" d="M2 5.10345C2 3.38946 3.34315 2 5 2H19C20.6569 2 22 3.38946 22 5.10345V15.4483C22 17.1623 20.6569 18.5517 19 18.5517H16.5C15.5557 18.5517 14.6666 19.0116 14.1 19.7931L12.8 21.5862C12.4 22.1379 11.6 22.1379 11.2 21.5862L9.9 19.7931C9.33344 19.0116 8.44427 18.5517 7.5 18.5517H5C3.34315 18.5517 2 17.1623 2 15.4483V5.10345ZM5 4.06897H19C19.5523 4.06897 20 4.53212 20 5.10345V15.4483C20 16.0196 19.5523 16.4828 19 16.4828H16.5C14.9262 16.4828 13.4443 17.2493 12.5 18.5517L12 19.2414L11.5 18.5517C10.5557 17.2493 9.07379 16.4828 7.5 16.4828H5C4.44772 16.4828 4 16.0196 4 15.4483V5.10345C4 4.53212 4.44772 4.06897 5 4.06897Z"/>
</svg>
