<svg viewBox="0 0 24 24" xmlns="http://www.w3.org/2000/svg">
<path d="M14.7742 8.92401L13.4491 10.2508L14.73 11.5333C15.1224 11.9262 15.1114 12.5742 14.7055 12.9807C14.2996 13.3871 13.6524 13.3981 13.26 13.0052L11.9746 11.718L10.6463 13.0479C10.2403 13.4544 9.59318 13.4653 9.2008 13.0724C8.80841 12.6795 8.8194 12.0316 9.22533 11.6251L10.5489 10.2999L9.2695 9.01883C8.87712 8.62593 8.8881 7.97795 9.29403 7.57152C9.69997 7.16509 10.3471 7.15412 10.7395 7.54702L12.0235 8.83265L13.3533 7.5012C13.7592 7.09477 14.4064 7.0838 14.7988 7.4767C15.1912 7.8696 15.1802 8.51758 14.7742 8.92401Z"/>
<path fill-rule="evenodd" clip-rule="evenodd" d="M2 5.10345C2 3.38946 3.34315 2 5 2H19C20.6569 2 22 3.38946 22 5.10345V15.4483C22 17.1623 20.6569 18.5517 19 18.5517H16.5C15.5557 18.5517 14.6666 19.0116 14.1 19.7931L12.8 21.5862C12.4 22.1379 11.6 22.1379 11.2 21.5862L9.9 19.7931C9.33344 19.0116 8.44427 18.5517 7.5 18.5517H5C3.34315 18.5517 2 17.1623 2 15.4483V5.10345ZM5 4.06897H19C19.5523 4.06897 20 4.53212 20 5.10345V15.4483C20 16.0196 19.5523 16.4828 19 16.4828H16.5C14.9262 16.4828 13.4443 17.2493 12.5 18.5517L12 19.2414L11.5 18.5517C10.5557 17.2493 9.07379 16.4828 7.5 16.4828H5C4.44772 16.4828 4 16.0196 4 15.4483V5.10345C4 4.53212 4.44772 4.06897 5 4.06897Z"/>
</svg>
