<svg viewBox="0 0 24 24" xmlns="http://www.w3.org/2000/svg">
    <path fill-rule="evenodd" clip-rule="evenodd"
          d="M20 12C20 16.4183 16.4183 20 12 20C7.58172 20 4 16.4183 4 12C4 7.58172 7.58172 4 12 4C16.4183 4 20 7.58172 20 12ZM22 12C22 17.5228 17.5228 22 12 22C6.47715 22 2 17.5228 2 12C2 6.47715 6.47715 2 12 2C17.5228 2 22 6.47715 22 12ZM8.5 11C9.32843 11 10 10.3284 10 9.5C10 8.67157 9.32843 8 8.5 8C7.67157 8 7 8.67157 7 9.5C7 10.3284 7.67157 11 8.5 11ZM15.5 11C16.3284 11 17 10.3284 17 9.5C17 8.67157 16.3284 8 15.5 8C14.6716 8 14 8.67157 14 9.5C14 10.3284 14.6716 11 15.5 11ZM12.0002 16C10.6879 16 9.67174 15.5635 8.992 14.9589C8.85815 14.8399 8.73735 14.7143 8.6299 14.5843C8.59548 14.5427 8.55936 14.5022 8.52166 14.4633C8.49756 14.4385 8.47282 14.4142 8.44745 14.3907C8.40619 14.3525 8.3633 14.3163 8.3189 14.2823C8.09521 14.1114 7.83343 14 7.55025 14C6.82214 14 6.29122 14.6932 6.6777 15.3102C6.95483 15.7527 7.30909 16.1563 7.7256 16.5087C8.81382 17.4293 10.327 18 12.0002 18C13.6734 18 15.1866 17.4293 16.2749 16.5087C16.6914 16.1563 17.0456 15.7527 17.3227 15.3102C17.7092 14.6932 17.1783 14 16.4502 14C16.167 14 15.9052 14.1114 15.6815 14.2823C15.6371 14.3163 15.5942 14.3525 15.553 14.3907C15.5276 14.4142 15.5029 14.4385 15.4788 14.4633C15.4411 14.5022 15.405 14.5427 15.3705 14.5843C15.2631 14.7143 15.1423 14.8399 15.0084 14.9589C14.3287 15.5635 13.3125 16 12.0002 16ZM16.9165 15.8536L16.9143 15.8559C16.9157 15.8543 16.9165 15.8536 16.9165 15.8536Z"/>
</svg>
