<svg viewBox="0 0 24 24" xmlns="http://www.w3.org/2000/svg">
    <path fill-rule="evenodd" clip-rule="evenodd"
          d="M2 5.10345C2 3.38946 3.34315 2 5 2H19C20.6569 2 22 3.38946 22 5.10345V15.4483C22 17.1623 20.6569 18.5517 19 18.5517H16.5C15.5557 18.5517 14.6666 19.0116 14.1 19.7931L12.8 21.5862C12.4 22.1379 11.6 22.1379 11.2 21.5862L9.9 19.7931C9.33344 19.0116 8.44427 18.5517 7.5 18.5517H5C3.34315 18.5517 2 17.1623 2 15.4483V5.10345ZM14.3265 12.2796C14.7093 12.659 15.33 12.659 15.7129 12.2796C16.0957 11.9002 16.0957 11.2852 15.7129 10.9058C15.7187 10.9116 15.7184 10.9109 15.7133 10.9018C15.698 10.8741 15.64 10.7689 15.584 10.5331C15.5181 10.2556 15.4801 9.90294 15.4801 9.53206C15.4801 9.16118 15.5181 8.80856 15.584 8.53103C15.64 8.29521 15.698 8.19003 15.7133 8.16232C15.7184 8.15317 15.7187 8.15247 15.7129 8.15829C16.0957 7.77893 16.0956 7.16391 15.7128 6.78457C15.33 6.40523 14.7093 6.40521 14.3265 6.78452C14.3323 6.7787 14.3316 6.77908 14.3224 6.78408C14.2944 6.79922 14.1883 6.85671 13.9503 6.9122C13.6702 6.9775 13.3144 7.01516 12.9401 7.01516C12.5658 7.01516 12.2099 6.97749 11.9298 6.9122C11.6918 6.85671 11.5857 6.79922 11.5577 6.78408C11.5485 6.77908 11.5478 6.7787 11.5537 6.78452C11.1708 6.40516 10.5501 6.40516 10.1673 6.78452C9.78442 7.16387 9.78442 7.77893 10.1673 8.15829C10.5375 8.52519 11.0608 8.70544 11.4808 8.80336C11.7017 8.85486 11.9352 8.89272 12.1733 8.91809L8.28713 12.8417C7.90429 13.2211 7.90429 13.8361 8.28713 14.2155C8.66998 14.5948 9.29069 14.5948 9.67353 14.2155L13.5597 10.2919C13.5853 10.5277 13.6235 10.7592 13.6755 10.9781C13.7743 11.3942 13.9562 11.9127 14.3265 12.2796Z"/>
</svg>
