<svg viewBox="0 0 24 24" xmlns="http://www.w3.org/2000/svg">
    <path fill-rule="evenodd" clip-rule="evenodd"
          d="M4 8.5C4 6.567 5.567 5 7.5 5C9.433 5 11 6.567 11 8.5C11 10.433 9.433 12 7.5 12C5.567 12 4 10.433 4 8.5ZM7.5 7C6.67157 7 6 7.67157 6 8.5C6 9.32843 6.67157 10 7.5 10C8.32843 10 9 9.32843 9 8.5C9 7.67157 8.32843 7 7.5 7Z"/>
    <path d="M4 18C4 16.4506 5.45302 15 7.5 15C9.54698 15 11 16.4506 11 18C11 18.5523 11.4477 19 12 19C12.5523 19 13 18.5523 13 18C13 16.4506 14.453 15 16.5 15C18.547 15 20 16.4506 20 18C20 18.5523 20.4477 19 21 19C21.5523 19 22 18.5523 22 18C22 15.1311 19.4236 13 16.5 13C14.6911 13 13.0151 13.8159 12 15.1175C10.9849 13.8159 9.30892 13 7.5 13C4.57642 13 2 15.1311 2 18C2 18.5523 2.44772 19 3 19C3.55228 19 4 18.5523 4 18Z"/>
    <path fill-rule="evenodd" clip-rule="evenodd"
          d="M16.5 5C14.567 5 13 6.567 13 8.5C13 10.433 14.567 12 16.5 12C18.433 12 20 10.433 20 8.5C20 6.567 18.433 5 16.5 5ZM15 8.5C15 7.67157 15.6716 7 16.5 7C17.3284 7 18 7.67157 18 8.5C18 9.32843 17.3284 10 16.5 10C15.6716 10 15 9.32843 15 8.5Z"/>
</svg>
