<svg viewBox="0 0 24 24" xmlns="http://www.w3.org/2000/svg">
<path fill-rule="evenodd" clip-rule="evenodd" d="M5 2C3.34315 2 2 3.38946 2 5.10345V15.4483C2 17.1623 3.34315 18.5517 5 18.5517H7.5C8.44427 18.5517 9.33344 19.0116 9.9 19.7931L11.2 21.5862C11.6 22.1379 12.4 22.1379 12.8 21.5862L14.1 19.7931C14.6666 19.0116 15.5557 18.5517 16.5 18.5517H19C20.6569 18.5517 22 17.1623 22 15.4483V5.10345C22 3.38946 20.6569 2 19 2H5ZM13.4491 10.2508L14.7743 8.92401C15.1802 8.51758 15.1912 7.8696 14.7988 7.4767C14.4064 7.0838 13.7592 7.09477 13.3533 7.5012L12.0235 8.83265L10.7395 7.54702C10.3472 7.15412 9.69999 7.16509 9.29406 7.57152C8.88813 7.97795 8.87715 8.62593 9.26953 9.01883L10.5489 10.2999L9.22536 11.6251C8.81942 12.0316 8.80844 12.6795 9.20083 13.0724C9.59321 13.4653 10.2404 13.4544 10.6463 13.0479L11.9746 11.718L13.26 13.0052C13.6524 13.3981 14.2996 13.3871 14.7055 12.9807C15.1114 12.5742 15.1224 11.9262 14.73 11.5333L13.4491 10.2508Z"/>
</svg>
