<svg viewBox="0 0 24 24" xmlns="http://www.w3.org/2000/svg">
    <path fill-rule="evenodd" clip-rule="evenodd"
          d="M10.5676 4.25122L21.351 9.7543C22.8843 10.5262 22.883 12.7797 21.3472 13.5492L21.3338 13.5558L10.5398 18.7639C9.64407 19.2088 8.71029 18.9905 8.11801 18.397C7.55041 17.8282 7.30771 16.9198 7.68153 16.0647L9.61383 11.4543L7.6832 6.94006C7.28855 6.04173 7.60881 5.12961 8.17009 4.58965C8.74059 4.04081 9.67686 3.76599 10.5676 4.25122ZM9.50949 6.11889C9.50949 6.11889 9.50991 6.12408 9.51392 6.13312L9.51933 6.14533L11.4452 10.6487H18.6965L9.6463 6.03015C9.63559 6.02468 9.62497 6.01902 9.61446 6.01317C9.60746 6.00927 9.60251 6.00715 9.5995 6.00605C9.593 6.00819 9.57609 6.01529 9.55514 6.03544C9.52852 6.06105 9.51511 6.08914 9.51097 6.10626C9.50922 6.11347 9.50949 6.11889 9.50949 6.11889ZM9.52209 16.8489L11.2807 12.6529H18.5949L9.66629 16.9609L9.65289 16.9675C9.61503 16.9865 9.58979 16.9924 9.57717 16.9944C9.56462 16.9963 9.55657 16.9951 9.55657 16.9951C9.55383 16.9946 9.54491 16.9926 9.53221 16.9798C9.51828 16.9659 9.50827 16.947 9.50456 16.9289C9.50183 16.9156 9.50085 16.8973 9.51392 16.8678L9.52209 16.8489Z"/>
    <path d="M4.49997 13.4546C3.94769 13.4546 3.49998 13.9032 3.49998 14.4567C3.49998 15.0101 3.94769 15.4588 4.49997 15.4588H6.09996C6.65224 15.4588 7.09995 15.0101 7.09995 14.4567C7.09995 13.9032 6.65224 13.4546 6.09996 13.4546H4.49997Z"/>
    <path d="M2.49999 11.4504C2.49999 10.8969 2.9477 10.4483 3.49998 10.4483H6.09996C6.65224 10.4483 7.09995 10.8969 7.09995 11.4504C7.09995 12.0038 6.65224 12.4525 6.09996 12.4525H3.49998C2.9477 12.4525 2.49999 12.0038 2.49999 11.4504Z"/>
    <path d="M2.49999 7.44201C1.94771 7.44201 1.5 7.89066 1.5 8.4441C1.5 8.99755 1.94771 9.4462 2.49999 9.4462H6.09996C6.65224 9.4462 7.09995 8.99755 7.09995 8.4441C7.09995 7.89066 6.65224 7.44201 6.09996 7.44201H2.49999Z"/>
</svg>
