<svg viewBox="0 0 24 24" xmlns="http://www.w3.org/2000/svg">
    <path fill-rule="evenodd" clip-rule="evenodd"
          d="M2 5.10345C2 3.38946 3.34315 2 5 2H19C20.6569 2 22 3.38946 22 5.10345V15.4483C22 17.1623 20.6569 18.5517 19 18.5517H16.5C15.5557 18.5517 14.6666 19.0116 14.1 19.7931L12.8 21.5862C12.4 22.1379 11.6 22.1379 11.2 21.5862L9.9 19.7931C9.33344 19.0116 8.44427 18.5517 7.5 18.5517H5C3.34315 18.5517 2 17.1623 2 15.4483V5.10345ZM8 7C7.44772 7 7 7.44772 7 8C7 8.55228 7.44772 9 8 9H16C16.5523 9 17 8.55228 17 8C17 7.44772 16.5523 7 16 7H8ZM7 12C7 11.4477 7.44772 11 8 11H16C16.5523 11 17 11.4477 17 12C17 12.5523 16.5523 13 16 13H8C7.44772 13 7 12.5523 7 12Z"/>
</svg>
