<svg viewBox="0 0 24 24" xmlns="http://www.w3.org/2000/svg">
<path fill-rule="evenodd" clip-rule="evenodd" d="M6 3C4.34315 3 3 4.34315 3 6V18C3 19.6569 4.34315 21 6 21H18C19.6569 21 21 19.6569 21 18V6C21 4.34315 19.6569 3 18 3H6ZM5 6C5 5.44772 5.44772 5 6 5H18C18.5523 5 19 5.44772 19 6V18C19 18.5523 18.5523 19 18 19H6C5.44772 19 5 18.5523 5 18V6ZM17.7071 8.29289C18.0976 8.68342 18.0976 9.31658 17.7071 9.70711L10.7071 16.7071C10.3166 17.0976 9.68342 17.0976 9.29289 16.7071L6.29289 13.7071C5.90237 13.3166 5.90237 12.6834 6.29289 12.2929C6.68342 11.9024 7.31658 11.9024 7.70711 12.2929L10 14.5858L16.2929 8.29289C16.6834 7.90237 17.3166 7.90237 17.7071 8.29289Z"/>
</svg>
