<svg viewBox="0 0 24 24" xmlns="http://www.w3.org/2000/svg">
    <path fill-rule="evenodd" clip-rule="evenodd"
          d="M18.4314 2.08521C17.5185 2.0852 16.6263 2.45098 15.9321 3.1428L15.9306 3.14432L2.96285 16.1226C2.88223 16.1668 2.80642 16.223 2.738 16.2912C1.83343 17.1926 1.83343 18.5936 2.738 19.4951L4.53143 21.2823C5.43408 22.1818 6.83395 22.1818 7.7366 21.2823L20.9307 8.13384C21.625 7.44195 21.9934 6.55131 21.9934 5.63832V3.0852C21.9934 2.53292 21.5457 2.08521 20.9934 2.08521L18.4314 2.08521ZM4.05957 17.8931C4.05957 17.8727 4.06295 17.8474 4.07387 17.8189C4.12078 17.786 4.16549 17.7485 4.20739 17.7066L5.49968 16.4132L7.64071 18.5543L6.32485 19.8656C6.25048 19.9397 6.18185 19.9569 6.13401 19.9569C6.08618 19.9569 6.01755 19.9397 5.94317 19.8656L4.14975 18.0784C4.07545 18.0044 4.05957 17.9376 4.05957 17.8931ZM6.91332 14.9985L17.3438 4.55948C17.6743 4.2305 18.0635 4.0852 18.4314 4.08521L19.9934 4.08521V5.63832C19.9934 6.0019 19.8495 6.38781 19.5189 6.71717L9.05738 17.1425L6.91332 14.9985Z"/>
</svg>
