<svg viewBox="0 0 24 24" xmlns="http://www.w3.org/2000/svg">
    <path fill-rule="evenodd" clip-rule="evenodd"
          d="M2.90965 14.2276C2.13194 14.9926 2.13194 16.233 2.90965 16.998L4.98653 19.041H2.99573C2.4458 19.041 2 19.4796 2 20.0205C2 20.5615 2.4458 21 2.99573 21L20.9188 21C21.4688 21 21.9146 20.5615 21.9146 20.0205C21.9146 19.4796 21.4688 19.041 20.9188 19.041L15.4028 19.041L21.4167 13.1252C22.1944 12.3601 22.1944 11.1198 21.4167 10.3548L15.5399 4.57377C14.7622 3.80874 13.5012 3.80874 12.7235 4.57377L2.90965 14.2276ZM12.5864 19.041L13.0377 18.5971L7.16086 12.8161L4.31783 15.6128L7.80288 19.041H12.5864ZM14.1317 5.95898L8.56903 11.4309L14.4459 17.2119L20.0085 11.74L14.1317 5.95898Z"/>
</svg>
