<svg viewBox="0 0 32 32" xmlns="http://www.w3.org/2000/svg">
    <path d="M9.882 25.841l2.003-2.003-2.801-2.801-2.003 2.003c-0.212 0.212-0.212 0.482 0 0.694l2.108 2.108c0.212 0.212 0.482 0.212 0.694 0zM7.774 27.255l-2.108-2.108c-0.993-0.993-0.993-2.529 0-3.522l2.71-2.71c0.001-0.001 0.003-0.003 0.004-0.004l12.794-12.794c0.784-0.784 1.789-1.196 2.815-1.196h3.011c0.552 0 1 0.448 1 1v3.011c0 1.026-0.412 2.031-1.196 2.815l-12.948 12.948c-0.001 0.001-0.003 0.003-0.004 0.004l-2.555 2.556c-0.993 0.993-2.529 0.993-3.522 0zM10.498 19.623l2.801 2.801 12.091-12.091c0.421-0.421 0.61-0.921 0.61-1.401v-2.011h-2.011c-0.479 0-0.98 0.19-1.401 0.61l-12.091 12.091z"></path>
</svg>
