<svg viewBox="0 0 24 24" xmlns="http://www.w3.org/2000/svg">
    <path d="M19 4H5C4.44771 4 4 4.44772 4 5V19C4 19.5523 4.44772 20 5 20H11C11.5523 20 12 20.4477 12 21C12 21.5523 11.5523 22 11 22H5C3.34315 22 2 20.6569 2 19V5C2 3.34315 3.34315 2 5 2H19C20.6569 2 22 3.34315 22 5V11C22 11.5523 21.5523 12 21 12C20.4477 12 20 11.5523 20 11V5C20 4.44771 19.5523 4 19 4Z" />
    <path fill-rule="evenodd" clip-rule="evenodd" d="M13 16C13 14.3431 14.3431 13 16 13H19C20.6569 13 22 14.3431 22 16V19C22 20.6569 20.6569 22 19 22H16C14.3431 22 13 20.6569 13 19V16ZM16 15H19C19.5523 15 20 15.4477 20 16V19C20 19.5523 19.5523 20 19 20H16C15.4477 20 15 19.5523 15 19V16C15 15.4477 15.4477 15 16 15Z" />
    <path d="M7.34322 13.0001C6.9527 12.6096 6.9527 11.9764 7.34322 11.5859C7.72092 11.2082 8.25468 11.0226 8.68307 10.9218C8.9084 10.8688 9.14667 10.8298 9.38948 10.8037L5.82845 7.24255C5.43793 6.85203 5.43793 6.21886 5.82845 5.82834C6.21898 5.43781 6.85214 5.43781 7.24267 5.82834L10.8037 9.38948C10.8298 9.14667 10.8688 8.9084 10.9218 8.68307C11.0226 8.25468 11.2082 7.72092 11.5859 7.34322C11.9764 6.9527 12.6096 6.9527 13.0001 7.34322C13.3906 7.73375 13.3906 8.36691 13.0001 8.75743C13.0061 8.75144 13.0057 8.75217 13.0005 8.76158C12.9849 8.79011 12.9258 8.89839 12.8686 9.14115C12.8014 9.42685 12.7626 9.78985 12.7626 10.1716C12.7626 10.5534 12.8014 10.9165 12.8686 11.2021C12.9258 11.4449 12.9849 11.5532 13.0005 11.5817C13.0057 11.5911 13.0061 11.5919 13.0001 11.5859C13.3905 11.9764 13.3905 12.6095 13 13C12.6095 13.3905 11.9764 13.3905 11.5859 13.0001C11.5919 13.0061 11.5911 13.0057 11.5817 13.0005C11.5532 12.9849 11.4449 12.9258 11.2021 12.8686C10.9165 12.8014 10.5534 12.7626 10.1716 12.7626C9.78985 12.7626 9.42685 12.8014 9.14115 12.8686C8.89839 12.9258 8.79012 12.9849 8.76159 13.0005C8.75217 13.0057 8.75144 13.0061 8.75743 13.0001C8.36691 13.3906 7.73375 13.3906 7.34322 13.0001Z" />
</svg>
