<svg viewBox="0 0 24 24" xmlns="http://www.w3.org/2000/svg">
<path d="M5 4H19C19.5523 4 20 4.44772 20 5V19C20 19.5523 19.5523 20 19 20H13C12.4477 20 12 20.4477 12 21C12 21.5523 12.4477 22 13 22H19C20.6569 22 22 20.6569 22 19V5C22 3.34315 20.6569 2 19 2H5C3.34315 2 2 3.34315 2 5V11C2 11.5523 2.44772 12 3 12C3.55228 12 4 11.5523 4 11V5C4 4.44771 4.44772 4 5 4Z"/>
<path fill-rule="evenodd" clip-rule="evenodd" d="M11 16C11 14.3431 9.65685 13 8 13H5C3.34315 13 2 14.3431 2 16V19C2 20.6569 3.34315 22 5 22H8C9.65685 22 11 20.6569 11 19V16ZM8 15H5C4.44772 15 4 15.4477 4 16V19C4 19.5523 4.44772 20 5 20H8C8.55228 20 9 19.5523 9 19V16C9 15.4477 8.55229 15 8 15Z"/>
<path d="M16.6568 13.0001C17.0473 12.6096 17.0473 11.9764 16.6568 11.5859C16.2791 11.2082 15.7453 11.0226 15.3169 10.9218C15.0916 10.8688 14.8533 10.8298 14.6105 10.8037L18.1715 7.24255C18.5621 6.85203 18.5621 6.21886 18.1715 5.82834C17.781 5.43781 17.1479 5.43781 16.7573 5.82834L13.1963 9.38948C13.1702 9.14667 13.1312 8.9084 13.0782 8.68307C12.9774 8.25468 12.7918 7.72092 12.4141 7.34322C12.0236 6.9527 11.3904 6.9527 10.9999 7.34322C10.6094 7.73375 10.6094 8.36691 10.9999 8.75743C10.9939 8.75144 10.9943 8.75217 10.9995 8.76158C11.0151 8.79011 11.0742 8.89839 11.1314 9.14115C11.1986 9.42685 11.2374 9.78985 11.2374 10.1716C11.2374 10.5534 11.1986 10.9165 11.1314 11.2021C11.0742 11.4449 11.0151 11.5532 10.9995 11.5817C10.9943 11.5911 10.9939 11.5919 10.9999 11.5859C10.6095 11.9764 10.6095 12.6095 11 13C11.3905 13.3905 12.0236 13.3905 12.4141 13.0001C12.4081 13.0061 12.4089 13.0057 12.4183 13.0005C12.4468 12.9849 12.5551 12.9258 12.7979 12.8686C13.0835 12.8014 13.4466 12.7626 13.8284 12.7626C14.2101 12.7626 14.5732 12.8014 14.8588 12.8686C15.1016 12.9258 15.2099 12.9849 15.2384 13.0005C15.2478 13.0057 15.2486 13.0061 15.2426 13.0001C15.6331 13.3906 16.2663 13.3906 16.6568 13.0001Z"/>
</svg>
