<svg viewBox="0 0 32 32" xmlns="http://www.w3.org/2000/svg">
    <path d="M21.915 7.68c1.288 0 2.339 1.051 2.339 2.339v2.549c0 0.353-0.287 0.64-0.64 0.64s-0.64-0.287-0.64-0.64v-2.549c0-0.581-0.478-1.059-1.059-1.059h-11.896c-0.581 0-1.059 0.478-1.059 1.059v11.896c0 0.581 0.478 1.059 1.059 1.059h2.549c0.353 0 0.64 0.287 0.64 0.64s-0.287 0.64-0.64 0.64h-2.549c-1.288 0-2.339-1.051-2.339-2.339v-11.896c0-1.288 1.051-2.339 2.339-2.339h11.896zM11.354 14.114h1.854l-3.156-3.156c-0.25-0.25-0.25-0.655 0-0.905s0.655-0.25 0.905 0l3.156 3.156v-1.854c0-0.353 0.287-0.64 0.64-0.64s0.64 0.287 0.64 0.64v3.399c0 0.353-0.287 0.64-0.64 0.64l-0.015-0h-3.384c-0.353 0-0.64-0.287-0.64-0.64s0.287-0.64 0.64-0.64zM21.915 16.607c0.581 0 1.059 0.478 1.059 1.059v4.248c0 0.581-0.478 1.059-1.059 1.059h-4.249c-0.581 0-1.059-0.478-1.059-1.059v-4.248c0-0.581 0.478-1.059 1.059-1.059h4.249zM24.255 17.667c0-1.288-1.051-2.339-2.339-2.339h-4.249c-1.288 0-2.339 1.051-2.339 2.339v4.248c0 1.288 1.051 2.339 2.339 2.339h4.249c1.288 0 2.339-1.051 2.339-2.339v-4.248z"></path>
</svg>
