<svg viewBox="0 0 32 32" xmlns="http://www.w3.org/2000/svg">
    <path d="M9.333 5.333v21.333c0 1.473-1.194 2.667-2.667 2.667h-1.333c-1.473 0-2.667-1.194-2.667-2.667v-21.333c0-1.473 1.194-2.667 2.667-2.667h1.333c1.473 0 2.667 1.194 2.667 2.667zM8 26.667v-21.333c0-0.736-0.597-1.333-1.333-1.333h-1.333c-0.736 0-1.333 0.597-1.333 1.333v21.333c0 0.736 0.597 1.333 1.333 1.333h1.333c0.736 0 1.333-0.597 1.333-1.333z"></path>
    <path d="M15.333 2.667h-1.333c-1.473 0-2.667 1.194-2.667 2.667v21.333c0 1.473 1.194 2.667 2.667 2.667h1.333c1.473 0 2.667-1.194 2.667-2.667v-21.333c0-1.473-1.194-2.667-2.667-2.667zM16.667 5.333v21.333c0 0.736-0.597 1.333-1.333 1.333h-1.333c-0.736 0-1.333-0.597-1.333-1.333v-21.333c0-0.736 0.597-1.333 1.333-1.333h1.333c0.736 0 1.333 0.597 1.333 1.333z"></path>
    <path d="M25.333 12.667v3.333h3.333c0.368 0 0.667 0.299 0.667 0.667s-0.299 0.667-0.667 0.667h-3.333v3.333c0 0.368-0.299 0.667-0.667 0.667s-0.667-0.299-0.667-0.667v-3.333h-3.333c-0.368 0-0.667-0.299-0.667-0.667s0.299-0.667 0.667-0.667h3.333v-3.333c0-0.368 0.299-0.667 0.667-0.667s0.667 0.298 0.667 0.667z"></path>
    <path d="M27.778 13.889c0 0.429 0.348 0.778 0.778 0.778s0.778-0.348 0.778-0.778v-8.556c0-1.473-1.393-2.667-3.111-2.667h-3.111c-1.718 0-3.111 1.194-3.111 2.667v8.556c0 0.429 0.348 0.778 0.778 0.778s0.778-0.348 0.778-0.778v-8.556c0-0.736 0.696-1.333 1.555-1.333h3.111c0.859 0 1.555 0.597 1.555 1.333v8.556z"></path>
    <path d="M20 19.444c0-0.429 0.348-0.778 0.778-0.778s0.778 0.348 0.778 0.778v7.222c0 0.736 0.696 1.333 1.555 1.333h3.111c0.859 0 1.555-0.597 1.555-1.333v-7.222c0-0.429 0.348-0.778 0.778-0.778s0.778 0.348 0.778 0.778v7.222c0 1.473-1.393 2.667-3.111 2.667h-3.111c-1.718 0-3.111-1.194-3.111-2.667v-7.222z"></path>
</svg>
