<svg viewBox="0 0 24 24" xmlns="http://www.w3.org/2000/svg">
    <path d="M13 9C13 8.44772 12.5523 8 12 8C11.4477 8 11 8.44772 11 9L11 11H9C8.44772 11 8 11.4477 8 12C8 12.5523 8.44772 13 9 13L11 13V15C11 15.5523 11.4477 16 12 16C12.5523 16 13 15.5523 13 15V13H15C15.5523 13 16 12.5523 16 12C16 11.4477 15.5523 11 15 11H13V9Z"/>
    <path fill-rule="evenodd" clip-rule="evenodd"
          d="M7.07714 2.61731C7.93106 3.35896 8 4.42238 8 5.0001L8 9C8 9.55228 7.55229 10 7 10C6.44772 10 6 9.55228 6 9V5.0001C6 4.97269 5.99973 4.94602 5.99919 4.92009C5.98018 4.00567 5.62964 4.0001 5.2 4.0001H4.8C4.37036 4.0001 4.01982 4.00567 4.00081 4.92009C4.00027 4.94602 4 4.97269 4 5.0001V19.0001C4 19.0275 4.00027 19.0542 4.00081 19.0801C4.01982 19.9945 4.37036 20.0001 4.8 20.0001H5.2C5.62964 20.0001 5.98018 19.9945 5.99919 19.0801C5.99973 19.0542 6 19.0275 6 19.0001L6 15C6 14.4477 6.44771 14 7 14C7.55228 14 8 14.4477 8 15L8 19.0001C8 19.5778 7.93106 20.6412 7.07714 21.3829C6.29738 22.0601 5.30612 22.0059 5.20757 22.0005L5.2 22.0001H4.8L4.79242 22.0005C4.69388 22.0059 3.70262 22.0601 2.92286 21.3829C2.06894 20.6412 2 19.5778 2 19.0001V5.0001C2 4.42238 2.06894 3.35895 2.92287 2.61731C3.70263 1.94008 4.69388 1.99434 4.79243 1.99974L4.8 2.0001H5.2L5.20758 1.99974C5.30612 1.99434 6.29738 1.94008 7.07714 2.61731ZM10 17C9.44772 17 9 17.4477 9 18V19.0001C9 19.5778 9.06894 20.6412 9.92286 21.3829C10.7026 22.0601 11.6939 22.0059 11.7924 22.0005L11.8 22.0001H12.2L12.2076 22.0005C12.3061 22.0059 13.2974 22.0601 14.0771 21.3829C14.9311 20.6412 15 19.5778 15 19.0001V18C15 17.4477 14.5523 17 14 17C13.4477 17 13 17.4477 13 18V19.0001C13 19.0275 12.9997 19.0542 12.9992 19.0801C12.9802 19.9945 12.6296 20.0001 12.2 20.0001H11.8C11.3704 20.0001 11.0198 19.9945 11.0008 19.0801C11.0003 19.0542 11 19.0275 11 19.0001V18C11 17.4477 10.5523 17 10 17ZM14 7C13.4477 7 13 6.55228 13 6V5.0001C13 4.97269 12.9997 4.94602 12.9992 4.92009C12.9802 4.00567 12.6296 4.0001 12.2 4.0001H11.8C11.3704 4.0001 11.0198 4.00567 11.0008 4.92009C11.0003 4.94602 11 4.97269 11 5.0001V6C11 6.55228 10.5523 7 10 7C9.44772 7 9 6.55228 9 6V5.0001C9 4.42238 9.06894 3.35895 9.92287 2.61731C10.7026 1.94008 11.6939 1.99434 11.7924 1.99974L11.8 2.0001H12.2L12.2076 1.99974C12.3061 1.99434 13.2974 1.94008 14.0771 2.61731C14.9311 3.35896 15 4.42238 15 5.0001V6C15 6.55228 14.5523 7 14 7ZM17 14C16.4477 14 16 14.4477 16 15V19.0001C16 19.5778 16.0689 20.6412 16.9229 21.3829C17.7026 22.0601 18.6939 22.0059 18.7924 22.0005L18.8 22.0001H19.2L19.2076 22.0005C19.3061 22.0059 20.2974 22.0601 21.0771 21.3829C21.9311 20.6412 22 19.5778 22 19.0001L22 5.0001C22 4.42238 21.9311 3.35896 21.0771 2.61731C20.2974 1.94008 19.3061 1.99434 19.2076 1.99974L19.2 2.0001H18.8L18.7924 1.99974C18.6939 1.99434 17.7026 1.94008 16.9229 2.61731C16.0689 3.35895 16 4.42238 16 5.0001V9C16 9.55228 16.4477 10 17 10C17.5523 10 18 9.55228 18 9V5.0001C18 4.97269 18.0003 4.94602 18.0008 4.92009C18.0198 4.00567 18.3704 4.0001 18.8 4.0001H19.2C19.6296 4.0001 19.9802 4.00567 19.9992 4.92009C19.9997 4.94602 20 4.97269 20 5.0001V19.0001C20 19.0275 19.9997 19.0542 19.9992 19.0801C19.9802 19.9945 19.6296 20.0001 19.2 20.0001H18.8C18.3704 20.0001 18.0198 19.9945 18.0008 19.0801C18.0003 19.0542 18 19.0275 18 19.0001V15C18 14.4477 17.5523 14 17 14Z"/>
</svg>
