<svg viewBox="0 0 24 24" xmlns="http://www.w3.org/2000/svg">
<path d="M6.80054 10C6.80054 9.44772 7.24825 9 7.80054 9H15.8005C16.3528 9 16.8005 9.44772 16.8005 10C16.8005 10.5523 16.3528 11 15.8005 11H7.80054C7.24825 11 6.80054 10.5523 6.80054 10Z"/>
<path d="M7.80054 13C7.24825 13 6.80054 13.4477 6.80054 14C6.80054 14.5523 7.24825 15 7.80054 15H15.8005C16.3528 15 16.8005 14.5523 16.8005 14C16.8005 13.4477 16.3528 13 15.8005 13H7.80054Z"/>
<path fill-rule="evenodd" clip-rule="evenodd" d="M8.14676 21.3111C11.7353 22.7173 15.9725 21.9707 18.8721 19.0711C22.7773 15.1658 22.7773 8.83418 18.8721 4.92893C14.9669 1.02369 8.6352 1.02369 4.72996 4.92893C1.83037 7.82852 1.08368 12.0658 2.4899 15.6543C2.80314 16.4536 2.47133 18.8022 2.19383 20.3804C2.06808 21.0955 2.7055 21.7329 3.42064 21.6072C4.9988 21.3297 7.34742 20.9979 8.14676 21.3111ZM17.4579 6.34315C14.3337 3.21895 9.26837 3.21895 6.14417 6.34315C3.8267 8.66062 3.22539 12.0495 4.35203 14.9246C4.56348 15.4641 4.60441 16.0523 4.61423 16.4598C4.62533 16.9206 4.59833 17.4201 4.55556 17.9021C4.51101 18.4041 4.44555 18.9274 4.37293 19.4281C4.87365 19.3555 5.39689 19.29 5.89895 19.2455C6.38088 19.2027 6.88042 19.1757 7.34117 19.1868C7.74876 19.1966 8.33689 19.2375 8.87647 19.449C11.7515 20.5756 15.1404 19.9743 17.4579 17.6569C20.5821 14.5327 20.5821 9.46734 17.4579 6.34315Z"/>
</svg>
