<svg viewBox="0 0 24 24" xmlns="http://www.w3.org/2000/svg">
<path fill-rule="evenodd" clip-rule="evenodd" d="M4 5.5C4 3.567 5.567 2 7.5 2C9.433 2 11 3.567 11 5.5C11 7.433 9.433 9 7.5 9C5.567 9 4 7.433 4 5.5ZM7.5 4C6.67157 4 6 4.67157 6 5.5C6 6.32843 6.67157 7 7.5 7C8.32843 7 9 6.32843 9 5.5C9 4.67157 8.32843 4 7.5 4Z"/>
<path fill-rule="evenodd" clip-rule="evenodd" d="M13 5.5C13 3.567 14.567 2 16.5 2C18.433 2 20 3.567 20 5.5C20 7.433 18.433 9 16.5 9C14.567 9 13 7.433 13 5.5ZM16.5 4C15.6716 4 15 4.67157 15 5.5C15 6.32843 15.6716 7 16.5 7C17.3284 7 18 6.32843 18 5.5C18 4.67157 17.3284 4 16.5 4Z"/>
<path fill-rule="evenodd" clip-rule="evenodd" d="M8.5 11.5C8.5 9.567 10.067 8 12 8C13.933 8 15.5 9.567 15.5 11.5C15.5 13.433 13.933 15 12 15C10.067 15 8.5 13.433 8.5 11.5ZM12 10C11.1716 10 10.5 10.6716 10.5 11.5C10.5 12.3284 11.1716 13 12 13C12.8284 13 13.5 12.3284 13.5 11.5C13.5 10.6716 12.8284 10 12 10Z"/>
<path d="M6.5 21C6.5 18.1311 9.07642 16 12 16C14.9236 16 17.5 18.1311 17.5 21C17.5 21.5523 17.0523 22 16.5 22C15.9477 22 15.5 21.5523 15.5 21C15.5 19.4506 14.047 18 12 18C9.95302 18 8.5 19.4506 8.5 21C8.5 21.5523 8.05228 22 7.5 22C6.94772 22 6.5 21.5523 6.5 21Z"/>
<path d="M7.5 11.1429C7.5 10.5117 6.98355 9.98889 6.36381 10.1085C3.94021 10.5764 2 12.5104 2 15C2 15.5523 2.44772 16 3 16C3.55228 16 4 15.5523 4 15C4 13.6756 5.0617 12.4233 6.64854 12.0876C7.11167 11.9896 7.5 11.6162 7.5 11.1429Z"/>
<path d="M17.6362 10.1085C17.0164 9.98889 16.5 10.5117 16.5 11.1429C16.5 11.6162 16.8883 11.9896 17.3515 12.0876C18.9383 12.4233 20 13.6756 20 15C20 15.5523 20.4477 16 21 16C21.5523 16 22 15.5523 22 15C22 12.5104 20.0598 10.5764 17.6362 10.1085Z"/>
</svg>
