<svg viewBox="0 0 24 24" xmlns="http://www.w3.org/2000/svg">
<path d="M12.9526 2C13.5049 2 13.9526 2.44772 13.9526 3V4H14.9526C15.5049 4 15.9526 4.44771 15.9526 5C15.9526 5.55229 15.5049 6 14.9526 6H13.9526V7C13.9526 7.55228 13.5049 8 12.9526 8C12.4004 8 11.9526 7.55228 11.9526 7V6H10.9526C10.4004 6 9.95264 5.55228 9.95264 5C9.95264 4.44771 10.4004 4 10.9526 4H11.9526V3C11.9526 2.44772 12.4004 2 12.9526 2Z" />
<path clip-rule="evenodd" d="M5.39632 21.9118C3.47158 21.9004 1.96884 20.3422 1.95788 18.3465L1.95271 17.4035C1.94481 15.9657 2.61518 14.3784 4.05582 13.4993C6.34888 11.9124 9.50855 10.9153 12.9738 11.0057C16.3462 11.0286 19.5955 11.99 21.9253 13.6339L21.9387 13.6435C23.2092 14.5594 23.9384 15.9432 23.9474 17.579L23.9526 18.522C23.9533 18.6483 23.9402 18.7745 23.9133 18.898C23.7366 19.7112 23.2858 20.4376 22.7201 20.9703C22.1496 21.5074 21.3635 21.9388 20.4442 21.9969C20.4085 21.9992 20.3727 22.0002 20.337 22L18.778 21.9908C17.1131 21.9809 15.8063 20.626 15.7968 18.8997L15.7938 18.3438C14.8537 18.0466 13.8156 17.8529 12.8441 17.8472C11.7273 17.8406 10.7386 17.9906 9.92041 18.265L9.92284 18.7085C9.92742 19.5414 9.66878 20.3585 9.10662 20.9807C8.54015 21.6077 7.76294 21.9257 6.95534 21.921L5.39632 21.9118Z" />
</svg>
