<svg viewBox="0 0 24 24" xmlns="http://www.w3.org/2000/svg">
    <path fill-rule="evenodd" clip-rule="evenodd"
          d="M14.011 6.49991C14.011 7.60448 13.1107 8.49991 12 8.49991C10.8893 8.49991 9.98898 7.60448 9.98898 6.49991C9.98898 5.39534 10.8893 4.49991 12 4.49991C13.1107 4.49991 14.011 5.39534 14.011 6.49991ZM16.022 6.49991C16.022 8.70905 14.2213 10.4999 12 10.4999C9.77869 10.4999 7.97796 8.70905 7.97796 6.49991C7.97796 4.29077 9.77869 2.49991 12 2.49991C14.2213 2.49991 16.022 4.29077 16.022 6.49991ZM18.9677 20.5029C18.4811 17.1091 15.5469 14.4999 12 14.4999C8.45307 14.4999 5.51891 17.1091 5.03229 20.5029C4.95389 21.0496 4.51126 21.4999 3.95593 21.4999C3.4006 21.4999 2.94455 21.0505 3.00547 20.5015C3.50492 16.0008 7.34137 12.4999 12 12.4999C16.6586 12.4999 20.4951 16.0008 20.9945 20.5015C21.0554 21.0505 20.5994 21.4999 20.0441 21.4999C19.4887 21.4999 19.0461 21.0496 18.9677 20.5029Z"/>
</svg>
