<svg viewBox="0 0 32 32" xmlns="http://www.w3.org/2000/svg">
    <path d="M16 6.667c-2.607 0-4.667 2.119-4.667 4.667s2.060 4.667 4.667 4.667c2.607 0 4.667-2.119 4.667-4.667s-2.060-4.667-4.667-4.667zM13.2 11.333c0-1.603 1.283-2.85 2.8-2.85s2.8 1.247 2.8 2.85c0 1.603-1.283 2.85-2.8 2.85s-2.8-1.247-2.8-2.85z"></path>
    <path d="M8.696 24.718c1.985-1.925 4.546-3.166 7.304-3.166 2.787 0 5.343 1.126 7.304 3.028 0.397 0.385 1.030 0.375 1.414-0.022s0.375-1.030-0.022-1.414c-2.305-2.236-5.35-3.593-8.696-3.593-3.375 0-6.414 1.517-8.696 3.731-0.396 0.385-0.406 1.018-0.022 1.414s1.018 0.406 1.414 0.022z"></path>
</svg>
