<svg viewBox="0 0 24 24" xmlns="http://www.w3.org/2000/svg">
    <path fill-rule="evenodd" clip-rule="evenodd" d="M13 2C11.3166 2 10 3.39585 10 5.05755C10 5.60984 10.4477 6.05755 11 6.05755C11.5523 6.05755 12 5.60984 12 5.05755C12 4.44655 12.4743 4 13 4L17.5 4.00005C18.0257 4.00005 18.5 4.4466 18.5 5.0576V13.9424C18.5 14.5534 18.0257 15 17.5 15H16.9286C16.3763 15 15.9286 15.4477 15.9286 16C15.9286 16.5522 16.3763 17 16.9286 17H17.5C19.1834 17 20.5 15.6041 20.5 13.9424V5.0576C20.5 3.39589 19.1834 2.00005 17.5 2.00005L13 2ZM6 9.30774C6 9.26125 6.01645 9.19867 6.08891 9.13026C6.16336 9.05997 6.28451 9.00005 6.44444 9.00005H12.5556C12.7155 9.00005 12.8366 9.05997 12.9111 9.13026C12.9835 9.19867 13 9.26125 13 9.30774V19.6924C13 19.7388 12.9835 19.8014 12.9111 19.8698C12.8366 19.9401 12.7155 20 12.5556 20H6.44444C6.28451 20 6.16336 19.9401 6.08891 19.8698C6.01645 19.8014 6 19.7388 6 19.6924V9.30774ZM4 9.30774C4 8.03324 5.09442 7.00005 6.44444 7.00005H12.5556C13.9056 7.00005 15 8.03324 15 9.30774V19.6924C15 20.9669 13.9056 22 12.5556 22H6.44444C5.09441 22 4 20.9669 4 19.6924V9.30774Z" />
</svg>
