<svg viewBox="0 0 24 24" xmlns="http://www.w3.org/2000/svg">
<circle cx="12" cy="12" r="11" fill="#B8E4F9"/>
<path d="M9.1513 17.7578L7.15997 17.7916L6.18118 16.8128L6.21492 14.8215L11.2776 9.75879L14.214 12.6952L12.1889 14.7202L11.1932 14.7371L11.1764 15.7328L10.6701 16.239L9.67443 16.2559L9.65756 17.2516L9.1513 17.7578Z" fill="#0082FB"/>
<path d="M19.5128 11.3113C19.8461 10.7333 19.8081 10.0372 19.5187 9.49463C19.058 8.78078 18.3298 7.69821 17.3021 6.67047C16.2743 5.64274 15.1918 4.91455 14.4779 4.45384C13.9354 4.16442 13.2392 4.12645 12.6612 4.45974C12.1086 4.76772 11.3787 5.25289 10.7206 5.91104C10.0624 6.56918 9.57724 7.29905 9.26926 7.85173C8.93597 8.42972 8.94947 9.10137 9.28867 9.64308C9.72407 10.3822 10.4523 11.4648 11.48 12.4925C12.5077 13.5203 13.5903 14.2485 14.3041 14.7092C14.8459 15.0484 15.5428 15.0366 16.0955 14.7286C16.6482 14.4206 17.378 13.9354 18.0362 13.2773C18.7197 12.5938 19.2048 11.864 19.5128 11.3113ZM15.9942 10.4253L13.5472 7.97832C13.2781 7.70915 13.2857 7.2611 13.5641 6.98265L14.0704 6.47639C14.2223 6.32451 15.0821 6.98182 16.0364 7.93614C16.9907 8.89047 17.648 9.75028 17.4962 9.90216L16.9899 10.4084C16.7114 10.6869 16.2634 10.6945 15.9942 10.4253Z" fill="#0082FB"/>
<path d="M11.522 12.7039L10.9314 12.1133L6.20624 16.8384L6.79689 17.4291L11.522 12.7039Z" fill="#1A2EB2"/>
</svg>
