<svg viewBox="0 0 24 24" xmlns="http://www.w3.org/2000/svg">
<path fill-rule="evenodd" clip-rule="evenodd" d="M10.2038 2.81291C10.6138 3.422 10.7074 4.27712 10.3383 5.02658C9.77883 6.16265 9.4624 7.44963 9.4624 8.81658C9.4624 13.4678 13.1179 17.1885 17.5665 17.1885C18.1791 17.1885 18.6649 17.5619 18.8776 18.0339C19.0997 18.5269 19.0445 19.199 18.5134 19.6468C16.7722 21.1148 14.5391 22.0001 12.1041 22.0001C6.49663 22.0001 2 17.3289 2 11.6281C2 7.43409 4.42789 3.80761 7.94053 2.17515C8.36429 1.97822 8.82559 1.94044 9.2585 2.08275C9.67724 2.22039 9.99384 2.50092 10.2038 2.81291ZM8.56141 4.09626C5.86947 5.45049 4 8.30692 4 11.6281C4 16.2794 7.65546 20.0001 12.1041 20.0001C13.4629 20.0001 14.7439 19.6551 15.87 19.0433C11.079 18.2136 7.4624 13.9291 7.4624 8.81658C7.4624 7.13811 7.85151 5.54932 8.54404 4.14301C8.55152 4.12782 8.55729 4.11217 8.56141 4.09626Z" />
<path fill-rule="evenodd" clip-rule="evenodd" d="M15 4.00006C15.5523 4.00006 16 4.44778 16 5.00006C16 6.10463 16.8954 7.00006 18 7.00006C18.5523 7.00006 19 7.44778 19 8.00006C19 8.55235 18.5523 9.00006 18 9.00006C16.8954 9.00006 16 9.89549 16 11.0001C16 11.5523 15.5523 12.0001 15 12.0001C14.4477 12.0001 14 11.5523 14 11.0001C14 9.89549 13.1046 9.00006 12 9.00006C11.4477 9.00006 11 8.55235 11 8.00006C11 7.44778 11.4477 7.00006 12 7.00006C13.1046 7.00006 14 6.10463 14 5.00006C14 4.44778 14.4477 4.00006 15 4.00006ZM15 7.64589C14.8894 7.77117 14.7711 7.88948 14.6458 8.00006C14.7711 8.11064 14.8894 8.22895 15 8.35424C15.1106 8.22895 15.2289 8.11064 15.3542 8.00006C15.2289 7.88948 15.1106 7.77117 15 7.64589Z" />
<path d="M20 11.0001C20 10.4478 19.5523 10.0001 19 10.0001C18.4477 10.0001 18 10.4478 18 11.0001C18 11.5523 17.5523 12.0001 17 12.0001C16.4477 12.0001 16 12.4478 16 13.0001C16 13.5523 16.4477 14.0001 17 14.0001C17.5523 14.0001 18 14.4478 18 15.0001C18 15.5523 18.4477 16.0001 19 16.0001C19.5523 16.0001 20 15.5523 20 15.0001C20 14.4478 20.4477 14.0001 21 14.0001C21.5523 14.0001 22 13.5523 22 13.0001C22 12.4478 21.5523 12.0001 21 12.0001C20.4477 12.0001 20 11.5523 20 11.0001Z" />
</svg>
