<svg viewBox="0 0 24 24" xmlns="http://www.w3.org/2000/svg">
    <path d="M7 11C7 10.4477 7.44772 10 8 10H16C16.5523 10 17 10.4477 17 11C17 11.5523 16.5523 12 16 12H8C7.44772 12 7 11.5523 7 11Z"/>
    <path d="M8 6C7.44772 6 7 6.44772 7 7C7 7.55228 7.44772 8 8 8H16C16.5523 8 17 7.55228 17 7C17 6.44772 16.5523 6 16 6H8Z"/>
    <path fill-rule="evenodd" clip-rule="evenodd"
          d="M2 5C2 3.34315 3.34315 2 5 2H19C20.6569 2 22 3.34315 22 5V19C22 20.6569 20.6569 22 19 22H5C3.34315 22 2 20.6569 2 19V5ZM5 4H19C19.5523 4 20 4.44771 20 5V13H17.4142C16.8838 13 16.3751 13.2107 16 13.5858L14.5858 15H9.41421L8 13.5858C7.62493 13.2107 7.11622 13 6.58579 13H4V5C4 4.44772 4.44771 4 5 4ZM4 15V19C4 19.5523 4.44772 20 5 20H19C19.5523 20 20 19.5523 20 19V15H17.4142L16 16.4142C15.6249 16.7893 15.1162 17 14.5858 17H9.41421C8.88378 17 8.37507 16.7893 8 16.4142L6.58579 15H4Z"/>
</svg>
