<svg viewBox="0 0 24 24" xmlns="http://www.w3.org/2000/svg">
<path fill-rule="evenodd" clip-rule="evenodd" d="M16.0872 16.7802L13.5626 20.9277C11.9858 23.5182 8 22.4005 8 19.3679L8 17.0001C8 16.4478 7.55228 16.0001 7 16.0001L5.82843 16.0001C5.03278 16.0001 4.26971 15.6841 3.70711 15.1214L3.14859 14.5629C2.3595 13.7738 2.07361 12.6119 2.40647 11.5468L4.10694 6.1053C4.49832 4.85287 5.65823 4.00012 6.97038 4.00012L12.7984 4.00012C13.4797 4.00012 14.1406 4.23197 14.6725 4.65752L15.7005 5.47987C16.05 5.1808 16.5039 5.00018 17 5.00018L20 5.00018C21.1046 5.00018 22 5.89561 22 7.00018L22 15.0002C22 16.1047 21.1046 17.0002 20 17.0002L17 17.0002C16.6711 17.0002 16.3608 16.9208 16.0872 16.7802ZM11.8542 19.8878C11.3286 20.7513 10 20.3787 10 19.3679L10 17.0001C10 15.3433 8.65685 14.0001 7 14.0001L5.82843 14.0001C5.56321 14.0001 5.30886 13.8948 5.12132 13.7072L4.56281 13.1487C4.29977 12.8857 4.20448 12.4984 4.31544 12.1433L6.0159 6.70185C6.14636 6.28437 6.533 6.00012 6.97038 6.00012L12.7984 6.00012C13.0255 6.00012 13.2458 6.0774 13.4231 6.21925L14.6247 7.1805C14.8619 7.37027 15 7.65759 15 7.96137L15 14.4393C15 14.6227 14.9496 14.8026 14.8542 14.9592L11.8542 19.8878ZM17 15.0002L20 15.0002L20 7.00018L17 7.00018L17 15.0002Z"/>
</svg>
