<svg width="25" height="24" viewBox="0 0 25 24" xmlns="http://www.w3.org/2000/svg">
<path d="M8.3999 10C8.3999 9.44772 8.84762 9 9.3999 9H15.3999C15.9522 9 16.3999 9.44772 16.3999 10C16.3999 10.5523 15.9522 11 15.3999 11H9.3999C8.84762 11 8.3999 10.5523 8.3999 10Z"/>
<path d="M9.3999 12C8.84762 12 8.3999 12.4477 8.3999 13C8.3999 13.5523 8.84762 14 9.3999 14H15.3999C15.9522 14 16.3999 13.5523 16.3999 13C16.3999 12.4477 15.9522 12 15.3999 12H9.3999Z"/>
<path d="M8.3999 16C8.3999 15.4477 8.84762 15 9.3999 15H12.3999C12.9522 15 13.3999 15.4477 13.3999 16C13.3999 16.5523 12.9522 17 12.3999 17H9.3999C8.84762 17 8.3999 16.5523 8.3999 16Z"/>
<path fill-rule="evenodd" clip-rule="evenodd" d="M17.2786 2.87868L19.5212 5.12132C20.0838 5.68393 20.3999 6.44699 20.3999 7.24264V19C20.3999 20.6569 19.0568 22 17.3999 22H7.3999C5.74305 22 4.3999 20.6569 4.3999 19V5C4.3999 3.34315 5.74305 2 7.3999 2H15.1573C15.9529 2 16.716 2.31607 17.2786 2.87868ZM17.3999 20C17.9522 20 18.3999 19.5523 18.3999 19V8H16.3999C15.2953 8 14.3999 7.10457 14.3999 6V4H7.3999C6.84762 4 6.3999 4.44772 6.3999 5V19C6.3999 19.5523 6.84762 20 7.3999 20H17.3999ZM16.3999 4.82843V6H17.5715L16.3999 4.82843Z"/>
</svg>
