<svg viewBox="0 0 24 24" xmlns="http://www.w3.org/2000/svg">
    <path d="M18.1213 9.70711C18.5118 9.31658 18.5118 8.68342 18.1213 8.29289C17.7308 7.90237 17.0976 7.90237 16.7071 8.29289L10.0607 14.9393C9.8654 15.1346 9.54882 15.1346 9.35355 14.9393L6.70711 12.2929C6.31658 11.9024 5.68342 11.9024 5.29289 12.2929C4.90237 12.6834 4.90237 13.3166 5.29289 13.7071L8.29289 16.7071C9.07394 17.4882 10.3403 17.4882 11.1213 16.7071L18.1213 9.70711Z" />
    <path fill-rule="evenodd" clip-rule="evenodd" d="M22 12C22 17.5228 17.5228 22 12 22C6.47715 22 2 17.5228 2 12C2 6.47715 6.47715 2 12 2C17.5228 2 22 6.47715 22 12ZM20 12C20 16.4183 16.4183 20 12 20C7.58172 20 4 16.4183 4 12C4 7.58172 7.58172 4 12 4C16.4183 4 20 7.58172 20 12Z" />
</svg>
