<svg viewBox="0 0 32 32" xmlns="http://www.w3.org/2000/svg">
<path d="M15.9997 2.6665C23.3634 2.6665 29.3335 8.63586 29.3337 15.9995C29.3337 23.3633 23.3635 29.3335 15.9997 29.3335C8.63605 29.3333 2.66669 23.3632 2.66669 15.9995C2.66686 8.63597 8.63616 2.66668 15.9997 2.6665ZM22.861 11.6489C22.2989 11.1733 21.4578 11.2431 20.9821 11.8052L14.5847 19.3657L10.2761 15.0571C9.75536 14.5364 8.91101 14.5364 8.39032 15.0571C7.86977 15.5778 7.86968 16.4222 8.39032 16.9429L13.7243 22.2759C13.988 22.5394 14.3499 22.681 14.7224 22.6655C15.0947 22.65 15.4435 22.4792 15.6843 22.1948L23.0182 13.5278C23.4938 12.9657 23.4231 12.1245 22.861 11.6489Z"/>
</svg>
