<svg viewBox="0 0 24 24" xmlns="http://www.w3.org/2000/svg">
    <path fill-rule="evenodd" clip-rule="evenodd"
          d="M5.62183 21.9569C6.53476 21.9569 7.42689 21.5911 8.12112 20.8993L8.12264 20.8978L21.0904 7.91953C21.171 7.87526 21.2468 7.81904 21.3152 7.75087C22.2198 6.84944 22.2198 5.44843 21.3152 4.54701L19.5218 2.75982C18.6191 1.86032 17.2193 1.86032 16.3166 2.75982L3.12253 15.9082C2.42822 16.6001 2.05979 17.4908 2.05979 18.4038L2.05979 20.9569C2.05979 21.5092 2.50751 21.9569 3.05979 21.9569L5.62183 21.9569ZM19.9937 6.14894C19.9937 6.16943 19.9903 6.19467 19.9794 6.22319C19.9324 6.25613 19.8877 6.29357 19.8458 6.33551L18.5535 7.62884L16.4125 5.4878L17.7284 4.17649C17.8027 4.10239 17.8714 4.0852 17.9192 4.0852C17.967 4.0852 18.0357 4.10239 18.11 4.1765L19.9035 5.96368C19.9778 6.03773 19.9937 6.1045 19.9937 6.14894ZM17.1399 9.04363L6.70938 19.4826C6.37894 19.8116 5.98968 19.9569 5.62183 19.9569L4.05979 19.9569L4.05979 18.4038C4.05979 18.0402 4.20377 17.6543 4.53428 17.3249L14.9958 6.89957L17.1399 9.04363Z"/>
</svg>
