<svg viewBox="0 0 32 32" xmlns="http://www.w3.org/2000/svg">
    <path d="M22.955 7.318l1.659 1.666c0.863 0.866 0.863 2.211 0 3.077l-2.133 2.142c-0.013 0.013-0.026 0.025-0.039 0.037l-10.749 10.791c-0.188 0.188-0.443 0.294-0.708 0.294h-3.319c-0.552 0-1-0.448-1-1v-3.331c0-0.265 0.105-0.518 0.292-0.706l10.904-10.946c0.013-0.013 0.026-0.025 0.039-0.038l1.978-1.986c0.865-0.868 2.211-0.868 3.076 0zM21.296 8.729l-1.43 1.436 1.907 1.915 1.425-1.43c0.056-0.056 0.064-0.102 0.064-0.127s-0.008-0.071-0.064-0.127l-1.659-1.666c-0.056-0.056-0.1-0.063-0.121-0.063s-0.065 0.007-0.121 0.063zM20.36 13.496l-1.907-1.915-9.787 9.825v1.918h1.903l9.791-9.829z"></path>
</svg>
