<svg viewBox="0 0 24 24" xmlns="http://www.w3.org/2000/svg">
    <path fill-rule="evenodd" clip-rule="evenodd"
          d="M13.7743 2.58078C12.7183 1.80641 11.2821 1.8064 10.2261 2.58079L3.90884 7.21345C3.89193 7.22585 3.87553 7.23868 3.85963 7.25191C2.76834 7.71622 2 8.82693 2 10.1233V17.9164C2 19.6304 3.34315 21.0198 5 21.0198H19C20.6569 21.0198 22 19.6304 22 17.9164V10.1233C22 8.82726 21.232 7.71678 20.1412 7.25226C20.1252 7.2389 20.1086 7.22596 20.0916 7.21345L13.7743 2.58078ZM16.4455 7.01984L12.5916 4.1936C12.2396 3.93547 11.7608 3.93547 11.4088 4.19359L7.55487 7.01984H16.4455ZM4.88299 9.09581C4.92137 9.09118 4.96042 9.0888 5 9.0888H19C19.0396 9.0888 19.0787 9.09119 19.1171 9.09582C19.0447 9.12589 18.9747 9.16502 18.9087 9.21343L13.7036 13.0305C12.6786 12.3231 11.3216 12.3232 10.2966 13.0306L5.09143 9.21343C5.0254 9.16501 4.9554 9.12588 4.88299 9.09581ZM4 10.8932V17.6466L8.60459 14.2699L4 10.8932ZM5.60346 18.9509H18.3969L12.5916 14.6936C12.2396 14.4355 11.7608 14.4355 11.4088 14.6936L5.60346 18.9509ZM20 17.6463L15.3957 14.2698L20 10.8933V17.6463Z"/>
</svg>
