<svg viewBox="0 0 24 24" xmlns="http://www.w3.org/2000/svg">
<path fill-rule="evenodd" clip-rule="evenodd" d="M12.6549 4.26087C12.2791 3.93272 11.7209 3.93272 11.3451 4.26087L7.18069 7.89664H16.8193L12.6549 4.26087ZM10.0352 2.73834L3.87558 8.11608C2.77584 8.56426 2 9.65025 2 10.9188V18.9778C2 20.6469 3.34315 21.9999 5 21.9999H19C20.6569 21.9999 22 20.6469 22 18.9778V10.9188C22 9.65027 21.2242 8.5643 20.1245 8.11611L13.9648 2.73834C12.8372 1.75389 11.1628 1.75389 10.0352 2.73834ZM4 18.585V11.3787L4.34509 11.68C4.76244 12.0444 5.394 11.999 5.7557 11.5785C6.11741 11.1581 6.0723 10.5219 5.65495 10.1575L5.37307 9.9114H18.55L18.3763 10.0631C17.9589 10.4274 17.9138 11.0636 18.2755 11.4841C18.6373 11.9045 19.2688 11.95 19.6862 11.5856L20 11.3116V18.5178L19.6549 18.2166C19.2376 17.8522 18.606 17.8976 18.2443 18.3181C17.8826 18.7385 17.9277 19.3747 18.3451 19.7391L18.6269 19.9852H5.44999L5.6237 19.8335C6.04105 19.4691 6.08616 18.8329 5.72445 18.4125C5.36275 17.9921 4.73119 17.9466 4.31384 18.311L4 18.585ZM14.4853 16.7291C14.8758 17.1225 14.8758 17.7603 14.4853 18.1537C14.0948 18.5471 13.4616 18.5471 13.0711 18.1537C13.0771 18.1598 13.0764 18.1594 13.0669 18.1542C13.0384 18.1385 12.9301 18.0789 12.6874 18.0213C12.4017 17.9536 12.0387 17.9145 11.6569 17.9145C11.2751 17.9145 10.9121 17.9536 10.6264 18.0213C10.3836 18.0789 10.2753 18.1385 10.2468 18.1542C10.2374 18.1594 10.2367 18.1598 10.2427 18.1537C9.85213 18.5471 9.21901 18.5471 8.8285 18.1537C8.43799 17.7603 8.43797 17.1225 8.82845 16.7291C8.82246 16.7351 8.82285 16.7344 8.828 16.7249C8.84359 16.6962 8.90276 16.5871 8.95989 16.3425C9.02711 16.0547 9.06589 15.689 9.06589 15.3044C9.06588 14.9198 9.02711 14.5541 8.95988 14.2663C8.90276 14.0218 8.84359 13.9127 8.828 13.884L8.828 13.884C8.82285 13.8745 8.82246 13.8737 8.82845 13.8798C8.43792 13.4864 8.43792 12.8485 8.82845 12.4551C9.21897 12.0617 9.85214 12.0617 10.2427 12.4551C10.6204 12.8356 10.8059 13.3733 10.9067 13.8049C10.9597 14.0319 10.9987 14.2719 11.0248 14.5165L13.7782 11.7428C14.1688 11.3494 14.8019 11.3494 15.1925 11.7428C15.583 12.1362 15.583 12.774 15.1925 13.1674L12.439 15.9411C12.6819 15.9674 12.9201 16.0067 13.1454 16.0601C13.5738 16.1617 14.1076 16.3486 14.4853 16.7291Z"/>
</svg>
