<svg viewBox="0 0 24 24" xmlns="http://www.w3.org/2000/svg">
<path d="M9.53569 13.1676C9.14517 12.7742 9.14517 12.1363 9.53569 11.7429C9.92622 11.3495 10.5594 11.3495 10.9499 11.7429C10.9439 11.7369 10.9446 11.7373 10.9541 11.7425C10.9826 11.7582 11.0909 11.8178 11.3336 11.8753C11.6193 11.943 11.9823 11.9821 12.3641 11.9821C12.7459 11.9821 13.1089 11.943 13.3946 11.8753C13.6374 11.8178 13.7457 11.7582 13.7742 11.7425C13.7836 11.7373 13.7843 11.7369 13.7783 11.7429C14.1689 11.3496 14.802 11.3496 15.1925 11.743C15.583 12.1364 15.583 12.7742 15.1925 13.1676C15.1985 13.1615 15.1981 13.1623 15.193 13.1717C15.1774 13.2005 15.1182 13.3096 15.0611 13.5541C14.9939 13.8419 14.9551 14.2076 14.9551 14.5922C14.9551 14.9768 14.9939 15.3425 15.0611 15.6303C15.1182 15.8749 15.1774 15.9839 15.193 16.0127C15.1981 16.0222 15.1985 16.0229 15.1925 16.0169C15.5831 16.4103 15.5831 17.0481 15.1925 17.4415C14.802 17.8349 14.1689 17.8349 13.7783 17.4415C13.4006 17.061 13.2151 16.5233 13.1143 16.0918C13.0613 15.8648 13.0223 15.6248 12.9962 15.3801L10.2428 18.1539C9.85223 18.5473 9.21906 18.5473 8.82854 18.1539C8.43801 17.7605 8.43801 17.1226 8.82854 16.7292L11.582 13.9555C11.3391 13.9292 11.1009 13.8899 10.8755 13.8365C10.4471 13.735 9.91339 13.548 9.53569 13.1676Z"/>
<path fill-rule="evenodd" clip-rule="evenodd" d="M10.0352 2.73834L3.87545 8.1162C2.77578 8.56441 2 9.65036 2 10.9188V18.9779C2 20.6469 3.34315 22 5 22H19C20.6569 22 22 20.6469 22 18.9779V10.9188C22 9.65038 21.2243 8.56445 20.1246 8.11622L13.9648 2.73834C12.8372 1.75389 11.1628 1.75389 10.0352 2.73834ZM12.6549 4.26087C12.2791 3.93272 11.7209 3.93272 11.3451 4.26087L7.18062 7.8967H16.8194L12.6549 4.26087ZM4 18.5851V11.3788L4.34509 11.6801C4.76244 12.0445 5.394 11.999 5.7557 11.5786C6.11741 11.1582 6.0723 10.5219 5.65495 10.1576L5.37307 9.91146H18.55L18.3763 10.0631C17.9589 10.4275 17.9138 11.0637 18.2755 11.4841C18.6373 11.9046 19.2688 11.95 19.6862 11.5856L20 11.3116V18.5179L19.6549 18.2166C19.2376 17.8522 18.606 17.8977 18.2443 18.3181C17.8826 18.7386 17.9277 19.3748 18.3451 19.7391L18.6269 19.9852H5.44999L5.6237 19.8336C6.04105 19.4692 6.08616 18.833 5.72445 18.4126C5.36275 17.9921 4.73119 17.9467 4.31384 18.3111L4 18.5851Z"/>
</svg>
