<svg viewBox="0 0 24 24" xmlns="http://www.w3.org/2000/svg">
    <path fill-rule="evenodd" clip-rule="evenodd"
        d="M3.87545 8.1162L10.0352 2.73834C11.1628 1.75389 12.8372 1.75389 13.9648 2.73834L20.1246 8.11622C21.2243 8.56445 22 9.65038 22 10.9188V18.9779C22 20.6469 20.6569 22 19 22H5C3.34315 22 2 20.6469 2 18.9779V10.9188C2 9.65036 2.77578 8.56441 3.87545 8.1162ZM11.3451 4.26087C11.7209 3.93272 12.2791 3.93272 12.6549 4.26087L16.8194 7.8967H7.18062L11.3451 4.26087ZM4.94646 9.91288C4.96419 9.91194 4.98204 9.91146 5 9.91146H19C19.018 9.91146 19.0358 9.91194 19.0536 9.91288L15.0917 13.4345L14.5962 13.867L13.9648 13.3158C12.8372 12.3314 11.1628 12.3314 10.0352 13.3158L9.40384 13.867L8.9083 13.4344L4.94646 9.91288ZM4 11.7585V18.5849L7.87696 15.2001L7.59508 14.954L4 11.7585ZM16.1231 15.2001L20 18.5849V11.7586L16.4117 14.9481L16.1231 15.2001ZM12.6549 14.8383L18.5502 19.9852H5.44985L11.3451 14.8383C11.7209 14.5102 12.2791 14.5102 12.6549 14.8383Z"/>
</svg>
