<svg viewBox="0 0 24 24" xmlns="http://www.w3.org/2000/svg">
    <path d="M5 4H19C19.5523 4 20 4.44771 20 5V11C20 11.5523 20.4477 12 21 12C21.5523 12 22 11.5523 22 11V5C22 3.34315 20.6569 2 19 2H5C3.34315 2 2 3.34315 2 5V19C2 20.6569 3.34315 22 5 22H11C11.5523 22 12 21.5523 12 21C12 20.4477 11.5523 20 11 20H5C4.44772 20 4 19.5523 4 19V5C4 4.44772 4.44771 4 5 4Z" />
    <path fill-rule="evenodd" clip-rule="evenodd" d="M16 13C14.3431 13 13 14.3431 13 16V19C13 20.6569 14.3431 22 16 22H19C20.6569 22 22 20.6569 22 19V16C22 14.3431 20.6569 13 19 13H16ZM19 15H16C15.4477 15 15 15.4477 15 16V19C15 19.5523 15.4477 20 16 20H19C19.5523 20 20 19.5523 20 19V16C20 15.4477 19.5523 15 19 15Z" />
    <path d="M11.4852 7.24248C11.8758 6.85195 11.8758 6.21879 11.4852 5.82826C11.0947 5.43774 10.4615 5.43774 10.071 5.82826C10.077 5.82227 10.0763 5.82267 10.0669 5.82781C10.0383 5.8434 9.93006 5.90258 9.6873 5.9597C9.40161 6.02692 9.0386 6.0657 8.6568 6.0657C8.27501 6.0657 7.912 6.02692 7.62631 5.9597C7.38356 5.90258 7.27528 5.84341 7.24675 5.82781C7.23733 5.82267 7.2366 5.82227 7.24259 5.82826C6.85206 5.43779 6.21894 5.4378 5.82843 5.82831C5.43792 6.21882 5.4379 6.85195 5.82838 7.24248C5.82238 7.23648 5.82278 7.23721 5.82793 7.24663C5.84352 7.27516 5.9027 7.38344 5.95981 7.62619C6.02704 7.91189 6.06581 8.27489 6.06581 8.65669C6.06581 9.03848 6.02704 9.40149 5.95981 9.68718C5.90269 9.92995 5.84352 10.0382 5.82793 10.0667C5.82278 10.0762 5.82238 10.0769 5.82838 10.0709C5.43785 10.4614 5.43785 11.0946 5.82838 11.4851C6.2189 11.8756 6.85207 11.8756 7.24259 11.4851C7.62029 11.1074 7.80585 10.5737 7.90665 10.1453C7.95967 9.91994 7.99865 9.68167 8.02476 9.43885L11.5858 13C11.9763 13.3905 12.6095 13.3905 13 13C13.3905 12.6095 13.3905 11.9763 13 11.5858L9.43897 8.02464C9.68179 7.99853 9.92005 7.95955 10.1454 7.90653C10.5738 7.80573 11.1075 7.62018 11.4852 7.24248Z" />
</svg>
