<svg viewBox="0 0 32 32" xmlns="http://www.w3.org/2000/svg">
    <path d="M24 18c0.368 0 0.667 0.299 0.667 0.667v5.333c0 0.368-0.299 0.667-0.667 0.667h-5.333c-0.368 0-0.667-0.299-0.667-0.667v-5.333c0-0.368 0.299-0.667 0.667-0.667h5.333zM18.667 16c-1.473 0-2.667 1.194-2.667 2.667v5.333c0 1.473 1.194 2.667 2.667 2.667h5.333c1.473 0 2.667-1.194 2.667-2.667v-5.333c0-1.473-1.194-2.667-2.667-2.667h-5.333z"></path>
    <path d="M9.333 7.333h13.333c1.105 0 2 0.895 2 2v3c0 0.552 0.448 1 1 1v0c0.552 0 1-0.448 1-1v-3c0-2.209-1.791-4-4-4h-13.333c-2.209 0-4 1.791-4 4v13.333c0 2.209 1.791 4 4 4h3c0.552 0 1-0.448 1-1v0c0-0.552-0.448-1-1-1h-3c-1.105 0-2-0.895-2-2v-13.333c0-1.105 0.895-2 2-2z"></path>
    <path d="M10.284 9.743c-0.118 0.049-0.228 0.121-0.324 0.217z"></path>
    <path d="M9.96 9.96c-0.096 0.096-0.168 0.206-0.217 0.324z"></path>
    <path d="M9.743 10.284c-0.049 0.118-0.076 0.247-0.076 0.383v4c0 0.552 0.448 1 1 1s1-0.448 1-1v-1.586l2.96 2.96c0.391 0.391 1.024 0.391 1.414 0s0.391-1.024 0-1.414l-2.96-2.96h1.586c0.552 0 1-0.448 1-1s-0.448-1-1-1h-4c-0.136 0-0.265 0.027-0.383 0.076z"></path>
</svg>
