<svg viewBox="0 0 24 24" xmlns="http://www.w3.org/2000/svg">
    <path d="M19 4H5C4.44772 4 4 4.44771 4 5V11C4 11.5523 3.55228 12 3 12C2.44772 12 2 11.5523 2 11V5C2 3.34315 3.34315 2 5 2H19C20.6569 2 22 3.34315 22 5V19C22 20.6569 20.6569 22 19 22H13C12.4477 22 12 21.5523 12 21C12 20.4477 12.4477 20 13 20H19C19.5523 20 20 19.5523 20 19V5C20 4.44772 19.5523 4 19 4Z"/>
    <path fill-rule="evenodd" clip-rule="evenodd"
          d="M8 13C9.65685 13 11 14.3431 11 16V19C11 20.6569 9.65685 22 8 22H5C3.34315 22 2 20.6569 2 19V16C2 14.3431 3.34315 13 5 13H8ZM5 15H8C8.55229 15 9 15.4477 9 16V19C9 19.5523 8.55228 20 8 20H5C4.44772 20 4 19.5523 4 19V16C4 15.4477 4.44772 15 5 15Z"/>
    <path d="M12.5148 7.24248C12.1242 6.85195 12.1242 6.21879 12.5148 5.82826C12.9053 5.43774 13.5385 5.43774 13.929 5.82826C13.923 5.82227 13.9237 5.82267 13.9331 5.82781C13.9617 5.8434 14.0699 5.90258 14.3127 5.9597C14.5984 6.02692 14.9614 6.0657 15.3432 6.0657C15.725 6.0657 16.088 6.02692 16.3737 5.9597C16.6164 5.90258 16.7247 5.84341 16.7533 5.82781C16.7627 5.82267 16.7634 5.82227 16.7574 5.82826C17.1479 5.43779 17.7811 5.4378 18.1716 5.82831C18.5621 6.21882 18.5621 6.85195 18.1716 7.24248C18.1776 7.23648 18.1772 7.23721 18.1721 7.24663C18.1565 7.27516 18.0973 7.38344 18.0402 7.62619C17.973 7.91189 17.9342 8.27489 17.9342 8.65669C17.9342 9.03848 17.973 9.40149 18.0402 9.68718C18.0973 9.92995 18.1565 10.0382 18.1721 10.0667C18.1772 10.0762 18.1776 10.0769 18.1716 10.0709C18.5621 10.4614 18.5621 11.0946 18.1716 11.4851C17.7811 11.8756 17.1479 11.8756 16.7574 11.4851C16.3797 11.1074 16.1942 10.5737 16.0934 10.1453C16.0403 9.91994 16.0014 9.68167 15.9752 9.43885L12.4142 13C12.0237 13.3905 11.3905 13.3905 11 13C10.6095 12.6095 10.6095 11.9763 11 11.5858L14.561 8.02464C14.3182 7.99853 14.0799 7.95955 13.8546 7.90653C13.4262 7.80573 12.8925 7.62018 12.5148 7.24248Z"/>
</svg>
