<svg viewBox="0 0 24 24" xmlns="http://www.w3.org/2000/svg">
    <path fill-rule="evenodd" clip-rule="evenodd"
          d="M14.7578 2C15.5533 2.00012 16.3164 2.3164 16.8789 2.87891L19.1211 5.12109C19.6836 5.6836 19.9999 6.4467 20 7.24219V10C20 10.5523 19.5523 11 19 11C18.4477 11 18 10.5523 18 10V8H16C14.8954 8 14 7.10457 14 6V4H7C6.44772 4 6 4.44772 6 5V19C6 19.5523 6.44772 20 7 20H14C14.5523 20 15 20.4477 15 21C15 21.5523 14.5523 22 14 22H7C5.34315 22 4 20.6569 4 19V5C4 3.34315 5.34315 2 7 2H14.7578ZM16 6H17.1719L16 4.82812V6Z"/>
    <path d="M19 13C19.5523 13 20 13.4477 20 14V18.0859L20.293 17.793C20.6835 17.4024 21.3165 17.4024 21.707 17.793C22.0975 18.1835 22.0975 18.8165 21.707 19.207L19 21.9141L16.293 19.207C15.9024 18.8165 15.9024 18.1835 16.293 17.793C16.6835 17.4024 17.3165 17.4024 17.707 17.793L18 18.0859V14C18 13.4477 18.4477 13 19 13Z"/>
    <path d="M14 9H14.5C15.0523 9 15.5 9.44775 15.5 10C15.5 10.5399 15.0723 10.9786 14.5371 10.998L13.2021 12.999L14.5361 15.001C15.0713 15.0203 15.5 15.4601 15.5 16C15.5 16.5522 15.0521 16.9998 14.5 17H13.4639L13.168 16.5547L12 14.8027L10.832 16.5547L10.5361 17H9.5C8.94785 16.9998 8.50001 16.5522 8.5 16C8.50005 15.4601 8.92865 15.0203 9.46387 15.001L10.7969 12.999L9.46289 10.998C8.92769 10.9786 8.5 10.5399 8.5 10C8.50004 9.44775 8.94774 9 9.5 9H10L10.5352 8.99902L12 11.1963L13.4648 8.99902L14 9Z"/>
</svg>
