<svg viewBox="0 0 24 24" xmlns="http://www.w3.org/2000/svg">
    <path d="M12 5C10.0805 5 8.15819 5.73368 6.45195 6.89973C4.75084 8.06228 3.26384 9.65533 2.21218 11.3798C2.17864 11.4256 2.14807 11.4733 2.1211 11.523C1.95963 11.8205 1.95963 12.1795 2.1211 12.477C2.14808 12.5267 2.17864 12.5744 2.21218 12.6202C3.00249 13.9161 4.03865 15.1378 5.22677 16.1584L6.90197 14.9485C5.85506 14.1176 4.92055 13.0962 4.18862 12C5.07534 10.6719 6.25939 9.45376 7.58042 8.55096C9.04986 7.54674 10.5853 7 12 7C13.3042 7 14.7111 7.46468 16.0742 8.32411L17.8011 7.07693C17.7173 7.01682 17.6329 6.95774 17.548 6.89973C15.8418 5.73368 13.9195 5 12 5Z"/>
    <path fill-rule="evenodd" clip-rule="evenodd" d="M7.59048 17.7949L5.17098 19.6214C4.72326 19.9447 4.09817 19.8439 3.77481 19.3962C3.45145 18.9484 3.55227 18.3234 4 18L20.4144 6.18939C20.8621 5.86604 21.4872 5.96686 21.8105 6.41458C22.1339 6.86231 22.0331 7.4874 21.5854 7.81075L19.9542 8.97448C20.6526 9.72123 21.2725 10.5347 21.7878 11.3798C21.8214 11.4256 21.8519 11.4733 21.8789 11.5229C22.0404 11.8205 22.0404 12.1795 21.8789 12.477C21.852 12.5265 21.8215 12.5742 21.7878 12.6202C20.7362 14.3447 19.2492 15.9377 17.548 17.1003C15.8418 18.2663 13.9195 19 12 19C10.4969 19 8.99197 18.5501 7.59048 17.7949ZM18.3095 10.1478L9.45348 16.4658C10.3186 16.8161 11.1796 17 12 17C13.4147 17 14.9501 16.4533 16.4196 15.449C17.7406 14.5462 18.9247 13.3281 19.8114 12C19.3761 11.348 18.8691 10.7225 18.3095 10.1478Z"/>
    <path d="M12 9C12.7857 9 13.5009 9.30205 14.0357 9.79636L9.26749 13.2401C9.09569 12.8621 9 12.4422 9 12C9 10.3431 10.3431 9 12 9Z"/>
</svg>
