<svg viewBox="0 0 32 32" xmlns="http://www.w3.org/2000/svg">
    <path d="M16 5.667c-2.618 0-5.16 1.118-7.341 2.79-2.176 1.667-4.058 3.932-5.385 6.365-0.205 0.321-0.34 0.697-0.34 1.112 0 0.414 0.134 0.787 0.337 1.108 1.106 2.076 2.733 4.14 4.527 5.747l-1.838 1.838c-0.391 0.391-0.391 1.024 0 1.414s1.024 0.391 1.414 0l6.38-6.38c0.007-0.007 0.014-0.013 0.021-0.020s0.014-0.014 0.020-0.021l5.958-5.958c0.014-0.013 0.028-0.027 0.042-0.042l6.246-6.246c0.391-0.391 0.391-1.024 0-1.414s-1.024-0.391-1.414 0l-5.647 5.647c-2.070-1.329-4.844-1.155-6.619 0.62-0.009 0.009-0.019 0.019-0.028 0.029-1.705 1.847-1.941 4.605-0.609 6.608l-2.509 2.509c-1.659-1.467-3.183-3.392-4.197-5.306-0.016-0.030-0.033-0.059-0.052-0.087-0.013-0.020-0.021-0.035-0.027-0.045 0.005-0.010 0.013-0.025 0.027-0.045 0.017-0.025 0.032-0.051 0.047-0.078 1.205-2.22 2.916-4.275 4.863-5.767 1.951-1.495 4.076-2.377 6.125-2.377 0.552 0 1-0.448 1-1s-0.448-1-1-1zM13.788 13.627c0.96-0.947 2.464-1.156 3.725-0.554l-4.326 4.325c-0.567-1.173-0.39-2.686 0.601-3.772zM24.808 11.114c0.416-0.364 1.047-0.322 1.411 0.094 0.982 1.122 1.815 2.371 2.504 3.608 0.207 0.322 0.343 0.699 0.343 1.117 0 0.321-0.080 0.617-0.211 0.883-0.017 0.112-0.053 0.223-0.11 0.328-1.328 2.447-3.217 4.725-5.404 6.4-2.182 1.672-4.724 2.789-7.341 2.789-1.217 0-2.537-0.3-3.684-0.73-0.517-0.194-0.779-0.77-0.585-1.287s0.77-0.779 1.287-0.585c0.986 0.37 2.065 0.603 2.982 0.603 2.049 0 4.174-0.882 6.125-2.377 1.887-1.446 3.553-3.422 4.751-5.565 0.020-0.143 0.072-0.284 0.158-0.413 0.013-0.020 0.021-0.035 0.026-0.045-0.005-0.010-0.013-0.025-0.026-0.045-0.015-0.023-0.029-0.046-0.042-0.069-0.641-1.153-1.402-2.292-2.278-3.294-0.364-0.416-0.322-1.047 0.094-1.411z"></path>
    <path d="M15 6.667c0-0.552 0.448-1 1-1 2.563 0 5.177 1.194 7.291 2.886 0.431 0.345 0.501 0.974 0.156 1.406s-0.974 0.501-1.406 0.156c-1.886-1.509-4.072-2.448-6.042-2.448-0.552 0-1-0.448-1-1z"></path>
</svg>
