<svg viewBox="0 0 24 24" xmlns="http://www.w3.org/2000/svg">
    <path fill-rule="evenodd" clip-rule="evenodd"
          d="M6.45195 6.89973C8.15819 5.73368 10.0805 5 12 5C13.9195 5 15.8418 5.73368 17.548 6.89973C19.2492 8.06228 20.7362 9.65533 21.7878 11.3798C21.8214 11.4256 21.8519 11.4733 21.8789 11.5229C22.0404 11.8205 22.0404 12.1795 21.8789 12.477C21.852 12.5265 21.8215 12.5742 21.7878 12.6202C20.7362 14.3447 19.2492 15.9377 17.548 17.1003C15.8418 18.2663 13.9195 19 12 19C10.0805 19 8.15819 18.2663 6.45195 17.1003C4.75084 15.9377 3.26384 14.3447 2.21218 12.6202C2.17864 12.5744 2.14808 12.5267 2.1211 12.477C1.95963 12.1795 1.95963 11.8205 2.1211 11.523C2.14807 11.4733 2.17864 11.4256 2.21218 11.3798C3.26384 9.65533 4.75084 8.06228 6.45195 6.89973ZM12 7C10.5853 7 9.04986 7.54674 7.58042 8.55096C6.25939 9.45376 5.07534 10.6719 4.18862 12C5.07534 13.3281 6.25939 14.5462 7.58042 15.449C9.04986 16.4533 10.5853 17 12 17C13.4147 17 14.9501 16.4533 16.4196 15.449C17.7406 14.5462 18.9247 13.3281 19.8114 12C18.9247 10.6719 17.7406 9.45376 16.4196 8.55096C14.9501 7.54674 13.4147 7 12 7Z"/>
    <path fill-rule="evenodd" clip-rule="evenodd"
          d="M9 12C9 10.3431 10.3431 9 12 9C13.6569 9 15 10.3431 15 12C15 13.6569 13.6569 15 12 15C10.3431 15 9 13.6569 9 12Z"/>
</svg>
