<svg viewBox="0 0 24 24" xmlns="http://www.w3.org/2000/svg">
<path d="M14.2422 8.58594C14.6327 8.19541 15.2657 8.19541 15.6562 8.58594C16.0468 8.97646 16.0468 9.60948 15.6562 10L13.5352 12.1211L15.6562 14.2432C16.0466 14.6337 16.0467 15.2668 15.6562 15.6572C15.2658 16.0475 14.6327 16.0475 14.2422 15.6572L12.1211 13.5352L9.99902 15.6572C9.60847 16.0474 8.97536 16.0476 8.58496 15.6572C8.19456 15.2668 8.19481 14.6337 8.58496 14.2432L10.707 12.1211L8.58496 10C8.19468 9.60952 8.19468 8.97641 8.58496 8.58594C8.97542 8.19548 9.60848 8.1956 9.99902 8.58594L12.1211 10.707L14.2422 8.58594Z"/>
<path fill-rule="evenodd" clip-rule="evenodd" d="M12 2C17.5228 2 22 6.47715 22 12C22 17.5228 17.5228 22 12 22C6.47715 22 2 17.5228 2 12C2 6.47715 6.47715 2 12 2ZM12 4C7.58172 4 4 7.58172 4 12C4 16.4183 7.58172 20 12 20C16.4183 20 20 16.4183 20 12C20 7.58172 16.4183 4 12 4Z"/>
</svg>
