<svg width="24" height="24" viewBox="0 0 24 24" fill="none" xmlns="http://www.w3.org/2000/svg">
<path d="M13 13H11V15H13V13Z" fill="white"/>
<path d="M14 13H16V15H14V13Z" fill="white"/>
<path d="M19 15V13H17V15H19Z" fill="white"/>
<path fill-rule="evenodd" clip-rule="evenodd" d="M19.1213 5.12132L16.8787 2.87868C16.3161 2.31607 15.553 2 14.7574 2H7C5.34315 2 4 3.34315 4 5V19C4 20.6569 5.34315 22 7 22H17C18.6569 22 20 20.6569 20 19V18C21.1046 18 22 17.1046 22 16V12C22 10.8954 21.1046 10 20 10V7.24264C20 6.44699 19.6839 5.68393 19.1213 5.12132ZM8 16C8 17.1046 8.89543 18 10 18H18V19C18 19.5523 17.5523 20 17 20H7C6.44772 20 6 19.5523 6 19V5C6 4.44772 6.44772 4 7 4H14V6C14 7.10457 14.8954 8 16 8H18V10H10C8.89543 10 8 10.8954 8 12V16ZM16 6V4.82843L17.1716 6H16ZM20 12H10V16H20V12Z" fill="white"/>
</svg>
