<svg viewBox="0 0 24 24" xmlns="http://www.w3.org/2000/svg">
    <path d="M20 3C20 2.44772 19.5523 2 19 2C18.4477 2 18 2.44772 18 3V6.26756C17.4022 6.61337 17 7.25972 17 8C17 8.74028 17.4022 9.38663 18 9.73244L18 21C18 21.5523 18.4477 22 19 22C19.5523 22 20 21.5523 20 21V9.73244C20.5978 9.38663 21 8.74028 21 8C21 7.25972 20.5978 6.61337 20 6.26756V3Z" />
    <path d="M13 3C13 2.44771 12.5523 2 12 2C11.4477 2 11 2.44771 11 3L11 14.2676C10.4022 14.6134 10 15.2597 10 16C10 16.7403 10.4022 17.3866 11 17.7324V21C11 21.5523 11.4477 22 12 22C12.5523 22 13 21.5523 13 21V17.7324C13.5978 17.3866 14 16.7403 14 16C14 15.2597 13.5978 14.6134 13 14.2676L13 3Z" />
    <path d="M6 3C6 2.44771 5.55229 2 5 2C4.44771 2 4 2.44771 4 3L4 9.26756C3.4022 9.61337 3 10.2597 3 11C3 11.7403 3.4022 12.3866 4 12.7324L4 21C4 21.5523 4.44771 22 5 22C5.55228 22 6 21.5523 6 21L6 12.7324C6.5978 12.3866 7 11.7403 7 11C7 10.2597 6.5978 9.61337 6 9.26756L6 3Z" />
</svg>
