<svg viewBox="0 0 32 32" xmlns="http://www.w3.org/2000/svg">
    <path d="M24.667 3c0.552 0 1 0.448 1 1v4.133c0 0.552-0.448 1-1 1s-1-0.448-1-1v-4.133c0-0.552 0.448-1 1-1z"></path>
    <path d="M24.667 13.799c0.552 0 1 0.448 1 1v13.2c0 0.552-0.448 1-1 1s-1-0.448-1-1v-13.2c0-0.552 0.448-1 1-1z"></path>
    <path d="M24.667 7.133c2.393 0 4.333 1.94 4.333 4.333s-1.94 4.333-4.333 4.333-4.333-1.94-4.333-4.333c0-2.393 1.94-4.333 4.333-4.333zM27 11.466c0-1.289-1.045-2.333-2.333-2.333s-2.333 1.045-2.333 2.333c0 1.289 1.045 2.333 2.333 2.333s2.333-1.045 2.333-2.333z"></path>
    <path d="M16 22.867c0.552 0 1 0.448 1 1v4.133c0 0.552-0.448 1-1 1s-1-0.448-1-1v-4.133c0-0.552 0.448-1 1-1z"></path>
    <path d="M16 3c0.552 0 1 0.448 1 1v13.2c0 0.552-0.448 1-1 1s-1-0.448-1-1v-13.2c0-0.552 0.448-1 1-1z"></path>
    <path d="M16 16.201c2.393 0 4.333 1.94 4.333 4.333s-1.94 4.333-4.333 4.333c-2.393 0-4.333-1.94-4.333-4.333s1.94-4.333 4.333-4.333zM18.333 20.534c0-1.289-1.045-2.333-2.333-2.333s-2.333 1.045-2.333 2.333c0 1.289 1.045 2.333 2.333 2.333s2.333-1.045 2.333-2.333z"></path>
    <path d="M7.333 13.799c0.552 0 1 0.448 1 1v13.2c0 0.552-0.448 1-1 1s-1-0.448-1-1v-13.2c0-0.552 0.448-1 1-1z"></path>
    <path d="M7.333 3c0.552 0 1 0.448 1 1v4.133c0 0.552-0.448 1-1 1s-1-0.448-1-1v-4.133c0-0.552 0.448-1 1-1z"></path>
    <path d="M7.333 7.133c2.393 0 4.333 1.94 4.333 4.333s-1.94 4.333-4.333 4.333-4.333-1.94-4.333-4.333c0-2.393 1.94-4.333 4.333-4.333zM9.667 11.466c0-1.289-1.045-2.333-2.333-2.333s-2.333 1.045-2.333 2.333c0 1.289 1.045 2.333 2.333 2.333s2.333-1.045 2.333-2.333z"></path>
</svg>
