<svg width="24" height="24" viewBox="0 0 24 24" xmlns="http://www.w3.org/2000/svg">
<path fill-rule="evenodd" clip-rule="evenodd" d="M14.6001 2C13.4955 2 12.6001 2.89543 12.6001 4V5C12.6001 5.04359 12.6015 5.08686 12.6042 5.12976L10.4683 6.19775C10.2057 6.07103 9.91119 6 9.6001 6H6.6001C5.49553 6 4.6001 6.89543 4.6001 8V10C4.6001 11.1046 5.49553 12 6.6001 12H9.6001C9.87976 12 10.146 11.9426 10.3877 11.8389L13.6127 13.7739C13.6044 13.8481 13.6001 13.9236 13.6001 14V16.8405L11.5788 17.7068C11.4369 16.7412 10.6051 16 9.6001 16H4.6001C3.49553 16 2.6001 16.8954 2.6001 18V20C2.6001 21.1046 3.49553 22 4.6001 22H9.6001C10.7047 22 11.6001 21.1046 11.6001 20V19.8736L13.824 18.9205C14.1571 19.5619 14.8274 20 15.6001 20H20.6001C21.7047 20 22.6001 19.1046 22.6001 18V14C22.6001 12.8954 21.7047 12 20.6001 12H15.6001C15.3203 12 15.0539 12.0575 14.8121 12.1612L11.5874 10.2264C11.5958 10.1521 11.6001 10.0765 11.6001 10V8C11.6001 7.95632 11.5987 7.91297 11.5959 7.86998L13.7317 6.80212C13.9943 6.92893 14.2889 7 14.6001 7H16.6001C17.7047 7 18.6001 6.10457 18.6001 5V4C18.6001 2.89543 17.7047 2 16.6001 2H14.6001ZM16.6001 4H14.6001V5H16.6001V4ZM9.6001 8H6.6001V10H9.6001V8ZM20.6001 14H15.6001V18H20.6001V14ZM4.6001 18H9.6001V20H4.6001L4.6001 18Z"/>
</svg>
