<svg viewBox="0 0 32 32" xmlns="http://www.w3.org/2000/svg">
    <path d="M21.333 15.667c0 0.552-0.448 1-1 1h-11.267c-0.552 0-1-0.448-1-1s0.448-1 1-1h11.267c0.552 0 1 0.448 1 1z"></path>
    <path d="M23 21.333c2.025 0 3.667 1.642 3.667 3.667s-1.642 3.667-3.667 3.667c-2.025 0-3.667-1.642-3.667-3.667s1.642-3.667 3.667-3.667zM24.667 25c0-0.921-0.746-1.667-1.667-1.667s-1.667 0.746-1.667 1.667c0 0.921 0.746 1.667 1.667 1.667s1.667-0.746 1.667-1.667z"></path>
    <path d="M21.333 25c0 0.552-0.448 1-1 1h-8.6c-2.019 0-3.667-1.648-3.667-3.667v-13c0-0.552 0.448-1 1-1s1 0.448 1 1v13c0 0.914 0.752 1.667 1.667 1.667h8.6c0.552 0 1 0.448 1 1z"></path>
    <path d="M23 12c2.025 0 3.667 1.642 3.667 3.667s-1.642 3.667-3.667 3.667c-2.025 0-3.667-1.642-3.667-3.667s1.642-3.667 3.667-3.667zM24.667 15.667c0-0.921-0.746-1.667-1.667-1.667s-1.667 0.746-1.667 1.667c0 0.921 0.746 1.667 1.667 1.667s1.667-0.746 1.667-1.667z"></path>
    <path d="M9.133 2.667c2.025 0 3.667 1.642 3.667 3.667s-1.642 3.667-3.667 3.667c-2.025 0-3.667-1.642-3.667-3.667s1.642-3.667 3.667-3.667zM10.799 6.333c0-0.92-0.746-1.667-1.667-1.667s-1.667 0.746-1.667 1.667c0 0.92 0.746 1.667 1.667 1.667s1.667-0.746 1.667-1.667z"></path>
</svg>
