<svg viewBox="0 0 24 24" xmlns="http://www.w3.org/2000/svg">
    <path d="M13.8575 7.5144C14.1416 7.04082 13.9881 6.42656 13.5145 6.14241C13.0409 5.85827 12.4267 6.01183 12.1425 6.48541L9.14251 11.4854C8.95715 11.7943 8.95229 12.1791 9.1298 12.4926C9.30731 12.8061 9.63973 12.9999 10 12.9999H12.2338L10.1425 16.4854C9.85836 16.959 10.0119 17.5733 10.4855 17.8574C10.9591 18.1415 11.5733 17.988 11.8575 17.5144L14.8575 12.5144C15.0429 12.2055 15.0477 11.8207 14.8702 11.5072C14.6927 11.1937 14.3603 10.9999 14 10.9999H11.7662L13.8575 7.5144Z"/>
    <path fill-rule="evenodd" clip-rule="evenodd"
          d="M12 2C6.44504 2 2 6.44504 2 12C2 17.555 6.44504 22 12 22C17.555 22 22 17.555 22 12C22 6.44504 17.555 2 12 2ZM4 12C4 7.54961 7.54961 4 12 4C16.4504 4 20 7.54961 20 12C20 16.4504 16.4504 20 12 20C7.54961 20 4 16.4504 4 12Z"/>
</svg>
