<svg viewBox="0 0 24 24" xmlns="http://www.w3.org/2000/svg">
    <path d="M22 12.2397C22 11.5644 21.9333 10.8672 21.8222 10.2136H12.1973V14.0698H17.7099C17.4876 15.3116 16.7541 16.4009 15.6649 17.098L18.9547 19.6034C20.8886 17.8388 22 15.268 22 12.2397Z"
          fill="#4280EF"/>
    <path d="M12.1971 22.0001C14.9535 22.0001 17.2652 21.1068 18.9546 19.5818L15.6648 17.0982C14.7534 17.7082 13.5753 18.0568 12.1971 18.0568C9.52973 18.0568 7.28466 16.2921 6.46221 13.9392L3.0835 16.4882C4.81731 19.865 8.3294 22.0001 12.1971 22.0001Z"
          fill="#34A353"/>
    <path d="M6.46235 13.9173C6.04001 12.6755 6.04001 11.3248 6.46235 10.083L3.08363 7.51221C1.63879 10.3444 1.63879 13.6777 3.08363 16.4881L6.46235 13.9173Z"
          fill="#F6B704"/>
    <path d="M12.1971 5.96545C13.642 5.94366 15.0646 6.48831 16.1093 7.46869L19.0213 4.59292C17.1763 2.89361 14.7312 1.97859 12.1971 2.00038C8.3294 2.00038 4.81731 4.13542 3.0835 7.51226L6.46221 10.083C7.28466 7.70833 9.52973 5.96545 12.1971 5.96545Z"
          fill="#E54335"/>
</svg>
