<svg viewBox="0 0 24 24" xmlns="http://www.w3.org/2000/svg">
<g id="Component 2">
<g id="Union">
<path fill-rule="evenodd" clip-rule="evenodd" d="M12 2C12.3344 2 12.6466 2.1671 12.8321 2.4453L14.4243 4.83358L15.7188 4.45416C16.0638 4.35304 16.4365 4.4449 16.695 4.69477C16.9535 4.94463 17.058 5.31402 16.9687 5.66227L15.7922 10.2485C15.6787 10.6907 15.2801 11 14.8236 11H9.17649C8.71991 11 8.32131 10.6907 8.20786 10.2485L7.03139 5.66227C6.94205 5.31402 7.04654 4.94463 7.30504 4.69477C7.56355 4.4449 7.93629 4.35304 8.28129 4.45416L9.57578 4.83358L11.168 2.4453C11.3534 2.1671 11.6657 2 12 2ZM12 4.80278L10.8321 6.5547C10.5895 6.91863 10.1385 7.08265 9.71875 6.95963L9.40538 6.86778L9.95235 9H14.0477L14.5947 6.86778L14.2813 6.95963C13.8616 7.08265 13.4106 6.91863 13.168 6.5547L12 4.80278Z"/>
<path fill-rule="evenodd" clip-rule="evenodd" d="M7.00002 13C7.33438 13 7.64661 13.1671 7.83207 13.4453L9.42426 15.8336L10.7188 15.4542C11.0638 15.353 11.4365 15.4449 11.695 15.6948C11.8908 15.884 11.9982 16.1418 12 16.407C12.0006 16.492 11.9903 16.5778 11.9687 16.6623L10.7922 21.2485C10.6787 21.6907 10.2801 22 9.82355 22H4.17649C3.71991 22 3.32131 21.6907 3.20786 21.2485L2.03139 16.6623C1.94205 16.314 2.04654 15.9446 2.30504 15.6948C2.56355 15.4449 2.93629 15.353 3.28129 15.4542L4.57578 15.8336L6.16797 13.4453C6.35344 13.1671 6.66567 13 7.00002 13ZM7.00002 15.8028L5.83207 17.5547C5.58946 17.9186 5.13848 18.0827 4.71875 17.9596L4.40538 17.8678L4.95235 20H9.0477L9.59466 17.8678L9.28129 17.9596C8.86157 18.0827 8.41059 17.9186 8.16797 17.5547L7.00002 15.8028Z"/>
<path fill-rule="evenodd" clip-rule="evenodd" d="M12 16.407C12.0018 16.1418 12.1093 15.884 12.305 15.6948C12.5635 15.4449 12.9363 15.353 13.2813 15.4542L14.5758 15.8336L16.168 13.4453C16.3534 13.1671 16.6657 13 17 13C17.3344 13 17.6466 13.1671 17.8321 13.4453L19.4243 15.8336L20.7188 15.4542C21.0638 15.353 21.4365 15.4449 21.695 15.6948C21.9535 15.9446 22.058 16.314 21.9687 16.6623L20.7922 21.2485C20.6787 21.6907 20.2801 22 19.8236 22H14.1765C13.7199 22 13.3213 21.6907 13.2079 21.2485L12.0314 16.6623C12.0097 16.5778 11.9994 16.492 12 16.407ZM15.8321 17.5547L17 15.8028L18.168 17.5547C18.4106 17.9186 18.8616 18.0827 19.2813 17.9596L19.5947 17.8678L19.0477 20H14.9523L14.4054 17.8678L14.7188 17.9596C15.1385 18.0827 15.5895 17.9186 15.8321 17.5547Z"/>
</g>
</g>
</svg>
