<svg viewBox="0 0 24 24" xmlns="http://www.w3.org/2000/svg">
<path d="M12.0003 4C8.23775 4 5.04227 6.54436 4.21075 10.4925L4.82385 10.584C5.18555 10.638 5.3688 11.0493 5.16705 11.3544L3.03294 14.581C2.79582 14.9395 2.24677 14.8515 2.13356 14.4368L1.12452 10.741C1.02942 10.3927 1.32357 10.0615 1.68069 10.1148L2.23073 10.1969C3.2087 5.31615 7.18726 2 12.0003 2C17.5231 2 22.0003 6.47715 22.0003 12C22.0003 17.5228 17.5231 22 12.0003 22C11.448 22 11.0003 21.5523 11.0003 21C11.0003 20.4477 11.448 20 12.0003 20C16.4186 20 20.0003 16.4183 20.0003 12C20.0003 7.58172 16.4186 4 12.0003 4Z"/>
<path d="M13 9C13 8.44772 12.5523 8 12 8C11.4477 8 11 8.44772 11 9V12.5858L9.29289 14.2929C8.90237 14.6834 8.90237 15.3166 9.29289 15.7071C9.68342 16.0976 10.3166 16.0976 10.7071 15.7071L12.7071 13.7071C12.8946 13.5196 13 13.2652 13 13V9Z"/>
</svg>
