<svg viewBox="0 0 32 32" xmlns="http://www.w3.org/2000/svg">
    <path d="M18.434 11.3c0.579 0 1.049 0.469 1.049 1.049v7.301c0 0.579-0.469 1.049-1.049 1.049s-1.049-0.469-1.049-1.049v-7.301c0-0.579 0.469-1.049 1.049-1.049z"></path>
    <path d="M14.615 12.349c0-0.579-0.469-1.049-1.049-1.049s-1.049 0.469-1.049 1.049v7.301c0 0.579 0.469 1.049 1.049 1.049s1.049-0.469 1.049-1.049v-7.301z"></path>
    <path d="M16 28c-6.663 0-12-5.337-12-12s5.337-12 12-12c6.663 0 12 5.337 12 12s-5.337 12-12 12zM16 6.097c-5.505 0-9.903 4.398-9.903 9.903s4.398 9.903 9.903 9.903c5.505 0 9.903-4.398 9.903-9.903s-4.398-9.903-9.903-9.903z"></path>
</svg>
