<svg viewBox="0 0 24 24" xmlns="http://www.w3.org/2000/svg">
    <path d="M14.5 7.5L12 9L9.5 7.5H14.5Z"/>
    <path fill-rule="evenodd" clip-rule="evenodd"
          d="M18 3C18.5523 3 19 3.44772 19 4C19 4.55228 18.5523 5 18 5H17.5V7.72377C17.5 8.74947 16.976 9.70408 16.1106 10.2548L13.3681 12L16.1106 13.7452C16.976 14.2959 17.5 15.2505 17.5 16.2762V19H18C18.5523 19 19 19.4477 19 20C19 20.5523 18.5523 21 18 21H6C5.44772 21 5 20.5523 5 20C5 19.4477 5.44772 19 6 19H6.5V16.2762C6.5 15.2505 7.02403 14.2959 7.88937 13.7452L10.6319 12L7.88937 10.2548C7.02403 9.70408 6.5 8.74947 6.5 7.72377V5H6C5.44772 5 5 4.55228 5 4C5 3.44772 5.44772 3 6 3H18ZM15.5 18.75V16.2762C15.5 15.9343 15.3253 15.6161 15.0369 15.4326L12 13.5L8.96312 15.4326C8.67468 15.6161 8.5 15.9343 8.5 16.2762V18.75L12 17L15.5 18.75ZM15.5 5H8.5V7.72377C8.5 8.06567 8.67468 8.38387 8.96312 8.56743L12 10.5L15.0369 8.56743C15.3253 8.38387 15.5 8.06567 15.5 7.72377V5Z"/>
</svg>
