<svg viewBox="0 0 24 24" xmlns="http://www.w3.org/2000/svg">
    <path d="M11.9146 8.9964C11.7254 8.98039 11.5511 8.9117 11.4067 8.80504C11.3964 8.79746 11.3862 8.78967 11.3762 8.78167L11.3621 8.77031C11.2809 8.70319 11.2122 8.62464 11.1571 8.53828C11.1338 8.50181 11.1127 8.46373 11.0942 8.42424C10.988 8.20995 10.9006 8.00793 10.8125 7.80425C10.6324 7.38804 10.4494 6.96483 10.0963 6.41554C9.60834 5.65655 10.831 6.75564 9.44524 5.83183C8.98572 5.52548 8.86154 4.90461 9.16789 4.44508C9.47425 3.98555 10.0951 3.86138 10.5546 4.16773C11.6198 4.87786 10.4056 3.59795 11 4.29038L11 3C11 2.44772 11.4477 2 12 2C12.5523 2 13 2.44772 13 3L13 4.2902C13.5943 3.59782 12.3801 4.87779 13.4452 4.16773C13.9047 3.86138 14.5256 3.98555 14.8319 4.44508C15.1383 4.90461 15.0141 5.52548 14.5546 5.83183C13.1689 6.75564 14.3915 5.65655 13.9036 6.41554C13.5505 6.96483 13.3674 7.38804 13.1874 7.80425C13.1 8.0062 13.0134 8.20652 12.9084 8.41879C12.8768 8.48718 12.8377 8.55141 12.7922 8.6104C12.7487 8.66687 12.6989 8.7191 12.643 8.76589C12.4851 8.89857 12.2857 8.98334 12.0669 8.99779"/>
    <path d="M11.9999 9C11.9715 9.00002 11.943 8.99883 11.9146 8.9964L11.9999 9Z"/>
    <path d="M11.9146 15.0036C11.7254 15.0196 11.5511 15.0883 11.4067 15.195C11.3964 15.2025 11.3862 15.2103 11.3762 15.2183L11.3621 15.2297C11.2809 15.2968 11.2122 15.3754 11.1571 15.4617C11.1338 15.4982 11.1127 15.5363 11.0942 15.5758C10.988 15.7901 10.9006 15.9921 10.8125 16.1958C10.6324 16.612 10.4494 17.0352 10.0963 17.5845C9.60834 18.3435 10.831 17.2444 9.44524 18.1682C8.98572 18.4745 8.86154 19.0954 9.16789 19.5549C9.47425 20.0144 10.0951 20.1386 10.5546 19.8323C11.6198 19.1221 10.4056 20.402 11 19.7096L11 21C11 21.5523 11.4477 22 12 22C12.5523 22 13 21.5523 13 21L13 19.7098C13.5943 20.4022 12.3801 19.1222 13.4452 19.8323C13.9047 20.1386 14.5256 20.0144 14.8319 19.5549C15.1383 19.0954 15.0141 18.4745 14.5546 18.1682C13.1689 17.2444 14.3915 18.3435 13.9036 17.5845C13.5505 17.0352 13.3674 16.612 13.1874 16.1958C13.1 15.9938 13.0134 15.7935 12.9084 15.5812C12.8768 15.5128 12.8377 15.4486 12.7922 15.3896C12.7487 15.3331 12.6989 15.2809 12.643 15.2341C12.4851 15.1014 12.2857 15.0167 12.0669 15.0022"/>
    <path d="M11.9999 15C11.9715 15 11.943 15.0012 11.9146 15.0036L11.9999 15Z"/>
    <path d="M8.9964 11.9146C8.98039 11.7254 8.9117 11.5511 8.80504 11.4067C8.79746 11.3964 8.78967 11.3862 8.78167 11.3762L8.77031 11.3621C8.70319 11.2809 8.62464 11.2122 8.53828 11.1571C8.50181 11.1338 8.46373 11.1127 8.42424 11.0942C8.20995 10.988 8.00793 10.9006 7.80425 10.8125C7.38804 10.6324 6.96483 10.4494 6.41554 10.0963C5.65655 9.60834 6.75564 10.831 5.83183 9.44524C5.52548 8.98572 4.90461 8.86154 4.44508 9.16789C3.98555 9.47425 3.86138 10.0951 4.16773 10.5546C4.87786 11.6198 3.59795 10.4056 4.29038 11L3 11C2.44772 11 2 11.4477 2 12C2 12.5523 2.44772 13 3 13L4.2902 13C3.59782 13.5943 4.87779 12.3801 4.16773 13.4452C3.86138 13.9047 3.98555 14.5256 4.44508 14.8319C4.90461 15.1383 5.52548 15.0141 5.83183 14.5546C6.75564 13.1689 5.65655 14.3915 6.41554 13.9036C6.96483 13.5505 7.38804 13.3674 7.80425 13.1874C8.0062 13.1 8.20652 13.0134 8.41879 12.9084C8.48718 12.8768 8.55141 12.8377 8.6104 12.7922C8.66687 12.7487 8.7191 12.6989 8.76589 12.643C8.89857 12.4851 8.98334 12.2857 8.99779 12.0669"/>
    <path d="M9 11.9999C9.00002 11.9715 8.99883 11.943 8.9964 11.9146L9 11.9999Z"/>
    <path d="M15.0036 11.9146C15.0196 11.7254 15.0883 11.5511 15.195 11.4067C15.2025 11.3964 15.2103 11.3862 15.2183 11.3762L15.2297 11.3621C15.2968 11.2809 15.3754 11.2122 15.4617 11.1571C15.4982 11.1338 15.5363 11.1127 15.5758 11.0942C15.7901 10.988 15.9921 10.9006 16.1958 10.8125C16.612 10.6324 17.0352 10.4494 17.5845 10.0963C18.3435 9.60834 17.2444 10.831 18.1682 9.44524C18.4745 8.98572 19.0954 8.86154 19.5549 9.16789C20.0144 9.47425 20.1386 10.0951 19.8323 10.5546C19.1221 11.6198 20.4021 10.4056 19.7096 11L21 11C21.5523 11 22 11.4477 22 12C22 12.5523 21.5523 13 21 13L19.7098 13C20.4022 13.5943 19.1222 12.3801 19.8323 13.4452C20.1386 13.9047 20.0144 14.5256 19.5549 14.8319C19.0954 15.1383 18.4745 15.0141 18.1682 14.5546C17.2444 13.1689 18.3435 14.3915 17.5845 13.9036C17.0352 13.5505 16.612 13.3674 16.1958 13.1874C15.9938 13.1 15.7935 13.0134 15.5812 12.9084C15.5128 12.8768 15.4486 12.8377 15.3896 12.7922C15.3331 12.7487 15.2809 12.6989 15.2341 12.643C15.1014 12.4851 15.0167 12.2857 15.0022 12.0669"/>
    <path d="M15 11.9999C15 11.9715 15.0012 11.943 15.0036 11.9146L15 11.9999Z"/>
    <circle cx="12" cy="12" r="1"/>
</svg>
