<svg viewBox="0 0 24 24" fill="none" xmlns="http://www.w3.org/2000/svg">
    <path d="M20.9999 3C10.5 3 12 13 11.9999 17M11.9999 17C11.9896 15.0001 14 12.0001 16 12.0001M11.9999 17C11.9896 15.0001 10 12.0001 8 12.0001"
          stroke="#454E68" stroke-width="2" stroke-linecap="round" stroke-linejoin="round"/>
    <path fill-rule="evenodd" clip-rule="evenodd"
          d="M3 17C3.55228 17 4 17.4477 4 18C4 18.34 4.11022 18.8722 4.41153 19.2907C4.67614 19.6582 5.12592 20 6 20C6.08633 20 6.1701 20.0109 6.25 20.0315C6.32991 20.0109 6.41367 20 6.5 20H17.5C17.5863 20 17.6701 20.0109 17.75 20.0315C17.8299 20.0109 17.9137 20 18 20C18.8741 20 19.3239 19.6582 19.5885 19.2907C19.8898 18.8722 20 18.34 20 18C20 17.4477 20.4477 17 21 17C21.5523 17 22 17.4477 22 18C22 18.66 21.8102 19.6278 21.2115 20.4593C20.5761 21.3418 19.5259 22 18 22C17.9137 22 17.8299 21.9891 17.75 21.9685C17.6701 21.9891 17.5863 22 17.5 22H6.5C6.41367 22 6.32991 21.9891 6.25 21.9685C6.1701 21.9891 6.08633 22 6 22C4.47408 22 3.42386 21.3418 2.78847 20.4593C2.18978 19.6278 2 18.66 2 18C2 17.4477 2.44772 17 3 17Z"
          fill="#454E68"/>
</svg>
