<svg viewBox="0 0 24 24" xmlns="http://www.w3.org/2000/svg">
<path d="M14.6484 11.9883C14.6484 13.4445 13.4679 14.625 12.0117 14.625C10.5555 14.625 9.375 13.4445 9.375 11.9883C9.375 10.5321 10.5555 9.35156 12.0117 9.35156C13.4679 9.35156 14.6484 10.5321 14.6484 11.9883Z" fill="url(#paint0_linear_3828_7753)"/>
<path fill-rule="evenodd" clip-rule="evenodd" d="M16.0547 5.13281H7.94531C6.39201 5.13281 5.13281 6.39201 5.13281 7.94531V16.0547C5.13281 17.608 6.39201 18.8672 7.94531 18.8672H16.0547C17.608 18.8672 18.8672 17.608 18.8672 16.0547V7.94531C18.8672 6.39201 17.608 5.13281 16.0547 5.13281ZM16.5234 11.9883C16.5234 14.48 14.5035 16.5 12.0117 16.5C9.51996 16.5 7.5 14.48 7.5 11.9883C7.5 9.49653 9.51996 7.47656 12.0117 7.47656C14.5035 7.47656 16.5234 9.49653 16.5234 11.9883ZM16.418 8.53125C17.0199 8.53125 17.5078 8.04331 17.5078 7.44141C17.5078 6.8395 17.0199 6.35156 16.418 6.35156C15.8161 6.35156 15.3281 6.8395 15.3281 7.44141C15.3281 8.04331 15.8161 8.53125 16.418 8.53125Z" fill="url(#paint1_linear_3828_7753)"/>
<path fill-rule="evenodd" clip-rule="evenodd" d="M5.85938 0C2.62333 0 0 2.62333 0 5.85938V18.1406C0 21.3767 2.62333 24 5.85938 24H18.1406C21.3767 24 24 21.3767 24 18.1406V5.85938C24 2.62333 21.3767 0 18.1406 0H5.85938ZM3.25781 7.94531C3.25781 5.35648 5.35648 3.25781 7.94531 3.25781H16.0547C18.6435 3.25781 20.7422 5.35648 20.7422 7.94531V16.0547C20.7422 18.6435 18.6435 20.7422 16.0547 20.7422H7.94531C5.35648 20.7422 3.25781 18.6435 3.25781 16.0547V7.94531Z" fill="url(#paint2_linear_3828_7753)"/>
<defs>
<linearGradient id="paint0_linear_3828_7753" x1="12" y1="0" x2="12" y2="24" gradientUnits="userSpaceOnUse">
<stop stop-color="#6C48CB"/>
<stop offset="0.255208" stop-color="#C837AB"/>
<stop offset="0.505208" stop-color="#F14D5A"/>
<stop offset="0.78125" stop-color="#FF9248"/>
<stop offset="1" stop-color="#FFDD55"/>
</linearGradient>
<linearGradient id="paint1_linear_3828_7753" x1="12" y1="0" x2="12" y2="24" gradientUnits="userSpaceOnUse">
<stop stop-color="#6C48CB"/>
<stop offset="0.255208" stop-color="#C837AB"/>
<stop offset="0.505208" stop-color="#F14D5A"/>
<stop offset="0.78125" stop-color="#FF9248"/>
<stop offset="1" stop-color="#FFDD55"/>
</linearGradient>
<linearGradient id="paint2_linear_3828_7753" x1="12" y1="0" x2="12" y2="24" gradientUnits="userSpaceOnUse">
<stop stop-color="#6C48CB"/>
<stop offset="0.255208" stop-color="#C837AB"/>
<stop offset="0.505208" stop-color="#F14D5A"/>
<stop offset="0.78125" stop-color="#FF9248"/>
<stop offset="1" stop-color="#FFDD55"/>
</linearGradient>
</defs>
</svg>
