<svg viewBox="0 0 24 24" xmlns="http://www.w3.org/2000/svg">
    <path fill-rule="evenodd" clip-rule="evenodd"
          d="M18.9956 9.2516C18.9985 9.1681 19 9.08422 19 9C19 5.13401 15.866 2 12 2C8.13401 2 5 5.13401 5 9C5 9.08422 5.00149 9.16809 5.00444 9.2516C3.18845 10.5162 2 12.6193 2 15C2 18.866 5.13401 22 9 22C10.0736 22 11.0907 21.7583 12 21.3264C12.9093 21.7583 13.9264 22 15 22C18.866 22 22 18.866 22 15C22 12.6193 20.8116 10.5162 18.9956 9.2516ZM12 14C12.6414 14 13.2547 13.8792 13.8182 13.6591C13.5193 12.583 12.8696 11.6528 12 10.9996C11.1304 11.6528 10.4807 12.583 10.1818 13.6591C10.7453 13.8792 11.3586 14 12 14ZM8.45118 12.5222C8.79722 11.6081 9.32914 10.7854 10.0008 10.1002C9.67745 10.0345 9.34275 10 9 10C8.35856 10 7.74534 10.1208 7.18183 10.3409C7.41386 11.1764 7.85741 11.924 8.45118 12.5222ZM12 8.67363C11.0907 8.24169 10.0736 8 9 8C8.3241 8 7.67056 8.0958 7.05224 8.27455C7.40363 5.85693 9.48496 4 12 4C14.515 4 16.5964 5.85693 16.9478 8.27455C16.3294 8.0958 15.6759 8 15 8C13.9264 8 12.9093 8.24169 12 8.67363ZM16.8182 10.3409C16.2547 10.1208 15.6414 10 15 10C14.6572 10 14.3225 10.0345 13.9992 10.1002C14.6709 10.7854 15.2028 11.6081 15.5488 12.5222C16.1426 11.924 16.5861 11.1764 16.8182 10.3409ZM18.5488 11.4778C19.4458 12.3816 20 13.6261 20 15C20 17.7614 17.7614 20 15 20C14.6572 20 14.3225 19.9655 13.9992 19.8998C15.2369 18.6372 16 16.9077 16 15C16 14.9158 15.9985 14.8319 15.9956 14.7484C17.1461 13.9472 18.0447 12.8095 18.5488 11.4778ZM12 19.0004C13.0315 18.2256 13.7536 17.0611 13.9478 15.7254C13.3294 15.9042 12.6759 16 12 16C11.3241 16 10.6706 15.9042 10.0522 15.7254C10.2464 17.0611 10.9685 18.2256 12 19.0004ZM10.0008 19.8998C8.76315 18.6372 8 16.9077 8 15C8 14.9158 8.00149 14.8319 8.00444 14.7484C6.85393 13.9472 5.9553 12.8095 5.45118 11.4778C4.55417 12.3816 4 13.6261 4 15C4 17.7614 6.23858 20 9 20C9.34275 20 9.67745 19.9655 10.0008 19.8998Z"/>
</svg>
