<svg viewBox="0 0 24 24" xmlns="http://www.w3.org/2000/svg">
<path d="M14.8287 9.17157C15.2192 9.5621 15.2192 10.1953 14.8287 10.5858L13.4144 12L14.8287 13.4142C15.2192 13.8047 15.2192 14.4379 14.8287 14.8284C14.4381 15.2189 13.805 15.2189 13.4144 14.8284L12.0002 13.4142L10.586 14.8284C10.1955 15.2189 9.56232 15.2189 9.1718 14.8284C8.78128 14.4379 8.78128 13.8047 9.1718 13.4142L10.586 12L9.1718 10.5858C8.78128 10.1953 8.78128 9.56209 9.1718 9.17157C9.56232 8.78105 10.1955 8.78105 10.586 9.17157L12.0002 10.5858L13.4144 9.17157C13.805 8.78105 14.4381 8.78105 14.8287 9.17157Z"/>
<path fill-rule="evenodd" clip-rule="evenodd" d="M14.1397 2.88628C12.958 1.70457 11.042 1.70457 9.86032 2.88628L2.88628 9.86032C1.70457 11.042 1.70457 12.958 2.88628 14.1397L9.86032 21.1137C11.042 22.2954 12.958 22.2954 14.1397 21.1137L21.1137 14.1397C22.2954 12.958 22.2954 11.042 21.1137 9.86032L14.1397 2.88628ZM19.6995 11.2745L12.7255 4.3005C12.3248 3.89983 11.6752 3.89983 11.2745 4.3005L4.3005 11.2745C3.89983 11.6752 3.89983 12.3248 4.3005 12.7255L11.2745 19.6995C11.6752 20.1002 12.3248 20.1002 12.7255 19.6995L19.6995 12.7255C20.1002 12.3248 20.1002 11.6752 19.6995 11.2745Z"/>
</svg>
