<svg viewBox="0 0 24 24" xmlns="http://www.w3.org/2000/svg">
    <path d="M15.7071 11.2071C16.0976 10.8166 16.0976 10.1834 15.7071 9.79289C15.3166 9.40237 14.6834 9.40237 14.2929 9.79289L11 13.0858L9.20711 11.2929C8.81658 10.9024 8.18342 10.9024 7.79289 11.2929C7.40237 11.6834 7.40237 12.3166 7.79289 12.7071L10.2929 15.2071C10.6834 15.5976 11.3166 15.5976 11.7071 15.2071L15.7071 11.2071Z"/>
    <path fill-rule="evenodd" clip-rule="evenodd"
          d="M9.86032 2.88628C11.042 1.70457 12.958 1.70457 14.1397 2.88628L21.1137 9.86032C22.2954 11.042 22.2954 12.958 21.1137 14.1397L14.1397 21.1137C12.958 22.2954 11.042 22.2954 9.86032 21.1137L2.88628 14.1397C1.70457 12.958 1.70457 11.042 2.88628 9.86032L9.86032 2.88628ZM12.7255 4.3005L19.6995 11.2745C20.1002 11.6752 20.1002 12.3248 19.6995 12.7255L12.7255 19.6995C12.3248 20.1002 11.6752 20.1002 11.2745 19.6995L4.3005 12.7255C3.89983 12.3248 3.89983 11.6752 4.3005 11.2745L11.2745 4.3005C11.6752 3.89983 12.3248 3.89983 12.7255 4.3005Z"/>
</svg>
