<svg viewBox="0 0 24 24" xmlns="http://www.w3.org/2000/svg">
<path fill-rule="evenodd" clip-rule="evenodd" d="M12 7C12.5523 7 13 7.44772 13 8V12C13 12.5523 12.5523 13 12 13C11.4477 13 11 12.5523 11 12V8C11 7.44772 11.4477 7 12 7Z"/>
<path d="M13 15.5C13 16.0523 12.5523 16.5 12 16.5C11.4477 16.5 11 16.0523 11 15.5C11 14.9477 11.4477 14.5 12 14.5C12.5523 14.5 13 14.9477 13 15.5Z"/>
<path fill-rule="evenodd" clip-rule="evenodd" d="M19.6995 11.2745L12.7255 4.3005C12.3248 3.89983 11.6752 3.89983 11.2745 4.3005L4.3005 11.2745C3.89983 11.6752 3.89983 12.3248 4.3005 12.7255L11.2745 19.6995C11.6752 20.1002 12.3248 20.1002 12.7255 19.6995L19.6995 12.7255C20.1002 12.3248 20.1002 11.6752 19.6995 11.2745ZM14.1397 2.88628C12.958 1.70457 11.042 1.70457 9.86032 2.88628L2.88628 9.86032C1.70457 11.042 1.70457 12.958 2.88628 14.1397L9.86032 21.1137C11.042 22.2954 12.958 22.2954 14.1397 21.1137L21.1137 14.1397C22.2954 12.958 22.2954 11.042 21.1137 9.86032L14.1397 2.88628Z"/>
</svg>
