<svg viewBox="0 0 24 24" xmlns="http://www.w3.org/2000/svg">
<path d="M7 3C5.34315 3 4 4.34315 4 6V10C4 10.5523 3.55228 11 3 11H2C1.44772 11 1 11.4477 1 12C1 12.5523 1.44772 13 2 13H3C3.55228 13 4 13.4477 4 14V18C4 19.6569 5.34315 21 7 21H7.5C8.05228 21 8.5 20.5523 8.5 20C8.5 19.4477 8.05228 19 7.5 19H7C6.44772 19 6 18.5523 6 18V14C6 13.2316 5.71115 12.5308 5.2361 12C5.71115 11.4692 6 10.7684 6 10V6C6 5.44772 6.44772 5 7 5H7.5C8.05228 5 8.5 4.55228 8.5 4C8.5 3.44772 8.05228 3 7.5 3H7Z" />
<path d="M20 6C20 4.34315 18.6569 3 17 3H16.5C15.9477 3 15.5 3.44772 15.5 4C15.5 4.55228 15.9477 5 16.5 5H17C17.5523 5 18 5.44772 18 6V10C18 10.7684 18.2889 11.4692 18.7639 12C18.2889 12.5308 18 13.2316 18 14V18C18 18.5523 17.5523 19 17 19H16.5C15.9477 19 15.5 19.4477 15.5 20C15.5 20.5523 15.9477 21 16.5 21H17C18.6569 21 20 19.6569 20 18V14C20 13.4477 20.4477 13 21 13H22C22.5523 13 23 12.5523 23 12C23 11.4477 22.5523 11 22 11H21C20.4477 11 20 10.5523 20 10V6Z" />
<path d="M10.9478 9.09151C11.2463 9.36969 11.6045 9.50878 12.0224 9.50878C12.4254 9.50878 12.7687 9.36969 13.0522 9.09151C13.3507 8.79868 13.5 8.43265 13.5 7.99341C13.5 7.55417 13.3582 7.19546 13.0746 6.91728C12.791 6.63909 12.4403 6.5 12.0224 6.5C11.6045 6.5 11.2463 6.64641 10.9478 6.93924C10.6493 7.21742 10.5 7.56881 10.5 7.99341C10.5 8.43265 10.6493 8.79868 10.9478 9.09151Z" />
<path d="M13.0746 13.8119C12.806 13.519 12.4627 13.3726 12.0448 13.3726C11.6119 13.3726 11.2537 13.5117 10.9701 13.7899C10.6866 14.0681 10.5448 14.4268 10.5448 14.866C10.5448 15.1881 10.6269 15.4736 10.791 15.7225C10.9701 15.9568 11.2015 16.1252 11.4851 16.2277L10.6567 19.5H12.0672L13.1194 16.4473C13.2687 16.0227 13.3657 15.7079 13.4104 15.5029C13.4701 15.298 13.5 15.0857 13.5 14.866C13.5 14.4414 13.3582 14.09 13.0746 13.8119Z" />
</svg>
