<svg viewBox="0 0 24 24" xmlns="http://www.w3.org/2000/svg">
<path fill-rule="evenodd" clip-rule="evenodd" d="M7.91283 8.21987L10.4374 4.07235C12.0142 1.48188 16 2.59957 16 5.6322V7.99994C16 8.55222 16.4477 8.99994 17 8.99994H18.1716C18.9672 8.99994 19.7303 9.31601 20.2929 9.87861L20.8514 10.4371C21.6405 11.2262 21.9264 12.3881 21.5935 13.4533L19.8931 18.8948C19.5017 20.1472 18.3418 20.9999 17.0296 20.9999H11.2016C10.5203 20.9999 9.85942 20.7681 9.32748 20.3425L8.29954 19.5202C7.94999 19.8193 7.49609 19.9999 7 19.9999H4C2.89543 19.9999 2 19.1044 2 17.9999V9.99988C2 8.89531 2.89543 7.99988 4 7.99988H7C7.32885 7.99988 7.63916 8.07925 7.91283 8.21987ZM12.1458 5.11225C12.6714 4.24876 14 4.62132 14 5.6322V7.99994C14 9.65679 15.3431 10.9999 17 10.9999H18.1716C18.4368 10.9999 18.6911 11.1053 18.8787 11.2928L19.4372 11.8513C19.7002 12.1144 19.7955 12.5017 19.6846 12.8567L17.9841 18.2982C17.8536 18.7157 17.467 18.9999 17.0296 18.9999H11.2016C10.9745 18.9999 10.7542 18.9227 10.5769 18.7808L9.37531 17.8196C9.13809 17.6298 9 17.3425 9 17.0387V10.5608C9 10.3774 9.05044 10.1975 9.1458 10.0408L12.1458 5.11225ZM7 9.99988H4L4 17.9999H7V9.99988Z"/>
</svg>
