<svg viewBox="0 0 24 24" xmlns="http://www.w3.org/2000/svg">
    <path fill-rule="evenodd" clip-rule="evenodd" d="M10.0866 2.3806C10.6932 2.12933 11.3434 2 12 2C12.6566 2 13.3068 2.12933 13.9134 2.3806C14.52 2.63188 15.0712 3.00017 15.5355 3.46447C15.8452 3.77411 16.1121 4.1224 16.3301 4.5C16.439 4.6886 16.5357 4.88452 16.6194 5.08658C16.859 5.66514 16.9886 6.37442 17 7C18.6666 7.08575 20 8.49495 20 10.3231V18.5819C20 20.4648 18.5846 22 16.8485 22H7.15152C5.41541 22 4 20.4648 4 18.5819V10.3231C4 8.49495 5.33508 7.08575 7.00166 7C7.01306 6.37442 7.14096 5.66514 7.3806 5.08658C7.4643 4.88452 7.56098 4.6886 7.66987 4.5C7.88788 4.1224 8.15483 3.77411 8.46447 3.46447C8.92876 3.00017 9.47995 2.63188 10.0866 2.3806ZM14.7716 5.85195C14.9103 6.18665 14.9879 6.63455 14.9993 6.99613H9.00233C9.01378 6.63455 9.08972 6.18665 9.22836 5.85195C9.27858 5.73071 9.33659 5.61316 9.40192 5.5C9.53273 5.27344 9.6929 5.06446 9.87868 4.87868C10.1573 4.6001 10.488 4.37913 10.8519 4.22836C11.2159 4.0776 11.606 4 12 4C12.394 4 12.7841 4.0776 13.1481 4.22836C13.512 4.37913 13.8427 4.6001 14.1213 4.87868C14.3071 5.06446 14.4673 5.27343 14.5981 5.5C14.6634 5.61316 14.7214 5.73071 14.7716 5.85195ZM7.15152 9.00848C6.48651 9.00848 5.93939 9.60187 5.93939 10.3231V18.5819C5.93939 19.3031 6.48651 19.8965 7.15152 19.8965H16.8485C17.5135 19.8965 18.0606 19.3031 18.0606 18.5819V10.3231C18.0606 9.60187 17.5135 9.00848 16.8485 9.00848H7.15152ZM14 13C14 13.7532 13.5837 14.4091 12.9686 14.7502C12.9891 14.8301 13 14.9138 13 15V17C13 17.5523 12.5523 18 12 18C11.4477 18 11 17.5523 11 17V15C11 14.9138 11.0109 14.8301 11.0314 14.7502C10.4163 14.4091 10 13.7532 10 13C10 11.8954 10.8954 11 12 11C13.1046 11 14 11.8954 14 13Z" />
</svg>
