<svg viewBox="0 0 24 24" xmlns="http://www.w3.org/2000/svg">
    <path fill-rule="evenodd" clip-rule="evenodd" d="M19 4H11C10.4477 4 10 4.44772 10 5V6C10 6.55228 9.55228 7 9 7C8.44772 7 8 6.55228 8 6V5C8 3.34315 9.34315 2 11 2H19C20.6569 2 22 3.34315 22 5V19C22 20.6569 20.6569 22 19 22H11C9.34315 22 8 20.6569 8 19V18C8 17.4477 8.44772 17 9 17C9.55228 17 10 17.4477 10 18V19C10 19.5523 10.4477 20 11 20H19C19.5523 20 20 19.5523 20 19V5C20 4.44772 19.5523 4 19 4ZM6.99993 8C7.55221 8 7.99993 8.44772 7.99993 9C7.99993 9.53415 7.75372 10.0428 7.52207 10.417C7.40023 10.6138 7.25931 10.8098 7.10608 11L12.1422 11.0001C12.6945 11.0001 13.1422 11.4478 13.1422 12.0001C13.1422 12.5524 12.6945 13.0001 12.1422 13.0001L7.10608 13C7.25931 13.1902 7.40023 13.3862 7.52207 13.583C7.75372 13.9572 7.99993 14.4658 7.99993 15C7.99993 15.5523 7.55221 16 6.99993 16C6.44764 16 5.99993 15.5523 5.99993 15C5.99993 15.0085 5.9997 15.0077 5.99668 14.9974C5.98753 14.9662 5.95281 14.8478 5.82154 14.6357C5.66706 14.3862 5.43779 14.1021 5.16782 13.8321C4.89785 13.5621 4.61375 13.3329 4.3642 13.1784C4.15216 13.0471 4.03375 13.0124 4.00255 13.0033C3.99225 13.0002 3.99145 13 3.99993 13C3.44768 13 3 12.5523 3 12C3 11.4477 3.44768 11 3.99993 11C3.99146 11 3.99225 10.9998 4.00255 10.9967C4.03375 10.9876 4.15216 10.9529 4.3642 10.8216C4.61375 10.6671 4.89785 10.4379 5.16782 10.1679C5.43779 9.89792 5.66706 9.61382 5.82154 9.36427C5.95281 9.15222 5.98753 9.03382 5.99668 9.00262C5.9997 8.99232 5.99993 8.99153 5.99993 9C5.99993 8.44772 6.44765 8 6.99993 8Z"/>
</svg>
