<svg width="24" height="24" viewBox="0 0 24 24" fill="none" xmlns="http://www.w3.org/2000/svg">
<path d="M13 12C13.5523 12 14 11.5523 14 11C14 10.4477 13.5523 10 13 10H9C8.44772 10 8 10.4477 8 11C8 11.5523 8.44772 12 9 12H13Z" fill="#00314D"/>
<path fill-rule="evenodd" clip-rule="evenodd" d="M11 19C12.8487 19 14.551 18.3729 15.9056 17.3199L19.2426 20.6569C19.6332 21.0474 20.2663 21.0474 20.6569 20.6569C21.0474 20.2663 21.0474 19.6332 20.6569 19.2426L17.3199 15.9056C18.3729 14.551 19 12.8487 19 11C19 6.58172 15.4183 3 11 3C6.58172 3 3 6.58172 3 11C3 15.4183 6.58172 19 11 19ZM11 17C14.3137 17 17 14.3137 17 11C17 7.68629 14.3137 5 11 5C7.68629 5 5 7.68629 5 11C5 14.3137 7.68629 17 11 17Z" fill="#00314D"/>
</svg>
