<svg viewBox="0 0 24 24" xmlns="http://www.w3.org/2000/svg">
<rect x="3" y="3" width="18" height="18" rx="9" fill="#40BAFF"/>
<path fill-rule="evenodd" clip-rule="evenodd" d="M7.37375 8.63443C7.3987 8.63127 7.42408 8.62964 7.4498 8.62964H16.5498C16.5756 8.62964 16.601 8.63127 16.6259 8.63444C16.5789 8.65499 16.5334 8.68173 16.4905 8.71483L13.1072 11.3238C12.4409 10.8403 11.5589 10.8403 10.8926 11.3238L7.50923 8.71483C7.46631 8.68173 7.42081 8.65498 7.37375 8.63443ZM6.7998 9.86294V14.4789L9.79279 12.1709L6.7998 9.86294ZM7.84206 15.3703H16.1578L12.3843 12.4605C12.1555 12.2841 11.8443 12.2841 11.6155 12.4605L7.84206 15.3703ZM17.1998 14.4787L14.207 12.1708L17.1998 9.863V14.4787Z" fill="#F7F7F7"/>
</svg>
