<svg width="24" height="24" viewBox="0 0 24 24" fill="none" xmlns="http://www.w3.org/2000/svg">
<path fill-rule="evenodd" clip-rule="evenodd" d="M12 22C17.5228 22 22 17.5228 22 12C22 6.47715 17.5228 2 12 2C6.47715 2 2 6.47715 2 12C2 17.5228 6.47715 22 12 22ZM5.875 8C5.84037 8 5.8062 8.00193 5.77262 8.00568C5.83597 8.03008 5.89722 8.06182 5.955 8.1011L10.5096 11.1975C11.4064 10.6237 12.5938 10.6237 13.4907 11.1975L18.0451 8.1011C18.1029 8.06182 18.1641 8.03009 18.2275 8.00569C18.1939 8.00193 18.1597 8 18.125 8H5.875ZM9.02902 12.2028L5 14.942V9.4637L9.02902 12.2028ZM17.5973 16H6.40303L11.4827 12.5465C11.7907 12.3372 12.2096 12.3372 12.5176 12.5465L17.5973 16ZM14.9712 12.2028L19 14.9418V9.46379L14.9712 12.2028Z" fill="#2083DF"/>
</svg>
