<svg viewBox="0 0 24 24" xmlns="http://www.w3.org/2000/svg">
<path fill-rule="evenodd" clip-rule="evenodd" d="M12 21C16.9706 21 21 16.9706 21 12C21 7.02944 16.9706 3 12 3C7.02944 3 3 7.02944 3 12C3 16.9706 7.02944 21 12 21ZM7.4498 9C7.42408 9 7.3987 9.00163 7.37375 9.00479C7.42081 9.02534 7.46631 9.05209 7.50923 9.08519L10.8926 11.6942C11.5589 11.2107 12.4409 11.2107 13.1072 11.6941L16.4905 9.08519C16.5334 9.05209 16.5789 9.02535 16.6259 9.0048C16.601 9.00163 16.5756 9 16.5498 9H7.4498ZM6.7998 14.8492V10.2333L9.79279 12.5413L6.7998 14.8492ZM16.1578 15.7407H7.84206L11.6155 12.8309C11.8443 12.6544 12.1555 12.6544 12.3843 12.8309L16.1578 15.7407ZM14.207 12.5412L17.1998 14.849V10.2334L14.207 12.5412Z"/>
</svg>
