<svg viewBox="0 0 24 24" xmlns="http://www.w3.org/2000/svg">
<path fill-rule="evenodd" clip-rule="evenodd" d="M12 22C17.5228 22 22 17.5228 22 12C22 6.47715 17.5228 2 12 2C6.47715 2 2 6.47715 2 12C2 17.5228 6.47715 22 12 22ZM6.94423 8.66667C6.91564 8.66667 6.88744 8.66847 6.85972 8.67199C6.91201 8.69483 6.96257 8.72454 7.01026 8.76132L10.7696 11.6602C11.5098 11.123 12.4899 11.123 13.2302 11.6602L16.9894 8.76132C17.0371 8.72455 17.0876 8.69483 17.1399 8.672C17.1122 8.66848 17.084 8.66667 17.0553 8.66667H6.94423ZM6.22201 15.1658V10.037L9.54755 12.6014L6.22201 15.1658ZM16.6198 16.1563H7.38006L11.5728 12.9232C11.827 12.7271 12.1728 12.7271 12.427 12.9232L16.6198 16.1563ZM14.4522 12.6013L17.7776 15.1656V10.0371L14.4522 12.6013Z" fill="#00314D"/>
</svg>
