<svg viewBox="0 0 24 24" xmlns="http://www.w3.org/2000/svg">
<path fill-rule="evenodd" clip-rule="evenodd" d="M12.2913 4.05334V12.1915C12.2913 12.7438 11.8435 13.1915 11.2913 13.1915H10.8842C10.3319 13.1915 9.88423 12.7438 9.88423 12.1915V5.20228C9.88423 5.20228 9.88016 5.1942 9.87112 5.1857C9.85272 5.16838 9.81749 5.14894 9.76493 5.14894C9.71236 5.14894 9.67714 5.16838 9.65873 5.1857C9.6497 5.1942 9.64567 5.20218 9.64567 5.20218L9.64563 12.1915C9.64563 12.7438 9.19791 13.1915 8.64563 13.1915H8.23861C7.68632 13.1915 7.23861 12.7438 7.23861 12.1915V7.88313C7.23861 7.88313 7.23453 7.87505 7.2255 7.86655C7.20709 7.84923 7.17187 7.82979 7.1193 7.82979C7.06674 7.82979 7.03151 7.84923 7.01311 7.86655C7.00407 7.87505 7.00005 7.88303 7.00005 7.88303L7 17.1702C7 18.6766 8.31634 20 10.0702 20H12.1053C12.9738 20 13.7475 19.669 14.3001 19.1481C14.3225 19.127 14.3459 19.1069 14.3702 19.0879C14.3795 19.0806 14.3884 19.073 14.397 19.0649L19.9059 13.8814C19.9766 13.8149 20 13.7427 20 13.6809C20 13.6191 19.9766 13.547 19.9059 13.4805C19.7458 13.3298 19.4624 13.3298 19.3023 13.4805L16.8608 15.7778C16.5702 16.0512 16.145 16.1257 15.7788 15.9675C15.4126 15.8092 15.1755 15.4485 15.1755 15.0495V5.77675C15.1755 5.77675 15.1714 5.76867 15.1624 5.76017C15.144 5.74285 15.1087 5.7234 15.0562 5.7234C15.0036 5.7234 14.9684 5.74285 14.95 5.76017C14.9409 5.76867 14.9369 5.77665 14.9369 5.77665L14.9369 12.1915C14.9369 12.7438 14.4892 13.1915 13.9369 13.1915H13.5299C12.9776 13.1915 12.5299 12.7438 12.5299 12.1915V4.05334C12.5299 4.05334 12.5258 4.04526 12.5167 4.03676C12.4983 4.01944 12.4631 4 12.4106 4C12.358 4 12.3228 4.01944 12.3044 4.03676C12.2953 4.04526 12.2913 4.05334 12.2913 4.05334ZM10.4524 3.26111C10.78 2.49878 11.5649 2 12.4106 2C13.4399 2 14.3792 2.73896 14.5134 3.79271C14.6887 3.74733 14.871 3.7234 15.0562 3.7234C16.1684 3.7234 17.1755 4.58617 17.1755 5.7766V12.7355L17.9318 12.0239C18.8619 11.1487 20.3463 11.1487 21.2764 12.0239C22.2412 12.9317 22.2412 14.4302 21.2764 15.338L15.7676 20.5214C15.7264 20.5602 15.6841 20.5972 15.6408 20.6325C14.7226 21.4834 13.4719 22 12.1053 22H10.0702C7.32823 22 5 19.8941 5 17.1702V7.88298C5 6.69256 6.00707 5.82979 7.1193 5.82979C7.29874 5.82979 7.47545 5.85224 7.64563 5.89491V5.20213C7.64563 4.01171 8.65269 3.14894 9.76493 3.14894C10.0017 3.14894 10.2338 3.18805 10.4524 3.26111Z"/>
</svg>
