<svg width="24" height="24" viewBox="0 0 24 24" fill="none" xmlns="http://www.w3.org/2000/svg">
    <path fill-rule="evenodd" clip-rule="evenodd"
          d="M9.80276 15.0005L12 17.1977L14.1972 15.0005H16.2151C16.5956 15.0005 16.9091 14.687 16.9091 14.3065V8.28495C16.9091 7.90439 16.5956 7.59091 16.2151 7.59091H7.78495C7.40439 7.59091 7.09091 7.90439 7.09091 8.28495V14.3065C7.09091 14.687 7.40439 15.0005 7.78495 15.0005H9.80276ZM9.81818 11.9545C10.1194 11.9545 10.3636 11.7103 10.3636 11.4091C10.3636 11.1078 10.1194 10.8636 9.81818 10.8636C9.51694 10.8636 9.27273 11.1078 9.27273 11.4091C9.27273 11.7103 9.51694 11.9545 9.81818 11.9545ZM12.5455 11.4091C12.5455 11.7103 12.3012 11.9545 12 11.9545C11.6988 11.9545 11.4545 11.7103 11.4545 11.4091C11.4545 11.1078 11.6988 10.8636 12 10.8636C12.3012 10.8636 12.5455 11.1078 12.5455 11.4091ZM14.1818 11.9545C14.4831 11.9545 14.7273 11.7103 14.7273 11.4091C14.7273 11.1078 14.4831 10.8636 14.1818 10.8636C13.8806 10.8636 13.6364 11.1078 13.6364 11.4091C13.6364 11.7103 13.8806 11.9545 14.1818 11.9545Z"
          fill="#FAB404"/>
    <path fill-rule="evenodd" clip-rule="evenodd"
          d="M12 22C17.5228 22 22 17.5228 22 12C22 6.47715 17.5228 2 12 2C6.47715 2 2 6.47715 2 12C2 17.5228 6.47715 22 12 22ZM11.5894 18.3299L9.35089 16.0914H7.78495C6.8019 16.0914 6 15.2895 6 14.3065V8.28495C6 7.3019 6.8019 6.5 7.78495 6.5H16.2151C17.1981 6.5 18 7.3019 18 8.28495V14.3065C18 15.2895 17.1981 16.0914 16.2151 16.0914H14.6491L12.4106 18.3299C12.1838 18.5567 11.8162 18.5567 11.5894 18.3299Z"
          fill="#FAB404"/>
</svg>
