<svg viewBox="0 0 24 24" xmlns="http://www.w3.org/2000/svg">
<path fill-rule="evenodd" clip-rule="evenodd" d="M9.62966 16.3408C10.4297 16.8297 11.363 17.0815 12.3111 17.0815C15.2297 17.0815 17.5852 14.7111 17.6 11.8074C17.6 10.4 17.0519 9.06669 16.0593 8.0741C15.0519 7.08151 13.7334 6.53336 12.326 6.53336C9.42225 6.53336 7.05188 8.90373 7.05188 11.8074C7.05188 12.8 7.31855 13.763 7.85188 14.6074L7.9704 14.8L7.43707 16.7408L9.43707 16.2222L9.62966 16.3408ZM14.8138 12.9321C14.9917 13.0191 15.1505 13.0967 15.2148 13.126C15.2642 13.1556 15.3103 13.1786 15.3509 13.1989C15.4321 13.2395 15.4914 13.2692 15.5111 13.3185C15.5556 13.3926 15.5556 13.7037 15.4222 14.0741C15.2889 14.4445 14.6667 14.7852 14.3556 14.8297C14.0889 14.8741 13.7482 14.8889 13.363 14.7704C13.126 14.6963 12.8445 14.5926 12.4593 14.4297C10.9387 13.7679 9.92652 12.2899 9.76626 12.0558C9.75789 12.0436 9.75185 12.0348 9.74817 12.0297C9.65929 11.926 9.09632 11.1704 9.09632 10.3852C9.09632 9.65919 9.45159 9.27528 9.6165 9.09708C9.62658 9.08619 9.63594 9.07608 9.64447 9.06669C9.79262 8.91855 9.95558 8.8741 10.0741 8.8741H10.3852C10.3946 8.8741 10.4046 8.8736 10.415 8.87308C10.5024 8.86867 10.6216 8.86267 10.7408 9.14077C10.7941 9.26522 10.8759 9.46552 10.9577 9.66582C11.0803 9.96626 11.203 10.2667 11.2297 10.3111C11.2741 10.4 11.3037 10.4889 11.2445 10.5926C11.2282 10.621 11.2142 10.6472 11.2009 10.6721C11.1656 10.738 11.1353 10.7948 11.0815 10.8593C11.0074 10.963 10.9185 11.0667 10.8445 11.1408C10.7556 11.2297 10.6815 11.3037 10.7704 11.4667C10.7774 11.4776 10.7853 11.4902 10.7941 11.5042C10.9167 11.6989 11.2171 12.1761 11.6593 12.563C12.1958 13.0341 12.6514 13.2278 12.8628 13.3176C12.8907 13.3295 12.9143 13.3395 12.9334 13.3482C13.0963 13.4222 13.1852 13.4074 13.2741 13.3037C13.2837 13.2925 13.296 13.2783 13.3103 13.2616C13.4281 13.1251 13.6854 12.8268 13.7778 12.6815C13.8815 12.5334 13.9852 12.5482 14.1334 12.6074C14.223 12.6433 14.5408 12.7987 14.8138 12.9321Z" fill="#00314D"/>
<path fill-rule="evenodd" clip-rule="evenodd" d="M22 12C22 17.5228 17.5228 22 12 22C6.47715 22 2 17.5228 2 12C2 6.47715 6.47715 2 12 2C17.5228 2 22 6.47715 22 12ZM12.3111 5.45188C14.0148 5.46669 15.6 6.11854 16.8 7.31854C18 8.51855 18.6667 10.1185 18.6519 11.7926C18.6519 15.2889 15.8074 18.1334 12.3111 18.1334C11.2445 18.1334 10.2074 17.8667 9.2741 17.363L5.91113 18.2519L6.81484 14.963C6.26669 14 5.9704 12.9037 5.9704 11.7926C5.9704 8.29632 8.81484 5.45188 12.3111 5.45188Z" fill="#00314D"/>
</svg>
