<svg viewBox="0 0 24 24" xmlns="http://www.w3.org/2000/svg">
<path d="M12 22C17.5228 22 22 17.5228 22 12C22 6.47715 17.5228 2 12 2C6.47715 2 2 6.47715 2 12C2 17.5228 6.47715 22 12 22Z" fill="url(#paint0_linear_4162_8221)"/>
<path d="M16.8744 7.926C16.83 7.80749 16.7856 7.77786 16.7263 7.76304C16.5633 7.70379 16.3115 7.79268 16.3115 7.79268C16.3115 7.79268 6.96333 11.1556 6.43 11.526C6.31148 11.6001 6.28185 11.6593 6.25222 11.7038C6.16333 11.9705 6.44481 12.089 6.44481 12.089L8.85963 12.8742C8.85963 12.8742 8.94851 12.889 8.97814 12.8742C9.52629 12.5334 14.4893 9.39268 14.7707 9.28898C14.8152 9.27416 14.8448 9.28897 14.8448 9.3186C14.7263 9.7186 10.4152 13.5556 10.4152 13.5556C10.4152 13.5556 10.4004 13.5705 10.3856 13.6001L10.1633 15.9853C10.1633 15.9853 10.0744 16.7112 10.8004 15.9853C11.3189 15.4668 11.8226 15.0371 12.0596 14.8297C12.8893 15.4075 13.7781 16.0297 14.1633 16.3705C14.3559 16.5334 14.5189 16.5631 14.6522 16.5631C15.0226 16.5482 15.1263 16.1482 15.1263 16.1482C15.1263 16.1482 16.83 9.28897 16.8893 8.37045C16.8893 8.28156 16.9041 8.22231 16.9041 8.16306C16.8893 8.05935 16.8893 7.97045 16.8744 7.926Z" fill="white"/>
<defs>
<linearGradient id="paint0_linear_4162_8221" x1="12" y1="2" x2="12" y2="22" gradientUnits="userSpaceOnUse">
<stop stop-color="#46B0E1"/>
<stop offset="1" stop-color="#2F97C5"/>
</linearGradient>
</defs>
</svg>
