<svg width="24" height="24" viewBox="0 0 24 24" fill="none" xmlns="http://www.w3.org/2000/svg">
<path d="M12 1C5.80425 1 1 5.54026 1 11.67C1 14.8765 2.3145 17.6485 4.454 19.5625C4.63275 19.7221 4.74275 19.9476 4.74825 20.1896L4.80875 22.1476C4.81316 22.2916 4.85288 22.4324 4.92443 22.5575C4.99599 22.6826 5.09718 22.7883 5.21911 22.8651C5.34105 22.942 5.47999 22.9877 5.62374 22.9983C5.76748 23.0089 5.91163 22.984 6.0435 22.9258L8.227 21.9633C8.41125 21.8808 8.62025 21.8671 8.8155 21.9193C9.81925 22.1943 10.8863 22.3428 12 22.3428C18.1958 22.3428 23 17.8025 23 11.6728C23 5.54301 18.1958 1 12 1Z" fill="url(#paint0_radial_3780_7749)"/>
<path d="M5.3943 14.7912L8.62553 9.66517C8.74709 9.47218 8.90734 9.30649 9.09616 9.17855C9.28498 9.05062 9.49827 8.96322 9.72257 8.92187C9.94687 8.88052 10.1773 8.88613 10.3993 8.93833C10.6214 8.99054 10.8302 9.08821 11.0125 9.22517L13.5838 11.1529C13.6986 11.2389 13.8382 11.2851 13.9816 11.2846C14.125 11.2841 14.2643 11.2369 14.3785 11.1502L17.849 8.51567C18.311 8.16367 18.916 8.71917 18.608 9.21142L15.374 14.3347C15.2525 14.5277 15.0922 14.6934 14.9034 14.8213C14.7146 14.9492 14.5013 15.0366 14.277 15.078C14.0527 15.1193 13.8222 15.1137 13.6002 15.0615C13.3782 15.0093 13.1694 14.9116 12.987 14.7747L10.4158 12.8469C10.301 12.761 10.1613 12.7148 10.0179 12.7153C9.87455 12.7158 9.73522 12.7629 9.62103 12.8497L6.15054 15.4842C5.68855 15.8362 5.08355 15.2834 5.3943 14.7912V14.7912Z" fill="white"/>
<defs>
<radialGradient id="paint0_radial_3780_7749" cx="0" cy="0" r="1" gradientUnits="userSpaceOnUse" gradientTransform="translate(4.685 23.0001) scale(24.2)">
<stop stop-color="#0099FF"/>
<stop offset="0.6" stop-color="#A033FF"/>
<stop offset="0.9" stop-color="#FF5280"/>
<stop offset="1" stop-color="#FF7061"/>
</radialGradient>
</defs>
</svg>
