<svg viewBox="0 0 24 24" xmlns="http://www.w3.org/2000/svg">
<path d="M12 21C16.9706 21 21 16.9706 21 12C21 7.02943 16.9706 3 12 3C7.02944 3 3 7.02943 3 12C3 16.9706 7.02944 21 12 21Z" fill="url(#paint0_linear_3260_7492)"/>
<path d="M16.3867 8.33345C16.3467 8.22679 16.3067 8.20012 16.2533 8.18679C16.1067 8.13346 15.88 8.21347 15.88 8.21347C15.88 8.21347 7.46666 11.2401 6.98666 11.5735C6.87999 11.6401 6.85332 11.6935 6.82666 11.7335C6.74666 11.9735 6.99999 12.0801 6.99999 12.0801L9.17332 12.7868C9.17332 12.7868 9.25332 12.8001 9.27999 12.7868C9.77332 12.4801 14.24 9.65346 14.4933 9.56013C14.5333 9.5468 14.56 9.56012 14.56 9.58679C14.4533 9.94679 10.5733 13.4001 10.5733 13.4001C10.5733 13.4001 10.56 13.4135 10.5467 13.4401L10.3467 15.5868C10.3467 15.5868 10.2667 16.2401 10.92 15.5868C11.3867 15.1201 11.84 14.7335 12.0533 14.5468C12.8 15.0668 13.6 15.6268 13.9467 15.9335C14.12 16.0801 14.2667 16.1068 14.3867 16.1068C14.72 16.0935 14.8133 15.7335 14.8133 15.7335C14.8133 15.7335 16.3467 9.56012 16.4 8.73345C16.4 8.65345 16.4133 8.60013 16.4133 8.5468C16.4 8.45347 16.4 8.37345 16.3867 8.33345Z" fill="white"/>
<defs>
<linearGradient id="paint0_linear_3260_7492" x1="12" y1="3" x2="12" y2="21" gradientUnits="userSpaceOnUse">
<stop stop-color="#46B0E1"/>
<stop offset="1" stop-color="#2F97C5"/>
</linearGradient>
</defs>
</svg>
