<svg viewBox="0 0 16 16" xmlns="http://www.w3.org/2000/svg">
    <path d="M8 16C12.4183 16 16 12.4183 16 8C16 3.58172 12.4183 0 8 0C3.58172 0 0 3.58172 0 8C0 12.4183 3.58172 16 8 16Z" fill="#00AFE5"/>
    <path d="M5.35095 8.64379L6.27971 11.1451L10.3536 5.46701L5.35095 8.64379Z" fill="#C2DAEC"/>
    <path d="M6.37471 9.20316L6.29028 11.1662L8.44332 9.34036L6.37471 9.20316Z" fill="#9FCDE2"/>
    <path d="M11.3562 4.51715L3.31397 7.57783C3.08178 7.66226 3.09234 7.98944 3.32453 8.06332L5.40368 8.75989L10.1319 5.70976L6.38521 9.20316L9.29814 11.409C9.60421 11.6412 10.0369 11.4828 10.1319 11.1135L11.7045 4.81266C11.7467 4.61213 11.5462 4.43271 11.3562 4.51715Z" fill="#ECF8FD"/>
</svg>
