<svg viewBox="0 0 24 24" xmlns="http://www.w3.org/2000/svg">
    <path fill-rule="evenodd" clip-rule="evenodd" d="M22 12C22 17.5252 17.5252 22 12 22C6.47476 22 2 17.5252 2 12C2 6.47476 6.47476 2 12 2C17.5252 2 22 6.47476 22 12ZM12.9065 12.4488V17.8519H10.7453V12.4488H8.93262V10.3399H10.7453V8.78867C10.7453 6.97604 11.8433 6 13.4468 6C14.1452 6 14.7569 6.05783 15.0054 6.08132C15.0297 6.08362 15.0506 6.08559 15.0677 6.08715V7.9695H13.9522C13.0808 7.9695 12.9065 8.3878 12.9065 8.99782V10.3399H14.998L14.7191 12.4488H12.9065Z" fill="#4189BE"/>
</svg>
