<svg width="24" height="24" viewBox="0 0 24 24" fill="none" xmlns="http://www.w3.org/2000/svg">
    <path fill-rule="evenodd" clip-rule="evenodd"
          d="M22.0001 12C22.0001 17.5228 17.523 22 12.0001 22C6.47727 22 2.00012 17.5228 2.00012 12C2.00012 6.47715 6.47727 2 12.0001 2C17.523 2 22.0001 6.47715 22.0001 12ZM16.7262 7.76304C16.7854 7.77786 16.8299 7.80749 16.8743 7.926C16.8829 7.95183 16.8865 7.99267 16.891 8.0427C16.8941 8.07877 16.8977 8.11961 16.9039 8.16306C16.9039 8.18969 16.901 8.21633 16.8977 8.24565C16.8936 8.28156 16.8891 8.32151 16.8891 8.37045C16.8299 9.28897 15.1262 16.1482 15.1262 16.1482C15.1262 16.1482 15.0225 16.5482 14.6521 16.5631C14.5188 16.5631 14.3558 16.5334 14.1632 16.3705C13.778 16.0297 12.8891 15.4075 12.0595 14.8297C12.0323 14.8535 12.0016 14.8802 11.9678 14.9097C11.7067 15.1369 11.2593 15.5262 10.8002 15.9853C10.0743 16.7112 10.1632 15.9853 10.1632 15.9853L10.3854 13.6001C10.4002 13.5705 10.4151 13.5556 10.4151 13.5556C10.4151 13.5556 14.7262 9.7186 14.8447 9.3186C14.8447 9.28897 14.8151 9.27416 14.7706 9.28898C14.5435 9.37266 11.2683 11.4337 9.72389 12.4056C9.35432 12.6382 9.08387 12.8084 8.97802 12.8742C8.94839 12.889 8.85951 12.8742 8.85951 12.8742L6.44469 12.089C6.44469 12.089 6.16321 11.9705 6.2521 11.7038C6.25527 11.699 6.25845 11.6941 6.26174 11.689C6.2891 11.6465 6.32407 11.5921 6.42988 11.526C6.96321 11.1556 16.3114 7.79269 16.3114 7.79269C16.3114 7.79269 16.5632 7.70378 16.7262 7.76304Z"
          fill="url(#paint0_linear_8160_301)"/>
    <defs>
        <linearGradient id="paint0_linear_8160_301" x1="11.9999" y1="2" x2="11.9999" y2="22"
                        gradientUnits="userSpaceOnUse">
            <stop stop-color="#46B0E1"/>
            <stop offset="1" stop-color="#2F97C5"/>
        </linearGradient>
    </defs>
</svg>
