<svg viewBox="0 0 24 24" xmlns="http://www.w3.org/2000/svg">
<path fill-rule="evenodd" clip-rule="evenodd" d="M9.86669 15.9067C10.5867 16.3467 11.4267 16.5734 12.28 16.5734C14.9067 16.5734 17.0267 14.44 17.04 11.8267C17.04 10.56 16.5467 9.36002 15.6534 8.46669C14.7467 7.57336 13.56 7.08002 12.2934 7.08002C9.68003 7.08002 7.54669 9.21336 7.54669 11.8267C7.54669 12.72 7.78669 13.5867 8.26669 14.3467L8.37336 14.52L7.89336 16.2667L9.69336 15.8L9.86669 15.9067ZM14.5324 12.8389C14.6925 12.9172 14.8355 12.9871 14.8934 13.0134C14.9378 13.04 14.9793 13.0608 15.0158 13.079C15.0889 13.1156 15.1422 13.1422 15.16 13.1867C15.2 13.2534 15.2 13.5334 15.08 13.8667C14.96 14.2 14.4 14.5067 14.12 14.5467C13.88 14.5867 13.5734 14.6 13.2267 14.4934C13.0134 14.4267 12.76 14.3334 12.4134 14.1867C11.0448 13.5911 10.1339 12.2609 9.98963 12.0503C9.9821 12.0393 9.97666 12.0313 9.97336 12.0267C9.89336 11.9334 9.38669 11.2534 9.38669 10.5467C9.38669 9.89327 9.70643 9.54775 9.85485 9.38737C9.86392 9.37757 9.87235 9.36847 9.88002 9.36002C10.0134 9.22669 10.16 9.18669 10.2667 9.18669H10.5467C10.5552 9.18669 10.5641 9.18624 10.5735 9.18577C10.6522 9.1818 10.7594 9.1764 10.8667 9.42669C10.9147 9.53869 10.9883 9.71896 11.0619 9.89923C11.1723 10.1696 11.2827 10.44 11.3067 10.48C11.3467 10.56 11.3734 10.64 11.32 10.7334C11.3054 10.7589 11.2928 10.7825 11.2808 10.8049C11.2491 10.8642 11.2218 10.9153 11.1734 10.9734C11.1067 11.0667 11.0267 11.16 10.96 11.2267C10.88 11.3067 10.8134 11.3734 10.8934 11.52C10.8996 11.5299 10.9067 11.5412 10.9147 11.5538C11.025 11.729 11.2954 12.1584 11.6934 12.5067C12.1762 12.9307 12.5863 13.105 12.7765 13.1859C12.8016 13.1965 12.8229 13.2056 12.84 13.2134C12.9867 13.28 13.0667 13.2667 13.1467 13.1734C13.1554 13.1632 13.1664 13.1504 13.1793 13.1355C13.2853 13.0126 13.5168 12.7441 13.6 12.6134C13.6934 12.48 13.7867 12.4934 13.92 12.5467C14.0007 12.579 14.2867 12.7188 14.5324 12.8389Z"/>
<path fill-rule="evenodd" clip-rule="evenodd" d="M21 12C21 16.9706 16.9706 21 12 21C7.02944 21 3 16.9706 3 12C3 7.02944 7.02944 3 12 3C16.9706 3 21 7.02944 21 12ZM12.28 6.10669C13.8134 6.12002 15.24 6.70669 16.32 7.78669C17.4 8.86669 18 10.3067 17.9867 11.8134C17.9867 14.96 15.4267 17.52 12.28 17.52C11.32 17.52 10.3867 17.28 9.54669 16.8267L6.52002 17.6267L7.33336 14.6667C6.84002 13.8 6.57336 12.8134 6.57336 11.8134C6.57336 8.66669 9.13335 6.10669 12.28 6.10669Z"/>
</svg>
