<svg viewBox="0 0 16 16" xmlns="http://www.w3.org/2000/svg">
    <path d="M16 8C16 12.4202 12.4202 16 8 16C3.57981 16 0 12.4202 0 8C0 3.57981 3.57981 0 8 0C12.4202 0 16 3.57981 16 8Z" fill="#622D8D"/>
    <mask id="mask0" mask-type="alpha" maskUnits="userSpaceOnUse" x="0" y="0" width="10" height="15">
        <path d="M7.02868 0.818564C9.27697 1.17873 9.46251 4.94408 8.97138 8.02184C8.48025 11.0996 7.11599 14.6139 4.86769 14.2538C2.6194 13.8936 0.338363 9.78992 0.84041 6.71215C1.33154 3.62348 4.78038 0.4584 7.02868 0.818564Z" fill="url(#paint0_radial)"/>
    </mask>
    <g mask="url(#mask0)">
    </g>
    <path d="M11.8308 8.07642C11.6344 8.07642 11.6344 7.92362 11.6344 7.75991C11.6344 7.72716 11.6344 7.70534 11.6344 7.6726C11.6344 7.66168 11.6344 7.63985 11.6344 7.62894C11.3724 5.5771 10.4338 4.46386 8.34926 4.31107C8.21829 4.30015 7.94543 4.26741 7.94543 4.12553C7.95635 3.93999 8.06549 3.89633 8.18555 3.89633C8.21829 3.89633 8.34925 3.89633 8.43657 3.89633C10.8377 4.04913 11.8963 5.58801 12.0382 7.65077C12.0382 7.68351 12.06 7.97819 11.9945 8.04367C11.9509 8.05459 11.9072 8.07642 11.8308 8.07642Z" fill="white"/>
    <path d="M10.8049 7.69442C10.6739 7.69442 10.6303 7.60711 10.6193 7.46523C10.6193 7.4434 10.6193 7.43248 10.6193 7.41066C10.6193 7.367 10.6193 7.33426 10.6084 7.2906C10.4011 6.0464 9.94267 5.58801 8.66572 5.30424C8.63298 5.29333 8.58932 5.29333 8.54567 5.28242C8.43653 5.2715 8.32739 5.24967 8.27281 5.18419C8.25099 5.15145 8.24007 5.09687 8.25099 5.03139C8.27281 4.91134 8.3383 4.84585 8.45836 4.85677C10.0409 4.99865 10.9358 5.83903 11.0013 7.53071C11.0013 7.61802 10.9468 7.66168 10.8594 7.67259C10.8485 7.69442 10.8267 7.69442 10.8049 7.69442Z" fill="white"/>
    <path d="M9.84446 7.38884C9.78989 7.38884 9.74624 7.36701 9.71349 7.32335C9.68075 7.2797 9.65892 7.22513 9.64801 7.17056C9.59344 6.64668 9.29876 6.34109 8.7858 6.25378C8.69849 6.24286 8.60026 6.22104 8.56752 6.15555C8.54569 6.12281 8.54569 6.06824 8.56752 6.00276C8.61117 5.8827 8.73123 5.86087 8.8622 5.86087C9.10231 5.87178 9.42973 6.00275 9.68075 6.25378C9.92086 6.5048 10.0627 6.79948 10.0627 7.06142C10.0627 7.17056 10.0627 7.29061 9.97543 7.3561C9.9536 7.37793 9.92086 7.38884 9.8772 7.38884C9.85538 7.38884 9.85537 7.38884 9.84446 7.38884Z" fill="white"/>
    <path d="M10.5212 12.1146C10.2374 12.1146 9.95368 11.9727 9.69174 11.8527C9.64809 11.8308 9.60443 11.809 9.54986 11.7872C9.1897 11.6126 8.82953 11.427 8.4912 11.2306C7.14877 10.4339 5.99188 9.36427 5.14058 8.1419C4.90047 7.80356 4.68219 7.4434 4.48574 7.07232L4.46391 7.01775C4.26746 6.63576 4.04917 6.24286 3.94003 5.83904C3.76541 5.19511 4.00552 4.59483 4.58397 4.2565C4.8459 4.09279 5.08601 4.01639 5.28246 4.01639C5.39161 4.01639 5.48983 4.03822 5.57714 4.09279C5.77359 4.20193 5.92639 4.37655 6.06827 4.54026C6.3957 4.91134 6.7886 5.39156 6.97414 5.90452C7.06146 6.15554 6.97414 6.40657 6.72312 6.60302C6.69038 6.62485 6.65763 6.64667 6.62489 6.67942C6.50484 6.76673 6.37387 6.86496 6.29747 7.00684C6.22107 7.14872 6.19924 7.32335 6.2429 7.50889C6.3193 7.82539 6.50484 8.16373 6.81043 8.54572C7.03963 8.82949 7.31248 9.08051 7.61807 9.29879C7.92366 9.50616 8.27292 9.73535 8.62217 9.80084C8.66582 9.81175 8.70948 9.81175 8.74222 9.81175C8.8841 9.81175 9.01507 9.76809 9.1133 9.68078C9.1897 9.6153 9.25518 9.5389 9.30975 9.45159C9.36432 9.3861 9.41889 9.3097 9.48438 9.25513C9.62626 9.12417 9.80088 9.05868 9.98642 9.05868C10.1065 9.05868 10.2265 9.09142 10.3575 9.13508C10.5212 9.21148 10.674 9.3097 10.8159 9.41884L10.9032 9.48433C11.0778 9.60438 11.2743 9.74626 11.4598 9.88815L11.569 9.97546C11.5799 9.97546 11.5799 9.98638 11.5908 9.98638C11.8418 10.1719 12.1037 10.3684 12.0928 10.6958C12.0819 11.0887 11.7654 11.4379 11.5799 11.6235C11.2852 11.9073 10.9359 12.0819 10.6085 12.1255C10.5867 12.1146 10.554 12.1146 10.5212 12.1146Z" fill="white"/>
    <radialGradient id="paint0_radial" cx="0" cy="0" r="1" gradientUnits="userSpaceOnUse" gradientTransform="translate(-0.90025 6.74112) rotate(-80.857) scale(9.83013)">
        <stop stop-color="white"/>
        <stop offset="1" stop-color="#808080"/>
    </radialGradient>
</svg>
