<svg viewBox="0 0 24 24" xmlns="http://www.w3.org/2000/svg">
<path d="M12 21C16.9706 21 21 16.9706 21 12C21 7.02944 16.9706 3 12 3C7.02944 3 3 7.02944 3 12C3 16.9706 7.02944 21 12 21Z" fill="url(#paint0_linear_3260_7485)"/>
<path fill-rule="evenodd" clip-rule="evenodd" d="M16.32 7.78669C15.24 6.70669 13.8134 6.12002 12.28 6.10669C9.13335 6.10669 6.57336 8.66669 6.57336 11.8134C6.57336 12.8134 6.84002 13.8 7.33336 14.6667L6.52002 17.6267L9.54669 16.8267C10.3867 17.28 11.32 17.52 12.28 17.52C15.4267 17.52 17.9867 14.96 17.9867 11.8134C18 10.3067 17.4 8.86669 16.32 7.78669ZM12.28 16.5734C11.4267 16.5734 10.5867 16.3467 9.86669 15.9067L9.69336 15.8L7.89336 16.2667L8.37336 14.52L8.26669 14.3467C7.78669 13.5867 7.54669 12.72 7.54669 11.8267C7.54669 9.21336 9.68003 7.08002 12.2934 7.08002C13.56 7.08002 14.7467 7.57336 15.6534 8.46669C16.5467 9.36002 17.04 10.56 17.04 11.8267C17.0267 14.44 14.9067 16.5734 12.28 16.5734ZM14.8934 13.0134C14.7467 12.9467 14.0534 12.6 13.92 12.5467C13.7867 12.4934 13.6934 12.48 13.6 12.6134C13.5067 12.76 13.2267 13.08 13.1467 13.1734C13.0667 13.2667 12.9867 13.28 12.84 13.2134C12.6934 13.1467 12.24 12.9867 11.6934 12.5067C11.2667 12.1334 10.9867 11.6667 10.8934 11.52C10.8134 11.3734 10.88 11.3067 10.96 11.2267C11.0267 11.16 11.1067 11.0667 11.1734 10.9734C11.24 10.8934 11.2667 10.8267 11.32 10.7334C11.3734 10.64 11.3467 10.56 11.3067 10.48C11.2667 10.4134 10.9867 9.70669 10.8667 9.42669C10.7467 9.14669 10.6267 9.18669 10.5467 9.18669C10.4667 9.18669 10.3734 9.18669 10.2667 9.18669C10.16 9.18669 10.0134 9.22669 9.88002 9.36002C9.74669 9.50669 9.38669 9.85336 9.38669 10.5467C9.38669 11.2534 9.89336 11.9334 9.97336 12.0267C10.04 12.12 10.9734 13.56 12.4134 14.1867C12.76 14.3334 13.0134 14.4267 13.2267 14.4934C13.5734 14.6 13.88 14.5867 14.12 14.5467C14.4 14.5067 14.96 14.2 15.08 13.8667C15.2 13.5334 15.2 13.2534 15.16 13.1867C15.1334 13.12 15.0267 13.0934 14.8934 13.0134Z" fill="white"/>
<defs>
<linearGradient id="paint0_linear_3260_7485" x1="12" y1="3" x2="12" y2="21" gradientUnits="userSpaceOnUse">
<stop stop-color="#66F47B"/>
<stop offset="1" stop-color="#36CC4D"/>
</linearGradient>
</defs>
</svg>
