<svg width="24" height="24" viewBox="0 0 24 24" fill="none" xmlns="http://www.w3.org/2000/svg">
    <path fill-rule="evenodd" clip-rule="evenodd"
          d="M22 12C22 17.5228 17.5228 22 12 22C6.47715 22 2 17.5228 2 12C2 6.47715 6.47715 2 12 2C17.5228 2 22 6.47715 22 12ZM12.3104 5.4519C14.0141 5.46672 15.5993 6.11857 16.7993 7.31857C17.9993 8.51857 18.666 10.1186 18.6511 11.7926C18.6511 15.2889 15.8067 18.1334 12.3104 18.1334C11.2437 18.1334 10.2067 17.8667 9.27337 17.363L5.9104 18.2519L6.81411 14.963C6.26596 14.0001 5.96966 12.9038 5.96966 11.7926C5.96966 8.29635 8.81411 5.4519 12.3104 5.4519ZM9.62892 16.3408C10.4289 16.8297 11.3623 17.0815 12.3104 17.0815C15.2289 17.0815 17.5845 14.7112 17.5993 11.8075C17.5993 10.4001 17.0511 9.06672 16.0585 8.07413C15.0511 7.08153 13.7326 6.53339 12.3252 6.53339C9.42152 6.53339 7.05114 8.90376 7.05114 11.8075C7.05114 12.8001 7.31781 13.763 7.85115 14.6075L7.96966 14.8001L7.43633 16.7408L9.43633 16.2223L9.62892 16.3408ZM14.813 12.9321C14.9909 13.0191 15.1498 13.0968 15.2141 13.126C15.2635 13.1556 15.3096 13.1787 15.3502 13.199C15.4314 13.2396 15.4907 13.2692 15.5104 13.3186C15.5549 13.3926 15.5548 13.7038 15.4215 14.0741C15.2882 14.4445 14.666 14.7852 14.3548 14.8297C14.0882 14.8741 13.7474 14.8889 13.3623 14.7704C13.1252 14.6964 12.8437 14.5926 12.4585 14.4297C10.9379 13.7679 9.92577 12.2899 9.76552 12.0559C9.75716 12.0437 9.75111 12.0348 9.74744 12.0297C9.65855 11.926 9.09559 11.1704 9.09559 10.3852C9.09559 9.65921 9.45086 9.27531 9.61577 9.0971C9.62584 9.08622 9.63521 9.0761 9.64374 9.06672C9.79188 8.91857 9.95485 8.87413 10.0734 8.87413H10.3845C10.3939 8.87413 10.4038 8.87363 10.4142 8.8731C10.5017 8.8687 10.6208 8.86269 10.74 9.14079C10.7934 9.26524 10.8751 9.46554 10.9569 9.66584C11.0796 9.96628 11.2023 10.2667 11.2289 10.3112C11.2734 10.4001 11.303 10.4889 11.2437 10.5926C11.2275 10.6211 11.2135 10.6472 11.2002 10.6721C11.1649 10.7381 11.1346 10.7948 11.0808 10.8593C11.0067 10.963 10.9178 11.0667 10.8437 11.1408C10.7549 11.2297 10.6808 11.3038 10.7697 11.4667C10.7766 11.4777 10.7845 11.4902 10.7934 11.5043C10.9159 11.6989 11.2163 12.1761 11.6586 12.563C12.1951 13.0341 12.6507 13.2278 12.862 13.3176C12.89 13.3295 12.9136 13.3396 12.9326 13.3482C13.0956 13.4223 13.1845 13.4075 13.2734 13.3038C13.283 13.2925 13.2953 13.2783 13.3096 13.2617C13.4273 13.1252 13.6846 12.8268 13.7771 12.6815C13.8808 12.5334 13.9845 12.5482 14.1326 12.6075C14.2223 12.6433 14.5401 12.7987 14.813 12.9321Z"
          fill="url(#paint0_linear_8149_2860)"/>
    <defs>
        <linearGradient id="paint0_linear_8149_2860" x1="12" y1="2" x2="12" y2="22" gradientUnits="userSpaceOnUse">
            <stop stop-color="#66F47B"/>
            <stop offset="1" stop-color="#36CC4D"/>
        </linearGradient>
    </defs>
</svg>
