<svg viewBox="0 0 24 24" xmlns="http://www.w3.org/2000/svg">
    <path d="M22 12.0596C22 6.50074 17.5259 2 12 2C6.47407 2 2 6.50074 2 12.0596C2 17.082 5.65926 21.2399 10.4444 22V14.9806H7.8963V12.0745H10.4296V9.85395C10.4296 7.33532 11.9259 5.93443 14.2074 5.93443C15.3037 5.93443 16.4444 6.12817 16.4444 6.12817V8.60209H15.1852C13.9407 8.60209 13.5556 9.37705 13.5556 10.1669V12.0596H16.3259L15.8815 14.9657H13.5556V22C18.3407 21.2548 22 17.082 22 12.0596Z"
          fill="url(#paint0_linear_4162_8227)"/>
    <defs>
        <linearGradient id="paint0_linear_4162_8227" x1="12" y1="2" x2="12" y2="22" gradientUnits="userSpaceOnUse">
            <stop stop-color="#36AEFD"/>
            <stop offset="1" stop-color="#226AE0"/>
        </linearGradient>
    </defs>
</svg>
