<svg viewBox="0 0 24 24" xmlns="http://www.w3.org/2000/svg">
<circle cx="12" cy="12" r="10" fill="#FFC000"/>
<path d="M12 11.9545C12.3012 11.9545 12.5455 11.7103 12.5455 11.4091C12.5455 11.1078 12.3012 10.8636 12 10.8636C11.6988 10.8636 11.4545 11.1078 11.4545 11.4091C11.4545 11.7103 11.6988 11.9545 12 11.9545Z" fill="white"/>
<path d="M10.3636 11.4091C10.3636 11.7103 10.1194 11.9545 9.81818 11.9545C9.51694 11.9545 9.27273 11.7103 9.27273 11.4091C9.27273 11.1078 9.51694 10.8636 9.81818 10.8636C10.1194 10.8636 10.3636 11.1078 10.3636 11.4091Z" fill="white"/>
<path d="M14.1818 11.9545C14.4831 11.9545 14.7273 11.7103 14.7273 11.4091C14.7273 11.1078 14.4831 10.8636 14.1818 10.8636C13.8806 10.8636 13.6364 11.1078 13.6364 11.4091C13.6364 11.7103 13.8806 11.9545 14.1818 11.9545Z" fill="white"/>
<path fill-rule="evenodd" clip-rule="evenodd" d="M9.35089 16.0914L11.5894 18.3299C11.8162 18.5567 12.1838 18.5567 12.4106 18.3299L14.6491 16.0914H16.2151C17.1981 16.0914 18 15.2895 18 14.3065V8.28495C18 7.3019 17.1981 6.5 16.2151 6.5H7.78495C6.8019 6.5 6 7.3019 6 8.28495V14.3065C6 15.2895 6.8019 16.0914 7.78495 16.0914H9.35089ZM12 17.1977L9.80276 15.0005H7.78495C7.40439 15.0005 7.09091 14.687 7.09091 14.3065V8.28495C7.09091 7.90439 7.40439 7.59091 7.78495 7.59091H16.2151C16.5956 7.59091 16.9091 7.90439 16.9091 8.28495V14.3065C16.9091 14.687 16.5956 15.0005 16.2151 15.0005H14.1972L12 17.1977Z" fill="white"/>
</svg>
