<svg viewBox="0 0 24 24" xmlns="http://www.w3.org/2000/svg">
    <path d="M13 12C13 12.5523 12.5523 13 12 13C11.4477 13 11 12.5523 11 12C11 11.4477 11.4477 11 12 11C12.5523 11 13 11.4477 13 12Z" fill="#556AF6"/>
    <path fill-rule="evenodd" clip-rule="evenodd" d="M12 18.3678L9.80273 16.1706H7.78492C7.40436 16.1706 7.09088 15.8571 7.09088 15.4765V8C7.09088 7.61945 7.40436 7.30596 7.78492 7.30596H16.215C16.5956 7.30596 16.9091 7.61945 16.9091 8V15.4765C16.9091 15.8571 16.5956 16.1706 16.215 16.1706H14.1972L12 18.3678ZM11.5 8H12.5L12.6795 9.07729C13.0051 9.15269 13.3104 9.2811 13.5858 9.45293L14.4748 8.81791L15.182 9.52502L14.5469 10.414C14.7188 10.6895 14.8473 10.9948 14.9227 11.3205L16 11.5V12.5L14.9227 12.6795C14.8473 13.0051 14.7189 13.3104 14.5471 13.5858L15.182 14.4746L14.4748 15.1818L13.5861 14.5469C13.3106 14.7188 13.0052 14.8473 12.6795 14.9227L12.5 16H11.5L11.3204 14.9227C10.9947 14.8473 10.6893 14.7188 10.4139 14.5469L9.52509 15.1818L8.81799 14.4746L9.45288 13.5858C9.28106 13.3104 9.15266 13.0051 9.07726 12.6795L7.99997 12.5V11.5L9.07726 11.3205C9.15268 10.9948 9.28111 10.6895 9.45299 10.414L8.81799 9.52502L9.52509 8.81791L10.4141 9.45293C10.6895 9.2811 10.9948 9.15269 11.3204 9.07729L11.5 8Z" fill="#556AF6"/>
    <path fill-rule="evenodd" clip-rule="evenodd" d="M22 12C22 17.5228 17.5228 22 12 22C6.47715 22 2 17.5228 2 12C2 6.47715 6.47715 2 12 2C17.5228 2 22 6.47715 22 12ZM9.35086 17.2615L11.5894 19.5C11.8161 19.7268 12.1838 19.7268 12.4105 19.5L14.6491 17.2615H16.215C17.1981 17.2615 18 16.4596 18 15.4765V8C18 7.01695 17.1981 6.21505 16.215 6.21505H7.78492C6.80187 6.21505 5.99997 7.01695 5.99997 8V15.4765C5.99997 16.4596 6.80187 17.2615 7.78492 17.2615H9.35086Z" fill="#556AF6"/>
</svg>
