<svg viewBox="0 0 24 24" xmlns="http://www.w3.org/2000/svg">
<path fill-rule="evenodd" clip-rule="evenodd" d="M22 12C22 17.5228 17.5228 22 12 22C6.47715 22 2 17.5228 2 12C2 6.47715 6.47715 2 12 2C17.5228 2 22 6.47715 22 12ZM16.7259 7.7631C16.7852 7.77791 16.8296 7.80754 16.8741 7.92606C16.8827 7.95189 16.8863 7.99272 16.8907 8.04276C16.8939 8.07883 16.8975 8.11967 16.9037 8.16311C16.9037 8.18975 16.9007 8.21638 16.8974 8.2457C16.8934 8.28162 16.8889 8.32157 16.8889 8.3705C16.8296 9.28902 15.1259 16.1483 15.1259 16.1483C15.1259 16.1483 15.0222 16.5483 14.6518 16.5631C14.5185 16.5631 14.3555 16.5335 14.163 16.3705C13.7778 16.0298 12.8889 15.4076 12.0592 14.8298C12.032 14.8536 12.0013 14.8803 11.9675 14.9098C11.7064 15.137 11.259 15.5263 10.8 15.9853C10.0741 16.7113 10.1629 15.9853 10.1629 15.9853L10.3852 13.6001C10.4 13.5705 10.4148 13.5557 10.4148 13.5557C10.4148 13.5557 14.7259 9.71866 14.8444 9.31865C14.8444 9.28903 14.8148 9.27422 14.7704 9.28903C14.5432 9.37271 11.268 11.4338 9.7236 12.4057C9.35405 12.6382 9.08361 12.8084 8.97776 12.8742C8.94813 12.889 8.85925 12.8742 8.85925 12.8742L6.44443 12.089C6.44443 12.089 6.16295 11.9705 6.25184 11.7038C6.25502 11.6991 6.25819 11.6941 6.26148 11.689C6.28885 11.6465 6.32381 11.5922 6.42962 11.5261C6.96295 11.1557 16.3111 7.79274 16.3111 7.79274C16.3111 7.79274 16.563 7.70384 16.7259 7.7631Z" fill="#00314D"/>
</svg>
