<svg width="24" height="24" viewBox="0 0 24 24" fill="none" xmlns="http://www.w3.org/2000/svg">
    <path fill-rule="evenodd" clip-rule="evenodd"
          d="M1.99988 11.6997C1.99988 6.12739 6.36738 2 11.9999 2C17.6324 2 21.9999 6.12989 21.9999 11.7022C21.9999 17.2746 17.6324 21.402 11.9999 21.402C10.9874 21.402 10.0174 21.267 9.10488 21.017C8.92738 20.9695 8.73738 20.982 8.56988 21.057L6.58488 21.932C6.46499 21.9848 6.33395 22.0075 6.20328 21.9978C6.0726 21.9882 5.94628 21.9467 5.83543 21.8768C5.72458 21.8069 5.63259 21.7109 5.56754 21.5972C5.5025 21.4834 5.46638 21.3554 5.46238 21.2245L5.40738 19.4445C5.40238 19.2245 5.30238 19.0195 5.13988 18.8745C3.19488 17.1346 1.99988 14.6147 1.99988 11.6997ZM8.93232 9.87722L5.99483 14.5371C5.71233 14.9846 6.26233 15.487 6.68232 15.1671L9.83731 12.7721C9.94112 12.6933 10.0678 12.6504 10.1981 12.6499C10.3285 12.6495 10.4555 12.6915 10.5598 12.7696L12.8973 14.5221C13.0631 14.6466 13.2529 14.7354 13.4548 14.7828C13.6566 14.8303 13.8661 14.8354 14.07 14.7978C14.2739 14.7602 14.4678 14.6808 14.6395 14.5645C14.8111 14.4482 14.9568 14.2975 15.0673 14.1221L18.0073 9.46473C18.2873 9.01724 17.7373 8.51226 17.3173 8.83225L14.1623 11.2272C14.0585 11.306 13.9318 11.3489 13.8015 11.3494C13.6711 11.3498 13.5442 11.3078 13.4398 11.2297L11.1023 9.47723C10.9365 9.35272 10.7467 9.26393 10.5449 9.21648C10.343 9.16902 10.1335 9.16392 9.92962 9.20151C9.72571 9.23909 9.53181 9.31855 9.36015 9.43485C9.1885 9.55115 9.04282 9.70178 8.93232 9.87722Z"
          fill="url(#paint0_radial_8149_2876)"/>
    <defs>
        <radialGradient id="paint0_radial_8149_2876" cx="0" cy="0" r="1" gradientUnits="userSpaceOnUse"
                        gradientTransform="translate(5.34988 21.9995) scale(22 21.9994)">
            <stop stop-color="#0099FF"/>
            <stop offset="0.6" stop-color="#A033FF"/>
            <stop offset="0.9" stop-color="#FF5280"/>
            <stop offset="1" stop-color="#FF7061"/>
        </radialGradient>
    </defs>
</svg>
