<svg viewBox="0 0 24 24" xmlns="http://www.w3.org/2000/svg">
<path fill-rule="evenodd" clip-rule="evenodd" d="M22 12C22 17.5252 17.5252 22 12 22C6.47476 22 2 17.5252 2 12C2 6.47476 6.47476 2 12 2C17.5252 2 22 6.47476 22 12ZM16.7885 12.0955C16.5429 12.0955 16.5429 11.9045 16.5429 11.6998V11.5361C16.2155 8.97132 15.0423 7.57978 12.4365 7.38878C12.2728 7.37514 11.9318 7.33421 11.9318 7.15686C11.9454 6.92493 12.0818 6.87036 12.2319 6.87036H12.5457C15.547 7.06136 16.8704 8.98496 17.0477 11.5634C17.0477 11.5685 17.0481 11.5785 17.0487 11.5924C17.0528 11.691 17.0649 11.9828 16.9932 12.0545C16.9793 12.058 16.9655 12.0623 16.9509 12.0669C16.9082 12.0803 16.8598 12.0955 16.7885 12.0955ZM15.5061 11.6179C15.3424 11.6179 15.2878 11.5088 15.2741 11.3314V11.2632C15.2741 11.2087 15.2741 11.1677 15.2605 11.1132C15.0013 9.55791 14.4283 8.98492 12.8321 8.63021C12.8104 8.62296 12.7848 8.61957 12.7574 8.61593C12.7332 8.61272 12.7076 8.60932 12.6821 8.60293C12.5456 8.58929 12.4092 8.562 12.341 8.48015C12.3137 8.43922 12.3001 8.371 12.3137 8.28915C12.341 8.13908 12.4228 8.05723 12.5729 8.07087C14.5511 8.24822 15.6698 9.2987 15.7516 11.4133C15.7516 11.5224 15.6834 11.577 15.5743 11.5906C15.5606 11.6179 15.5333 11.6179 15.5061 11.6179ZM14.3058 11.2361C14.2376 11.2361 14.1831 11.2088 14.1421 11.1542C14.1012 11.0996 14.0739 11.0314 14.0603 10.9632C13.9921 10.3084 13.6237 9.92638 12.9825 9.81724C12.8734 9.8036 12.7506 9.77632 12.7097 9.69446C12.6824 9.65353 12.6824 9.58532 12.7097 9.50347C12.7642 9.3534 12.9143 9.32611 13.078 9.32611C13.3782 9.33975 13.7874 9.50347 14.1012 9.81724C14.4013 10.131 14.5787 10.4994 14.5787 10.8268C14.5787 10.9632 14.5787 11.1133 14.4696 11.1951C14.4423 11.2224 14.4013 11.2361 14.3468 11.2361H14.3058ZM15.1518 17.1433C14.8242 17.1433 14.4966 16.992 14.1905 16.8507L14.1149 16.8159C14.0604 16.7886 14.0058 16.7613 13.9376 16.734C13.4874 16.5157 13.0372 16.2838 12.6143 16.0382C10.9362 15.0423 9.49012 13.7054 8.426 12.1774C8.12586 11.7545 7.85301 11.3043 7.60744 10.8404L7.58016 10.7722C7.54989 10.7133 7.5192 10.6543 7.4884 10.595C7.26942 10.1735 7.04491 9.74131 6.92532 9.29882C6.70704 8.49391 7.00717 7.74357 7.73023 7.32065C8.05765 7.11601 8.35779 7.02051 8.60335 7.02051C8.73978 7.02051 8.86256 7.04779 8.9717 7.11601C9.21727 7.25243 9.40826 7.47071 9.58562 7.67535C9.99489 8.1392 10.486 8.73947 10.718 9.38067C10.8271 9.69445 10.7179 10.0082 10.4041 10.2538C10.3632 10.2811 10.3223 10.3084 10.2814 10.3493C10.1313 10.4584 9.96761 10.5812 9.87211 10.7586C9.77661 10.9359 9.74933 11.1542 9.8039 11.3861C9.8994 11.7818 10.1313 12.2047 10.5133 12.6822C10.7998 13.0369 11.1409 13.3507 11.5229 13.6235C11.9049 13.8827 12.3414 14.1692 12.778 14.2511C12.8325 14.2647 12.8871 14.2647 12.928 14.2647C13.1054 14.2647 13.2691 14.2101 13.3919 14.101C13.4874 14.0191 13.5692 13.9236 13.6375 13.8145C13.6534 13.7954 13.6694 13.7755 13.6855 13.7554C13.7382 13.6896 13.7932 13.6211 13.8557 13.5689C14.0331 13.4052 14.2514 13.3234 14.4833 13.3234C14.6334 13.3234 14.7834 13.3643 14.9471 13.4189C15.1518 13.5144 15.3428 13.6372 15.5201 13.7736L15.6293 13.8554C15.8476 14.0055 16.0931 14.1829 16.325 14.3602L16.4615 14.4694C16.4683 14.4694 16.4717 14.4728 16.4751 14.4762C16.4785 14.4796 16.4819 14.483 16.4888 14.483C16.8025 14.7149 17.13 14.9605 17.1163 15.3698C17.1027 15.8609 16.707 16.2975 16.4751 16.5294C16.1068 16.8841 15.6702 17.1024 15.2609 17.1569C15.2336 17.1433 15.1927 17.1433 15.1518 17.1433Z" fill="#8055A2"/>
</svg>
