<svg viewBox="0 0 24 24" xmlns="http://www.w3.org/2000/svg">
<path fill-rule="evenodd" clip-rule="evenodd" d="M21 12C21 16.9727 16.9727 21 12 21C7.02729 21 3 16.9727 3 12C3 7.02728 7.02729 3 12 3C16.9727 3 21 7.02728 21 12ZM16.3097 12.0859C16.0887 12.0859 16.0887 11.914 16.0887 11.7298V11.5825C15.794 9.27419 14.738 8.0218 12.3929 7.8499C12.2455 7.83762 11.9386 7.80079 11.9386 7.64117C11.9509 7.43244 12.0737 7.38333 12.2087 7.38333H12.4911C15.1923 7.55522 16.3833 9.28646 16.543 11.6071C16.543 11.6116 16.5433 11.6207 16.5438 11.6332C16.5475 11.7219 16.5584 11.9845 16.4938 12.0491C16.4814 12.0522 16.4689 12.0561 16.4558 12.0602C16.4174 12.0722 16.3738 12.0859 16.3097 12.0859ZM15.1555 11.6561C15.0081 11.6561 14.959 11.5579 14.9467 11.3983V11.3369C14.9467 11.2878 14.9467 11.251 14.9344 11.2018C14.7012 9.80212 14.1855 9.28643 12.7489 8.96719C12.7293 8.96067 12.7063 8.95761 12.6817 8.95434C12.6599 8.95145 12.6369 8.94839 12.6138 8.94264C12.4911 8.93036 12.3683 8.9058 12.3069 8.83213C12.2823 8.7953 12.2701 8.7339 12.2823 8.66023C12.3069 8.52517 12.3806 8.4515 12.5156 8.46378C14.296 8.6234 15.3028 9.56883 15.3765 11.472C15.3765 11.5702 15.3151 11.6193 15.2169 11.6316C15.2046 11.6561 15.18 11.6561 15.1555 11.6561ZM14.0753 11.3125C14.0139 11.3125 13.9648 11.2879 13.9279 11.2388C13.8911 11.1897 13.8665 11.1283 13.8543 11.0669C13.7929 10.4775 13.4614 10.1337 12.8843 10.0355C12.786 10.0232 12.6755 9.99869 12.6387 9.92502C12.6142 9.88818 12.6142 9.82679 12.6387 9.75312C12.6878 9.61806 12.8229 9.5935 12.9702 9.5935C13.2403 9.60578 13.6087 9.75312 13.8911 10.0355C14.1612 10.3179 14.3208 10.6494 14.3208 10.9441C14.3208 11.0669 14.3208 11.202 14.2226 11.2756C14.1981 11.3002 14.1612 11.3125 14.1121 11.3125H14.0753ZM14.8366 16.629C14.5418 16.629 14.247 16.4928 13.9715 16.3656L13.9035 16.3343C13.8543 16.3097 13.8052 16.2852 13.7438 16.2606C13.3387 16.0642 12.9335 15.8554 12.5528 15.6344C11.0426 14.7381 9.74111 13.5348 8.7834 12.1597C8.51328 11.779 8.26771 11.3738 8.0467 10.9564L8.02215 10.895C7.9949 10.842 7.96728 10.7888 7.93956 10.7355C7.74248 10.3561 7.54042 9.96718 7.43279 9.56894C7.23633 8.84452 7.50646 8.16921 8.15721 7.78858C8.45189 7.60441 8.72201 7.51846 8.94302 7.51846C9.0658 7.51846 9.17631 7.54302 9.27453 7.60441C9.49554 7.72719 9.66744 7.92364 9.82706 8.10781C10.1954 8.52528 10.6374 9.06552 10.8462 9.6426C10.9444 9.925 10.8461 10.2074 10.5637 10.4284C10.5269 10.453 10.4901 10.4775 10.4533 10.5144C10.3182 10.6126 10.1708 10.7231 10.0849 10.8827C9.99895 11.0423 9.9744 11.2388 10.0235 11.4475C10.1095 11.8036 10.3182 12.1842 10.662 12.614C10.9198 12.9332 11.2268 13.2156 11.5706 13.4612C11.9144 13.6944 12.3073 13.9523 12.7002 14.026C12.7493 14.0382 12.7984 14.0382 12.8352 14.0382C12.9949 14.0382 13.1422 13.9891 13.2527 13.8909C13.3387 13.8172 13.4123 13.7313 13.4737 13.6331C13.4881 13.6158 13.5024 13.5979 13.5169 13.5798C13.5644 13.5207 13.6139 13.459 13.6702 13.412C13.8298 13.2647 14.0262 13.191 14.235 13.191C14.37 13.191 14.5051 13.2279 14.6524 13.277C14.8366 13.3629 15.0085 13.4734 15.1681 13.5962L15.2663 13.6699C15.4628 13.805 15.6838 13.9646 15.8925 14.1242L16.0153 14.2224C16.0215 14.2224 16.0245 14.2255 16.0276 14.2286C16.0307 14.2316 16.0337 14.2347 16.0399 14.2347C16.3223 14.4434 16.617 14.6644 16.6047 15.0328C16.5924 15.4748 16.2363 15.8677 16.0276 16.0764C15.6961 16.3957 15.3032 16.5921 14.9348 16.6412C14.9103 16.629 14.8734 16.629 14.8366 16.629Z"/>
</svg>
