<svg viewBox="0 0 24 24" xmlns="http://www.w3.org/2000/svg">
<path d="M12 2C6.3675 2 2 6.12739 2 11.6997C2 14.6147 3.195 17.1346 5.14 18.8745C5.3025 19.0195 5.4025 19.2245 5.4075 19.4445L5.4625 21.2245C5.4665 21.3554 5.50262 21.4834 5.56767 21.5972C5.63271 21.7109 5.72471 21.8069 5.83556 21.8768C5.94641 21.9467 6.07272 21.9882 6.2034 21.9978C6.33407 22.0075 6.46511 21.9848 6.585 21.932L8.57 21.057C8.7375 20.982 8.9275 20.9695 9.105 21.017C10.0175 21.267 10.9875 21.402 12 21.402C17.6325 21.402 22 17.2746 22 11.7022C22 6.12989 17.6325 2 12 2Z" fill="url(#paint0_radial_4162_8194)"/>
<path d="M5.99495 14.5371L8.93244 9.87722C9.04294 9.70178 9.18862 9.55115 9.36027 9.43485C9.53193 9.31855 9.72583 9.23909 9.92974 9.20151C10.1337 9.16392 10.3431 9.16902 10.545 9.21648C10.7468 9.26393 10.9366 9.35272 11.1024 9.47723L13.4399 11.2297C13.5443 11.3078 13.6712 11.3498 13.8016 11.3494C13.9319 11.3489 14.0586 11.306 14.1624 11.2272L17.3174 8.83225C17.7374 8.51226 18.2874 9.01724 18.0074 9.46473L15.0674 14.1221C14.9569 14.2975 14.8112 14.4482 14.6396 14.5645C14.4679 14.6808 14.274 14.7602 14.0701 14.7978C13.8662 14.8354 13.6567 14.8303 13.4549 14.7828C13.253 14.7354 13.0632 14.6466 12.8974 14.5221L10.5599 12.7696C10.4556 12.6915 10.3286 12.6495 10.1983 12.6499C10.0679 12.6504 9.94124 12.6933 9.83744 12.7721L6.68245 15.1671C6.26245 15.487 5.71245 14.9846 5.99495 14.5371V14.5371Z" fill="white"/>
<defs>
<radialGradient id="paint0_radial_4162_8194" cx="0" cy="0" r="1" gradientUnits="userSpaceOnUse" gradientTransform="translate(5.35 21.9995) scale(22 21.9994)">
<stop stop-color="#0099FF"/>
<stop offset="0.6" stop-color="#A033FF"/>
<stop offset="0.9" stop-color="#FF5280"/>
<stop offset="1" stop-color="#FF7061"/>
</radialGradient>
</defs>
</svg>
