<svg viewBox="0 0 24 24" xmlns="http://www.w3.org/2000/svg">
    <path d="M13.9484 10.6832V13.4027C13.9484 13.7165 13.6958 13.9692 13.385 13.9692H10.6606C10.3498 13.9692 10.0972 13.7165 10.0972 13.4027V10.6832C10.0972 10.3694 10.3498 10.1167 10.6606 10.1167H13.385C13.6958 10.1167 13.9484 10.3684 13.9484 10.6832Z"
          fill="#FF5A00"/>
    <path fill-rule="evenodd" clip-rule="evenodd"
          d="M16.6909 7.30745C15.9156 6.53206 14.0735 6.03076 11.9991 6.03076C9.9247 6.03076 8.08567 6.53206 7.31032 7.30745C6.53191 8.08284 6.03369 9.92503 6.03369 11.9995C6.03369 14.074 6.53191 15.9172 7.31032 16.6916C8.08567 17.467 9.9247 17.9683 11.9991 17.9683C14.0735 17.9683 15.9166 17.467 16.6909 16.6916C17.0781 16.3044 17.397 15.6492 17.6191 14.8321C17.8443 14.0149 17.9675 13.0347 17.9675 11.9995C17.9665 9.92604 17.4653 8.08284 16.6909 7.30745ZM14.8774 14.8596C14.7143 15.0226 14.2233 15.5137 11.9858 15.5137C9.74538 15.5137 9.25429 15.0216 9.09433 14.8596C8.93132 14.6966 8.44023 14.2055 8.44023 11.9679C8.44023 9.7345 8.93054 9.2411 9.09344 9.07717L9.09433 9.07628C9.25429 8.91325 9.74538 8.42519 11.9858 8.42519C14.2233 8.42519 14.7143 8.91325 14.8774 9.07628L14.8794 9.07831C15.0414 9.24338 15.5284 9.73964 15.5284 11.9679C15.5284 14.1921 15.0421 14.6907 14.8802 14.8566L14.8774 14.8596Z"
          fill="#FF5A00"/>
    <path fill-rule="evenodd" clip-rule="evenodd"
          d="M2 11.9996C2 6.47708 6.47685 2 11.999 2C17.4754 2 21.9227 6.4027 21.9991 11.8589C22.0735 17.4538 17.456 22.0735 11.8625 21.9991C6.40248 21.9247 2 17.4762 2 11.9996ZM12.0082 19.5028C14.4993 19.5028 16.6379 18.8517 17.7321 17.7574C18.8233 16.6631 19.4774 14.5234 19.4774 12.0332C19.4774 9.54195 18.8233 7.40327 17.7321 6.30896C16.6389 5.21465 14.4993 4.56051 12.0082 4.56051C9.51712 4.56051 7.37548 5.21465 6.28429 6.30896C5.19004 7.40327 4.53593 9.54195 4.53593 12.0332C4.53593 14.5244 5.19004 16.6631 6.28429 17.7574C7.37446 18.8517 9.51712 19.5028 12.0082 19.5028Z"
          fill="#FF5A00"/>
</svg>
