<svg viewBox="0 0 16 16" xmlns="http://www.w3.org/2000/svg">
    <path d="M8 16C12.4183 16 16 12.4183 16 8C16 3.58172 12.4183 0 8 0C3.58172 0 0 3.58172 0 8C0 12.4183 3.58172 16 8 16Z" fill="#62B25A"/>
    <path fill-rule="evenodd" clip-rule="evenodd" d="M11.6079 4.16556C10.6667 3.22438 9.41177 2.70151 8.06973 2.70151C5.31591 2.70151 3.06755 4.94987 3.06755 7.70368C3.06755 8.59257 3.29413 9.44661 3.72986 10.1961L3.01526 12.793L5.6645 12.0958C6.39653 12.4967 7.21569 12.7059 8.0523 12.7059C10.8061 12.7059 13.0545 10.4575 13.0545 7.70368C13.0719 6.36164 12.549 5.10674 11.6079 4.16556ZM8.06973 11.8518C7.32027 11.8518 6.58824 11.6601 5.96079 11.2767L5.80393 11.1895L4.2353 11.6078L4.6536 10.0741L4.54903 9.91719C4.13073 9.25488 3.92158 8.488 3.92158 7.70368C3.92158 5.42046 5.7865 3.55554 8.06973 3.55554C9.18519 3.55554 10.2309 3.99127 11.0153 4.77558C11.7996 5.55989 12.2353 6.60565 12.2353 7.72111C12.2353 9.98691 10.3704 11.8518 8.06973 11.8518ZM10.353 8.74944C10.475 8.81915 10.5621 8.83658 10.597 8.88887C10.6318 8.94116 10.6318 9.18517 10.5272 9.48146C10.4227 9.77776 9.91722 10.0392 9.69064 10.0741C9.48149 10.1089 9.20263 10.1263 8.90633 10.0218C8.73204 9.96948 8.48803 9.88234 8.19173 9.76033C6.93683 9.22003 6.11766 7.96512 6.06537 7.87798C5.99565 7.79083 5.55992 7.19824 5.55992 6.58822C5.55992 5.97819 5.89108 5.66447 5.99565 5.54246C6.11766 5.42046 6.23966 5.3856 6.32681 5.3856C6.41395 5.3856 6.5011 5.3856 6.57081 5.3856C6.64053 5.3856 6.74511 5.35075 6.84968 5.59476C6.95426 5.83876 7.19827 6.46621 7.23313 6.5185C7.26798 6.58822 7.28542 6.65793 7.25056 6.74508C7.2157 6.83222 7.18084 6.88451 7.12855 6.95423C7.05883 7.02395 6.98912 7.11109 6.93683 7.18081C6.86711 7.25052 6.81483 7.30281 6.88454 7.44225C6.95426 7.56425 7.2157 7.98255 7.58171 8.31371C8.0523 8.73201 8.45317 8.87144 8.5926 8.94116C8.71461 9.01087 8.78432 8.99345 8.87147 8.9063C8.94119 8.81916 9.18519 8.54029 9.27234 8.41828C9.35949 8.29628 9.44663 8.31371 9.55121 8.34857C9.62092 8.38342 10.2309 8.67972 10.353 8.74944Z" fill="white"/>
</svg>
