<svg viewBox="0 0 24 24" xmlns="http://www.w3.org/2000/svg">
<path d="M21 12.0536C21 7.05067 16.9733 3 12 3C7.02667 3 3 7.05067 3 12.0536C3 16.5738 6.29333 20.3159 10.6 21V14.6826H8.30667V12.0671H10.5867V10.0686C10.5867 7.80179 11.9333 6.54098 13.9867 6.54098C14.9733 6.54098 16 6.71535 16 6.71535V8.94188H14.8667C13.7467 8.94188 13.4 9.63935 13.4 10.3502V12.0536H15.8933L15.4933 14.6691H13.4V21C17.7067 20.3294 21 16.5738 21 12.0536Z" fill="url(#paint0_linear_3260_7496)"/>
<defs>
<linearGradient id="paint0_linear_3260_7496" x1="12" y1="3" x2="12" y2="21" gradientUnits="userSpaceOnUse">
<stop stop-color="#36AEFD"/>
<stop offset="1" stop-color="#226AE0"/>
</linearGradient>
</defs>
</svg>
