<svg viewBox="0 0 24 24" xmlns="http://www.w3.org/2000/svg">
<path fill-rule="evenodd" clip-rule="evenodd" d="M21 12C21 16.9706 16.9706 21 12 21C7.02944 21 3 16.9706 3 12C3 7.02943 7.02944 3 12 3C16.9706 3 21 7.02943 21 12ZM16.2533 8.18679C16.3067 8.20012 16.3467 8.22679 16.3867 8.33345C16.3944 8.3567 16.3976 8.39345 16.4016 8.43848C16.4045 8.47094 16.4077 8.5077 16.4133 8.5468C16.4133 8.57077 16.4106 8.59474 16.4077 8.62113C16.404 8.65346 16.4 8.68941 16.4 8.73345C16.3467 9.56012 14.8133 15.7335 14.8133 15.7335C14.8133 15.7335 14.72 16.0935 14.3867 16.1068C14.2667 16.1068 14.12 16.0801 13.9467 15.9335C13.6 15.6268 12.8 15.0668 12.0533 14.5468C12.0288 14.5682 12.0012 14.5923 11.9707 14.6188C11.7358 14.8233 11.3331 15.1737 10.92 15.5868C10.2667 16.2401 10.3467 15.5868 10.3467 15.5868L10.5467 13.4401C10.56 13.4135 10.5733 13.4001 10.5733 13.4001C10.5733 13.4001 14.4533 9.94679 14.56 9.58679C14.56 9.56012 14.5333 9.5468 14.4933 9.56013C14.2889 9.63544 11.3412 11.4904 9.95124 12.3651C9.61864 12.5744 9.37525 12.7276 9.27999 12.7868C9.25332 12.8001 9.17332 12.7868 9.17332 12.7868L6.99999 12.0801C6.99999 12.0801 6.74665 11.9735 6.82666 11.7335C6.82951 11.7292 6.83237 11.7247 6.83533 11.7201C6.85996 11.6819 6.89143 11.633 6.98666 11.5735C7.46666 11.2401 15.88 8.21347 15.88 8.21347C15.88 8.21347 16.1067 8.13346 16.2533 8.18679Z"/>
</svg>
