<svg viewBox="0 0 24 24" xmlns="http://www.w3.org/2000/svg">
<path d="M12 22C17.5228 22 22 17.5228 22 12C22 6.47715 17.5228 2 12 2C6.47715 2 2 6.47715 2 12C2 17.5228 6.47715 22 12 22Z" fill="url(#paint0_linear_4162_8211)"/>
<path fill-rule="evenodd" clip-rule="evenodd" d="M16.799 7.31857C15.599 6.11857 14.0139 5.46672 12.3102 5.4519C8.81386 5.4519 5.96942 8.29635 5.96942 11.7926C5.96942 12.9038 6.26572 14.0001 6.81387 14.963L5.91016 18.2519L9.27312 17.363C10.2065 17.8667 11.2435 18.1334 12.3102 18.1334C15.8065 18.1334 18.6509 15.2889 18.6509 11.7926C18.6657 10.1186 17.999 8.51857 16.799 7.31857ZM12.3102 17.0815C11.362 17.0815 10.4287 16.8297 9.62868 16.3408L9.43609 16.2223L7.43609 16.7408L7.96942 14.8001L7.8509 14.6075C7.31757 13.763 7.0509 12.8001 7.0509 11.8075C7.0509 8.90376 9.42127 6.53339 12.325 6.53339C13.7324 6.53339 15.0509 7.08153 16.0583 8.07413C17.0509 9.06672 17.599 10.4001 17.599 11.8075C17.5842 14.7112 15.2287 17.0815 12.3102 17.0815ZM15.2139 13.126C15.0509 13.0519 14.2805 12.6667 14.1324 12.6075C13.9842 12.5482 13.8805 12.5334 13.7768 12.6815C13.6731 12.8445 13.362 13.2001 13.2731 13.3038C13.1842 13.4075 13.0953 13.4223 12.9324 13.3482C12.7694 13.2741 12.2657 13.0964 11.6583 12.563C11.1842 12.1482 10.8731 11.6297 10.7694 11.4667C10.6805 11.3038 10.7546 11.2297 10.8435 11.1408C10.9176 11.0667 11.0065 10.963 11.0805 10.8593C11.1546 10.7704 11.1842 10.6963 11.2435 10.5926C11.3027 10.4889 11.2731 10.4001 11.2287 10.3112C11.1842 10.2371 10.8731 9.45191 10.7398 9.14079C10.6065 8.82968 10.4731 8.87413 10.3842 8.87413C10.2953 8.87413 10.1916 8.87413 10.0731 8.87413C9.95461 8.87413 9.79164 8.91857 9.64349 9.06672C9.49534 9.22968 9.09534 9.61487 9.09534 10.3852C9.09534 11.1704 9.65831 11.926 9.7472 12.0297C9.82127 12.1334 10.8583 13.7334 12.4583 14.4297C12.8435 14.5926 13.125 14.6964 13.362 14.7704C13.7472 14.8889 14.0879 14.8741 14.3546 14.8297C14.6657 14.7852 15.2879 14.4445 15.4213 14.0741C15.5546 13.7038 15.5546 13.3926 15.5102 13.3186C15.4805 13.2445 15.362 13.2149 15.2139 13.126Z" fill="white"/>
<defs>
<linearGradient id="paint0_linear_4162_8211" x1="12" y1="2" x2="12" y2="22" gradientUnits="userSpaceOnUse">
<stop stop-color="#66F47B"/>
<stop offset="1" stop-color="#36CC4D"/>
</linearGradient>
</defs>
</svg>
