<svg viewBox="0 0 24 24" xmlns="http://www.w3.org/2000/svg">
<path d="M4.32015 13.5732C4.32015 14.3205 4.48777 14.8943 4.70685 15.2414C4.9941 15.6961 5.42253 15.8887 5.85931 15.8887C6.42266 15.8887 6.93804 15.7519 7.93122 14.4076C8.72688 13.3302 9.66441 11.8178 10.2952 10.8697L11.3635 9.26346C12.1056 8.14791 12.9646 6.9078 13.9494 6.06722C14.7534 5.38115 15.6207 5 16.4936 5C17.959 5 19.3549 5.83104 20.4232 7.38968C21.5923 9.0967 22.1599 11.2468 22.1599 13.4657C22.1599 14.7847 21.8942 15.7539 21.4421 16.5196C21.0053 17.2601 20.154 18 18.722 18V15.8887C19.9482 15.8887 20.2542 14.7861 20.2542 13.5242C20.2542 11.726 19.8258 9.73036 18.882 8.30445C18.2122 7.29304 17.3442 6.67502 16.3893 6.67502C15.3564 6.67502 14.5253 7.43733 13.5912 8.79654C13.0947 9.51869 12.5848 10.3987 12.0124 11.3918L11.3823 12.4842C10.1165 14.6806 9.79587 15.1808 9.16296 16.0064C8.05363 17.4521 7.10635 18 5.85931 18C4.37996 18 3.44451 17.3731 2.86515 16.4284C2.39221 15.6586 2.15991 14.6486 2.15991 13.4976L4.32015 13.5732Z" fill="#0081FB"/>
<path d="M3.86328 7.53874C4.85368 6.04476 6.28295 5 7.92225 5C8.87162 5 9.81542 5.27498 10.801 6.06247C11.879 6.92346 13.028 8.34121 14.4614 10.6778L14.9754 11.5163C16.2162 13.5392 16.9221 14.5798 17.3352 15.0706C17.8666 15.7008 18.2387 15.8887 18.7221 15.8887C19.9482 15.8887 20.2543 14.7861 20.2543 13.5242L22.16 13.4657C22.16 14.7847 21.8943 15.7539 21.4422 16.5196C21.0054 17.2601 20.1541 18 18.7221 18C17.8318 18 17.0431 17.8108 16.171 17.0056C15.5005 16.3876 14.7166 15.2897 14.1136 14.3028L12.3199 11.3707C11.42 9.89916 10.5944 8.80198 10.1166 8.30513C9.60259 7.77084 8.94187 7.1256 7.88748 7.1256C7.03409 7.1256 6.30938 7.71162 5.70289 8.60801L3.86328 7.53874Z" fill="url(#paint0_linear_4999_8633)"/>
<path d="M7.8874 7.1256C7.03401 7.1256 6.3093 7.71162 5.70282 8.60801C4.84526 9.87466 4.32015 11.7614 4.32015 13.5732C4.32015 14.3205 4.48777 14.8943 4.70685 15.2414L2.86515 16.4284C2.39221 15.6586 2.15991 14.6486 2.15991 13.4976C2.15991 11.4047 2.74692 9.22329 3.8632 7.53874C4.8536 6.04476 6.28287 5 7.92217 5L7.8874 7.1256Z" fill="url(#paint1_linear_4999_8633)"/>
<defs>
<linearGradient id="paint0_linear_4999_8633" x1="6.40257" y1="12.9633" x2="20.172" y2="13.674" gradientUnits="userSpaceOnUse">
<stop stop-color="#0064E1"/>
<stop offset="0.4" stop-color="#0064E1"/>
<stop offset="0.83" stop-color="#0073EE"/>
<stop offset="1" stop-color="#0082FB"/>
</linearGradient>
<linearGradient id="paint1_linear_4999_8633" x1="5.28969" y1="14.4607" x2="5.28969" y2="9.49215" gradientUnits="userSpaceOnUse">
<stop stop-color="#0082FB"/>
<stop offset="1" stop-color="#0064E0"/>
</linearGradient>
</defs>
</svg>
