<svg viewBox="0 0 24 24" xmlns="http://www.w3.org/2000/svg">
    <path d="M10.9021 6.62991L12.0239 7.74847L13.1457 6.62991C13.4894 6.28726 14.0466 6.28726 14.3902 6.62991C14.7339 6.97257 14.7339 7.52812 14.3902 7.87077L13.2644 8.99329L14.3889 10.1145C14.7326 10.4572 14.7326 11.0127 14.3889 11.3554C14.0453 11.698 13.4881 11.698 13.1444 11.3554L12.0239 10.2381L10.9034 11.3554C10.5598 11.698 10.0026 11.698 9.65895 11.3554C9.3153 11.0127 9.3153 10.4572 9.65895 10.1145L10.7834 8.99329L9.65764 7.87077C9.31399 7.52812 9.31399 6.97257 9.65764 6.62991C10.0013 6.28726 10.5585 6.28726 10.9021 6.62991Z"
          fill="#E63E1A"/>
    <path d="M9 6C8.44772 6 7.98717 5.54533 8.12343 5.01012C8.56394 3.27976 10.1325 2 12 2C13.8675 2 15.4361 3.27976 15.8766 5.01012C16.0128 5.54533 15.5523 6 15 6C14.4477 6 14.0207 5.52548 13.7555 5.04103C13.4159 4.42067 12.7571 4 12 4C11.2429 4 10.5841 4.42067 10.2445 5.04103C9.97928 5.52548 9.55228 6 9 6Z"/>
    <path d="M9.60587 12C8.85625 12 8.31252 12.7239 8.75013 13.3325C9.4762 14.3424 10.6613 15 12 15C13.3387 15 14.5238 14.3424 15.2499 13.3325C15.6875 12.7239 15.1437 12 14.3941 12C13.9846 12 13.6222 12.2392 13.3134 12.5083C12.9621 12.8145 12.5027 13 12 13C11.4973 13 11.0379 12.8145 10.6866 12.5083C10.3778 12.2392 10.0154 12 9.60587 12Z"/>
    <path d="M4.06149 11.998C4.51194 15.6177 7.38055 18.4869 11 18.9381V20H9C8.44772 20 8 20.4477 8 21C8 21.5523 8.44772 22 9 22H15C15.5523 22 16 21.5523 16 21C16 20.4477 15.5523 20 15 20H13V18.9381C16.6193 18.4867 19.4878 15.6176 19.9382 11.998C20.0064 11.45 19.5521 11 18.9998 11C18.4476 11 18.0086 11.4511 17.9176 11.9958C17.4432 14.8356 14.9743 17 11.9998 17C9.02538 17 6.55645 14.8356 6.0821 11.9958C5.99111 11.4511 5.55213 11 4.99984 11C4.44756 11 3.99329 11.45 4.06149 11.998Z"/>
</svg>
