<svg viewBox="0 0 32 32" xmlns="http://www.w3.org/2000/svg">
    <path d="M12.314 23.812c0-0.353 0.287-0.64 0.64-0.64h6.221c0.353 0 0.64 0.287 0.64 0.64s-0.287 0.64-0.64 0.64h-6.221c-0.353 0-0.64-0.287-0.64-0.64z"></path>
    <path d="M16.065 23.944c-0.353 0-0.64-0.287-0.64-0.64v-3.049c0-0.353 0.287-0.64 0.64-0.64s0.64 0.287 0.64 0.64v3.049c0 0.353-0.287 0.64-0.64 0.64z"></path>
    <path d="M17.895 15.111c0 1.011-0.82 1.83-1.83 1.83s-1.83-0.82-1.83-1.83v-4.96c0-1.011 0.82-1.83 1.83-1.83s1.83 0.82 1.83 1.83v4.96zM16.064 7.040c-1.718 0-3.11 1.393-3.11 3.11v4.96c0 1.718 1.393 3.11 3.11 3.11s3.11-1.393 3.11-3.11v-4.96c0-1.718-1.393-3.11-3.11-3.11z"></path>
    <path d="M16.064 19.615c2.539 0 4.544-1.984 4.544-4.442 0-0.353 0.287-0.64 0.64-0.64s0.64 0.287 0.64 0.64c0 3.189-2.603 5.722-5.824 5.722s-5.824-2.534-5.824-5.722c0-0.353 0.287-0.64 0.64-0.64s0.64 0.287 0.64 0.64c0 2.458 2.005 4.442 4.544 4.442z"></path>
</svg>
