<svg viewBox="0 0 24 24" xmlns="http://www.w3.org/2000/svg">
<path fill-rule="evenodd" clip-rule="evenodd" d="M12 2C9.79086 2 8 3.79086 8 6V11C8 13.2091 9.79086 15 12 15C14.2091 15 16 13.2091 16 11V6C16 3.79086 14.2091 2 12 2ZM14 11V6C14 4.89543 13.1046 4 12 4C10.8954 4 10 4.89543 10 6V11C10 12.1046 10.8954 13 12 13C13.1046 13 14 12.1046 14 11Z"/>
<path d="M11 18.9381C7.38055 18.4869 4.51194 15.6177 4.06149 11.998C3.99329 11.45 4.44756 11 4.99984 11C5.55213 11 5.99111 11.4511 6.0821 11.9958C6.55645 14.8356 9.02538 17 11.9998 17C14.9743 17 17.4432 14.8356 17.9176 11.9958C18.0086 11.4511 18.4476 11 18.9998 11C19.5521 11 20.0064 11.45 19.9382 11.998C19.4878 15.6176 16.6193 18.4867 13 18.9381V20H15C15.5523 20 16 20.4477 16 21C16 21.5523 15.5523 22 15 22H9C8.44772 22 8 21.5523 8 21C8 20.4477 8.44772 20 9 20H11V18.9381Z"/>
</svg>
