<svg viewBox="0 0 24 24" xmlns="http://www.w3.org/2000/svg">
    <path d="M16 5.99993C16 6.55221 15.5523 6.99993 15 6.99993C14.4658 6.99993 13.9572 6.75372 13.583 6.52207C13.3862 6.40023 13.1902 6.25931 13 6.10608V10C13 10.5523 12.5523 11 12 11C11.4477 11 11 10.5523 11 10V6.10608C10.8098 6.25931 10.6138 6.40023 10.417 6.52207C10.0428 6.75372 9.53415 6.99993 9 6.99993C8.44772 6.99993 8 6.55221 8 5.99993C8 5.44764 8.44772 4.99993 9 4.99993C8.99152 4.99993 8.99232 4.9997 9.00262 4.99668C9.03382 4.98753 9.15222 4.95281 9.36427 4.82154C9.61382 4.66706 9.89792 4.43779 10.1679 4.16782C10.4379 3.89785 10.6671 3.61375 10.8216 3.3642C10.9529 3.15215 10.9876 3.03375 10.9967 3.00255C10.9998 2.99225 11 2.99145 11 2.99993C11 2.44768 11.4477 2 12 2C12.5523 2 13 2.44768 13 2.99993C13 2.99145 13.0002 2.99225 13.0033 3.00255C13.0124 3.03374 13.0471 3.15215 13.1784 3.3642C13.3329 3.61375 13.5621 3.89785 13.8321 4.16782C14.1021 4.43779 14.3862 4.66706 14.6357 4.82154C14.8478 4.95281 14.9662 4.98753 14.9974 4.99668C15.0077 4.9997 15.0085 4.99993 15 4.99993C15.5523 4.99993 16 5.44764 16 5.99993Z" />
    <path d="M6.99993 9C6.99993 8.44772 6.55221 8 5.99993 8C5.44764 8 4.99993 8.44772 4.99993 9C4.99993 8.99153 4.9997 8.99232 4.99668 9.00262C4.98753 9.03382 4.95281 9.15222 4.82154 9.36427C4.66706 9.61382 4.43779 9.89792 4.16782 10.1679C3.89785 10.4379 3.61375 10.6671 3.3642 10.8216C3.15215 10.9529 3.03374 10.9876 3.00255 10.9967C2.99225 10.9998 2.99145 11 2.99993 11C2.44768 11 2 11.4477 2 12C2 12.5523 2.44768 13 2.99993 13C2.99146 13 2.99225 13.0002 3.00254 13.0033C3.03374 13.0124 3.15215 13.0471 3.3642 13.1784C3.61375 13.3329 3.89785 13.5621 4.16782 13.8321C4.43779 14.1021 4.66706 14.3862 4.82154 14.6357C4.95281 14.8478 4.98753 14.9662 4.99668 14.9974C4.9997 15.0077 4.99993 15.0085 4.99993 15C4.99993 15.5523 5.44764 16 5.99993 16C6.55221 16 6.99993 15.5523 6.99993 15C6.99993 14.4659 6.75372 13.9572 6.52207 13.583C6.40023 13.3862 6.25931 13.1902 6.10608 13H10C10.5523 13 11 12.5523 11 12C11 11.4477 10.5523 11 10 11H6.10608C6.25931 10.8098 6.40023 10.6138 6.52207 10.417C6.75372 10.0428 6.99993 9.53415 6.99993 9Z" />
    <path d="M17.0001 9C17.0001 8.44772 17.4478 8 18.0001 8C18.5524 8 19.0001 8.44772 19.0001 9C19.0001 8.99153 19.0003 8.99232 19.0033 9.00262C19.0125 9.03382 19.0472 9.15222 19.1785 9.36427C19.3329 9.61382 19.5622 9.89792 19.8322 10.1679C20.1021 10.4379 20.3863 10.6671 20.6358 10.8216C20.8479 10.9529 20.9663 10.9876 20.9975 10.9967C21.0077 10.9998 21.0085 11 21.0001 11C21.5523 11 22 11.4477 22 12C22 12.5523 21.5523 13 21.0001 13C21.0085 13 21.0077 13.0002 20.9975 13.0033C20.9663 13.0124 20.8479 13.0471 20.6358 13.1784C20.3863 13.3329 20.1021 13.5621 19.8322 13.8321C19.5622 14.1021 19.3329 14.3862 19.1785 14.6357C19.0472 14.8478 19.0125 14.9662 19.0033 14.9974C19.0003 15.0077 19.0001 15.0085 19.0001 15C19.0001 15.5523 18.5524 16 18.0001 16C17.4478 16 17.0001 15.5523 17.0001 15C17.0001 14.4659 17.2463 13.9572 17.4779 13.583C17.5998 13.3862 17.7407 13.1902 17.8939 13H14C13.4477 13 13 12.5523 13 12C13 11.4477 13.4477 11 14 11H17.8939C17.7407 10.8098 17.5998 10.6138 17.4779 10.417C17.2463 10.0428 17.0001 9.53415 17.0001 9Z" />
    <path d="M15 17.0001C15.5523 17.0001 16 17.4478 16 18.0001C16 18.5524 15.5523 19.0001 15 19.0001C15.0085 19.0001 15.0077 19.0003 14.9974 19.0033C14.9662 19.0125 14.8478 19.0472 14.6357 19.1785C14.3862 19.3329 14.1021 19.5622 13.8321 19.8322C13.5621 20.1021 13.3329 20.3863 13.1784 20.6358C13.0471 20.8479 13.0124 20.9663 13.0033 20.9975C13.0002 21.0077 13 21.0085 13 21.0001C13 21.5523 12.5523 22 12 22C11.4477 22 11 21.5523 11 21.0001C11 21.0085 10.9998 21.0077 10.9967 20.9975C10.9876 20.9663 10.9529 20.8479 10.8216 20.6358C10.6671 20.3863 10.4379 20.1021 10.1679 19.8322C9.89792 19.5622 9.61382 19.3329 9.36427 19.1785C9.15222 19.0472 9.03382 19.0125 9.00262 19.0033C8.99232 19.0003 8.99152 19.0001 9 19.0001C8.44772 19.0001 8 18.5524 8 18.0001C8 17.4478 8.44772 17.0001 9 17.0001C9.53415 17.0001 10.0428 17.2463 10.417 17.4779C10.6138 17.5998 10.8098 17.7407 11 17.8939L11 14C11 13.4477 11.4477 13 12 13C12.5523 13 13 13.4477 13 14V17.8939C13.1902 17.7407 13.3862 17.5998 13.583 17.4779C13.9572 17.2463 14.4659 17.0001 15 17.0001Z" />
</svg>
