<svg viewBox="0 0 32 32" xmlns="http://www.w3.org/2000/svg">
    <path d="M16.773 3.626l4 4c0.391 0.391 0.391 1.024 0 1.414s-1.024 0.391-1.414 0l-2.293-2.293v5.586c0 0.552-0.448 1-1 1s-1-0.448-1-1v-5.586l-2.293 2.293c-0.391 0.391-1.024 0.391-1.414 0s-0.391-1.024 0-1.414l4-4c0.096-0.096 0.206-0.168 0.324-0.217s0.247-0.076 0.383-0.076c0.256 0 0.512 0.098 0.707 0.293z"></path>
    <path d="M15.359 28.374l-4-4c-0.391-0.391-0.391-1.024 0-1.414s1.024-0.391 1.414 0l2.293 2.293v-5.586c0-0.552 0.448-1 1-1s1 0.448 1 1v5.586l2.293-2.293c0.391-0.391 1.024-0.391 1.414 0s0.391 1.024 0 1.414l-4 4c-0.096 0.096-0.206 0.168-0.324 0.217s-0.247 0.076-0.383 0.076c-0.256 0-0.512-0.098-0.707-0.293z"></path>
    <path d="M24.374 20.707l4-4c0.195-0.195 0.293-0.451 0.293-0.707 0-0.136-0.027-0.265-0.076-0.383s-0.121-0.228-0.217-0.324l-4-4c-0.391-0.391-1.024-0.391-1.414 0s-0.391 1.024 0 1.414l2.293 2.293h-5.586c-0.552 0-1 0.448-1 1s0.448 1 1 1h5.586l-2.293 2.293c-0.391 0.391-0.391 1.024 0 1.414s1.024 0.391 1.414 0z"></path>
    <path d="M3.626 15.293l4-4c0.391-0.391 1.024-0.391 1.414 0s0.391 1.024 0 1.414l-2.293 2.293h5.586c0.552 0 1 0.448 1 1s-0.448 1-1 1h-5.586l2.293 2.293c0.391 0.391 0.391 1.024 0 1.414s-1.024 0.391-1.414 0l-4-4c-0.096-0.096-0.168-0.206-0.217-0.324s-0.076-0.247-0.076-0.383c0-0.256 0.098-0.512 0.293-0.707z"></path>
</svg>
