<svg viewBox="0 0 24 24" xmlns="http://www.w3.org/2000/svg">
<path fill-rule="evenodd" clip-rule="evenodd" d="M3.70804 21.9569H3.05906C2.50678 21.9569 2.05906 21.5092 2.05906 20.9569L2.05906 18.4038C2.05906 17.4908 2.42749 16.6001 3.1218 15.9082L16.3159 2.75982C17.2185 1.86032 18.6184 1.86032 19.5211 2.75982L21.3145 4.54701C22.2191 5.44843 22.2191 6.84944 21.3145 7.75086C21.2461 7.81904 21.1703 7.87526 21.0896 7.91953L9.01886 20.0001H12.9998C13.552 20.0001 13.9998 20.4478 13.9998 21.0001C13.9998 21.5524 13.552 22.0001 12.9998 22.0001H3.99976C3.89828 22.0001 3.80033 21.985 3.70804 21.9569ZM14.9998 21.0001C14.9998 21.5524 15.4475 22.0001 15.9998 22.0001L18.9998 22.0001C20.6566 22.0001 21.9998 20.6569 21.9998 19.0001L21.9998 12.0001C21.9998 11.4478 21.552 11.0001 20.9998 11.0001C20.4475 11.0001 19.9998 11.4478 19.9998 12.0001V19.0001C19.9998 19.5524 19.552 20.0001 18.9998 20.0001H15.9998C15.4475 20.0001 14.9998 20.4478 14.9998 21.0001ZM19.9786 6.22318C19.9895 6.19467 19.9929 6.16943 19.9929 6.14893C19.9929 6.1045 19.977 6.03772 19.9027 5.96368L18.1093 4.1765C18.0349 4.10238 17.9663 4.08519 17.9185 4.08519C17.8706 4.08519 17.802 4.10238 17.7276 4.17649L16.4118 5.4878L18.5528 7.62884L19.8451 6.33551C19.887 6.29356 19.9317 6.25613 19.9786 6.22318ZM6.70865 19.4826L17.1392 9.04362L14.9951 6.89956L4.53355 17.3249C4.20304 17.6543 4.05906 18.0402 4.05906 18.4038L4.05906 19.9569L5.6211 19.9569C5.98895 19.9569 6.37821 19.8116 6.70865 19.4826ZM11.9998 2.00009C12.552 2.00009 12.9998 2.44781 12.9998 3.00009C12.9998 3.55238 12.552 4.00009 11.9998 4.00009H4.99976C4.44747 4.00009 3.99976 4.44781 3.99976 5.00009V12.0001C3.99976 12.5524 3.55204 13.0001 2.99976 13.0001C2.44747 13.0001 1.99976 12.5524 1.99976 12.0001L1.99976 5.00009C1.99976 3.34324 3.3429 2.00009 4.99976 2.00009L11.9998 2.00009Z"/>
</svg>
