<svg width="34" height="34" viewBox="0 0 34 34" xmlns="http://www.w3.org/2000/svg">
<g filter="url(#filter0_d_1:30357)">
<path d="M10 11C10 10.4477 10.4477 10 11 10H12C12.5523 10 13 10.4477 13 11V12C13 12.5523 12.5523 13 12 13H11C10.4477 13 10 12.5523 10 12V11Z"/>
<path d="M10 16.5C10 15.9477 10.4477 15.5 11 15.5H12C12.5523 15.5 13 15.9477 13 16.5L13 17.5C13 18.0523 12.5523 18.5 12 18.5H11C10.4477 18.5 10 18.0523 10 17.5L10 16.5Z"/>
<path d="M10 22C10 21.4477 10.4477 21 11 21H12C12.5523 21 13 21.4477 13 22L13 23C13 23.5523 12.5523 24 12 24H11C10.4477 24 10 23.5523 10 23L10 22Z"/>
<path d="M21 11C21 10.4477 21.4477 10 22 10H23C23.5523 10 24 10.4477 24 11V12C24 12.5523 23.5523 13 23 13H22C21.4477 13 21 12.5523 21 12V11Z"/>
<path d="M21 16.5C21 15.9477 21.4477 15.5 22 15.5H23C23.5523 15.5 24 15.9477 24 16.5L24 17.5C24 18.0523 23.5523 18.5 23 18.5H22C21.4477 18.5 21 18.0523 21 17.5L21 16.5Z"/>
<path d="M21 22C21 21.4477 21.4477 21 22 21H23C23.5523 21 24 21.4477 24 22L24 23C24 23.5523 23.5523 24 23 24H22C21.4477 24 21 23.5523 21 23L21 22Z"/>
<path d="M15.5 11C15.5 10.4477 15.9477 10 16.5 10H17.5C18.0523 10 18.5 10.4477 18.5 11V12C18.5 12.5523 18.0523 13 17.5 13H16.5C15.9477 13 15.5 12.5523 15.5 12V11Z"/>
<path d="M15.5 16.5C15.5 15.9477 15.9477 15.5 16.5 15.5H17.5C18.0523 15.5 18.5 15.9477 18.5 16.5L18.5 17.5C18.5 18.0523 18.0523 18.5 17.5 18.5H16.5C15.9477 18.5 15.5 18.0523 15.5 17.5L15.5 16.5Z"/>
<path d="M15.5 22C15.5 21.4477 15.9477 21 16.5 21H17.5C18.0523 21 18.5 21.4477 18.5 22L18.5 23C18.5 23.5523 18.0523 24 17.5 24H16.5C15.9477 24 15.5 23.5523 15.5 23L15.5 22Z"/>
</g>
<defs>
<filter id="filter0_d_1:30357" x="-5" y="-5" width="44" height="44" filterUnits="userSpaceOnUse" color-interpolation-filters="sRGB">
<feFlood flood-opacity="0" result="BackgroundImageFix"/>
<feColorMatrix in="SourceAlpha" type="matrix" values="0 0 0 0 0 0 0 0 0 0 0 0 0 0 0 0 0 0 127 0" result="hardAlpha"/>
<feOffset/>
<feGaussianBlur stdDeviation="5"/>
<feColorMatrix type="matrix" values="0 0 0 0 0 0 0 0 0 0 0 0 0 0 0 0 0 0 0.1 0"/>
<feBlend mode="normal" in2="BackgroundImageFix" result="effect1_dropShadow_1:30357"/>
<feBlend mode="normal" in="SourceGraphic" in2="effect1_dropShadow_1:30357" result="shape"/>
</filter>
</defs>
</svg>
