<svg viewBox="0 0 24 24" xmlns="http://www.w3.org/2000/svg">
    <path d="M10.5 6C10.5 5.44772 10.9477 5 11.5 5H12.5C13.0523 5 13.5 5.44772 13.5 6V7C13.5 7.55228 13.0523 8 12.5 8H11.5C10.9477 8 10.5 7.55228 10.5 7V6Z"/>
    <path d="M10.5 11.5C10.5 10.9477 10.9477 10.5 11.5 10.5H12.5C13.0523 10.5 13.5 10.9477 13.5 11.5L13.5 12.5C13.5 13.0523 13.0523 13.5 12.5 13.5H11.5C10.9477 13.5 10.5 13.0523 10.5 12.5L10.5 11.5Z"/>
    <path d="M10.5 17C10.5 16.4477 10.9477 16 11.5 16H12.5C13.0523 16 13.5 16.4477 13.5 17L13.5 18C13.5 18.5523 13.0523 19 12.5 19H11.5C10.9477 19 10.5 18.5523 10.5 18L10.5 17Z"/>
</svg>
