<svg viewBox="0 0 32 32" xmlns="http://www.w3.org/2000/svg">
    <path d="M6.667 1.667c-2.019 0-3.667 1.648-3.667 3.667v8c0 0.552 0.448 1 1 1s1-0.448 1-1v-8c0-0.914 0.752-1.667 1.667-1.667h18.667c0.914 0 1.667 0.752 1.667 1.667v2.667c0 0.552 0.448 1 1 1s1-0.448 1-1v-2.667c0-2.019-1.648-3.667-3.667-3.667h-18.667z"></path>
    <path d="M12.643 13.295c0-1.87 1.465-3.456 3.357-3.456s3.357 1.586 3.357 3.456-1.465 3.456-3.357 3.456c-1.892 0-3.357-1.586-3.357-3.456zM16 11.839c-0.712 0-1.357 0.613-1.357 1.456s0.646 1.456 1.357 1.456c0.711 0 1.357-0.613 1.357-1.456s-0.646-1.456-1.357-1.456z"></path>
    <path d="M11.656 8.705c1.255-1.002 2.758-1.705 4.344-1.705s3.089 0.704 4.344 1.705c1.252 0.999 2.325 2.346 3.082 3.788 0.142 0.237 0.241 0.521 0.241 0.84s-0.098 0.603-0.241 0.84c-0.757 1.442-1.83 2.789-3.082 3.788-1.255 1.002-2.758 1.705-4.344 1.705s-3.089-0.704-4.344-1.705c-1.252-0.999-2.325-2.346-3.082-3.788-0.142-0.237-0.241-0.521-0.241-0.84s0.098-0.603 0.241-0.84c0.757-1.442 1.83-2.789 3.082-3.788zM10.392 13.333c0.638 1.186 1.521 2.275 2.511 3.065 1.029 0.821 2.104 1.268 3.096 1.268s2.068-0.447 3.096-1.268c0.99-0.79 1.874-1.879 2.511-3.065-0.638-1.186-1.521-2.275-2.511-3.065-1.029-0.821-2.104-1.268-3.096-1.268s-2.068 0.448-3.096 1.268c-0.99 0.79-1.874 1.879-2.511 3.065z"></path>
    <path d="M28 12.333c0.552 0 1 0.448 1 1v8c0 2.019-1.648 3.667-3.667 3.667h-18.667c-2.019 0-3.667-1.648-3.667-3.667v-2.667c0-0.552 0.448-1 1-1s1 0.448 1 1v2.667c0 0.914 0.752 1.667 1.667 1.667h18.667c0.914 0 1.667-0.752 1.667-1.667v-8c0-0.552 0.448-1 1-1z"></path>
    <path d="M9.333 27c-0.552 0-1 0.448-1 1s0.448 1 1 1h13.333c0.552 0 1-0.448 1-1s-0.448-1-1-1h-13.333z"></path>
</svg>
