<svg viewBox="0 0 24 24" xmlns="http://www.w3.org/2000/svg">
    <path fill-rule="evenodd" clip-rule="evenodd"
          d="M2 12C2 6.45029 6.45029 2 12 2C17.5497 2 22 6.45029 22 12C22 17.5497 17.5497 22 12 22C6.45029 22 2 17.5497 2 12ZM12 4C7.55486 4 4 7.55486 4 12C4 16.4451 7.55486 20 12 20C16.4451 20 20 16.4451 20 12C20 7.55486 16.4451 4 12 4ZM10 8C10.5523 8 11 8.44772 11 9V15C11 15.5523 10.5523 16 10 16C9.44772 16 9 15.5523 9 15V9C9 8.44772 9.44772 8 10 8ZM15 9C15 8.44772 14.5523 8 14 8C13.4477 8 13 8.44772 13 9V15C13 15.5523 13.4477 16 14 16C14.5523 16 15 15.5523 15 15V9Z"/>
</svg>
