<svg viewBox="0 0 24 24" xmlns="http://www.w3.org/2000/svg">
    <path fill-rule="evenodd" clip-rule="evenodd"
          d="M5.30424 6.45103L10.6508 4.2235C11.5596 3.9255 12.4404 3.9255 13.3492 4.2235L18.6957 6.45102C18.7121 6.45784 18.7286 6.46441 18.745 6.4707C18.8612 6.5152 18.9209 6.57326 18.9516 6.61687C18.983 6.66161 19 6.7136 19 6.77325V10.8281C19 14.9062 16.0324 18.8709 12 19.9676C7.96763 18.8709 5 14.9062 5 10.8281V6.77325C5 6.7136 5.017 6.66161 5.04844 6.61687C5.07909 6.57326 5.13872 6.51522 5.25497 6.47072C5.27144 6.46441 5.28789 6.45784 5.30424 6.45103ZM14.0175 2.338C12.6737 1.88733 11.3263 1.88733 9.98255 2.338C9.96006 2.34554 9.93784 2.35388 9.91594 2.36301L4.53746 4.60385C3.58437 4.96978 3 5.81925 3 6.77325V10.8281C3 15.8921 6.69995 20.7472 11.765 21.972C11.9194 22.0093 12.0806 22.0093 12.235 21.972C17.3 20.7472 21 15.8921 21 10.8281V6.77325C21 5.81925 20.4156 4.96979 19.4625 4.60386L14.0841 2.36301C14.0622 2.35389 14.0399 2.34554 14.0175 2.338ZM17.5 9.9142C17.8905 9.52367 17.8905 8.89051 17.5 8.49999C17.1095 8.10946 16.4763 8.10946 16.0858 8.49999L10.8536 14.0251C10.6583 14.2203 10.3417 14.2203 10.1465 14.0251L8.70711 12.6109C8.31658 12.2203 7.68342 12.2203 7.29289 12.6109C6.90237 13.0014 6.90237 13.6346 7.29289 14.0251L9.08579 15.7929C9.86684 16.5739 11.1332 16.5739 11.9142 15.7929L17.5 9.9142Z"/>
</svg>
