<svg viewBox="0 0 24 24" xmlns="http://www.w3.org/2000/svg">
<path fill-rule="evenodd" clip-rule="evenodd" d="M21.6226 8.42841C21.5466 8.50445 21.4612 8.56862 21.3676 8.62125L15.9293 12.7331C16.8436 14.4632 16.9841 16.0924 16.1335 16.9431C14.9868 18.0897 12.4254 17.4354 10.1093 15.5125L2 22L8.48746 13.8907C6.5646 11.5746 5.91027 9.01319 7.05693 7.86652C7.90758 7.01587 9.53682 7.15638 11.2669 8.07067L15.3788 2.63243C15.4314 2.5388 15.4955 2.45342 15.5716 2.37738C16.4309 1.51803 18.4821 2.17597 20.1531 3.84691C21.824 5.51786 22.482 7.56906 21.6226 8.42841ZM10.882 8.57968L11.0819 8.31531C10.3586 8.13562 9.7332 8.21577 9.34768 8.60129C8.48833 9.46064 9.14627 11.5118 10.8172 13.1828C12.4882 14.8537 14.5394 15.5117 15.3987 14.6523C15.7842 14.2668 15.8644 13.6414 15.6847 12.9181L15.4203 13.118C14.561 13.9773 12.8484 13.658 11.5952 12.4048C10.342 11.1516 10.0227 9.43902 10.882 8.57968Z"/>
</svg>
