<svg viewBox="0 0 24 24" xmlns="http://www.w3.org/2000/svg">
<path d="M9 8.80433V15.1958C9 15.9813 9.86395 16.4601 10.53 16.0438L15.6432 12.8481C16.2699 12.4564 16.2699 11.5438 15.6432 11.1521L10.53 7.95634C9.86395 7.54005 9 8.0189 9 8.80433Z"/>
<path fill-rule="evenodd" clip-rule="evenodd" d="M12 2C6.45029 2 2 6.45029 2 12C2 17.5497 6.45029 22 12 22C17.5497 22 22 17.5497 22 12C22 6.45029 17.5497 2 12 2ZM4 12C4 7.55486 7.55486 4 12 4C16.4451 4 20 7.55486 20 12C20 16.4451 16.4451 20 12 20C7.55486 20 4 16.4451 4 12Z"/>
</svg>
