<svg viewBox="0 0 32 32" xmlns="http://www.w3.org/2000/svg">
    <path d="M13.163 11.172c-0.586 0.339-1.069 0.989-1.069 1.816v6.025c0 0.827 0.483 1.476 1.069 1.815 0.583 0.338 1.391 0.436 2.102 0.010l5.068-3.013c0.699-0.42 1.004-1.16 1.004-1.825s-0.305-1.405-1.004-1.825l-5.068-3.014c-0.711-0.426-1.519-0.327-2.102 0.010zM14.114 19.012v-6.025c0-0.004 0-0.008 0.006-0.018 0.008-0.013 0.026-0.033 0.055-0.049 0.027-0.016 0.049-0.020 0.060-0.021l5.059 3.008c0 0 0.003 0.004 0.006 0.010 0.008 0.016 0.017 0.045 0.017 0.083s-0.009 0.067-0.017 0.083c-0.003 0.006-0.006 0.010-0.006 0.010l-5.059 3.008c-0.011-0.001-0.033-0.005-0.060-0.021-0.028-0.016-0.046-0.036-0.055-0.049-0.006-0.010-0.006-0.014-0.006-0.018z"></path>
    <path d="M2.667 16c0 7.404 5.929 13.333 13.333 13.333s13.333-5.929 13.333-13.333c0-7.404-5.929-13.333-13.333-13.333s-13.333 5.929-13.333 13.333zM4.687 16c0-6.288 5.025-11.313 11.313-11.313s11.313 5.025 11.313 11.313c0 6.288-5.025 11.313-11.313 11.313s-11.313-5.025-11.313-11.313z"></path>
</svg>
