<svg viewBox="0 0 24 24" xmlns="http://www.w3.org/2000/svg">
<path d="M12.295 6.00727C12.6884 5.61393 13.3261 5.61393 13.7194 6.00727C14.0999 6.3877 14.2868 6.92531 14.3883 7.35681C14.4417 7.58376 14.481 7.82375 14.5073 8.06832L17.2806 5.29501C17.6739 4.90166 18.3116 4.90166 18.705 5.29501C19.0983 5.68835 19.0983 6.32609 18.705 6.71944L15.9317 9.49275C16.1763 9.51905 16.4162 9.55831 16.6432 9.61171C17.0747 9.71323 17.6123 9.90013 17.9927 10.2806C18.3861 10.6739 18.3861 11.3116 17.9927 11.705C17.5994 12.0983 16.9616 12.0983 16.5683 11.705C16.5743 11.711 16.5736 11.7106 16.5641 11.7054C16.5354 11.6897 16.4263 11.6301 16.1818 11.5726C15.8941 11.5049 15.5284 11.4658 15.1439 11.4658C14.7593 11.4658 14.3937 11.5049 14.1059 11.5726C13.8614 11.6301 13.7523 11.6897 13.7236 11.7054C13.7141 11.7106 13.7134 11.711 13.7194 11.705C13.3261 12.0983 12.6884 12.0983 12.2951 11.7049C11.9017 11.3116 11.9017 10.6739 12.295 10.2806C12.289 10.2866 12.2894 10.2859 12.2946 10.2764C12.3103 10.2476 12.3699 10.1386 12.4274 9.89407C12.4951 9.60631 12.5342 9.24069 12.5342 8.85613C12.5342 8.47158 12.4951 8.10595 12.4274 7.81819C12.3699 7.57368 12.3103 7.4646 12.2945 7.43586C12.2894 7.4264 12.289 7.42567 12.295 7.4317C11.9017 7.03836 11.9017 6.40062 12.295 6.00727Z"/>
<path d="M11.705 17.9927C11.3116 18.3861 10.6739 18.3861 10.2806 17.9927C9.90013 17.6123 9.71324 17.0747 9.61171 16.6432C9.55831 16.4162 9.51905 16.1763 9.49275 15.9317L6.71944 18.705C6.32609 19.0983 5.68835 19.0983 5.29501 18.705C4.90166 18.3116 4.90166 17.6739 5.29501 17.2806L8.06832 14.5073C7.82375 14.481 7.58376 14.4417 7.35681 14.3883C6.92531 14.2868 6.3877 14.0999 6.00728 13.7194C5.61393 13.3261 5.61393 12.6884 6.00728 12.295C6.40062 11.9017 7.03836 11.9017 7.4317 12.295C7.42567 12.289 7.4264 12.2894 7.43588 12.2946C7.46462 12.3103 7.57368 12.3699 7.81819 12.4274C8.10595 12.4951 8.47158 12.5342 8.85613 12.5342C9.24069 12.5342 9.60632 12.4951 9.89407 12.4274C10.1386 12.3699 10.2477 12.3103 10.2764 12.2946C10.2859 12.2894 10.2866 12.289 10.2806 12.295C10.6739 11.9017 11.3116 11.9017 11.7049 12.2951C12.0983 12.6884 12.0983 13.3261 11.705 13.7194C11.711 13.7134 11.7106 13.7141 11.7054 13.7236C11.6897 13.7524 11.6301 13.8614 11.5726 14.1059C11.5049 14.3937 11.4658 14.7593 11.4658 15.1439C11.4658 15.5284 11.5049 15.8941 11.5726 16.1818C11.6301 16.4263 11.6898 16.5354 11.7055 16.5641C11.7106 16.5736 11.711 16.5743 11.705 16.5683C12.0983 16.9616 12.0983 17.5994 11.705 17.9927Z"/>
</svg>
