<svg viewBox="0 0 24 24" xmlns="http://www.w3.org/2000/svg">
<path fill-rule="evenodd" clip-rule="evenodd" d="M7.59678 7C8.1907 7 8.72217 7.19433 9.18882 7.58322C9.65506 7.97196 10.0226 8.54093 10.2911 9.29025C10.5668 10.0309 10.7054 10.9344 10.7054 11.999C10.7054 13.0638 10.5668 13.9714 10.2911 14.7214C10.0225 15.462 9.65541 16.0279 9.18882 16.4168C8.72217 16.8057 8.1907 17 7.59678 17C7.01019 16.9999 6.47976 16.8055 6.00622 16.4168C5.53957 16.0279 5.1726 15.4621 4.90393 14.7214C4.63526 13.9714 4.5 13.0638 4.5 11.999C4.50003 10.9344 4.63528 10.0309 4.90393 9.29025C5.1725 8.54091 5.53995 7.97195 6.00622 7.58322C6.47976 7.19448 7.01019 7.00015 7.59678 7ZM7.59678 8.56946C7.26473 8.56963 6.9675 8.69359 6.70607 8.94342C6.4516 9.18417 6.25084 9.56002 6.10239 10.0692C5.96103 10.5691 5.88936 11.2122 5.88933 11.999C5.88933 12.7768 5.96099 13.4216 6.10239 13.9308C6.25074 14.4393 6.45194 14.8183 6.70607 15.0682C6.9675 15.3088 7.26473 15.4304 7.59678 15.4305C7.94323 15.4305 8.24479 15.3089 8.49933 15.0682C8.75349 14.8183 8.95134 14.4393 9.09264 13.9308C9.24112 13.4216 9.31606 12.7768 9.31606 11.999C9.31604 11.2123 9.24106 10.5691 9.09264 10.0692C8.95125 9.55998 8.75382 9.18416 8.49933 8.94342C8.24479 8.69342 7.94323 8.56946 7.59678 8.56946Z"/>
<path d="M19.0651 8.65278H15.8736L15.7108 10.9023H16.424C17.1593 10.9023 17.7496 11.0326 18.1951 11.2918C18.6474 11.5417 18.9769 11.8924 19.182 12.3459C19.3941 12.7903 19.5001 13.3006 19.5001 13.8746C19.5 14.4394 19.394 14.9584 19.182 15.4305C18.9698 15.9026 18.6437 16.2809 18.2054 16.5679C17.7742 16.8549 17.2261 17 16.5616 17C16.0386 16.9999 15.5261 16.9018 15.0243 16.7074C14.5294 16.5037 14.1119 16.2261 13.7726 15.8742L14.3555 14.4714C14.6242 14.7585 14.9503 14.9911 15.3321 15.167C15.7208 15.3428 16.1239 15.4305 16.5409 15.4305C17.0286 15.4305 17.4104 15.2958 17.6861 15.0275C17.9688 14.7591 18.1106 14.3978 18.1107 13.9444C18.1107 13.6388 18.0504 13.3698 17.9302 13.1383C17.8171 12.9069 17.6117 12.7317 17.3147 12.6113C17.0248 12.491 16.6252 12.4292 16.1162 12.4292H14.3245L14.7062 7.13757H19.0651V8.65278Z"/>
<path d="M12.3389 14.6516C12.5791 14.6516 12.7847 14.7586 12.9544 14.9713C13.124 15.1749 13.2088 15.4529 13.2089 15.8045C13.2089 16.1378 13.124 16.4155 12.9544 16.6377C12.7847 16.8506 12.5793 16.9574 12.3389 16.9574C12.0988 16.9572 11.8943 16.8504 11.7248 16.6377C11.5552 16.4155 11.4703 16.1378 11.4703 15.8045C11.4704 15.4529 11.5552 15.1749 11.7248 14.9713C11.8943 14.7588 12.0989 14.6518 12.3389 14.6516Z"/>
</svg>
