<svg viewBox="0 0 24 24" xmlns="http://www.w3.org/2000/svg">
<path d="M7.98145 14.6553C8.25518 14.6554 8.48935 14.7608 8.68262 14.9736C8.87569 15.1771 8.9725 15.4553 8.97266 15.8066C8.97263 16.1399 8.87593 16.4194 8.68262 16.6416C8.48937 16.8543 8.25513 16.9589 7.98145 16.959C7.70756 16.959 7.47265 16.8544 7.2793 16.6416C7.086 16.4194 6.98929 16.1398 6.98926 15.8066C6.98942 15.4554 7.08625 15.1771 7.2793 14.9736C7.47267 14.7607 7.70752 14.6553 7.98145 14.6553Z"/>
<path d="M5.36035 16.7363H3.78906V8.52832H2V7.01562H5.36035V16.7363Z"/>
<path d="M21.8809 8.51367H18.5557L18.3867 10.7627H19.1279C19.894 10.7627 20.5095 10.8933 20.9736 11.1523C21.4451 11.4023 21.7883 11.7545 22.002 12.208C22.2229 12.6523 22.3339 13.1625 22.334 13.7363C22.3339 14.3007 22.2228 14.8191 22.002 15.291C21.7809 15.7632 21.4412 16.1436 20.9844 16.4307C20.5351 16.7173 19.9645 16.8603 19.2725 16.8604C18.7274 16.8604 18.1929 16.7627 17.6699 16.5684C17.1542 16.3647 16.7189 16.0871 16.3652 15.7354L16.9736 14.332C17.2535 14.6189 17.5916 14.8515 17.9893 15.0273C18.3945 15.2032 18.8163 15.291 19.251 15.291C19.7585 15.2908 20.1562 15.1567 20.4434 14.8887C20.7378 14.6202 20.8848 14.2582 20.8848 13.8047C20.8847 13.4994 20.8224 13.2303 20.6973 12.999C20.5793 12.768 20.3656 12.5919 20.0566 12.4717C19.7546 12.3514 19.3369 12.291 18.8066 12.291H16.9395L17.3369 7H21.8809V8.51367Z"/>
<path d="M16.0137 8.20801L13.0059 16.7217H11.4697L14.3799 8.52832H11.3379V10.1807H10V7H16.0137V8.20801Z"/>
</svg>
