<svg viewBox="0 0 24 24" xmlns="http://www.w3.org/2000/svg">
<path fill-rule="evenodd" clip-rule="evenodd" d="M4.22726 7C4.8459 7 5.39848 7.1942 5.88463 7.58268C6.37095 7.97156 6.75557 8.54169 7.03557 9.29167C7.32286 10.0323 7.46526 10.9354 7.46526 12C7.46525 13.0643 7.32273 13.9716 7.03557 14.7214C6.75557 15.4621 6.37095 16.0268 5.88463 16.4157C5.39834 16.8045 4.84614 17 4.22726 17C3.61573 17 3.06354 16.8045 2.56989 16.4157C2.08359 16.0268 1.70048 15.4621 1.42048 14.7214C1.14057 13.9715 1.00002 13.0645 1 12C1 10.9352 1.14048 10.0324 1.42048 9.29167C1.70048 8.54174 2.08359 7.97154 2.56989 7.58268C3.06341 7.19412 3.61596 7.00003 4.22726 7ZM4.22726 8.56901C3.881 8.56905 3.57142 8.69503 3.29883 8.94499C3.03374 9.18573 2.82431 9.56066 2.66964 10.0697C2.52229 10.5696 2.44866 11.213 2.44866 12C2.44867 12.7777 2.52228 13.4211 2.66964 13.9303C2.82437 14.4395 3.0336 14.8197 3.29883 15.0697C3.57139 15.3103 3.88107 15.431 4.22726 15.431C4.58809 15.431 4.90128 15.3101 5.16643 15.0697C5.4317 14.8197 5.63904 14.4396 5.78641 13.9303C5.94111 13.4212 6.01812 12.7776 6.01814 12C6.01814 11.2132 5.94105 10.5696 5.78641 10.0697C5.63904 9.56043 5.43169 9.18572 5.16643 8.94499C4.90117 8.695 4.58832 8.56901 4.22726 8.56901Z"/>
<path d="M22.5473 8.65365H19.2218L19.053 10.903H19.7942C20.5604 10.903 21.1762 11.0329 21.6403 11.292C22.1119 11.542 22.4548 11.8946 22.6685 12.3483C22.8895 12.7927 23 13.3027 23 13.8766C22.9999 14.441 22.8894 14.9591 22.6685 15.431C22.4475 15.9032 22.1079 16.2833 21.6511 16.5703C21.2017 16.8572 20.6309 17 19.9385 17C19.3934 17 18.8594 16.903 18.3364 16.7087C17.8206 16.505 17.3856 16.2271 17.0319 15.8753L17.6396 14.4723C17.9195 14.7592 18.2579 14.9914 18.6556 15.1673C19.0608 15.3432 19.4822 15.431 19.917 15.431C20.4248 15.4309 20.8222 15.297 21.1094 15.029C21.4041 14.7605 21.5513 14.3987 21.5513 13.945C21.5513 13.6396 21.4893 13.3707 21.3641 13.1393C21.2462 12.908 21.032 12.7323 20.7227 12.612C20.4206 12.4917 20.0038 12.4313 19.4735 12.4313H17.6059L18.0033 7.13997H22.5473V8.65365Z"/>
<path d="M9.1702 14.653C9.42024 14.6532 9.63353 14.7596 9.81013 14.972C9.98691 15.1756 10.0755 15.4537 10.0756 15.8053C10.0756 16.1387 9.98697 16.4165 9.81013 16.6387C9.63345 16.8514 9.42041 16.9575 9.1702 16.9577C8.91967 16.9577 8.70558 16.8516 8.52874 16.6387C8.35192 16.4165 8.26325 16.1386 8.26325 15.8053C8.26332 15.4537 8.35196 15.1756 8.52874 14.972C8.70552 14.7593 8.91983 14.653 9.1702 14.653Z"/>
<path d="M16.6805 8.34766L13.6727 16.8617H12.1366L15.0462 8.66829H12.0046V10.3203H10.6664V7.13997H16.6805V8.34766Z"/>
</svg>
