<svg viewBox="0 0 24 24" xmlns="http://www.w3.org/2000/svg">
<path fill-rule="evenodd" clip-rule="evenodd" d="M17.2806 10.9927C17.6739 11.3861 18.3116 11.3861 18.705 10.9927C19.0983 10.5994 19.0983 9.96164 18.705 9.5683C18.711 9.57433 18.7106 9.5736 18.7055 9.56414C18.6897 9.5354 18.6301 9.42632 18.5726 9.18181C18.5049 8.89405 18.4658 8.52842 18.4658 8.14387C18.4658 7.75931 18.5049 7.39369 18.5726 7.10593C18.6301 6.86141 18.6897 6.75235 18.7054 6.72362C18.7106 6.71413 18.711 6.7134 18.705 6.71944C19.0983 6.32609 19.0983 5.68839 18.7049 5.29506C18.3116 4.90173 17.6739 4.90171 17.2806 5.29501C17.2866 5.28897 17.2859 5.28937 17.2764 5.29455C17.2477 5.31026 17.1386 5.36986 16.8941 5.4274C16.6063 5.4951 16.2407 5.53416 15.8561 5.53416C15.4716 5.53416 15.1059 5.4951 14.8182 5.4274C14.5737 5.36986 14.4646 5.31026 14.4359 5.29456C14.4264 5.28937 14.4257 5.28897 14.4317 5.29501C14.0384 4.90166 13.4006 4.90166 13.0073 5.29501C12.6139 5.68835 12.6139 6.32609 13.0073 6.71944C13.3877 7.09987 13.9253 7.28676 14.3568 7.38829C14.5838 7.44169 14.8237 7.48095 15.0683 7.50725L12.295 10.2806C11.9017 10.6739 11.9017 11.3116 12.295 11.705C12.6884 12.0983 13.3261 12.0983 13.7194 11.705L16.4927 8.93168C16.519 9.17625 16.5583 9.41624 16.6117 9.64319C16.7132 10.0747 16.9001 10.6123 17.2806 10.9927ZM6.71944 13.0073C6.32609 12.6139 5.68835 12.6139 5.29501 13.0073C4.90166 13.4006 4.90166 14.0384 5.29501 14.4317C5.28898 14.4257 5.28937 14.4264 5.29455 14.4359C5.31025 14.4646 5.36986 14.5737 5.42739 14.8182C5.4951 15.1059 5.53416 15.4716 5.53416 15.8561C5.53416 16.2407 5.4951 16.6063 5.42739 16.8941C5.36986 17.1386 5.31026 17.2476 5.29456 17.2764C5.28937 17.2859 5.28897 17.2866 5.29501 17.2806C4.90171 17.6739 4.90173 18.3116 5.29506 18.7049C5.68839 19.0983 6.32609 19.0983 6.71944 18.705C6.7134 18.711 6.71413 18.7106 6.72361 18.7054C6.75235 18.6897 6.86141 18.6301 7.10593 18.5726C7.39368 18.5049 7.75931 18.4658 8.14387 18.4658C8.52842 18.4658 8.89405 18.5049 9.18181 18.5726C9.42632 18.6301 9.53538 18.6897 9.56411 18.7054C9.5736 18.7106 9.57433 18.711 9.5683 18.705C9.96164 19.0983 10.5994 19.0983 10.9927 18.705C11.3861 18.3116 11.3861 17.6739 10.9927 17.2806C10.6123 16.9001 10.0747 16.7132 9.64319 16.6117C9.41624 16.5583 9.17625 16.519 8.93168 16.4927L11.705 13.7194C12.0983 13.3261 12.0983 12.6884 11.705 12.295C11.3116 11.9017 10.6739 11.9017 10.2806 12.295L7.50725 15.0683C7.48095 14.8237 7.44169 14.5838 7.38829 14.3568C7.28676 13.9253 7.09987 13.3877 6.71944 13.0073Z"/>
</svg>
