<svg viewBox="0 0 24 24" xmlns="http://www.w3.org/2000/svg">
<path d="M10.9492 14.6543C11.2216 14.6543 11.4542 14.759 11.6465 14.9717C11.8387 15.1752 11.9354 15.4533 11.9355 15.8047C11.9355 16.1379 11.8388 16.4175 11.6465 16.6396C11.4542 16.8523 11.2215 16.957 10.9492 16.957C10.6768 16.957 10.4433 16.8524 10.251 16.6396C10.0587 16.4175 9.96289 16.1379 9.96289 15.8047C9.96305 15.4534 10.0589 15.1752 10.251 14.9717C10.4433 14.7588 10.6768 14.6543 10.9492 14.6543Z"/>
<path d="M18.5156 8.51367H15.1904L15.0215 10.7627H15.7627C16.5287 10.7627 17.1443 10.8933 17.6084 11.1523C18.0799 11.4023 18.423 11.7545 18.6367 12.208C18.8577 12.6523 18.9687 13.1625 18.9688 13.7363C18.9686 14.3007 18.8576 14.8191 18.6367 15.291C18.4157 15.7632 18.076 16.1436 17.6191 16.4307C17.1699 16.7173 16.5992 16.8603 15.9072 16.8604C15.3621 16.8604 14.8277 16.7627 14.3047 16.5684C13.789 16.3647 13.3537 16.0871 13 15.7354L13.6084 14.332C13.8882 14.6189 14.2264 14.8515 14.624 15.0273C15.0293 15.2032 15.451 15.291 15.8857 15.291C16.3933 15.2908 16.791 15.1567 17.0781 14.8887C17.3726 14.6202 17.5195 14.2582 17.5195 13.8047C17.5194 13.4994 17.4572 13.2303 17.332 12.999C17.2141 12.768 17.0004 12.5919 16.6914 12.4717C16.3893 12.3514 15.9717 12.291 15.4414 12.291H13.5742L13.9717 7H18.5156V8.51367Z"/>
<path d="M8.34277 16.7188H6.7793V8.5127H5V7H8.34277V16.7188Z"/>
</svg>
