<svg viewBox="0 0 32 32" xmlns="http://www.w3.org/2000/svg">
    <path d="M8 6.333c-0.914 0-1.667 0.752-1.667 1.667v16c0 0.914 0.752 1.667 1.667 1.667h16c0.914 0 1.667-0.752 1.667-1.667v-16c0-0.914-0.752-1.667-1.667-1.667h-16zM4.333 8c0-2.019 1.648-3.667 3.667-3.667h16c2.019 0 3.667 1.648 3.667 3.667v16c0 2.019-1.648 3.667-3.667 3.667h-16c-2.019 0-3.667-1.648-3.667-3.667v-16z"></path>
    <path d="M17 10.667c0-0.552-0.448-1-1-1s-1 0.448-1 1v4.333h-4.333c-0.552 0-1 0.448-1 1s0.448 1 1 1h4.333v4.333c0 0.552 0.448 1 1 1s1-0.448 1-1v-4.333h4.333c0.552 0 1-0.448 1-1s-0.448-1-1-1h-4.333v-4.333z"></path>
</svg>
