<svg id="plyr-download" viewBox="0 0 24 24" xmlns="http://www.w3.org/2000/svg">
    <path d="M12.0854 17.9964C12.2746 17.9804 12.4489 17.9117 12.5933 17.805C12.6036 17.7975 12.6138 17.7897 12.6238 17.7817L12.6379 17.7703C12.7191 17.7032 12.7878 17.6246 12.8429 17.5383C12.8662 17.5018 12.8873 17.4637 12.9058 17.4242C13.012 17.2099 13.0994 17.0079 13.1875 16.8042C13.3676 16.388 13.5506 15.9648 13.9037 15.4155C14.3917 14.6565 15.169 13.7556 16.5548 12.8318C17.0143 12.5255 17.1385 11.9046 16.8321 11.4451C16.5258 10.9856 15.9049 10.8614 15.4454 11.1677C14.3802 11.8779 13.5944 12.5979 13 13.2904L13 3C13 2.44772 12.5523 2 12 2C11.4477 2 11 2.44772 11 3L11 13.2902C10.4057 12.5978 9.6199 11.8778 8.55481 11.1677C8.09528 10.8614 7.47441 10.9856 7.16806 11.4451C6.8617 11.9046 6.98588 12.5255 7.44541 12.8318C8.83111 13.7556 9.60851 14.6565 10.0964 15.4155C10.4495 15.9648 10.6326 16.388 10.8126 16.8042C10.9 17.0062 10.9866 17.2065 11.0916 17.4188C11.1232 17.4872 11.1623 17.5514 11.2078 17.6104C11.2513 17.6669 11.3011 17.7191 11.357 17.7659C11.5149 17.8986 11.7143 17.9833 11.9331 17.9978"/>
    <path d="M12.0001 18C12.0285 18 12.057 17.9988 12.0854 17.9964L12.0001 18Z"/>
    <path fill-rule="evenodd" clip-rule="evenodd"
          d="M5 17C5.55228 17 6 17.4477 6 18C6 18.34 6.11022 18.8722 6.41153 19.2907C6.67614 19.6582 7.12592 20 8 20C8.08633 20 8.1701 20.0109 8.25 20.0315C8.32991 20.0109 8.41367 20 8.5 20H15.5C15.5863 20 15.6701 20.0109 15.75 20.0315C15.8299 20.0109 15.9137 20 16 20C16.8741 20 17.3239 19.6582 17.5885 19.2907C17.8898 18.8722 18 18.34 18 18C18 17.4477 18.4477 17 19 17C19.5523 17 20 17.4477 20 18C20 18.66 19.8102 19.6278 19.2115 20.4593C18.5761 21.3418 17.5259 22 16 22C15.9137 22 15.8299 21.9891 15.75 21.9685C15.6701 21.9891 15.5863 22 15.5 22H8.5C8.41367 22 8.32991 21.9891 8.25 21.9685C8.1701 21.9891 8.08633 22 8 22C6.47408 22 5.42386 21.3418 4.78847 20.4593C4.18978 19.6278 4 18.66 4 18C4 17.4477 4.44772 17 5 17Z"/>
    20.5523 16 20C16 19.4477 15.5523 19 15 19H9Z" />
</svg>
