<svg id="plyr-pip" viewBox="0 0 24 24" xmlns="http://www.w3.org/2000/svg">
    <path fill-rule="evenodd" clip-rule="evenodd"
          d="M11 2C11.5523 2 12 2.44772 12 3C12 3.55228 11.5523 4 11 4H5C4.44771 4 4 4.44772 4 5V19C4 19.5523 4.44772 20 5 20H19C19.5523 20 20 19.5523 20 19V13C20 12.4477 20.4477 12 21 12C21.5523 12 22 12.4477 22 13V19C22 20.6569 20.6569 22 19 22H5C3.34315 22 2 20.6569 2 19V5C2 3.34315 3.34315 2 5 2H11ZM20.705 8.99273C20.3116 9.38607 19.6739 9.38607 19.2806 8.99273C18.9001 8.6123 18.7132 8.07469 18.6117 7.64319C18.5583 7.41624 18.519 7.17625 18.4927 6.93168L15.7194 9.70499C15.3261 10.0983 14.6884 10.0983 14.295 9.70499C13.9017 9.31165 13.9017 8.67391 14.295 8.28056L17.0683 5.50725C16.8237 5.48095 16.5838 5.44169 16.3568 5.38829C15.9253 5.28676 15.3877 5.09987 15.0073 4.71944C14.6139 4.32609 14.6139 3.68835 15.0073 3.29501C15.4006 2.90166 16.0384 2.90166 16.4317 3.29501C16.4257 3.28897 16.4264 3.28937 16.4359 3.29456C16.4646 3.31026 16.5737 3.36986 16.8182 3.4274C17.1059 3.4951 17.4716 3.53416 17.8561 3.53416C18.2407 3.53416 18.6063 3.4951 18.8941 3.4274C19.1386 3.36986 19.2477 3.31026 19.2764 3.29455C19.2859 3.28937 19.2866 3.28897 19.2806 3.29501C19.6739 2.90171 20.3116 2.90173 20.7049 3.29506C21.0983 3.68839 21.0983 4.32609 20.705 4.71944C20.711 4.7134 20.7106 4.71413 20.7054 4.72362C20.6897 4.75235 20.6301 4.86141 20.5726 5.10593C20.5049 5.39369 20.4658 5.75931 20.4658 6.14387C20.4658 6.52842 20.5049 6.89405 20.5726 7.18181C20.6301 7.42632 20.6898 7.5354 20.7055 7.56414C20.7106 7.5736 20.711 7.57433 20.705 7.5683C21.0983 7.96164 21.0983 8.59938 20.705 8.99273Z"/>
</svg>
