<svg viewBox="0 0 24 24" xmlns="http://www.w3.org/2000/svg">
    <path d="M19 4H5C4.44771 4 4 4.44772 4 5V19C4 19.5523 4.44772 20 5 20H6C6.55228 20 7 20.4477 7 21C7 21.5523 6.55228 22 6 22H5C3.34315 22 2 20.6569 2 19V5C2 3.34315 3.34315 2 5 2H19C20.6569 2 22 3.34315 22 5V19C22 20.6569 20.6569 22 19 22H18C17.4477 22 17 21.5523 17 21C17 20.4477 17.4477 20 18 20H19C19.5523 20 20 19.5523 20 19V5C20 4.44771 19.5523 4 19 4Z"/>
    <path d="M15.0455 22H8.95451C8.206 22 7.74967 21.2713 8.14638 20.7094L11.1919 16.3964C11.5651 15.8679 12.4349 15.8679 12.8081 16.3964L15.8536 20.7094C16.2503 21.2713 15.794 22 15.0455 22Z"/>
</svg>
