<svg id="plyr-restart" viewBox="0 0 24 24" xmlns="http://www.w3.org/2000/svg">
    <path fill-rule="evenodd" clip-rule="evenodd"
          d="M12.4777 20.5223C8.39738 20.5223 5.03054 17.4676 4.53932 13.5204C4.47112 12.9723 4.02996 12.5223 3.47768 12.5223C2.92539 12.5223 2.47243 12.9713 2.52691 13.5209C3.02799 18.5749 7.29185 22.5223 12.4777 22.5223C18.0005 22.5223 22.4777 18.0452 22.4777 12.5223C22.4778 12.5047 22.4777 12.487 22.4777 12.4693C22.4777 7.63284 19.1289 3.63494 14.2003 2.65221L14.2832 2.0995C14.337 1.74065 14.0026 1.44506 13.6508 1.54062L9.91864 2.55458C9.49991 2.66834 9.41105 3.22006 9.77308 3.45833L13.0314 5.60282C13.3394 5.80554 13.7548 5.6214 13.8093 5.25794L13.9018 4.64187C17.8887 5.47743 20.458 8.68844 20.458 12.4693C20.458 14.727 19.5227 16.7673 18.0166 18.2276C17.9386 18.3032 17.8722 18.3879 17.8184 18.4787C16.4022 19.7494 14.5302 20.5223 12.4777 20.5223Z"/>
</svg>
