<svg id="portal" viewBox="0 0 24 24" xmlns="http://www.w3.org/2000/svg">
    <path fill-rule="evenodd" clip-rule="evenodd" d="M12 2C17.5228 2 22 6.47715 22 12C22 17.5228 17.5228 22 12 22C6.47715 22 2 17.5228 2 12C2 6.47715 6.47715 2 12 2ZM9 19.416C9.92666 19.7912 10.9388 20 12 20C12.4458 20 12.8827 19.9617 13.3086 19.8916L9 16.3008V19.416ZM15.5596 19.1641C16.6047 18.6438 17.5195 17.9024 18.2432 17H12.9629L15.5596 19.1641ZM4.83496 15.5596C5.35516 16.6047 6.09769 17.5185 7 18.2422V12.9619L4.83496 15.5596ZM12 9C10.3431 9 9 10.3431 9 12C9 13.6569 10.3431 15 12 15C13.6569 15 15 13.6569 15 12C15 10.3431 13.6569 9 12 9ZM16.3018 15H19.416C19.7912 14.0733 20 13.0612 20 12C20 11.5539 19.9618 11.1166 19.8916 10.6904L16.3018 15ZM4.58398 9C4.20875 9.92666 4 10.9388 4 12C4 12.4457 4.03734 12.8827 4.10742 13.3086L7.69824 9H4.58398ZM17 11.0371L19.1641 8.43945C18.6438 7.39467 17.9022 6.48031 17 5.75684V11.0371ZM12 4C11.554 4 11.1166 4.03724 10.6904 4.10742L15 7.69824V4.58301C14.0734 4.20786 13.0611 4 12 4ZM8.43945 4.83496C7.3945 5.35523 6.4804 6.0977 5.75684 7H11.0371L8.43945 4.83496Z" />
</svg>
