<svg viewBox="0 0 24 24" xmlns="http://www.w3.org/2000/svg">
    <path fill-rule="evenodd" clip-rule="evenodd"
          d="M13 9.5C13 11.433 11.433 13 9.5 13C7.567 13 6 11.433 6 9.5C6 7.567 7.567 6 9.5 6C11.433 6 13 7.567 13 9.5ZM11 9.5C11 10.3284 10.3284 11 9.5 11C8.67157 11 8 10.3284 8 9.5C8 8.67157 8.67157 8 9.5 8C10.3284 8 11 8.67157 11 9.5Z"/>
    <path fill-rule="evenodd" clip-rule="evenodd"
          d="M2 6C2 3.79086 3.79086 2 6 2H18C20.2091 2 22 3.79086 22 6V18C22 20.2091 20.2091 22 18 22H6C3.79086 22 2 20.2091 2 18V6ZM6 4H18C19.1046 4 20 4.89543 20 6V14.5857L18.4143 13C17.6332 12.219 16.3669 12.219 15.5859 13L12.0001 16.5858L10.4143 15C9.63324 14.219 8.36691 14.219 7.58586 15L4.06776 18.5181C4.02356 18.3529 4 18.1792 4 18V6C4 4.89543 4.89543 4 6 4ZM17.0001 14.4142L20 17.4141V18C20 19.1046 19.1046 20 18 20H15.4143L13.4143 18L17.0001 14.4142ZM5.48202 19.9323C5.64723 19.9764 5.82086 20 6 20H12.5859L9.00008 16.4142L5.48202 19.9323Z"/>
</svg>
