<svg viewBox="0 0 24 24" xmlns="http://www.w3.org/2000/svg">
    <path fill-rule="evenodd" clip-rule="evenodd"
          d="M9.00002 15.0657C9.00002 16.2638 10.3352 16.9783 11.3321 16.3138L15.9307 13.248C16.8213 12.6543 16.8213 11.3456 15.9307 10.7519L11.3321 7.68616C10.3352 7.0216 9.00002 7.73619 9.00002 8.93423L9.00002 15.0657ZM14.1972 12L11 14.1315V9.86849L14.1972 12Z"/>
    <path fill-rule="evenodd" clip-rule="evenodd"
          d="M6 2C3.79086 2 2 3.79086 2 6V18C2 20.2091 3.79086 22 6 22H18C20.2091 22 22 20.2091 22 18V6C22 3.79086 20.2091 2 18 2H6ZM18 4H6C4.89543 4 4 4.89543 4 6V18C4 19.1046 4.89543 20 6 20H18C19.1046 20 20 19.1046 20 18V6C20 4.89543 19.1046 4 18 4Z"/>
</svg>
