<svg viewBox="0 0 24 24" xmlns="http://www.w3.org/2000/svg">
    <path fill-rule="evenodd" clip-rule="evenodd"
          d="M9 13.1707C8.68722 13.0602 8.35064 13 8 13C6.34315 13 5 14.3431 5 16C5 17.6569 6.34315 19 8 19C9.65685 19 11 17.6569 11 16V16V7.86731L16 7.15302L16 12.1707C15.6872 12.0602 15.3506 12 15 12C13.3431 12 12 13.3431 12 15C12 16.6569 13.3431 18 15 18C16.6568 18 18 16.6569 18 15V15V7.15302C18 5.93593 16.922 5.001 15.7172 5.17313L10.7172 5.88741C9.73186 6.02817 9 6.87201 9 7.86731V13.1707ZM9 16C8.99999 16.5523 8.55228 17 8 17C7.44772 17 7 16.5523 7 16C7 15.4477 7.44772 15 8 15C8.55228 15 9 15.4477 9 16V16ZM16 15V15C16 14.4477 15.5523 14 15 14C14.4477 14 14 14.4477 14 15C14 15.5523 14.4477 16 15 16C15.5523 16 16 15.5523 16 15Z"/>
    <path fill-rule="evenodd" clip-rule="evenodd"
          d="M2 6C2 3.79086 3.79086 2 6 2H18C20.2091 2 22 3.79086 22 6V18C22 20.2091 20.2091 22 18 22H6C3.79086 22 2 20.2091 2 18V6ZM6 4H18C19.1046 4 20 4.89543 20 6V18C20 19.1046 19.1046 20 18 20H6C4.89543 20 4 19.1046 4 18V6C4 4.89543 4.89543 4 6 4Z"/>
</svg>
