<svg viewBox="0 0 24 24" xmlns="http://www.w3.org/2000/svg">
<path d="M5 6C5 5.44772 5.44772 5 6 5C6.55228 5 7 5.44772 7 6C7 6.55228 6.55228 7 6 7C5.44772 7 5 6.55228 5 6Z"/>
<path d="M9 5C8.44772 5 8 5.44772 8 6C8 6.55228 8.44772 7 9 7C9.55228 7 10 6.55228 10 6C10 5.44772 9.55228 5 9 5Z"/>
<path d="M11 6C11 5.44772 11.4477 5 12 5C12.5523 5 13 5.44772 13 6C13 6.55228 12.5523 7 12 7C11.4477 7 11 6.55228 11 6Z"/>
<path fill-rule="evenodd" clip-rule="evenodd" d="M2 6C2 3.79086 3.79086 2 6 2H18C20.2091 2 22 3.79086 22 6V18C22 20.2091 20.2091 22 18 22H6C3.79086 22 2 20.2091 2 18V6ZM6 4H18C19.1046 4 20 4.89543 20 6V8H4V6C4 4.89543 4.89543 4 6 4ZM4 10V18C4 19.1046 4.89543 20 6 20H18C19.1046 20 20 19.1046 20 18V10H4Z"/>
</svg>
