<svg viewBox="0 0 24 24" xmlns="http://www.w3.org/2000/svg">
<path fill-rule="evenodd" clip-rule="evenodd" d="M20.0769 19C19.5671 19 19.1538 18.589 19.1538 18.082V17.1639C19.1538 15.73 18.0572 14.6393 16.6154 14.6393H13.8462C12.4044 14.6393 11.3077 15.73 11.3077 17.1639V18.082C11.3077 18.589 10.8944 19 10.3846 19C9.87481 19 9.46154 18.589 9.46154 18.082V17.1639C9.46154 14.716 11.3848 12.8033 13.8462 12.8033H16.6154C19.0768 12.8033 21 14.716 21 17.1639V18.082C21 18.589 20.5867 19 20.0769 19ZM10.1538 13.7213C10.1538 14.2283 9.74057 14.6393 9.23077 14.6393H7.38462C5.94284 14.6393 4.84615 15.73 4.84615 17.1639V18.082C4.84615 18.589 4.43288 19 3.92308 19C3.41328 19 3 18.589 3 18.082V17.1639C3 14.716 4.92323 12.8033 7.38462 12.8033H9.23077C9.74057 12.8033 10.1538 13.2143 10.1538 13.7213ZM5.30769 8.90164C5.30769 7.25384 6.65084 5.91803 8.30769 5.91803C9.96455 5.91803 11.3077 7.25384 11.3077 8.90164C11.3077 10.5494 9.96455 11.8852 8.30769 11.8852C6.65084 11.8852 5.30769 10.5494 5.30769 8.90164ZM11.7692 8.44262C11.7692 6.54131 13.319 5 15.2308 5C17.1425 5 18.6923 6.54131 18.6923 8.44262C18.6923 10.3439 17.1425 11.8852 15.2308 11.8852C13.319 11.8852 11.7692 10.3439 11.7692 8.44262ZM13.6154 8.44262C13.6154 7.55535 14.3386 6.83607 15.2308 6.83607C16.1229 6.83607 16.8462 7.55535 16.8462 8.44262C16.8462 9.3299 16.1229 10.0492 15.2308 10.0492C14.3386 10.0492 13.6154 9.3299 13.6154 8.44262ZM7.15385 8.90164C7.15385 8.26787 7.67044 7.7541 8.30769 7.7541C8.94494 7.7541 9.46154 8.26787 9.46154 8.90164C9.46154 9.53541 8.94494 10.0492 8.30769 10.0492C7.67044 10.0492 7.15385 9.53541 7.15385 8.90164Z"/>
</svg>
