<svg width="25" height="24" viewBox="0 0 25 24" xmlns="http://www.w3.org/2000/svg">
<path fill-rule="evenodd" clip-rule="evenodd" d="M20.4768 19C19.967 19 19.5537 18.589 19.5537 18.082V17.1639C19.5537 15.73 18.4571 14.6393 17.0153 14.6393H14.2461C12.8043 14.6393 11.7076 15.73 11.7076 17.1639V18.082C11.7076 18.589 11.2943 19 10.7845 19C10.2747 19 9.86144 18.589 9.86144 18.082V17.1639C9.86144 14.716 11.7847 12.8033 14.2461 12.8033H17.0153C19.4767 12.8033 21.3999 14.716 21.3999 17.1639V18.082C21.3999 18.589 20.9866 19 20.4768 19ZM10.5537 13.7213C10.5537 14.2283 10.1405 14.6393 9.63067 14.6393H7.78452C6.34274 14.6393 5.24606 15.73 5.24606 17.1639V18.082C5.24606 18.589 4.83278 19 4.32298 19C3.81318 19 3.3999 18.589 3.3999 18.082V17.1639C3.3999 14.716 5.32313 12.8033 7.78452 12.8033H9.63067C10.1405 12.8033 10.5537 13.2143 10.5537 13.7213ZM5.70759 8.90164C5.70759 7.25384 7.05074 5.91803 8.70759 5.91803C10.3644 5.91803 11.7076 7.25384 11.7076 8.90164C11.7076 10.5494 10.3644 11.8852 8.70759 11.8852C7.05074 11.8852 5.70759 10.5494 5.70759 8.90164ZM12.1691 8.44262C12.1691 6.54131 13.7189 5 15.6307 5C17.5424 5 19.0922 6.54131 19.0922 8.44262C19.0922 10.3439 17.5424 11.8852 15.6307 11.8852C13.7189 11.8852 12.1691 10.3439 12.1691 8.44262ZM14.0153 8.44262C14.0153 7.55535 14.7385 6.83607 15.6307 6.83607C16.5228 6.83607 17.2461 7.55535 17.2461 8.44262C17.2461 9.3299 16.5228 10.0492 15.6307 10.0492C14.7385 10.0492 14.0153 9.3299 14.0153 8.44262ZM7.55375 8.90164C7.55375 8.26787 8.07034 7.7541 8.70759 7.7541C9.34485 7.7541 9.86144 8.26787 9.86144 8.90164C9.86144 9.53541 9.34485 10.0492 8.70759 10.0492C8.07034 10.0492 7.55375 9.53541 7.55375 8.90164Z"/>
</svg>
