<svg viewBox="0 0 24 24" xmlns="http://www.w3.org/2000/svg">
<path d="M11.3749 12L10.3749 16L14.4225 11.2778C15.0285 10.5708 14.759 9.55958 14.0381 9.16581C13.8979 9.08923 13.7406 9.036 13.5694 9.01291C13.5064 9.00442 13.4415 9 13.3749 9L14.3749 5L10.3272 9.72223C9.72126 10.4292 9.9907 11.4404 10.7116 11.8342C10.8518 11.9108 11.0091 11.964 11.1803 11.9871C11.2433 11.9956 11.3082 12 11.3749 12Z"/>
<path fill-rule="evenodd" clip-rule="evenodd" d="M5.375 2C3.71815 2 2.375 3.38946 2.375 5.10345V15.4483C2.375 17.1623 3.71815 18.5517 5.375 18.5517H7.875C8.81927 18.5517 9.70844 19.0116 10.275 19.7931L11.575 21.5862C11.975 22.1379 12.775 22.1379 13.175 21.5862L14.475 19.7931C15.0416 19.0116 15.9307 18.5517 16.875 18.5517H19.375C21.0319 18.5517 22.375 17.1623 22.375 15.4483V5.10345C22.375 3.38946 21.0319 2 19.375 2H5.375ZM19.375 4.06897H5.375C4.82272 4.06897 4.375 4.53212 4.375 5.10345V15.4483C4.375 16.0196 4.82272 16.4828 5.375 16.4828H7.875C9.44879 16.4828 10.9307 17.2493 11.875 18.5517L12.375 19.2414L12.875 18.5517C13.8193 17.2493 15.3012 16.4828 16.875 16.4828H19.375C19.9273 16.4828 20.375 16.0196 20.375 15.4483V5.10345C20.375 4.53212 19.9273 4.06897 19.375 4.06897Z"/>
</svg>
