<svg viewBox="0 0 24 24" xmlns="http://www.w3.org/2000/svg">
<path d="M3 16C3.55228 16 4 16.4477 4 17V19C4 19.5523 4.44772 20 5 20H7C7.55228 20 8 20.4477 8 21C8 21.5523 7.55228 22 7 22H5C3.34315 22 2 20.6569 2 19V17C2 16.4477 2.44772 16 3 16Z" />
<path d="M21 16C21.5523 16 22 16.4477 22 17V19C22 20.6569 20.6569 22 19 22H17C16.4477 22 16 21.5523 16 21C16 20.4477 16.4477 20 17 20H19C19.5523 20 20 19.5523 20 19V17C20 16.4477 20.4477 16 21 16Z" />
<path d="M7 2C7.55228 2 8 2.44772 8 3C8 3.55228 7.55228 4 7 4H5C4.44772 4 4 4.44772 4 5V7C4 7.55228 3.55228 8 3 8C2.44772 8 2 7.55228 2 7V5C2 3.34315 3.34315 2 5 2H7Z" />
<path d="M19 2C20.6569 2 22 3.34315 22 5V7C22 7.55228 21.5523 8 21 8C20.4477 8 20 7.55228 20 7V5C20 4.44772 19.5523 4 19 4H17C16.4477 4 16 3.55228 16 3C16 2.44772 16.4477 2 17 2H19Z" />
<path d="M15 12C15 13.6569 13.6569 15 12 15C10.3431 15 9 13.6569 9 12C9 10.3431 10.3431 9 12 9C13.6569 9 15 10.3431 15 12Z" />
</svg>
