<svg width="24" height="24" viewBox="0 0 24 24" fill="none" xmlns="http://www.w3.org/2000/svg">
<path d="M18 19C18 19.5523 17.5523 20 17 20H9.5C5.91015 20 3 17.0899 3 13.5C3 9.91015 5.91015 7 9.5 7H16.8939C16.7406 6.80984 16.5997 6.6138 16.4779 6.41698C16.2462 6.04278 16 5.53415 16 5C16 4.44771 16.4477 4 17 4C17.5523 4 18 4.44771 18 5C18 4.99152 18.0002 4.99232 18.0033 5.00262C18.0124 5.03382 18.0471 5.15222 18.1784 5.36427C18.3329 5.61382 18.5621 5.89792 18.8321 6.16789C19.1021 6.43786 19.3862 6.66713 19.6357 6.82161C19.8478 6.95288 19.9662 6.9876 19.9974 6.99675C20.0077 6.99976 20.0085 7 20 7C20.5523 7 21 7.44771 21 8C21 8.55229 20.5523 9 20 9C20.0085 9 20.0077 9.00023 19.9974 9.00325C19.9662 9.0124 19.8478 9.04712 19.6357 9.17839C19.3862 9.33287 19.1021 9.56214 18.8321 9.83211C18.5621 10.1021 18.3329 10.3862 18.1784 10.6357C18.0471 10.8478 18.0124 10.9662 18.0033 10.9974C18.0002 11.0077 18 11.0085 18 11C18 11.5523 17.5523 12 17 12C16.4477 12 16 11.5523 16 11C16 10.4658 16.2462 9.95722 16.4779 9.58302C16.5997 9.3862 16.7406 9.19016 16.8939 9H9.5C7.01472 9 5 11.0147 5 13.5C5 15.9853 7.01472 18 9.5 18H17C17.5523 18 18 18.4477 18 19Z" fill="currentColor"/>
</svg>
