<svg viewBox="0 0 24 24" xmlns="http://www.w3.org/2000/svg">
    <path d="M4.1194 10.5759C4.95496 6.589 8.16598 4.01965 11.9468 4.01965C14.2045 4.01965 16.2449 4.95497 17.7051 6.46106C18.0822 6.85002 18.6859 6.95039 19.129 6.63949C19.5972 6.3109 19.7043 5.65367 19.316 5.23287C17.4808 3.24442 14.8584 2 11.9468 2C7.11038 2 3.11248 5.34873 2.12975 10.2774L1.57704 10.1945C1.21818 10.1407 0.922597 10.4751 1.01816 10.8269L2.03211 14.559C2.14587 14.9778 2.69759 15.0666 2.93587 14.7046L5.08035 11.4463C5.28308 11.1382 5.09893 10.7229 4.73548 10.6683L4.1194 10.5759Z" />
    <path d="M19.8806 13.4241C19.045 17.411 15.834 19.9804 12.0532 19.9804C9.79546 19.9804 7.75512 19.045 6.29491 17.5389C5.91781 17.15 5.31406 17.0496 4.871 17.3605C4.40275 17.6891 4.29566 18.3463 4.68403 18.7671C6.51925 20.7556 9.1416 22 12.0532 22C16.8896 22 20.8875 18.6513 21.8703 13.7226L22.423 13.8055C22.7818 13.8593 23.0774 13.5249 22.9818 13.1731L21.9679 9.44097C21.8541 9.02223 21.3024 8.93337 21.0641 9.29541L18.9196 12.5537C18.7169 12.8618 18.9011 13.2771 19.2645 13.3317L19.8806 13.4241Z" />
</svg>
