<svg viewBox="0 0 24 24" xmlns="http://www.w3.org/2000/svg">
<path fill-rule="evenodd" clip-rule="evenodd" d="M15.0001 16C18.8661 16 22.0001 12.866 22.0001 9C22.0001 5.13401 18.8661 2 15.0001 2C11.1341 2 8.00012 5.13401 8.00012 9C8.00012 9.75639 8.12009 10.4848 8.34204 11.1671L3.68825 15.8209C2.51668 16.9925 2.51668 18.892 3.68825 20.0635C4.07419 20.4495 4.53912 20.7083 5.03101 20.84C5.19983 20.966 5.38486 21.0816 5.58724 21.1838C7.01291 21.9039 9.14721 21.8832 12.2116 20.4531C15.1932 19.0617 16.9879 18.6413 18.002 18.6375C18.5069 18.6357 18.7664 18.7374 18.8853 18.8206C18.9874 18.8921 19.0002 18.9566 19.0002 19C19.0002 19.2762 19.224 19.5 19.5002 19.5C19.7763 19.5 20.0002 19.2762 20.0002 19C20.0002 18.6268 19.8254 18.258 19.4588 18.0014C19.1089 17.7564 18.6184 17.6352 17.9983 17.6375C16.7624 17.6421 14.8071 18.1384 11.7887 19.5469C9.7256 20.5097 8.23209 20.7445 7.1681 20.6179C7.44306 20.4782 7.70099 20.2934 7.93089 20.0635L12.4669 15.5276C13.2524 15.8326 14.1067 16 15.0001 16ZM15.5106 13.9743C17.8644 13.7356 19.7357 11.8643 19.9744 9.5105H18.9679C18.7384 11.3114 17.3115 12.7383 15.5106 12.9677V13.9743ZM14.5106 13.9763V12.9703C12.6998 12.7494 11.2627 11.3184 11.0324 9.5105H10.0259C10.2653 11.8713 12.147 13.7467 14.5106 13.9763ZM12.0434 9.5105C12.2585 10.7653 13.2529 11.7539 14.5106 11.9603V9.5105H12.0434ZM15.5106 9.5105V11.9567C16.7584 11.7428 17.743 10.7583 17.9569 9.5105H15.5106ZM17.9604 8.5105H15.5106V6.04326C16.7654 6.25837 17.754 7.25278 17.9604 8.5105ZM18.9705 8.5105H19.9765C19.7468 6.14686 17.8714 4.26514 15.5106 4.02574V5.03227C17.3185 5.26257 18.7495 6.69969 18.9705 8.5105ZM14.5106 8.5105H12.0399C12.2474 7.24577 13.2459 6.24729 14.5106 6.03974V8.5105ZM11.0298 8.5105H10.0238C10.2541 6.13986 12.14 4.254 14.5106 4.02366V5.02965C12.6928 5.25145 11.2516 6.69269 11.0298 8.5105ZM9.17517 13.1624L5.10246 17.2351C4.71194 17.6256 4.71194 18.2588 5.10246 18.6493C5.49299 19.0399 6.12615 19.0399 6.51668 18.6493L10.5894 14.5766L9.17517 13.1624Z"/>
</svg>
