<svg viewBox="0 0 24 24" xmlns="http://www.w3.org/2000/svg">
    <path fill-rule="evenodd" clip-rule="evenodd"
          d="M10.5 1C9.11929 1 8 2.11929 8 3.5C8 3.67123 8.01722 3.83844 8.05001 4H5C3.34315 4 2 5.34315 2 7V19C2 20.6569 3.34315 22 5 22H19C20.6569 22 22 20.6569 22 19V7C22 5.34315 20.6569 4 19 4H15.95C15.9828 3.83844 16 3.67123 16 3.5C16 2.11929 14.8807 1 13.5 1H10.5ZM13.5 4C13.7761 4 14 3.77614 14 3.5C14 3.22386 13.7761 3 13.5 3H10.5C10.2239 3 10 3.22386 10 3.5C10 3.77614 10.2239 4 10.5 4H13.5ZM5 6C4.44772 6 4 6.44772 4 7V19C4 19.5523 4.44772 20 5 20H19C19.5523 20 20 19.5523 20 19V7C20 6.44771 19.5523 6 19 6H5ZM9 10C9 8.34315 10.3431 7 12 7C13.6569 7 15 8.34315 15 10C15 11.6569 13.6569 13 12 13C10.3431 13 9 11.6569 9 10ZM12 9C11.4477 9 11 9.44771 11 10C11 10.5523 11.4477 11 12 11C12.5523 11 13 10.5523 13 10C13 9.44771 12.5523 9 12 9ZM11 13.4C8.74771 13.4 7 15.1477 7 17.4C7 17.9523 7.44772 18.4 8 18.4C8.55228 18.4 9 17.9523 9 17.4C9 16.2523 9.85228 15.4 11 15.4H13C14.1477 15.4 15 16.2523 15 17.4C15 17.9523 15.4477 18.4 16 18.4C16.5523 18.4 17 17.9523 17 17.4C17 15.1477 15.2523 13.4 13 13.4H11Z"/>
</svg>
