<svg viewBox="0 0 32 32" xmlns="http://www.w3.org/2000/svg">
    <path d="M19.944 12.005c0.418-0.418 1.096-0.417 1.512 0.003 0.414 0.417 0.413 1.091-0.003 1.507l-7.781 7.781-3.514-3.514c-0.416-0.416-0.416-1.090 0-1.505s1.088-0.416 1.504-0.001l2.010 2.002 6.272-6.272z"></path>
    <path d="M5.333 16c0-5.888 4.779-10.667 10.667-10.667s10.667 4.779 10.667 10.667c0 5.888-4.779 10.667-10.667 10.667s-10.667-4.779-10.667-10.667zM7.467 16c0 4.715 3.819 8.533 8.533 8.533s8.533-3.819 8.533-8.533c0-4.715-3.819-8.533-8.533-8.533s-8.533 3.819-8.533 8.533z"></path>
</svg>
