<svg viewBox="0 0 24 24" xmlns="http://www.w3.org/2000/svg">
    <path fill-rule="evenodd" clip-rule="evenodd"
          d="M20 12C20 16.4183 16.4183 20 12 20C7.58172 20 4 16.4183 4 12C4 7.58172 7.58172 4 12 4C16.4183 4 20 7.58172 20 12ZM22 12C22 17.5228 17.5228 22 12 22C6.47715 22 2 17.5228 2 12C2 6.47715 6.47715 2 12 2C17.5228 2 22 6.47715 22 12ZM12 9C12.5523 9 13 8.55229 13 8C13 7.44771 12.5523 7 12 7C11.4477 7 11 7.44771 11 8C11 8.55229 11.4477 9 12 9ZM13 11V16L13.5 16C13.7761 16 14 16.2239 14 16.5C14 16.7761 13.7761 17 13.5 17L12 17C11.4477 17 11 16.5523 11 16L11 11L10.5 11C10.2239 11 10 10.7761 10 10.5C10 10.2239 10.2239 10 10.5 10L12 10C12.5523 10 13 10.4477 13 11Z"/>
</svg>
