<svg viewBox="0 0 24 24" xmlns="http://www.w3.org/2000/svg">
    <path fill-rule="evenodd" clip-rule="evenodd"
          d="M6 6C6 6.55228 5.55228 7 5 7C4.44772 7 4 6.55228 4 6C4 5.44772 4.44772 5 5 5C5.55228 5 6 5.44772 6 6ZM5 9C6.30622 9 7.41746 8.16519 7.82929 7H17C17.5523 7 18 7.44771 18 8V10C18 10.5523 17.5523 11 17 11L7 11C5.34315 11 4 12.3431 4 14V16C4 17.6569 5.34315 19 7 19L11.7955 19C11.8698 19.0171 11.9471 19.0263 12.0265 19.0267L17.809 18.9995C17.6533 19.189 17.5102 19.3844 17.3866 19.5806C17.1517 19.9538 16.9024 20.4613 16.9049 20.9954C16.9075 21.5477 17.3671 21.9975 17.9314 22C18.4958 22.0025 18.9512 21.5569 18.9486 21.0046C18.9486 21.013 18.9489 21.0122 18.9519 21.002C18.9611 20.9708 18.996 20.8526 19.1292 20.6411C19.2859 20.3923 19.5188 20.1092 19.7934 19.8405C20.068 19.5718 20.3572 19.3438 20.6115 19.1904C20.8276 19.0601 20.9484 19.026 20.9802 19.017C20.9908 19.014 20.9916 19.0138 20.9829 19.0137C21.5472 19.0162 22.0026 18.5706 22 18.0183C21.9974 17.466 21.5379 17.0163 20.9736 17.0137C20.9822 17.0138 20.9814 17.0135 20.9709 17.0105C20.939 17.0012 20.8178 16.9659 20.6005 16.8337C20.3448 16.6781 20.0534 16.4475 19.7763 16.1763C19.4992 15.9051 19.2636 15.6199 19.1045 15.3697C18.9694 15.157 18.9334 15.0385 18.9239 15.0072C18.9208 14.9969 18.9205 14.9961 18.9205 15.0046C18.918 14.4523 18.4584 14.0025 17.894 14C17.3297 13.9975 16.8743 14.4431 16.8769 14.9954C16.8794 15.5296 17.1334 16.0393 17.3718 16.4146C17.4972 16.612 17.6421 16.8087 17.7996 16.9995L17 17.0033V17L7 17C6.44771 17 6 16.5523 6 16L6 14C6 13.4477 6.44772 13 7 13L17 13C18.6569 13 20 11.6569 20 10V8C20 6.34315 18.6569 5 17 5H7.82929C7.41746 3.83481 6.30622 3 5 3C3.34315 3 2 4.34315 2 6C2 7.65685 3.34315 9 5 9Z"/>
</svg>
