<svg viewBox="0 0 24 24" xmlns="http://www.w3.org/2000/svg">
<path fill-rule="evenodd" clip-rule="evenodd" d="M17 2H5C3.34315 2 2 3.34315 2 5V19C2 20.6569 3.34315 22 5 22H19C20.6569 22 22 20.6569 22 19V8C22 6.34315 18.6569 2 17 2ZM17.8293 20H19C19.5523 20 20 19.5523 20 19V8C20 8.03561 19.9999 8.03536 19.9879 7.99686C19.9642 7.92066 19.8937 7.69459 19.6846 7.30015C19.4146 6.79064 19.0197 6.19847 18.5646 5.63436C18.3765 5.40108 18.1863 5.18291 18 4.9849L18 5V7C18 8.65685 16.6569 10 15 10H9C7.34315 10 6 8.65685 6 7V5C6 4.64936 6.06015 4.31278 6.17071 4H5C4.44772 4 4 4.44772 4 5V19C4 19.5523 4.44772 20 5 20H6.17071C6.06015 19.6872 6 19.3506 6 19V15C6 13.3431 7.34315 12 9 12H15C16.6569 12 18 13.3431 18 15V19C18 19.3506 17.9398 19.6872 17.8293 20ZM9 20H15C15.5523 20 16 19.5523 16 19V15C16 14.4477 15.5523 14 15 14H9C8.44772 14 8 14.4477 8 15V19C8 19.5523 8.44772 20 9 20ZM15 4H9C8.44772 4 8 4.44772 8 5V7C8 7.55228 8.44772 8 9 8H15C15.5523 8 16 7.55228 16 7V5C16 4.44772 15.5523 4 15 4Z"/>
</svg>
