<svg xmlns="http://www.w3.org/2000/svg" viewBox="0 0 24 24">
    <path fill-rule="evenodd" clip-rule="evenodd" d="M2 5C2 3.34315 3.34315 2 5 2H17C17.9443 2 18.8334 2.44458 19.4 3.2L21.4 5.86667C21.7895 6.38595 22 7.01756 22 7.66667V19C22 20.6569 20.6569 22 19 22H5C3.34315 22 2 20.6569 2 19V5ZM5 4C4.44772 4 4 4.44772 4 5V19C4 19.5523 4.44772 20 5 20V13C5 11.3431 6.34315 10 8 10H16C17.6569 10 19 11.3431 19 13V20C19.5523 20 20 19.5523 20 19V7.66667C20 7.4503 19.9298 7.23976 19.8 7.06667L18 4.66667V6C18 7.65685 16.6569 9 15 9H8C6.34315 9 5 7.65685 5 6V4ZM7 4V6C7 6.55228 7.44772 7 8 7H15C15.5523 7 16 6.55228 16 6V4H7ZM17 20H7V13C7 12.4477 7.44772 12 8 12H16C16.5523 12 17 12.4477 17 13V20Z"/>
</svg>