<svg xmlns="http://www.w3.org/2000/svg" viewBox="0 0 24 24">
    <path fill-rule="evenodd" clip-rule="evenodd" d="M5 4C4.44772 4 4 4.44772 4 5V19C4 19.5523 4.44772 20 5 20V13C5 11.3431 6.34315 10 8 10H14C14.5523 10 15 10.4477 15 11C15 11.5523 14.5523 12 14 12H8C7.44772 12 7 12.4477 7 13V20H8C8.55228 20 9 20.4477 9 21C9 21.5523 8.55228 22 8 22H5C3.34315 22 2 20.6569 2 19V5C2 3.34315 3.34315 2 5 2H17C17.9443 2 18.8334 2.44458 19.4 3.2L21.4 5.86667C21.7895 6.38596 22 7.01756 22 7.66667V8C22 8.55228 21.5523 9 21 9C20.4477 9 20 8.55228 20 8V7.66667C20 7.4503 19.9298 7.23976 19.8 7.06667L18 4.66667V6C18 7.65685 16.6569 9 15 9H8C6.34315 9 5 7.65685 5 6V4ZM7 6C7 6.55228 7.44772 7 8 7H15C15.5523 7 16 6.55228 16 6V4H7V6Z" />
    <path fill-rule="evenodd" clip-rule="evenodd" d="M18.0858 10.5C18.8668 9.71892 20.1332 9.71892 20.9142 10.5L21.5 11.0858C22.281 11.8668 22.281 13.1331 21.5 13.9142L14 21.4142C13.6249 21.7893 13.1162 22 12.5858 22H10V19.4142C10 18.8838 10.2107 18.375 10.5858 18L18.0858 10.5ZM19.5 11.9142L12 19.4142V20H12.5858L20.0858 12.5L19.5 11.9142Z" />
    <path d="M22 18C22 17.4477 21.5523 17 21 17C20.4477 17 20 17.4477 20 18V19C20 19.5523 19.5523 20 19 20H18C17.4477 20 17 20.4477 17 21C17 21.5523 17.4477 22 18 22H19C20.6569 22 22 20.6569 22 19V18Z" />
</svg>