<svg viewBox="0 0 56 56" xmlns="http://www.w3.org/2000/svg">
<path d="M34.0925 31.4494C34.0212 31.0007 34.1622 30.5437 34.4652 30.2288L36.6398 27.9683C38.027 26.5263 37.2173 24.1142 35.2434 23.8084L32.3631 23.3622C31.9527 23.2986 31.5889 23.0231 31.3993 22.6135L30.2348 20.0974C29.3521 18.19 26.6502 18.1897 25.767 20.0968L24.6019 22.6128C24.4122 23.0229 24.0476 23.2986 23.6387 23.3622L20.7569 23.8086C18.7831 24.1143 17.9733 26.5265 19.3605 27.9684L21.535 30.2288C21.8379 30.5436 21.9798 31.0012 21.9074 31.4508L21.4233 34.4613C21.0953 36.5015 23.2584 38.021 25.0563 37.0132L27.4086 35.6947C27.7791 35.4869 28.2209 35.487 28.591 35.6946L30.9438 37.0137C32.7417 38.0216 34.905 36.5022 34.5769 34.4619L34.0925 31.4494Z"/>
<path fill-rule="evenodd" clip-rule="evenodd" d="M44.6166 11.9498L39.3837 6.71692C38.071 5.40417 36.2905 4.66667 34.434 4.66667H16.3335C12.4675 4.66667 9.3335 7.80068 9.3335 11.6667V44.3333C9.3335 48.1993 12.4675 51.3333 16.3335 51.3333H39.6668C43.5328 51.3333 46.6668 48.1993 46.6668 44.3333V16.8995C46.6668 15.043 45.9293 13.2625 44.6166 11.9498ZM42.0002 44.3333C42.0002 45.622 40.9555 46.6667 39.6668 46.6667H16.3335C15.0448 46.6667 14.0002 45.622 14.0002 44.3333V11.6667C14.0002 10.378 15.0448 9.33334 16.3335 9.33334H32.6668V14C32.6668 16.5773 34.7562 18.6667 37.3335 18.6667H42.0002V44.3333ZM37.3335 14V11.2663L40.0672 14H37.3335Z"/>
</svg>
