<svg viewBox="0 0 24 24" xmlns="http://www.w3.org/2000/svg">
    <path d="M3 16C3.55228 16 4 16.4477 4 17V19C4 19.5523 4.44772 20 5 20H7C7.55228 20 8 20.4477 8 21C8 21.5523 7.55228 22 7 22H5C3.34315 22 2 20.6569 2 19V17C2 16.4477 2.44772 16 3 16Z" />
    <path d="M21 16C21.5523 16 22 16.4477 22 17V19C22 20.6569 20.6569 22 19 22H17C16.4477 22 16 21.5523 16 21C16 20.4477 16.4477 20 17 20H19C19.5523 20 20 19.5523 20 19V17C20 16.4477 20.4477 16 21 16Z" />
    <path d="M12 10C13.1046 10 14 10.8954 14 12C14 13.1046 13.1046 14 12 14C10.8954 14 10 13.1046 10 12C10 10.8954 10.8954 10 12 10Z" />
    <path fill-rule="evenodd" clip-rule="evenodd" d="M14.0801 5.00684C15.0655 5.07629 15.9484 5.66049 16.3945 6.55273L16.5527 6.86914C16.5927 6.94904 16.6744 6.9999 16.7637 7C17.9986 7 19 8.00138 19 9.23633V15C19 16.6569 17.6569 18 16 18H8C6.34315 18 5 16.6569 5 15V9.23633C5 8.00138 6.00138 7 7.23633 7C7.32564 6.9999 7.40732 6.94904 7.44727 6.86914L7.60547 6.55273C8.08129 5.60108 9.05419 5 10.1182 5H13.8818L14.0801 5.00684ZM10.1182 7C9.81173 7 9.53157 7.17318 9.39453 7.44727L9.23633 7.76367C8.85759 8.52114 8.08319 8.9999 7.23633 9C7.10595 9 7 9.10595 7 9.23633V15C7 15.5523 7.44772 16 8 16H16C16.5523 16 17 15.5523 17 15V9.23633C17 9.10595 16.894 9 16.7637 9C15.9168 8.9999 15.1424 8.52114 14.7637 7.76367L14.6055 7.44727C14.4855 7.20735 14.256 7.04461 13.9951 7.00781L13.8818 7H10.1182Z" />
    <path d="M7 2C7.55228 2 8 2.44772 8 3C8 3.55228 7.55228 4 7 4H5C4.44772 4 4 4.44772 4 5V7C4 7.55228 3.55228 8 3 8C2.44772 8 2 7.55228 2 7V5C2 3.34315 3.34315 2 5 2H7Z" />
    <path d="M19 2C20.6569 2 22 3.34315 22 5V7C22 7.55228 21.5523 8 21 8C20.4477 8 20 7.55228 20 7V5C20 4.44772 19.5523 4 19 4H17C16.4477 4 16 3.55228 16 3C16 2.44772 16.4477 2 17 2H19Z" />
</svg>
