<svg viewBox="0 0 24 24" fill="none" xmlns="http://www.w3.org/2000/svg">
<path d="M3 16C3.55228 16 4 16.4477 4 17V19C4 19.5523 4.44772 20 5 20H7C7.55228 20 8 20.4477 8 21C8 21.5523 7.55228 22 7 22H5C3.34315 22 2 20.6569 2 19V17C2 16.4477 2.44772 16 3 16Z" fill="#454E68"/>
<path d="M21 16C21.5523 16 22 16.4477 22 17V19C22 20.6569 20.6569 22 19 22H17C16.4477 22 16 21.5523 16 21C16 20.4477 16.4477 20 17 20H19C19.5523 20 20 19.5523 20 19V17C20 16.4477 20.4477 16 21 16Z" fill="#454E68"/>
<path d="M7 2C7.55228 2 8 2.44772 8 3C8 3.55228 7.55228 4 7 4H5C4.44772 4 4 4.44772 4 5V7C4 7.55228 3.55228 8 3 8C2.44772 8 2 7.55228 2 7V5C2 3.34315 3.34315 2 5 2H7Z" fill="#454E68"/>
<path d="M19 2C20.6569 2 22 3.34315 22 5V7C22 7.55228 21.5523 8 21 8C20.4477 8 20 7.55228 20 7V5C20 4.44772 19.5523 4 19 4H17C16.4477 4 16 3.55228 16 3C16 2.44772 16.4477 2 17 2H19Z" fill="#454E68"/>
<path d="M13.7001 9.40041C14.0314 8.95864 14.6577 8.86899 15.0995 9.20022C15.5413 9.53155 15.6309 10.1578 15.2997 10.5996L13.0585 13.5889C12.2839 14.6213 10.7481 14.6606 9.92178 13.669L8.23135 11.6406L8.16982 11.5586C7.88636 11.1385 7.9616 10.5629 8.35928 10.2315C8.75704 9.9 9.33696 9.92959 9.69912 10.2842L9.76845 10.3594L11.4589 12.3887L13.7001 9.40041Z" fill="#24A850"/>
</svg>
