<svg viewBox="0 0 24 24" fill="none" xmlns="http://www.w3.org/2000/svg">
<path d="M3 16C3.55228 16 4 16.4477 4 17V19C4 19.5523 4.44772 20 5 20H7C7.55228 20 8 20.4477 8 21C8 21.5523 7.55228 22 7 22H5C3.34315 22 2 20.6569 2 19V17C2 16.4477 2.44772 16 3 16Z" fill="#454E68"/>
<path d="M21 16C21.5523 16 22 16.4477 22 17V19C22 20.6569 20.6569 22 19 22H17C16.4477 22 16 21.5523 16 21C16 20.4477 16.4477 20 17 20H19C19.5523 20 20 19.5523 20 19V17C20 16.4477 20.4477 16 21 16Z" fill="#454E68"/>
<path d="M7 2C7.55228 2 8 2.44772 8 3C8 3.55228 7.55228 4 7 4H5C4.44772 4 4 4.44772 4 5V7C4 7.55228 3.55228 8 3 8C2.44772 8 2 7.55228 2 7V5C2 3.34315 3.34315 2 5 2H7Z" fill="#454E68"/>
<path d="M19 2C20.6569 2 22 3.34315 22 5V7C22 7.55228 21.5523 8 21 8C20.4477 8 20 7.55228 20 7V5C20 4.44772 19.5523 4 19 4H17C16.4477 4 16 3.55228 16 3C16 2.44772 16.4477 2 17 2H19Z" fill="#454E68"/>
<path d="M13.2929 9.29305C13.6834 8.90257 14.3164 8.90254 14.707 9.29305C15.0974 9.68357 15.0974 10.3166 14.707 10.7071L13.414 12.0001L14.707 13.2931C15.0973 13.6836 15.0974 14.3166 14.707 14.7071C14.3165 15.0976 13.6834 15.0975 13.2929 14.7071L11.9999 13.4141L10.707 14.7071C10.3165 15.0976 9.68343 15.0975 9.29289 14.7071C8.90237 14.3166 8.90237 13.6836 9.29289 13.2931L10.5859 12.0001L9.29289 10.7071C8.90237 10.3166 8.90237 9.68358 9.29289 9.29305C9.68342 8.90257 10.3164 8.90254 10.707 9.29305L11.9999 10.586L13.2929 9.29305Z" fill="#E54F4C"/>
</svg>
