<svg width="25" height="24" viewBox="0 0 25 24" xmlns="http://www.w3.org/2000/svg">
<path d="M21.2464 11.9147C21.2304 11.7255 21.1617 11.5513 21.055 11.4069C21.0475 11.3965 21.0397 11.3864 21.0317 11.3763L21.0203 11.3623C20.9532 11.2811 20.8746 11.2123 20.7883 11.1573C20.7518 11.1339 20.7137 11.1129 20.6742 11.0944C20.4599 10.9881 20.2579 10.9008 20.0542 10.8127C19.638 10.6326 19.2148 10.4496 18.6655 10.0964C17.9065 9.60853 17.0056 8.83113 16.0818 7.44543C15.7755 6.9859 15.1546 6.86172 14.6951 7.16808C14.2356 7.47443 14.1114 8.0953 14.4177 8.55483C15.1279 9.62002 15.848 10.4058 16.5404 11.0002L4.25 11.0002C3.69772 11.0002 3.25 11.4479 3.25 12.0002C3.25 12.5525 3.69772 13.0002 4.25 13.0002L16.5402 13.0002C15.8478 13.5945 15.1278 14.3803 14.4177 15.4454C14.1114 15.9049 14.2356 16.5258 14.6951 16.8321C15.1546 17.1385 15.7755 17.0143 16.0818 16.5548C17.0056 15.1691 17.9065 14.3917 18.6655 13.9038C19.2148 13.5506 19.638 13.3676 20.0542 13.1876C20.2562 13.1002 20.4565 13.0135 20.6688 12.9085C20.7372 12.8769 20.8014 12.8379 20.8604 12.7923C20.9169 12.7489 20.9691 12.699 21.0159 12.6432C21.1486 12.4853 21.2333 12.2858 21.2478 12.0671"/>
<path d="M21.25 12.0001C21.25 11.9717 21.2488 11.9432 21.2464 11.9147L21.25 12.0001Z"/>
</svg>
