<svg viewBox="0 0 12 12" xmlns="http://www.w3.org/2000/svg">
    <path d="M7.6859 2.48276C7.40023 2.18281 6.9255 2.17123 6.62555 2.4569C6.3256 2.74256 6.31402 3.21729 6.59969 3.51724L8.24986 5.24992H2C1.58579 5.24992 1.25 5.5857 1.25 5.99992C1.25 6.41413 1.58579 6.74992 2 6.74992H8.25002L6.59969 8.48276C6.31402 8.78271 6.3256 9.25744 6.62555 9.5431C6.9255 9.82877 7.40023 9.81719 7.6859 9.51724L10.54 6.52045C10.5949 6.46354 10.6391 6.39995 10.6725 6.3323C10.6755 6.32633 10.6783 6.32033 10.6811 6.3143C10.7253 6.21868 10.75 6.11218 10.75 5.99992C10.75 5.79489 10.6677 5.60907 10.5344 5.47369L7.6859 2.48276Z"/>
</svg>
