<svg viewBox="0 0 24 24" xmlns="http://www.w3.org/2000/svg">
    <path fill-rule="evenodd" clip-rule="evenodd"
          d="M11.9995 2C11.3003 2 10.6297 2.27776 10.1353 2.77217C9.64091 3.26659 9.36315 3.93716 9.36315 4.63636V4.77277C9.36263 4.84057 9.34242 4.90677 9.30497 4.96332C9.28534 4.99296 9.26143 5.01927 9.23415 5.04148C9.18006 5.05517 9.12706 5.0734 9.07575 5.09605C9.01177 5.12428 8.9408 5.13271 8.87198 5.12023C8.80439 5.10797 8.74193 5.0761 8.69236 5.02863L8.64883 4.9851C8.40398 4.73998 8.11322 4.54553 7.79317 4.41286C7.47312 4.28018 7.13006 4.21189 6.7836 4.21189C6.43714 4.21189 6.09408 4.28018 5.77403 4.41286C5.45415 4.54546 5.16353 4.73978 4.91877 4.98471C4.67383 5.22948 4.47952 5.5201 4.34691 5.83998C4.21424 6.16002 4.14595 6.50309 4.14595 6.84955C4.14595 7.196 4.21424 7.53907 4.34691 7.85912C4.47959 8.17916 4.67404 8.46993 4.91916 8.71477L4.96269 8.7583C5.01016 8.80787 5.04203 8.87033 5.05429 8.93793C5.06676 9.00674 5.05834 9.07771 5.0301 9.14169C5.0216 9.16096 5.0137 9.1805 5.00643 9.20027C4.98219 9.26619 4.93868 9.32328 4.88155 9.36414C4.82657 9.40346 4.76143 9.42599 4.69401 9.42909H4.63588C3.93667 9.42909 3.2661 9.70685 2.77168 10.2013C2.27727 10.6957 1.99951 11.3662 1.99951 12.0655C1.99951 12.7647 2.27727 13.4352 2.77168 13.9296C3.2661 14.4241 3.93667 14.7018 4.63588 14.7018H4.7724C4.84016 14.7024 4.90632 14.7226 4.96283 14.76C5.01974 14.7977 5.06434 14.8512 5.09123 14.914L5.09556 14.9238C5.12379 14.9877 5.13222 15.0587 5.11974 15.1275C5.10749 15.1951 5.07562 15.2576 5.02815 15.3071L4.98423 15.3511C4.73929 15.5958 4.54497 15.8865 4.41237 16.2063C4.2797 16.5264 4.21141 16.8694 4.21141 17.2159C4.21141 17.5624 4.2797 17.9054 4.41237 18.2255C4.5449 18.5452 4.73908 18.8357 4.98383 19.0804C5.22868 19.3255 5.51944 19.5199 5.83949 19.6526C6.15954 19.7853 6.5026 19.8536 6.84906 19.8536C7.19552 19.8536 7.53858 19.7853 7.85863 19.6526C8.17851 19.52 8.46952 19.3253 8.71428 19.0804L8.75781 19.0368C8.80738 18.9894 8.86984 18.9575 8.93744 18.9452C9.00625 18.9327 9.07722 18.9412 9.1412 18.9694C9.16047 18.9779 9.18001 18.9858 9.19979 18.9931C9.2657 19.0173 9.32279 19.0608 9.36365 19.118C9.40298 19.1729 9.42551 19.2381 9.4286 19.3055V19.3636C9.4286 20.0628 9.70636 20.7334 10.2008 21.2278C10.6797 21.7068 11.324 21.9824 11.9995 21.9992C12.675 21.9824 13.3193 21.7068 13.7982 21.2278C14.2927 20.7334 14.5704 20.0628 14.5704 19.3636V19.3055C14.5735 19.2381 14.596 19.1729 14.6354 19.118C14.6762 19.0608 14.7333 19.0173 14.7992 18.9931C14.819 18.9858 14.8385 18.9779 14.8578 18.9694C14.9218 18.9412 14.9928 18.9327 15.0616 18.9452C15.1292 18.9575 15.1916 18.9894 15.2412 19.0368L15.2847 19.0804C15.5295 19.3253 15.8205 19.52 16.1404 19.6526C16.4604 19.7853 16.8035 19.8536 17.15 19.8536C17.4964 19.8536 17.8395 19.7853 18.1595 19.6526C18.4796 19.5199 18.7703 19.3255 19.0152 19.0804C19.2599 18.8357 19.4541 18.5452 19.5867 18.2255C19.7193 17.9054 19.7876 17.5624 19.7876 17.2159C19.7876 16.8694 19.7193 16.5264 19.5867 16.2063C19.4541 15.8865 19.2597 15.5958 19.0148 15.3511L18.9709 15.3071C18.9234 15.2576 18.8915 15.1951 18.8793 15.1275C18.8668 15.0587 18.8752 14.9877 18.9035 14.9238L18.9078 14.914C18.9347 14.8512 18.9793 14.7977 19.0362 14.76C19.0927 14.7226 19.1589 14.7024 19.2266 14.7018H19.3631C20.0624 14.7018 20.7329 14.4241 21.2273 13.9296C21.7218 13.4352 21.9995 12.7647 21.9995 12.0655C21.9995 11.3662 21.7218 10.6957 21.2273 10.2013C20.7329 9.70685 20.0624 9.42909 19.3631 9.42909H19.305C19.2376 9.42599 19.1725 9.40346 19.1175 9.36414C19.0603 9.32328 19.0168 9.26619 18.9926 9.20027C18.9853 9.1805 18.9774 9.16096 18.9689 9.14169C18.9407 9.07771 18.9323 9.00674 18.9447 8.93793C18.957 8.87033 18.9889 8.80787 19.0363 8.7583L19.0799 8.71477C19.325 8.46993 19.5194 8.17916 19.6521 7.85912C19.7848 7.53907 19.8531 7.196 19.8531 6.84955C19.8531 6.50309 19.7848 6.16002 19.6521 5.83998C19.5195 5.5201 19.3252 5.22948 19.0803 4.98471C18.8355 4.73978 18.5449 4.54546 18.225 4.41286C17.9049 4.28018 17.5619 4.21189 17.2154 4.21189C16.869 4.21189 16.5259 4.28018 16.2059 4.41286C15.8858 4.54553 15.595 4.73998 15.3502 4.9851L15.3067 5.02863C15.2571 5.0761 15.1946 5.10797 15.127 5.12023C15.0582 5.13271 14.9873 5.12428 14.9233 5.09605C14.872 5.0734 14.819 5.05517 14.7649 5.04148C14.7376 5.01927 14.7137 4.99296 14.6941 4.96332C14.6566 4.90677 14.6364 4.84057 14.6359 4.77277V4.63636C14.6359 3.93716 14.3581 3.26659 13.8637 2.77217C13.3693 2.27776 12.6987 2 11.9995 2ZM12.384 19.8136C12.2802 19.9174 12.1442 19.9817 11.9995 19.9966C11.8548 19.9817 11.7188 19.9174 11.615 19.8136C11.4956 19.6943 11.4286 19.5324 11.4286 19.3636V19.29L11.4283 19.2666C11.4173 18.7952 11.2647 18.338 10.9904 17.9545C10.7222 17.5795 10.3498 17.2919 9.91972 17.1271C9.49776 16.9476 9.03226 16.8954 8.58062 16.9773C8.1186 17.0611 7.69223 17.2813 7.35657 17.6096L7.29928 17.6669C7.24019 17.7261 7.17 17.773 7.09275 17.8051C7.01549 17.8371 6.93268 17.8536 6.84906 17.8536C6.76543 17.8536 6.68262 17.8371 6.60537 17.8051C6.52811 17.773 6.45793 17.7261 6.39883 17.6669L6.39804 17.6661C6.33888 17.607 6.29194 17.5369 6.25991 17.4596C6.22789 17.3823 6.21141 17.2995 6.21141 17.2159C6.21141 17.1323 6.22789 17.0495 6.25991 16.9722C6.29194 16.895 6.33927 16.8244 6.39843 16.7653L6.44757 16.7162L6.45528 16.7084C6.78362 16.3727 7.00388 15.9464 7.08765 15.4843C7.1711 15.0241 7.1153 14.5495 6.92746 14.1212C6.7467 13.702 6.44776 13.3446 6.06713 13.0925C5.68502 12.8395 5.23726 12.7036 4.77895 12.7018H4.63588C4.4671 12.7018 4.30524 12.6348 4.1859 12.5154C4.06656 12.3961 3.99951 12.2342 3.99951 12.0655C3.99951 11.8967 4.06656 11.7348 4.1859 11.6155C4.30524 11.4961 4.4671 11.4291 4.63588 11.4291H4.70951L4.7329 11.4288C5.20431 11.4178 5.66151 11.2652 6.04505 10.9909C6.42002 10.7227 6.70763 10.3503 6.87239 9.92022C7.05189 9.49826 7.10409 9.03276 7.0222 8.58111C6.93843 8.11909 6.71821 7.69272 6.38987 7.35706L6.33259 7.29977C6.27342 7.24067 6.22648 7.17049 6.19446 7.09323C6.16244 7.01598 6.14595 6.93317 6.14595 6.84955C6.14595 6.76592 6.16244 6.68311 6.19446 6.60586C6.22648 6.5286 6.27342 6.45842 6.33259 6.39932L6.33338 6.39853C6.39248 6.33937 6.46266 6.29243 6.53991 6.2604C6.61717 6.22838 6.69998 6.21189 6.7836 6.21189C6.86723 6.21189 6.95004 6.22838 7.02729 6.2604C7.10455 6.29243 7.17512 6.33976 7.23422 6.39892L7.28327 6.44806L7.29116 6.45577C7.62682 6.78411 8.05315 7.00437 8.51517 7.08814C8.91025 7.15978 9.31594 7.1288 9.69381 6.99977C9.77795 6.98711 9.86032 6.96373 9.9389 6.93005C10.3601 6.74951 10.7194 6.44973 10.9725 6.06762C11.2255 5.68551 11.3613 5.23775 11.3631 4.77944V4.63636C11.3631 4.46759 11.4302 4.30573 11.5495 4.18639C11.6689 4.06705 11.8307 4 11.9995 4C12.1683 4 12.3301 4.06705 12.4495 4.18639C12.5688 4.30573 12.6359 4.46759 12.6359 4.63636V4.77944C12.6377 5.23775 12.7735 5.68551 13.0266 6.06762C13.2796 6.44973 13.6389 6.74951 14.0601 6.93005C14.1387 6.96373 14.2211 6.98711 14.3052 6.99977C14.6831 7.1288 15.0888 7.15978 15.4839 7.08814C15.9459 7.00437 16.3722 6.78411 16.7079 6.45577L16.7158 6.44806L16.7648 6.39892C16.8239 6.33976 16.8945 6.29243 16.9717 6.2604C17.049 6.22838 17.1318 6.21189 17.2154 6.21189C17.299 6.21189 17.3819 6.22838 17.4591 6.2604C17.5364 6.29243 17.6065 6.33937 17.6656 6.39853L17.6664 6.39932C17.7256 6.45842 17.7725 6.5286 17.8046 6.60586C17.8366 6.68311 17.8531 6.76592 17.8531 6.84955C17.8531 6.93317 17.8366 7.01598 17.8046 7.09323C17.7725 7.17049 17.7256 7.24067 17.6664 7.29977L17.6092 7.35706C17.2808 7.69272 17.0606 8.11909 16.9768 8.58111C16.8949 9.03276 16.9471 9.49826 17.1266 9.92022C17.2914 10.3503 17.579 10.7227 17.954 10.9909C18.3375 11.2652 18.7947 11.4178 19.2661 11.4288L19.2895 11.4291H19.3631C19.5319 11.4291 19.6938 11.4961 19.8131 11.6155C19.9325 11.7348 19.9995 11.8967 19.9995 12.0655C19.9995 12.2342 19.9325 12.3961 19.8131 12.5154C19.6938 12.6348 19.5319 12.7018 19.3631 12.7018H19.2201C18.7618 12.7036 18.314 12.8395 17.9319 13.0925C17.5513 13.3446 17.2523 13.702 17.0716 14.1212C16.8837 14.5495 16.8279 15.0241 16.9114 15.4843C16.9951 15.9464 17.2154 16.3727 17.5437 16.7084L17.5515 16.7162L17.6006 16.7653C17.6598 16.8244 17.7071 16.895 17.7391 16.9722C17.7711 17.0495 17.7876 17.1323 17.7876 17.2159C17.7876 17.2995 17.7711 17.3823 17.7391 17.4596C17.7071 17.5369 17.6601 17.607 17.601 17.6661L17.6002 17.6669C17.5411 17.7261 17.4709 17.773 17.3937 17.8051C17.3164 17.8371 17.2336 17.8536 17.15 17.8536C17.0663 17.8536 16.9835 17.8371 16.9063 17.8051C16.829 17.773 16.7588 17.7261 16.6997 17.6669L16.6425 17.6096C16.3068 17.2813 15.8804 17.0611 15.4184 16.9773C14.9668 16.8954 14.5013 16.9476 14.0793 17.1271C13.6492 17.2919 13.2768 17.5795 13.0086 17.9545C12.7343 18.338 12.5817 18.7952 12.5707 19.2666L12.5704 19.29V19.3636C12.5704 19.5324 12.5034 19.6943 12.384 19.8136ZM10.9995 12C10.9995 11.4477 11.4472 11 11.9995 11C12.5518 11 12.9995 11.4477 12.9995 12C12.9995 12.5523 12.5518 13 11.9995 13C11.4472 13 10.9995 12.5523 10.9995 12ZM11.9995 9C10.3427 9 8.99951 10.3431 8.99951 12C8.99951 13.6569 10.3427 15 11.9995 15C13.6564 15 14.9995 13.6569 14.9995 12C14.9995 10.3431 13.6564 9 11.9995 9Z"/>
</svg>
