<svg viewBox="0 0 24 24" xmlns="http://www.w3.org/2000/svg">
    <path fill-rule="evenodd" clip-rule="evenodd" d="M12 2C11.3008 2 10.6302 2.27776 10.1358 2.77217C9.6414 3.26659 9.36364 3.93716 9.36364 4.63636V4.77277C9.36311 4.84057 9.34291 4.90677 9.30546 4.96332C9.28583 4.99296 9.26192 5.01927 9.23464 5.04148C9.18055 5.05517 9.12755 5.0734 9.07623 5.09605C9.01226 5.12428 8.94128 5.13271 8.87247 5.12023C8.80488 5.10797 8.74242 5.0761 8.69284 5.02863L8.64932 4.9851C8.40447 4.73998 8.11371 4.54553 7.79366 4.41286C7.47361 4.28018 7.13055 4.21189 6.78409 4.21189C6.43763 4.21189 6.09457 4.28018 5.77452 4.41286C5.45464 4.54546 5.16402 4.73978 4.91926 4.98471C4.67432 5.22948 4.48 5.5201 4.3474 5.83998C4.21473 6.16002 4.14644 6.50309 4.14644 6.84955C4.14644 7.196 4.21473 7.53907 4.3474 7.85912C4.48008 8.17916 4.67453 8.46993 4.91965 8.71477L4.96317 8.7583C5.01065 8.80787 5.04252 8.87033 5.05477 8.93793C5.06725 9.00674 5.05883 9.07771 5.03059 9.14169C5.02209 9.16096 5.01419 9.1805 5.00692 9.20027C4.98268 9.26619 4.93917 9.32328 4.88204 9.36414C4.82706 9.40346 4.76191 9.42599 4.6945 9.42909H4.63636C3.93716 9.42909 3.26659 9.70685 2.77217 10.2013C2.27776 10.6957 2 11.3662 2 12.0655C2 12.7647 2.27776 13.4352 2.77217 13.9296C3.26659 14.4241 3.93716 14.7018 4.63636 14.7018H4.77289C4.84065 14.7024 4.90681 14.7226 4.96332 14.76C5.02023 14.7977 5.06483 14.8512 5.09172 14.914L5.09605 14.9238C5.12428 14.9877 5.13271 15.0587 5.12023 15.1275C5.10797 15.1951 5.07611 15.2576 5.02864 15.3071L4.98471 15.3511C4.73978 15.5958 4.54546 15.8865 4.41286 16.2063C4.28018 16.5264 4.21189 16.8694 4.21189 17.2159C4.21189 17.5624 4.28018 17.9054 4.41286 18.2255C4.54539 18.5452 4.73957 18.8357 4.98432 19.0804C5.22917 19.3255 5.51993 19.5199 5.83998 19.6526C6.16002 19.7853 6.50309 19.8536 6.84955 19.8536C7.19601 19.8536 7.53907 19.7853 7.85912 19.6526C8.17899 19.52 8.47 19.3253 8.71477 19.0804L8.75829 19.0368C8.80787 18.9894 8.87033 18.9575 8.93793 18.9452C9.00674 18.9327 9.07771 18.9412 9.14169 18.9694C9.16096 18.9779 9.1805 18.9858 9.20027 18.9931C9.26619 19.0173 9.32328 19.0608 9.36414 19.118C9.40346 19.1729 9.42599 19.2381 9.42909 19.3055V19.3636C9.42909 20.0628 9.70685 20.7334 10.2013 21.2278C10.6802 21.7068 11.3245 21.9824 12 21.9992C12.6755 21.9824 13.3198 21.7068 13.7987 21.2278C14.2931 20.7334 14.5709 20.0628 14.5709 19.3636V19.3055C14.574 19.2381 14.5965 19.1729 14.6359 19.118C14.6767 19.0608 14.7338 19.0173 14.7997 18.9931C14.8195 18.9858 14.839 18.9779 14.8583 18.9694C14.9223 18.9412 14.9933 18.9327 15.0621 18.9452C15.1297 18.9575 15.1921 18.9894 15.2417 19.0368L15.2852 19.0804C15.53 19.3253 15.821 19.52 16.1409 19.6526C16.4609 19.7853 16.804 19.8536 17.1505 19.8536C17.4969 19.8536 17.84 19.7853 18.16 19.6526C18.4801 19.5199 18.7708 19.3255 19.0157 19.0804C19.2604 18.8357 19.4546 18.5452 19.5871 18.2255C19.7198 17.9054 19.7881 17.5624 19.7881 17.2159C19.7881 16.8694 19.7198 16.5264 19.5871 16.2063C19.4545 15.8865 19.2602 15.5958 19.0153 15.3511L18.9714 15.3071C18.9239 15.2576 18.892 15.1951 18.8798 15.1275C18.8673 15.0587 18.8757 14.9877 18.904 14.9238L18.9083 14.914C18.9352 14.8512 18.9798 14.7977 19.0367 14.76C19.0932 14.7226 19.1593 14.7024 19.2271 14.7018H19.3636C20.0628 14.7018 20.7334 14.4241 21.2278 13.9296C21.7222 13.4352 22 12.7647 22 12.0655C22 11.3662 21.7222 10.6957 21.2278 10.2013C20.7334 9.70685 20.0628 9.42909 19.3636 9.42909H19.3055C19.2381 9.42599 19.1729 9.40346 19.118 9.36414C19.0608 9.32328 19.0173 9.26619 18.9931 9.20027C18.9858 9.1805 18.9779 9.16096 18.9694 9.14169C18.9412 9.07771 18.9327 9.00674 18.9452 8.93793C18.9575 8.87033 18.9894 8.80787 19.0368 8.7583L19.0803 8.71477C19.3255 8.46993 19.5199 8.17916 19.6526 7.85912C19.7853 7.53907 19.8536 7.196 19.8536 6.84955C19.8536 6.50309 19.7853 6.16002 19.6526 5.83998C19.52 5.5201 19.3257 5.22948 19.0807 4.98471C18.836 4.73978 18.5454 4.54546 18.2255 4.41286C17.9054 4.28018 17.5624 4.21189 17.2159 4.21189C16.8694 4.21189 16.5264 4.28018 16.2063 4.41286C15.8863 4.54553 15.5955 4.73998 15.3507 4.9851L15.3072 5.02863C15.2576 5.0761 15.1951 5.10797 15.1275 5.12023C15.0587 5.13271 14.9877 5.12428 14.9238 5.09605C14.8724 5.0734 14.8195 5.05517 14.7654 5.04148C14.7381 5.01927 14.7142 4.99296 14.6945 4.96332C14.6571 4.90677 14.6369 4.84057 14.6364 4.77277V4.63636C14.6364 3.93716 14.3586 3.26659 13.8642 2.77217C13.3698 2.27776 12.6992 2 12 2ZM12.3845 19.8136C12.2807 19.9174 12.1447 19.9817 12 19.9966C11.8553 19.9817 11.7193 19.9174 11.6155 19.8136C11.4961 19.6943 11.4291 19.5324 11.4291 19.3636V19.29L11.4288 19.2666C11.4178 18.7952 11.2652 18.338 10.9909 17.9545C10.7227 17.5795 10.3503 17.2919 9.92021 17.1271C9.49825 16.9476 9.03275 16.8954 8.58111 16.9773C8.11909 17.0611 7.69272 17.2813 7.35706 17.6096L7.29977 17.6669C7.24067 17.7261 7.17049 17.773 7.09323 17.8051C7.01598 17.8371 6.93317 17.8536 6.84955 17.8536C6.76592 17.8536 6.68311 17.8371 6.60586 17.8051C6.5286 17.773 6.45842 17.7261 6.39932 17.6669L6.39853 17.6661C6.33937 17.607 6.29243 17.5369 6.2604 17.4596C6.22838 17.3823 6.21189 17.2995 6.21189 17.2159C6.21189 17.1323 6.22838 17.0495 6.2604 16.9722C6.29243 16.895 6.33976 16.8244 6.39892 16.7653L6.44806 16.7162L6.45577 16.7084C6.78411 16.3727 7.00437 15.9464 7.08814 15.4843C7.17159 15.0241 7.11579 14.5495 6.92794 14.1212C6.74718 13.702 6.44825 13.3446 6.06762 13.0925C5.68551 12.8395 5.23775 12.7036 4.77944 12.7018H4.63636C4.46759 12.7018 4.30573 12.6348 4.18639 12.5154C4.06705 12.3961 4 12.2342 4 12.0655C4 11.8967 4.06705 11.7348 4.18639 11.6155C4.30573 11.4961 4.46759 11.4291 4.63636 11.4291H4.71L4.73338 11.4288C5.2048 11.4178 5.662 11.2652 6.04554 10.9909C6.42051 10.7227 6.70812 10.3503 6.87288 9.92022C7.05237 9.49826 7.10458 9.03276 7.02269 8.58111C6.93892 8.11909 6.7187 7.69272 6.39036 7.35706L6.33308 7.29977C6.27391 7.24067 6.22697 7.17049 6.19495 7.09323C6.16292 7.01598 6.14644 6.93317 6.14644 6.84955C6.14644 6.76592 6.16292 6.68311 6.19495 6.60586C6.22697 6.5286 6.27391 6.45842 6.33308 6.39932L6.33386 6.39853C6.39296 6.33937 6.46315 6.29243 6.5404 6.2604C6.61765 6.22838 6.70046 6.21189 6.78409 6.21189C6.86772 6.21189 6.95053 6.22838 7.02778 6.2604C7.10503 6.29243 7.17561 6.33976 7.23471 6.39892L7.28376 6.44806L7.29164 6.45577C7.62731 6.78411 8.05364 7.00437 8.51565 7.08814C8.91074 7.15978 9.31643 7.1288 9.6943 6.99977C9.77843 6.98711 9.86081 6.96373 9.93939 6.93005C10.3606 6.74951 10.7199 6.44973 10.9729 6.06762C11.226 5.68551 11.3618 5.23775 11.3636 4.77944V4.63636C11.3636 4.46759 11.4307 4.30573 11.55 4.18639C11.6694 4.06705 11.8312 4 12 4C12.1688 4 12.3306 4.06705 12.45 4.18639C12.5693 4.30573 12.6364 4.46759 12.6364 4.63636V4.77944C12.6382 5.23775 12.774 5.68551 13.0271 6.06762C13.2801 6.44973 13.6394 6.74951 14.0606 6.93005C14.1392 6.96373 14.2216 6.98711 14.3057 6.99977C14.6836 7.1288 15.0893 7.15978 15.4843 7.08814C15.9464 7.00437 16.3727 6.78411 16.7084 6.45577L16.7162 6.44806L16.7653 6.39892C16.8244 6.33976 16.895 6.29243 16.9722 6.2604C17.0495 6.22838 17.1323 6.21189 17.2159 6.21189C17.2995 6.21189 17.3823 6.22838 17.4596 6.2604C17.5369 6.29243 17.607 6.33937 17.6661 6.39853L17.6669 6.39932C17.7261 6.45842 17.773 6.5286 17.8051 6.60586C17.8371 6.68311 17.8536 6.76592 17.8536 6.84955C17.8536 6.93317 17.8371 7.01598 17.8051 7.09323C17.773 7.17049 17.7261 7.24067 17.6669 7.29977L17.6096 7.35706C17.2813 7.69272 17.0611 8.11909 16.9773 8.58111C16.8954 9.03276 16.9476 9.49826 17.1271 9.92022C17.2919 10.3503 17.5795 10.7227 17.9545 10.9909C18.338 11.2652 18.7952 11.4178 19.2666 11.4288L19.29 11.4291H19.3636C19.5324 11.4291 19.6943 11.4961 19.8136 11.6155C19.933 11.7348 20 11.8967 20 12.0655C20 12.2342 19.933 12.3961 19.8136 12.5154C19.6943 12.6348 19.5324 12.7018 19.3636 12.7018H19.2206C18.7623 12.7036 18.3145 12.8395 17.9324 13.0925C17.5518 13.3446 17.2528 13.702 17.0721 14.1212C16.8842 14.5495 16.8284 15.0241 16.9119 15.4843C16.9956 15.9464 17.2159 16.3727 17.5442 16.7084L17.5519 16.7162L17.6011 16.7653C17.6602 16.8244 17.7076 16.895 17.7396 16.9722C17.7716 17.0495 17.7881 17.1323 17.7881 17.2159C17.7881 17.2995 17.7716 17.3823 17.7396 17.4596C17.7076 17.5369 17.6606 17.607 17.6015 17.6661L17.6007 17.6669C17.5416 17.7261 17.4714 17.773 17.3941 17.8051C17.3169 17.8371 17.2341 17.8536 17.1505 17.8536C17.0668 17.8536 16.984 17.8371 16.9068 17.8051C16.8295 17.773 16.7593 17.7261 16.7002 17.6669L16.6429 17.6096C16.3073 17.2813 15.8809 17.0611 15.4189 16.9773C14.9672 16.8954 14.5017 16.9476 14.0798 17.1271C13.6497 17.2919 13.2773 17.5795 13.0091 17.9545C12.7348 18.338 12.5822 18.7952 12.5712 19.2666L12.5709 19.29V19.3636C12.5709 19.5324 12.5039 19.6943 12.3845 19.8136ZM11 12C11 11.4477 11.4477 11 12 11C12.5523 11 13 11.4477 13 12C13 12.5523 12.5523 13 12 13C11.4477 13 11 12.5523 11 12ZM12 9C10.3431 9 9 10.3431 9 12C9 13.6569 10.3431 15 12 15C13.6569 15 15 13.6569 15 12C15 10.3431 13.6569 9 12 9Z"/>
</svg>
