<svg viewBox="0 0 32 32" xmlns="http://www.w3.org/2000/svg">
    <path d="M11.999 16c0-2.267 1.733-4 4-4s4 1.733 4 4"></path>
    <path d="M11.554 3.538c0.205-1.026 1.068-2.004 2.314-2.004h4.133c1.246 0 2.109 0.978 2.314 2.004 0.005 0.026 0.009 0.053 0.013 0.079l0.258 2.194c0.032 0.108 0.067 0.162 0.096 0.198 0.031 0.039 0.079 0.087 0.171 0.154 0.336 0.112 0.845 0.296 1.245 0.657 0.031 0.002 0.073 0.001 0.12-0.005 0.043-0.006 0.085-0.015 0.12-0.026l2.072-0.777c0.543-0.25 1.136-0.218 1.608-0.061 0.477 0.159 0.976 0.495 1.259 1.031l2.095 3.535c0.7 0.991 0.435 2.372-0.495 3.077l-1.91 1.486c0.036 0.338 0.036 0.655 0.036 0.869v0 0.051c0 0.021-0.001 0.041-0.002 0.062 0 0.214 0 0.526-0.036 0.858l1.91 1.486c0.93 0.705 1.196 2.085 0.495 3.077l-2.095 3.535c-0.283 0.536-0.782 0.872-1.259 1.031-0.472 0.157-1.065 0.189-1.608-0.061l-2.071-0.777c-0.035-0.011-0.077-0.020-0.12-0.026-0.047-0.006-0.089-0.007-0.12-0.005-0.4 0.361-0.909 0.545-1.245 0.657-0.092 0.068-0.14 0.115-0.171 0.154-0.029 0.036-0.064 0.090-0.096 0.198l-0.258 2.194c-0.003 0.027-0.007 0.053-0.013 0.079-0.205 1.026-1.068 2.004-2.314 2.004h-4.133c-1.246 0-2.109-0.978-2.314-2.004-0.005-0.026-0.009-0.053-0.013-0.079l-0.267-2.267c-0.001-0.010-0.002-0.020-0.003-0.030-0.007-0.009-0.015-0.022-0.028-0.037-0.055-0.067-0.14-0.146-0.245-0.224-0.236-0.095-0.428-0.211-0.558-0.289h-0l-0.020-0.012c-0.177-0.106-0.254-0.149-0.335-0.175-0.084-0.028-0.165-0.067-0.238-0.117-0.065-0.043-0.104-0.050-0.128-0.052-0.031-0.003-0.088-0-0.186 0.031l-2.104 0.789c-1.093 0.431-2.309 0.024-2.836-0.983l-2.118-3.574c-0.012-0.021-0.023-0.041-0.034-0.063-0.247-0.493-0.285-1.047-0.21-1.52 0.074-0.47 0.279-0.983 0.664-1.368 0.029-0.029 0.060-0.057 0.093-0.082l1.961-1.526-0.003-0.016c-0.034-0.222-0.078-0.52-0.078-0.869 0-0.024 0.001-0.049 0.003-0.073 0.006-0.317 0.046-0.589 0.078-0.796l0.003-0.016-1.961-1.526c-0.033-0.025-0.064-0.053-0.093-0.082-0.385-0.385-0.59-0.898-0.664-1.368-0.075-0.473-0.037-1.026 0.21-1.52 0.011-0.021 0.022-0.042 0.034-0.063l2.118-3.574c0.527-1.007 1.743-1.413 2.836-0.983l2.104 0.789c0.097 0.031 0.155 0.033 0.186 0.031 0.025-0.002 0.064-0.009 0.128-0.052 0.074-0.049 0.154-0.089 0.238-0.117 0.081-0.027 0.158-0.069 0.335-0.175l0.020-0.012c0.13-0.078 0.323-0.194 0.558-0.289 0.105-0.078 0.19-0.157 0.245-0.224 0.012-0.015 0.021-0.027 0.028-0.037 0.001-0.010 0.002-0.020 0.003-0.030l0.267-2.267c0.003-0.027 0.007-0.053 0.013-0.079zM6.867 16.053c0.004 0.165 0.025 0.321 0.054 0.512l0.008 0.053c0.029 0.187 0.070 0.448 0.070 0.715 0 0.309-0.142 0.6-0.386 0.789l-2.325 1.808c-0.025 0.038-0.065 0.118-0.085 0.242-0.022 0.141-0.003 0.245 0.016 0.296l2.107 3.555c0.012 0.021 0.024 0.041 0.034 0.063 0.012 0.024 0.038 0.053 0.088 0.071 0.047 0.017 0.131 0.027 0.246-0.019l0.020-0.008 2.133-0.8c0.012-0.004 0.023-0.009 0.035-0.012 0.586-0.195 1.279-0.224 1.958 0.179 0.248 0.097 0.45 0.219 0.586 0.3h0l0.020 0.012c0.177 0.106 0.254 0.149 0.335 0.175 0.084 0.028 0.165 0.067 0.238 0.117 0.255 0.17 0.539 0.4 0.769 0.682 0.209 0.256 0.453 0.65 0.474 1.144l0.256 2.173c0.031 0.122 0.092 0.22 0.16 0.283 0.068 0.063 0.131 0.083 0.186 0.083h4.133c0.055 0 0.118-0.019 0.186-0.083 0.067-0.063 0.129-0.161 0.16-0.283l0.261-2.218c0.005-0.042 0.013-0.084 0.023-0.126 0.097-0.389 0.256-0.724 0.489-1.015 0.225-0.282 0.488-0.482 0.726-0.641 0.074-0.049 0.154-0.089 0.238-0.117 0.462-0.154 0.609-0.225 0.676-0.292 0.366-0.366 0.834-0.48 1.18-0.507 0.361-0.028 0.728 0.027 1.043 0.132 0.012 0.004 0.023 0.008 0.035 0.012l2.133 0.8c0.030 0.011 0.060 0.024 0.089 0.038 0.004 0.001 0.011 0.002 0.024 0.002 0.030 0.001 0.072-0.004 0.119-0.020s0.084-0.037 0.107-0.056c0.010-0.008 0.015-0.014 0.018-0.016 0.010-0.019 0.020-0.038 0.031-0.056l2.133-3.6c0.018-0.031 0.039-0.061 0.060-0.090 0.020-0.027 0.041-0.081 0.029-0.161-0.013-0.081-0.054-0.141-0.096-0.173l-0.014-0.011v-0l-2.4-1.867c-0.335-0.26-0.469-0.703-0.335-1.106 0.072-0.215 0.082-0.57 0.082-1.017 0-0.021 0.001-0.041 0.002-0.062-0.001-0.417-0.014-0.75-0.082-0.955-0.134-0.402 0-0.845 0.335-1.106l2.414-1.877c0.042-0.031 0.083-0.091 0.095-0.173 0.013-0.080-0.008-0.133-0.029-0.161-0.022-0.029-0.042-0.059-0.060-0.090l-2.133-3.6c-0.011-0.018-0.021-0.037-0.031-0.056-0.002-0.003-0.008-0.008-0.018-0.016-0.023-0.019-0.060-0.040-0.107-0.056s-0.089-0.021-0.119-0.020c-0.013 0-0.021 0.002-0.024 0.002-0.029 0.014-0.059 0.027-0.089 0.038l-2.133 0.8c-0.012 0.004-0.023 0.008-0.035 0.012-0.315 0.105-0.682 0.159-1.043 0.132-0.346-0.027-0.815-0.141-1.18-0.507-0.067-0.067-0.214-0.138-0.676-0.292-0.084-0.028-0.165-0.067-0.239-0.117-0.238-0.159-0.501-0.359-0.726-0.641-0.233-0.292-0.392-0.626-0.489-1.016-0.010-0.041-0.018-0.083-0.023-0.126l-0.261-2.218c-0.031-0.122-0.092-0.22-0.16-0.283s-0.131-0.083-0.186-0.083h-4.133c-0.055 0-0.118 0.019-0.186 0.083s-0.129 0.161-0.16 0.283l-0.256 2.173c-0.022 0.494-0.265 0.888-0.474 1.144-0.231 0.282-0.514 0.512-0.769 0.682-0.074 0.049-0.154 0.089-0.238 0.117-0.081 0.027-0.158 0.069-0.335 0.175l-0.020 0.012c-0.135 0.081-0.338 0.203-0.586 0.3-0.68 0.403-1.372 0.374-1.958 0.179-0.012-0.004-0.023-0.008-0.035-0.012l-2.154-0.808c-0.115-0.046-0.198-0.036-0.246-0.019-0.050 0.018-0.076 0.047-0.088 0.071-0.011 0.021-0.022 0.042-0.034 0.063l-2.107 3.555c-0.019 0.050-0.038 0.155-0.016 0.296 0.019 0.123 0.060 0.203 0.085 0.242l2.325 1.808c0.244 0.189 0.386 0.481 0.386 0.789 0 0.267-0.041 0.528-0.070 0.715l-0.008 0.053c-0.032 0.211-0.055 0.38-0.055 0.565 0 0.017-0 0.035-0.001 0.052zM12.998 16c0 1.714 1.286 3 3 3s3-1.286 3-3c0-1.714-1.286-3-3-3s-3 1.286-3 3zM10.998 16c0-2.819 2.181-5 5-5s5 2.181 5 5-2.181 5-5 5c-2.819 0-5-2.181-5-5z"></path>
</svg>
