<svg viewBox="0 0 24 24" xmlns="http://www.w3.org/2000/svg">
<path d="M15 19.5C15.5523 19.5 16 19.9477 16 20.5C16 21.0523 15.5523 21.5 15 21.5H9C8.44772 21.5 8 21.0523 8 20.5C8 19.9477 8.44772 19.5 9 19.5H15Z" />
<path d="M13.5352 7.79297C13.9257 7.40257 14.5587 7.40257 14.9492 7.79297C15.3397 8.18346 15.3397 8.8165 14.9492 9.20703L13.5352 10.6211L14.9492 12.0352C15.3397 12.4256 15.3396 13.0587 14.9492 13.4492C14.5587 13.8397 13.9257 13.8397 13.5352 13.4492L12.1211 12.0352L10.707 13.4492C10.3165 13.8397 9.68349 13.8397 9.29297 13.4492C8.90254 13.0587 8.90248 12.4256 9.29297 12.0352L10.707 10.6211L9.29297 9.20703C8.90246 8.81651 8.90245 8.18349 9.29297 7.79297C9.6835 7.40255 10.3165 7.40249 10.707 7.79297L12.1211 9.20703L13.5352 7.79297Z" />
<path fill-rule="evenodd" clip-rule="evenodd" d="M19 2.5C20.6569 2.5 22 3.84315 22 5.5V15.5C22 17.1569 20.6569 18.5 19 18.5H5C3.34315 18.5 2 17.1569 2 15.5V5.5C2 3.84315 3.34315 2.5 5 2.5H19ZM5 4.5C4.44772 4.5 4 4.94772 4 5.5V15.5C4 16.0523 4.44772 16.5 5 16.5H19C19.5523 16.5 20 16.0523 20 15.5V5.5C20 4.94772 19.5523 4.5 19 4.5H5Z" />
</svg>
