<svg viewBox="0 0 24 24" xmlns="http://www.w3.org/2000/svg">
<path d="M16 8C16 9.10457 15.1046 10 14 10C13.4875 10 13.02 9.80723 12.6661 9.49025L9.8891 11.3416C9.96095 11.5478 10 11.7693 10 12C10 12.2307 9.96094 12.4523 9.88907 12.6585L12.666 14.5098C13.02 14.1928 13.4875 14 14 14C15.1046 14 16 14.8954 16 16C16 17.1046 15.1046 18 14 18C12.8954 18 12 17.1046 12 16C12 15.7693 12.0391 15.5478 12.1109 15.3416L9.3339 13.4902C8.97999 13.8072 8.51251 14 8 14C6.89543 14 6 13.1046 6 12C6 10.8954 6.89543 10 8 10C8.51254 10 8.98005 10.1928 9.33397 10.5098L12.1109 8.65851C12.0391 8.4523 12 8.23071 12 8C12 6.89543 12.8954 6 14 6C15.1046 6 16 6.89543 16 8Z" />
<path fill-rule="evenodd" clip-rule="evenodd" d="M12 22C17.5228 22 22 17.5228 22 12C22 6.47715 17.5228 2 12 2C6.47715 2 2 6.47715 2 12C2 17.5228 6.47715 22 12 22ZM12 20C16.4183 20 20 16.4183 20 12C20 7.58172 16.4183 4 12 4C7.58172 4 4 7.58172 4 12C4 16.4183 7.58172 20 12 20Z" />
</svg>
