<svg viewBox="0 0 24 24" xmlns="http://www.w3.org/2000/svg">
<path d="M21 18C21.5523 18 22 18.4477 22 19C22 19.5523 21.5523 20 21 20H3C2.44772 20 2 19.5523 2 19C2 18.4477 2.44772 18 3 18H21ZM13 11C13.5523 11 14 11.4477 14 12C14 12.5523 13.5523 13 13 13H3C2.44772 13 2 12.5523 2 12C2 11.4477 2.44772 11 3 11H13ZM21.707 4.29297C22.0976 4.68349 22.0976 5.31651 21.707 5.70703C21.3165 6.09752 20.6835 6.09754 20.293 5.70703L20 5.41406V12C20 12.5523 19.5523 13 19 13C18.4477 13 18 12.5523 18 12V5.41406L17.707 5.70703C17.3165 6.09752 16.6835 6.09754 16.293 5.70703C15.9025 5.31652 15.9025 4.68348 16.293 4.29297L19 1.58594L21.707 4.29297ZM11 4C11.5523 4 12 4.44771 12 5C12 5.55229 11.5523 6 11 6H3C2.44772 6 2 5.55229 2 5C2 4.44771 2.44772 4 3 4H11Z"/>
</svg>
