<svg viewBox="0 0 24 24" xmlns="http://www.w3.org/2000/svg">
    <path d="M12.0854 20.9965C12.2746 20.9805 12.4489 20.9118 12.5933 20.8051C12.6036 20.7976 12.6138 20.7898 12.6238 20.7818L12.6379 20.7704C12.7191 20.7033 12.7878 20.6247 12.8429 20.5384C12.8662 20.5019 12.8873 20.4638 12.9058 20.4243C13.012 20.21 13.0994 20.008 13.1875 19.8043C13.3676 19.3881 13.5506 18.9649 13.9037 18.4156C14.3917 17.6566 15.169 16.7557 16.5548 15.8319C17.0143 15.5256 17.1385 14.9047 16.8321 14.4452C16.5258 13.9856 15.9049 13.8615 15.4454 14.1678C14.3802 14.8779 13.5944 15.598 13 16.2905L13 4.00009C13 3.44781 12.5523 3.00009 12 3.00009C11.4477 3.00009 11 3.44781 11 4.00009L11 16.2903C10.4057 15.5979 9.6199 14.8779 8.55481 14.1678C8.09528 13.8615 7.47441 13.9856 7.16806 14.4452C6.8617 14.9047 6.98588 15.5256 7.44541 15.8319C8.83111 16.7557 9.60851 17.6566 10.0964 18.4156C10.4495 18.9649 10.6326 19.3881 10.8126 19.8043C10.9 20.0063 10.9866 20.2066 11.0916 20.4189C11.1232 20.4873 11.1623 20.5515 11.2078 20.6105C11.2513 20.667 11.3011 20.7192 11.357 20.766C11.5149 20.8987 11.7143 20.9834 11.9331 20.9979"/>
    <path d="M12.0001 21.0001C12.0285 21.0001 12.057 20.9989 12.0854 20.9965L12.0001 21.0001Z"/>
</svg>
