<svg viewBox="0 0 24 24" xmlns="http://www.w3.org/2000/svg">
<path d="M11.9146 3.00369C11.7254 3.0197 11.5511 3.08839 11.4067 3.19505C11.3964 3.20263 11.3862 3.21042 11.3762 3.21842L11.3621 3.22978C11.2809 3.2969 11.2122 3.37545 11.1571 3.46181C11.1338 3.49828 11.1127 3.53636 11.0942 3.57585C10.988 3.79015 10.9006 3.99216 10.8125 4.19585C10.6324 4.61205 10.4494 5.03526 10.0963 5.58455C9.60834 6.34354 8.83095 7.24445 7.44524 8.16826C6.98572 8.47461 6.86154 9.09548 7.16789 9.55501C7.47425 10.0145 8.09512 10.1387 8.55464 9.83236C9.61983 9.12223 10.4056 8.40214 11 7.70971L11 20.0001C11 20.5524 11.4477 21.0001 12 21.0001C12.5523 21.0001 13 20.5524 13 20.0001L13 7.7099C13.5943 8.40227 14.3801 9.1223 15.4452 9.83236C15.9047 10.1387 16.5256 10.0145 16.8319 9.55501C17.1383 9.09548 17.0141 8.47461 16.5546 8.16826C15.1689 7.24446 14.3915 6.34354 13.9036 5.58455C13.5505 5.03526 13.3674 4.61205 13.1874 4.19585C13.1 3.99389 13.0134 3.79357 12.9084 3.58131C12.8768 3.51291 12.8377 3.44869 12.7922 3.38969C12.7487 3.33322 12.6989 3.28099 12.643 3.2342C12.4851 3.10152 12.2857 3.01675 12.0669 3.0023"/>
<path d="M11.9999 3.00009C11.9715 3.00007 11.943 3.00126 11.9146 3.00369L11.9999 3.00009Z"/>
</svg>
