<svg viewBox="0 0 32 32" xmlns="http://www.w3.org/2000/svg">
    <path d="M16.066 10.667c0.552 0 1 0.448 1 1v9.333c0 0.552-0.448 1-1 1s-1-0.448-1-1v-9.333c0-0.552 0.448-1 1-1z"></path>
    <path d="M12.026 16.96c0.391-0.391 1.024-0.391 1.414 0l3.333 3.333c0.391 0.391 0.391 1.024 0 1.414s-1.024 0.391-1.414 0l-3.333-3.333c-0.391-0.391-0.391-1.024 0-1.414z"></path>
    <path d="M20.107 16.96c0.391 0.391 0.391 1.024 0 1.414l-3.333 3.333c-0.391 0.391-1.024 0.391-1.414 0s-0.391-1.024 0-1.414l3.333-3.333c0.391-0.391 1.024-0.391 1.414 0z"></path>
</svg>
