<svg viewBox="0 0 24 24" xmlns="http://www.w3.org/2000/svg">
<path d="M19 11C19.5523 11 20 11.4477 20 12V18.5859L20.293 18.293C20.6835 17.9025 21.3165 17.9025 21.707 18.293C22.0975 18.6835 22.0975 19.3165 21.707 19.707L19 22.4141L16.293 19.707C15.9024 19.3165 15.9024 18.6835 16.293 18.293C16.6835 17.9025 17.3165 17.9025 17.707 18.293L18 18.5859V12C18 11.4477 18.4477 11 19 11Z"/>
<path d="M11 18C11.5523 18 12 18.4477 12 19C12 19.5523 11.5523 20 11 20H3C2.44772 20 2 19.5523 2 19C2 18.4477 2.44772 18 3 18H11Z"/>
<path d="M13 11C13.5523 11 14 11.4477 14 12C14 12.5523 13.5523 13 13 13H3C2.44772 13 2 12.5523 2 12C2 11.4477 2.44772 11 3 11H13Z"/>
<path d="M21 4C21.5523 4 22 4.44772 22 5C22 5.55228 21.5523 6 21 6H3C2.44772 6 2 5.55228 2 5C2 4.44772 2.44772 4 3 4H21Z"/>
</svg>
