<svg viewBox="0 0 24 24" xmlns="http://www.w3.org/2000/svg">
    <path fill-rule="evenodd" clip-rule="evenodd"
          d="M13.4034 3.28448C12.4886 2.83609 11.2637 2.87318 10.3469 3.71828L6.69663 6.75992H4.83333C4.12012 6.75992 3.38324 6.9999 2.81818 7.55384C2.25131 8.10955 2 8.84172 2 9.55715V14.4867C2 15.2022 2.25131 15.9343 2.81818 16.49C3.38324 17.044 4.12012 17.284 4.83333 17.284H6.69699L10.3891 20.3605L10.3928 20.3635L10.3986 20.3684L10.4024 20.3715C12.136 21.7877 15 20.6809 15 18.1837V5.85983C15 4.69493 14.3257 3.73657 13.4034 3.28448ZM11.6945 5.19617C11.9307 4.97334 12.249 4.94599 12.5232 5.08035C12.7973 5.21474 13 5.49873 13 5.85983V18.1837C13 18.8682 12.1943 19.2518 11.6686 18.8233L11.6678 18.8226L7.42104 15.284H4.83333C4.56087 15.284 4.35423 15.1951 4.21827 15.0618C4.0841 14.9303 4 14.7376 4 14.4867V9.55715C4 9.30632 4.08411 9.11356 4.21827 8.98204C4.35423 8.84875 4.56087 8.75992 4.83333 8.75992H7.42068L11.6721 5.21735L11.6945 5.19617Z"/>
    <path d="M21.5 9.58579C21.1095 9.19526 20.4763 9.19526 20.0858 9.58579L19.2929 10.3787L18.5 9.58579C18.1095 9.19526 17.4763 9.19526 17.0858 9.58579C16.6953 9.97631 16.6953 10.6095 17.0858 11L17.8787 11.7929L17.0858 12.5858C16.6953 12.9763 16.6953 13.6095 17.0858 14C17.4763 14.3905 18.1095 14.3905 18.5 14L19.2929 13.2071L20.0858 14C20.4763 14.3905 21.1095 14.3905 21.5 14C21.8905 13.6095 21.8905 12.9763 21.5 12.5858L20.7071 11.7929L21.5 11C21.8905 10.6095 21.8905 9.97631 21.5 9.58579Z"/>
</svg>
