<svg viewBox="0 0 32 32" xmlns="http://www.w3.org/2000/svg">
    <path d="M12.833 21.532h-2.833c-0.627 0-1.228-0.213-1.674-0.659s-0.66-1.047-0.66-1.674v-6.4c0-0.627 0.213-1.228 0.66-1.674s1.047-0.66 1.674-0.66h2.832l5.027-4.273c0.735-0.708 1.726-0.753 2.488-0.372s1.319 1.187 1.319 2.178v16c0 2.065-2.336 3.033-3.773 1.835l-5.061-4.301zM19.335 7.584c-0.017 0.002-0.048 0.009-0.094 0.055-0.019 0.019-0.039 0.037-0.059 0.055l-5.321 4.523c-0.176 0.155-0.407 0.248-0.66 0.248h-3.2c-0.173 0-0.239 0.053-0.26 0.074s-0.074 0.087-0.074 0.26v6.4c0 0.173 0.053 0.239 0.074 0.26s0.087 0.074 0.26 0.074h3.18c0.236-0.005 0.474 0.073 0.668 0.238l5.328 4.529c0.072 0.059 0.185 0.081 0.305 0.025 0.056-0.026 0.101-0.065 0.13-0.11 0.027-0.041 0.055-0.107 0.055-0.216v-16c0-0.209-0.109-0.336-0.214-0.389-0.053-0.026-0.094-0.029-0.118-0.026z"></path>
    <path d="M25.136 10.162c0.278-0.477 0.891-0.638 1.368-0.36 1.98 1.155 3.163 3.668 3.163 6.197 0 2.675-1.191 5.047-3.163 6.197-0.477 0.278-1.089 0.117-1.368-0.36s-0.117-1.089 0.36-1.368c1.229-0.717 2.171-2.344 2.171-4.47 0-2.004-0.951-3.758-2.171-4.47-0.477-0.278-0.638-0.891-0.36-1.368z"></path>
</svg>
