<svg viewBox="0 0 24 24" xmlns="http://www.w3.org/2000/svg">
<path fill-rule="evenodd" clip-rule="evenodd" d="M10.3469 3.71828C11.2637 2.87318 12.4886 2.83609 13.4034 3.28448C14.3257 3.73657 15 4.69493 15 5.85983V18.1837C15 20.6809 12.136 21.7877 10.4024 20.3715L10.3986 20.3684L10.3928 20.3635L10.3891 20.3605L6.69699 17.284H4.83333C4.12012 17.284 3.38324 17.044 2.81818 16.49C2.25131 15.9343 2 15.2022 2 14.4867V9.55715C2 8.84172 2.25131 8.10955 2.81818 7.55384C3.38324 6.9999 4.12012 6.75992 4.83333 6.75992H6.69663L10.3469 3.71828ZM12.5232 5.08035C12.249 4.94599 11.9307 4.97334 11.6945 5.19617L11.6721 5.21735L7.42068 8.75992H4.83333C4.56087 8.75992 4.35423 8.84875 4.21827 8.98204C4.08411 9.11356 4 9.30632 4 9.55715V14.4867C4 14.7376 4.0841 14.9303 4.21827 15.0618C4.35423 15.1951 4.56087 15.284 4.83333 15.284H7.42104L11.6678 18.8226L11.6686 18.8233C12.1943 19.2518 13 18.8682 13 18.1837V5.85983C13 5.49873 12.7973 5.21474 12.5232 5.08035ZM18.4472 6.65505C17.9532 6.40806 17.3525 6.60828 17.1055 7.10226C16.8621 7.58924 17.0532 8.17991 17.5319 8.43319C17.5345 8.43473 17.539 8.43746 17.5452 8.44143C17.5675 8.45578 17.6121 8.48631 17.6723 8.53645C17.792 8.63621 17.9755 8.81556 18.1679 9.10418C18.1985 9.15006 18.2296 9.19552 18.2609 9.24129C18.6169 9.76205 19 10.3224 19 12C19 13.6776 18.6169 14.238 18.2609 14.7587C18.2296 14.8045 18.1985 14.8499 18.1679 14.8958C17.9755 15.1844 17.792 15.3638 17.6723 15.4636C17.6121 15.5137 17.5675 15.5442 17.5452 15.5586C17.539 15.5625 17.5345 15.5653 17.5319 15.5668C17.0532 15.8201 16.8621 16.4108 17.1055 16.8977C17.3525 17.3917 17.9532 17.5919 18.4472 17.345L18.4486 17.3442L18.4501 17.3435L18.4532 17.3419L18.4599 17.3385L18.4756 17.3303C18.487 17.3242 18.5003 17.3169 18.5154 17.3083C18.5457 17.2912 18.5831 17.2689 18.6267 17.2409C18.7137 17.185 18.8253 17.1061 18.9527 17C19.2079 16.7873 19.5244 16.4666 19.832 16.0052C20.4534 15.0732 21 14.175 21 12C21 9.82502 20.4534 8.92677 19.832 7.99477C19.5244 7.53339 19.2079 7.21274 18.9527 7C18.8253 6.89389 18.7137 6.81505 18.6267 6.75908C18.5831 6.73109 18.5457 6.7088 18.5154 6.69166C18.5003 6.68309 18.487 6.6758 18.4756 6.66972L18.4599 6.6615L18.4532 6.65806L18.4472 6.65505Z"/>
</svg>
