<svg viewBox="0 0 24 24" xmlns="http://www.w3.org/2000/svg">
    <path fill-rule="evenodd" clip-rule="evenodd" d="M13.4034 3.28448C12.4886 2.83609 11.2637 2.87318 10.3469 3.71828L6.69663 6.75992H4.83333C4.12012 6.75992 3.38324 6.9999 2.81818 7.55384C2.25131 8.10955 2 8.84172 2 9.55715V14.4867C2 15.2022 2.25131 15.9343 2.81818 16.49C3.38324 17.044 4.12012 17.284 4.83333 17.284H6.69699L10.3891 20.3605L10.3928 20.3635L10.3986 20.3684L10.4024 20.3715C12.136 21.7877 15 20.6809 15 18.1837V5.85983C15 4.69493 14.3257 3.73657 13.4034 3.28448ZM11.6945 5.19617C11.9307 4.97334 12.249 4.94599 12.5232 5.08035C12.7973 5.21474 13 5.49873 13 5.85983V18.1837C13 18.8682 12.1943 19.2518 11.6686 18.8233L11.6678 18.8226L7.42104 15.284H4.83333C4.56087 15.284 4.35423 15.1951 4.21827 15.0618C4.0841 14.9303 4 14.7376 4 14.4867V9.55715C4 9.30632 4.08411 9.11356 4.21827 8.98204C4.35423 8.84875 4.56087 8.75992 4.83333 8.75992H7.42068L11.6721 5.21735L11.6945 5.19617Z"/>
    <path d="M17.1058 7.10232C17.3528 6.60834 17.9535 6.40812 18.4474 6.65511L18.4534 6.65812L18.4601 6.66156L18.4758 6.66978C18.4872 6.67586 18.5006 6.68315 18.5157 6.69172C18.5459 6.70886 18.5834 6.73115 18.6269 6.75914C18.714 6.81511 18.8256 6.89395 18.9529 7.00006C19.2082 7.2128 19.5247 7.53345 19.8323 7.99484C20.4536 8.92683 21.0002 9.82508 21.0002 12.0001C21.0002 14.175 20.4536 15.0733 19.8323 16.0053C19.5247 16.4667 19.2082 16.7873 18.9529 17.0001C18.8256 17.1062 18.714 17.185 18.6269 17.241C18.5834 17.269 18.5459 17.2913 18.5157 17.3084C18.5006 17.317 18.4872 17.3243 18.4758 17.3303L18.4601 17.3386L18.4534 17.342L18.4503 17.3436L18.4489 17.3443L18.4474 17.345C17.9535 17.592 17.3528 17.3918 17.1058 16.8978C16.8623 16.4108 17.0534 15.8202 17.5322 15.5669C17.5348 15.5653 17.5392 15.5626 17.5454 15.5586C17.5677 15.5443 17.6124 15.5138 17.6725 15.4636C17.7923 15.3639 17.9758 15.1845 18.1682 14.8959C18.5468 14.3279 19.0002 13.8251 19.0002 12.0001C19.0002 10.175 18.5468 9.67224 18.1682 9.10424C17.9758 8.81562 17.7923 8.63627 17.6725 8.53651C17.6124 8.48637 17.5677 8.45584 17.5454 8.4415C17.5392 8.43752 17.5348 8.43479 17.5322 8.43325C17.0534 8.17997 16.8623 7.5893 17.1058 7.10232Z"/>
</svg>
