<svg viewBox="0 0 24 24" xmlns="http://www.w3.org/2000/svg">
    <path fill-rule="evenodd" clip-rule="evenodd"
          d="M18.2342 14.1492C17.942 14.4529 17.806 14.8935 17.8748 15.3262L18.3419 18.2311C18.6583 20.1985 16.5722 21.6637 14.8385 20.6918L12.5698 19.4198C12.2129 19.2196 11.7869 19.2195 11.4295 19.4198L9.16126 20.6913C7.42763 21.6631 5.34171 20.1979 5.65806 18.2306L6.12485 15.3276C6.19462 14.894 6.0578 14.4528 5.7657 14.1492L3.6689 11.9696C2.33128 10.5791 3.11211 8.25304 5.01547 7.95824L7.79429 7.52786C8.18862 7.46646 8.54015 7.20068 8.72313 6.80523L9.84664 4.37909C10.6983 2.54007 13.3037 2.54037 14.1549 4.37959L15.2778 6.80591C15.4606 7.20085 15.8114 7.46655 16.2071 7.52787L18.9846 7.95811C20.8879 8.25295 21.6687 10.579 20.3311 11.9694L18.2342 14.1492Z"/>
</svg>
