<svg viewBox="0 0 32 32" xmlns="http://www.w3.org/2000/svg">
    <path d="M15.076 3.269c0.174-0.369 0.533-0.603 0.926-0.603s0.752 0.234 0.926 0.603l3.32 7.047c0.15 0.319 0.441 0.54 0.778 0.591l7.425 1.13c0.389 0.059 0.712 0.345 0.833 0.736s0.020 0.821-0.261 1.108l-5.372 5.486c-0.243 0.248-0.354 0.606-0.297 0.957l1.268 7.746c0.066 0.406-0.093 0.816-0.411 1.058-0.318 0.241-0.739 0.273-1.087 0.083l-6.641-3.657c-0.3-0.166-0.66-0.166-0.961 0l-6.641 3.657c-0.347 0.191-0.769 0.16-1.087-0.082s-0.477-0.652-0.411-1.058l1.268-7.746c0.058-0.351-0.054-0.709-0.297-0.957l-5.372-5.486c-0.281-0.287-0.383-0.717-0.261-1.108s0.444-0.677 0.834-0.736l7.426-1.13c0.336-0.051 0.627-0.272 0.777-0.592l3.322-7.046z"></path>
</svg>
