<svg viewBox="0 0 24 24" xmlns="http://www.w3.org/2000/svg">
    <path fill-rule="evenodd" clip-rule="evenodd"
          d="M18.2342 14.1492C17.942 14.4529 17.806 14.8935 17.8748 15.3262L18.3419 18.2311C18.6583 20.1985 16.5722 21.6637 14.8385 20.6918L12.5698 19.4198C12.2129 19.2196 11.7869 19.2195 11.4295 19.4198L9.16126 20.6913C7.42763 21.6631 5.34171 20.1979 5.65806 18.2306L6.12485 15.3276C6.19462 14.894 6.0578 14.4528 5.7657 14.1492L3.6689 11.9696C2.33128 10.5791 3.11211 8.25304 5.01547 7.95824L7.79429 7.52786C8.18862 7.46646 8.54015 7.20068 8.72313 6.80523L9.84664 4.37909C10.6983 2.54007 13.3037 2.54037 14.1549 4.37959L15.2778 6.80591C15.4606 7.20085 15.8114 7.46655 16.2071 7.52787L18.9846 7.95811C20.8879 8.25295 21.6687 10.579 20.3311 11.9694L18.2342 14.1492ZM15.9172 9.41247C14.8578 9.24834 13.9892 8.54873 13.5544 7.60916L12.4315 5.18284C12.2612 4.81499 11.7402 4.81493 11.5698 5.18274L10.4466 7.60838C10.0119 8.54763 9.14363 9.24804 8.08469 9.41238L5.3053 9.84285C4.92463 9.90181 4.76846 10.367 5.03599 10.6451L7.13261 12.8246C7.85309 13.5733 8.16304 14.6229 8.00078 15.6314L7.53398 18.5344C7.47071 18.9278 7.88789 19.2209 8.23462 19.0265L10.5028 17.755C11.4351 17.2325 12.5625 17.2311 13.4965 17.755L15.7653 19.027C16.112 19.2214 16.5292 18.9284 16.466 18.5349L15.9986 15.6285C15.8385 14.625 16.1447 13.5755 16.8673 12.8246L18.964 10.645C19.2315 10.3669 19.0754 9.90168 18.6947 9.84272L15.9172 9.41247Z"/>
</svg>
