<svg viewBox="0 0 24 24" xmlns="http://www.w3.org/2000/svg">
    <path fill-rule="evenodd" clip-rule="evenodd"
          d="M8 9C8 8.44772 8.44772 8 9 8H15C15.5523 8 16 8.44772 16 9V15C16 15.5523 15.5523 16 15 16H9C8.44772 16 8 15.5523 8 15V9ZM10 14H14V10L10 10V14Z"/>
    <path fill-rule="evenodd" clip-rule="evenodd"
          d="M2 12C2 6.45029 6.45029 2 12 2C17.5497 2 22 6.45029 22 12C22 17.5497 17.5497 22 12 22C6.45029 22 2 17.5497 2 12ZM12 4C7.55486 4 4 7.55486 4 12C4 16.4451 7.55486 20 12 20C16.4451 20 20 16.4451 20 12C20 7.55486 16.4451 4 12 4Z"/>
</svg>
