<svg viewBox="0 0 32 32" xmlns="http://www.w3.org/2000/svg">
    <path d="M13.197 11.144c-1.284 0-2.325 1.041-2.325 2.325v5.47c0 1.284 1.041 2.325 2.325 2.325h5.47c1.284 0 2.325-1.041 2.325-2.325v-5.47c0-1.284-1.041-2.325-2.325-2.325h-5.47zM12.786 13.469c0-0.227 0.184-0.41 0.41-0.41h5.47c0.227 0 0.41 0.184 0.41 0.41v5.47c0 0.227-0.184 0.41-0.41 0.41h-5.47c-0.227 0-0.41-0.184-0.41-0.41v-5.47z"></path>
    <path d="M16 2.667c-7.404 0-13.333 5.929-13.333 13.333s5.929 13.333 13.333 13.333c7.404 0 13.333-5.929 13.333-13.333s-5.929-13.333-13.333-13.333zM4.718 16c0-6.271 5.011-11.282 11.282-11.282s11.282 5.011 11.282 11.282c0 6.271-5.011 11.282-11.282 11.282s-11.282-5.011-11.282-11.282z"></path>
</svg>
