<svg viewBox="0 0 24 24" xmlns="http://www.w3.org/2000/svg">
<path fill-rule="evenodd" clip-rule="evenodd" d="M16.8787 2.87868L19.1213 5.12132C19.6839 5.68393 20 6.44699 20 7.24264V11C20 11.5523 19.5523 12 19 12C18.4477 12 18 11.5523 18 11V8H16C14.8954 8 14 7.10457 14 6V4H7C6.44771 4 6 4.44772 6 5V19C6 19.5523 6.44771 20 7 20H9C9.55228 20 10 20.4477 10 21C10 21.5523 9.55228 22 9 22H7C5.34315 22 4 20.6569 4 19V5C4 3.34315 5.34315 2 7 2H14.7574C15.553 2 16.3161 2.31607 16.8787 2.87868ZM16 4.82843V6H17.1716L16 4.82843ZM13 17C14.1046 17 15 16.1046 15 15C15 13.8954 14.1046 13 13 13C11.8954 13 11 13.8954 11 15C11 16.1046 11.8954 17 13 17ZM16.4462 17.0319C16.7981 16.4364 17 15.7418 17 15C17 12.7909 15.2091 11 13 11C10.7909 11 9 12.7909 9 15C9 17.2091 10.7909 19 13 19C13.7418 19 14.4365 18.7981 15.032 18.4462L17.293 20.7071C17.6835 21.0976 18.3167 21.0976 18.7072 20.7071C19.0977 20.3166 19.0977 19.6834 18.7072 19.2929L16.4462 17.0319Z"/>
</svg>
