<svg viewBox="0 0 24 24" xmlns="http://www.w3.org/2000/svg">
    <path fill-rule="evenodd" clip-rule="evenodd"
          d="M19.1213 5.12132L16.8787 2.87868C16.3161 2.31607 15.553 2 14.7574 2H7C5.34315 2 4 3.34315 4 5V19C4 20.6569 5.34315 22 7 22H9C9.55228 22 10 21.5523 10 21C10 20.4477 9.55228 20 9 20H7C6.44771 20 6 19.5523 6 19V5C6 4.44772 6.44771 4 7 4H14V6C14 7.10457 14.8954 8 16 8H18V11C18 11.5523 18.4477 12 19 12C19.5523 12 20 11.5523 20 11V7.24264C20 6.44699 19.6839 5.68393 19.1213 5.12132ZM16 6V4.82843L17.1716 6H16Z"/>
    <path d="M18 15C18 14.4477 17.5523 14 17 14C16.4477 14 16 14.4477 16 15V18.5858L15.7071 18.2929C15.3166 17.9024 14.6834 17.9024 14.2929 18.2929C13.9024 18.6834 13.9024 19.3166 14.2929 19.7071L16.2925 21.7067C16.4735 21.8877 16.7238 22 17 22C17.1628 22 17.3166 21.9611 17.4524 21.892C17.5442 21.8455 17.6304 21.7838 17.7071 21.7071L19.7071 19.7071C20.0976 19.3166 20.0976 18.6834 19.7071 18.2929C19.3166 17.9024 18.6834 17.9024 18.2929 18.2929L18 18.5858V15Z"/>
</svg>
