<svg viewBox="0 0 24 24" xmlns="http://www.w3.org/2000/svg">
    <path fill-rule="evenodd" clip-rule="evenodd"
          d="M16.8787 2.87868L19.1213 5.12132C19.6839 5.68393 20 6.44699 20 7.24264V11C20 11.5523 19.5523 12 19 12C18.4477 12 18 11.5523 18 11V8H16C14.8954 8 14 7.10457 14 6V4H7C6.44771 4 6 4.44772 6 5V19C6 19.5523 6.44771 20 7 20H9C9.55228 20 10 20.4477 10 21C10 21.5523 9.55228 22 9 22H7C5.34315 22 4 20.6569 4 19V5C4 3.34315 5.34315 2 7 2H14.7574C15.553 2 16.3161 2.31607 16.8787 2.87868ZM16 4.82843V6H17.1716L16 4.82843Z"/>
    <path fill-rule="evenodd" clip-rule="evenodd"
          d="M17.4472 13.7236C17.5894 13.7947 17.7096 13.897 17.8013 14.0197C17.8655 14.0068 17.932 14 18 14H21C21.5523 14 22 14.4477 22 15V19C22 19.5523 21.5523 20 21 20H18C17.932 20 17.8655 19.9932 17.8013 19.9803C17.7097 20.103 17.5894 20.2053 17.4472 20.2764L13.4472 22.2764C12.7823 22.6088 12 22.1253 12 21.382V12.618C12 11.8747 12.7823 11.3912 13.4472 11.7236L17.4472 13.7236ZM16 15.2361V18.7639L14 19.7639V14.2361L16 15.2361ZM20 16V18H19V16H20Z"/>
</svg>
