<svg viewBox="0 0 24 24" xmlns="http://www.w3.org/2000/svg">
    <path d="M18 8C18 8.82843 17.3284 9.5 16.5 9.5C15.6716 9.5 15 8.82843 15 8C15 7.17157 15.6716 6.5 16.5 6.5C17.3284 6.5 18 7.17157 18 8Z"/>
    <path fill-rule="evenodd" clip-rule="evenodd"
          d="M17.8197 2.51621C17.0766 1.82793 15.923 1.82793 15.1803 2.51621L14.2909 3.34027C14.0753 3.54002 13.8167 3.68821 13.5341 3.77346L12.784 4H3C2.44772 4 2 4.44771 2 5V16C2 16.5523 2.44772 17 3 17H10C10.0003 17.5521 10.9479 18 11.5 18C12.0523 18 13 17.5523 13 17H20C20.5523 17 21 16.5523 21 16V11.7203C21.7431 11.3149 22.1485 10.4586 21.9497 9.60878L21.6746 8.43316C21.6373 8.27398 21.6208 8.11001 21.625 7.94768V7.94031C21.6288 7.81493 21.6458 7.68979 21.6746 7.56687L21.9497 6.39125C22.1794 5.40919 21.6024 4.41858 20.6299 4.12503L19.4655 3.77346C19.1833 3.68821 18.9243 3.54002 18.7087 3.34027L17.8197 2.51621ZM19 12.4372C18.8963 12.5018 18.7987 12.5762 18.7087 12.6596L17.8197 13.4837C17.0766 14.1721 15.923 14.1721 15.1803 13.4837L14.2909 12.6596C14.0753 12.4599 13.8167 12.3117 13.5341 12.2266L12.3701 11.875C11.3972 11.5813 10.8206 10.5907 11.0504 9.60878L11.3254 8.43316C11.392 8.14814 11.392 7.85178 11.3254 7.56687L11.0504 6.39125C11.0198 6.26043 11.0035 6.12946 11.0005 6H4V15H19V12.4372ZM17.3894 4.69518C16.8888 4.23122 16.1112 4.23122 15.6106 4.69518C15.1794 5.0947 14.6618 5.39094 14.0974 5.56146C13.4421 5.75935 13.0533 6.42692 13.208 7.08865C13.3416 7.65857 13.3416 8.25117 13.208 8.82121C13.0533 9.48294 13.4421 10.1505 14.0974 10.3484C14.6618 10.5188 15.1794 10.8152 15.6106 11.2147C16.1112 11.6785 16.8888 11.6785 17.3894 11.2147C17.8202 10.8152 18.3378 10.5188 18.9026 10.3484C19.558 10.1505 19.9467 9.48294 19.792 8.82121C19.6585 8.25117 19.6585 7.65857 19.792 7.08865C19.9467 6.42692 19.558 5.75935 18.9026 5.56146C18.3378 5.39094 17.8202 5.0947 17.3894 4.69518Z"/>
    <path d="M8 20C8 19.4477 8.44772 19 9 19H14C14.5523 19 15 19.4477 15 20C15 20.5523 14.5523 21 14 21H9C8.44772 21 8 20.5523 8 20Z"/>
</svg>
