<svg viewBox="0 0 24 24" xmlns="http://www.w3.org/2000/svg">
<circle cx="12" cy="12" r="10" fill="#1899CD"/>
<path d="M10 12.5C10 13.0523 9.55229 13.5 9 13.5C8.44771 13.5 8 13.0523 8 12.5C8 11.9477 8.44771 11.5 9 11.5C9.55229 11.5 10 11.9477 10 12.5Z" fill="white"/>
<path d="M15 13.5C15.5523 13.5 16 13.0523 16 12.5C16 11.9477 15.5523 11.5 15 11.5C14.4477 11.5 14 11.9477 14 12.5C14 13.0523 14.4477 13.5 15 13.5Z" fill="white"/>
<path fill-rule="evenodd" clip-rule="evenodd" d="M19 12.5C19 14.9853 15.866 17 12 17C8.13401 17 5 14.9853 5 12.5V8.5C5 8.22386 5.22386 8 5.5 8C5.77614 8 6 8.22386 6 8.5V9.52255C7.05079 8.10191 8.97713 7 12 7C15.0229 7 16.9492 8.10191 18 9.52255V8.5C18 8.22386 18.2239 8 18.5 8C18.7761 8 19 8.22386 19 8.5V12.5ZM7 12.5C7 11.6716 7.67157 11 8.5 11H15.5C16.3284 11 17 11.6716 17 12.5C17 13.3284 16.3284 14 15.5 14H8.5C7.67157 14 7 13.3284 7 12.5Z" fill="white"/>
</svg>
