<svg width="24" height="24" viewBox="0 0 24 24" fill="none" xmlns="http://www.w3.org/2000/svg">
    <path fill-rule="evenodd" clip-rule="evenodd"
          d="M8.50012 11C7.6717 11 7.00012 11.6716 7.00012 12.5C7.00012 13.3284 7.67169 14 8.50012 14H15.5001C16.3285 14 17.0001 13.3284 17.0001 12.5C17.0001 11.6716 16.3286 11 15.5001 11H8.50012ZM10.0001 12.5C10.0001 13.0523 9.55241 13.5 9.00012 13.5C8.44784 13.5 8.00012 13.0523 8.00012 12.5C8.00012 11.9477 8.44784 11.5 9.00012 11.5C9.55241 11.5 10.0001 11.9477 10.0001 12.5ZM15.0001 13.5C15.5524 13.5 16.0001 13.0523 16.0001 12.5C16.0001 11.9477 15.5524 11.5 15.0001 11.5C14.4478 11.5 14.0001 11.9477 14.0001 12.5C14.0001 13.0523 14.4478 13.5 15.0001 13.5Z"
          fill="#1899CD"/>
    <path fill-rule="evenodd" clip-rule="evenodd"
          d="M12.0001 22C17.523 22 22.0001 17.5228 22.0001 12C22.0001 6.47715 17.523 2 12.0001 2C6.47727 2 2.00012 6.47715 2.00012 12C2.00012 17.5228 6.47727 22 12.0001 22ZM12.0001 17C15.8661 17 19.0001 14.9853 19.0001 12.5V8.5C19.0001 8.22386 18.7763 8 18.5001 8C18.224 8 18.0001 8.22386 18.0001 8.5V9.52255C16.9493 8.10191 15.023 7 12.0001 7C8.97725 7 7.05091 8.10191 6.00012 9.52255V8.5C6.00012 8.22386 5.77626 8 5.50012 8C5.22398 8 5.00012 8.22386 5.00012 8.5V12.5C5.00012 14.9853 8.13413 17 12.0001 17Z"
          fill="#1899CD"/>
</svg>
