<svg width="24" height="24" viewBox="0 0 24 24" xmlns="http://www.w3.org/2000/svg">
<path fill-rule="evenodd" clip-rule="evenodd" d="M8 13C9.65685 13 11 14.3431 11 16V19C11 20.6569 9.65685 22 8 22H5C3.34315 22 2 20.6569 2 19V16C2 14.3431 3.34315 13 5 13H8ZM5 15H8C8.55229 15 9 15.4477 9 16V19C9 19.5523 8.55228 20 8 20H5C4.44772 20 4 19.5523 4 19V16C4 15.4477 4.44772 15 5 15Z"/>
<path fill-rule="evenodd" clip-rule="evenodd" d="M8 2C9.65685 2 11 3.34315 11 5V8C11 9.65685 9.65685 11 8 11H5C3.34315 11 2 9.65685 2 8V5C2 3.34315 3.34315 2 5 2H8ZM5 4H8C8.55229 4 9 4.44772 9 5V8C9 8.55228 8.55228 9 8 9H5C4.44772 9 4 8.55228 4 8V5C4 4.44771 4.44772 4 5 4Z"/>
<path fill-rule="evenodd" clip-rule="evenodd" d="M19 13C20.6569 13 22 14.3431 22 16V19C22 20.6569 20.6569 22 19 22H16C14.3431 22 13 20.6569 13 19V16C13 14.3431 14.3431 13 16 13H19ZM16 15H19C19.5523 15 20 15.4477 20 16V19C20 19.5523 19.5523 20 19 20H16C15.4477 20 15 19.5523 15 19V16C15 15.4477 15.4477 15 16 15Z"/>
<path fill-rule="evenodd" clip-rule="evenodd" d="M19 2C20.6569 2 22 3.34315 22 5V8C22 9.65685 20.6569 11 19 11H16C14.3431 11 13 9.65685 13 8V5C13 3.34315 14.3431 2 16 2H19ZM16 4H19C19.5523 4 20 4.44772 20 5V8C20 8.55228 19.5523 9 19 9H16C15.4477 9 15 8.55228 15 8V5C15 4.44771 15.4477 4 16 4Z"/>
</svg>
