<svg viewBox="0 0 24 24" xmlns="http://www.w3.org/2000/svg">
    <path fill-rule="evenodd" clip-rule="evenodd"
          d="M16.3888 2.53503C16.3888 2.23695 16.6281 1.9953 16.9233 1.9953H21.6623C21.9575 1.9953 22.1969 2.23695 22.1969 2.53503V7.75042C22.1969 7.97062 22.0644 8.16873 21.8621 8.25103C21.6598 8.33333 21.4283 8.28331 21.2771 8.12464L20.2404 7.03684H19.8081V8.47815C19.8081 8.77623 19.5688 9.01788 19.2735 9.01788H15.9564L14.9198 10.1057C14.7686 10.2644 14.5371 10.3144 14.3348 10.2321C14.1325 10.1498 14 9.95165 14 9.73146V4.51607C14 4.21799 14.2393 3.97634 14.5346 3.97634H16.3888V2.53503ZM16.3888 5.0558H15.0692V8.39205L15.3437 8.10393C15.4445 7.99818 15.5836 7.93842 15.729 7.93842H18.739V7.03684H16.9233C16.6281 7.03684 16.3888 6.79519 16.3888 6.49711V5.0558ZM19.8081 5.95738V4.51607C19.8081 4.21799 19.5688 3.97634 19.2735 3.97634H17.4579V3.07476H21.1277V6.41101L20.8531 6.12289C20.7524 6.01714 20.6133 5.95738 20.4679 5.95738H19.8081ZM18.739 5.95738H17.4579V5.0558H18.739V5.95738Z"/>
    <path d="M9.39964 3.09665C7.91438 1.62821 5.60827 1.62821 4.12302 3.09665L3.42124 3.79048C2.35115 4.84845 1.69091 6.53743 2.14584 8.29332C2.51027 10.1205 3.30194 12.0364 4.50581 13.8479C4.81863 14.3186 5.46709 14.399 5.9085 14.0461C6.33029 13.7088 6.40568 13.0996 6.11 12.6477C5.07306 11.0628 4.40455 9.41254 4.10196 7.87563C4.09767 7.85386 4.09266 7.83224 4.08694 7.8108C3.82621 6.83447 4.18471 5.84811 4.82738 5.21272L5.52916 4.51889C6.23525 3.82079 7.28741 3.82079 7.9935 4.51889L9.19655 5.70832C9.45095 5.95984 9.56854 6.26275 9.5586 6.56736C9.54863 6.87312 9.40888 7.20898 9.0963 7.51802L8.29426 8.31098C8.16411 8.43965 8.06828 8.59863 8.01793 8.77168C7.95604 8.98438 7.96653 9.21162 8.04775 9.41772C8.56777 10.7372 9.48869 12.0434 10.7004 13.2414C11.8074 14.3359 13.2047 15.23 14.5069 15.8336C14.7675 15.9543 15.0674 15.9573 15.3302 15.8416C15.4416 15.7926 15.5539 15.7201 15.6549 15.6203L16.5571 14.7282C17.0627 14.2283 17.8141 14.2283 18.3197 14.7282L19.5166 15.9115C19.818 16.2554 19.9752 16.7127 19.9978 17.1821C20.02 17.6445 19.9107 18.0993 19.7019 18.4423L19.0215 19.115C18.279 19.849 17.3568 20.1247 16.3279 19.9397L16.3254 19.9392C15.4017 19.7632 14.4371 19.4465 13.4695 19.0027C12.9719 18.7744 12.3722 18.9467 12.1061 19.4252C11.8352 19.9123 12.0134 20.53 12.5183 20.7663C13.6643 21.3027 14.8247 21.6898 15.9567 21.905L15.9741 21.9081C17.6267 22.2052 19.2103 21.7408 20.4276 20.5372L21.1294 19.8434C21.2235 19.7504 21.3067 19.6469 21.3775 19.5349C21.8437 18.7976 22.0353 17.9142 21.9954 17.0859C21.9552 16.2507 21.6712 15.3283 21.0089 14.5799C20.9832 14.5508 20.9565 14.5226 20.9289 14.4954L19.7258 13.3059C18.4411 12.0357 16.4357 12.0357 15.151 13.3059L14.7373 13.7149C13.7961 13.2136 12.8562 12.5604 12.1065 11.8191C11.2447 10.9671 10.5972 10.0975 10.1724 9.26661L10.5024 8.94026C11.1223 8.32746 11.5284 7.52437 11.5575 6.63258C11.5869 5.73396 11.2259 4.90222 10.6027 4.28608L9.39964 3.09665Z"/>
    <path d="M8 14C8.55228 14 9 14.4477 9 15V18.5858L9.29289 18.2929C9.68342 17.9024 10.3166 17.9024 10.7071 18.2929C11.0976 18.6834 11.0976 19.3166 10.7071 19.7071L8.70711 21.7071C8.63037 21.7838 8.54424 21.8455 8.45242 21.892C8.31657 21.9611 8.16283 22 8 22C7.7238 22 7.47345 21.8877 7.29248 21.7067L5.29289 19.7071C4.90237 19.3166 4.90237 18.6834 5.29289 18.2929C5.68342 17.9024 6.31658 17.9024 6.70711 18.2929L7 18.5858V15C7 14.4477 7.44772 14 8 14Z"/>
</svg>
