<svg width="24" height="24" viewBox="0 0 24 24" fill="none" xmlns="http://www.w3.org/2000/svg">
<path d="M6 19C6 19.5523 6.44772 20 7 20H14.5C18.0899 20 21 17.0899 21 13.5C21 9.91015 18.0899 7 14.5 7H7.10615C7.25938 6.80984 7.4003 6.6138 7.52214 6.41698C7.75379 6.04278 8 5.53415 8 5C8 4.44771 7.55228 4 7 4C6.44772 4 6 4.44771 6 5C6 4.99152 5.99977 4.99232 5.99675 5.00262C5.9876 5.03382 5.95288 5.15222 5.82161 5.36427C5.66713 5.61382 5.43786 5.89792 5.16789 6.16789C4.89792 6.43786 4.61382 6.66713 4.36427 6.82161C4.15222 6.95288 4.03382 6.9876 4.00262 6.99675C3.99233 6.99976 3.99153 7 4 7C3.44772 7 3 7.44771 3 8C3 8.55229 3.44772 9 4 9C3.99153 9 3.99232 9.00023 4.00261 9.00325C4.03381 9.0124 4.15222 9.04712 4.36427 9.17839C4.61382 9.33287 4.89792 9.56214 5.16789 9.83211C5.43786 10.1021 5.66713 10.3862 5.82161 10.6357C5.95288 10.8478 5.9876 10.9662 5.99675 10.9974C5.99977 11.0077 6 11.0085 6 11C6 11.5523 6.44772 12 7 12C7.55228 12 8 11.5523 8 11C8 10.4658 7.75379 9.95722 7.52214 9.58302C7.4003 9.3862 7.25938 9.19016 7.10615 9H14.5C16.9853 9 19 11.0147 19 13.5C19 15.9853 16.9853 18 14.5 18H7C6.44772 18 6 18.4477 6 19Z" fill="currentColor"/>
</svg>
