<svg viewBox="0 0 24 24" xmlns="http://www.w3.org/2000/svg">
<path fill-rule="evenodd" clip-rule="evenodd" d="M13.0988 3.66504C12.4511 3.25822 11.6282 3.25636 10.9787 3.66024L4.94383 7.41318C4.35688 7.77819 4 8.42038 4 9.11156V15.4153C4 16.0929 4.34304 16.7243 4.91144 17.0931L10.9114 20.9859C11.5736 21.4155 12.4264 21.4155 13.0886 20.9859L19.0886 17.0931C19.657 16.7243 20 16.0929 20 15.4153V9.10565C20 8.41769 19.6464 7.77801 19.0638 7.41207L13.0988 3.66504ZM12.0349 5.35862L7.78725 8.00012L12.0349 10.6416L16.2401 8.00012L12.0349 5.35862ZM6 15.4153V9.24387L11 12.3532V18.6593L6 15.4153ZM13 18.6593L18 15.4153V9.25644L13 12.3972V18.6593Z"/>
</svg>
