<svg viewBox="0 0 24 24" xmlns="http://www.w3.org/2000/svg">
    <path d="M3.70711 2.29289C3.31658 1.90237 2.68342 1.90237 2.29289 2.29289C1.90237 2.68342 1.90237 3.31658 2.29289 3.70711L20.2929 21.7071C20.6834 22.0976 21.3166 22.0976 21.7071 21.7071C22.0976 21.3166 22.0976 20.6834 21.7071 20.2929L3.70711 2.29289Z"/>
    <path d="M15.9293 12.7331C16.0533 12.9677 16.163 13.2004 16.258 13.4296L10.5704 7.74198C10.7996 7.83695 11.0323 7.9467 11.2669 8.07067L15.3788 2.63243C15.4314 2.5388 15.4955 2.45342 15.5716 2.37738C16.4309 1.51803 18.4821 2.17597 20.1531 3.84691C21.824 5.51786 22.482 7.56906 21.6226 8.42841C21.5466 8.50445 21.4612 8.56862 21.3676 8.62125L15.9293 12.7331Z"/>
    <path d="M8.48746 13.8907C7.17091 12.3049 6.44904 10.6041 6.49274 9.32117L14.6788 17.5073C13.3959 17.551 11.6951 16.8291 10.1093 15.5125L2 22L8.48746 13.8907Z"/>
</svg>
