<svg viewBox="0 0 24 24" xmlns="http://www.w3.org/2000/svg">
<path d="M4.1194 10.576C4.95496 6.58913 8.16597 4.01977 11.9468 4.01977C14.2045 4.01977 16.2449 4.95509 17.7051 6.46118C18.0822 6.85014 18.6859 6.95051 19.129 6.63961C19.5972 6.31103 19.7043 5.65379 19.316 5.23299C17.4808 3.24454 14.8584 2.00012 11.9468 2.00012C7.11038 2.00012 3.11248 5.34885 2.12975 10.2775L1.57704 10.1946C1.21818 10.1408 0.922597 10.4752 1.01816 10.827L2.03211 14.5592C2.14587 14.9779 2.69759 15.0667 2.93587 14.7047L5.08035 11.4464C5.28308 11.1384 5.09893 10.723 4.73548 10.6685L4.1194 10.576Z" />
<path d="M19.8806 13.4242C19.045 17.4111 15.834 19.9805 12.0532 19.9805C9.79546 19.9805 7.75512 19.0452 6.29491 17.5391C5.91781 17.1501 5.31406 17.0497 4.871 17.3606C4.40275 17.6892 4.29566 18.3465 4.68403 18.7673C6.51925 20.7557 9.1416 22.0001 12.0532 22.0001C16.8896 22.0001 20.8875 18.6514 21.8703 13.7227L22.423 13.8056C22.7818 13.8595 23.0774 13.525 22.9818 13.1733L21.9679 9.44109C21.8541 9.02235 21.3024 8.9335 21.0641 9.29553L18.9196 12.5539C18.7169 12.8619 18.9011 13.2772 19.2645 13.3318L19.8806 13.4242Z" />
<path fill-rule="evenodd" clip-rule="evenodd" d="M10.6997 7.55079C9.95711 6.81657 8.80409 6.81657 8.06148 7.55079L7.7106 7.89771C7.17557 8.4267 6.84546 9.27119 7.07292 10.1491C7.36548 11.616 8.20874 13.1972 9.57157 14.4932C10.8738 15.7785 12.4761 16.6694 13.9782 16.955L13.9868 16.9566C14.8131 17.1051 15.6049 16.8729 16.2135 16.2711L16.5644 15.9242C16.6115 15.8777 16.6531 15.826 16.6885 15.77C16.9215 15.4013 17.0174 14.9596 16.9974 14.5454C16.9773 14.1278 16.8353 13.6666 16.5042 13.2924C16.4913 13.2779 16.478 13.2638 16.4642 13.2502L15.8627 12.6555C15.2203 12.0204 14.2177 12.0204 13.5753 12.6555L13.3685 12.8599C12.8979 12.6093 12.428 12.2827 12.0531 11.9121C11.6222 11.486 11.2985 11.0512 11.0861 10.6358L11.2511 10.4726C11.561 10.1662 11.7641 9.76466 11.7786 9.31876C11.7933 8.86945 11.6128 8.45358 11.3012 8.14551L10.6997 7.55079Z" />
</svg>
