<svg viewBox="0 0 32 32" xmlns="http://www.w3.org/2000/svg">
    <path d="M15.667 4.667c-3.148 0-5.704 1.968-6.645 4.763-0.015 0.049-0.034 0.097-0.057 0.142-0.064 0.132-0.156 0.245-0.265 0.335-0.151 0.123-0.335 0.201-0.53 0.221-2.693 0.347-4.837 2.719-4.837 5.538 0 3.181 2.486 5.667 5.667 5.667 0.552 0 1 0.448 1 1s-0.448 1-1 1c-4.286 0-7.667-3.381-7.667-7.667 0-3.626 2.595-6.701 5.997-7.423 1.345-3.29 4.51-5.577 8.336-5.577 4.639 0 8.484 3.552 8.952 8.072 3.037 0.462 5.381 3.099 5.381 6.262 0 3.486-2.848 6.333-6.333 6.333-0.552 0-1-0.448-1-1s0.448-1 1-1c2.381 0 4.333-1.952 4.333-4.333s-1.952-4.333-4.333-4.333c-0.552 0-1-0.448-1-1 0-3.848-3.152-7-7-7zM11.626 17.707c0.391 0.391 1.024 0.391 1.414 0l2.293-2.293v13.586c0 0.552 0.448 1 1 1s1-0.448 1-1v-13.586l2.293 2.293c0.391 0.391 1.024 0.391 1.414 0s0.391-1.024 0-1.414l-4-4c-0.096-0.096-0.206-0.168-0.324-0.217s-0.245-0.075-0.38-0.076h-0.006c-0.255 0.001-0.51 0.098-0.704 0.293l-4 4c-0.391 0.391-0.391 1.024 0 1.414z"></path>
</svg>
