<svg viewBox="0 0 24 24" xmlns="http://www.w3.org/2000/svg">
    <path fill-rule="evenodd" clip-rule="evenodd" d="M12 4C10.0181 4 8.38792 5.17946 7.69143 6.88619C7.56628 7.19288 7.29738 7.41769 6.97337 7.48653C5.2921 7.84373 4 9.37617 4 11.1774C4 13.3226 5.67696 15 7.81395 15C8.36624 15 8.81395 15.4477 8.81395 16C8.81395 16.5523 8.36624 17 7.81395 17C4.56901 17 2 14.4238 2 11.1774C2 8.59983 3.71529 6.39186 6.05171 5.66263C7.14127 3.48306 9.36157 2 12 2C15.1838 2 17.8548 4.26129 18.5018 7.25771C20.5249 7.8911 22 9.786 22 12.0161C22 14.7593 19.7659 17 17.0233 17C16.471 17 16.0233 16.5523 16.0233 16C16.0233 15.4477 16.471 15 17.0233 15C18.6579 15 20 13.6581 20 12.0161C20 10.5286 18.8967 9.28345 17.4704 9.06601C17.0202 8.99738 16.6733 8.63322 16.6264 8.18023C16.3845 5.83898 14.3926 4 12 4Z"/>
    <path d="M11.9146 6.0036C11.7254 6.01961 11.5511 6.0883 11.4067 6.19496C11.3964 6.20254 11.3862 6.21033 11.3762 6.21833L11.3621 6.22969C11.2809 6.29681 11.2122 6.37536 11.1571 6.46172C11.1338 6.49819 11.1127 6.53627 11.0942 6.57576C10.988 6.79005 10.9006 6.99207 10.8125 7.19575C10.6324 7.61196 10.4494 8.03517 10.0963 8.58446C9.60834 9.34345 8.83095 10.2444 7.44524 11.1682C6.98572 11.4745 6.86154 12.0954 7.1679 12.5549C7.47425 13.0144 8.09512 13.1386 8.55464 12.8323C9.61983 12.1221 10.4056 11.402 11 10.7096V21C11 21.5523 11.4477 22 12 22C12.5523 22 13 21.5523 13 21V10.7098C13.5943 11.4022 14.3801 12.1222 15.4452 12.8323C15.9047 13.1386 16.5256 13.0144 16.8319 12.5549C17.1383 12.0954 17.0141 11.4745 16.5546 11.1682C15.1689 10.2444 14.3915 9.34345 13.9036 8.58446C13.5505 8.03516 13.3674 7.61196 13.1874 7.19575C13.1 6.9938 13.0134 6.79348 12.9084 6.58121C12.8768 6.51282 12.8377 6.44859 12.7922 6.3896C12.7487 6.33313 12.6989 6.2809 12.643 6.23411C12.4851 6.10143 12.2857 6.01666 12.0669 6.00221" />
    <path d="M11.9999 6C11.9715 5.99998 11.943 6.00117 11.9146 6.0036L11.9999 6Z" />
</svg>
