<svg viewBox="0 0 24 24" xmlns="http://www.w3.org/2000/svg">
<path fill-rule="evenodd" clip-rule="evenodd" d="M14.011 7C14.011 8.10457 13.1107 9 12 9C10.8893 9 9.98898 8.10457 9.98898 7C9.98898 5.89543 10.8893 5 12 5C13.1107 5 14.011 5.89543 14.011 7ZM16.022 7C16.022 9.20914 14.2213 11 12 11C9.77869 11 7.97796 9.20914 7.97796 7C7.97796 4.79086 9.77869 3 12 3C14.2213 3 16.022 4.79086 16.022 7ZM18.9677 21.003C18.4811 17.6092 15.5469 15 12 15C8.45307 15 5.51891 17.6092 5.03229 21.003C4.95389 21.5497 4.51126 22 3.95593 22C3.4006 22 2.94455 21.5506 3.00547 21.0016C3.50492 16.5009 7.34137 13 12 13C16.6586 13 20.4951 16.5009 20.9945 21.0016C21.0554 21.5506 20.5994 22 20.0441 22C19.4887 22 19.0461 21.5497 18.9677 21.003Z"/>
</svg>
