<svg viewBox="0 0 32 32" xmlns="http://www.w3.org/2000/svg">
    <path d="M15.838 5.667c-2.835 0-5.133 2.298-5.133 5.133s2.298 5.133 5.133 5.133c2.835 0 5.133-2.298 5.133-5.133s-2.298-5.133-5.133-5.133zM12.704 10.8c0-1.73 1.403-3.133 3.133-3.133s3.133 1.403 3.133 3.133-1.403 3.133-3.133 3.133c-1.73 0-3.133-1.403-3.133-3.133z"></path>
    <path d="M15.838 16.333c-4.126 0-7.825 2.499-9.319 6.206-1.112 2.455 0.806 4.994 3.319 4.994h12c2.515 0 4.435-2.544 3.316-5.001-1.487-3.549-5.169-6.199-9.316-6.199zM8.366 23.305c1.179-2.947 4.14-4.971 7.472-4.971 3.313 0 6.292 2.142 7.477 4.985 0.003 0.007 0.006 0.015 0.009 0.022 0.002 0.004 0.004 0.008 0.006 0.013 0.463 1.004-0.28 2.181-1.492 2.181h-12c-1.212 0-1.955-1.177-1.492-2.181 0.007-0.016 0.014-0.032 0.021-0.048z"></path>
</svg>
