<svg viewBox="0 0 24 24" xmlns="http://www.w3.org/2000/svg">
    <path d="M8 5.00352C8 4.4258 7.93106 3.36238 7.07714 2.62073C6.29738 1.9435 5.30612 1.99776 5.20758 2.00316L5.2 2.00352H4.8L4.79243 2.00316C4.69388 1.99776 3.70263 1.9435 2.92287 2.62073C2.06894 3.36237 2 4.4258 2 5.00352V19.0035C2 19.5812 2.06894 20.6447 2.92286 21.3863C3.70262 22.0635 4.69388 22.0093 4.79242 22.0039L4.8 22.0035H5.2L5.20757 22.0039C5.30612 22.0093 6.29738 22.0635 7.07714 21.3863C7.93106 20.6447 8 19.5812 8 19.0035L8 17.0034C8 16.4511 7.55228 16.0034 7 16.0034C6.44771 16.0034 6 16.4511 6 17.0034L6 19.0035C6 19.0309 5.99973 19.0576 5.99919 19.0835C5.98018 19.998 5.62964 20.0035 5.2 20.0035H4.8C4.37036 20.0035 4.01982 19.998 4.00081 19.0835C4.00027 19.0576 4 19.0309 4 19.0035V5.00352C4 4.9761 4.00027 4.94944 4.00081 4.92351C4.01982 4.00909 4.37036 4.00352 4.8 4.00352H5.2C5.62964 4.00352 5.98018 4.00909 5.99919 4.92351C5.99973 4.94944 6 4.9761 6 5.00352V7.00342C6 7.5557 6.44772 8.00342 7 8.00342C7.55229 8.00342 8 7.5557 8 7.00342L8 5.00352Z"/>
    <path d="M9 18.0034C9 17.4511 9.44772 17.0034 10 17.0034C10.5523 17.0034 11 17.4511 11 18.0034V19.0035C11 19.0309 11.0003 19.0576 11.0008 19.0835C11.0198 19.998 11.3704 20.0035 11.8 20.0035H12.2C12.6296 20.0035 12.9802 19.998 12.9992 19.0835C12.9997 19.0576 13 19.0309 13 19.0035V18.0034C13 17.4511 13.4477 17.0034 14 17.0034C14.5523 17.0034 15 17.4511 15 18.0034V19.0035C15 19.5812 14.9311 20.6447 14.0771 21.3863C13.2974 22.0635 12.3061 22.0093 12.2076 22.0039L12.2 22.0035H11.8L11.7924 22.0039C11.6939 22.0093 10.7026 22.0635 9.92286 21.3863C9.06894 20.6447 9 19.5812 9 19.0035V18.0034Z"/>
    <path d="M13 6.00342C13 6.5557 13.4477 7.00342 14 7.00342C14.5523 7.00342 15 6.5557 15 6.00342V5.00352C15 4.4258 14.9311 3.36238 14.0771 2.62073C13.2974 1.9435 12.3061 1.99776 12.2076 2.00316L12.2 2.00352H11.8L11.7924 2.00316C11.6939 1.99776 10.7026 1.9435 9.92287 2.62073C9.06894 3.36237 9 4.4258 9 5.00352V6.00342C9 6.5557 9.44772 7.00342 10 7.00342C10.5523 7.00342 11 6.5557 11 6.00342V5.00352C11 4.9761 11.0003 4.94944 11.0008 4.92351C11.0198 4.00909 11.3704 4.00352 11.8 4.00352H12.2C12.6296 4.00352 12.9802 4.00909 12.9992 4.92351C12.9997 4.94944 13 4.9761 13 5.00352V6.00342Z"/>
    <path d="M16 17.0034C16 16.4511 16.4477 16.0034 17 16.0034C17.5523 16.0034 18 16.4511 18 17.0034V19.0035C18 19.0309 18.0003 19.0576 18.0008 19.0835C18.0198 19.998 18.3704 20.0035 18.8 20.0035H19.2C19.6296 20.0035 19.9802 19.998 19.9992 19.0835C19.9995 19.0679 19.9997 19.052 19.9999 19.0359L20 19.0035V5.00352C20 4.9761 19.9997 4.94944 19.9992 4.92351C19.9802 4.00909 19.6296 4.00352 19.2 4.00352H18.8C18.3704 4.00352 18.0198 4.00909 18.0008 4.92351C18.0003 4.94944 18 4.9761 18 5.00352V7.00342C18 7.5557 17.5523 8.00342 17 8.00342C16.4477 8.00342 16 7.5557 16 7.00342V5.00352C16 4.4258 16.0689 3.36237 16.9229 2.62073C17.7026 1.9435 18.6939 1.99776 18.7924 2.00316L18.8 2.00352H19.2L19.2076 2.00316C19.3061 1.99776 20.2974 1.9435 21.0771 2.62073C21.9311 3.36238 22 4.4258 22 5.00352L22 19.0035C22 19.5812 21.9311 20.6447 21.0771 21.3863C20.2974 22.0635 19.3061 22.0093 19.2076 22.0039L19.2 22.0035H18.8L18.7924 22.0039C18.6939 22.0093 17.7026 22.0635 16.9229 21.3863C16.0689 20.6447 16 19.5812 16 19.0035V17.0034Z"/>
    <path d="M8.70744 10.7071C9.09797 10.3166 9.09797 9.68342 8.70744 9.29289C8.31692 8.90237 7.68375 8.90237 7.29323 9.29289L6.00034 10.5858C5.21929 11.3668 5.21929 12.6332 6.00034 13.4142L7.29323 14.7071C7.68375 15.0976 8.31692 15.0976 8.70744 14.7071C9.09797 14.3166 9.09797 13.6834 8.70744 13.2929L7.41455 12L8.70744 10.7071Z"/>
    <path d="M15.293 9.29289C14.9025 9.68342 14.9025 10.3166 15.293 10.7071L16.5859 12L15.293 13.2929C14.9025 13.6834 14.9025 14.3166 15.293 14.7071C15.6836 15.0976 16.3167 15.0976 16.7073 14.7071L18.0002 13.4142C18.7812 12.6332 18.7812 11.3668 18.0002 10.5858L16.7073 9.29289C16.3167 8.90237 15.6836 8.90237 15.293 9.29289Z"/>
    <path d="M11.0002 13C10.448 13 10.0002 13.4477 10.0002 14C10.0002 14.5523 10.448 15 11.0002 15H13.0002C13.5525 15 14.0002 14.5523 14.0002 14C14.0002 13.4477 13.5525 13 13.0002 13H11.0002Z"/>
</svg>
