<svg viewBox="0 0 24 24" xmlns="http://www.w3.org/2000/svg">
<path fill-rule="evenodd" clip-rule="evenodd" d="M11 2H14.1716C14.702 2 15.2107 2.21071 15.5858 2.58579L21.4142 8.41421C21.7893 8.78929 22 9.29799 22 9.82843V14C22 15.1046 21.1046 16 20 16H11C9.89543 16 9 15.1046 9 14V4C9 2.89543 9.89543 2 11 2ZM16 5.82843L18.1716 8H17C16.4477 8 16 7.55228 16 7V5.82843ZM11 4H14V7C14 8.65685 15.3431 10 17 10H20V14H11V4Z" />
<path d="M10 17C8.89543 17 8 16.1046 8 15V6C8 5.44772 7.55228 5 7 5C6.44772 5 6 5.44772 6 6V17C6 18.1046 6.89543 19 8 19H18C18.5523 19 19 18.5523 19 18C19 17.4477 18.5523 17 18 17H10Z" />
<path d="M7 20C5.89543 20 5 19.1046 5 18V9C5 8.44772 4.55228 8 4 8C3.44772 8 3 8.44772 3 9V20C3 21.1046 3.89543 22 5 22H15C15.5523 22 16 21.5523 16 21C16 20.4477 15.5523 20 15 20H7Z" />
</svg>
