<svg viewBox="0 0 32 32" xmlns="http://www.w3.org/2000/svg">
    <path d="M22.665 16l4.668 3.504v-7.008l-4.668 3.504zM21.333 20.667v-9.333c0-1.105-0.895-2-2-2h-12c-1.105 0-2 0.895-2 2v9.333c0 1.105 0.895 2 2 2h12c1.105 0 2-0.895 2-2zM23.257 21.446c-0.363 1.836-1.982 3.221-3.924 3.221h-12c-2.209 0-4-1.791-4-4v-9.333c0-2.209 1.791-4 4-4h12c1.943 0 3.562 1.385 3.924 3.221 0.050 0.252 0.076 0.513 0.076 0.779v1.664l3.866-2.902c0.879-0.66 2.134-0.033 2.134 1.066v9.675c0 1.099-1.255 1.726-2.134 1.066l-3.866-2.902v1.664c0 0.267-0.026 0.527-0.076 0.779z"></path>
    <path fill="#f44" style="fill: #f44" d="M11.736 12.84l1.496 1.491 1.496-1.491c0.458-0.457 1.201-0.457 1.659 0s0.458 1.198 0 1.654l-1.501 1.497 1.499 1.495c0.458 0.457 0.458 1.198 0 1.655s-1.201 0.457-1.659 0l-1.494-1.49-1.494 1.49c-0.458 0.457-1.201 0.457-1.659 0s-0.458-1.198 0-1.655l1.499-1.495-1.501-1.497c-0.458-0.457-0.458-1.198 0-1.654s1.201-0.457 1.659 0z"></path>
</svg>
