<svg viewBox="0 0 64 64" xmlns="http://www.w3.org/2000/svg">
    <path fill-rule="evenodd" clip-rule="evenodd" d="M38.1536 49.3335C41.644 49.3335 44.6267 47.2091 45.8125 44.2137C45.9803 43.7897 46.1109 43.3461 46.2031 42.8908C46.305 42.3871 46.3594 41.8664 46.3594 41.3335V38.0054L54.289 43.8075C56.092 45.1269 58.6666 43.8726 58.6666 41.6747V22.3257C58.6666 20.1278 56.092 18.8736 54.289 20.1929L46.3594 25.995V22.6669C46.3594 22.134 46.305 21.6133 46.2031 21.1096C46.1109 20.6543 45.9803 20.2107 45.8125 19.7867C44.6267 16.7913 41.644 14.6669 38.1536 14.6669H13.539C9.00747 14.6669 5.33331 18.2486 5.33331 22.6669V41.3335C5.33331 45.7518 9.00747 49.3335 13.539 49.3335H38.1536ZM31.9974 38.6669C31.081 39.5806 29.5935 39.5806 28.6771 38.6669L25.6901 35.6877L22.7031 38.6669C21.7867 39.5806 20.2992 39.5806 19.3828 38.6669C18.4666 37.7531 18.4665 36.2706 19.3828 35.357L22.3828 32.3674L19.3802 29.3752C18.4638 28.4615 18.4638 26.979 19.3802 26.0653C20.2965 25.1521 21.7816 25.1521 22.6979 26.0653L25.6901 29.0497L28.6823 26.0653C29.5987 25.1523 31.0838 25.152 32 26.0653C32.9164 26.979 32.9164 28.4615 32 29.3752L28.9974 32.3674L31.9974 35.357C32.9136 36.2706 32.9133 37.7531 31.9974 38.6669Z" />
</svg>
