<svg viewBox="0 0 24 24" xmlns="http://www.w3.org/2000/svg">
<path fill-rule="evenodd" clip-rule="evenodd" d="M17.6943 12L20 10.3127V13.6873L17.6943 12ZM15.3846 15.5C15.3846 15.5658 15.378 15.6283 15.3661 15.6875C15.2792 16.1163 14.8665 16.5 14.3077 16.5H5.07692C4.43412 16.5 4 16.0049 4 15.5V8.5C4 7.99515 4.43412 7.5 5.07692 7.5L14.3077 7.5C14.8665 7.5 15.2792 7.88373 15.3661 8.31254C15.378 8.37173 15.3846 8.43417 15.3846 8.5V15.5ZM17.3846 9.74834V8.5C17.3846 8.30001 17.3645 8.10458 17.3263 7.91554C17.2917 7.7448 17.2422 7.57926 17.1793 7.42026C16.7347 6.29691 15.6166 5.5 14.3077 5.5L5.07692 5.5C3.37759 5.5 2 6.84315 2 8.5V15.5C2 17.1569 3.37759 18.5 5.07692 18.5H14.3077C15.6166 18.5 16.7347 17.7031 17.1793 16.5797C17.2422 16.4207 17.2917 16.2552 17.3263 16.0845C17.3645 15.8954 17.3846 15.7 17.3846 15.5V14.2517L20.3587 16.4281C21.0348 16.9228 22 16.4525 22 15.6283V8.37172C22 7.54751 21.0348 7.07718 20.3587 7.57194L17.3846 9.74834Z"/>
</svg>
