<svg viewBox="0 0 24 24"  xmlns="http://www.w3.org/2000/svg">
<path fill-rule="evenodd" clip-rule="evenodd" d="M12.9315 3.55364C12.5136 2.81545 11.4864 2.81545 11.0685 3.55364L2.15085 19.3075C1.72706 20.0562 2.24651 21 3.08236 21H20.9176C21.7535 21 22.2729 20.0562 21.8491 19.3075L12.9315 3.55364ZM13 10C13 9.44772 12.5523 9 12 9C11.4477 9 11 9.44772 11 10V14C11 14.5523 11.4477 15 12 15C12.5523 15 13 14.5523 13 14V10ZM12 16.5C12.5523 16.5 13 16.9477 13 17.5V18C13 18.5523 12.5523 19 12 19C11.4477 19 11 18.5523 11 18V17.5C11 16.9477 11.4477 16.5 12 16.5Z"/>
</svg>
