<svg viewBox="0 0 24 24" xmlns="http://www.w3.org/2000/svg">
<path d="M12.9999 10C12.9999 9.44775 12.5527 9 11.9999 9C11.4472 9 10.9999 9.44775 10.9999 10V13C10.9999 13.5522 11.4472 14 11.9999 14C12.5527 14 12.9999 13.5522 12.9999 13V10Z" />
<path d="M11.9999 15.5C12.5527 15.5 12.9999 15.9478 12.9999 16.5V17C12.9999 17.5522 12.5527 18 11.9999 18C11.4472 18 10.9999 17.5522 10.9999 17V16.5C10.9999 15.9478 11.4472 15.5 11.9999 15.5Z" />
<path fill-rule="evenodd" clip-rule="evenodd" d="M11.0685 3.55364C11.4864 2.81545 12.5136 2.81545 12.9315 3.55364L21.8491 19.3075C22.2729 20.0562 21.7535 21 20.9176 21H3.08236C2.24651 21 1.72706 20.0562 2.15085 19.3075L11.0685 3.55364ZM4.62313 19L12 5.96803L19.3769 19H4.62313Z" />
</svg>
