<svg viewBox="0 0 24 24" xmlns="http://www.w3.org/2000/svg">
    <path d="M20.8877 10.6113C21.2936 10.2675 21.4738 9.72554 21.3547 9.20674L21.2284 8.65711C21.1097 8.1402 20.7135 7.73242 20.2008 7.59931L2.5651 3.02104C1.96996 2.86654 1.53736 3.59791 1.94112 4.07596L7.9352 11.1731C8.44168 11.7727 9.33776 11.8478 9.93665 11.3406L14.0573 7.85113C14.6562 7.34398 15.5523 7.41899 16.0588 8.01867L18.4319 10.8285C18.9384 11.4282 19.8345 11.5032 20.4334 10.996L20.8877 10.6113Z" fill="url(#paint0_linear_11821_4528)"/>
    <path d="M3.15862 17.881L0.0347845 8.11559C-0.179907 7.44445 0.651318 6.95324 1.10091 7.48557L7.60057 15.1813C8.10705 15.7809 9.00313 15.856 9.60202 15.3488L13.7227 11.8593C14.3216 11.3522 15.2177 11.4272 15.7241 12.0269L22.3924 19.9222C22.8257 20.4352 22.2984 21.2039 21.6874 20.9499L17.0965 19.0417C16.8851 18.9539 16.6556 18.9185 16.4276 18.9385L6.11233 19.8466C4.79002 19.963 3.56354 19.1468 3.15862 17.881Z" fill="url(#paint1_linear_11821_4528)"/>
    <path d="M21.8834 14.9448C22.678 15.7203 24 15.1482 24 14.0288C24 12.9091 22.6773 12.3372 21.8828 13.1134C21.3711 13.6133 21.3713 14.4452 21.8834 14.9448Z" fill="url(#paint2_linear_11821_4528)"/>
    <defs>
    <linearGradient id="paint0_linear_11821_4528" x1="21.3838" y1="4.47761" x2="5.1167" y2="20.2543" gradientUnits="userSpaceOnUse">
    <stop stop-color="#D93DF5"/>
    <stop offset="1" stop-color="#1A2EB2"/>
    </linearGradient>
    <linearGradient id="paint1_linear_11821_4528" x1="21.3838" y1="4.47761" x2="5.1167" y2="20.2543" gradientUnits="userSpaceOnUse">
    <stop stop-color="#D93DF5"/>
    <stop offset="1" stop-color="#1A2EB2"/>
    </linearGradient>
    <linearGradient id="paint2_linear_11821_4528" x1="21.3838" y1="4.47761" x2="5.1167" y2="20.2543" gradientUnits="userSpaceOnUse">
    <stop stop-color="#D93DF5"/>
    <stop offset="1" stop-color="#1A2EB2"/>
    </linearGradient>
    </defs>
</svg>
