<svg viewBox="0 0 24 24" xmlns="http://www.w3.org/2000/svg">
<path fill-rule="evenodd" clip-rule="evenodd" d="M17 11C17 14.3137 14.3137 17 11 17C7.68629 17 5 14.3137 5 11C5 7.68629 7.68629 5 11 5C14.3137 5 17 7.68629 17 11ZM15.9056 17.3199C14.551 18.3729 12.8487 19 11 19C6.58172 19 3 15.4183 3 11C3 6.58172 6.58172 3 11 3C15.4183 3 19 6.58172 19 11C19 12.8487 18.3729 14.551 17.3199 15.9056L20.6569 19.2426C21.0474 19.6332 21.0474 20.2663 20.6569 20.6569C20.2663 21.0474 19.6332 21.0474 19.2426 20.6569L15.9056 17.3199ZM11 8C11.5523 8 12 8.44772 12 9V10H13C13.5523 10 14 10.4477 14 11C14 11.5523 13.5523 12 13 12H12V13C12 13.5523 11.5523 14 11 14C10.4477 14 10 13.5523 10 13V12H9C8.44772 12 8 11.5523 8 11C8 10.4477 8.44772 10 9 10H10V9C10 8.44772 10.4477 8 11 8Z"/>
</svg>
