<svg width="1000" height="403" viewBox="0 0 1000 403" fill="none" xmlns="http://www.w3.org/2000/svg">
    <path d="M107.973 240.372L39.3729 131.434H0V310.173H43.7198L42.7547 202.443L111.112 310.173H150.728V131.434H107.008L107.973 240.372Z"
          fill="#FFC107"/>
    <path d="M263.77 128.052C247.183 128.052 231.804 131.794 217.634 139.28C203.463 146.765 191.906 157.844 182.969 172.493C174.032 187.15 169.559 203.894 169.559 222.734V222.977C169.559 238.434 173.381 253.013 181.031 266.697C188.681 280.388 199.831 291.617 214.488 300.397C229.137 309.177 245.488 313.563 263.519 313.563C290.73 313.563 313.312 304.469 331.272 286.265C349.225 268.07 358.209 246.249 358.209 220.803C358.209 195.365 349.233 173.545 331.272 155.341C313.32 137.146 290.825 128.052 263.77 128.052ZM299.762 257.038C291.225 267.991 279.471 273.46 264.492 273.46C249.678 273.46 237.76 268.227 228.744 257.76C219.721 247.293 215.217 234.895 215.217 220.56V220.317C215.217 206.633 219.603 194.51 228.383 183.965C237.156 173.419 249.035 168.147 264.014 168.147C279.149 168.147 291.029 173.663 299.644 184.694C308.259 195.726 312.567 207.849 312.567 221.047C312.559 234.087 308.291 246.084 299.762 257.038Z"
          fill="#FFC107"/>
    <path d="M606.286 131.434L581.884 248.101L555.56 131.434H520.534L494.202 247.614L469.807 131.434H423.428L469.564 310.173H510.875L537.686 194.471L564.976 310.173H605.078L652.415 131.434H606.286Z"
          fill="#FFC107"/>
    <path d="M708.94 131.434L638.166 310.181H687.685L695.9 284.335H758.458L766.909 310.181H816.906L748.305 131.434H708.94ZM707.245 248.101L726.571 185.785L746.618 248.101H707.245Z"
          fill="#FFC107"/>
    <path d="M867.154 203.173L840.586 131.434H791.068L844.446 245.198V310.173H890.104V245.198L942.996 131.434H893.965L867.154 203.173Z"
          fill="#FFC107"/>
    <path d="M1000 131.434H958.697V251.239H1000V131.434Z" fill="#FFC107"/>
    <path d="M1000 269.113H958.697V310.173H1000V269.113Z" fill="#FFC107"/>
    <path d="M535.893 342.082C536.106 324.915 530.155 322.847 528.58 302.924C527.464 288.84 530.374 289.038 530.829 270.68C531.613 239.55 523.24 239.68 525.667 215.747C527.527 197.414 533.34 188.464 528.652 175.96C527.37 172.531 524.873 167.722 525.314 160.843C525.713 154.49 528.211 152.716 528.151 145.764C528.095 139.494 526.063 139.419 526.17 133.402C526.302 125.721 529.633 125.082 529.003 119.005C528.342 112.653 524.468 111.076 525.648 106.634C526.676 102.764 529.892 102.893 530.495 99.115C531.05 95.6345 528.426 94.8262 527.811 88.8042C527.574 86.5038 527.226 83.065 529.229 81.2645C530.673 79.9628 532.097 80.6304 533.361 79.2335C535.059 77.3449 534.318 74.092 534.081 73.0627C532.942 68.0733 529.46 67.6914 529.332 64.1127C529.212 60.7223 532.279 59.4382 531.429 57.2596C530.773 55.5687 527.061 56.998 525.301 54.6962C524.951 54.239 524.827 53.8538 524.589 53.0991C522.995 48.0835 525.195 42.2903 526.04 40.067C526.112 39.8712 526.279 39.4485 526.448 38.8454C526.745 37.7565 526.692 37.3246 526.919 36.0862C527.033 35.4984 527.194 34.8011 527.45 33.8924C528.356 30.72 529.115 29.8693 529.539 28.4124C530.493 25.154 529.061 21.7557 525.494 16.0378C524.422 14.3129 514.824 -1.06894 512.549 0.172821C510.943 1.04982 516.549 8.2552 513.823 16.6502C512.456 20.8477 510.766 19.9352 505.51 28.9506C502.386 34.3145 500.816 37.0671 500.638 40.5891C500.523 42.7462 500.89 44.3569 499.918 46.7599C498.875 49.3352 497.531 49.7586 496.457 52.2317C495.398 54.6577 495.558 56.8321 495.733 59.093C496.089 63.8109 497.978 68.0593 499.099 69.5412C498.678 71.7043 498.461 75.1476 499.736 78.3331C500.888 81.2197 502.021 80.7949 503.819 84.5328C504.625 86.2011 506.158 89.4901 505.821 93.4663C505.499 97.2934 503.829 97.2206 503.724 100.319C503.544 105.348 507.933 106.269 507.777 111.321C507.68 114.341 506.082 115.187 506.358 118.861C506.533 121.145 507.285 122.68 507.703 123.671C510.016 129.201 508.319 133.412 508.274 142.208C508.248 147.873 508.936 149.572 509.565 155.939C510.777 168.304 509.473 175.139 508.684 188.873C508.202 197.282 507.536 208.843 508.486 221.811C510.487 249.121 517.589 254.296 515.034 274.697C514.16 281.675 512.986 283.794 512.879 291.154C512.676 304.131 516.17 307.596 518.19 321.379C520.24 335.397 518.935 347.504 517.98 356.381C517.165 363.932 516.032 369.63 515.779 380.386C515.41 396.092 517.462 399.392 519.775 400.999C523.627 403.674 530.378 403.189 533.506 399.708C537.669 395.08 532.894 387.927 531.599 374.988C530.036 359.631 535.69 358.763 535.893 342.082ZM501.205 61.1816C500.649 60.99 500.843 58.7628 501.246 54.3162C501.573 50.748 501.733 48.9679 501.966 48.1454C503.328 43.3594 507.821 42.6017 512.318 38.5957C520.033 31.7371 519.688 22.5468 521.334 22.8627C522.987 23.1787 524.468 32.6975 519.87 37.9506C517.674 40.4561 516.188 39.6154 512.976 42.7112C510.9 44.7152 510.768 45.8051 506.739 52.9683C502.194 61.0777 501.479 61.2775 501.205 61.1816ZM518.422 51.681C517.042 54.1444 518.181 55.2733 517.012 57.8477C515.533 61.1265 513.08 60.6802 510.8 63.9856C508.37 67.5097 508.651 71.6622 508.695 72.2117C509.096 77.2124 512.52 79.2809 511.375 83.2051C511.311 83.4322 510.766 85.2415 509.989 85.2525C509.158 85.2632 508.637 83.1886 507.28 79.0611C504.969 72.001 504.459 71.9038 504.588 70.1234C504.794 67.2058 506.313 65.065 508.062 62.596C510.009 59.8536 511.244 59.351 513.596 55.7636C514.997 53.6221 514.731 53.5342 515.672 52.3472C518.724 48.5129 520.143 48.6077 518.422 51.681Z"
          fill="url(#paint0_linear)"/>
    <path d="M518.073 243.13C519.246 242.533 521.272 242.271 524.947 241.799C530.13 241.131 531.869 241.636 532.495 241.844C533.544 242.188 535.933 242.971 537.276 245.302C537.478 245.648 538.907 248.121 537.93 250.108C537.112 251.79 534.998 252.248 535.167 252.837C535.283 253.23 536.194 252.993 537.219 253.532C538.431 254.175 538.926 255.426 539.258 256.291C539.451 256.786 540.703 259.979 539.225 261.783C538.229 262.993 536.59 262.858 536.467 263.822C536.409 264.238 536.674 264.585 537.141 265.2C538.06 266.406 538.797 266.441 539.184 267.268C539.603 268.157 539.236 269.143 539.172 269.323C538.598 270.873 537.123 270.739 535.723 272.731C535.327 273.302 534.82 274.044 535.028 274.783C535.22 275.483 535.871 275.549 536.393 276.164C537.452 277.403 536.976 279.691 536.364 280.966C535.545 282.68 534.081 283.44 532.224 284.37C530.374 285.301 527.142 286.56 525.346 286.385C516.586 285.579 509.447 247.528 518.073 243.13Z"
          fill="url(#paint1_linear)"/>
    <path d="M492.647 249.153C493.016 249.038 494.376 248.685 496.084 247.801C499.334 246.125 499.665 244.707 502.288 243.036C504.832 241.419 504.699 242.635 510.543 240.339C513.5 239.18 515.075 238.256 516.726 239.003C517.915 239.536 518.536 240.662 518.769 241.071C519.879 243.055 519.521 245.203 519.423 245.877C519.284 246.857 520.222 251.335 522.082 260.307C523.608 267.637 524.37 271.306 524.754 272.674C526.621 279.315 528.128 281.937 527.418 286.413C527.124 288.263 526.708 290.913 524.635 292.572C523.555 293.436 521.926 294.109 513.654 293.188C505.107 292.242 501.678 290.959 499.24 293.102C498.404 293.834 497.865 294.82 496.482 295.141C494.667 295.569 493.961 294.27 491.684 294.429C489.941 294.552 489.772 295.352 487.557 295.778C485.703 296.135 483.993 295.929 483.437 295.753C477.18 293.754 484.172 251.825 492.647 249.153Z"
          fill="url(#paint2_linear)"/>
    <path d="M353.799 120.77C352.724 120.307 346.023 117.529 339.385 120.087C334.128 122.119 334.301 125.423 327.718 129.699C323.606 132.367 320.052 133.34 313.304 135.191C302.719 138.087 300.303 136.745 296.144 139.993C294.504 141.272 292.762 144.05 289.279 149.605C286.219 154.478 284.885 157.075 281.73 162.646C274.01 176.275 273.782 175.263 272.809 178.433C270.95 184.506 272.621 185.502 271.436 196.275C270.471 205.071 269.106 206.585 268.007 214.118C266.571 223.91 267.442 231.058 268.007 237.453C268.439 242.38 268.525 256.519 268.69 284.805C268.909 321.895 266.767 316.787 268.007 335.587C268.831 348.055 270.236 357.431 271.436 380.193C272.095 392.661 270.785 393.477 272.119 395.98C280.561 411.704 317.298 392.881 372.999 397.353C392.889 398.946 452.129 406.478 473.879 400.099C476.469 399.338 482.95 397.345 485.547 391.861C488.207 386.251 485.382 379.966 484.174 376.764C478.83 362.563 484.974 354.905 486.92 328.039C488.944 300.129 482.699 303.064 484.864 279.313C487.352 252.063 497.214 230.179 492.412 227.841C490.49 226.907 488.803 230.367 482.801 230.587C477.143 230.799 475.77 227.825 469.077 227.841C464.15 227.857 463.758 229.473 460.839 228.524C456.782 227.213 456.704 223.808 451.917 222.348C450.701 221.98 448.088 221.179 445.742 222.348C443.781 223.321 443.624 224.867 441.623 225.777C440.015 226.515 438.649 226.185 436.131 225.777C431.368 225.008 416.923 223.847 421.717 224.404C416.326 226.303 420.344 222.348 420.344 222.348C418.727 222.466 417.095 223.259 415.542 222.348C413.769 221.313 413.745 218.849 413.486 218.229C410.811 211.905 405.051 212.486 395.644 192.148C393.658 187.856 390.661 181.053 386.032 168.813C380.257 153.52 379.331 149.809 375.055 140.676C367.805 125.156 357.848 122.52 353.799 120.77Z"
          fill="#3A3F65"/>
    <path d="M379.19 164.693C379.519 162.614 371.861 159.413 356.545 153.026C355.023 152.39 347.859 149.416 338.012 146.16C329.256 143.265 324.83 141.821 322.225 142.041C314.049 142.739 310.785 147.941 303.692 146.16C301.448 145.595 298.624 144.277 297.517 145.478C297.062 145.964 297.376 146.678 297.517 148.906C297.517 148.906 297.58 149.919 297.517 153.026C297.439 156.674 294.41 158.683 291.342 164.003C288.086 169.644 289.726 170.468 287.223 172.924C283.307 176.769 277.839 176.188 277.611 178.416C277.486 179.656 279.165 179.994 280.357 182.536C281.228 184.395 281.228 186.137 281.04 188.711C280.695 193.505 280.522 195.906 279.667 199.005C278.152 204.49 277.281 213.647 275.547 231.944C274.575 242.215 274.088 247.354 274.174 254.589C274.206 257.358 274.425 269.238 278.294 284.099C279.604 289.152 280.287 291.694 281.04 291.647C283.064 291.521 282.013 272.91 285.159 243.604C287.066 225.871 288.039 227.174 289.279 212.038C290.157 201.289 290.04 195.961 292.707 187.33C295.469 178.401 296.999 179.515 299.573 170.17C301.001 164.96 302.154 158.683 305.748 157.82C306.901 157.545 307.137 158.102 309.177 157.82C309.907 157.718 313.508 157.224 316.042 154.391C317.674 152.563 317.565 151.221 318.789 150.962C319.981 150.711 320.546 151.888 322.908 153.018C324.179 153.63 324.76 153.646 328.4 154.391C328.4 154.391 329.774 154.673 334.575 155.764C342.241 157.506 348.259 160.778 350.362 161.939C354.019 163.964 353.666 164.262 355.855 165.368C365.435 170.233 378.711 167.73 379.19 164.693Z"
          fill="#2F3352"/>
    <path d="M340.076 179.79C339.825 180.433 351.014 184.584 350.37 187.338C350.245 187.871 349.711 188.185 349.091 188.483C344.321 190.767 338.875 190.1 338.711 190.084C337.918 189.99 327.569 188.813 319.495 192.14C314.23 194.313 309.122 198.738 309.883 201.061C310.464 202.834 314.285 202.842 319.495 203.117C319.495 203.117 339.801 204.207 362.046 210.665C369.759 212.901 370.339 213.851 370.284 214.094C370.151 214.682 366.008 213.348 361.363 214.776C355.878 216.471 351.626 221.43 352.442 223.015C353.187 224.459 357.424 221.689 365.482 222.332C371.657 222.827 378.241 225.173 379.896 225.761C384.471 227.393 386.589 228.688 387.444 227.817C389.163 226.067 383.317 218.001 384.015 217.523C384.471 217.209 386.369 221.085 390.881 223.698C392.152 224.435 392.803 224.592 401.858 227.127C404.84 227.966 407.296 228.649 407.35 228.5C407.452 228.194 397.08 227.064 390.191 219.578C387.797 216.973 387.601 215.537 384.698 213.403C382.054 211.457 379.724 210.822 374.404 209.284C362.995 205.988 365.773 206.608 362.736 205.855C348.895 202.395 343.897 202.638 332.544 198.99C329.256 197.93 323.426 196.039 323.622 194.87C323.811 193.772 329.209 194.392 336.663 193.497C343.63 192.665 356.42 190.021 356.561 186.632C356.71 182.779 340.374 179.028 340.076 179.79Z"
          fill="#2F3352"/>
    <path d="M420.368 229.198C417.229 232.611 420.548 237.962 421.05 248.414C421.05 248.414 421.395 255.648 419.677 263.51C417.362 274.111 413.439 275.578 408.01 288.901C403.835 299.156 401.944 308.603 402.517 308.799C402.862 308.917 404.086 305.653 408.692 295.759C412.231 288.163 414.043 284.287 416.24 280.662C420.368 273.844 421.129 274.597 423.106 270.368C425.64 264.938 425.978 260.285 426.535 252.525C427.319 241.721 425.507 241.25 427.217 234.683C428.026 231.583 429.124 229.065 427.9 227.817C426.527 226.413 422.439 226.946 420.368 229.198Z"
          fill="#2F3352"/>
    <path d="M447.131 225.769C443.271 226.593 442.329 233.404 439.583 242.239C436.594 251.866 435.856 249.747 432.035 260.772C428.473 271.058 428.928 273.436 424.487 290.282C420.619 304.939 420.54 302.145 418.994 309.497C416.625 320.812 417.7 323.252 414.875 342.436C413.486 351.86 412.458 356.497 411.94 358.741C409.335 369.946 406.527 376.709 406.644 376.756C406.856 376.835 418.116 355.54 422.431 326.657C423.922 316.677 423.459 313.311 425.86 300.576C427.06 294.221 429.32 283.691 433.408 271.066C436.806 260.568 438.508 255.318 441.647 249.104C447.484 237.546 453.754 230.508 451.259 227.142C450.348 225.926 448.504 225.479 447.131 225.769Z"
          fill="#2F3352"/>
    <path d="M462.227 233.318C454.31 238.771 456.507 252.588 456.735 274.495C456.868 287.661 456.138 297.681 454.679 317.728C453.212 337.854 451.054 353.382 450.56 356.842C447.17 380.813 443.498 395.046 444.385 395.274C445.232 395.486 449.893 382.877 453.306 368.51C456.774 353.916 456.798 346.525 459.481 299.195C461.592 261.965 461.992 259.132 463.6 253.899C466.158 245.534 470.874 234.032 467.72 231.937C465.97 230.791 462.62 233.051 462.227 233.318Z"
          fill="#2F3352"/>
    <path d="M392.23 242.239C391.72 241.784 387.797 247.896 378.507 253.216C370.967 257.539 369.076 256.064 358.609 261.455C351.006 265.362 347.545 268.43 345.615 270.352C341.37 274.574 339.495 278.261 338.71 279.98C336.718 284.342 335.313 290.274 336.655 290.957C337.557 291.42 339.377 289.348 342.83 285.464C356.608 269.968 358.609 268.053 361.363 266.249C367.357 262.31 368.032 264.726 375.086 260.756C386.958 254.095 392.897 242.843 392.23 242.239Z"
          fill="#2F3352"/>
    <path d="M491.872 118.652C491.872 140.065 464.982 156.746 404.024 151.591C355.298 147.472 310.001 128.052 310.001 106.639C310.001 95.9292 316.349 87.306 337.456 83.6496C359.065 79.9069 379.332 77.4746 404.024 78.8477C428.732 80.2208 444.472 87.9416 458.925 92.5709C480.118 99.358 491.872 105.925 491.872 118.652Z"
          fill="url(#paint3_radial)"/>
    <path d="M433.408 106.074C433.408 119.845 431.023 124.945 425.169 133.529C420.148 140.881 412.497 152.744 402.525 152.744C380.924 152.744 363.403 132.006 363.403 106.42C363.403 80.8326 380.916 60.0947 402.525 60.0947C424.126 60.0947 433.408 80.4874 433.408 106.074Z"
          fill="url(#paint4_linear)"/>
    <path d="M337.667 83.7677C359.276 80.025 379.543 77.5927 404.235 78.9658C428.943 80.3389 444.683 88.0597 459.136 92.689C467.484 95.3646 474.366 98.0089 479.646 101.006C479.709 100.763 479.748 100.504 479.725 100.237C479.528 97.8205 475.268 96.7613 463.938 92.689C457.276 90.2959 455.064 90.445 450.897 87.8871C447.798 85.9804 444.142 82.8968 441.285 82.3946C441.081 82.3554 440.391 82.2534 439.912 81.712C438.877 80.5351 439.693 78.2832 439.912 77.5927C440.469 75.8743 439.959 75.843 439.23 65.9252C438.359 54.2106 438.971 52.8532 437.174 50.8288C435.66 49.1262 434.538 49.2988 432.372 46.7095C430.787 44.8185 430.167 43.2728 428.943 40.5344C426.095 34.1475 424.667 30.9541 423.451 29.5574C420.626 26.2933 417.08 24.9987 414.529 24.065C410.261 22.5035 409.845 23.5785 402.862 22.0092C396.789 20.644 395.777 19.5376 392.567 19.9535C389.029 20.4086 386.557 22.2289 385.019 23.3823C380.947 26.4424 378.515 30.4833 376.098 36.423C371.696 47.2274 370.268 57.153 369.923 59.758C368.738 68.5929 368.73 77.0042 365.804 77.6005C365.521 77.6555 365.278 77.6319 365.121 77.6005C365.082 77.6084 357.643 78.5499 350.707 79.6563C334.41 82.2613 334.866 83.1244 329.436 83.7756C329.02 83.8227 327.969 83.9482 326.69 84.4582C323.951 85.5646 321.833 87.8008 321.323 88.9071C325.371 86.718 330.715 84.9761 337.667 83.7677Z"
          fill="url(#paint5_linear)"/>
    <path d="M480.933 221C480.595 220.741 479.905 220.772 479.52 220.882C478.241 221.243 476.923 221.188 475.691 220.819C475.425 219.791 475.032 218.332 474.585 215.876C474.499 215.413 474.405 214.723 474.287 213.773C474.373 213.97 474.459 214.166 474.561 214.346C475.275 215.649 476.296 216.771 477.52 217.61C477.778 217.791 478.147 217.838 478.445 217.783C478.587 217.759 478.987 217.61 478.72 217.43C478.328 217.163 477.975 216.857 477.629 216.535C478.39 217.155 479.324 217.493 480.423 217.281C480.58 217.249 481.097 217.147 481.058 216.896C481.019 216.653 480.478 216.708 480.336 216.739C479.662 216.873 478.979 216.308 478.532 215.86C477.982 215.311 477.567 214.629 477.221 213.938C476.554 212.596 476.178 211.137 475.903 209.678C475.715 208.673 475.574 207.669 475.425 206.665C475.895 206.672 476.374 206.649 476.845 206.586C477.119 206.555 477.582 206.359 477.261 206.053C476.939 205.747 476.272 205.739 475.872 205.786C475.676 205.809 475.487 205.825 475.299 205.833C475.024 204.067 474.695 202.326 474.059 200.631C473.659 199.564 473.157 198.528 472.584 197.539C472.451 196.386 472.325 195.413 472.2 194.605C474.122 193.899 475.888 192.8 477.347 191.301C477.637 191.003 476.853 190.752 476.688 190.721C476.327 190.634 475.691 190.564 475.401 190.862C474.412 191.874 473.243 192.729 471.972 193.373C471.627 191.78 471.195 190.831 470.466 189.795C468.669 187.245 467.665 187.786 465.664 184.993C463.781 182.364 463.608 180.395 463.129 177.743C463.129 177.743 463.129 177.743 463.137 177.743C463.341 178.708 463.569 179.657 463.992 180.56C464.612 181.902 465.577 183.047 466.739 183.949C468.057 184.977 469.658 185.629 471.313 185.848C471.588 185.887 472.027 185.903 472.247 185.691C472.459 185.487 472.168 185.354 471.98 185.33C469.147 184.954 466.644 183.047 465.397 180.497C465.146 179.979 464.965 179.446 464.816 178.896C466.142 179.642 467.602 180.128 469.108 180.301C469.43 180.34 470.191 180.419 470.387 180.065C470.583 179.712 469.893 179.555 469.689 179.532C467.594 179.297 465.774 178.277 464.346 176.809C464.275 176.488 464.212 176.174 464.126 175.852C463.749 174.361 463.09 173.114 462.054 171.976C461.795 171.686 461.521 171.411 461.246 171.121C460.211 168.531 458.398 164.953 455.361 161.995C456.703 161.391 457.864 160.434 458.657 159.186C458.986 158.676 457.017 158.276 456.703 158.778C456.107 159.72 455.283 160.512 454.326 161.062C454.004 160.795 453.682 160.528 453.337 160.277C451.321 158.794 449.43 158.017 447.633 156.715C447.774 155.279 447.978 153.859 448.237 152.431C448.3 152.07 448.37 151.709 448.441 151.348C449.139 152.462 449.014 153.945 448.904 155.193C448.865 155.624 450.183 155.938 450.214 155.608C450.324 154.455 450.418 153.215 450.002 152.109C449.728 151.379 449.226 150.83 448.621 150.391C449.029 148.256 449.445 146.13 449.634 143.964C449.853 141.438 449.767 138.857 449.061 136.408C448.425 134.196 447.241 132.297 445.703 130.602C444.557 129.347 443.255 128.217 441.968 127.063C442.195 126.553 442.399 126.028 442.533 125.479C443.325 122.309 442.603 118.997 440.791 116.314C439.763 114.8 438.492 113.427 437.77 111.724C437.001 109.911 436.875 107.926 436.821 105.98C436.758 103.987 436.719 101.798 436.138 99.8445C436.334 99.4757 436.507 99.0834 436.617 98.6754C436.923 97.5534 436.915 96.3607 436.742 95.2073C437.77 96.706 438.586 98.3694 439.206 100.08C440.712 104.238 441.144 108.64 441.779 112.987C442.125 115.341 442.533 117.695 443.207 119.986C443.882 122.262 444.863 124.404 446.134 126.404C448.661 130.382 452.058 133.851 453.816 138.284C454.749 140.638 455.244 143.25 454.702 145.753C454.137 148.374 452.38 150.469 450.677 152.446C450.497 152.658 451.101 152.737 451.187 152.737C451.47 152.745 451.823 152.69 452.011 152.47C453.541 150.681 455.126 148.821 455.832 146.53C456.515 144.341 456.366 142.011 455.746 139.822C454.436 135.208 451.219 131.599 448.519 127.746C447.131 125.769 445.922 123.697 445.091 121.422C444.259 119.139 443.757 116.753 443.372 114.36C442.643 109.88 442.313 105.313 440.924 100.974C440.642 100.096 440.32 99.2325 439.943 98.3851C439.967 98.4165 439.991 98.4479 440.022 98.4792C440.893 99.6091 441.748 100.755 442.423 102.01C443.082 103.25 443.529 104.584 443.843 105.949C445.051 111.182 444.353 117.224 447.735 121.759C449.351 123.917 451.791 125.471 454.514 125.651C454.71 125.667 455.008 125.612 454.859 125.361C454.718 125.118 454.247 125.008 453.988 124.992C451.791 124.851 449.979 123.321 448.755 121.579C447.241 119.421 446.636 116.761 446.268 114.195C445.883 111.536 445.758 108.829 445.146 106.2C444.847 104.913 444.432 103.642 443.827 102.465C443.223 101.273 442.454 100.174 441.646 99.1148C439.653 96.4784 437.574 93.9127 435.463 91.3705C435.4 91.292 435.306 91.2292 435.212 91.1743C434.577 90.3897 433.698 89.8404 432.67 89.6835C432.513 89.66 432.081 89.5972 432.113 89.864C432.144 90.1072 432.686 90.2641 432.866 90.2955C432.897 90.3034 432.921 90.3112 432.952 90.3191C432.733 90.2955 432.497 90.3269 432.309 90.3897C432.152 90.4446 431.83 90.6329 432.097 90.7898C433.188 91.4097 434.137 92.1865 434.992 93.0653C435.377 94.2265 435.597 95.4819 435.542 96.6903C435.526 97.1061 435.455 97.5377 435.353 97.9614C434.914 97.1846 434.333 96.4863 433.564 95.89C433.329 95.7095 432.921 95.5996 432.623 95.6546C432.364 95.7016 432.309 95.8664 432.529 96.0312C433.666 96.91 434.357 98.1262 434.781 99.4679C434.074 100.794 432.897 101.83 431.305 101.924C431.03 101.939 431.006 102.128 431.187 102.293C431.414 102.497 431.815 102.599 432.113 102.575C433.305 102.497 434.357 101.939 435.165 101.123C435.345 102.222 435.416 103.344 435.447 104.388C435.502 106.169 435.502 107.965 435.879 109.715C436.256 111.434 437.095 112.885 438.123 114.29C439.104 115.624 440.132 116.91 440.744 118.464C441.301 119.876 441.568 121.414 441.505 122.928C441.466 124.003 441.254 125.063 440.893 126.059C439.441 124.702 438.084 123.266 437.111 121.508C434.663 117.091 436.35 111.951 434.985 107.283C434.812 106.702 434.592 106.137 434.318 105.604C434.137 105.243 432.819 105.258 432.984 105.588C435.283 110.115 433.345 115.459 435.134 120.119C436.201 122.897 438.327 124.968 440.516 126.938C439.857 128.319 438.868 129.527 437.55 130.39C436.53 131.057 435.338 131.52 434.114 131.708C433.643 131.481 433.196 131.183 432.74 130.72C430.708 128.648 430.999 125.918 429.994 125.918C429.28 125.918 429.045 127.299 427.248 130.037C425.851 132.171 424.996 133.435 423.819 133.466C422.611 133.497 421.661 132.211 421.073 131.41C419.37 129.096 420.037 127.723 419.017 125.918C417.628 123.47 414.576 122.795 410.096 121.799C408.401 121.422 405.788 120.998 402.548 121.116C397.675 121.281 395.109 121.375 392.936 123.172C390.519 125.18 390.284 127.911 387.444 128.664C386.996 128.782 386.212 128.978 385.388 128.664C383.779 128.052 383.724 126.138 382.642 124.545C380.876 121.94 378.012 122.622 375.776 121.116C375.109 120.661 373.924 119.633 373.281 116.322C373.383 116.612 373.516 116.895 373.689 117.161C374.34 118.134 375.352 118.77 376.443 119.147C377.753 119.594 379.213 119.688 380.562 119.366C380.821 119.303 380.845 119.139 380.641 118.982C380.413 118.809 379.974 118.723 379.691 118.793C377.549 119.303 375.148 118.432 374.505 116.165C374.16 114.941 374.301 113.623 374.364 112.336C375.039 113.372 376.019 114.18 377.22 114.556C377.416 114.619 377.926 114.776 378.083 114.564C378.24 114.352 377.84 114.172 377.698 114.125C376.498 113.748 375.658 112.689 375.18 111.559C374.56 110.092 374.583 108.468 374.795 106.914C375.007 105.4 375.368 103.909 375.698 102.41C375.862 102.426 376.027 102.426 376.184 102.379C377.314 102.081 378.185 101.21 378.609 100.135C379.064 98.9814 378.922 97.6868 378.397 96.5804C377.832 95.4113 376.961 94.5168 375.957 93.7793C375.815 93.2928 375.635 92.8063 375.415 92.3434C375.407 92.3356 375.399 92.3277 375.392 92.312C376.137 89.299 376.875 86.6784 377.353 84.5285C377.353 85.6034 377.251 86.6627 377.102 87.7298C376.953 88.8047 376.796 89.9267 377.157 90.9781C377.455 91.8412 378.028 92.516 378.875 92.8534C379.158 92.9633 379.574 92.9633 379.848 92.822C380.084 92.7043 380.092 92.5317 379.84 92.4376C378.993 92.108 378.522 91.1822 378.373 90.3348C378.185 89.2441 378.428 88.1299 378.562 87.0471C378.695 85.9722 378.773 84.8659 378.711 83.7752C378.679 83.2495 378.593 82.7316 378.428 82.2373C378.624 82.151 378.82 82.0569 379.009 81.9392C379.982 81.3193 380.594 80.1973 380.123 79.0596C379.872 78.4554 379.323 78.0238 378.687 77.8905C378.405 77.8277 377.997 77.7649 377.746 77.9454C377.51 78.118 377.793 78.2906 377.973 78.3299C378.153 78.3691 378.35 78.4789 378.514 78.6751C378.679 78.8713 378.805 79.1145 378.868 79.3656C379.017 79.9462 378.86 80.5347 378.499 80.9976C378.365 81.1702 378.208 81.3115 378.051 81.437C377.989 81.335 377.942 81.233 377.871 81.1388C377.918 79.954 377.722 79.0753 377.149 78.5495C374.293 75.9367 366.219 79.1694 364.799 79.9227C364.156 80.2601 363.551 80.6916 362.963 81.1702C362.359 81.131 361.755 81.0918 361.15 81.0839C360.507 81.0761 359.824 81.1153 359.267 81.4605C358.742 81.7822 358.404 82.3158 358.075 82.818C357.353 83.9243 356.678 85.0856 355.705 85.9957C354.905 86.749 353.61 87.5336 352.472 87.1727C352.284 87.1099 351.751 86.9922 351.609 87.1962C351.452 87.4159 351.876 87.5728 352.017 87.6199C353.257 88.0201 354.599 87.9024 355.744 87.2825C356.945 86.6391 357.792 85.572 358.538 84.4578C358.914 83.8929 359.267 83.3044 359.66 82.7473C360.06 82.1746 360.507 81.7509 361.237 81.6959C361.606 81.6724 361.982 81.6802 362.359 81.6959C360.735 83.2024 359.338 85.1719 358.161 87.2041C357.227 87.6591 356.16 87.8161 355.274 88.3653C354.348 88.9381 353.791 89.8561 353.265 90.782C353.045 91.1586 354.363 91.4646 354.544 91.1429C355.038 90.2798 355.572 89.3226 356.458 88.7969C356.796 88.5929 357.165 88.4595 357.533 88.3261C356.804 89.6835 356.168 91.0331 355.627 92.2414C354.41 92.8063 353.186 92.9397 351.86 93.0103C350.448 93.081 349.091 93.3164 347.961 94.2344C347.043 94.9798 346.392 96.1018 346.305 97.2866C346.203 98.7382 346.831 100.064 347.929 100.99C348.141 101.171 348.463 101.273 348.785 101.312C348.408 101.939 348.149 102.63 348.118 103.36C348.071 104.529 348.588 105.729 349.616 106.333C349.86 106.475 350.142 106.545 350.432 106.561C350.315 107.463 350.252 108.389 350.252 109.346C349.781 109.574 349.35 109.864 348.997 110.249C348.675 110.602 348.447 111.018 348.345 111.473C347.6 112.124 347.066 112.971 346.902 113.999C346.666 115.451 347.208 116.95 348.353 117.875C349.522 118.817 351.139 119.139 352.606 118.872C352.731 119.139 352.857 119.405 352.982 119.664C352.488 120.167 352.025 120.7 351.79 121.367C350.989 123.556 353.132 125.431 354.693 126.585C355.077 126.867 355.587 127.079 356.074 127.04C356.443 127.009 356.592 126.734 356.254 126.483C354.724 125.353 352.786 123.611 353.955 121.547C353.955 121.54 353.963 121.532 353.963 121.532C354.999 123.368 355.846 124.545 355.846 124.545C356.937 126.067 357.988 127.252 358.757 128.429C358.279 129.378 357.675 130.28 357.157 131.206C356.396 132.556 355.831 133.984 355.956 135.561C356.082 137.217 356.945 138.786 358.255 139.806C358.797 140.23 359.416 140.567 360.068 140.818C360.28 141.085 360.515 141.352 360.766 141.618C360.695 142.27 360.688 142.921 360.766 143.572C360.892 144.686 361.347 145.62 362.108 146.436C362.908 147.291 363.842 148.045 364.713 148.829C366.619 150.548 368.526 152.258 370.433 153.976C371.971 155.357 373.712 156.809 374.324 158.873C374.803 160.505 374.191 162.968 372.324 163.423C372.065 163.486 372.041 163.651 372.253 163.808C372.481 163.98 372.928 164.059 373.202 163.996C374.866 163.588 375.8 162.003 375.831 160.355C375.87 158.339 374.521 156.652 373.155 155.318C371.366 153.576 369.444 151.952 367.584 150.273C366.651 149.433 365.717 148.594 364.783 147.754C363.928 146.985 362.955 146.232 362.469 145.157C362.147 144.451 362.045 143.658 362.045 142.874C363.073 143.808 364.242 144.773 365.458 145.816C373.524 152.768 378.938 157.421 379.872 163.659C380.241 166.123 379.636 167.025 379.613 169.112C379.166 170.603 378.703 172.078 378.514 173.522C378.365 174.651 378.365 175.805 378.64 176.911C378.891 177.916 379.362 178.818 379.88 179.712C380.813 181.321 382.037 183.33 381.229 185.252C380.876 186.091 379.982 186.86 379.017 186.774C377.989 186.68 377.149 185.762 376.718 184.891C376.545 184.546 375.211 184.648 375.392 185.009C376.357 186.947 378.679 187.794 380.704 187.088C381.637 186.766 382.359 186.076 382.665 185.134C382.979 184.161 382.83 183.118 382.508 182.168C382.132 181.07 381.465 180.105 380.908 179.093C380.319 178.041 379.911 176.95 379.809 175.734C379.723 174.699 379.833 173.671 380.029 172.666C380.719 175.891 382.037 178.441 383.983 182.192C385.89 185.848 387.043 187.355 387.836 189.002C388.056 190.022 388.197 191.066 388.252 192.11C388.33 193.687 388.291 195.931 386.69 196.794C386.431 196.935 386.69 197.131 386.855 197.21C387.09 197.327 387.546 197.429 387.797 197.296C388.424 196.959 388.84 196.456 389.115 195.868C389.146 196.409 389.24 197.053 389.468 197.971C390.323 201.353 391.963 203.871 393.352 205.707C393.391 205.762 393.422 205.809 393.462 205.864C395.172 208.179 397.244 210.454 397.542 213.452C397.691 214.903 397.393 216.433 396.381 217.54C396.177 217.759 396.498 217.853 396.679 217.877C396.938 217.908 397.401 217.861 397.597 217.649C399.292 215.806 399.213 213.091 398.295 210.886C398.734 211.286 399.213 211.757 399.77 212.385C402.752 215.79 403.795 219.077 404.831 222.122C404.807 222.271 404.784 222.412 404.753 222.561C404.502 223.73 404.188 224.892 404.125 226.092C404.062 227.285 404.305 228.446 404.721 229.568C405.545 231.796 406.973 233.797 407.507 236.143C407.962 238.152 407.585 240.843 405.506 241.832C405.263 241.95 405.286 242.122 405.522 242.216C405.788 242.334 406.228 242.303 406.494 242.177C408.268 241.338 409.139 239.384 409.068 237.477C408.982 234.982 407.546 232.793 406.542 230.588C406.016 229.442 405.584 228.234 405.498 226.971C405.443 226.147 405.545 225.331 405.694 224.523C407.773 229.882 411.344 236.402 415.243 240.215C415.016 240.435 414.819 240.702 414.686 241C414.286 241.871 414.404 242.797 415 243.535C415.612 244.303 416.538 244.798 417.048 245.653C417.621 246.618 417.299 248.054 416.279 248.603C416.043 248.729 416.059 248.894 416.302 248.988C416.569 249.098 417.016 249.058 417.268 248.925C418.115 248.47 418.672 247.638 418.696 246.665C418.719 245.614 417.989 244.884 417.26 244.241C416.538 243.605 415.745 242.915 415.808 241.863C415.824 241.596 415.91 241.275 416.051 240.969C422.948 246.963 432.756 246.179 451.933 244.649C467.625 243.393 471.203 240.27 471.831 237.783C472.106 236.7 471.635 236.465 471.831 234.354C472.051 232.008 472.804 230.478 473.628 229.082C473.62 230.211 473.439 231.349 473.298 232.322C472.937 234.794 472.898 237.893 475.33 239.368C475.597 239.533 475.958 239.651 476.28 239.588C476.515 239.541 476.617 239.36 476.366 239.211C473.808 237.665 474.42 234.111 474.781 231.679C474.985 230.282 475.087 228.681 474.703 227.293C475.236 226.351 475.699 225.347 475.958 224.068C476.139 223.158 476.115 222.593 475.95 221.816C477.496 222.043 479.105 221.949 480.58 221.526C480.839 221.494 481.294 221.267 480.933 221ZM476.193 214.778C476.233 214.84 476.264 214.903 476.303 214.958C476.17 214.762 476.037 214.566 475.927 214.362C475.495 213.577 475.197 212.753 475.017 211.898C475.291 212.902 475.668 213.868 476.193 214.778ZM376.357 96.196C376.396 96.2666 376.435 96.3372 376.474 96.4157C376.922 97.4043 377.039 98.4793 376.663 99.5071C376.521 99.8916 376.317 100.253 376.066 100.566C376.255 99.5071 376.388 98.4322 376.396 97.3494C376.396 96.9571 376.38 96.5726 376.357 96.196ZM350.173 103.446C350.244 102.245 350.95 101.21 351.766 100.37C351.892 100.237 352.033 100.119 352.174 99.9936C351.594 101.477 351.005 103.289 350.636 105.306C350.283 104.772 350.134 104.105 350.173 103.446ZM350.385 111.857C350.464 112.516 350.589 113.191 350.746 113.858C350.715 113.819 350.676 113.772 350.621 113.701C350.534 113.583 350.464 113.458 350.401 113.325C350.205 112.83 350.213 112.328 350.385 111.857ZM352.206 118.362C351.052 118.699 349.805 118.158 349.059 117.256C348.204 116.22 347.992 114.737 348.432 113.474C348.471 113.356 348.526 113.238 348.573 113.128C348.714 113.403 348.894 113.654 349.106 113.874C349.632 114.415 350.315 114.76 351.037 114.949C351.044 114.964 351.044 114.98 351.052 114.996C351.413 116.165 351.86 117.287 352.331 118.338C352.292 118.346 352.245 118.354 352.206 118.362ZM353.798 96.4627C353.728 96.5961 353.642 96.7609 353.547 96.9492C353.516 96.9806 353.477 97.0198 353.445 97.0512C352.323 98.1026 350.982 98.8873 349.891 99.9779C349.687 100.182 349.483 100.402 349.295 100.637C348.565 99.8994 348.228 98.7617 348.314 97.7495C348.416 96.5961 349.028 95.5761 349.938 94.8778C351.013 94.0539 352.276 94.0304 353.571 93.9598C354.042 93.9362 354.512 93.8734 354.975 93.795C354.465 94.9876 354.073 95.937 353.798 96.4627ZM359.322 139.79C359.142 139.649 358.961 139.508 358.797 139.335C357.722 138.229 357.157 136.62 357.267 135.09C357.416 133.137 358.553 131.552 359.518 129.896C359.801 130.586 359.974 131.316 359.966 132.148C359.958 134.423 358.71 134.988 358.593 136.95C358.538 137.97 358.812 138.896 359.322 139.79ZM373.014 106.075C373.336 101.892 374.058 98.0399 374.842 94.5953C375.282 96.8864 374.96 99.2874 374.489 101.579C374.379 101.641 374.379 101.743 374.434 101.845C374.426 101.9 374.411 101.947 374.403 102.002C374.034 103.721 373.493 105.596 373.336 107.455C373.218 107.291 373.093 107.134 372.959 106.985C372.967 106.679 372.991 106.381 373.014 106.075ZM372.975 113.121C372.959 113.434 372.951 113.756 372.951 114.07C372.834 112.744 372.787 111.175 372.842 109.307C373.108 110.547 373.022 111.865 372.975 113.121ZM404.58 136.267C398.177 135.553 394.286 133.05 394.286 130.775C394.286 128.499 398.978 131.434 405.263 132.831C411.438 134.204 416.93 131.928 416.93 134.204C416.938 136.487 410.755 136.958 404.58 136.267ZM435.557 132.258C435.95 132.171 436.334 132.069 436.711 131.936C438.79 131.206 440.453 129.763 441.513 127.911C442.085 128.429 442.658 128.939 443.2 129.464C444.761 130.971 446.173 132.634 447.06 134.643C448.104 137.013 448.402 139.633 448.331 142.199C448.261 144.726 447.805 147.221 447.327 149.692C446.566 149.347 445.734 149.033 445.185 148.421C444.275 147.409 444.471 145.871 444.526 144.624C444.596 142.858 444.667 141.101 444.738 139.335C444.738 139.28 444.722 139.233 444.69 139.186C444.792 138.425 444.73 137.68 444.377 136.95C443.89 135.946 442.909 135.365 440.948 134.204C438.61 132.823 436.946 132.595 435.557 132.258ZM444.384 153.427C443.427 152.054 442.65 150.979 442.329 149.308C441.889 147.048 442.533 145.094 443.262 143.313C443.255 143.415 443.255 143.517 443.247 143.619C443.192 144.89 442.956 146.389 443.498 147.589C443.953 148.594 444.902 149.167 445.86 149.637C446.307 149.857 446.778 150.045 447.217 150.289C447.201 150.359 447.193 150.422 447.178 150.493C446.848 152.219 446.55 153.953 446.338 155.695C445.679 155.075 445.028 154.345 444.384 153.427Z"
          fill="#575C89"/>
    <defs>
        <linearGradient id="paint0_linear" x1="543.758" y1="201.555" x2="543.837" y2="201.556"
                        gradientUnits="userSpaceOnUse">
            <stop offset="0.3124" stop-color="#393E63"/>
            <stop offset="0.6189" stop-color="#4E537D"/>
            <stop offset="0.7396" stop-color="#575C89"/>
        </linearGradient>
        <linearGradient id="paint1_linear" x1="514.12" y1="263.863" x2="539.924" y2="264.019"
                        gradientUnits="userSpaceOnUse">
            <stop offset="0.0225" stop-color="#ABAEC2"/>
            <stop offset="0.9775" stop-color="#C5C7D6"/>
            <stop offset="1" stop-color="#C6C8D7"/>
        </linearGradient>
        <linearGradient id="paint2_linear" x1="481.156" y1="267.245" x2="527.705" y2="267.525"
                        gradientUnits="userSpaceOnUse">
            <stop offset="0.0225" stop-color="#575C88"/>
            <stop offset="0.4281" stop-color="#71769B"/>
            <stop offset="1" stop-color="#9DA0BB"/>
        </linearGradient>
        <radialGradient id="paint3_radial" cx="0" cy="0" r="1" gradientUnits="userSpaceOnUse"
                        gradientTransform="translate(400.943 115.5) scale(69.4276)">
            <stop offset="0.0225" stop-color="#4E537E"/>
            <stop offset="0.5905" stop-color="#3C4064"/>
            <stop offset="1" stop-color="#2D304E"/>
        </radialGradient>
        <linearGradient id="paint4_linear" x1="363.405" y1="106.415" x2="433.406" y2="106.415"
                        gradientUnits="userSpaceOnUse">
            <stop offset="0.0225" stop-color="#ABAEC2"/>
            <stop offset="0.9775" stop-color="#C5C7D6"/>
            <stop offset="1" stop-color="#C6C8D7"/>
        </linearGradient>
        <linearGradient id="paint5_linear" x1="321.319" y1="60.4311" x2="479.736" y2="60.4311"
                        gradientUnits="userSpaceOnUse">
            <stop offset="0.3124" stop-color="#393E63"/>
            <stop offset="0.6189" stop-color="#4E537D"/>
            <stop offset="0.7396" stop-color="#575C89"/>
        </linearGradient>
    </defs>
</svg>
