<svg width="863" height="401" viewBox="0 0 863 401" fill="none" xmlns="http://www.w3.org/2000/svg">
<path fill-rule="evenodd" clip-rule="evenodd" d="M155.5 50H239V269H278.5V339.5H239V401H155.5V339.5H0V269L155.5 50ZM156 160V269H87L156 160Z" fill="url(#paint0_linear)"/>
<path fill-rule="evenodd" clip-rule="evenodd" d="M739.5 50H823V269H862.5V339.5H823V401H739.5V339.5H584V269L739.5 50ZM740 160V269H671L740 160Z" fill="url(#paint1_linear)"/>
<path fill-rule="evenodd" clip-rule="evenodd" d="M561.94 274H562V270V181V180H561.996C561.459 108.111 503.016 50 431 50C358.984 50 300.541 108.111 300.004 180H300V181V270V274H300.06C302.174 344.499 359.989 401 431 401C502.011 401 559.826 344.499 561.94 274Z" fill="#FFD20E"/>
<path d="M499.5 328.352C497.9 319.952 498.833 312.185 499.5 309.352L395.5 328.352L382 371.852C386.5 373.185 399.4 375.852 415 375.852H442.5L444 355.852L449.5 375.852C456 374.518 471 370.952 479 367.352C487 363.752 499.667 355.185 505 351.352C503.833 347.185 501.1 336.752 499.5 328.352Z" fill="#22243C"/>
<path d="M355 358.852C347.5 351.852 348.5 344.352 348 329.852L355 249.852L392.5 247.852L394.5 275.852C398.667 296.685 407 339.752 407 345.352C407 350.952 406 351.685 405.5 351.352L402.5 346.852C402.667 348.518 402.5 353.252 400.5 358.852C398 365.852 386 374.852 377 375.352C368 375.852 362.5 365.852 355 358.852Z" fill="#1A1D32"/>
<path d="M338.404 119.352C338.404 115.752 369.404 101.185 384.904 94.3516L439.404 84.8516C454.571 88.8516 485.504 96.9516 487.904 97.3516C490.904 97.8516 492.404 103.852 494.404 109.852C496.404 115.852 497.404 122.852 497.904 125.352C498.404 127.852 504.404 133.852 508.404 139.352C512.404 144.852 516.904 154.352 517.404 157.852C517.904 161.352 538.904 184.852 543.404 189.852C547.904 194.852 544.404 224.352 543.404 228.352C542.404 232.352 540.904 231.352 538.904 230.352C536.904 229.352 507.404 203.352 502.404 198.852C497.404 194.352 495.904 186.352 494.404 181.852C493.204 178.252 488.571 177.018 486.404 176.852V208.352C486.404 212.852 498.904 246.852 500.904 260.352C502.504 271.152 501.571 300.852 500.904 314.352L470.904 336.352C469.071 334.352 464.704 328.752 461.904 322.352C459.969 317.929 424.795 266.137 389.5 238.352C360.5 274.352 331.087 216.717 328.404 211.352C322.404 199.352 329.404 167.352 330.404 163.852C331.404 160.352 330.404 159.352 331.404 153.852C332.404 148.352 338.404 130.352 339.404 126.352C340.404 122.352 338.404 123.852 338.404 119.352Z" fill="url(#paint2_linear)"/>
<path d="M380.5 93.3516C378.9 85.3516 384.834 71.6849 388 65.8516C402.333 70.5182 431.6 82.9516 434 95.3516C436.4 107.752 427 167.185 422 195.352C408.833 164.685 382.1 101.352 380.5 93.3516Z" fill="url(#paint3_linear)"/>
<path d="M435 84.3516L426 87.8516C426.667 90.5182 428.1 99.3516 428.5 113.352C428.9 127.352 424.333 174.185 422 195.852C425 189.018 432.2 173.352 437 165.352C441.8 157.352 449 140.685 452 133.352C451 132.685 448.6 130.152 447 125.352C445.4 120.552 449.667 115.352 452 113.352C448.833 105.685 442.3 89.8516 441.5 87.8516C440.7 85.8516 436.833 84.6849 435 84.3516Z" fill="#575C89"/>
<path d="M439.003 51.5797C445.582 68.2799 441.542 85.5102 429.981 90.0648C418.419 94.6193 392.803 82.0527 386.224 65.3526C379.646 48.6524 389.438 13.9069 401 9.35238C412.562 4.79782 442.725 15.8437 439.003 51.5797Z" fill="#C6C8D7"/>
<path d="M383 93.8516L370 96.8516L366 131.852C368.833 131.852 374.7 132.152 375.5 133.352C376.3 134.552 375.833 143.518 375.5 147.852C377.667 150.852 384.7 159.752 395.5 171.352C406.3 182.952 417.667 192.185 422 195.352C415.167 178.852 400.3 143.052 395.5 131.852C390.7 120.652 385.167 101.852 383 93.8516Z" fill="#575C89"/>
<path d="M409.5 104.352C397.731 102.128 392.141 99.2025 385.536 82.8516C385.536 83.8516 384.6 86.2516 383 91.8516C381 98.8516 385.536 103.852 389.036 111.852C392.536 119.852 397.536 119.352 400.036 118.352C402.536 117.352 402.536 115.852 403.536 110.852C404.336 106.852 407.667 104.685 409.5 104.352Z" fill="#393C5E"/>
<path d="M390.994 57.8522C387.394 54.2523 385.827 58.0189 385.494 60.3522C385.246 62.0903 385.494 62.3522 386.494 68.3522C388.03 77.5659 387.994 80.8522 385.494 88.8522C382.993 96.8522 374.494 100.352 369.994 97.3522C365.494 94.3522 367.494 89.8522 371.494 77.8522C375.494 65.8522 372.494 68.8522 367.494 52.8522C362.494 36.8522 370.994 22.852 378.994 14.852C386.994 6.852 399.5 5.3523 412.5 7.3523C425.5 9.3523 427.994 17.852 427.494 20.352C426.994 22.852 426.494 25.3518 421.994 25.8518C417.494 26.3518 413.994 23.3518 408.994 23.8518C403.994 24.3518 399.994 30.3518 398.994 33.8518C397.994 37.3518 400.494 36.8518 401.994 40.3518C403.494 43.8518 399.994 44.3518 396.494 47.3518C392.994 50.3518 401.994 65.3518 401.994 66.3518C401.994 67.3518 400.994 68.3518 398.994 67.3518C396.994 66.3518 395.494 62.3522 390.994 57.8522Z" fill="url(#paint4_linear)"/>
<path d="M426.5 90.8516C422.325 99.6998 419.842 102.665 410 104.352C411.333 104.852 414.5 107.152 416.5 110.352C419 114.352 420.5 119.215 423.5 117.852C427.9 115.852 428.5 99.3516 426.5 90.8516Z" fill="#393D5E"/>
<path d="M410 115.352L422 195.352" stroke="#575C89"/>
<path d="M536.633 204.408C537.433 200.808 544.133 194.408 547.633 192.908C551.133 191.407 555.833 192.908 558.633 192.908C562.133 192.908 569.133 189.908 573.133 190.408C577.133 190.908 576.633 193.908 575.633 195.408C574.633 196.908 572.811 196.471 564.133 198.908C556.355 201.092 582.949 216.476 583.633 218.408C584.234 220.107 585.133 222.908 582.133 223.408C579.133 223.908 570.633 218.408 569.133 218.408C567.633 218.408 567.633 218.408 566.633 221.908C565.633 225.408 558.633 227.908 555.133 228.408C551.633 228.908 548.633 229.908 545.133 229.908C541.633 229.908 535.633 222.908 535.133 219.408C534.633 215.908 535.633 208.908 536.633 204.408Z" fill="#CFD1DE"/>
<circle cx="409.5" cy="109.852" r="5.5" fill="#4D5177"/>
<path d="M283.304 330.852C278.504 328.052 279.971 318.019 281.304 313.352C284.638 306.685 292.105 291.952 295.305 286.352C299.305 279.352 316.805 243.852 320.305 233.352C323.805 222.852 338.305 195.852 340.305 194.852C342.305 193.852 370.305 194.852 378.805 195.852C387.305 196.852 396.805 201.852 402.305 204.352C407.805 206.852 411.805 214.352 414.305 221.852C416.805 229.352 419.805 238.852 427.805 254.852C435.805 270.852 462 309.852 462.5 313.352C463 316.852 456.805 324.352 454.805 326.352C452.805 328.352 445.305 338.852 439.805 341.852C434.305 344.852 422.805 342.852 412.305 343.352C401.805 343.852 401.305 333.852 399.805 329.852C398.305 325.852 385.805 287.852 384.305 276.352C382.805 264.852 388.805 252.352 389.805 246.852C390.805 241.352 385.805 227.852 382.805 226.852C379.805 225.852 373.805 219.852 371.805 218.852C369.805 217.852 367.305 219.852 365.305 222.852C363.305 225.852 364.305 242.852 364.305 255.852C364.305 268.852 358.805 306.852 357.805 316.352C356.805 325.852 353.805 341.852 350.305 345.352C346.805 348.852 330.805 347.352 318.805 345.352C306.805 343.352 289.304 334.352 283.304 330.852Z" fill="url(#paint5_linear)"/>
<path d="M410.534 239.881C410.534 247.613 403.594 253.881 395.034 253.881C386.473 253.881 377.034 247.613 377.034 239.881C377.034 232.149 375.534 221.352 392.534 223.352C401.094 223.352 410.534 232.149 410.534 239.881Z" fill="#CED0DD"/>
<ellipse cx="393.5" cy="228.852" rx="4.5" ry="2.5" fill="#676767"/>
<path d="M418.734 211.352H397.734C395.734 218.018 392.034 231.352 393.234 231.352C394.434 231.352 404.734 235.685 409.734 237.852L418.734 211.352Z" fill="#E3E3E8"/>
<defs>
<linearGradient id="paint0_linear" x1="139.25" y1="50" x2="139.25" y2="401" gradientUnits="userSpaceOnUse">
<stop stop-color="#FFE113"/>
<stop offset="1" stop-color="#FFC108"/>
</linearGradient>
<linearGradient id="paint1_linear" x1="723.25" y1="50" x2="723.25" y2="401" gradientUnits="userSpaceOnUse">
<stop stop-color="#FFE113"/>
<stop offset="1" stop-color="#FFC108"/>
</linearGradient>
<linearGradient id="paint2_linear" x1="435.823" y1="84.8516" x2="435.823" y2="336.352" gradientUnits="userSpaceOnUse">
<stop stop-color="#8085AF"/>
<stop offset="1" stop-color="#4A4F7B"/>
</linearGradient>
<linearGradient id="paint3_linear" x1="407.308" y1="65.8516" x2="407.308" y2="195.352" gradientUnits="userSpaceOnUse">
<stop stop-color="#AFB1C4"/>
<stop offset="1" stop-color="#8689A9"/>
</linearGradient>
<linearGradient id="paint4_linear" x1="396.773" y1="7.74023" x2="396.773" y2="98.416" gradientUnits="userSpaceOnUse">
<stop stop-color="#363A5D"/>
<stop offset="1" stop-color="#181A2C"/>
</linearGradient>
<linearGradient id="paint5_linear" x1="368.951" y1="194.437" x2="368.951" y2="347.452" gradientUnits="userSpaceOnUse">
<stop stop-color="#3B4066"/>
<stop offset="1" stop-color="#1A1C2F"/>
</linearGradient>
</defs>
</svg>
