<svg width="80" height="16" viewBox="0 0 80 16" fill="none" xmlns="http://www.w3.org/2000/svg">
<g clip-path="url(#clip0_14446_7699)">
<path d="M65.8376 1C66.0624 1 66.2708 1.12287 66.3864 1.32367L70.4512 8.38056C70.6998 8.81212 71.3002 8.81212 71.5488 8.38056L75.6136 1.32367C75.7292 1.12287 75.9376 1 76.1624 1H78.36C78.7135 1 79 1.29848 79 1.66667V14.3333C79 14.7015 78.7135 15 78.36 15L75.8 15C75.4465 15 75.16 14.7015 75.16 14.3333V10.6579C75.16 9.98807 74.3181 9.73655 73.9773 10.3045L72.148 13.3533C72.031 13.5483 71.8259 13.6667 71.6053 13.6667H70.3947C70.1741 13.6667 69.969 13.5483 69.852 13.3533L68.0227 10.3045C67.6819 9.73655 66.84 9.98807 66.84 10.6579V14.3333C66.84 14.7015 66.5535 15 66.2 15H63.64C63.2865 15 63 14.7015 63 14.3333V1.66667C63 1.29848 63.2865 1 63.64 1H65.8376Z" fill="#EBEDF2"/>
<path d="M53.2353 14.3333C53.2353 14.7015 52.9193 15 52.5294 15H49.7059C49.316 15 49 14.7015 49 14.3333V1.66667C49 1.29848 49.316 1 49.7059 1H60.2941C60.684 1 61 1.29848 61 1.66667V3.66667C61 4.03486 60.684 4.33333 60.2941 4.33333H53.9412C53.5513 4.33333 53.2353 4.63181 53.2353 5V6.33333C53.2353 6.70152 53.5513 7 53.9412 7H58.8824C59.2722 7 59.5882 7.29848 59.5882 7.66667V9.66667C59.5882 10.0349 59.2722 10.3333 58.8824 10.3333H53.9412C53.5513 10.3333 53.2353 10.6318 53.2353 11V14.3333Z" fill="#EBEDF2"/>
<path d="M33.9341 1.46673C34.0181 1.18896 34.2659 1 34.5461 1H37.4539C37.7341 1 37.9819 1.18896 38.0659 1.46673L40.0046 7.87482C40.1928 8.49689 41.04 8.49721 41.2286 7.87529L43.1726 1.46626C43.2568 1.18873 43.5045 1 43.7845 1H46.3579C46.7937 1 47.1026 1.44164 46.9682 1.87231L43.0152 14.539C42.9294 14.8138 42.683 15 42.4049 15H39.2527C38.9769 15 38.7319 14.8167 38.6443 14.5449L36.6084 8.22269C36.413 7.61587 35.587 7.61587 35.3916 8.22269L33.3557 14.5449C33.2681 14.8167 33.0231 15 32.7473 15H29.5951C29.317 15 29.0706 14.8138 28.9848 14.539L25.0318 1.87231C24.8974 1.44164 25.2063 1 25.6421 1H28.2155C28.4956 1 28.7432 1.18873 28.8274 1.46626L30.7714 7.87529C30.96 8.49721 31.8072 8.49689 31.9954 7.87482L33.9341 1.46673Z" fill="#EBEDF2"/>
<path d="M8.31726 11.6156C7.13826 10.4515 7.13826 8.56412 8.31726 7.40002L8.5445 7.17566L10.9065 9.50781L8.5445 11.84L8.31726 11.6156Z" fill="#2AA012"/>
<path d="M1.58702 10.9072C0.804325 10.1344 0.804325 8.88145 1.58702 8.10864L2.53183 7.17578L4.89383 9.50794L2.53183 11.8401L1.58702 10.9072Z" fill="#A07112"/>
<path d="M17.0477 1.57961C16.265 0.806798 14.996 0.806798 14.2133 1.57961L13.2685 2.51247L15.6305 4.84462L17.9925 2.51247L17.0477 1.57961Z" fill="#3CE61A"/>
<path d="M11.0351 1.57961C10.2524 0.806798 8.98336 0.806798 8.20066 1.57961L7.25586 2.51247L9.61787 4.84462L11.9799 2.51247L11.0351 1.57961Z" fill="#E6A21A"/>
<path d="M8.54456 7.17578L10.9066 4.84363L13.2686 7.17578L10.9066 9.50794L8.54456 7.17578Z" fill="#30B814"/>
<path d="M2.53186 7.17578L4.89387 4.84363L7.25587 7.17578L4.89387 9.50794L2.53186 7.17578Z" fill="#B88114"/>
<path d="M10.9065 9.50781L13.2685 7.17566L15.6305 9.50781L13.2685 11.84L10.9065 9.50781Z" fill="#2AA112"/>
<path d="M17.9926 11.8398L20.3546 9.50769L22.7166 11.8398L20.3546 14.172L17.9926 11.8398Z" fill="#248A0F"/>
<path d="M8.54456 11.8398L10.9066 9.50769L13.2686 11.8398L10.9066 14.172L8.54456 11.8398Z" fill="#248A0F"/>
<path d="M2.53186 11.8398L4.89387 9.50769L7.25587 11.8398L4.89387 14.172L2.53186 11.8398Z" fill="#8A610F"/>
<path d="M20.3546 9.50781L22.7166 7.17566L25.0786 9.50781L22.7166 11.84L20.3546 9.50781Z" fill="#2AA112"/>
<path d="M10.9065 4.84375L13.2685 2.5116L15.6305 4.84375L13.2685 7.1759L10.9065 4.84375Z" fill="#36CF17"/>
<path d="M4.8938 4.84375L7.2558 2.5116L9.61781 4.84375L7.2558 7.1759L4.8938 4.84375Z" fill="#CF9117"/>
<path d="M13.2686 7.17578L15.6306 4.84363L17.9926 7.17578L15.6306 9.50794L13.2686 7.17578Z" fill="#30B814"/>
<path d="M15.6306 4.84375L17.9926 2.5116L20.3546 4.84375L17.9926 7.1759L15.6306 4.84375Z" fill="#36CE17"/>
<path d="M15.6306 9.50781L17.9926 7.17566L20.3546 9.50781L17.9926 11.84L15.6306 9.50781Z" fill="#2AA112"/>
<path d="M17.9926 7.17578L20.3546 4.84363L22.7166 7.17578L20.3546 9.50794L17.9926 7.17578Z" fill="#30B814"/>
<path d="M13.2686 11.8398L15.6306 9.50769L17.9926 11.8398L15.6306 14.172L13.2686 11.8398Z" fill="#248A0F"/>
<g filter="url(#filter0_d_14446_7699)">
<path d="M10.9066 14.1727L14.2134 10.9077C14.9961 10.1349 16.2651 10.1349 17.0478 10.9077L20.3546 14.1727H10.9066Z" fill="url(#paint0_linear_14446_7699)"/>
</g>
</g>
<defs>
<filter id="filter0_d_14446_7699" x="8.90662" y="9.32812" width="13.448" height="7.84375" filterUnits="userSpaceOnUse" color-interpolation-filters="sRGB">
<feFlood flood-opacity="0" result="BackgroundImageFix"/>
<feColorMatrix in="SourceAlpha" type="matrix" values="0 0 0 0 0 0 0 0 0 0 0 0 0 0 0 0 0 0 127 0" result="hardAlpha"/>
<feOffset dy="1"/>
<feGaussianBlur stdDeviation="1"/>
<feComposite in2="hardAlpha" operator="out"/>
<feColorMatrix type="matrix" values="0 0 0 0 0 0 0 0 0 0 0 0 0 0 0 0 0 0 0.25 0"/>
<feBlend mode="normal" in2="BackgroundImageFix" result="effect1_dropShadow_14446_7699"/>
<feBlend mode="normal" in="SourceGraphic" in2="effect1_dropShadow_14446_7699" result="shape"/>
</filter>
<linearGradient id="paint0_linear_14446_7699" x1="15.5356" y1="10.4041" x2="15.5356" y2="14.3619" gradientUnits="userSpaceOnUse">
<stop stop-color="white"/>
<stop offset="1" stop-color="#D0D0D0"/>
</linearGradient>
<clipPath id="clip0_14446_7699">
<rect width="80" height="16" fill="white"/>
</clipPath>
</defs>
</svg>
