<svg width="191" height="24" viewBox="0 0 191 24" fill="none" xmlns="http://www.w3.org/2000/svg">
<path d="M10.1194 22C8.5597 22 7.04593 21.8077 5.57802 21.4231C4.11011 21.0385 2.91744 20.5256 2 19.8846L3.78901 15.8736C4.6514 16.4414 5.65142 16.8993 6.78904 17.2473C7.92667 17.5952 9.04595 17.7692 10.1469 17.7692C12.2386 17.7692 13.2845 17.2473 13.2845 16.2033C13.2845 15.6538 12.9818 15.2509 12.3763 14.9945C11.7891 14.7198 10.835 14.4359 9.51384 14.1429C8.06428 13.8315 6.85326 13.5018 5.88078 13.1538C4.90829 12.7875 4.07342 12.2106 3.37616 11.4231C2.67891 10.6355 2.33028 9.57326 2.33028 8.23626C2.33028 7.0641 2.65138 6.01099 3.29359 5.07692C3.9358 4.12454 4.88994 3.37363 6.15601 2.82418C7.44043 2.27473 9.00925 2 10.8625 2C12.1285 2 13.3763 2.14652 14.6056 2.43956C15.835 2.71429 16.9176 3.12637 17.8534 3.67582L16.1745 7.71429C14.3396 6.72528 12.5597 6.23077 10.835 6.23077C9.75238 6.23077 8.96338 6.3956 8.46796 6.72527C7.97254 7.03663 7.72483 7.44872 7.72483 7.96154C7.72483 8.47436 8.01841 8.85897 8.60557 9.11539C9.19274 9.3718 10.1377 9.63736 11.4405 9.91209C12.9084 10.2234 14.1194 10.5623 15.0735 10.9286C16.046 11.2766 16.8809 11.8443 17.5781 12.6319C18.2938 13.4011 18.6516 14.4542 18.6516 15.7912C18.6516 16.9451 18.3305 17.989 17.6882 18.9231C17.046 19.8571 16.0827 20.6081 14.7983 21.1758C13.5139 21.7253 11.9542 22 10.1194 22Z" fill="#EBEDF2"/>
<path d="M30.0589 22C27.1964 22 24.9671 21.2216 23.3707 19.6648C21.7927 18.1081 21.0037 15.9011 21.0037 13.044V2.38462H26.4533V12.8791C26.4533 15.956 27.6735 17.4945 30.1139 17.4945C32.5359 17.4945 33.747 15.956 33.747 12.8791V2.38462H39.114V13.044C39.114 15.9011 38.3158 18.1081 36.7195 19.6648C35.1415 21.2216 32.9213 22 30.0589 22Z" fill="#EBEDF2"/>
<path d="M51.6132 2.38462C53.3563 2.38462 54.8701 2.67766 56.1545 3.26374C57.439 3.8315 58.4298 4.65568 59.127 5.73626C59.8243 6.79853 60.1729 8.05311 60.1729 9.5C60.1729 10.9469 59.8243 12.2015 59.127 13.2637C58.4298 14.326 57.439 15.1502 56.1545 15.7363C54.8701 16.304 53.3563 16.5879 51.6132 16.5879H48.2554V21.6154H42.8058V2.38462H51.6132ZM51.2829 12.3022C52.4022 12.3022 53.2462 12.0641 53.8151 11.5879C54.3839 11.0934 54.6683 10.3974 54.6683 9.5C54.6683 8.60256 54.3839 7.90659 53.8151 7.41209C53.2462 6.91758 52.4022 6.67033 51.2829 6.67033H48.2554V12.3022H51.2829Z" fill="#EBEDF2"/>
<path d="M78.298 17.4121V21.6154H62.83V2.38462H77.9403V6.58791H68.2245V9.82967H76.7843V13.8956H68.2245V17.4121H78.298Z" fill="#EBEDF2"/>
<path d="M89.7443 16.5055H86.7718V21.6154H81.3222V2.38462H90.1296C91.8727 2.38462 93.3865 2.67766 94.6709 3.26374C95.9554 3.8315 96.9462 4.65568 97.6434 5.73626C98.3407 6.79853 98.6893 8.05311 98.6893 9.5C98.6893 10.8919 98.3591 12.1099 97.6985 13.1538C97.0563 14.1795 96.1297 14.9853 94.9186 15.5714L99.0746 21.6154H93.2397L89.7443 16.5055ZM93.1847 9.5C93.1847 8.60256 92.9003 7.90659 92.3315 7.41209C91.7626 6.91758 90.9186 6.67033 89.7993 6.67033H86.7718V12.3022H89.7993C90.9186 12.3022 91.7626 12.0641 92.3315 11.5879C92.9003 11.0934 93.1847 10.3974 93.1847 9.5Z" fill="#EBEDF2"/>
<path d="M121.237 2.38462L112.98 21.6154H107.613L99.3839 2.38462H105.274L110.503 14.9121L115.843 2.38462H121.237Z" fill="#EBEDF2"/>
<path d="M122.365 2.38462H127.815V21.6154H122.365V2.38462Z" fill="#EBEDF2"/>
<path d="M138.463 22C136.903 22 135.389 21.8077 133.921 21.4231C132.453 21.0385 131.261 20.5256 130.343 19.8846L132.132 15.8736C132.995 16.4414 133.995 16.8993 135.132 17.2473C136.27 17.5952 137.389 17.7692 138.49 17.7692C140.582 17.7692 141.628 17.2473 141.628 16.2033C141.628 15.6538 141.325 15.2509 140.719 14.9945C140.132 14.7198 139.178 14.4359 137.857 14.1429C136.407 13.8315 135.196 13.5018 134.224 13.1538C133.251 12.7875 132.417 12.2106 131.719 11.4231C131.022 10.6355 130.673 9.57326 130.673 8.23626C130.673 7.0641 130.995 6.01099 131.637 5.07692C132.279 4.12454 133.233 3.37363 134.499 2.82418C135.784 2.27473 137.352 2 139.206 2C140.472 2 141.719 2.14652 142.949 2.43956C144.178 2.71429 145.261 3.12637 146.197 3.67582L144.518 7.71429C142.683 6.72528 140.903 6.23077 139.178 6.23077C138.096 6.23077 137.307 6.3956 136.811 6.72527C136.316 7.03663 136.068 7.44872 136.068 7.96154C136.068 8.47436 136.362 8.85897 136.949 9.11539C137.536 9.3718 138.481 9.63736 139.784 9.91209C141.252 10.2234 142.463 10.5623 143.417 10.9286C144.389 11.2766 145.224 11.8443 145.921 12.6319C146.637 13.4011 146.995 14.4542 146.995 15.7912C146.995 16.9451 146.674 17.989 146.031 18.9231C145.389 19.8571 144.426 20.6081 143.141 21.1758C141.857 21.7253 140.297 22 138.463 22Z" fill="#EBEDF2"/>
<path d="M179.67 16.5055H176.697V21.6154H171.248V2.38462H180.055C181.798 2.38462 183.312 2.67766 184.596 3.26374C185.881 3.8315 186.872 4.65568 187.569 5.73626C188.266 6.79853 188.615 8.05311 188.615 9.5C188.615 10.8919 188.284 12.1099 187.624 13.1538C186.982 14.1795 186.055 14.9853 184.844 15.5714L189 21.6154H183.165L179.67 16.5055ZM183.11 9.5C183.11 8.60256 182.826 7.90659 182.257 7.41209C181.688 6.91758 180.844 6.67033 179.725 6.67033H176.697V12.3022H179.725C180.844 12.3022 181.688 12.0641 182.257 11.5879C182.826 11.0934 183.11 10.3974 183.11 9.5Z" fill="#EBEDF2"/>
<path d="M158.888 22C156.851 22 155.017 21.5696 153.384 20.7088C151.769 19.848 150.494 18.6575 149.558 17.1374C148.64 15.6172 148.182 13.9048 148.182 12C148.182 10.0952 148.64 8.38278 149.558 6.86264C150.494 5.34249 151.769 4.15202 153.384 3.29121C155.017 2.4304 156.851 2 158.888 2C160.925 2 162.751 2.4304 164.365 3.29121C165.998 4.15202 167.274 5.34249 168.191 6.86264C169.127 8.38278 169.595 10.0952 169.595 12C169.595 13.9048 169.127 15.6172 168.191 17.1374C167.274 18.6575 165.998 19.848 164.365 20.7088C162.751 21.5696 160.925 22 158.888 22ZM158.888 17.4945C159.861 17.4945 160.741 17.2656 161.53 16.8077C162.319 16.3498 162.943 15.7088 163.402 14.8846C163.861 14.0421 164.09 13.0806 164.09 12C164.09 10.9194 163.861 9.96703 163.402 9.14286C162.943 8.30037 162.319 7.65018 161.53 7.19231C160.741 6.73443 159.861 6.5055 158.888 6.5055C157.916 6.5055 157.035 6.73443 156.246 7.19231C155.457 7.65018 154.833 8.30037 154.374 9.14286C153.916 9.96703 153.686 10.9194 153.686 12C153.686 13.0806 153.916 14.0421 154.374 14.8846C154.833 15.7088 155.457 16.3498 156.246 16.8077C157.035 17.2656 157.916 17.4945 158.888 17.4945Z" fill="#C9981D"/>
<ellipse cx="158.943" cy="12.0763" rx="1.91134" ry="1.90781" fill="#EBEDF2"/>
</svg>
