<svg xmlns="http://www.w3.org/2000/svg">
    <path d="M9.333 8.333c-0.552 0-1 0.448-1 1s0.448 1 1 1h13.333c0.552 0 1-0.448 1-1s-0.448-1-1-1h-13.333z"></path>
    <path d="M8.333 14.667c0-0.552 0.448-1 1-1h13.333c0.552 0 1 0.448 1 1s-0.448 1-1 1h-13.333c-0.552 0-1-0.448-1-1z"></path>
    <path d="M6.667 3c-2.019 0-3.667 1.648-3.667 3.667v18.667c0 2.019 1.648 3.667 3.667 3.667h18.667c2.019 0 3.667-1.648 3.667-3.667v-18.667c0-2.019-1.648-3.667-3.667-3.667h-18.667zM5 6.667c0-0.914 0.752-1.667 1.667-1.667h18.667c0.914 0 1.667 0.752 1.667 1.667v12.39c-0.104-0.037-0.216-0.057-0.333-0.057h-5.332c-0.403 0-0.751 0.239-0.91 0.582l-1.042 2.085h-6.764l-1.050-2.099c-0.016-0.033-0.033-0.064-0.052-0.094-0.078-0.125-0.18-0.229-0.297-0.306-0.158-0.105-0.349-0.167-0.553-0.167h-5.333c-0.117 0-0.229 0.020-0.333 0.057v-12.39zM11.79 23.645c0.078 0.017 0.159 0.024 0.24 0.022h7.939c0.377 0.011 0.745-0.193 0.925-0.553l1.057-2.114h4.715c0.117 0 0.229-0.020 0.333-0.057v4.39c0 0.914-0.752 1.667-1.667 1.667h-18.667c-0.914 0-1.667-0.752-1.667-1.667v-4.39c0.104 0.037 0.216 0.057 0.333 0.057h4.715l1.045 2.091c0.025 0.053 0.055 0.104 0.088 0.152 0.088 0.126 0.202 0.226 0.331 0.298 0.085 0.048 0.178 0.083 0.277 0.104z"></path>
</svg>
