<svg xmlns="http://www.w3.org/2000/svg">
    <path d="M4 8c0-2.267 1.733-4 4-4 1.922 0 3.46 1.246 3.884 3.007 0.038-0.004 0.077-0.007 0.116-0.007h8c2.819 0 5 2.181 5 5s-2.181 5-5 5h-6.667c-1.714 0-3 1.286-3 3s1.286 3 3 3h12.097l-1.138-1.2c-0.391-0.412-0.391-1.080 0-1.491s1.024-0.412 1.414 0l2.667 2.812c0.195 0.206 0.293 0.476 0.293 0.746s-0.097 0.54-0.293 0.746l-2.667 2.812c-0.391 0.412-1.024 0.412-1.414 0s-0.391-1.079 0-1.491l0.886-0.934h-11.845c-2.819 0-5-2.181-5-5s2.181-5 5-5h6.667c1.714 0 3-1.286 3-3s-1.286-3-3-3h-8c-0.039 0-0.078-0.002-0.116-0.007-0.424 1.761-1.962 3.007-3.884 3.007-2.267 0-4-1.733-4-4zM10 8c0-1.067-0.933-2-2-2s-2 0.933-2 2c0 1.067 0.933 2 2 2s2-0.933 2-2z"></path>
</svg>
