<svg xmlns="http://www.w3.org/2000/svg">
    <path d="M20.707 12.892c0.391 0.391 0.391 1.024 0 1.414l-5.032 5.032c-0.011 0.013-0.023 0.025-0.035 0.037-0.391 0.391-1.024 0.391-1.414 0l-2.933-2.933c-0.391-0.391-0.391-1.024 0-1.414s1.024-0.391 1.414 0l2.225 2.225 4.361-4.361c0.391-0.391 1.024-0.391 1.414 0z"></path>
    <path d="M13.284 3.985c1.805-0.602 3.627-0.602 5.433 0 0.021 0.007 0.041 0.015 0.062 0.023l6.521 2.662c1.421 0.539 2.368 1.824 2.368 3.331v4.8c0 6.473-4.864 12.611-11.454 14.044-0.14 0.030-0.285 0.030-0.425 0-6.59-1.433-11.454-7.571-11.454-14.044v-4.8c0-1.507 0.947-2.792 2.368-3.331l6.521-2.662c0.020-0.008 0.041-0.016 0.062-0.023zM13.947 5.873l-6.502 2.654c-0.009 0.004-0.018 0.007-0.027 0.010-0.704 0.264-1.084 0.843-1.084 1.464v4.8c0 5.458 4.098 10.722 9.667 12.041 5.568-1.319 9.667-6.583 9.667-12.041v-4.8c0-0.621-0.38-1.2-1.084-1.464-0.009-0.003-0.018-0.007-0.027-0.010l-6.502-2.654c-1.374-0.452-2.733-0.452-4.107 0z"></path>
</svg>
