<svg xmlns="http://www.w3.org/2000/svg">
    <path fill-rule="evenodd" clip-rule="evenodd" d="M9.50965 1.98777C8.99751 1.47563 8.16718 1.47563 7.65504 1.98777L3.28215 6.36066C2.3675 7.27531 2.3675 8.75825 3.28215 9.6729C4.1968 10.5875 5.67973 10.5875 6.59438 9.6729L9.75259 6.5147C10.0455 6.2218 10.5204 6.2218 10.8132 6.5147C11.1061 6.80759 11.1061 7.28246 10.8132 7.57536L7.65504 10.7336C6.15461 12.234 3.72192 12.234 2.22149 10.7336C0.721053 9.23312 0.721052 6.80044 2.22149 5.3L6.59438 0.927107C7.6923 -0.170814 9.47239 -0.170814 10.5703 0.927107C11.6682 2.02503 11.6682 3.80511 10.5703 4.90303L6.26682 9.20652C5.57142 9.90192 4.44394 9.90193 3.74853 9.20652C3.05312 8.51111 3.05312 7.38363 3.74853 6.68822L6.83732 3.59943C7.13022 3.30654 7.60509 3.30654 7.89798 3.59943C8.19088 3.89233 8.19088 4.3672 7.89798 4.66009L4.80919 7.74888C4.69957 7.85851 4.69957 8.03624 4.80919 8.14586C4.91881 8.25548 5.09654 8.25548 5.20616 8.14586L9.50965 3.84237C10.0218 3.33024 10.0218 2.4999 9.50965 1.98777Z"/>
</svg>
