<svg xmlns="http://www.w3.org/2000/svg">
    <path d="M14.667 12c0-0.736 0.597-1.333 1.333-1.333s1.333 0.597 1.333 1.333v4c0 0.736-0.597 1.333-1.333 1.333s-1.333-0.597-1.333-1.333v-4z"></path>
    <path d="M16 18.667c-0.736 0-1.333 0.597-1.333 1.333s0.597 1.333 1.333 1.333c0.736 0 1.333-0.597 1.333-1.333s-0.597-1.333-1.333-1.333z"></path>
    <path d="M5.333 16c0-5.888 4.779-10.667 10.667-10.667s10.667 4.779 10.667 10.667c0 5.888-4.779 10.667-10.667 10.667s-10.667-4.779-10.667-10.667zM7.467 16c0 4.715 3.819 8.533 8.533 8.533s8.533-3.819 8.533-8.533c0-4.715-3.819-8.533-8.533-8.533s-8.533 3.819-8.533 8.533z"></path>
</svg>
