<svg xmlns="http://www.w3.org/2000/svg">
    <path d="M25.455 24.228c-0.080-0.841-0.636-1.671-1.698-2.535-1.25-1.017-2.215-1.51-3.038-1.551-1.027-0.051-1.645 0.581-2.299 1.251-0.067 0.068-0.135 0.138-0.204 0.208-0.040 0.040-0.106 0.086-0.255 0.079-0.435-0.022-1.58-0.468-4.355-3.217-1.203-1.193-2.089-2.201-2.634-2.997-0.542-0.791-0.745-1.384-0.543-1.587 0.069-0.070 0.138-0.138 0.205-0.204 0.594-0.589 1.156-1.145 1.23-1.993 0.078-0.901-0.407-1.93-1.573-3.336-0.902-1.090-1.763-1.641-2.632-1.684-1.18-0.058-2.043 0.862-2.737 1.601-0.122 0.13-0.238 0.253-0.35 0.367-0.84 0.844-0.747 2.749 0.249 5.096 1.078 2.542 3.087 5.345 5.655 7.891 4.57 4.53 8.794 6.267 11.023 6.377 0.901 0.045 1.599-0.156 2.020-0.58 0.114-0.115 0.237-0.232 0.367-0.356 0.752-0.717 1.688-1.609 1.572-2.829z"></path>
    <path d="M21.333 7.434l-1.71-1.708c-0.524-0.523-1.373-0.523-1.897 0s-0.524 1.371 0 1.895l1.716 1.714-1.714 1.712c-0.524 0.523-0.524 1.371 0 1.895s1.373 0.523 1.897 0l1.708-1.706 1.708 1.706c0.524 0.523 1.897 0 1.897 0 0.524-0.523 0.524-1.371 0-1.895l-1.714-1.712 1.716-1.714c0.524-0.523 0.524-1.371 0-1.895s-1.373-0.523-1.897 0l-1.71 1.708z"></path>
</svg>
