<svg xmlns="http://www.w3.org/2000/svg">
    <path d="M16 4.333c-0.552 0-1 0.448-1 1s0.448 1 1 1c2.527 0 4.935 0.956 6.88 2.894 0.004 0.004 0.009 0.009 0.013 0.013 1.947 1.947 2.907 4.36 2.907 6.893 0 0.552 0.448 1 1 1s1-0.448 1-1c0-3.060-1.168-5.975-3.478-8.293-0.005-0.005-0.009-0.010-0.014-0.014-2.32-2.32-5.24-3.493-8.307-3.493z"></path>
    <path d="M25.455 24.229c-0.080-0.841-0.636-1.671-1.698-2.535-1.25-1.017-2.215-1.51-3.038-1.551-1.027-0.051-1.645 0.581-2.299 1.251-0.067 0.068-0.135 0.138-0.204 0.208-0.040 0.040-0.106 0.086-0.255 0.079-0.435-0.021-1.58-0.468-4.355-3.217-1.203-1.193-2.089-2.201-2.634-2.997-0.542-0.791-0.745-1.384-0.543-1.587 0.069-0.070 0.138-0.138 0.205-0.204 0.594-0.589 1.156-1.145 1.23-1.993 0.078-0.901-0.407-1.93-1.573-3.336-0.902-1.090-1.763-1.641-2.632-1.684-1.18-0.058-2.043 0.862-2.737 1.601-0.122 0.13-0.238 0.253-0.35 0.367-0.84 0.844-0.747 2.749 0.249 5.096 1.078 2.542 3.087 5.345 5.655 7.891 4.57 4.53 8.794 6.267 11.023 6.377 0.901 0.045 1.599-0.156 2.020-0.58 0.114-0.115 0.237-0.232 0.367-0.356 0.752-0.717 1.688-1.61 1.572-2.829z"></path>
    <path d="M15 10.8c0-0.552 0.448-1 1-1 1.488 0 3.106 0.555 4.347 1.677 0.032 0.025 0.063 0.053 0.093 0.082 0.020 0.020 0.040 0.040 0.060 0.061 0.025 0.024 0.049 0.048 0.074 0.072 0.031 0.031 0.060 0.064 0.087 0.099 1.119 1.24 1.673 2.856 1.673 4.342 0 0.552-0.448 1-1 1s-1-0.448-1-1c0-1.060-0.419-2.235-1.245-3.097-0.861-0.82-2.031-1.237-3.088-1.237-0.552 0-1-0.448-1-1z"></path>
</svg>
