<svg xmlns="http://www.w3.org/2000/svg">
    <path d="M3 16c0-7.18 5.82-13 13-13s13 5.82 13 13c0 7.18-5.82 13-13 13s-13-5.82-13-13zM16 5c-6.075 0-11 4.925-11 11s4.925 11 11 11c6.075 0 11-4.925 11-11s-4.925-11-11-11z"></path>
    <path d="M11.333 11c0.552 0 1 0.448 1 1v1.333c0 0.552-0.448 1-1 1s-1-0.448-1-1v-1.333c0-0.552 0.448-1 1-1z"></path>
    <path d="M20.667 11c0.552 0 1 0.448 1 1v1.333c0 0.552-0.448 1-1 1s-1-0.448-1-1v-1.333c0-0.552 0.448-1 1-1z"></path>
    <path d="M12.040 18.892c0 0 0 0 0 0l-0.001-0.001-0.001-0.001c-0.001-0.001-0.001-0.001-0.001-0.001l0 0c0.001 0.001 0.002 0.002 0.004 0.004 0 0 0 0 0 0zM12.036 18.889l0.005 0.005c0.007 0.006 0.019 0.018 0.038 0.035 0.038 0.034 0.1 0.087 0.186 0.154 0.171 0.134 0.434 0.319 0.778 0.505 0.688 0.373 1.692 0.746 2.957 0.746s2.269-0.373 2.957-0.746c0.344-0.187 0.606-0.371 0.778-0.505 0.086-0.067 0.148-0.12 0.186-0.154 0.019-0.017 0.032-0.029 0.038-0.035l0.005-0.005c0.391-0.386 1.021-0.385 1.41 0.004 0.391 0.391 0.391 1.024 0 1.414l-0.707-0.707c0.707 0.707 0.707 0.707 0.707 0.708l-0.002 0.002-0.003 0.003-0.009 0.009-0.025 0.024c-0.020 0.019-0.048 0.045-0.082 0.075-0.068 0.061-0.164 0.143-0.287 0.239-0.245 0.191-0.6 0.44-1.055 0.687-0.912 0.494-2.241 0.987-3.91 0.987s-2.998-0.494-3.91-0.987c-0.456-0.247-0.81-0.495-1.055-0.687-0.123-0.096-0.219-0.178-0.287-0.239-0.034-0.031-0.061-0.056-0.082-0.075l-0.025-0.024-0.009-0.009-0.003-0.003-0.001-0.001-0.001-0.001c-0-0-0.001-0.001 0.707-0.708l-0.707 0.707c-0.391-0.391-0.391-1.024 0-1.414 0.389-0.389 1.019-0.391 1.41-0.004z"></path>
</svg>
