<svg xmlns="http://www.w3.org/2000/svg">
    <path d="M5.333 8.507v10.705c0 1.748 1.426 3.173 3.173 3.173h2.784l3.98 3.98c0.403 0.403 1.057 0.403 1.46 0l3.98-3.98h2.784c1.748 0 3.173-1.426 3.173-3.173v-10.705c0-1.748-1.426-3.173-3.173-3.173h-14.987c-1.748 0-3.173 1.426-3.173 3.173zM12.113 20.399c-0.122-0.051-0.255-0.078-0.395-0.078h-3.211c-0.607 0-1.109-0.501-1.109-1.109v-10.705c0-0.607 0.501-1.109 1.109-1.109h14.987c0.607 0 1.109 0.501 1.109 1.109v10.705c0 0.607-0.501 1.109-1.109 1.109h-3.211c-0.274 0-0.536 0.109-0.73 0.302l-3.552 3.552-3.552-3.552c-0.099-0.099-0.213-0.174-0.335-0.224z"></path>
    <path d="M10.685 15.998c0-0.57 0.462-1.032 1.032-1.032h8.564c0.57 0 1.032 0.462 1.032 1.032s-0.462 1.032-1.032 1.032h-8.564c-0.57 0-1.032-0.462-1.032-1.032z"></path>
    <path d="M10.685 11.717c0-0.57 0.462-1.032 1.032-1.032h8.564c0.57 0 1.032 0.462 1.032 1.032s-0.462 1.032-1.032 1.032h-8.564c-0.57 0-1.032-0.462-1.032-1.032z"></path>
</svg>
