<svg xmlns="http://www.w3.org/2000/svg">
    <path d="M11.333 8.333c-2.393 0-4.333 1.94-4.333 4.333s1.94 4.333 4.333 4.333c2.393 0 4.333-1.94 4.333-4.333s-1.94-4.333-4.333-4.333zM9 12.667c0-1.289 1.045-2.333 2.333-2.333s2.333 1.045 2.333 2.333c0 1.289-1.045 2.333-2.333 2.333s-2.333-1.045-2.333-2.333z"></path>
    <path d="M20.667 8.333c-2.393 0-4.333 1.94-4.333 4.333s1.94 4.333 4.333 4.333 4.333-1.94 4.333-4.333c0-2.393-1.94-4.333-4.333-4.333zM18.333 12.667c0-1.289 1.045-2.333 2.333-2.333s2.333 1.045 2.333 2.333c0 1.289-1.045 2.333-2.333 2.333s-2.333-1.045-2.333-2.333z"></path>
    <path d="M11.333 19.667c-2.211 0-3.667 1.451-3.667 3 0 0.552-0.448 1-1 1s-1-0.448-1-1c0-2.931 2.651-5 5.667-5 1.883 0 3.625 0.807 4.667 2.127 1.042-1.32 2.783-2.127 4.667-2.127 3.015 0 5.667 2.069 5.667 5 0 0.552-0.448 1-1 1s-1-0.448-1-1c0-1.549-1.455-3-3.667-3s-3.667 1.451-3.667 3c0 0.552-0.448 1-1 1s-1-0.448-1-1c0-1.549-1.455-3-3.667-3z"></path>
</svg>
