<svg xmlns="http://www.w3.org/2000/svg">
    <path d="M19.778 16.928c0.736 0.002 1.332-0.594 1.33-1.33s-0.6-1.335-1.337-1.337l-2.447-0.006-0.006-2.412c-0.002-0.736-0.6-1.335-1.336-1.336s-1.332 0.594-1.33 1.33l0.006 2.412-2.411-0.006c-0.736-0.002-1.332 0.594-1.33 1.33s0.6 1.335 1.336 1.337l2.411 0.006 0.006 2.447c0.002 0.736 0.6 1.335 1.337 1.337s1.332-0.594 1.33-1.33l-0.006-2.447 2.447 0.006z"></path>
    <path d="M8.507 6.667h14.987c1.748 0 3.173 1.426 3.173 3.173v10.705c0 1.748-1.426 3.173-3.173 3.173h-2.784l-3.98 3.98c-0.403 0.403-1.057 0.403-1.46 0l-3.98-3.98h-2.784c-1.748 0-3.173-1.426-3.173-3.173v-10.705c0-1.748 1.426-3.173 3.173-3.173zM11.718 21.653c0.14 0 0.273 0.028 0.395 0.078s0.236 0.125 0.335 0.224l3.552 3.552 3.552-3.552c0.194-0.194 0.456-0.302 0.73-0.302h3.211c0.607 0 1.109-0.501 1.109-1.109v-10.705c0-0.607-0.501-1.109-1.109-1.109h-14.987c-0.607 0-1.109 0.501-1.109 1.109v10.705c0 0.607 0.501 1.109 1.109 1.109h3.211z"></path>
</svg>
