<svg xmlns="http://www.w3.org/2000/svg">
    <path d="M5 19.246c-0.552 0-1 0.448-1 1s0.448 1 1 1h2.133c0.552 0 1-0.448 1-1s-0.448-1-1-1h-2.133z"></path>
    <path d="M2.667 16.246c0-0.552 0.448-1 1-1h3.467c0.552 0 1 0.448 1 1s-0.448 1-1 1h-3.467c-0.552 0-1-0.448-1-1z"></path>
    <path d="M2.333 11.246c-0.552 0-1 0.448-1 1s0.448 1 1 1h4.8c0.552 0 1-0.448 1-1s-0.448-1-1-1h-4.8z"></path>
    <path d="M11.053 10.108c-0.828-1.932 1.121-3.888 3.056-3.067l16.054 6.811c1.896 0.804 1.896 3.492 0 4.296l-16.054 6.811c-1.935 0.821-3.884-1.135-3.056-3.067l2.469-5.761c0.036-0.084 0.036-0.179 0-0.263l-2.469-5.761zM13.328 8.882c-0.276-0.117-0.555 0.162-0.437 0.438l2.469 5.761c0.252 0.587 0.252 1.251 0 1.838l-2.469 5.761c-0.118 0.276 0.16 0.555 0.437 0.438l16.054-6.811c0.271-0.115 0.271-0.499 0-0.614l-16.054-6.811z"></path>
    <path d="M14.667 15.067h16v2h-16v-2z"></path>
</svg>
