<svg xmlns="http://www.w3.org/2000/svg">
    <path d="M21.041 9.884c0.074 0.074 0.148 0.146 0 0v0z"></path>
    <path d="M21.041 9.884c-0.148-0.146-0.074-0.073 0 0v0z"></path>
    <path d="M27.778 9.884c-0.148-0.146-0.074-0.073 0 0v0z"></path>
    <path d="M27.778 9.884c0.074 0.074 0.148 0.146 0 0v0z"></path>
    <path d="M21.041 9.884c-0.296-0.293-0.775-0.293-1.072 0l-10.715 10.645-3.962-3.895c-0.295-0.293-0.775-0.293-1.071 0s-0.296 0.768 0 1.061l4.499 4.424c0.293 0.29 0.779 0.29 1.072 0l11.249-11.174c0.296-0.293 0.296-0.767 0-1.061z"></path>
    <path d="M27.778 9.884c-0.296-0.293-0.775-0.293-1.072 0l-10.715 10.645-0.962-0.895c-0.296-0.293-0.775-0.293-1.071 0s-0.296 0.768 0 1.061l1.499 1.424c0.293 0.29 0.779 0.29 1.072 0l11.249-11.174c0.296-0.293 0.296-0.767 0-1.061z"></path>
</svg>
