<svg xmlns="http://www.w3.org/2000/svg">
    <path d="M19.267 12.003c0.221 0 0.4 0.179 0.4 0.4l-0 5.377c-0 0.357-0.433 0.535-0.685 0.281l-1.925-1.949-3.35 3.35c-0.39 0.391-1.024 0.391-1.414 0s-0.391-1.024 0-1.414l3.359-3.359-1.979-2.004c-0.25-0.253-0.071-0.681 0.285-0.681l5.31 0z"></path>
    <path d="M8.507 6.667h14.987c1.748 0 3.173 1.426 3.173 3.173v10.705c0 1.748-1.426 3.173-3.173 3.173h-2.784l-3.98 3.98c-0.403 0.403-1.057 0.403-1.46 0l-3.98-3.98h-2.784c-1.748 0-3.173-1.426-3.173-3.173v-10.705c0-1.748 1.426-3.173 3.173-3.173zM11.718 21.653c0.14 0 0.273 0.028 0.395 0.078s0.236 0.125 0.335 0.224l3.552 3.552 3.552-3.552c0.194-0.194 0.456-0.302 0.73-0.302h3.211c0.607 0 1.109-0.501 1.109-1.109v-10.705c0-0.607-0.501-1.109-1.109-1.109h-14.987c-0.607 0-1.109 0.501-1.109 1.109v10.705c0 0.607 0.501 1.109 1.109 1.109h3.211z"></path>
</svg>
