<svg xmlns="http://www.w3.org/2000/svg">
    <path d="M4 8c0-2.209 1.791-4 4-4h16c2.209 0 4 1.791 4 4v16c0 2.209-1.791 4-4 4h-16c-2.209 0-4-1.791-4-4v-16zM8 6.667c-0.736 0-1.333 0.597-1.333 1.333v16c0 0.736 0.597 1.333 1.333 1.333h16c0.736 0 1.333-0.597 1.333-1.333v-16c0-0.736-0.597-1.333-1.333-1.333h-16z"></path>
    <path d="M23.609 11.057c0.521 0.521 0.521 1.365 0 1.886l-9.333 9.333c-0.521 0.521-1.365 0.521-1.886 0l-4-4c-0.521-0.521-0.521-1.365 0-1.886s1.365-0.521 1.886 0l3.057 3.057 8.391-8.391c0.521-0.521 1.365-0.521 1.886 0z"></path>
</svg>
