<svg xmlns="http://www.w3.org/2000/svg">
    <path d="M10.6842 2.51407C10.9771 2.22117 10.9771 1.7463 10.6842 1.45341C10.3913 1.16051 9.91643 1.16051 9.62354 1.45341L6.00002 5.07692L2.37651 1.45341C2.08361 1.16052 1.60874 1.16052 1.31585 1.45341C1.02295 1.7463 1.02295 2.22118 1.31585 2.51407L4.93936 6.13759L1.45343 9.62352C1.16054 9.91641 1.16054 10.3913 1.45343 10.6842C1.74632 10.9771 2.2212 10.9771 2.51409 10.6842L6.00002 7.19825L9.48596 10.6842C9.77885 10.9771 10.2537 10.9771 10.5466 10.6842C10.8395 10.3913 10.8395 9.91641 10.5466 9.62352L7.06068 6.13758L10.6842 2.51407Z"/>
</svg>
