<svg xmlns="http://www.w3.org/2000/svg">
    <path d="M22.667 7.333h-6.667c-0.368 0-0.667 0.298-0.667 0.667h-2c0-1.473 1.194-2.667 2.667-2.667h6.667c1.473 0 2.667 1.194 2.667 2.667v12c0 1.473-1.194 2.667-2.667 2.667h-1.333v-2h1.333c0.368 0 0.667-0.299 0.667-0.667v-12c0-0.368-0.299-0.667-0.667-0.667z"></path>
    <path d="M8 12v12c0 1.473 1.194 2.667 2.667 2.667h6.667c1.473 0 2.667-1.194 2.667-2.667v-12c0-1.473-1.194-2.667-2.667-2.667h-6.667c-1.473 0-2.667 1.194-2.667 2.667zM10.667 11.333h6.667c0.368 0 0.667 0.298 0.667 0.667v12c0 0.368-0.299 0.667-0.667 0.667h-6.667c-0.368 0-0.667-0.299-0.667-0.667v-12c0-0.368 0.298-0.667 0.667-0.667z"></path>
</svg>
