<svg xmlns="http://www.w3.org/2000/svg">
    <path d="M18.151 2.667h-10.481c-0.798 0-1.448 0.654-1.448 1.459v23.749c0 0.804 0.649 1.459 1.448 1.459h16.661c0.798 0 1.447-0.654 1.447-1.459v-18.009c0-0.389-0.151-0.756-0.424-1.031l-6.196-5.757c-0.271-0.265-0.628-0.411-1.007-0.411zM23.968 27.51h-15.937v-23.020h8.657v4.891c0 1.080 0.872 1.959 1.943 1.959h5.337v16.17zM18.631 9.516c-0.074 0-0.133-0.061-0.133-0.135v-3.839l4.218 3.974-4.085 0zM11.152 13.44h9.831v1.823h-9.831v-1.823zM11.152 16.479h9.831v1.823h-9.831v-1.823zM11.152 19.518h9.831v1.823h-9.831v-1.823zM11.152 22.557h5.609v1.823h-5.609v-1.823z"></path>
</svg>
