<svg xmlns="http://www.w3.org/2000/svg">
    <path d="M16 3c0.552 0 1 0.448 1 1v17.333c0 0.552-0.448 1-1 1s-1-0.448-1-1v-17.333c0-0.552 0.448-1 1-1z"></path>
    <path d="M4 21.667c0.552 0 1 0.448 1 1 0 2.381 1.952 4.333 4.333 4.333h13.333c2.381 0 4.333-1.952 4.333-4.333 0-0.552 0.448-1 1-1s1 0.448 1 1c0 3.486-2.848 6.333-6.333 6.333h-13.333c-3.486 0-6.333-2.848-6.333-6.333 0-0.552 0.448-1 1-1z"></path>
    <path d="M8.626 15.293c0.391-0.391 1.024-0.391 1.414 0l6.667 6.667c0.391 0.391 0.391 1.024 0 1.414s-1.024 0.391-1.414 0l-6.667-6.667c-0.391-0.391-0.391-1.024 0-1.414z"></path>
    <path d="M23.374 15.293c0.391 0.391 0.391 1.024 0 1.414l-6.667 6.667c-0.391 0.391-1.024 0.391-1.414 0s-0.391-1.024 0-1.414l6.667-6.667c0.391-0.391 1.024-0.391 1.414 0z"></path>
</svg>
