<svg xmlns="http://www.w3.org/2000/svg">
    <path d="M16.067 10.599c-2.909 0-5.267 2.358-5.267 5.267s2.358 5.267 5.267 5.267c2.909 0 5.267-2.358 5.267-5.267s-2.358-5.267-5.267-5.267zM12.8 15.866c0-1.804 1.463-3.267 3.267-3.267s3.267 1.463 3.267 3.267c0 1.804-1.463 3.267-3.267 3.267s-3.267-1.463-3.267-3.267z"></path>
    <path d="M16.067 5.667c-2.618 0-5.16 1.118-7.341 2.79-2.176 1.667-4.058 3.932-5.385 6.365-0.205 0.321-0.34 0.697-0.34 1.112s0.135 0.791 0.34 1.112c1.327 2.433 3.208 4.697 5.385 6.365 2.182 1.671 4.724 2.789 7.341 2.789s5.16-1.118 7.341-2.789c2.176-1.667 4.058-3.932 5.385-6.365 0.205-0.321 0.34-0.697 0.34-1.112s-0.135-0.791-0.34-1.112c-1.327-2.433-3.208-4.697-5.385-6.365-2.182-1.672-4.724-2.79-7.341-2.79zM5.079 15.81c1.205-2.22 2.916-4.275 4.863-5.767 1.951-1.495 4.076-2.377 6.125-2.377s4.174 0.882 6.125 2.377c1.946 1.491 3.657 3.547 4.863 5.767 0.014 0.027 0.030 0.053 0.047 0.078 0.013 0.020 0.021 0.035 0.026 0.045-0.005 0.010-0.013 0.025-0.026 0.045-0.017 0.025-0.032 0.051-0.047 0.078-1.205 2.22-2.916 4.275-4.863 5.767-1.951 1.495-4.076 2.377-6.125 2.377s-4.174-0.882-6.125-2.377c-1.946-1.491-3.657-3.547-4.863-5.767-0.014-0.027-0.030-0.053-0.047-0.078-0.013-0.020-0.021-0.035-0.027-0.045 0.005-0.010 0.013-0.025 0.027-0.045 0.017-0.025 0.032-0.051 0.047-0.078z"></path>
</svg>
