<svg xmlns="http://www.w3.org/2000/svg">
    <path d="M18.040 9.96c0.391 0.391 0.391 1.024 0 1.414l-3.019 3.019 4.072 2.036c0.055 0.026 0.108 0.057 0.158 0.093 0.096 0.069 0.177 0.153 0.241 0.247 0.085 0.123 0.139 0.262 0.161 0.404s0.016 0.291-0.025 0.435c-0.031 0.109-0.081 0.215-0.15 0.31-0.036 0.051-0.077 0.097-0.121 0.139l-3.984 3.983c-0.391 0.391-1.024 0.391-1.414 0s-0.391-1.024 0-1.414l3.019-3.019-4.072-2.036c-0.055-0.026-0.108-0.057-0.158-0.094-0.096-0.069-0.177-0.153-0.241-0.247-0.085-0.124-0.139-0.262-0.162-0.404s-0.016-0.291 0.025-0.435c0.031-0.109 0.081-0.215 0.15-0.31 0.036-0.051 0.077-0.097 0.121-0.139l3.984-3.983c0.391-0.391 1.024-0.391 1.414 0z"></path>
    <path d="M16 3c-7.219 0-13 5.781-13 13s5.781 13 13 13c7.219 0 13-5.781 13-13s-5.781-13-13-13zM5 16c0-6.114 4.886-11 11-11s11 4.886 11 11c0 6.114-4.886 11-11 11s-11-4.886-11-11z"></path>
</svg>
