<svg xmlns="http://www.w3.org/2000/svg">
    <path d="M7.742 15.333h-1.388c0.344-5.396 4.829-9.667 10.312-9.667 5.707 0 10.333 4.626 10.333 10.333s-4.626 10.333-10.333 10.333c-0.552 0-1 0.448-1 1s0.448 1 1 1c6.811 0 12.333-5.522 12.333-12.333s-5.522-12.333-12.333-12.333c-6.588 0-11.969 5.165-12.316 11.667h-1.427c-0.229 0-0.344 0.379-0.182 0.601l2.409 3.296c0.1 0.137 0.263 0.137 0.364 0l2.409-3.296c0.162-0.222 0.047-0.601-0.182-0.601z"></path>
    <path d="M17.667 11c0-0.552-0.448-1-1-1s-1 0.448-1 1v6.305l-3.101 3.722c-0.354 0.424-0.296 1.055 0.128 1.408s1.055 0.296 1.408-0.128l3.333-4c0.15-0.18 0.232-0.406 0.232-0.64v-6.667z"></path>
</svg>
