<svg xmlns="http://www.w3.org/2000/svg">
    <path d="M18.067 17.2c0 0.779-0.431 1.457-1.067 1.809v2.591c0 0.552-0.448 1-1 1s-1-0.448-1-1v-2.591c-0.636-0.352-1.067-1.030-1.067-1.809 0-1.141 0.925-2.067 2.067-2.067s2.067 0.925 2.067 2.067z"></path>
    <path d="M9.667 9.333v1.667h-0.333c-2.019 0-3.667 1.648-3.667 3.667v10.667c0 2.019 1.648 3.667 3.667 3.667h13.333c2.019 0 3.667-1.648 3.667-3.667v-10.667c0-2.019-1.648-3.667-3.667-3.667h-0.333v-1.667c0-3.486-2.848-6.333-6.333-6.333s-6.333 2.848-6.333 6.333zM11.667 9.333c0-2.381 1.952-4.333 4.333-4.333s4.333 1.952 4.333 4.333v1.667h-8.667v-1.667zM9.333 13h13.333c0.914 0 1.667 0.752 1.667 1.667v10.667c0 0.914-0.752 1.667-1.667 1.667h-13.333c-0.914 0-1.667-0.752-1.667-1.667v-10.667c0-0.914 0.752-1.667 1.667-1.667z"></path>
</svg>
