<svg xmlns="http://www.w3.org/2000/svg">
    <path d="M15.67 25.778c-1.754 0-3.186-1.432-3.186-3.186v-2.297c0-0.491 0.398-0.889 0.889-0.889s0.889 0.398 0.889 0.889v2.297c0 0.772 0.636 1.408 1.408 1.408h8.039c0.772 0 1.408-0.636 1.408-1.408v-13.782c0-0.772-0.636-1.408-1.408-1.408h-8.039c-0.772 0-1.408 0.636-1.408 1.408v2.297c0 0.491-0.398 0.889-0.889 0.889s-0.889-0.398-0.889-0.889v-2.297c0-1.754 1.432-3.186 3.186-3.186h8.039c1.754 0 3.186 1.432 3.186 3.186v13.782c0 1.754-1.432 3.186-3.186 3.186h-8.039z"></path>
    <path d="M4.444 15.701c0-0.491 0.398-0.889 0.889-0.889h12.633c0.491 0 0.889 0.398 0.889 0.889s-0.398 0.889-0.889 0.889h-12.633c-0.491 0-0.889-0.398-0.889-0.889z"></path>
    <path d="M4.705 16.33c-0.347-0.347-0.347-0.91 0-1.257l3.445-3.445c0.347-0.347 0.91-0.347 1.257 0s0.347 0.91 0 1.257l-3.445 3.445c-0.347 0.347-0.91 0.347-1.257 0z"></path>
    <path d="M4.705 15.072c0.347-0.347 0.91-0.347 1.257 0l3.445 3.445c0.347 0.347 0.347 0.91 0 1.257s-0.91 0.347-1.257 0l-3.445-3.445c-0.347-0.347-0.347-0.91 0-1.257z"></path>
</svg>
