<svg xmlns="http://www.w3.org/2000/svg">
    <circle cx="8" cy="8" r="8" fill="#FFC000"/>
    <path d="M8.00004 8.24242C8.23434 8.24242 8.42428 8.05248 8.42428 7.81818C8.42428 7.58388 8.23434 7.39394 8.00004 7.39394C7.76574 7.39394 7.5758 7.58388 7.5758 7.81818C7.5758 8.05248 7.76574 8.24242 8.00004 8.24242Z" fill="white"/>
    <path d="M6.72731 7.81818C6.72731 8.05248 6.53737 8.24242 6.30307 8.24242C6.06877 8.24242 5.87883 8.05248 5.87883 7.81818C5.87883 7.58388 6.06877 7.39394 6.30307 7.39394C6.53737 7.39394 6.72731 7.58388 6.72731 7.81818Z" fill="white"/>
    <path d="M9.69701 8.24242C9.93131 8.24242 10.1213 8.05248 10.1213 7.81818C10.1213 7.58388 9.93131 7.39394 9.69701 7.39394C9.46271 7.39394 9.27277 7.58388 9.27277 7.81818C9.27277 8.05248 9.46271 8.24242 9.69701 8.24242Z" fill="white"/>
    <path fill-rule="evenodd" clip-rule="evenodd" d="M5.93962 11.46L7.6807 13.2011C7.85707 13.3774 8.14301 13.3774 8.31938 13.2011L10.0605 11.46H11.2784C12.043 11.46 12.6667 10.8363 12.6667 10.0717V5.38829C12.6667 4.6237 12.043 4 11.2784 4H4.72167C3.95707 4 3.33337 4.6237 3.33337 5.38829V10.0717C3.33337 10.8363 3.95707 11.46 4.72167 11.46H5.93962ZM8.00004 12.3205L6.29107 10.6115H4.72167C4.42568 10.6115 4.18186 10.3677 4.18186 10.0717V5.38829C4.18186 5.0923 4.42568 4.84848 4.72167 4.84848H11.2784C11.5744 4.84848 11.8182 5.0923 11.8182 5.38829V10.0717C11.8182 10.3677 11.5744 10.6115 11.2784 10.6115H9.70901L8.00004 12.3205Z" fill="white"/>
</svg>
