<svg xmlns="http://www.w3.org/2000/svg">
    <path d="M9.55856 6.94615V9.12161C9.55856 9.37266 9.35642 9.5748 9.10782 9.5748H6.92828C6.67968 9.5748 6.47754 9.37266 6.47754 9.12161V6.94615C6.47754 6.69511 6.67968 6.49297 6.92828 6.49297H9.10782C9.35642 6.49297 9.55856 6.69429 9.55856 6.94615V6.94615Z" fill="#FF5A00"/>
    <path d="M11.7527 4.24577C11.1324 3.62549 9.65876 3.22447 7.99925 3.22447C6.33974 3.22447 4.86851 3.62549 4.24823 4.24577C3.6255 4.86605 3.22693 6.33972 3.22693 7.99924C3.22693 9.65875 3.6255 11.1332 4.24823 11.7527C4.86851 12.373 6.33974 12.774 7.99925 12.774C9.65876 12.774 11.1332 12.373 11.7527 11.7527C12.0624 11.443 12.3176 10.9189 12.4953 10.2652C12.6754 9.61147 12.774 8.82736 12.774 7.99924C12.7732 6.34054 12.3722 4.86605 11.7527 4.24577V4.24577ZM10.3019 10.2872C10.1714 10.4176 9.77858 10.8105 7.98865 10.8105C6.19628 10.8105 5.80341 10.4168 5.67544 10.2872C5.54503 10.1568 5.15216 9.76389 5.15216 7.97397C5.15216 6.18404 5.54584 5.79117 5.67544 5.66076C5.80341 5.53035 6.19628 5.13992 7.98865 5.13992C9.77858 5.13992 10.1714 5.53035 10.3019 5.66076C10.4298 5.79117 10.8227 6.18404 10.8227 7.97397C10.8227 9.76389 10.429 10.1568 10.3019 10.2872Z" fill="#FF5A00"/>
    <path d="M9.55856 6.94615V9.12161C9.55856 9.37266 9.35642 9.5748 9.10782 9.5748H6.92828C6.67968 9.5748 6.47754 9.37266 6.47754 9.12161V6.94615C6.47754 6.69511 6.67968 6.49297 6.92828 6.49297H9.10782C9.35642 6.49297 9.55856 6.69429 9.55856 6.94615V6.94615Z" fill="#FF5A00"/>
    <path d="M9.55856 6.94615V9.12161C9.55856 9.37266 9.35642 9.5748 9.10782 9.5748H6.92828C6.67968 9.5748 6.47754 9.37266 6.47754 9.12161V6.94615C6.47754 6.69511 6.67968 6.49297 6.92828 6.49297H9.10782C9.35642 6.49297 9.55856 6.69429 9.55856 6.94615V6.94615Z" fill="#FF5A00"/>
    <path d="M9.55856 6.94615V9.12161C9.55856 9.37266 9.35642 9.5748 9.10782 9.5748H6.92828C6.67968 9.5748 6.47754 9.37266 6.47754 9.12161V6.94615C6.47754 6.69511 6.67968 6.49297 6.92828 6.49297H9.10782C9.35642 6.49297 9.55856 6.69429 9.55856 6.94615V6.94615Z" fill="#FF5A00"/>
    <path d="M11.7527 4.24577C11.1324 3.62549 9.65876 3.22447 7.99925 3.22447C6.33974 3.22447 4.86851 3.62549 4.24823 4.24577C3.6255 4.86605 3.22693 6.33972 3.22693 7.99924C3.22693 9.65875 3.6255 11.1332 4.24823 11.7527C4.86851 12.373 6.33974 12.774 7.99925 12.774C9.65876 12.774 11.1332 12.373 11.7527 11.7527C12.0624 11.443 12.3176 10.9189 12.4953 10.2652C12.6754 9.61147 12.774 8.82736 12.774 7.99924C12.7732 6.34054 12.3722 4.86605 11.7527 4.24577V4.24577ZM10.3019 10.2872C10.1714 10.4176 9.77858 10.8105 7.98865 10.8105C6.19628 10.8105 5.80341 10.4168 5.67544 10.2872C5.54503 10.1568 5.15216 9.76389 5.15216 7.97397C5.15216 6.18404 5.54584 5.79117 5.67544 5.66076C5.80341 5.53035 6.19628 5.13992 7.98865 5.13992C9.77858 5.13992 10.1714 5.53035 10.3019 5.66076C10.4298 5.79117 10.8227 6.18404 10.8227 7.97397C10.8227 9.76389 10.429 10.1568 10.3019 10.2872Z" fill="#FF5A00"/>
    <path d="M7.99924 0C3.58148 0 0 3.58148 0 7.99924C0 12.3803 3.52198 15.939 7.89002 15.9985C12.3648 16.058 16.0588 12.3624 15.9993 7.88676C15.9382 3.52198 12.3803 0 7.99924 0V0ZM12.5857 12.6053C11.7103 13.4807 9.99946 14.0015 8.00657 14.0015C6.01369 14.0015 4.29957 13.4807 3.42743 12.6053C2.55203 11.7299 2.02874 10.019 2.02874 8.02614C2.02874 6.03325 2.55203 4.32239 3.42743 3.44699C4.30039 2.57159 6.01369 2.04831 8.00657 2.04831C9.99946 2.04831 11.7111 2.57159 12.5857 3.44699C13.4587 4.32239 13.982 6.03325 13.982 8.02614C13.982 10.0182 13.4587 11.7299 12.5857 12.6053Z" fill="#FF5A00"/>
</svg>
