<svg xmlns="http://www.w3.org/2000/svg">
    <path d="M16 4c2.257 0 4.099 1.764 4.207 3.981-0.030-0.033-0.061-0.066-0.093-0.098-0.575-0.573-1.36-0.81-2.107-0.709-0.371-0.726-1.13-1.224-2.006-1.224s-1.636 0.497-2.007 1.223c-0.748-0.101-1.532 0.136-2.107 0.709-0.032 0.032-0.063 0.064-0.093 0.098 0.108-2.217 1.95-3.981 4.207-3.981z"></path>
    <path d="M16 17.399c0.625 0 1.191-0.253 1.598-0.662 0.854 0.264 1.821 0.061 2.501-0.607-0.439 1.846-2.107 3.219-4.098 3.219s-3.66-1.373-4.099-3.219c0.68 0.668 1.647 0.87 2.501 0.607 0.408 0.409 0.973 0.662 1.598 0.662z"></path>
    <path d="M9.962 15.163c0 3.338 2.68 6.002 6.038 6.002s6.038-2.664 6.038-6.002c0-0.539 0.439-0.975 0.981-0.975s0.981 0.437 0.981 0.975c0 4.084-3.046 7.418-7.018 7.894v2.993h3.231c0.542 0 0.981 0.437 0.981 0.975s-0.439 0.975-0.981 0.975h-8.425c-0.542 0-0.981-0.437-0.981-0.975s0.439-0.975 0.981-0.975h3.231v-2.993c-3.973-0.476-7.018-3.81-7.018-7.894 0-0.539 0.439-0.975 0.981-0.975s0.981 0.437 0.981 0.975z"></path>
    <path fill="#f44" style="fill: #f44" d="M14.537 8.84l1.496 1.491 1.496-1.491c0.458-0.457 1.201-0.457 1.659 0s0.458 1.198 0 1.654l-1.501 1.497 1.499 1.495c0.458 0.457 0.458 1.198 0 1.655s-1.201 0.457-1.659 0l-1.494-1.49-1.494 1.49c-0.458 0.457-1.201 0.457-1.659 0s-0.458-1.198 0-1.655l1.499-1.495-1.501-1.497c-0.458-0.457-0.458-1.198 0-1.654s1.201-0.457 1.659 0z"></path>
</svg>
