<svg xmlns="http://www.w3.org/2000/svg">
    <path d="M11.789 8.186c0-2.312 1.885-4.186 4.211-4.186s4.211 1.874 4.211 4.186v6.977c0 2.312-1.885 4.186-4.211 4.186s-4.211-1.874-4.211-4.186v-6.977zM16 17.399c1.242-0 2.249-1.001 2.249-2.236v-6.977c0-1.235-1.007-2.236-2.249-2.236s-2.249 1.001-2.249 2.236v6.977c0 1.235 1.007 2.236 2.249 2.236z"></path>
    <path d="M9.962 15.163c0 3.338 2.68 6.002 6.038 6.002s6.038-2.664 6.038-6.002c0-0.539 0.439-0.975 0.981-0.975s0.981 0.437 0.981 0.975c0 4.085-3.046 7.418-7.019 7.894v2.993h3.23c0.542 0 0.981 0.437 0.981 0.975s-0.439 0.975-0.981 0.975h-8.421c-0.542 0-0.981-0.437-0.981-0.975s0.439-0.975 0.981-0.975h3.23v-2.993c-3.973-0.476-7.019-3.809-7.019-7.894 0-0.539 0.439-0.975 0.981-0.975s0.981 0.437 0.981 0.975z"></path>
</svg>
