<svg xmlns="http://www.w3.org/2000/svg">
    <path d="M28 13.6c-0.533 0-1.067 0.4-1.067 1.067v10.667c0 0.933-0.8 1.733-1.733 1.733h-18.533c-0.933 0-1.733-0.8-1.733-1.733v-18.667c0-0.933 0.8-1.733 1.733-1.733h10.667c0.533 0 1.067-0.4 1.067-1.067 0-0.533-0.4-1.067-1.067-1.067h-10.667c-2 0.133-3.6 1.867-3.6 3.867v18.667c0 2 1.6 3.733 3.733 3.733h18.667c2 0 3.733-1.6 3.733-3.733v-10.667c-0.133-0.533-0.667-1.067-1.2-1.067z"></path>
    <path d="M8.4 18.933v3.733c0 0.533 0.4 1.067 1.067 1.067h3.733c0.267 0 0.533-0.133 0.667-0.267l14.533-14.533c0.933-0.933 0.933-2.4 0-3.333l-1.867-1.867c-0.933-0.933-2.4-0.933-3.333 0l-14.533 14.533c-0.267 0.133-0.267 0.4-0.267 0.667zM24.533 5.067c0.133-0.133 0.133-0.133 0.267-0.133s0.133 0 0.267 0.133l1.867 1.867c0.133 0.133 0.133 0.133 0.133 0.267 0 0 0 0.133-0.133 0.267l-1.733 1.733-2.267-2.267 1.6-1.867zM10.4 19.333l11.067-11.067 2.267 2.267-11.067 11.067h-2.267v-2.267z"></path>
</svg>
