<svg xmlns="http://www.w3.org/2000/svg">
    <path d="M13.333 11c0.552 0 1 0.448 1 1v8c0 0.552-0.448 1-1 1s-1-0.448-1-1v-8c0-0.552 0.448-1 1-1z"></path>
    <path d="M18.667 11c0.552 0 1 0.448 1 1v8c0 0.552-0.448 1-1 1s-1-0.448-1-1v-8c0-0.552 0.448-1 1-1z"></path>
    <path d="M2.667 16c0-7.404 5.929-13.333 13.333-13.333s13.333 5.929 13.333 13.333c0 7.404-5.929 13.333-13.333 13.333s-13.333-5.929-13.333-13.333zM16 4.718c-6.271 0-11.282 5.011-11.282 11.282s5.011 11.282 11.282 11.282c6.271 0 11.282-5.011 11.282-11.282s-5.011-11.282-11.282-11.282z"></path>
</svg>
