<svg xmlns="http://www.w3.org/2000/svg">
    <path d="M8.458 8.457c4.166-4.166 10.919-4.166 15.085 0s4.165 10.919 0 15.085c-4.166 4.166-10.919 4.166-15.085 0s-4.166-10.919 0-15.085zM17.119 7.47v2.088c1.283 0.222 2.513 0.828 3.504 1.819s1.597 2.22 1.819 3.503h2.088c-0.237-1.815-1.053-3.568-2.447-4.963s-3.148-2.21-4.964-2.447zM14.879 24.528v-2.088c-1.283-0.222-2.512-0.828-3.502-1.819s-1.597-2.22-1.819-3.503h-2.088c0.237 1.815 1.053 3.569 2.447 4.963s3.147 2.21 4.962 2.447zM19.163 12.836c-1.747-1.747-4.579-1.747-6.326 0s-1.747 4.579 0 6.326c1.747 1.747 4.579 1.747 6.326 0s1.747-4.579 0-6.326z"></path>
</svg>
