<svg xmlns="http://www.w3.org/2000/svg">
    <path d="M6.333 12c0-2.025 1.642-3.667 3.667-3.667s3.667 1.642 3.667 3.667c0 2.025-1.642 3.667-3.667 3.667s-3.667-1.642-3.667-3.667zM10 10.333c-0.92 0-1.667 0.746-1.667 1.667s0.746 1.667 1.667 1.667c0.92 0 1.667-0.746 1.667-1.667s-0.746-1.667-1.667-1.667z"></path>
    <path d="M17 11.333c0-2.393 1.94-4.333 4.333-4.333s4.333 1.94 4.333 4.333c0 2.393-1.94 4.333-4.333 4.333s-4.333-1.94-4.333-4.333zM21.333 9c-1.289 0-2.333 1.045-2.333 2.333s1.045 2.333 2.333 2.333c1.289 0 2.333-1.045 2.333-2.333s-1.045-2.333-2.333-2.333z"></path>
    <path d="M14.333 22.667c0-2.819 2.181-5 5-5h4c2.819 0 5 2.181 5 5v1.333c0 0.552-0.448 1-1 1s-1-0.448-1-1v-1.333c0-1.714-1.286-3-3-3h-4c-1.714 0-3 1.286-3 3v1.333c0 0.552-0.448 1-1 1s-1-0.448-1-1v-1.333z"></path>
    <path d="M3.667 22.667c0-2.819 2.181-5 5-5h2.667c0.552 0 1 0.448 1 1s-0.448 1-1 1h-2.667c-1.714 0-3 1.286-3 3v1.333c0 0.552-0.448 1-1 1s-1-0.448-1-1v-1.333z"></path>
</svg>
