<svg xmlns="http://www.w3.org/2000/svg">
    <path d="M26.667 4.599c0.552 0 1 0.448 1 1v6.4c0 0.552-0.448 1-1 1s-1-0.448-1-1v-6.4c0-0.552 0.448-1 1-1z"></path>
    <path d="M19.267 12c0-0.552 0.448-1 1-1h6.4c0.552 0 1 0.448 1 1s-0.448 1-1 1h-6.4c-0.552 0-1-0.448-1-1z"></path>
    <path d="M11.629 5.47c1.454-0.582 3.047-0.872 4.505-0.872 0.552 0 1 0.448 1 1s-0.448 1-1 1c-1.209 0-2.549 0.243-3.762 0.728-0.513 0.205-1.095-0.044-1.3-0.557s0.044-1.095 0.557-1.3z"></path>
    <path d="M20.929 25.762c0.205 0.513-0.044 1.095-0.557 1.3-1.454 0.582-3.047 0.871-4.505 0.871-0.552 0-1-0.448-1-1s0.448-1 1-1c1.209 0 2.549-0.243 3.762-0.728 0.513-0.205 1.095 0.044 1.3 0.557z"></path>
    <path d="M5.333 19.531c0.552 0 1 0.448 1 1v6.4c0 0.552-0.448 1-1 1s-1-0.448-1-1v-6.4c0-0.552 0.448-1 1-1z"></path>
    <path d="M4.333 20.531c0-0.552 0.448-1 1-1h6.4c0.552 0 1 0.448 1 1s-0.448 1-1 1h-6.4c-0.552 0-1-0.448-1-1z"></path>
    <path d="M12.929 6.027c0.205 0.513-0.044 1.095-0.557 1.3-1.21 0.484-2.295 1.209-3.131 2.045s-1.561 1.921-2.045 3.131c-0.205 0.513-0.787 0.762-1.3 0.557s-0.762-0.787-0.557-1.3c0.583-1.457 1.457-2.772 2.488-3.802s2.345-1.905 3.802-2.488c0.513-0.205 1.095 0.044 1.3 0.557z"></path>
    <path d="M6.714 11.239c0.494 0.247 0.694 0.848 0.447 1.342-0.301 0.603-0.42 1.319-0.552 2.117-0.007 0.044-0.015 0.089-0.022 0.134-0.091 0.545-0.606 0.913-1.151 0.822s-0.913-0.606-0.822-1.151c0.010-0.060 0.020-0.123 0.031-0.187 0.12-0.738 0.285-1.743 0.728-2.629 0.247-0.494 0.848-0.694 1.342-0.447z"></path>
    <path d="M26.105 19.47c0.513 0.205 0.762 0.787 0.557 1.3-0.583 1.457-1.457 2.772-2.488 3.802s-2.345 1.905-3.802 2.488c-0.513 0.205-1.095-0.044-1.3-0.557s0.044-1.095 0.557-1.3c1.209-0.484 2.295-1.209 3.131-2.045s1.561-1.921 2.045-3.131c0.205-0.513 0.787-0.762 1.3-0.557z"></path>
    <path d="M26.564 16.878c0.545 0.091 0.913 0.606 0.822 1.151-0.010 0.060-0.020 0.123-0.031 0.187-0.121 0.738-0.285 1.743-0.728 2.629-0.247 0.494-0.848 0.694-1.342 0.447s-0.694-0.848-0.447-1.342c0.301-0.603 0.42-1.319 0.553-2.117 0.007-0.044 0.015-0.089 0.022-0.134 0.091-0.545 0.606-0.913 1.151-0.822z"></path>
    <path d="M15.133 5.599c0-0.552 0.448-1 1-1 1.458 0 3.051 0.29 4.505 0.872 0.513 0.205 0.762 0.787 0.557 1.3s-0.787 0.762-1.3 0.557c-1.213-0.485-2.553-0.728-3.762-0.728-0.552 0-1-0.448-1-1z"></path>
    <path d="M19.205 6.027c0.205-0.513 0.787-0.762 1.3-0.557 1.457 0.583 2.772 1.457 3.802 2.488 0.88 0.88 1.609 1.902 2.187 3.060 0.247 0.494 0.047 1.095-0.447 1.342s-1.095 0.047-1.342-0.447c-0.488-0.976-1.093-1.82-1.813-2.54-0.836-0.836-1.921-1.561-3.131-2.045-0.513-0.205-0.762-0.787-0.557-1.3z"></path>
    <path d="M10.805 25.762c0.205-0.513 0.787-0.762 1.3-0.557 1.213 0.485 2.553 0.728 3.762 0.728 0.552 0 1 0.448 1 1s-0.448 1-1 1c-1.458 0-3.051-0.29-4.505-0.871-0.513-0.205-0.762-0.787-0.557-1.3z"></path>
    <path d="M5.953 20.171c0.494-0.247 1.095-0.047 1.342 0.447 0.488 0.976 1.093 1.82 1.813 2.54 0.836 0.836 1.921 1.561 3.131 2.045 0.513 0.205 0.762 0.787 0.557 1.3s-0.787 0.762-1.3 0.557c-1.457-0.583-2.772-1.457-3.802-2.488-0.88-0.88-1.609-1.902-2.187-3.060-0.247-0.494-0.047-1.095 0.447-1.342z"></path>
</svg>
