<svg xmlns="http://www.w3.org/2000/svg">
    <path d="M18.667 13.4c-0.552 0-1 0.448-1 1s0.448 1 1 1h6.667c0.552 0 1-0.448 1-1s-0.448-1-1-1h-6.667z"></path>
    <path d="M18.667 17.667c-0.552 0-1 0.448-1 1s0.448 1 1 1h5.333c0.552 0 1-0.448 1-1s-0.448-1-1-1h-5.333z"></path>
    <path d="M7.799 14.667c0-1.951 1.582-3.533 3.533-3.533s3.533 1.582 3.533 3.533c0 1.951-1.582 3.533-3.533 3.533s-3.533-1.582-3.533-3.533zM11.333 13.133c-0.847 0-1.533 0.687-1.533 1.533s0.687 1.533 1.533 1.533c0.847 0 1.533-0.687 1.533-1.533s-0.687-1.533-1.533-1.533z"></path>
    <path d="M10.133 19.533c-2.419 0-4.467 2.048-4.467 4.467 0 0.552 0.448 1 1 1s1-0.448 1-1c0-1.314 1.152-2.467 2.467-2.467h2.4c1.314 0 2.467 1.152 2.467 2.467 0 0.552 0.448 1 1 1s1-0.448 1-1c0-2.419-2.048-4.467-4.467-4.467h-2.4z"></path>
    <path d="M19.667 4.333h7c2.019 0 3.667 1.648 3.667 3.667v17.333c0 2.019-1.648 3.667-3.667 3.667h-21.333c-2.019 0-3.667-1.648-3.667-3.667v-17.333c0-2.019 1.648-3.667 3.667-3.667h7v-0.333c0-0.627 0.213-1.228 0.66-1.674s1.047-0.66 1.674-0.66h2.667c0.627 0 1.228 0.213 1.674 0.66s0.66 1.047 0.66 1.674v0.333zM14.407 3.74c-0.021 0.021-0.074 0.087-0.074 0.26v2.667c0 0.173 0.053 0.239 0.074 0.26s0.087 0.074 0.26 0.074h2.667c0.173 0 0.239-0.053 0.26-0.074s0.074-0.087 0.074-0.26v-2.667c0-0.173-0.053-0.239-0.074-0.26s-0.087-0.074-0.26-0.074h-2.667c-0.173 0-0.239 0.053-0.26 0.074zM19.667 6.333v0.333c0 0.627-0.213 1.228-0.66 1.674s-1.047 0.66-1.674 0.66h-2.667c-0.627 0-1.228-0.213-1.674-0.66s-0.66-1.047-0.66-1.674v-0.333h-7c-0.914 0-1.667 0.752-1.667 1.667v17.333c0 0.914 0.752 1.667 1.667 1.667h21.333c0.914 0 1.667-0.752 1.667-1.667v-17.333c0-0.914-0.752-1.667-1.667-1.667h-7z"></path>
</svg>
