<svg xmlns="http://www.w3.org/2000/svg">
    <path d="M16.64 11.644c0 0.711-0.573 1.288-1.28 1.288s-1.28-0.577-1.28-1.288c0-0.711 0.573-1.288 1.28-1.288s1.28 0.577 1.28 1.288z"></path>
    <path d="M16.64 19.373v-3.865c0-0.712-0.573-1.288-1.28-1.288h-1.92c-0.353 0-0.64 0.288-0.64 0.644s0.287 0.644 0.64 0.644h0.64v3.865c0 0.711 0.573 1.288 1.28 1.288h1.92c0.353 0 0.64-0.288 0.64-0.644s-0.287-0.644-0.64-0.644h-0.64z"></path>
    <path d="M25.6 15.508c0 5.689-4.588 10.306-10.24 10.306s-10.24-4.617-10.24-10.306c0-5.689 4.588-10.306 10.24-10.306s10.24 4.617 10.24 10.306zM23.552 15.508c0-4.555-3.666-8.245-8.192-8.245s-8.192 3.69-8.192 8.245c0 4.555 3.666 8.245 8.192 8.245s8.192-3.69 8.192-8.245z"></path>
</svg>
