<svg xmlns="http://www.w3.org/2000/svg">
    <path d="M15.934 21.333c-0.552 0-1-0.448-1-1v-9.333c0-0.552 0.448-1 1-1s1 0.448 1 1v9.333c0 0.552-0.448 1-1 1z"></path>
    <path d="M19.974 15.040c-0.391 0.391-1.024 0.391-1.414 0l-3.333-3.333c-0.391-0.391-0.391-1.024 0-1.414s1.024-0.391 1.414 0l3.333 3.333c0.391 0.391 0.391 1.024 0 1.414z"></path>
    <path d="M11.893 15.040c-0.391-0.391-0.391-1.024 0-1.414l3.333-3.333c0.391-0.391 1.024-0.391 1.414 0s0.391 1.024 0 1.414l-3.333 3.333c-0.391 0.391-1.024 0.391-1.414 0z"></path>
</svg>
