<svg xmlns="http://www.w3.org/2000/svg">
    <path d="M28.45 12.037c0.389 0.059 0.712 0.345 0.833 0.736s0.020 0.821-0.261 1.108l-5.372 5.486c-0.243 0.248-0.354 0.606-0.297 0.957l1.268 7.746c0.066 0.406-0.093 0.816-0.411 1.058-0.318 0.241-0.739 0.273-1.087 0.083l-6.641-3.657c-0.3-0.166-0.66-0.166-0.961 0l-6.641 3.657c-0.347 0.191-0.769 0.16-1.087-0.082s-0.477-0.652-0.411-1.058l1.268-7.746c0.058-0.351-0.054-0.709-0.297-0.957l-5.372-5.486c-0.281-0.287-0.383-0.717-0.261-1.108s0.444-0.677 0.834-0.736l7.426-1.13c0.336-0.051 0.627-0.272 0.777-0.592l3.322-7.046c0.174-0.369 0.533-0.603 0.926-0.603s0.752 0.234 0.926 0.603l3.32 7.047c0.15 0.319 0.441 0.54 0.778 0.591l7.425 1.13zM21.745 17.5l3.226-3.295-4.348-0.662c-1.25-0.19-2.276-1.002-2.789-2.091l-1.834-3.892-1.834 3.891c-0.513 1.089-1.538 1.901-2.788 2.092l-4.35 0.662 3.226 3.295c0.85 0.868 1.216 2.085 1.025 3.254l-0.736 4.494 3.689-2.031c1.1-0.606 2.431-0.608 3.534 0l3.69 2.032-0.736-4.498c-0.189-1.164 0.172-2.38 1.025-3.251zM27.116 12.015l0.001-0.002z"></path>
</svg>
