<svg width="100" height="85" viewBox="0 0 100 85" fill="none" xmlns="http://www.w3.org/2000/svg">
<g clip-path="url(#clip0_8126_5685)">
<rect x="1.94174" y="1.93164" width="96.1165" height="4.82955" rx="2" fill="#D1D5E0"/>
<rect x="1.94174" y="19.3184" width="96.1165" height="4.82955" rx="2" fill="#F3F4F7"/>
<rect x="1.94174" y="26.0796" width="96.1165" height="56.9886" rx="2" fill="#F3F4F7"/>
<rect x="3.88348" y="28.0112" width="92.233" height="4.82955" rx="2" fill="#737EA1"/>
<rect x="3.88348" y="47.3296" width="92.233" height="10.625" rx="2" fill="#EDEEF3"/>
<rect x="3.88348" y="70.5112" width="92.233" height="10.625" rx="2" fill="#EDEEF3"/>
<rect x="1.94174" y="8.69336" width="96.1165" height="8.69318" rx="2" fill="#F3F4F7"/>
<rect x="5.82526" y="12.5566" width="13.5922" height="0.965909" rx="0.482955" fill="#313749"/>
<rect x="5.82526" y="21.25" width="13.5922" height="0.965909" rx="0.482955" fill="#313749"/>
<rect x="21.3592" y="21.25" width="2.91262" height="0.965909" rx="0.482955" fill="#454E68"/>
<rect x="83.4951" y="21.25" width="2.91262" height="0.965909" rx="0.482955" fill="#454E68"/>
<rect x="88.3495" y="21.25" width="2.91262" height="0.965909" rx="0.482955" fill="#454E68"/>
<rect x="93.2039" y="21.25" width="2.91262" height="0.965909" rx="0.482955" fill="#454E68"/>
<rect x="87.3786" y="10.625" width="8.73786" height="4.82955" rx="1" fill="#FAB404"/>
<rect x="62.6359" y="11.125" width="21.3301" height="3.82955" rx="0.5" stroke="#5A6587"/>
<rect x="15.534" y="40.5679" width="27.1845" height="0.965909" rx="0.482955" fill="#313749"/>
<rect x="6.79611" y="38.6362" width="4.85437" height="4.82955" rx="2.41477" fill="#CDD1DE"/>
<rect x="15.534" y="52.1587" width="27.1845" height="0.965909" rx="0.482955" fill="#313749"/>
<rect x="6.79611" y="50.2271" width="4.85437" height="4.82955" rx="2.41477" fill="#CDD1DE"/>
<rect x="15.534" y="63.75" width="27.1845" height="0.965909" rx="0.482955" fill="#313749"/>
<rect x="6.79611" y="61.8184" width="4.85437" height="4.82955" rx="2.41477" fill="#CDD1DE"/>
<rect x="15.534" y="75.3408" width="27.1845" height="0.965909" rx="0.482955" fill="#313749"/>
<rect x="6.79611" y="73.4092" width="4.85437" height="4.82955" rx="2.41477" fill="#CDD1DE"/>
<path fill-rule="evenodd" clip-rule="evenodd" d="M92.0375 38.3671C91.9028 37.4382 90.6215 37.4382 90.4868 38.3671C90.4114 38.8869 89.8939 39.1991 89.4255 39.0074C88.5882 38.6648 87.9475 39.8244 88.6501 40.4108C89.0432 40.7388 89.0432 41.3633 88.6501 41.6914C87.9475 42.2778 88.5882 43.4374 89.4255 43.0947C89.8939 42.9031 90.4114 43.2153 90.4868 43.735C90.6215 44.664 91.9028 44.664 92.0375 43.735C92.1128 43.2153 92.6304 42.9031 93.0988 43.0947C93.936 43.4374 94.5767 42.2778 93.8742 41.6914C93.4811 41.3633 93.4811 40.7388 93.8742 40.4108C94.5767 39.8244 93.936 38.6648 93.0988 39.0074C92.6304 39.1991 92.1128 38.8869 92.0375 38.3671ZM91.2621 42.017C91.7983 42.017 92.233 41.5845 92.233 41.0511C92.233 40.5176 91.7983 40.0852 91.2621 40.0852C90.7259 40.0852 90.2913 40.5176 90.2913 41.0511C90.2913 41.5845 90.7259 42.017 91.2621 42.017Z" fill="#454E68"/>
<path fill-rule="evenodd" clip-rule="evenodd" d="M92.0375 49.958C91.9028 49.029 90.6215 49.029 90.4868 49.958C90.4114 50.4777 89.8939 50.79 89.4255 50.5983C88.5882 50.2556 87.9475 51.4153 88.6501 52.0016C89.0432 52.3297 89.0432 52.9542 88.6501 53.2822C87.9475 53.8686 88.5882 55.0282 89.4255 54.6856C89.8939 54.4939 90.4114 54.8061 90.4868 55.3259C90.6215 56.2548 91.9028 56.2548 92.0375 55.3259C92.1128 54.8061 92.6304 54.4939 93.0988 54.6856C93.936 55.0282 94.5767 53.8686 93.8742 53.2822C93.4811 52.9542 93.4811 52.3297 93.8742 52.0016C94.5767 51.4153 93.936 50.2556 93.0988 50.5983C92.6304 50.79 92.1128 50.4777 92.0375 49.958ZM91.2621 53.6078C91.7983 53.6078 92.233 53.1754 92.233 52.6419C92.233 52.1085 91.7983 51.676 91.2621 51.676C90.7259 51.676 90.2913 52.1085 90.2913 52.6419C90.2913 53.1754 90.7259 53.6078 91.2621 53.6078Z" fill="#454E68"/>
<path fill-rule="evenodd" clip-rule="evenodd" d="M92.0375 61.5488C91.9028 60.6198 90.6215 60.6198 90.4868 61.5488C90.4114 62.0685 89.8939 62.3808 89.4255 62.1891C88.5882 61.8465 87.9475 63.0061 88.6501 63.5924C89.0432 63.9205 89.0432 64.545 88.6501 64.873C87.9475 65.4594 88.5882 66.619 89.4255 66.2764C89.8939 66.0847 90.4114 66.3969 90.4868 66.9167C90.6215 67.8457 91.9028 67.8457 92.0375 66.9167C92.1128 66.3969 92.6304 66.0847 93.0988 66.2764C93.936 66.619 94.5767 65.4594 93.8742 64.873C93.4811 64.545 93.4811 63.9205 93.8742 63.5924C94.5767 63.0061 93.936 61.8465 93.0988 62.1891C92.6304 62.3808 92.1128 62.0685 92.0375 61.5488ZM91.2621 65.1986C91.7983 65.1986 92.233 64.7662 92.233 64.2327C92.233 63.6993 91.7983 63.2668 91.2621 63.2668C90.7259 63.2668 90.2913 63.6993 90.2913 64.2327C90.2913 64.7662 90.7259 65.1986 91.2621 65.1986Z" fill="#454E68"/>
<path fill-rule="evenodd" clip-rule="evenodd" d="M92.0375 73.1401C91.9028 72.2111 90.6215 72.2111 90.4868 73.1401C90.4114 73.6598 89.8939 73.9721 89.4255 73.7804C88.5882 73.4378 87.9475 74.5974 88.6501 75.1837C89.0432 75.5118 89.0432 76.1363 88.6501 76.4643C87.9475 77.0507 88.5882 78.2103 89.4255 77.8677C89.8939 77.676 90.4114 77.9882 90.4868 78.508C90.6215 79.437 91.9028 79.437 92.0375 78.508C92.1128 77.9882 92.6304 77.676 93.0988 77.8677C93.936 78.2103 94.5767 77.0507 93.8742 76.4643C93.4811 76.1363 93.4811 75.5118 93.8742 75.1837C94.5767 74.5974 93.936 73.4378 93.0988 73.7804C92.6304 73.9721 92.1128 73.6598 92.0375 73.1401ZM91.2621 76.79C91.7983 76.79 92.233 76.3575 92.233 75.824C92.233 75.2906 91.7983 74.8581 91.2621 74.8581C90.7259 74.8581 90.2913 75.2906 90.2913 75.824C90.2913 76.3575 90.7259 76.79 91.2621 76.79Z" fill="#454E68"/>
</g>
<defs>
<clipPath id="clip0_8126_5685">
<rect width="100" height="85" fill="white"/>
</clipPath>
</defs>
</svg>
