<svg width="100" height="85" viewBox="0 0 100 85" fill="none" xmlns="http://www.w3.org/2000/svg">
    <g clip-path="url(#clip0_8126_6166)">
        <rect x="1.94175" y="1.93164" width="96.1165" height="4.82955" rx="2" fill="#14171F"/>
        <rect x="1.94175" y="19.3184" width="96.1165" height="4.82955" rx="2" fill="#2B3040"/>
        <rect x="1.94175" y="26.0796" width="96.1165" height="56.9886" rx="2" fill="#2B3040"/>
        <rect x="3.88349" y="28.0112" width="92.233" height="4.82955" rx="2" fill="#5A6587"/>
        <rect x="11.6505" y="50.2271" width="7.72727" height="4.85437" rx="2" transform="rotate(90 11.6505 50.2271)"
              fill="#9ECEFA"/>
        <rect x="18.4466" y="46.3638" width="11.5909" height="4.85437" rx="2" transform="rotate(90 18.4466 46.3638)"
              fill="#9ECEFA"/>
        <rect x="25.2427" y="38.6362" width="19.3182" height="4.85437" rx="2" transform="rotate(90 25.2427 38.6362)"
              fill="#2083DF"/>
        <rect x="32.0388" y="42.5" width="15.4545" height="4.85437" rx="2" transform="rotate(90 32.0388 42.5)"
              fill="#3D9CF5"/>
        <rect x="38.835" y="45.3979" width="12.5568" height="4.85437" rx="2" transform="rotate(90 38.835 45.3979)"
              fill="#9ECEFA"/>
        <rect x="45.6311" y="53.125" width="4.82955" height="4.85437" rx="2" transform="rotate(90 45.6311 53.125)"
              fill="#9ECEFA"/>
        <rect x="11.6505" y="63.75" width="4.82955" height="4.85437" rx="2" transform="rotate(90 11.6505 63.75)"
              fill="#9EAAFA"/>
        <rect x="11.6505" y="71.4771" width="4.82955" height="4.85437" rx="2" transform="rotate(90 11.6505 71.4771)"
              fill="#FACF9E"/>
        <rect x="18.4466" y="63.75" width="4.82955" height="4.85437" rx="2" transform="rotate(90 18.4466 63.75)"
              fill="#9EAAFA"/>
        <rect x="18.4466" y="71.4771" width="4.82955" height="4.85437" rx="2" transform="rotate(90 18.4466 71.4771)"
              fill="#FACF9E"/>
        <rect x="25.2427" y="63.75" width="4.82955" height="4.85437" rx="2" transform="rotate(90 25.2427 63.75)"
              fill="#9EAAFA"/>
        <rect x="25.2427" y="71.4771" width="4.82955" height="4.85437" rx="2" transform="rotate(90 25.2427 71.4771)"
              fill="#FACF9E"/>
        <rect x="32.0388" y="63.75" width="4.82955" height="4.85437" rx="2" transform="rotate(90 32.0388 63.75)"
              fill="#9EAAFA"/>
        <rect x="32.0388" y="71.4771" width="4.82955" height="4.85437" rx="2" transform="rotate(90 32.0388 71.4771)"
              fill="#FACF9E"/>
        <rect x="38.835" y="63.75" width="4.82955" height="4.85437" rx="2" transform="rotate(90 38.835 63.75)"
              fill="#8494F9"/>
        <rect x="38.835" y="71.4771" width="4.82955" height="4.85437" rx="2" transform="rotate(90 38.835 71.4771)"
              fill="#F9C284"/>
        <rect x="45.6311" y="63.75" width="4.82955" height="4.85437" rx="2" transform="rotate(90 45.6311 63.75)"
              fill="#8494F9"/>
        <rect x="45.6311" y="71.4771" width="4.82955" height="4.85437" rx="2" transform="rotate(90 45.6311 71.4771)"
              fill="#F9C284"/>
        <rect x="52.4272" y="63.75" width="4.82955" height="4.85437" rx="2" transform="rotate(90 52.4272 63.75)"
              fill="#8494F9"/>
        <rect x="52.4272" y="71.4771" width="4.82955" height="4.85437" rx="2" transform="rotate(90 52.4272 71.4771)"
              fill="#F9C284"/>
        <rect x="59.2233" y="63.75" width="4.82955" height="4.85437" rx="2" transform="rotate(90 59.2233 63.75)"
              fill="#8494F9"/>
        <rect x="59.2233" y="71.4771" width="4.82955" height="4.85437" rx="2" transform="rotate(90 59.2233 71.4771)"
              fill="#F9C284"/>
        <rect x="66.0194" y="63.75" width="4.82955" height="4.85437" rx="2" transform="rotate(90 66.0194 63.75)"
              fill="#8494F9"/>
        <rect x="66.0194" y="71.4771" width="4.82955" height="4.85437" rx="2" transform="rotate(90 66.0194 71.4771)"
              fill="#F9C284"/>
        <rect x="72.8155" y="63.75" width="4.82955" height="4.85437" rx="2" transform="rotate(90 72.8155 63.75)"
              fill="#556AF6"/>
        <rect x="72.8155" y="71.4771" width="4.82955" height="4.85437" rx="2" transform="rotate(90 72.8155 71.4771)"
              fill="#F9C284"/>
        <rect x="79.6116" y="63.75" width="4.82955" height="4.85437" rx="2" transform="rotate(90 79.6116 63.75)"
              fill="#556AF6"/>
        <rect x="79.6116" y="71.4771" width="4.82955" height="4.85437" rx="2" transform="rotate(90 79.6116 71.4771)"
              fill="#F9C284"/>
        <rect x="86.4078" y="63.75" width="4.82955" height="4.85437" rx="2" transform="rotate(90 86.4078 63.75)"
              fill="#556AF6"/>
        <rect x="86.4078" y="71.4771" width="4.82955" height="4.85437" rx="2" transform="rotate(90 86.4078 71.4771)"
              fill="#F9C284"/>
        <rect x="93.2039" y="63.75" width="4.82955" height="4.85437" rx="2" transform="rotate(90 93.2039 63.75)"
              fill="#556AF6"/>
        <rect x="93.2039" y="71.4771" width="4.82955" height="4.85437" rx="2" transform="rotate(90 93.2039 71.4771)"
              fill="#F9C284"/>
        <rect x="1.94175" y="8.69336" width="96.1165" height="8.69318" rx="2" fill="#2B3040"/>
        <rect x="5.82524" y="12.5566" width="13.5922" height="0.965909" rx="0.482955" fill="#AFB6CA"/>
        <rect x="5.82524" y="21.25" width="13.5922" height="0.965909" rx="0.482955" fill="#AFB6CA"/>
        <rect x="21.3592" y="21.25" width="2.91262" height="0.965909" rx="0.482955" fill="#919AB6"/>
        <rect x="83.4951" y="21.25" width="2.91262" height="0.965909" rx="0.482955" fill="#919AB6"/>
        <rect x="88.3495" y="21.25" width="2.91262" height="0.965909" rx="0.482955" fill="#919AB6"/>
        <rect x="93.2039" y="21.25" width="2.91262" height="0.965909" rx="0.482955" fill="#919AB6"/>
        <rect x="87.3786" y="10.625" width="8.73786" height="4.82955" rx="1" fill="#C9981D"/>
        <rect x="62.6359" y="11.125" width="21.3301" height="3.82955" rx="0.5" stroke="#737EA1"/>
        <path d="M61.8579 45.9172C61.3167 45.5425 60.6638 45.3616 60.0058 45.404C59.3479 45.4464 58.7238 45.7097 58.2358 46.1508C57.7477 46.5918 57.4246 47.1846 57.3191 47.8321C57.2136 48.4796 57.332 49.1436 57.6551 49.7154"
              stroke="#F65855" stroke-width="2" stroke-linecap="round"/>
        <path d="M84.188 45.9172C83.6468 45.5425 82.9939 45.3616 82.3359 45.404C81.6779 45.4464 81.0539 45.7097 80.5659 46.1508C80.0778 46.5918 79.7547 47.1846 79.6492 47.8321C79.5437 48.4796 79.6621 49.1436 79.9852 49.7154"
              stroke="#3D9CF5" stroke-width="2" stroke-linecap="round"/>
        <path d="M57.0395 53.1675C57.8216 53.6688 58.713 53.9764 59.6391 54.0645C60.5652 54.1527 61.4991 54.019 62.3626 53.6744C63.2261 53.3299 63.994 52.7846 64.6022 52.0842C65.2104 51.3838 65.6412 50.5486 65.8584 49.6486C66.0756 48.7486 66.073 47.81 65.8508 46.9112C65.6286 46.0124 65.1932 45.1796 64.5812 44.4826C63.9691 43.7855 63.1981 43.2445 62.3327 42.9047C61.4673 42.5649 60.5327 42.4362 59.6071 42.5295"
              stroke="#F6AB55" stroke-width="2" stroke-linecap="round"/>
        <path d="M79.3696 53.1675C80.1517 53.6688 81.0431 53.9764 81.9692 54.0645C82.8953 54.1527 83.8292 54.019 84.6927 53.6744C85.5562 53.3299 86.3241 52.7846 86.9323 52.0842C87.5405 51.3838 87.9713 50.5486 88.1885 49.6486C88.4057 48.7486 88.4031 47.81 88.1809 46.9112C87.9587 46.0124 87.5233 45.1796 86.9113 44.4826C86.2992 43.7855 85.5282 43.2445 84.6628 42.9047C83.7974 42.5649 82.8628 42.4362 81.9372 42.5295"
              stroke="#9ECEFA" stroke-width="2" stroke-linecap="round"/>
        <path d="M68.932 48.2952C68.932 46.4413 68.3363 44.636 67.2319 43.1428C66.1274 41.6496 64.5721 40.5468 62.793 39.9955C61.0139 39.4441 59.1042 39.473 57.3428 40.0779C55.5814 40.6829 54.0605 41.8322 53.0022 43.3581C51.9439 44.884 51.4037 46.7066 51.4604 48.5596C51.517 50.4126 52.1676 52.1991 53.3172 53.6582C54.4668 55.1173 56.0551 56.1725 57.8502 56.6698C59.6454 57.1671 61.5533 57.0804 63.2954 56.4225"
              stroke="#169C18" stroke-width="2" stroke-linecap="round"/>
        <path d="M91.2621 48.2952C91.2621 46.4413 90.6664 44.636 89.562 43.1428C88.4575 41.6496 86.9022 40.5468 85.1231 39.9955C83.344 39.4441 81.4343 39.473 79.6729 40.0779C77.9115 40.6829 76.3906 41.8322 75.3323 43.3581C74.274 44.884 73.7338 46.7066 73.7904 48.5596C73.8471 50.4126 74.4977 52.1991 75.6473 53.6582C76.7969 55.1173 78.3852 56.1725 80.1803 56.6698C81.9755 57.1671 83.8834 57.0804 85.6255 56.4225"
              stroke="#2083DF" stroke-width="2" stroke-linecap="round"/>
    </g>
    <defs>
        <clipPath id="clip0_8126_6166">
            <rect width="100" height="85" fill="white"/>
        </clipPath>
    </defs>
</svg>
