<svg width="100" height="85" viewBox="0 0 100 85" fill="none" xmlns="http://www.w3.org/2000/svg">
    <g clip-path="url(#clip0_8126_6165)">
        <rect x="1.94174" y="1.93164" width="96.1165" height="4.82955" rx="2" fill="#14171F"/>
        <rect x="1.94174" y="19.3184" width="96.1165" height="4.82955" rx="2" fill="#2B3040"/>
        <rect x="1.94174" y="26.0796" width="96.1165" height="56.9886" rx="2" fill="#2B3040"/>
        <rect x="3.8835" y="61.8184" width="92.233" height="14.4886" rx="2" fill="#272C3A"/>
        <rect x="3.8835" y="48.2954" width="92.233" height="11.5909" rx="2" fill="#272C3A"/>
        <path fill-rule="evenodd" clip-rule="evenodd"
              d="M93.4288 43.5598C93.35 43.6413 93.3134 43.7595 93.3319 43.8756L93.4579 44.655C93.5432 45.1829 92.9806 45.576 92.5131 45.3152L91.9012 44.9739C91.805 44.9202 91.6901 44.9202 91.5937 44.9739L90.982 45.3151C90.5145 45.5758 89.9519 45.1827 90.0372 44.6548L90.1631 43.8759C90.1819 43.7596 90.145 43.6412 90.0663 43.5598L89.5008 42.975C89.14 42.6019 89.3506 41.9778 89.8639 41.8987L90.6133 41.7832C90.7197 41.7667 90.8145 41.6954 90.8638 41.5893L91.1668 40.9384C91.3965 40.445 92.0992 40.445 92.3287 40.9385L92.6315 41.5895C92.6808 41.6955 92.7754 41.7668 92.8822 41.7832L93.6312 41.8987C94.1445 41.9778 94.3551 42.6019 93.9944 42.9749L93.4288 43.5598Z"
              fill="#C9981D"/>
        <path fill-rule="evenodd" clip-rule="evenodd"
              d="M92.9813 55.0133C92.8552 55.1437 92.7966 55.3329 92.8262 55.5186L93.0278 56.7657C93.1643 57.6102 92.2642 58.2393 91.5161 57.822L90.5371 57.276C90.3831 57.19 90.1993 57.19 90.0451 57.276L89.0663 57.8218C88.3183 58.239 87.4182 57.61 87.5547 56.7654L87.7561 55.5192C87.7862 55.3331 87.7272 55.1437 87.6012 55.0133L86.6964 54.0776C86.1192 53.4807 86.4561 52.4821 87.2774 52.3556L88.4765 52.1708C88.6467 52.1445 88.7983 52.0304 88.8773 51.8606L89.3621 50.8191C89.7296 50.0296 90.8538 50.0297 91.2211 50.8193L91.7056 51.8609C91.7845 52.0304 91.9359 52.1445 92.1066 52.1708L93.3051 52.3555C94.1264 52.4821 94.4633 53.4806 93.8861 54.0776L92.9813 55.0133Z"
              fill="#C9981D"/>
        <path fill-rule="evenodd" clip-rule="evenodd"
              d="M92.5338 70.3311C92.3604 70.5104 92.2797 70.7705 92.3205 71.0259L92.5977 72.7406C92.7854 73.9019 91.5477 74.7668 90.5191 74.1931L89.173 73.4422C88.9613 73.3241 88.7085 73.324 88.4965 73.4423L87.1507 74.1928C86.1221 74.7664 84.8845 73.9015 85.0722 72.7403L85.3492 71.0267C85.3906 70.7708 85.3094 70.5103 85.1361 70.3311L83.892 69.0445C83.0984 68.2238 83.5617 66.8508 84.6909 66.6767L86.3397 66.4227C86.5736 66.3865 86.7822 66.2296 86.8907 65.9961L87.5573 64.564C88.0626 63.4785 89.6084 63.4787 90.1135 64.5643L90.7797 65.9965C90.8881 66.2297 91.0963 66.3865 91.3311 66.4227L92.979 66.6767C94.1083 66.8507 94.5715 68.2237 93.7779 69.0445L92.5338 70.3311Z"
              fill="#C9981D"/>
        <rect x="5.82524" y="41.5342" width="36.8932" height="0.965909" rx="0.482955" fill="#AFB6CA"/>
        <rect x="5.82524" y="51.1934" width="36.8932" height="0.965909" rx="0.482955" fill="#AFB6CA"/>
        <rect x="5.82524" y="63.75" width="36.8932" height="0.965909" rx="0.482955" fill="#AFB6CA"/>
        <rect x="5.82524" y="44.4316" width="28.1553" height="0.965909" rx="0.482955" fill="#AFB6CA"/>
        <rect x="5.82524" y="54.0908" width="28.1553" height="0.965909" rx="0.482955" fill="#AFB6CA"/>
        <rect x="5.82524" y="66.6479" width="28.1553" height="0.965909" rx="0.482955" fill="#AFB6CA"/>
        <rect x="5.82524" y="69.5454" width="7.76699" height="0.965909" rx="0.482955" fill="#AFB6CA"/>
        <rect x="5.82524" y="72.4434" width="0.970874" height="0.965909" rx="0.482955" fill="#AFB6CA"/>
        <rect x="3.8835" y="28.0112" width="92.233" height="4.82955" rx="2" fill="#5A6587"/>
        <rect x="1.94174" y="8.69336" width="96.1165" height="8.69318" rx="2" fill="#2B3040"/>
        <rect x="5.82524" y="12.5566" width="13.5922" height="0.965909" rx="0.482955" fill="#AFB6CA"/>
        <rect x="5.82524" y="21.25" width="13.5922" height="0.965909" rx="0.482955" fill="#AFB6CA"/>
        <rect x="21.3592" y="21.25" width="2.91262" height="0.965909" rx="0.482955" fill="#919AB6"/>
        <rect x="83.4951" y="21.25" width="2.91262" height="0.965909" rx="0.482955" fill="#919AB6"/>
        <rect x="88.3495" y="21.25" width="2.91262" height="0.965909" rx="0.482955" fill="#919AB6"/>
        <rect x="93.2039" y="21.25" width="2.91262" height="0.965909" rx="0.482955" fill="#919AB6"/>
        <rect x="87.3786" y="10.625" width="8.73786" height="4.82955" rx="1" fill="#C9981D"/>
        <rect x="62.6359" y="11.125" width="21.3301" height="3.82955" rx="0.5" stroke="#737EA1"/>
    </g>
    <defs>
        <clipPath id="clip0_8126_6165">
            <rect width="100" height="85" fill="white"/>
        </clipPath>
    </defs>
</svg>
