<svg width="100" height="85" viewBox="0 0 100 85" fill="none" xmlns="http://www.w3.org/2000/svg">
    <rect x="1.94174" y="1.93164" width="96.1165" height="4.82955" rx="2" fill="#D1D5E0"/>
    <rect x="1.82037" y="19.3184" width="96.1165" height="63.75" rx="2" fill="#F3F4F7"/>
    <rect x="3.76215" y="21.25" width="92.233" height="4.82955" rx="2" fill="#737EA1"/>
    <rect x="3.76215" y="35.7388" width="92.233" height="8.69318" rx="2" fill="#EDEEF3"/>
    <rect x="3.76215" y="53.125" width="92.233" height="8.69318" rx="2" fill="#EDEEF3"/>
    <rect x="3.76215" y="70.5112" width="92.233" height="8.69318" rx="2" fill="#EDEEF3"/>
    <rect x="1.94174" y="8.69336" width="96.1165" height="8.69318" rx="2" fill="#F3F4F7"/>
    <rect x="5.82526" y="12.5566" width="13.5922" height="0.965909" rx="0.482955" fill="#313749"/>
    <rect x="87.3786" y="10.625" width="8.73786" height="4.82955" rx="1" fill="#FAB404"/>
    <rect x="62.6359" y="11.125" width="21.3301" height="3.82955" rx="0.5" stroke="#5A6587"/>
    <rect x="14.4417" y="30.9087" width="27.1845" height="0.965909" rx="0.482955" fill="#313749"/>
    <rect x="5.70389" y="28.9771" width="4.85437" height="4.82955" rx="2.41477" fill="#E26EF7"/>
    <rect x="14.5631" y="39.6021" width="27.1845" height="0.965909" rx="0.482955" fill="#313749"/>
    <rect x="5.82526" y="37.6704" width="4.85437" height="4.82955" rx="2.41477" fill="#6E80F7"/>
    <rect x="14.4417" y="48.2954" width="27.1845" height="0.965909" rx="0.482955" fill="#313749"/>
    <rect x="5.70389" y="46.3638" width="4.85437" height="4.82955" rx="2.41477" fill="#1AB2A0"/>
    <rect x="14.4417" y="65.6816" width="27.1845" height="0.965909" rx="0.482955" fill="#313749"/>
    <rect x="5.70389" y="63.75" width="4.85437" height="4.82955" rx="2.41477" fill="#F55F3D"/>
    <rect x="14.4417" y="56.9883" width="27.1845" height="0.965909" rx="0.482955" fill="#313749"/>
    <rect x="5.70389" y="55.0566" width="4.85437" height="4.82955" rx="2.41477" fill="#A3B21A"/>
    <rect x="14.4417" y="74.375" width="27.1845" height="0.965909" rx="0.482955" fill="#313749"/>
    <rect x="5.70389" y="72.4434" width="4.85437" height="4.82955" rx="2.41477" fill="#A3B21A"/>
</svg>
