<svg width="100" height="85" viewBox="0 0 100 85" fill="none" xmlns="http://www.w3.org/2000/svg">
    <g clip-path="url(#clip0_8126_6168)">
        <rect x="1.94174" y="1.93164" width="96.1165" height="4.82955" rx="2" fill="#14171F"/>
        <rect x="1.94174" y="19.3184" width="96.1165" height="4.82955" rx="2" fill="#2B3040"/>
        <rect x="1.94174" y="26.0796" width="96.1165" height="56.9886" rx="2" fill="#2B3040"/>
        <rect x="3.8835" y="28.0112" width="92.233" height="4.82955" rx="2" fill="#5A6587"/>
        <rect x="3.8835" y="34.7729" width="92.233" height="4.82955" rx="2" fill="#272C3A"/>
        <rect x="3.8835" y="46.3638" width="92.233" height="4.82955" rx="2" fill="#272C3A"/>
        <rect x="3.8835" y="57.9546" width="92.233" height="4.82955" rx="2" fill="#272C3A"/>
        <rect x="3.8835" y="69.5454" width="92.233" height="4.82955" rx="2" fill="#272C3A"/>
        <rect x="1.94174" y="8.69336" width="96.1165" height="8.69318" rx="2" fill="#2B3040"/>
        <rect x="5.82524" y="12.5566" width="13.5922" height="0.965909" rx="0.482955" fill="#AFB6CA"/>
        <rect x="5.82524" y="21.25" width="13.5922" height="0.965909" rx="0.482955" fill="#AFB6CA"/>
        <rect x="21.3592" y="21.25" width="2.91262" height="0.965909" rx="0.482955" fill="#919AB6"/>
        <rect x="83.4951" y="21.25" width="2.91262" height="0.965909" rx="0.482955" fill="#919AB6"/>
        <rect x="88.3495" y="21.25" width="2.91262" height="0.965909" rx="0.482955" fill="#919AB6"/>
        <rect x="93.2039" y="21.25" width="2.91262" height="0.965909" rx="0.482955" fill="#919AB6"/>
        <rect x="87.3786" y="10.625" width="8.73786" height="4.82955" rx="1" fill="#C9981D"/>
        <rect x="62.6359" y="11.125" width="21.3301" height="3.82955" rx="0.5" stroke="#737EA1"/>
        <rect x="5.82524" y="36.7046" width="13.5922" height="0.965909" rx="0.482955" fill="#AFB6CA"/>
        <rect x="66.9903" y="36.7046" width="4.85437" height="0.965909" rx="0.482955" fill="#AFB6CA"/>
        <rect x="74.7573" y="36.7046" width="19.4175" height="0.965909" rx="0.482955" fill="#AFB6CA"/>
        <rect x="28.1553" y="35.7388" width="2.91262" height="2.89773" rx="1.44886" fill="#169C18"/>
        <rect x="39.8058" y="35.7388" width="2.91262" height="2.89773" rx="1.44886" fill="#F6AB55"/>
        <rect x="51.4563" y="35.7388" width="2.91262" height="2.89773" rx="1.44886" fill="#CDD1DE"/>
        <rect x="5.82524" y="42.5" width="13.5922" height="0.965909" rx="0.482955" fill="#AFB6CA"/>
        <rect x="66.9903" y="42.5" width="4.85437" height="0.965909" rx="0.482955" fill="#AFB6CA"/>
        <rect x="74.7573" y="42.5" width="19.4175" height="0.965909" rx="0.482955" fill="#AFB6CA"/>
        <rect x="28.1553" y="41.5342" width="2.91262" height="2.89773" rx="1.44886" fill="#169C18"/>
        <rect x="39.8058" y="41.5342" width="2.91262" height="2.89773" rx="1.44886" fill="#F6AB55"/>
        <rect x="51.4563" y="41.5342" width="2.91262" height="2.89773" rx="1.44886" fill="#CDD1DE"/>
        <rect x="5.82524" y="54.0908" width="13.5922" height="0.965909" rx="0.482955" fill="#AFB6CA"/>
        <rect x="66.9903" y="54.0908" width="4.85437" height="0.965909" rx="0.482955" fill="#AFB6CA"/>
        <rect x="74.7573" y="54.0908" width="19.4175" height="0.965909" rx="0.482955" fill="#AFB6CA"/>
        <rect x="28.1553" y="53.125" width="2.91262" height="2.89773" rx="1.44886" fill="#169C18"/>
        <rect x="39.8058" y="53.125" width="2.91262" height="2.89773" rx="1.44886" fill="#F6AB55"/>
        <rect x="51.4563" y="53.125" width="2.91262" height="2.89773" rx="1.44886" fill="#CDD1DE"/>
        <rect x="5.82524" y="65.6816" width="13.5922" height="0.965909" rx="0.482955" fill="#AFB6CA"/>
        <rect x="66.9903" y="65.6816" width="4.85437" height="0.965909" rx="0.482955" fill="#AFB6CA"/>
        <rect x="74.7573" y="65.6816" width="19.4175" height="0.965909" rx="0.482955" fill="#AFB6CA"/>
        <rect x="28.1553" y="64.7158" width="2.91262" height="2.89773" rx="1.44886" fill="#169C18"/>
        <rect x="39.8058" y="64.7158" width="2.91262" height="2.89773" rx="1.44886" fill="#F6AB55"/>
        <rect x="51.4563" y="64.7158" width="2.91262" height="2.89773" rx="1.44886" fill="#CDD1DE"/>
        <rect x="5.82524" y="77.2725" width="13.5922" height="0.965909" rx="0.482955" fill="#AFB6CA"/>
        <rect x="66.9903" y="77.2725" width="4.85437" height="0.965909" rx="0.482955" fill="#AFB6CA"/>
        <rect x="74.7573" y="77.2725" width="19.4175" height="0.965909" rx="0.482955" fill="#AFB6CA"/>
        <rect x="28.1553" y="76.3066" width="2.91262" height="2.89773" rx="1.44886" fill="#169C18"/>
        <rect x="39.8058" y="76.3066" width="2.91262" height="2.89773" rx="1.44886" fill="#F6AB55"/>
        <rect x="51.4563" y="76.3066" width="2.91262" height="2.89773" rx="1.44886" fill="#CDD1DE"/>
        <rect x="5.82524" y="48.2954" width="13.5922" height="0.965909" rx="0.482955" fill="#AFB6CA"/>
        <rect x="66.9903" y="48.2954" width="4.85437" height="0.965909" rx="0.482955" fill="#AFB6CA"/>
        <rect x="74.7573" y="48.2954" width="19.4175" height="0.965909" rx="0.482955" fill="#AFB6CA"/>
        <rect x="28.1553" y="47.3296" width="2.91262" height="2.89773" rx="1.44886" fill="#169C18"/>
        <rect x="39.8058" y="47.3296" width="2.91262" height="2.89773" rx="1.44886" fill="#F6AB55"/>
        <rect x="51.4563" y="47.3296" width="2.91262" height="2.89773" rx="1.44886" fill="#CDD1DE"/>
        <rect x="5.82524" y="59.8862" width="13.5922" height="0.965909" rx="0.482955" fill="#AFB6CA"/>
        <rect x="66.9903" y="59.8862" width="4.85437" height="0.965909" rx="0.482955" fill="#AFB6CA"/>
        <rect x="74.7573" y="59.8862" width="19.4175" height="0.965909" rx="0.482955" fill="#AFB6CA"/>
        <rect x="28.1553" y="58.9204" width="2.91262" height="2.89773" rx="1.44886" fill="#169C18"/>
        <rect x="39.8058" y="58.9204" width="2.91262" height="2.89773" rx="1.44886" fill="#F6AB55"/>
        <rect x="51.4563" y="58.9204" width="2.91262" height="2.89773" rx="1.44886" fill="#CDD1DE"/>
        <rect x="5.82524" y="71.4771" width="13.5922" height="0.965909" rx="0.482955" fill="#AFB6CA"/>
        <rect x="66.9903" y="71.4771" width="4.85437" height="0.965909" rx="0.482955" fill="#AFB6CA"/>
        <rect x="74.7573" y="71.4771" width="19.4175" height="0.965909" rx="0.482955" fill="#AFB6CA"/>
        <rect x="28.1553" y="70.5112" width="2.91262" height="2.89773" rx="1.44886" fill="#169C18"/>
        <rect x="39.8058" y="70.5112" width="2.91262" height="2.89773" rx="1.44886" fill="#F6AB55"/>
        <rect x="51.4563" y="70.5112" width="2.91262" height="2.89773" rx="1.44886" fill="#CDD1DE"/>
    </g>
    <defs>
        <clipPath id="clip0_8126_6168">
            <rect width="100" height="85" fill="white"/>
        </clipPath>
    </defs>
</svg>
